<svg xmlns="http://www.w3.org/2000/svg" viewBox="0 0 180 48"><path d="M64.52 23.65l3.69 1a7.45 7.45 0 01-2.8 4.13 8.44 8.44 0 01-5 1.44 7.46 7.46 0 01-6.27-2.71q-2.11-2.7-2.11-8t2.25-8a7.67 7.67 0 016.36-2.81 7.58 7.58 0 014.71 1.51 6.83 6.83 0 012.46 4.06l-3.69.88a4.27 4.27 0 00-1.33-2.33 3.62 3.62 0 00-2.43-.82 3.47 3.47 0 00-3.24 1.87 11.66 11.66 0 00-1.07 5.66A10.71 10.71 0 0057.13 25a3.62 3.62 0 003.34 1.76 4.08 4.08 0 002.53-.85 4.27 4.27 0 001.52-2.26zM70 19.47a12.24 12.24 0 012.32-7.91 8.55 8.55 0 0112.74 0 12.22 12.22 0 012.32 7.91 12.21 12.21 0 01-2.38 7.9 8.53 8.53 0 01-12.74 0 12.21 12.21 0 01-2.26-7.9zm4 0a9.93 9.93 0 001.16 5.38 4.25 4.25 0 006.95 0 9.93 9.93 0 001.16-5.38A10.1 10.1 0 0082 14a4.23 4.23 0 00-6.95 0 10.1 10.1 0 00-1.11 5.47zm16.8 10.46V9h6.86a9.07 9.07 0 015.73 1.74 5.49 5.49 0 012 4.55 5.61 5.61 0 01-1.05 3.34 4.94 4.94 0 01-2.78 1.83l4.44 9.47h-4.1L98 21.8h-3.73v8.14zm3.47-11.63h3.58a4.87 4.87 0 002.86-.76 2.81 2.81 0 00.87-2.26 2.55 2.55 0 00-.87-2.13 4.91 4.91 0 00-2.86-.67h-3.58zM114 29.93V12.5h-5.79V9h15.06v3.5h-5.79v17.43zm30.08 0V9h6.37q4.83 0 7.3 2.63t2.47 7.75c0 3.49-.83 6.31-2.49 8.07s-4.12 2.48-7.42 2.48zm3.47-3.49h2.61c2.14 0 4-.37 4.95-1.48s1.42-3.09 1.42-5.59a7.73 7.73 0 00-1.53-5.22 6.63 6.63 0 00-4.95-1.65h-2.55zm15.06-6.97a12.24 12.24 0 012.32-7.91 8.58 8.58 0 0112.15-.56q.31.28.58.59a12.22 12.22 0 012.34 7.88 12.21 12.21 0 01-2.32 7.89 8.53 8.53 0 01-12.74 0 12.21 12.21 0 01-2.33-7.89zm4 0a9.93 9.93 0 001.16 5.38 4.25 4.25 0 006.95 0 9.93 9.93 0 001.16-5.38A10.1 10.1 0 00174.7 14a4.23 4.23 0 00-6.95 0 10.1 10.1 0 00-1.16 5.47zm-30.33 5.81l1.53 4.65h3.95L135.09 9h-5.19l-6.67 20.93h3.95l1.53-4.65zm-6.69-3.49l2.91-8.93 2.91 8.93h-5.81zM10.11 9.72c5.36-4.78 9-5.88 11.89-6.26h-1A21 21 0 00.53 29.14c-.06-5.4 3.89-14.35 9.58-19.42zm26.39.56a2.4 2.4 0 01-1.78 2.84c-.9.09-2.08-2.25-2.54-3.22-3.84 1.8-8.35 6.44-10.36 9-2.76 3.54-6.3 7.68-9.12 15.75-.13.38-.25.74-.36 1.09a41.79 41.79 0 008.29-3.93c5.78-3.46 6.78-1.73 4.09 3.35-2.48 4.68-7.21 8.77-10.51 9.16a21 21 0 0022.29-34z" fill="#9db877"/><path d="M15.58 34.47a32.78 32.78 0 01-3.22 1.26 16.45 16.45 0 00-.29 7.75c0-.11-.02-2.73 3.51-9.01zM32.19 9.89c.17.37.45.93.77 1.49Q34 10.16 35.19 8.9a12.13 12.13 0 00-3 .99z" fill="#d1dcbb"/><path d="M54 41.88v-7.25h2l1 3.52q.15.47.25.92t.15.88q.09-.4.2-.83t.27-1l1.07-3.54h1.87v7.25h-1.17V35.8c-.06.27-.13.54-.2.8s-.15.53-.23.8l-1.32 4.48h-1l-1.28-4.48q-.2-.7-.28-1t-.14-.58v6.08zm10.14-3.61a4.24 4.24 0 01.8-2.74 3 3 0 014.42 0 4.24 4.24 0 01.8 2.74 4.23 4.23 0 01-.8 2.74 3 3 0 01-4.41 0 4.23 4.23 0 01-.81-2.74zm1.38 0a3.44 3.44 0 00.41 1.87 1.47 1.47 0 002.42 0 3.44 3.44 0 00.41-1.87 3.5 3.5 0 00-.41-1.88 1.46 1.46 0 00-2.42 0 3.5 3.5 0 00-.41 1.88zm7.91 3.61v-7.25h2.63a2.87 2.87 0 011.81.49 1.71 1.71 0 01.62 1.43 1.52 1.52 0 01-.26.89 2 2 0 01-.8.64 1.78 1.78 0 01.92.65 1.9 1.9 0 01.31 1.11 1.8 1.8 0 01-.66 1.54 3.3 3.3 0 01-2 .5zm1.33-4.35h1.11a1.65 1.65 0 001-.22.77.77 0 00.32-.67.76.76 0 00-.32-.68 1.91 1.91 0 00-1-.21h-1zm0 3.23h1.11A1.77 1.77 0 0077 40.5a1 1 0 00.34-.83 1 1 0 00-.33-.79 1.63 1.63 0 00-1-.26h-1.25zm7.58 1.12v-7.25h1.37v7.25zm5.26 0v-7.25H89v6h3v1.24zm7.64 0v-7.25h4.71v1.18H96.6v1.71H99v1.16h-2.4v2h3.49v1.24zM108 40.24l1.24-.55a2.33 2.33 0 00.64.84 1.53 1.53 0 001.7 0 .81.81 0 00.32-.67.75.75 0 00-.23-.56 2.49 2.49 0 00-.84-.45l-.24-.09a8.09 8.09 0 01-1.48-.66 1.79 1.79 0 01-.63-.67 1.93 1.93 0 01-.22-.92 1.77 1.77 0 01.65-1.42 2.58 2.58 0 011.71-.55 2.78 2.78 0 011.54.4 2.3 2.3 0 01.9 1.18l-1.24.45a1.77 1.77 0 00-.54-.71 1.3 1.3 0 00-.77-.22 1.07 1.07 0 00-.7.21.68.68 0 00-.26.56q0 .55 1.25 1l.6.24a3.74 3.74 0 011.42.9 1.85 1.85 0 01.38 1.21 2 2 0 01-.66 1.58 2.65 2.65 0 01-1.81.57 3.1 3.1 0 01-1.69-.44 2.7 2.7 0 01-1.04-1.23zm8.05-1.97a4.24 4.24 0 01.8-2.74 3 3 0 014.42 0 4.23 4.23 0 01.8 2.74 4.23 4.23 0 01-.8 2.74 3 3 0 01-4.41 0 4.23 4.23 0 01-.81-2.74zm1.38 0a3.44 3.44 0 00.41 1.87 1.47 1.47 0 002.42 0 3.44 3.44 0 00.41-1.87 3.5 3.5 0 00-.41-1.88 1.46 1.46 0 00-2.42 0 3.5 3.5 0 00-.41 1.88zm7.95 3.61v-7.25h1.39v6h3.06v1.24zm7.43-2.66v-4.59h1.36v4.64a1.71 1.71 0 00.33 1.17 1.36 1.36 0 001.05.36 1.46 1.46 0 001.1-.35 1.7 1.7 0 00.33-1.18v-4.64h1.32v4.8a2.47 2.47 0 01-.71 1.9 2.88 2.88 0 01-2 .66 2.78 2.78 0 01-2.06-.69 2.87 2.87 0 01-.72-2.08zm10.54 2.66v-6h-1.9v-1.2h5.18v1.2h-1.9v6zm6.57 0v-7.25h1.37v7.25zm4.83-3.61a4.24 4.24 0 01.8-2.74 3 3 0 014.42 0 4.24 4.24 0 01.8 2.74A4.23 4.23 0 01160 41a3 3 0 01-4.41 0 4.23 4.23 0 01-.84-2.73zm1.38 0a3.44 3.44 0 00.41 1.87 1.47 1.47 0 002.42 0 3.44 3.44 0 00.41-1.87 3.5 3.5 0 00-.41-1.88 1.46 1.46 0 00-2.42 0 3.5 3.5 0 00-.4 1.88zm7.94 3.73v-7.25h1.46l2.08 3.64q.24.42.44.86t.37.88q-.05-.32-.08-.69v-4.69h1.27V42h-1.27l-2.26-3.74q-.19-.32-.39-.76t-.43-1a6.54 6.54 0 01.07.65v4.82zm8.73-1.76l1.24-.55a2.33 2.33 0 00.64.84 1.53 1.53 0 001.7 0 .81.81 0 00.32-.67.75.75 0 00-.23-.56 2.5 2.5 0 00-.84-.45l-.24-.09a8.08 8.08 0 01-1.48-.66 1.79 1.79 0 01-.63-.67 1.92 1.92 0 01-.22-.92 1.77 1.77 0 01.65-1.42 2.58 2.58 0 011.71-.55 2.77 2.77 0 011.54.4 2.3 2.3 0 01.9 1.18l-1.24.45a1.77 1.77 0 00-.54-.71 1.3 1.3 0 00-.77-.22 1.07 1.07 0 00-.7.21.68.68 0 00-.26.56q0 .55 1.25 1l.6.24a3.73 3.73 0 011.42.9 1.85 1.85 0 01.38 1.21 2 2 0 01-.66 1.58 2.65 2.65 0 01-1.81.57 3.1 3.1 0 01-1.69-.44 2.7 2.7 0 01-1.04-1.23z" fill="#9db877"/></svg>