<svg xmlns="http://www.w3.org/2000/svg" width="189.212" height="168.538"><path d="M153.572 68.232c-5.957-3.98-13.85-6.085-13.85-11.162 0-2.6 2.357-6.128 5.686-6.128.282 0 1.228-.1 2.903.103 5.084.849 6.692 4.664 7.137 7.65h1.779l-.342-8.709v-.832c-1.571-.293-5.985-1.149-10.392-1.149-9.001 0-14.082 4.048-14.082 10.762 0 4.326 2.135 7.214 5 9.471 5.859 4.605 14.744 6.601 14.744 12.926 0 3.929-3.879 5.08-6.528 5.08-4.713 0-9.867-2.869-13.069-4.87v6.61c1.558.603 6.78 3.036 11.8 3.036 8.941 0 15.708-3.32 15.708-12.392 0-4.867-2.896-7.974-6.494-10.396m-130.745.799c0-7.819 1.445-17.65 10.334-17.65 6.524 0 9.847 6.143 10.092 9.33h1.755l-.361-10.46c-2.787-.943-6.71-1.883-12.096-1.883-13.468 0-17.403 9.234-17.403 20.628.213 11.895 4.575 22.337 17.475 22.337 5.012 0 10.16-2.832 12.512-4.084v-5.923c-1.517 1.186-5.811 4.809-11.071 4.809-9.785 0-11.099-11.027-11.237-17.104m45.456 21.448V55.084c-.108-1.42-.36-2.075-.806-2.479-.863-.809-4.007-1.236-5.05-1.414v-2.414h15.821l12.03 34.024h.116l11.72-34.024h10.04v41.707l-7.215-.005V55.01L92.76 90.484l-6.28-.005-12.154-34.615v34.62l-6.042-.005" fill="#1e2748"/><path d="M56.093 37.14H60.2L48.09 73.594l8.003-36.456m69.815.002h4.105l-12.11 36.455 8.005-36.456m46.477.001h4.106L164.38 73.594l8.005-36.456M15.271 106.913h144.452v-.959H15.27v.96z" fill="#68605f"/><path d="M55.104 120.386h1.693v10.332h4.946v1.49h-6.639v-11.822m13.96 7.708c-.34 0-.678-.035-1.017-.035-.865 0-2.998.135-2.998 1.66 0 .916.88 1.403 1.609 1.403 1.574 0 2.406-.98 2.406-2.269v-.76zm-4.727-3.914c.796-.472 1.746-.814 2.845-.814 2.474 0 3.472 1.22 3.472 3.576v3.571c0 .985.034 1.441.07 1.695h-1.492v-1.117h-.033c-.374.523-1.22 1.322-2.678 1.322-1.863 0-3.167-.814-3.167-2.694 0-2.17 2.372-2.844 4.015-2.844.627 0 1.067 0 1.695.031 0-1.49-.544-2.25-2.136-2.25-.897 0-1.862.337-2.506.878l-.085-1.354m18.55 8.028H81.04l-2.236-7.25h-.033l-2.185 7.25h-1.847l-2.778-8.639h1.745l1.982 7.149h.034l2.202-7.149h1.88l2.167 7.149h.033l2.1-7.149h1.561l-2.778 8.64m6.531-.001h1.898v-1.895h-1.898v1.895zm9.289-10.332h-3.673v-1.49h9.045v1.49h-3.678v10.332h-1.694v-10.332m11.216 6.218c-.338 0-.678-.035-1.017-.035-.863 0-2.998.135-2.998 1.66 0 .916.879 1.403 1.608 1.403 1.576 0 2.407-.98 2.407-2.269v-.76zm-4.724-3.914c.795-.472 1.747-.814 2.844-.814 2.472 0 3.471 1.22 3.471 3.576v3.571c0 .985.036 1.441.068 1.695h-1.488v-1.117h-.035c-.375.523-1.22 1.322-2.677 1.322-1.863 0-3.166-.814-3.166-2.694 0-2.17 2.369-2.844 4.012-2.844.629 0 1.067 0 1.695.031 0-1.49-.542-2.25-2.134-2.25-.899 0-1.863.337-2.505.878l-.085-1.354m10.992 3.504l-2.812-4.115h1.984l1.878 3.085 1.915-3.085h1.779l-2.777 4.115 3.049 4.524h-1.965l-2.135-3.385-2.133 3.385h-1.897l3.114-4.524" fill="#1e2748"/></svg>