<svg width="432" height="98" xmlns="http://www.w3.org/2000/svg" xmlns:xlink="http://www.w3.org/1999/xlink"><defs><path id="a" d="M129.196 98H0V.31h258.393V98z"/></defs><g fill="none" fill-rule="evenodd"><path d="M288.637 15.793h-23.264c-1.234 0-2.203.955-2.203 2.169v58.322c0 1.215.969 2.17 2.203 2.17h6.168c1.233 0 2.204-.955 2.204-2.17V51.723c0-.434.44-.868.881-.868h9.693c1.234 0 2.204-.955 2.204-2.169v-4.601c0-1.214-.97-2.169-2.204-2.169h-9.693c-.441 0-.881-.434-.881-.868V25.686c0-.433.44-.867.881-.867h14.011c1.234 0 2.204-.955 2.204-2.171v-4.686c0-1.214-.97-2.169-2.204-2.169m21.921 28.292h-3.259c-.442 0-.882-.433-.882-.868V25.339c0-.434.44-.868.882-.868h3.259c4.76 0 6.17 2.17 6.17 9.808 0 7.637-1.41 9.806-6.17 9.806zm9.166 7.725c-.177-.521.088-1.042.528-1.216 4.847-2.517 6.874-6.248 6.874-16.056 0-10.674-2.467-18.745-14.804-18.745h-14.277c-1.233 0-2.202.955-2.202 2.169v58.322c0 1.215.969 2.17 2.202 2.17h6.17c1.234 0 2.202-.955 2.202-2.17V53.285c0-.434.44-.867.882-.867h2.026c.53 0 .97.346 1.147.867l6.344 23.086c.352 1.215 1.498 2.083 2.82 2.083h5.904c1.146 0 1.851-1.042 1.586-2.083l-7.402-24.561zm38.303 17.358h-14.364c-.44 0-.882-.435-.882-.868V51.289c0-.434.442-.868.882-.868h9.252c1.234 0 2.204-.954 2.204-2.17v-4.425c0-1.216-.97-2.171-2.204-2.171h-9.252c-.44 0-.882-.433-.882-.868V25.773c0-.434.442-.868.882-.868h13.658c1.234 0 2.204-.954 2.204-2.17v-4.773c0-1.214-.97-2.169-2.204-2.169h-22.824c-1.233 0-2.202.955-2.202 2.169v58.322c0 1.215.969 2.17 2.202 2.17h23.53c1.233 0 2.202-.955 2.202-2.17v-4.947c0-1.216-.969-2.169-2.202-2.169m25.668-25.864c-5.553-5.381-9.254-8.938-9.254-13.799 0-3.211 1.587-5.815 5.111-5.815 3.349 0 5.111 2.257 5.111 8.592v1.823c0 .868.794 1.649 1.674 1.649h6.169c1.057 0 1.938-.868 1.938-1.91v-2.082c0-11.716-5.64-17.011-14.892-17.011-10.751 0-15.244 7.203-15.244 15.188 0 8.939 5.727 14.668 11.015 19.701 5.375 5.034 9.781 8.939 9.781 14.754 0 4.687-2.82 5.988-5.64 5.988-4.141 0-5.815-2.776-5.815-7.637v-3.559c0-1.214-.97-2.169-2.204-2.169h-5.375c-1.233 0-2.203.955-2.203 2.169v4.34c0 9.286 5.993 15.97 15.685 15.97 9.252 0 15.685-6.163 15.685-15.883 0-8.591-5.023-13.973-11.542-20.309m46.101-27.511h-6.08c-1.233 0-2.204.955-2.204 2.169v23.347c0 .433-.44.868-.88.868h-9.429c-.44 0-.882-.435-.882-.868V17.962c0-1.214-.969-2.169-2.202-2.169h-6.081c-1.234 0-2.203.955-2.203 2.169v58.322c0 1.215.969 2.17 2.203 2.17h6.081c1.233 0 2.202-.955 2.202-2.17v-24.04c0-.434.442-.868.882-.868h9.429c.44 0 .88.434.88.868v24.04c0 1.215.971 2.17 2.204 2.17h6.08c1.234 0 2.204-.955 2.204-2.17V17.962c0-1.214-.97-2.169-2.204-2.169" fill="#91C11E"/><mask id="b" fill="#fff"><use xlink:href="#a"/></mask><path d="M245.546 69.158c-.68 1.21-1.372 2.038-2.117 2.534-.326.218-.969.452-1.606.452-.596 0-1.055-.184-1.405-.562-5.302-5.735-5.352-27.682-.086-36.693 1.776-3.037 4.075-3.365 4.981-3.365.14 0 .276.007.408.021 1.376.14 2.492 2.148 2.801 2.76 4.031 8.006 1.703 26.724-2.976 34.853zm-35.537-26.575c.023-19.185 3.063-29.552 5.375-31.965.268-.281.52-.436.709-.436.566 0 1.43 1.598 1.495 6.006 0 0 .012.422.012.53 0 5.977-.741 12.126-2.1 18.299-1.634 7.415-4.622 13.649-5.236 14.887-.163-2.374-.249-4.84-.255-7.321zM187.92 12.027c.33-.341.635-.52.883-.52.061 0 .251 0 .497.274.891.991 1.816 4.423.891 10.97-2.553 18.071-7.67 25.873-7.67 25.873-.593-20.706 2.375-33.48 5.399-36.597zm-39.608 38.342l.019-.13c2.074-14.067 5.281-19.079 7.591-19.079.813 0 1.424.65 1.793 1.194 2.596 3.827 2.528 9.884-.157 14.087-2.135 3.341-5.35 4.042-7.67 4.042-.487 0-.973-.032-1.444-.096l-.132-.018zm101.604-23.674c-2.036-1.075-3.949-1.597-5.848-1.597-1.942 0-3.879.56-5.922 1.714-5.546 3.132-8.923 10.459-10.627 21.524-2.222 10.729-7.894 21.198-10.727 21.164-2.396-.029-4.219-4.162-5.369-10.185 5.731-10.721 10.035-24.942 11.276-37.375.221-2.208.335-4.303.341-6.231l-.001-.197c-.25-9.989-4.556-13.75-8.499-13.939a4.336 4.336 0 00-.228-.005c-1.883 0-3.827 1.136-5.625 3.286-3.537 4.232-6.201 11.772-7.5 21.231-.654 4.755-.914 9.89-.831 15.261l-.022-.003c-.164 7.332.506 13.935 1.773 19.473.148.933.284 1.861.451 2.8l.012.063-.096.108c-2.362 2.896-4.811 5.124-7.082 6.441l-.434.265.011.022-.283.184-.036-.046-.383.182c-1.037.492-2.008.743-2.879.743l-.09-.002c-3.693-.067-6.372-4.8-7.963-14.067l-.007-.041.142-.278c5.854-10.193 8.828-20.544 8.955-20.988l.179-.675c3.955-13.072 4.008-24.144.139-29.619-1.367-1.938-3.149-3.004-5.15-3.08a6.63 6.63 0 00-.282-.005c-2.412 0-4.647 1.174-6.642 3.49-7.354 8.539-9.697 30.305-5.97 55.45l.009.059-.039.046c-2.599 3.039-5.359 5.458-8.198 7.186-3.586 2.13-6.456 2.619-7.843 2.721-.192.011-.382.023-.569.023-2.163 0-4.012-.767-5.497-2.28-2.552-2.599-3.996-7.778-4.065-14.584l-.002-.163.159.032c1.403.29 2.703.43 3.975.43 4.684 0 8.609-1.707 11.352-4.938 2.352-2.769 3.701-6.611 3.701-10.539 0-9.046-5.938-13.166-11.455-13.166-2.541 0-6.316.802-9.876 4.626-3.23 3.469-5.565 8.665-6.939 15.442l-.034.173-.155-.084a70.774 70.774 0 00-7.026-3.282l-.084-.034.007-.377c.131-6.735.348-13.877.56-20.851.147-4.856.296-9.759.419-14.608.102-2.125-.442-3.827-1.616-5.06C129.729.696 126.955.31 124.936.31c-.837 0-1.537.066-1.978.122a.887.887 0 00-.786.982c.622 5.398.85 21.42.555 38.961l-.003.159-.155-.033a44.607 44.607 0 00-3.734-.635l-.354-.038c-2.846-.415-5.53-.668-7.978-.753a55.466 55.466 0 00-1.945-.033c-.151 0-.594.004-.961.007l.005-.137c.379-10.126.945-19.659.95-19.756.106-2.212-.46-3.985-1.682-5.268-1.825-1.914-4.716-2.316-6.819-2.316-.84 0-1.538.063-1.977.115-.55.067-.941.535-.89 1.065.373 3.837.577 15.527.472 27.193l-.001.106-.103.022a67.618 67.618 0 00-9.032 2.592c-.87.318-2.103.847-3.665 1.573-2.634 1.224-2.753 4.191-2.054 6.36.463 1.434 1.341 2.316 1.452 2.422.261.24.597.371.944.371.166 0 .329-.028.484-.083.35-.126 2.65-1.122 3.411-1.46.241-.109.5-.207.823-.331.191-.072.385-.146.577-.225l.441-.177c.366-.149.749-.303 1.173-.449.655-.25 1.272-.509 1.958-.797.995-.419 2.025-.852 3.277-1.27l.177-.059-.005.187a445.556 445.556 0 01-.126 4.399c-.268 7.773-.789 32.174-.811 33.207-.213 4.682.523 7.837 2.25 9.645 1.931 2.021 4.806 2.021 6.904 2.021l1.298.001c.27 0 .524-.112.696-.307a.865.865 0 00.21-.685c-1.184-9.122-.866-33.206-.674-43.147 0-2.136.034-4.595.102-7.309l.003-.112.11-.015a82.496 82.496 0 013.374-.379 62.472 62.472 0 015.219-.211c1.112 0 2.27.028 3.443.083l.202.008c.2.01.399.02.608.034l.507.037a33.9 33.9 0 011.668.191l.115.016-.039 1.753c-.142 6.441-.336 15.263-.598 20.794-.204 4.489.503 7.514 2.161 9.249 1.713 1.792 4.106 1.94 6.613 1.94l1.17.001a.984.984 0 00.743-.327.916.916 0 00.225-.721c-.685-5.514-1.005-16.783-.855-30.143l.003-.185.173.063a55.078 55.078 0 016.381 2.741l.075.039-.005.084c-.524 9.519 1.596 17.338 5.968 22.019 2.931 3.135 6.751 4.792 11.048 4.792 5.822 0 11.413-2.307 16.612-6.854a36.403 36.403 0 004.01-3.994l.148-.173.136.381c2.524 6.792 6.954 10.687 12.153 10.687.041 0 .082-.002.184-.011.459-.006.938-.034 1.475-.087.051-.002.103-.005.152-.011 1.603-.192 3.244-.655 4.883-1.379l.083-.037a19.316 19.316 0 002.099-1.109c.105-.062.329-.194.408-.243 2.95-1.846 5.143-4.128 6.463-5.717l.131-.158.089.186c1.174 2.474 2.612 4.442 4.244 5.862 5.725 5.882 13.271 2.712 19.351-13.51v.008c1.312 7.262 4.025 14.296 10.969 15.778 1.03.277 2.11.418 3.21.418 1.157 0 2.311-.158 3.427-.468 4.927-1.365 10.601-9.267 12.176-23.844 1.087-10.048-.399-23.235-8.161-27.333zM66.773 22.061c.003.12.844.878 1.249 1.567.405.689.791 1.302.9 1.997.073.466-.043.616-.255.616-1.202 0-7.009-8.866-18.532-12.022-6.466-1.771-15.467-2.456-22.885.053-6.383 2.158-12.021 6.196-16.369 11.317-4.897 5.767-8.049 12.683-8.671 20.26-.255 3.115-.012 6.316-.568 9.4-.141.78-.407 1.513-.677 2.245-.136.364-1.251 3.605.947 8.027 2.082 4.188 8.487 4.83 9.082 2.945.546-1.729 1.407-2.115 2.097-2.115.956 0 1.497.924 1.986 1.149 32.736 15.084 57.369-21.891 57.369-21.891.431-2.498.641-5.038.679-7.572.035-2.323-.105-4.573.21-6.884.294-2.157.384-4.214-.675-6.196-.755-1.404-2.009-2.142-3.467-2.62-.368-.12-2.435-.869-2.42-.276z" fill="#91C11E" mask="url(#b)"/><path d="M13.091 66.351c-.69 0-1.551.386-2.097 2.115-.595 1.885-7 1.243-9.082-2.945-2.198-4.422-1.083-7.663-.915-8.098-.075.187-.117.304-.16.421.053-.14.101-.281.159-.419-.058.139-.107.281-.16.422-.147.402-.283.809-.399 1.224-.06.224-.112.449-.16.675l-.043.214a12.475 12.475 0 000 .002c-.273 1.382-.325 2.814-.061 4.198.729 3.816 3.533 5.78 7.071 6.81 2.311.673 4.54 1.26 6.655 2.448 1.89 1.062 3.731 2.216 5.731 3.069 8.628 3.679 18.723 3.407 27.432.164 8.916-3.319 16.533-9.67 21.032-18.089 2.16-4.044 3.576-8.441 4.352-12.953 0 0-24.633 36.975-57.369 21.891-.489-.225-1.03-1.149-1.986-1.149z" fill="#659A41" mask="url(#b)"/><path d="M28.179 26.483c-.387.145-3.372-4.165-1.865-5.008 9.967-5.579 25.298-2.129 32.743 2.597.585.371.842.579.843.677.886 1.514-16.847-3.826-31.721 1.734" fill="#FFFFFE"/></g></svg>