<svg xmlns="http://www.w3.org/2000/svg" viewBox="0 0 524 178"><path opacity=".93" fill="#1B143F" d="M59.115 136.353l-15.108-15.108-14.59 14.59c4.174 5.112 8.886 10.415 13.874 15.198.211.169.41.353.623.52l15.201-15.2z"/><path fill="#292D48" d="M49.93 155.993c4.799 4.728 14.411 9.188 14.395 9.188 0 0 9.128-3.991 14.395-9.225l-14.395-14.395-14.395 14.432z"/><path opacity=".65" fill="#38A7D7" d="M59.115 14.448l-.881-.881-7.222 1.905-15.003 6.062 8.01 8.011zm10.431-.011l15.108 15.108 8.073-8.074-14.976-6.111-7.208-1.92z"/><path opacity=".93" fill="#1B143F" d="M69.546 136.341l15.042 15.042c.928-.723 1.816-1.486 2.713-2.239 4.272-4.268 8.307-8.858 11.938-13.303l-14.597-14.596-15.096 15.096z"/><path fill="#38A7D7" d="M10.51 49.048v12.07l6.034-6.035zm18.4 6.024l15.096-15.096 15.108 15.108-15.096 15.095z"/><path opacity=".8" fill="#38A7D7" d="M38.798 34.766L27.604 24.54 10.51 31.056v7.55l12.223 11.256zm10.43-.012l15.096-15.096L79.43 34.766 64.335 49.86z"/><path fill="#38A7D7" d="M69.545 55.072l15.096-15.096 15.107 15.108-15.095 15.095z"/><path opacity=".8" fill="#38A7D7" d="M104.031 49.468l9.517-10.851v-7.561l-14.755-6.565-10.067 10.066z"/><path fill="#38A7D7" d="M113.548 60.975V49.037l-5.851 5.851z"/><path fill="#00297E" d="M22.722 100.927L10.51 112.172v.173s5.841 7.87 13.341 17.669l13.979-13.98-15.108-15.107z"/><path fill="#3C6B9E" d="M38.798 75.4L22.722 60.293 10.51 71.537v7.704l12.223 11.256zm10.43-.011l15.096-15.096L79.43 75.4 64.335 90.496z"/><path fill="#00297E" d="M49.228 116.024l15.096-15.096 15.107 15.107-15.096 15.096zm40.635 0l12.651 13.985c7.497-9.796 11.034-17.663 11.034-17.663v-.162l-9.922-11.256-13.763 15.096z"/><path fill="#3C6B9E" d="M89.863 75.389l7.174 7.173 6.762 7.772 9.749-11.082v-7.704l-9.922-11.255z"/><path fill="#1856A7" d="M10.51 89.683v12.069l6.034-6.034zm18.4 6.023L44.006 80.61l15.107 15.107-15.096 15.096zm40.634 0L84.64 80.61l15.107 15.108-15.095 15.095zm44.004 6.035V89.672l-6.035 6.034z"/><g fill="#3C88B8"><path d="M208.691 43.877h4.605L224.5 77.032h-3.632l-3.428-10.285h-12.894l-3.427 10.285h-3.634l11.206-33.155zm-3.225 20.006h11.103l-5.422-17.192h-.153l-5.528 17.192z"/><path d="M227.028 78.846h-7.469l-3.428-10.285h-10.278l-3.427 10.285h-7.47l12.432-36.783h7.209l12.431 36.783zm-19.073-16.777h6.139l-3.04-9.64-3.099 9.64zm21.304-15.328v-2.864h21.95v2.864h-9.314v30.29h-3.376v-30.29h-9.26z"/><path d="M243.709 78.846h-7.004V48.555h-9.26v-6.492h25.578v6.492h-9.314zm36.305-1.814h-18.828V43.877h18.265l-.359 2.864h-14.48v11.718h12.792v2.866h-12.843v12.842h15.452v2.865z"/><path d="M281.828 78.846h-22.456V42.063h22.134l-.812 6.492h-14.267v8.09h12.792v6.494h-12.843v9.213h15.452zm30.42-34.969h3.377v33.155h-3.736L294.39 49.044l.206 4.81v23.177h-3.377V43.877h3.683l17.499 27.884-.153-4.911V43.877z"/><path d="M317.439 78.846h-6.555l-14.475-23.152.001 23.152h-7.005V42.063h6.5l14.53 23.152-.002-23.152h7.006zm10.261-5.991c2.625.942 5.456 1.413 8.492 1.413s5.186-.437 6.448-1.312c1.261-.877 1.893-2.504 1.893-4.884 0-1.257-.411-2.299-1.229-3.125-.785-.727-1.501-1.256-2.15-1.586l-1.841-.893c-.58-.264-1.288-.578-2.124-.942-.836-.363-1.559-.685-2.174-.967a61.621 61.621 0 01-2.506-1.24c-1.059-.544-1.808-1.006-2.252-1.387-.444-.38-.94-.852-1.484-1.413-.955-1.025-1.433-2.347-1.433-3.967 0-2.744.972-4.884 2.917-6.421 1.943-1.536 4.452-2.304 7.521-2.304 3.07 0 5.918.427 8.544 1.278l-.665 2.878c-2.116-.894-4.546-1.344-7.292-1.344s-4.681.422-5.806 1.266c-1.127.842-1.689 2.289-1.689 4.337 0 1.521.801 2.778 2.405 3.77 1.295.792 3.291 1.76 5.986 2.9 2.694 1.141 4.52 2.025 5.475 2.653 2.421 1.587 3.649 3.734 3.683 6.446 0 6.049-4.042 9.073-12.126 9.073-3.377 0-6.532-.495-9.466-1.484l.873-2.745z"/><path d="M336.295 78.897c-3.559 0-6.939-.531-10.045-1.579l-1.688-.57 1.978-6.237 1.773.636c2.414.867 5.064 1.307 7.878 1.307 3.296 0 4.765-.537 5.414-.989.738-.513 1.114-1.655 1.114-3.393 0-.777-.224-1.363-.704-1.849-.602-.556-1.188-.993-1.682-1.244l-1.811-.877c-.531-.242-1.232-.553-2.056-.911-.848-.368-1.582-.694-2.207-.981a66.1 66.1 0 01-2.582-1.278c-1.192-.612-2.044-1.144-2.601-1.623a24.534 24.534 0 01-1.604-1.526c-1.298-1.392-1.944-3.143-1.944-5.23 0-3.313 1.213-5.952 3.605-7.844 2.262-1.789 5.171-2.696 8.647-2.696 3.244 0 6.308.459 9.104 1.366l1.582.514-1.523 6.601-1.988-.84c-1.885-.796-4.101-1.2-6.586-1.2-3.057 0-4.269.565-4.718.903-.641.479-.964 1.448-.964 2.885 0 .546.16 1.37 1.545 2.226 1.213.743 3.146 1.677 5.738 2.772 2.825 1.196 4.709 2.115 5.765 2.808 2.944 1.932 4.459 4.602 4.501 7.939-.001 4.988-2.419 10.91-13.941 10.91zm8.518-14.988c1.033 1.171 1.535 2.554 1.535 4.162 0 1.403-.197 2.62-.59 3.644.696-1.195.849-2.524.849-3.706-.021-1.658-.597-2.988-1.794-4.1zm20.34-18.368c1.433-.713 2.762-1.176 3.99-1.392 1.229-.215 2.815-.323 4.759-.323s4.331.461 7.163 1.38l-.818 3.002c-3.07-.806-5.347-1.21-6.83-1.21-1.485 0-2.755.074-3.812.223s-2.141.486-3.25 1.012c-1.108.527-1.987 1.268-2.635 2.222-1.467 2.173-2.2 5.497-2.2 9.974 0 5.497 1.023 9.185 3.07 11.06.989.889 2.012 1.507 3.07 1.852s2.225.519 3.505.519h2.839c1.978 0 3.94-.651 5.884-1.952l1.176 2.667c-2.455 1.672-5.662 2.507-9.617 2.507-1.536 0-2.866-.091-3.991-.274-1.127-.181-2.321-.597-3.583-1.241a8.308 8.308 0 01-3.095-2.71c-.802-1.161-1.477-2.783-2.021-4.872-.547-2.088-.819-4.548-.819-7.382 0-2.833.34-5.293 1.023-7.382.683-2.088 1.528-3.712 2.534-4.871 1.005-1.161 2.225-2.096 3.658-2.809z"/><path d="M371.447 78.897c-1.628 0-3.068-.101-4.281-.298-1.304-.21-2.69-.686-4.118-1.416a10.156 10.156 0 01-3.761-3.295c-.934-1.351-1.682-3.132-2.285-5.445-.581-2.222-.877-4.861-.877-7.84 0-3.014.374-5.687 1.113-7.946.757-2.31 1.728-4.16 2.888-5.496a13.483 13.483 0 014.221-3.244c1.58-.787 3.09-1.31 4.484-1.555 1.345-.235 3.005-.35 5.072-.35 2.153 0 4.68.48 7.722 1.47l1.645.533-1.745 6.404-1.739-.456c-2.907-.764-5.05-1.151-6.369-1.151-1.396 0-2.594.069-3.56.205-.872.122-1.787.41-2.724.853-.818.39-1.444.914-1.912 1.603-1.251 1.852-1.886 4.867-1.886 8.955 0 4.874.857 8.236 2.482 9.722.782.704 1.597 1.2 2.408 1.465.87.285 1.859.429 2.941.429h2.839c1.626 0 3.221-.539 4.875-1.645l1.797-1.202 2.657 6.026-1.247.85c-2.751 1.874-6.329 2.824-10.64 2.824zm-10.315-9.367c.344.931.726 1.699 1.138 2.296a6.467 6.467 0 002.431 2.127c.177.091.351.176.526.255a11.722 11.722 0 01-1.848-1.37c-.928-.847-1.674-1.946-2.247-3.308zm49.966-25.653h3.376v33.155h-3.376v-15.76h-15.862v15.76h-3.376V43.877h3.376v14.531h15.862V43.877z"/><path d="M416.288 78.846h-7.004v-15.76H397.05v15.76h-7.004V42.063h7.004v14.531h12.234V42.063h7.004zm22.797-1.763h-1.944c-.41 0-1.04-.058-1.893-.177-.853-.118-1.57-.303-2.148-.556-.581-.252-1.237-.649-1.97-1.188a6.542 6.542 0 01-1.766-1.92c-1.125-1.786-1.688-4.094-1.688-6.925v-22.44h3.428v22.377c.102 5.275 2.764 7.912 7.982 7.912 2.217 0 4.059-.638 5.526-1.915s2.2-3.209 2.2-5.795V43.877h3.326l-.051 22.507c-.001 7.133-3.669 10.699-11.002 10.699z"/><path d="M439.085 78.897h-1.944c-.505 0-1.206-.064-2.144-.194-1.01-.14-1.893-.371-2.623-.69-.704-.306-1.464-.761-2.319-1.389a8.341 8.341 0 01-2.248-2.45c-1.284-2.035-1.946-4.691-1.946-7.856V42.063h7.056v24.191c.082 4.264 1.927 6.098 6.168 6.098 1.781 0 3.199-.48 4.335-1.468 1.06-.924 1.576-2.372 1.576-4.427V42.063h6.959l-.055 24.325c0 8.182-4.432 12.509-12.815 12.509zm-8.513-7.196c.102.198.21.39.326.574.265.441.574.812.95 1.141a7.78 7.78 0 01-1.276-1.715zm29.286-24.96v-2.864h21.95v2.864h-9.313v30.29h-3.376v-30.29h-9.261z"/><path d="M474.309 78.846h-7.004V48.555h-9.261v-6.492h25.578v6.492h-9.313zm15.224-32.105v-2.864h21.95v2.864l-18.318 27.374h18.318l-.972 2.917h-20.978v-2.866l18.214-27.425h-18.214z"/><path d="M511.819 78.846h-24.1v-5.227l16.645-25.064h-16.645v-6.492h25.578v5.229l-16.735 25.009H514zM179.221 138.43h-18.828v-33.155h18.265l-.359 2.864h-14.48v11.718h12.792v2.866h-12.843v12.842h15.452v2.865z"/><path d="M181.035 140.244h-22.456v-36.782h22.134l-.812 6.492h-14.267v8.089h12.792v6.494h-12.843v9.214h15.452zm6.832-34.968h3.838l8.698 13.661 8.647-13.661h3.889l-10.232 15.86 11.205 17.294h-3.685l-9.823-15.145-9.824 15.145h-3.683l11.205-17.294-10.235-15.86z"/><path d="M217.246 140.244h-8.005l-8.838-13.625-8.84 13.625h-8.004l12.381-19.11-11.402-17.672h8.162l7.698 12.09 7.652-12.09h8.217l-11.401 17.672zm15.39-14.81h-5.424v12.996h-3.427v-33.155h9.719c1.808 0 3.335.111 4.58.332a11.53 11.53 0 013.607 1.301c2.32 1.361 3.479 4.134 3.479 8.319 0 3.505-.836 6.074-2.507 7.707-.716.68-1.671 1.216-2.864 1.607-1.196.391-2.304.638-3.328.74-1.022.102-2.3.153-3.835.153zm-2.046-2.916h3.887c2.764 0 4.64-.434 5.629-1.3.989-.867 1.484-2.795 1.484-5.787 0-2.99-.622-4.911-1.868-5.761-1.246-.849-3.522-1.274-6.83-1.274h-5.68v14.121h3.378z"/><path d="M229.026 140.244h-7.055v-36.783h11.533c1.905 0 3.553.12 4.898.36 1.437.255 2.84.76 4.172 1.502 2.938 1.722 4.41 5.048 4.41 9.904 0 3.995-1.027 7.025-3.053 9.005-.927.88-2.122 1.559-3.567 2.032-1.317.431-2.565.707-3.713.822-1.079.108-2.429.162-4.016.162h-3.61v12.996zm0-19.54h5.451c3.125 0 4.143-.595 4.435-.85.143-.126.865-.935.865-4.422 0-3.185-.753-4.042-1.077-4.263-.524-.357-1.977-.958-5.806-.958h-3.866v10.493zm45.975 17.726h-18.829v-33.155h18.265l-.357 2.864h-14.481v11.718h12.792v2.866h-12.843v12.842h15.453v2.865z"/><path d="M276.815 140.244h-22.457v-36.782h22.134l-.81 6.492h-14.269v8.089h12.792v6.494h-12.843v9.214h15.453zm18.242-14.81h-5.424v12.996h-3.427v-33.155h9.719c1.808 0 3.335.111 4.58.332 1.244.223 2.446.656 3.607 1.302 2.32 1.363 3.479 4.14 3.479 8.33 0 3.133-.624 5.451-1.868 6.949-1.244 1.499-3.01 2.47-5.295 2.912l8.595 12.408-2.66 1.791-9.722-13.866h-1.584zm-2.047-2.916h3.887c2.764 0 4.64-.434 5.629-1.3.989-.867 1.484-2.795 1.484-5.787 0-2.99-.622-4.911-1.868-5.761-1.246-.849-3.522-1.274-6.83-1.274h-5.68v14.121h3.378z"/><path d="M305.901 141.799l-10.203-14.551h-4.252v12.996h-7.055v-36.783h11.533c1.905 0 3.553.12 4.898.36 1.439.257 2.842.762 4.172 1.504 2.939 1.726 4.41 5.055 4.41 9.915 0 3.604-.748 6.256-2.286 8.108-.996 1.2-2.263 2.126-3.781 2.766l8.224 11.872-5.66 3.813zm-14.454-21.095h5.451c3.125 0 4.143-.595 4.435-.85.143-.126.865-.935.865-4.422 0-3.185-.753-4.042-1.077-4.263-.524-.357-1.977-.958-5.806-.958h-3.866v10.493zm24.64-12.564v-2.864h21.95v2.864h-9.314v30.29h-3.376v-30.29h-9.26z"/><path d="M330.537 140.244h-7.004v-30.29h-9.26v-6.492h25.578v6.492h-9.314zm36.304-1.814h-18.828v-33.155h18.267l-.36 2.864h-14.478v11.718h12.79v2.866H351.39v12.842h15.451v2.865z"/><path d="M368.655 140.244h-22.456v-36.782h22.137l-.817 6.492h-14.264v8.089h12.791v6.494h-12.842v9.214h15.451zm12.616-6.418v4.605h-4.351v-4.605h4.351z"/><path d="M383.085 140.244h-7.979v-8.233h7.979v8.233zm-4.351-3.628h.723v-.976h-.723v.976zm14.816-31.34h8.749c2.079 0 3.819.102 5.218.308s2.779.642 4.145 1.308c1.363.668 2.438 1.583 3.223 2.747 1.74 2.567 2.609 6.57 2.609 12.01 0 3.353-.444 6.331-1.331 8.93-.612 1.78-1.79 3.457-3.529 5.03-.955.89-2.526 1.66-4.708 2.31a14.525 14.525 0 01-3.914.513H393.55v-33.156zm3.376 30.238h6.678c.561 0 1.304-.034 2.225-.102.921-.069 1.593-.188 2.021-.36.425-.171.981-.41 1.662-.719.682-.309 1.178-.694 1.484-1.156.308-.462.673-1.035 1.1-1.721.427-.683.743-1.49.947-2.414.478-2.5.734-5.084.768-7.755.034-2.67-.128-4.87-.486-6.6-.359-1.729-1.033-3.064-2.021-4.005a7.183 7.183 0 00-3.479-1.849c-1.331-.291-3.155-.437-5.475-.437h-5.424v27.118z"/><path d="M404.012 140.244h-12.276v-36.783h10.563c2.161 0 4.007.111 5.482.327 1.573.231 3.148.726 4.677 1.471 1.648.808 2.97 1.939 3.931 3.363 1.964 2.895 2.919 7.157 2.919 13.024 0 3.539-.48 6.74-1.429 9.515-.71 2.068-2.065 4.014-4.028 5.789-1.154 1.074-2.928 1.964-5.407 2.704-1.414.395-2.893.59-4.432.59zm-5.272-6.544h4.864c.527 0 1.226-.033 2.092-.098 1.022-.077 1.39-.198 1.48-.234.404-.163.935-.391 1.589-.687.349-.159.612-.343.72-.506.302-.452.656-1.009 1.071-1.677.317-.507.557-1.128.716-1.847.445-2.336.693-4.838.726-7.387.033-2.528-.119-4.617-.448-6.209-.281-1.352-.784-2.381-1.497-3.06a5.35 5.35 0 00-2.615-1.392c-1.2-.261-2.911-.394-5.088-.394h-3.61V133.7zm16.866-14.621c.023.704.028 1.447.018 2.231a47.152 47.152 0 01-.437 5.855c.327-1.694.492-3.539.492-5.517a41.22 41.22 0 00-.073-2.569zm32.688 19.351h-18.828v-33.155h18.267l-.36 2.864h-14.478v11.718h12.79v2.866h-12.841v12.842h15.451v2.865z"/><path d="M450.108 140.244h-22.456v-36.782h22.138l-.817 6.492h-14.264v8.089h12.79v6.494h-12.841v9.214h15.45z"/></g><g fill="#3C88B8"><path d="M159.384 35.297h11.168c2.654 0 4.875.132 6.661.393 1.784.262 3.549.821 5.291 1.671 1.74.852 3.112 2.021 4.114 3.505 2.219 3.275 3.33 8.386 3.33 15.329 0 4.28-.567 8.081-1.698 11.399-.784 2.272-2.286 4.412-4.507 6.42-1.219 1.135-3.223 2.117-6.008 2.948-1.567.437-3.233.655-4.996.655h-13.356v-42.32zm4.311 38.595h8.522c.719 0 1.665-.043 2.84-.13 1.176-.088 2.035-.241 2.581-.459.543-.218 1.25-.523 2.122-.917.87-.394 1.502-.886 1.895-1.475.391-.59.859-1.322 1.403-2.197.544-.873.947-1.901 1.209-3.081.609-3.19.935-6.488.979-9.898.043-3.408-.163-6.216-.621-8.424-.456-2.207-1.317-3.91-2.579-5.112a9.155 9.155 0 00-4.44-2.361c-1.698-.371-4.028-.557-6.988-.557h-6.922v34.611z"/><path d="M172.74 79.211h-14.952v-45.51h12.764c2.713 0 5.031.137 6.892.408 1.937.285 3.875.896 5.76 1.817 1.987.972 3.581 2.333 4.736 4.046 2.425 3.577 3.604 8.885 3.604 16.222 0 4.435-.599 8.442-1.783 11.913-.87 2.525-2.534 4.908-4.948 7.089-1.395 1.301-3.567 2.384-6.621 3.294a20.242 20.242 0 01-5.452.721zm-11.76-3.191h11.76c1.61 0 3.146-.201 4.568-.597 2.508-.748 4.317-1.618 5.347-2.578 2.027-1.832 3.394-3.77 4.086-5.772 1.069-3.133 1.611-6.796 1.611-10.879 0-6.584-1.029-11.441-3.056-14.433-.853-1.264-1.997-2.234-3.495-2.966-1.589-.775-3.21-1.29-4.821-1.526-1.706-.248-3.869-.376-6.429-.376h-9.572V76.02zm11.237-.532h-10.118V37.685h8.518c3.105 0 5.502.194 7.33.594a10.76 10.76 0 015.2 2.765c1.497 1.424 2.52 3.424 3.041 5.944.478 2.303.697 5.254.653 8.767a58.27 58.27 0 01-1.008 10.177c-.31 1.4-.785 2.605-1.421 3.627a98.89 98.89 0 01-1.427 2.235c-.561.84-1.424 1.529-2.567 2.046-.899.407-1.627.72-2.185.944-.707.283-1.706.469-3.057.57a41.588 41.588 0 01-2.959.134zm-6.926-3.191h6.926c.689 0 1.604-.043 2.721-.126 1.319-.099 1.886-.262 2.107-.35.524-.211 1.21-.507 2.056-.889.59-.268 1.002-.573 1.223-.906a90.92 90.92 0 001.378-2.156c.445-.714.784-1.584 1.005-2.584.58-3.034.9-6.271.942-9.573.041-3.282-.157-6.001-.588-8.078-.387-1.872-1.1-3.312-2.117-4.28a7.522 7.522 0 00-3.681-1.959c-1.577-.344-3.814-.52-6.647-.52h-5.326v31.421z"/></g></svg>