<svg class="site-logo" width="752" viewBox="0 0 752 122" xmlns="http://www.w3.org/2000/svg"><g fill="#037E6C"><path d="M103.73 17.83a60.68 60.68 0 0117.94 42.92v60.86H60.81c-27.507.012-51.593-18.452-58.726-45.018-7.134-26.566 4.464-54.61 28.276-68.38 23.813-13.768 53.905-9.828 73.37 9.608v.01zM12.12 60.75a48.672 48.672 0 0048.69 48.85h48.85V60.75a48.54 48.54 0 00-14.25-34.44 48.53 48.53 0 00-69 0 48.542 48.542 0 00-14.29 34.44z"/><path d="M60.81 60.75h39.4c0 21.716-17.604 39.32-39.32 39.32S21.57 82.466 21.57 60.75h39.24zm150.28 6.9h-33.83V100c-1.68.9-4.49 1.46-8.43 1.46-3.94 0-6.74-.56-8.43-1.46V22.14c1.69-.9 4.5-1.46 8.43-1.46 3.93 0 6.74.56 8.43 1.46v30.79h33.82V22.14c1.68-.9 4.49-1.46 8.43-1.46 3.94 0 6.74.56 8.43 1.46V100c-1.68.9-4.49 1.46-8.43 1.46-3.94 0-6.74-.56-8.43-1.46l.01-32.35zm45.51 10.68c.67 7.87 6.29 11.69 17.42 11.69a44.86 44.86 0 0017.53-3.37 19.12 19.12 0 01-4 12.7c-3.71 2.13-10 3.93-17.75 3.93-19.66 0-30.11-11.35-30.11-29.55 0-18.76 11.24-30.9 28.88-30.9 16.41 0 23.93 10.11 23.93 24.95a34.7 34.7 0 01-1.68 10.56l-34.22-.01zm20.56-11.8c.9-5.84-1.24-11.57-9.33-11.57-7 0-11.24 4.49-11.69 11.57h21.02zm39.89 36.74c-11.24 0-14.61-7.3-14.61-17.3V20.46c3.82-2.13 9.1-3.26 16.29-3.26v66.07c0 4.27 1.46 5.39 4.72 5.39a12 12 0 006.85-2c.45 4.72-1 10.79-3.15 14a19.22 19.22 0 01-10.1 2.61zm34.39 0c-11.24 0-14.61-7.3-14.61-17.3V20.46c3.82-2.13 9.1-3.26 16.29-3.26v66.07c0 4.27 1.46 5.39 4.72 5.39a12 12 0 006.85-2c.45 4.72-1 10.79-3.15 14a19.22 19.22 0 01-10.1 2.61zm72.69-31.12c0 20.23-10.67 31.12-28 31.12-18.09 0-28-10.34-28-31.12 0-18.43 11.35-29.33 28-29.33 16.99 0 28 10.18 28 29.33zm-28 17.75c7.75 0 11.24-6.52 11.24-17.64 0-9.89-4-16.07-11.24-16.07-7.53 0-11.24 6.18-11.24 16.07.03 11.12 3.85 17.64 11.27 17.64h-.03zm87.33-30.56c9.33 2.58 15.28 7.87 15.28 18.88 0 17.53-15.28 23.82-34.72 23.82a254.07 254.07 0 01-27.87-1.35V22.14a136 136 0 0125.17-2.36c19.33 0 33.26 6 33.26 21.8 0 8.76-4.38 14.94-11.12 16.85v.91zM452.9 53h11.24c8.32 0 13.26-3 13.26-9.33 0-6.85-5.84-9.78-15.62-9.78a48.37 48.37 0 00-8.88.67V53zm0 34.16c3.694.387 7.406.574 11.12.56 10.9 0 17.3-3.15 17.3-10.34 0-7.19-6.52-10.34-17.08-10.34H452.9v20.12zm69.1-8.83c.67 7.87 6.29 11.69 17.42 11.69A44.86 44.86 0 00557 86.64a19.13 19.13 0 01-4 12.7c-3.71 2.13-10 3.93-17.75 3.93-19.66 0-30.11-11.35-30.11-29.55 0-18.76 11.24-30.9 28.88-30.9 16.41 0 23.93 10.11 23.93 24.95a34.7 34.7 0 01-1.68 10.56H522zm20.56-11.8c.9-5.84-1.24-11.57-9.33-11.57-7 0-11.24 4.49-11.69 11.57h21.02zm58.89-21.46c.67 1.35 1 4.16 1 7s-.34 5.62-1 7h-14.94v21.12c0 5.39 1.57 8.2 7.64 8.2a17.37 17.37 0 0010.22-3c.56 4.72-1.23 11.35-3.48 14.27-3.26 2.36-7.19 3.71-12.81 3.71-13.82 0-17.87-8.31-17.87-20.67V59h-8.65c0-4.83.79-10.34 2.25-13.93h6.4V32.93c4-2.92 10-4.38 16.29-4.49v16.63h14.95zm43.6 0c.67 1.35 1 4.16 1 7s-.34 5.62-1 7h-14.94v21.12c0 5.39 1.57 8.2 7.64 8.2a17.37 17.37 0 0010.22-3c.56 4.72-1.23 11.35-3.48 14.27-3.26 2.36-7.19 3.71-12.81 3.71-13.82 0-17.87-8.31-17.87-20.67V59h-8.65c0-4.83.79-10.34 2.25-13.93h6.4V32.93c4-2.92 10-4.38 16.29-4.49v16.63h14.95zm22.81 33.26c.67 7.87 6.29 11.69 17.42 11.69a44.86 44.86 0 0017.53-3.37 19.12 19.12 0 01-4 12.7c-3.71 2.13-10 3.93-17.75 3.93-19.66 0-30.11-11.35-30.11-29.55 0-18.76 11.24-30.9 28.88-30.9 16.41 0 23.93 10.11 23.93 24.95A34.7 34.7 0 01702 78.33h-34.14zm20.56-11.8c.9-5.84-1.24-11.57-9.33-11.57-7 0-11.24 4.49-11.69 11.57h21.02zm55.18-23.71a12 12 0 015.28 1 20 20 0 012.36 10.22 19.51 19.51 0 01-1 6.85 14.12 14.12 0 00-7.75-1.91c-5.73 0-10 3.93-12.14 9.78v31.35c-1.46.79-4.16 1.35-8.09 1.35-3.93 0-6.63-.56-8.2-1.35v-53.6c3-1.68 7.75-2.58 13.15-2.58l1.12 10.34h.9c1.56-6.17 5.15-11.45 14.37-11.45z"/></g></svg>