<svg xmlns="http://www.w3.org/2000/svg" width="180" height="36.734"><defs><style>.a{fill:#0c2540}</style></defs><path class="a" d="M.075.262A.139.139 0 01.149 0c7.676.86 37.285.24 42.909.131 5.9-.114 4.192 4.674-.909 10.186-3.93 4.245-9.973 9.571-14.2 11.692-.726.364.6-1.1 1.094-1.594 3.767-3.748 8.913-12.6 4.657-13.145C29.063 6.68 5.924 3.053.075.262z"/><path class="a" d="M14.393 14.242c6.3-1.312 11.088-3.319 17.162-4.466a2.062 2.062 0 012.4 2.817.244.244 0 01-.192.137c-6.894.844-16.2 2.394-19.51 2.063-2.655-.266-.296-.459.14-.551zm40.684-3.872c-1.118.887-1.625 2.609-2.725 4.12-3.674 5.043-11.513 8.956-19.881 11.4-9.658 2.822-21.537 5.091-30.194 10.174-4.9 2.881 2.74-4.127 15.472-9.277 15.678-6.344 23.872-10.944 26.662-13.775 2.468-2.505.31-3.421-.175-4.136-.106-.157-.233-.384-.052-.406a19.788 19.788 0 016.511-.313 8.562 8.562 0 012.136 1.257 5.994 5.994 0 002.22.838.063.063 0 01.026.118zm27.908.113H72.752a3.759 3.759 0 00-2.386.606 3.368 3.368 0 00-.95 2.236l-.971 6.73h12.2l-.422 2.843h-12.16l-1.9 13.335h-3.716l3.336-23.786a5.869 5.869 0 011.963-3.783 6.357 6.357 0 014.2-1.317c5.63 0 8.963.1 11.44.293zm4.566 25.751h-3.547l2.871-20.358h3.547zm1.447-28.887h1.537a.859.859 0 01.922 1.065l-.269 2.168a.983.983 0 01-1.076.913h-1.5q-1.076 0-.961-1.065l.307-2.13a.951.951 0 011.04-.951zm9.926 8.527l-.3 3.894c3.772-3.316 7.079-4.4 9.923-4.4a5.038 5.038 0 013.927 1.442 4.982 4.982 0 01.929 4.2l-2.2 15.216h-3.581l2.069-14.339a4.3 4.3 0 00-.254-2.738 2.208 2.208 0 00-1.984-.773 7.877 7.877 0 00-3.821 1.087 40.411 40.411 0 00-5.045 3.511l-1.858 13.252H93.14l2.914-20.358zm33.469 17.432l.619-.114-.366 2.538a23.8 23.8 0 01-7.051 1q-5.406 0-7.347-2.487t-1.1-8.34q.844-5.81 3.315-8.173t7.748-2.362a18.154 18.154 0 016.587 1l-.318 2.238-.273-.022q-2.281-.208-5.4-.209-3.885 0-5.595 1.589t-2.3 6.229q-.591 4.6.528 6.061t4.792 1.463a40.121 40.121 0 006.161-.411zm8.714 2.928h-3.547l2.871-20.358h3.547zm1.445-28.887h1.548a.866.866 0 01.929 1.073l-.271 2.185a.991.991 0 01-1.084.92h-1.509q-1.084 0-.968-1.073l.31-2.146a.957.957 0 011.045-.959zm10.202 11.329l-1.689 12.039a2.581 2.581 0 00.3 2.049 2.582 2.582 0 001.984.585l3.724-.01-.389 2.728a17.228 17.228 0 01-4.6.544 4.655 4.655 0 01-3.842-1.463 5.127 5.127 0 01-.8-4.1l3.031-21.5h3.547l-.837 6.329h6.545l-.4 2.8zm24.751 14.547l.606-.091-.352 2.474a24.3 24.3 0 01-8.4 1.128q-5.279 0-7.22-2.675t-1.14-8.486q.845-5.935 3.272-8.068t7.96-2.132q4.687 0 6.439 1.61t1.2 4.912a6.049 6.049 0 01-2.3 4.139 11.3 11.3 0 01-5.51 1.546l-7.6.669q-.085 3.22 1.225 4.348a6.489 6.489 0 004.265 1.129 59.7 59.7 0 007.555-.503zm-12.794-7.607l7.3-.711a6.151 6.151 0 003.061-.857 3.618 3.618 0 001.246-2.446q.338-2.132-.675-2.7a8.989 8.989 0 00-3.885-.564q-3.463 0-4.9 1.4t-2.147 5.878z"/></svg>