<svg xmlns="http://www.w3.org/2000/svg" viewBox="0 0 1000 1000"><path d="M381.21 359.22h66.17v281.56l-46.79 46.79-46.78-46.79 27.4-27.41z"/><path d="M287.64 359.22h66.17v281.56l-46.79 46.79-46.78-46.79 27.4-27.41zm-27.4 281.56l-66.17-66.17V359.22h66.17zm412.79-281.56h-66.17v281.56l46.79 46.79 46.78-46.79-27.4-27.41zm105.49 0h-66.16v281.56l46.79 46.79 46.78-46.79-27.41-27.41zm-217.67 93.44l-46.71-46.72 46.71-46.72-46.78-46.79-46.79 46.79L514 405.94l-46.72 46.72 27.41 27.4v160.72l46.78 46.79 46.79-46.79-27.41-27.41z"/></svg>