<svg xmlns="http://www.w3.org/2000/svg" viewBox="0 0 288 126"><style>.st2{fill:#fff}</style><g id="Layer_1"><path class="st2" d="M25.7 15.6h4.8c6.6 0 9.7 2.5 9.8 8.8.1 7.7-4.5 10.1-11.7 10.1h-2.8V15.6zm9.8 19.7c5.7-.4 11.5-4.2 11.4-10.6-.1-6.3-5.1-10.4-13.4-10.4H15.1v1.3H19v41.2h-4.2v1.3H30v-1.3h-4.5V35l15.7 23.1h9.9v-1.3h-3.3L33.3 35.5l2.2-.2z"/><path class="st2" d="M53.2 33.3c.5-3.6 2.9-7 6.2-7.1 3.9-.2 5.4 3.9 5.5 7.7l.1 3.5H52.6l.6-4.1zm18 12.8h-1.4l-.1.9c-.4 4.5-3.4 10.8-9.2 10.5-6.5-.4-7.9-7.2-7.9-14.9v-3.8h18.6c.7-6.8-4.1-14-11.5-14-7.7.1-12.9 7.8-13.3 16.9-.4 9.9 5.7 17.5 13.7 17.4 6.3-.1 10.6-5.7 11.1-11.9v-1.1zm8.7-12.8c.5-3.6 2.9-7 6.2-7.1 3.9-.2 5.4 3.9 5.5 7.7l.1 3.5H79.3l.6-4.1zm18 12.8h-1.4v.9c-.4 4.5-3.4 10.8-9.2 10.5-6.5-.4-7.9-7.2-7.9-14.9v-3.8H98c.7-6.8-4.1-14-11.5-14-7.7.1-12.9 7.8-13.3 16.9-.4 9.9 5.7 17.5 13.7 17.4 6.3-.1 10.6-5.7 11.1-11.9l-.1-1.1zm15-19.3c6.5-.1 7.7 8.8 7.6 16.8-.1 6-1.3 13.7-7.3 13.8-6.4.1-7.1-8.5-7.1-14.9-.1-12.5 3.3-15.7 6.8-15.7zM129 56.9h-3V14.3h-9.4v1.3h3.8v15.7c-1.6-3.5-4.2-6.2-8.1-6.3-6.6-.1-12.6 7.2-12.7 16.7-.1 8.2 4.5 17.3 12.6 17.5 4.3.1 6.5-2.6 8.2-5.9v4.8h8.6v-1.2zM159 28h-1.4l-1.4-5.3c-1.8-6.8-4.3-7.9-8.9-8.3-5.1-.4-11 2.9-10.8 8.1.4 7.7 10.8 7.9 18.2 12 4.5 2.6 6.8 5.9 6.8 10.8.1 8.7-8.2 13.7-15.8 13.7-4.5 0-9.7-1.4-12.7-3.6V41.6h1.3l.3 1.3 1.5 5.4c1.3 5 3.9 9.2 9.5 9.1 7.5-.1 10.9-3.9 10.9-9.5.1-6.3-5.9-8.5-10.3-10-8.8-3.2-13.7-5.8-13.7-12.9 0-7.1 6.4-12 14.8-12 4.6 0 9.9 1.6 11.7 2.7V28zm4.2 30.1v-1.3h3.2V27.1h-3.3v-1.3h8.9v4.6c1.3-3.8 5.2-5.5 8.3-5.5 3.9 0 7.1 2.2 8.3 5.8 1.6-3.8 5.6-6 8.8-5.7 9.3.8 8.4 6.4 8.4 14v17.8h3.1v1.3h-12.6v-1.3h3.7V34c0-4.8-.8-7.1-4.9-7-4.2.2-6.3 5.2-6.3 11.4v18.4h3.4v1.3h-12.6v-1.3h3.6v-18c0-8.8.1-11.8-4.6-11.8-5.8.1-6.8 6.7-6.8 13.6v16.3h3.7v1.3h-12.3zm47.3 0v-1.3h3.4V27.1h-3.2v-1.3h9v31.1h3v1.3h-12.2zm9.4-39.8c0 2.1-1.7 3.6-3.6 3.6-1.9 0-3.6-1.6-3.6-3.5s1.6-3.6 3.5-3.6c2-.1 3.7 1.6 3.7 3.5zm13.7.7v6.8h7.4v1.3h-7.4v23.4c0 1.6.1 6.6 3.6 6.5 2.9 0 4.3-2.5 4.3-6.2v-5.1h1.3v6.2c0 2.2-1 7.1-7.1 7.1-8.7 0-7.7-7.4-7.7-13.3V27.1h-3.9v-1.3h3.9V19h5.6zm27.5 39.1v-1.3h3.9V35.5c0-4.2.1-8.5-4.2-8.3-6.2.2-7.1 9-7.1 15.5v14.1h4.2v1.3h-13v-1.3h3.1V15.6h-3.3v-1.3h9v16.9c.9-2.8 4.7-6.2 8.7-5.9 6 .5 8.1 3 8.1 9.9v21.7h3.3v1.3h-12.7zM143.5 83.4c0 2.1-.6 3.6-1.8 4.7-1.2 1.1-2.9 1.6-5.1 1.6h-3.5V77.3h3.9c2 0 3.6.5 4.8 1.6 1.1 1.1 1.7 2.6 1.7 4.5zm-2.8.1c0-2.7-1.2-4-3.6-4h-1.4v8.1h1.1c2.6 0 3.9-1.3 3.9-4.1zm9.9-3.4c.4 0 .6 0 .9.1l-.2 2.4c-.2-.1-.5-.1-.8-.1-.8 0-1.5.2-1.9.6-.5.4-.7 1-.7 1.8v4.9h-2.6v-9.6h2l.4 1.6h.1c.3-.5.7-1 1.2-1.3.5-.3 1-.4 1.6-.4zm2.3-2.3c0-.8.5-1.3 1.4-1.3.9 0 1.4.4 1.4 1.3 0 .4-.1.7-.4.9s-.6.3-1.1.3c-.8.1-1.3-.4-1.3-1.2zm2.7 12H153v-9.6h2.6v9.6zm4.8 0l-3.6-9.6h2.7l1.8 5.4c.2.7.3 1.3.4 2h.1c0-.5.2-1.2.4-2l1.8-5.4h2.7l-3.6 9.6h-2.7zm7.4-12c0-.8.5-1.3 1.4-1.3.9 0 1.4.4 1.4 1.3 0 .4-.1.7-.4.9s-.6.3-1.1.3c-.8.1-1.3-.4-1.3-1.2zm2.7 12h-2.6v-9.6h2.6v9.6zm11 0h-2.6v-5.6c0-.7-.1-1.2-.4-1.6-.2-.3-.6-.5-1.2-.5-.7 0-1.3.2-1.6.7-.3.5-.5 1.3-.5 2.4v4.5h-2.6v-9.6h2l.4 1.2h.1c.3-.5.7-.8 1.2-1 .5-.2 1.1-.4 1.7-.4 1.1 0 2 .3 2.5.9s.9 1.5.9 2.6v6.4zm10.8-9.5v1.3l-1.5.4c.3.4.4.9.4 1.4 0 1-.4 1.8-1.1 2.4-.7.6-1.7.9-3 .9h-.9c-.3.2-.4.4-.4.7 0 .4.5.6 1.4.6h1.6c1 0 1.8.2 2.4.7.5.5.8 1.1.8 2 0 1.1-.5 2-1.4 2.6-.9.6-2.3.9-4 .9-1.3 0-2.4-.2-3.1-.7-.7-.5-1.1-1.1-1.1-2 0-.6.2-1.1.5-1.4.4-.4.9-.7 1.6-.8-.3-.1-.5-.3-.7-.6-.2-.3-.3-.5-.3-.8 0-.4.1-.7.3-.9.2-.2.5-.5.9-.7-.5-.2-.9-.6-1.2-1-.3-.5-.4-1-.4-1.7 0-1 .3-1.8 1-2.4.7-.6 1.6-.9 2.9-.9.3 0 .6 0 1 .1.4 0 .6.1.7.1h3.6zm-7.4 10.9c0 .4.2.6.5.8.3.2.8.3 1.4.3.9 0 1.7-.1 2.2-.4.5-.3.8-.6.8-1.1 0-.4-.2-.6-.5-.7-.3-.1-.8-.2-1.5-.2h-1.4c-.5 0-.9.1-1.2.3-.1.3-.3.6-.3 1zm1-7.8c0 .5.1.9.4 1.2.2.3.6.5 1.1.5.5 0 .8-.2 1.1-.5.2-.3.3-.7.3-1.2 0-1.2-.5-1.7-1.4-1.7-1.1 0-1.5.5-1.5 1.7zm18 6.6c-1.1 0-2-.4-2.6-1.2h-.1c.1.8.1 1.3.1 1.4V94h-2.6V80.3h2.1l.4 1.2h.1c.6-.9 1.5-1.4 2.7-1.4 1.1 0 2 .4 2.6 1.3.6.9 1 2.1 1 3.6 0 1-.1 1.9-.4 2.7-.3.8-.7 1.3-1.3 1.7-.6.4-1.2.6-2 .6zm-.7-7.8c-.6 0-1.1.2-1.4.6s-.5 1-.5 2v.2c0 1 .2 1.8.5 2.2s.8.7 1.4.7c1.2 0 1.8-1 1.8-2.9 0-.9-.1-1.6-.4-2.1-.4-.5-.8-.7-1.4-.7zm11.7-2.1c.4 0 .6 0 .9.1l-.2 2.4c-.2-.1-.5-.1-.8-.1-.8 0-1.5.2-1.9.6-.5.4-.7 1-.7 1.8v4.9h-2.6v-9.6h2l.4 1.6h.1c.3-.5.7-1 1.2-1.3.4-.3 1-.4 1.6-.4zM226 85c0 1.6-.4 2.8-1.2 3.6-.8.9-2 1.3-3.4 1.3-.9 0-1.7-.2-2.4-.6-.7-.4-1.2-1-1.6-1.7-.4-.8-.6-1.6-.6-2.6 0-1.6.4-2.8 1.2-3.6.8-.9 2-1.3 3.4-1.3.9 0 1.7.2 2.4.6.7.4 1.2 1 1.6 1.7.4.7.6 1.6.6 2.6zm-6.6 0c0 .9.2 1.7.5 2.1.3.5.8.7 1.5.7s1.2-.2 1.5-.7c.3-.5.5-1.2.5-2.1 0-.9-.2-1.7-.5-2.1-.3-.5-.8-.7-1.5-.7s-1.2.2-1.5.7c-.4.5-.5 1.2-.5 2.1zm16.8-4.7v1.3l-1.5.4c.3.4.4.9.4 1.4 0 1-.4 1.8-1.1 2.4-.7.6-1.7.9-3 .9h-.9c-.3.2-.4.4-.4.7 0 .4.5.6 1.4.6h1.6c1 0 1.8.2 2.4.7.5.5.8 1.1.8 2 0 1.1-.5 2-1.4 2.6-.9.6-2.3.9-4 .9-1.3 0-2.4-.2-3.1-.7-.7-.5-1.1-1.1-1.1-2 0-.6.2-1.1.5-1.4.4-.4.9-.7 1.6-.8-.3-.1-.5-.3-.7-.6-.2-.3-.3-.5-.3-.8 0-.4.1-.7.3-.9.2-.2.5-.5.9-.7-.5-.2-.9-.6-1.2-1-.3-.5-.4-1-.4-1.7 0-1 .3-1.8 1-2.4.7-.6 1.6-.9 2.9-.9.3 0 .6 0 1 .1.4 0 .6.1.7.1h3.6zm-7.3 10.9c0 .4.2.6.5.8.3.2.8.3 1.4.3.9 0 1.7-.1 2.2-.4.5-.3.8-.6.8-1.1 0-.4-.2-.6-.5-.7-.3-.1-.8-.2-1.5-.2h-1.4c-.5 0-.9.1-1.2.3-.2.3-.3.6-.3 1zm.9-7.8c0 .5.1.9.4 1.2.2.3.6.5 1.1.5.5 0 .8-.2 1.1-.5.2-.3.3-.7.3-1.2 0-1.2-.5-1.7-1.4-1.7-1 0-1.5.5-1.5 1.7zm13.1-3.3c.4 0 .6 0 .9.1l-.2 2.4c-.2-.1-.5-.1-.8-.1-.8 0-1.5.2-1.9.6-.5.4-.7 1-.7 1.8v4.9h-2.6v-9.6h2l.4 1.6h.1c.3-.5.7-1 1.2-1.3.5-.3 1-.4 1.6-.4zm6.7 9.9c-1.5 0-2.7-.4-3.6-1.3-.9-.8-1.3-2.1-1.3-3.6 0-1.6.4-2.8 1.2-3.7.8-.9 1.9-1.3 3.3-1.3 1.3 0 2.4.4 3.2 1.2.8.8 1.1 1.8 1.1 3.2v1.3h-6.2c0 .7.2 1.3.7 1.7.4.4 1 .6 1.7.6.6 0 1.1-.1 1.6-.2s1-.3 1.6-.6v2c-.5.2-.9.4-1.5.5-.4.1-1 .2-1.8.2zm-.3-8.1c-.6 0-1 .2-1.3.5-.3.4-.5.8-.5 1.5h3.7c0-.6-.2-1.1-.5-1.5-.4-.3-.9-.5-1.4-.5zm12.8 5.1c0 1-.3 1.7-1 2.2-.7.5-1.7.8-3.1.8-.7 0-1.3 0-1.8-.1s-.9-.2-1.4-.4v-2.2c.5.2 1 .4 1.6.6.6.2 1.1.2 1.6.2.9 0 1.4-.3 1.4-.8 0-.2-.1-.4-.2-.5-.1-.1-.3-.3-.6-.4-.3-.2-.7-.4-1.2-.6-.7-.3-1.3-.6-1.6-.9-.3-.3-.6-.6-.8-.9-.2-.3-.2-.8-.2-1.3 0-.8.3-1.5 1-2s1.6-.7 2.8-.7c1.2 0 2.3.3 3.4.8l-.8 1.9c-.5-.2-.9-.4-1.3-.5-.4-.1-.8-.2-1.3-.2-.8 0-1.2.2-1.2.6 0 .2.1.4.4.6.2.2.8.4 1.6.8.7.3 1.3.6 1.6.8.3.3.6.6.8.9.2.4.3.8.3 1.3zm8.5 0c0 1-.3 1.7-1 2.2-.7.5-1.7.8-3.1.8-.7 0-1.3 0-1.8-.1s-.9-.2-1.4-.4v-2.2c.5.2 1 .4 1.6.6.6.2 1.1.2 1.6.2.9 0 1.4-.3 1.4-.8 0-.2-.1-.4-.2-.5-.1-.1-.3-.3-.6-.4-.3-.2-.7-.4-1.2-.6-.7-.3-1.3-.6-1.6-.9-.3-.3-.6-.6-.8-.9-.2-.3-.2-.8-.2-1.3 0-.8.3-1.5 1-2s1.6-.7 2.8-.7c1.2 0 2.3.3 3.4.8l-.8 1.9c-.5-.2-.9-.4-1.3-.5-.4-.1-.8-.2-1.3-.2-.8 0-1.2.2-1.2.6 0 .2.1.4.4.6.2.2.8.4 1.6.8.7.3 1.3.6 1.6.8.3.3.6.6.8.9.2.4.3.8.3 1.3zm-169.1 21.9c.5 0 1-.1 1.6-.3v1.9c-.6.3-1.4.4-2.4.4s-1.8-.3-2.3-.8c-.5-.5-.7-1.3-.7-2.4v-4.6h-1.2V102l1.4-.9.8-2h1.7v2h2.7v2h-2.7v4.6c0 .4.1.6.3.8.2.3.5.4.8.4zm12.2 1.9h-2.6v-5.6c0-1.4-.5-2.1-1.5-2.1-.7 0-1.3.2-1.6.7-.3.5-.5 1.3-.5 2.4v4.5h-2.6V97.5h2.6v2.7c0 .2 0 .7-.1 1.5l-.1.8h.1c.6-.9 1.5-1.4 2.8-1.4 1.1 0 2 .3 2.6.9.6.6.9 1.5.9 2.6v6.2zm7.8-9.7c.4 0 .6 0 .9.1l-.2 2.4c-.2-.1-.5-.1-.8-.1-.8 0-1.5.2-1.9.6-.5.4-.7 1-.7 1.8v4.9h-2.6v-9.6h2l.4 1.6h.1c.3-.5.7-1 1.2-1.3.5-.3 1-.4 1.6-.4zm11.1 4.9c0 1.6-.4 2.8-1.2 3.6-.8.9-2 1.3-3.4 1.3-.9 0-1.7-.2-2.4-.6-.7-.4-1.2-1-1.6-1.7-.4-.8-.6-1.6-.6-2.6 0-1.6.4-2.8 1.2-3.6.8-.9 2-1.3 3.4-1.3.9 0 1.7.2 2.4.6.7.4 1.2 1 1.6 1.7.4.7.6 1.6.6 2.6zm-6.6 0c0 .9.2 1.7.5 2.1.3.5.8.7 1.5.7s1.2-.2 1.5-.7c.3-.5.5-1.2.5-2.1 0-.9-.2-1.7-.5-2.1-.3-.5-.8-.7-1.5-.7s-1.2.2-1.5.7c-.3.5-.5 1.2-.5 2.1zm15.3 4.8l-.4-1.2h-.1c-.3.4-.7.8-1.2 1-.5.2-1.1.4-1.8.4-1.1 0-2-.3-2.5-.9-.6-.6-.9-1.5-.9-2.6v-6.2h2.6v5.6c0 .7.1 1.2.4 1.6.2.3.6.5 1.2.5.7 0 1.3-.2 1.6-.7.3-.5.5-1.3.5-2.4v-4.5h2.6v9.6h-2zm12.9-9.5v1.3l-1.5.4c.3.4.4.9.4 1.4 0 1-.4 1.8-1.1 2.4-.7.6-1.7.9-3 .9h-.9c-.3.2-.4.4-.4.7 0 .4.5.6 1.4.6h1.6c1 0 1.8.2 2.4.7.5.5.8 1.1.8 2 0 1.1-.5 2-1.4 2.6-.9.6-2.3.9-4 .9-1.3 0-2.4-.2-3.1-.7-.7-.5-1.1-1.1-1.1-2 0-.6.2-1.1.5-1.4.4-.4.9-.7 1.6-.8-.3-.1-.5-.3-.7-.6-.2-.3-.3-.5-.3-.8 0-.4.1-.7.3-.9.2-.2.5-.5.9-.7-.5-.2-.9-.6-1.2-1s-.4-1-.4-1.7c0-1 .3-1.8 1-2.4.7-.6 1.6-.9 2.9-.9.3 0 .6 0 1 .1.4 0 .6.1.7.1h3.6zm-7.4 10.9c0 .4.2.6.5.8.3.2.8.3 1.4.3.9 0 1.7-.1 2.2-.4.5-.3.8-.6.8-1.1 0-.4-.2-.6-.5-.7-.3-.1-.8-.2-1.5-.2h-1.4c-.5 0-.9.1-1.2.3-.2.3-.3.6-.3 1zm.9-7.8c0 .5.1.9.4 1.2.2.3.6.5 1.1.5.5 0 .8-.2 1.1-.5.2-.3.3-.7.3-1.2 0-1.2-.5-1.7-1.4-1.7-1 0-1.5.5-1.5 1.7zm16.6 6.4h-2.6v-5.6c0-1.4-.5-2.1-1.5-2.1-.7 0-1.3.2-1.6.7-.3.5-.5 1.3-.5 2.4v4.5h-2.6V97.5h2.6v2.7c0 .2 0 .7-.1 1.5l-.1.8h.1c.6-.9 1.5-1.4 2.8-1.4 1.1 0 2 .3 2.6.9.6.6.9 1.5.9 2.6v6.2zm12.1.2c-1.1 0-2-.4-2.6-1.2h-.1c.1.8.1 1.3.1 1.4v3.9h-2.6v-13.8h2.1l.4 1.2h.1c.6-.9 1.5-1.4 2.7-1.4 1.1 0 2 .4 2.6 1.3.6.9 1 2.1 1 3.6 0 1-.1 1.9-.4 2.7-.3.8-.7 1.3-1.3 1.7-.6.4-1.3.6-2 .6zm-.8-7.8c-.6 0-1.1.2-1.4.6s-.5 1-.5 2v.3c0 1 .2 1.8.5 2.2s.8.7 1.4.7c1.2 0 1.8-1 1.8-2.9 0-.9-.1-1.6-.4-2.1-.3-.6-.8-.8-1.4-.8zm12.5 7.6l-.5-1.3h-.1c-.4.6-.9.9-1.4 1.1-.5.2-1.1.3-1.8.3-.9 0-1.6-.3-2.2-.8-.5-.5-.8-1.3-.8-2.2 0-1 .4-1.8 1.1-2.2.7-.5 1.8-.7 3.2-.8l1.7-.1v-.4c0-1-.5-1.5-1.5-1.5-.8 0-1.7.2-2.7.7l-.9-1.8c1.1-.6 2.3-.9 3.7-.9 1.3 0 2.3.3 2.9.8.7.6 1 1.4 1 2.5v6.4h-1.7zm-.8-4.4h-1c-.8 0-1.3.2-1.7.4-.4.3-.6.6-.6 1.1 0 .7.4 1.1 1.3 1.1.6 0 1.1-.2 1.4-.5.4-.3.5-.8.5-1.4v-.7zm10.4-5.3c.4 0 .6 0 .9.1l-.2 2.4c-.2-.1-.5-.1-.8-.1-.8 0-1.5.2-1.9.6-.5.4-.7 1-.7 1.8v4.9h-2.6v-9.6h2l.4 1.6h.1c.3-.5.7-1 1.2-1.3.5-.3 1-.4 1.6-.4zm6.4 7.8c.5 0 1-.1 1.6-.3v1.9c-.6.3-1.4.4-2.4.4s-1.8-.3-2.3-.8c-.5-.5-.7-1.3-.7-2.4v-4.6h-1.2V102l1.4-.9.8-2h1.7v2h2.7v2H203v4.6c0 .4.1.6.3.8.2.3.5.4.8.4zm12.2 1.9h-2.6v-5.6c0-.7-.1-1.2-.4-1.6-.2-.3-.6-.5-1.2-.5-.7 0-1.3.2-1.6.7-.3.5-.5 1.3-.5 2.4v4.5h-2.6v-9.6h2l.3 1.2h.1c.3-.5.7-.8 1.2-1 .5-.2 1.1-.4 1.7-.4 1.1 0 2 .3 2.5.9s.9 1.5.9 2.6v6.4zm6.8.2c-1.5 0-2.7-.4-3.6-1.3-.9-.8-1.3-2.1-1.3-3.6 0-1.6.4-2.8 1.2-3.7.8-.9 1.9-1.3 3.3-1.3 1.3 0 2.4.4 3.2 1.2.8.8 1.1 1.8 1.1 3.2v1.3h-6.2c0 .7.2 1.3.7 1.7.4.4 1 .6 1.7.6.6 0 1.1-.1 1.6-.2s1-.3 1.6-.6v2c-.5.2-.9.4-1.5.5-.4.1-1 .2-1.8.2zm-.4-8.1c-.6 0-1 .2-1.3.5-.3.4-.5.8-.5 1.5h3.7c0-.6-.2-1.1-.5-1.5-.4-.3-.8-.5-1.4-.5zm11.6-1.8c.4 0 .6 0 .9.1l-.2 2.4c-.2-.1-.5-.1-.8-.1-.8 0-1.5.2-1.9.6-.5.4-.7 1-.7 1.8v4.9H229v-9.6h2l.4 1.6h.1c.3-.5.7-1 1.2-1.3.4-.3 1-.4 1.6-.4zm9 6.9c0 1-.3 1.7-1 2.2-.7.5-1.7.8-3.1.8-.7 0-1.3 0-1.8-.1s-.9-.2-1.4-.4v-2.2c.5.2 1 .4 1.6.6.6.2 1.1.2 1.6.2.9 0 1.4-.3 1.4-.8 0-.2-.1-.4-.2-.5-.1-.1-.3-.3-.6-.4-.3-.2-.7-.4-1.2-.6-.7-.3-1.3-.6-1.6-.9-.3-.3-.6-.6-.8-.9-.2-.3-.2-.8-.2-1.3 0-.8.3-1.5 1-2s1.6-.7 2.8-.7c1.2 0 2.3.3 3.4.8l-.8 1.9c-.5-.2-.9-.4-1.3-.5-.4-.1-.8-.2-1.3-.2-.8 0-1.2.2-1.2.6 0 .2.1.4.4.6.2.2.8.4 1.6.8.7.3 1.3.6 1.6.8.3.3.6.6.8.9.2.4.3.8.3 1.3zm10.7 2.8h-2.6v-5.6c0-1.4-.5-2.1-1.5-2.1-.7 0-1.3.2-1.6.7-.3.5-.5 1.3-.5 2.4v4.5h-2.6V97.5h2.6v2.7c0 .2 0 .7-.1 1.5l-.1.8h.1c.6-.9 1.5-1.4 2.8-1.4 1.1 0 2 .3 2.6.9.6.6.9 1.5.9 2.6v6.2zm2.3-12c0-.8.5-1.3 1.4-1.3.9 0 1.4.4 1.4 1.3 0 .4-.1.7-.4.9s-.6.3-1.1.3c-.8.1-1.3-.4-1.3-1.2zm2.7 12h-2.6v-9.6h2.6v9.6zm7.8.2c-1.1 0-2-.4-2.6-1.2h-.2c.1.8.1 1.3.1 1.4v3.9h-2.6v-13.8h2.1l.4 1.2h.1c.6-.9 1.5-1.4 2.7-1.4 1.1 0 2 .4 2.6 1.3.6.9 1 2.1 1 3.6 0 1-.1 1.9-.4 2.7-.3.8-.7 1.3-1.3 1.7-.5.4-1.1.6-1.9.6zm-.8-7.8c-.6 0-1.1.2-1.4.6s-.5 1-.5 2v.3c0 1 .2 1.8.5 2.2.3.4.8.7 1.4.7 1.2 0 1.8-1 1.8-2.9 0-.9-.1-1.6-.4-2.1-.3-.6-.7-.8-1.4-.8z"/></g></svg>