<svg class="header-logo ico" viewBox="0 0 157 30" xmlns="http://www.w3.org/2000/svg"><path d="M30 15c0 8.277-6.722 15-15 15a14.972 14.972 0 01-10.853-4.65l8.026-8.026a.294.294 0 000-.409l-.706-.705a.292.292 0 00-.409 0l-7.947 7.93A14.931 14.931 0 010 15C0 6.706 6.707 0 15 0c8.277 0 15 6.706 15 15zm-20.592-.44l-4.192 4.194c-.095.093-.095.298 0 .407l.722.709c.11.109.298.109.408 0l4.195-4.195a.33.33 0 000-.408l-.723-.707a.296.296 0 00-.41 0zm8.923 2.199l2.48-2.465c.11-.11.11-.3 0-.41l-3.737-3.738c-.126-.141-.346-.187-.44-.187H6.802c-.268 0-.519.187-.644.297l-.896.88c-.141.14-.046.408.174.408h6.94l-2.103 2.105a.294.294 0 000 .409l2.388 2.387c.108.11.298.11.407 0l4.038-4.021 1.68 1.65-1.57 1.571a.293.293 0 000 .407l.706.707c.11.11.299.11.409 0zm-5.137 7.838a1.579 1.579 0 00-3.157 0 1.58 1.58 0 001.586 1.572c.864 0 1.571-.709 1.571-1.572zm3.943-16.995c0-.863-.706-1.57-1.571-1.57-.864 0-1.57.707-1.57 1.57 0 .863.706 1.57 1.57 1.57.865 0 1.57-.707 1.57-1.57zm56.846 7.155c0 .073 0 .316-.02.39H70.22c.143-1.096.778-2 2.045-2 1.165 0 1.718.656 1.718 1.61zm-23.76-.135c0 2.039-1.411 3.591-3.497 3.591-2.045 0-3.517-1.552-3.517-3.59 0-2.062 1.472-3.613 3.517-3.613 2.086 0 3.498 1.55 3.498 3.612zm33.802-.756a.723.723 0 00.559-.263l1.375-1.657a.31.31 0 10-.24-.507H82.98v-.874c0-.633.265-1.02.92-1.02.235 0 .847.08 1.318.223a.312.312 0 00.383-.19l.635-1.746a.308.308 0 00-.184-.395c-.815-.305-2.157-.485-2.704-.485-2.495 0-3.6 1.714-3.6 3.653v.833h-1.364a.31.31 0 00-.312.31v1.808c0 .172.14.31.312.31h1.364v6.811c0 .171.14.31.312.31h2.61a.31.31 0 00.31-.31v-6.811h1.044zm-28.522-2.714a.31.31 0 00-.31.31v9.216c0 .173.138.31.31.31h2.568c.172 0 .31-.137.31-.31v-5.627c.307-.571.942-1.223 1.984-1.223 1.206 0 1.759.694 1.759 1.957v4.893c0 .173.139.31.31.31h2.57a.31.31 0 00.31-.31v-5.362c0-2.408-1.104-4.346-3.804-4.346-1.329 0-2.372.488-3.129 1.326v-.834a.31.31 0 00-.31-.31h-2.568zm21.24 3.838c0-2.268-1.451-4.104-4.456-4.104-3.192 0-5.277 2.225-5.277 5.185 0 2.917 1.698 5.12 5.44 5.12 1.395 0 2.862-.339 3.989-1.154a.312.312 0 00.086-.407c-.132-.232-.39-.675-.866-1.503a.308.308 0 00-.427-.111c-.757.449-1.75.769-2.6.769-1.451 0-2.268-.715-2.453-1.86h6.108a.31.31 0 00.306-.255c.096-.545.15-1.24.15-1.68zm19.733 1.08c0-2.98-2.249-5.183-5.379-5.183-3.067 0-5.337 2.204-5.337 5.184 0 2.959 2.27 5.12 5.337 5.12 3.13 0 5.379-2.161 5.379-5.12zm-43.084-1.448c0-3.776-2.862-6.592-6.666-6.592-3.782 0-6.645 2.816-6.645 6.592 0 3.796 2.78 6.569 6.645 6.569 3.804 0 6.666-2.814 6.666-6.569zm40.057 1.449c0 1.306-.94 2.325-2.352 2.325-1.369 0-2.29-1.019-2.29-2.325 0-1.346.921-2.369 2.29-2.369 1.412 0 2.352 1.023 2.352 2.369zm15.05 0c0-2.98-2.27-5.184-5.379-5.184-3.087 0-5.336 2.204-5.336 5.184 0 2.959 2.249 5.12 5.336 5.12 3.109 0 5.378-2.161 5.378-5.12zm-3.048 0c0 1.306-.94 2.325-2.35 2.325-1.371 0-2.29-1.019-2.29-2.325 0-1.346.919-2.369 2.29-2.369 1.41 0 2.35 1.023 2.35 2.369zm8.711-2.49h3.125c.17 0 .311-.14.311-.31v-1.809a.31.31 0 00-.31-.31h-3.126v-2.2a.31.31 0 00-.31-.31h-.204a.729.729 0 00-.491.191l-3.682 3.38a.622.622 0 00-.2.458v.6c0 .17.14.31.31.31h1.387v3.979c0 2.367 1.35 3.632 3.496 3.632 1.44 0 2.503-.374 3.315-.875a.309.309 0 00.123-.384l-.715-1.703a.313.313 0 00-.443-.15 2.717 2.717 0 01-1.38.378c-.755 0-1.206-.428-1.206-1.55v-3.327zm16.154 2.429c0-3.02-1.881-5.123-4.662-5.123-1.206 0-2.188.45-2.863 1.123V7.77a.31.31 0 00-.31-.31h-.269a.73.73 0 00-.512.21l-1.836 1.833a1.03 1.03 0 00-.304.732v10.442c0 .173.14.31.31.31h2.61a.31.31 0 00.311-.31v-.687c.634.692 1.553 1.202 2.863 1.202 2.78 0 4.662-2.184 4.662-5.182zm-3.251 0c0 1.468-.9 2.428-2.331 2.428-.777 0-1.533-.387-1.943-.755v-3.307c.471-.428 1.206-.775 1.943-.775 1.43 0 2.33.96 2.33 2.409zm14.969 4.977a.367.367 0 00.368-.367v-9.158c0-.17-.14-.31-.312-.31h-2.568a.311.311 0 00-.312.31v.629c-.653-.653-1.614-1.121-2.822-1.121-2.719 0-4.58 2.122-4.58 5.08 0 2.98 1.82 5.142 4.58 5.142 1.268 0 2.21-.51 2.822-1.184v.67c0 .172.14.31.312.31h2.512zm-2.824-3.326c-.41.409-1.166.757-1.9.757-1.391 0-2.29-.96-2.29-2.408 0-1.43.899-2.368 2.29-2.368.694 0 1.43.326 1.9.776v3.243zm10.271 1.029a.31.31 0 00-.407-.219 1.229 1.229 0 01-.458.069c-.49 0-.694-.307-.694-.88V7.769a.31.31 0 00-.31-.31h-.271a.73.73 0 00-.511.21l-1.792 1.773a1.029 1.029 0 00-.306.734v8.202c0 2.06 1.166 2.814 2.8 2.814.713 0 1.58-.14 2.212-.501a.31.31 0 00.148-.344l-.41-1.656zm6.156.002a.31.31 0 00-.406-.218 1.285 1.285 0 01-.46.067c-.49 0-.674-.306-.674-.879V7.77a.31.31 0 00-.312-.31h-.288a.73.73 0 00-.513.21l-1.773 1.77a1.03 1.03 0 00-.305.732v8.205c0 2.061 1.145 2.815 2.781 2.815.703 0 1.588-.137 2.215-.499a.31.31 0 00.146-.342l-.41-1.659z" fill-rule="evenodd"/></svg>