<svg width="190" height="98" xmlns="http://www.w3.org/2000/svg"><path d="M86.696 15.852c0-.89-.734-1.61-1.64-1.61-.414 0-.793.15-1.081.399l-.033.027-5.372 4.66-.009.007a1.65 1.65 0 01-1.15.464 1.65 1.65 0 01-.872-.247l-.231-.13L44.275 1.245l-.09-.051a1.64 1.64 0 00-.78-.195c-.312 0-.604.085-.851.233l-.004-.006L.86 24.882A1.605 1.605 0 000 26.301v57.604c0 .89.735 1.612 1.64 1.612.397 0 .76-.138 1.044-.369l.07-.06 5.42-4.7.002.002a1.65 1.65 0 011.103-.419 1.648 1.648 0 01.862.241l.24.137 32.157 18.245.082.047h.002a1.659 1.659 0 001.486.038h.005l.216-.124 41.418-23.5.25-.142a1.6 1.6 0 00.7-1.32h.002v-57.74h-.002zM76.308 67.728H76.3a1.6 1.6 0 01-.946 1.459L44.3 86.807l-.003.002c-.061.04-.126.077-.193.109l-.01.006a1.65 1.65 0 01-.711.158 1.65 1.65 0 01-.864-.242L18.364 73.136l-.171-.099a1.664 1.664 0 00-1.833.25l-3.16 2.741a1.85 1.85 0 01-.198.171l-.003.002c-.273.2-.612.318-.979.318-.906 0-1.64-.722-1.64-1.612V32.375a1.439 1.439 0 010-.345 1.606 1.606 0 01.885-1.262l31.291-17.755.004.006a1.65 1.65 0 01.85-.233c.282 0 .548.07.78.194l.002-.001L68.26 26.635l.243.139c.211.098.448.153.697.153.361 0 .693-.114.965-.308l.23-.2 3.174-2.752a1.652 1.652 0 011.102-.418 1.627 1.627 0 011.637 1.706v42.773zm35.366-47.818c2.732 0 4.703.936 4.703 3.35 0 1.436-.79 2.416-1.961 2.816 1.3.418 2.24 1.434 2.24 3.015 0 2.47-1.86 3.532-4.74 3.532h-5.28V19.91h5.038zm-3.54 1.372v4.212h3.494c1.793 0 3.178-.417 3.178-2.124 0-1.662-1.394-2.088-3.188-2.088h-3.484zm0 5.575v4.395h3.717c1.951 0 3.234-.5 3.234-2.207 0-1.689-1.283-2.188-3.234-2.188h-3.717zm22.449-4.495l-1.245.817c-.855-1.262-2.342-2.043-4.062-2.043-2.917 0-5.148 2.07-5.148 5.13s2.23 5.131 5.148 5.131c1.72 0 3.188-.763 4.062-2.034l1.208.872c-1.078 1.59-3.03 2.57-5.27 2.57-3.865 0-6.718-2.724-6.718-6.538s2.853-6.539 6.718-6.539c2.269 0 4.285 1 5.307 2.634m13.12-.499l-1.106 1.035c-.92-1.09-2.323-1.762-3.94-1.762-2.919 0-5.149 2.07-5.149 5.13s2.23 5.131 5.083 5.131c2.75 0 4.452-1.598 4.684-4.204h-4.052v-1.362h5.67c.009.127.018.254.018.372 0 3.705-2.397 6.592-6.32 6.592-3.42 0-6.654-2.415-6.654-6.529 0-3.822 2.881-6.537 6.72-6.537 2.062 0 3.857.799 5.046 2.134m-31.295 16.798c4.49 0 7.454 2.785 7.454 7.012 0 4.227-2.963 7.012-7.454 7.012h-5.7V38.661h5.7zm-3.383 2.144v9.737h3.383c3.373 0 5.023-2.044 5.023-4.869 0-2.855-1.65-4.868-5.023-4.868h-3.383zm15.725-1.032c0 .831-.666 1.463-1.517 1.463-.85 0-1.496-.632-1.496-1.463 0-.832.645-1.482 1.496-1.482s1.517.65 1.517 1.482zm-2.583 12.913h2.153v-9.597h-2.153v9.597zm12.017-8.446v-1.15h2.153v8.925c0 3.016-1.989 4.869-5.27 4.869-1.466 0-3.075-.39-4.11-1.112l.779-1.774c.994.592 2.132.972 3.331.972 2.01 0 3.117-1.081 3.117-2.865v-.771c-.738.921-1.845 1.402-3.27 1.402-2.246 0-4.552-1.843-4.552-4.948 0-3.105 2.306-4.949 4.552-4.949 1.425 0 2.532.49 3.27 1.403m-5.618 3.546c0 1.612 1.086 2.975 2.901 2.975 1.733 0 2.902-1.292 2.902-2.975s-1.17-2.975-2.902-2.975c-1.815 0-2.901 1.352-2.901 2.975m13.107-8.015c0 .831-.666 1.463-1.517 1.463-.85 0-1.496-.632-1.496-1.463 0-.832.645-1.482 1.496-1.482s1.517.65 1.517 1.482zm-2.583 12.913h2.153v-9.597h-2.153v9.597zm11.568-7.694h-3.762v4.178c0 1.292.697 1.793 1.558 1.793.666 0 1.394-.291 1.978-.652l.851 1.673c-.79.521-1.784.952-3.014.952-2.224 0-3.526-1.173-3.526-3.727v-4.217h-1.959v-1.903h1.959v-2.905h2.153v2.905h3.762v1.903zm11.264 7.693h-2.142v-1.151c-.677.851-1.692 1.402-3.086 1.402-2.747 0-4.91-2.114-4.91-5.049 0-2.935 2.163-5.049 4.91-5.049 1.394 0 2.41.561 3.086 1.413v-1.162h2.142v9.596zm-7.935-4.798c0 1.683 1.118 3.075 2.963 3.075 1.774 0 2.963-1.322 2.963-3.075 0-1.753-1.19-3.075-2.963-3.075-1.845 0-2.963 1.392-2.963 3.075zm10.672 4.798h2.153V38.26h-2.153zm-50.406 20.063h-2.89l-5.475-14.024h2.47l4.47 11.73 4.501-11.73h2.4zm14.74-4.808c0 .27-.02.54-.041.781h-7.259c.287 1.723 1.528 2.444 2.922 2.444.984 0 2.03-.38 2.84-1.012l1.066 1.493c-1.2 1.002-2.552 1.352-4.039 1.352-2.943 0-5.023-2.003-5.023-5.049 0-3.005 1.999-5.049 4.89-5.049 2.747 0 4.634 2.044 4.644 5.04m-7.29-.812h5.096c-.236-1.493-1.128-2.364-2.491-2.364-1.528 0-2.379.962-2.604 2.364m18.559-.411v6.03h-2.153v-5.339c0-1.612-.85-2.514-2.286-2.514-1.384 0-2.542.892-2.542 2.535v5.318h-2.153v-9.596h2.132v1.172c.79-1.132 2.01-1.422 3.014-1.422 2.338 0 3.988 1.572 3.988 3.816m9.271-1.663h-3.762v4.178c0 1.292.697 1.792 1.558 1.792.667 0 1.394-.29 1.979-.65l.85 1.673c-.789.52-1.783.951-3.013.951-2.225 0-3.527-1.172-3.527-3.726v-4.218h-1.958v-1.903h1.958v-2.905h2.153v2.905h3.762v1.903zm10.804 3.626c0 3.056-2.256 4.318-4.553 4.318-2.306 0-4.551-1.262-4.551-4.317v-5.53h2.152v5.34c0 1.853 1.057 2.534 2.4 2.534s2.399-.681 2.399-2.535v-5.339h2.153v5.53zm9.272-5.509l-.512 2.074c-.451-.23-1.107-.35-1.63-.35-1.363 0-2.337.94-2.337 2.574v5.279h-2.143V63.15h2.122v1.082c.646-.912 1.65-1.332 2.85-1.332.656 0 1.16.08 1.65.27m10.226 4.77c0 .27-.02.54-.041.781h-7.259c.287 1.723 1.527 2.444 2.922 2.444.984 0 2.03-.38 2.84-1.012l1.066 1.493c-1.2 1.002-2.553 1.352-4.039 1.352-2.942 0-5.024-2.003-5.024-5.049 0-3.005 2-5.049 4.89-5.049 2.748 0 4.634 2.044 4.645 5.04m-7.29-.812h5.096c-.236-1.493-1.128-2.364-2.491-2.364-1.528 0-2.379.962-2.605 2.364m16.096-1.573c-.595-.36-1.815-.821-3.035-.821-1.169 0-1.856.46-1.856 1.142 0 .671.718.861 1.62.992l1.015.15c2.143.3 3.414 1.192 3.414 2.834 0 1.844-1.64 3.136-4.47 3.136-1.015 0-2.778-.19-4.213-1.232l.994-1.573c.708.531 1.64.982 3.24.982 1.466 0 2.234-.451 2.234-1.172 0-.541-.533-.902-1.701-1.062l-1.025-.13c-2.174-.29-3.332-1.272-3.332-2.815 0-1.903 1.558-3.076 4.06-3.076 1.537 0 2.962.371 3.977 1.012l-.922 1.633z" fill="#464646" fill-rule="evenodd"/></svg>