<svg viewBox="0 30 437 106" xmlns="http://www.w3.org/2000/svg" fill-rule="evenodd" clip-rule="evenodd" stroke-miterlimit="2" stroke-linejoin="round"><g fill="#252F3B"><path d="M14.049 82.776h16.834c-.18-4.939-3.566-7.777-8.05-7.777-4.667 0-8.145 2.286-8.784 7.777m30.195 5.031v3.113H13.958c.915 5.309 5.122 7.686 10.797 7.686 5.12 0 9.608-2.103 12.261-3.843l5.032 10.432c-4.483 2.744-10.25 4.942-17.478 4.942-14.183 0-23.607-8.876-23.607-22.33 0-14.272 9.332-22.598 22.327-22.598 12.719 0 20.954 7.319 20.954 22.598" fill-rule="nonzero"/><path d="M68.024 95.586l-9.427 13.177h-15.92L59.605 86.62 44.232 66.49h16.015l7.777 11.164L75.71 66.49h16.012L76.35 86.62l16.928 22.143H77.356l-9.332-13.177z" fill-rule="nonzero"/><path d="M92.075 87.627c0-13.634 9.975-22.512 23.516-22.512 5.949 0 10.706 1.465 15.28 4.118L125.2 80.305c-2.562-1.647-5.218-2.562-8.968-2.562-5.489 0-10.34 3.57-10.34 9.884 0 6.313 4.851 9.882 10.34 9.882 3.75 0 6.406-.916 8.968-2.562l5.673 11.072c-4.575 2.653-9.332 4.118-15.281 4.118-13.541 0-23.516-8.876-23.516-22.51" fill-rule="nonzero"/><path d="M149.527 44.71H135.71v64.053h13.817z"/><path d="M189.322 87.627c0-6.04-4.209-9.884-9.791-9.884-5.49 0-9.699 3.844-9.699 9.884 0 6.037 4.209 9.882 9.699 9.882 5.582 0 9.791-3.845 9.791-9.882m-33.673 0c0-14.823 9.059-22.512 20.039-22.512 6.86 0 11.163 2.838 13.816 7.138h.185v-5.765h13.817v42.276h-13.817v-5.765h-.185c-2.653 4.302-6.956 7.138-13.816 7.138-10.98 0-20.039-7.69-20.039-22.51m55.892-21.138h13.543v6.221h.183c2.377-4.665 6.955-7.594 13.177-7.594 6.495 0 11.072 3.113 13.267 8.235h.183c2.928-5.216 7.961-8.235 14.183-8.235 8.787 0 15.099 5.856 15.099 16.105v27.542h-13.817V85.796c0-5.309-2.013-8.51-6.862-8.51-4.21 0-7.506 2.564-7.506 10.52v20.957h-13.267V85.796c0-5.309-2.014-8.51-6.862-8.51-4.212 0-7.504 2.564-7.504 10.52v20.957h-13.817V66.49zm89.101 21.138c0 6.037 4.39 9.882 9.884 9.882 5.58 0 9.88-3.845 9.88-9.882 0-6.04-4.3-9.884-9.88-9.884-5.493 0-9.884 3.844-9.884 9.884m33.673 0c0 13.541-10.066 22.51-23.789 22.51-13.635 0-23.701-8.969-23.701-22.51 0-13.543 10.066-22.512 23.701-22.512 13.723 0 23.789 8.969 23.789 22.512" fill-rule="nonzero"/><path d="M354.85 89.973c3.583 2.102 10.04 2.907 13.465 3.593 3.988.798 8.416 1.517 12.91 2.088 13.093 1.634 28.885 2.82 42.277 1.79 6.895-.52 13.747-2.85 13.432-11.027-.13-3.255-1.443-6.592-3.89-8.503-2.907-2.283-6.206-1.554-9.542-1.154-19.578 2.338-38.936 5.316-58.706 5.997-2.974.103-6.09.307-9.16.903-4.093.794-4.395 4.19-.786 6.313m5.97 19.506c8.016 7.418 20.657 13.141 30.196 17.161 12.893 5.421 30.469 9.73 35.913 6.455 2.548-1.307 4.159-4.493 4.43-7.8.312-3.84-1.772-9.318-6.188-9.826-15.9-1.323-32.219-4.26-47.788-7.552-4.816-1.016-9.636-2.13-14.482-3.257-3.442-.798-4.503 2.571-2.081 4.82m61.89-76.825c12.361-5.761 18.789 10.717 11.599 16.588-11.252 9.18-38.855 16.646-60.9 19.797-6.57.945-22.197 3.838-27.343-.6-1.682-1.457-2.02-3.325.576-4.413 21.014-8.752 56.26-22.14 76.067-31.372" fill="#01CE91" fill-rule="nonzero"/></g></svg>