<svg xmlns="http://www.w3.org/2000/svg" xmlns:xlink="http://www.w3.org/1999/xlink" width="129" height="24"><defs><path id="a" d="M98.712 11.011h18.684c3.708 0 4.683-1.61 4.35-3.585-.252-1.44-1.396-2.626-4.35-2.626H98.712v6.211zM94.252.001l23.394.027c6.024 0 8.812 2.909 9.453 6.635.837 4.885-1.478 8.979-8.867 9.149l10.377 6.624c.391.25.508.773.262 1.168a.836.836 0 01-.708.396h-4.666a.826.826 0 01-.453-.135l-12.341-8.053h-11.99v7.34a.842.842 0 01-.837.848h-3.625a.842.842 0 01-.837-.847V.848c0-.467.374-.847.837-.847zM55.212 0h30.952c.462 0 .837.38.837.847V3.98a.841.841 0 01-.837.847h-.001L59.673 4.8v5.082h23.145c.462 0 .837.38.837.847v2.541a.842.842 0 01-.837.848H59.673v5.087h26.491c.462 0 .837.38.837.847v3.1a.842.842 0 01-.837.848H55.212a.842.842 0 01-.837-.847V.847c0-.468.375-.847.837-.847zM43.779 0h3.625c.462 0 .837.38.837.847v22.306a.842.842 0 01-.837.847h-3.625a.842.842 0 01-.837-.847V.847c0-.468.375-.847.837-.847zM.836 0h35.136c.461 0 .836.38.836.847v3.106a.841.841 0 01-.836.847h-14.92v18.353a.842.842 0 01-.836.847h-3.625a.842.842 0 01-.836-.847V4.8H.836A.841.841 0 010 3.953V.847C0 .379.375 0 .836 0z"/></defs><g fill="none" fill-rule="evenodd"><mask id="b" fill="#fff"><use xlink:href="#a"/></mask><use fill="#FFF" xlink:href="#a"/><g fill="#69D2AA" fill-rule="nonzero" mask="url(#b)"><path d="M0 0h129v24H0z"/></g></g></svg>