<svg xmlns="http://www.w3.org/2000/svg" width="126" height="21"><path fill-rule="evenodd" d="M10.161.584c3.693 0 6.615 1.808 8.767 5.425.662 1.464.993 2.985.993 4.564v8.27c0 .7-.452 1.127-1.356 1.28h-.077c-.61 0-1.063-.356-1.356-1.07v-.076l.077-1.776v-.077c-2.101 2-4.361 2.999-6.78 2.999h-.554c-3.31 0-6.074-1.662-8.29-4.985C.784 13.534.383 11.917.383 10.287c0-3.629 1.783-6.507 5.348-8.633C7.245.941 8.722.584 10.161.584zm-6.99 9.626v.21c0 2.84 1.426 4.98 4.278 6.418.904.331 1.713.497 2.426.497h.554c2.368 0 4.322-1.185 5.863-3.553.56-1.12.84-2.19.84-3.209v-.286c0-2.738-1.35-4.832-4.049-6.284a7.102 7.102 0 00-2.922-.63h-.076c-2.878 0-5.042 1.496-6.494 4.488-.28.93-.42 1.713-.42 2.35zM25.4.584c.903.23 1.355.637 1.355 1.223v1.566C28.82 1.513 31.073.584 33.517.584c2.687 0 5.068 1.12 7.143 3.362 1.516 1.872 2.273 3.839 2.273 5.902v9.072c0 .624-.452 1.025-1.356 1.203h-.076c-.904-.165-1.356-.617-1.356-1.356v-7.984c0-3.577-1.54-5.933-4.622-7.066-.752-.191-1.42-.287-2.006-.287h-.21c-2.585 0-4.584 1.337-5.997 4.011-.37.815-.554 2.12-.554 3.915v7.487c0 .7-.452 1.127-1.356 1.28h-.076c-.726 0-1.178-.477-1.356-1.432V2.227C24.082 1.132 24.56.584 25.4.584zM55.784.527c2.52 0 4.813.949 6.876 2.846.14.255.21.497.21.726v.076c-.166.904-.618 1.356-1.356 1.356h-.077c-.344 0-1.108-.452-2.292-1.356-1.057-.535-2.107-.802-3.151-.802h-.42c-2.776 0-4.877 1.458-6.303 4.374-.331.98-.497 1.865-.497 2.654 0 2.827 1.458 4.973 4.374 6.437a7.842 7.842 0 002.789.497c1.642 0 3.26-.669 4.85-2.006l.574-.134h.229c.7 0 1.127.452 1.28 1.356v.058c0 .98-1.528 2.056-4.584 3.228-1.032.19-1.796.286-2.292.286h-.573c-2.636 0-5.087-1.241-7.353-3.724-1.388-1.961-2.082-3.986-2.082-6.074 0-3.183 1.407-5.857 4.22-8.022C52.004 1.12 53.863.527 55.786.527zM75.569.68c2.509 0 4.782.949 6.819 2.846 1.935 2.037 2.903 4.329 2.903 6.875 0 3.642-1.725 6.507-5.176 8.595-1.49.751-2.935 1.127-4.336 1.127h-.572c-2.61 0-5.043-1.229-7.296-3.686-1.376-1.948-2.063-3.96-2.063-6.036 0-3.157 1.394-5.806 4.183-7.945C71.813 1.272 73.659.68 75.569.68zm-6.875 9.511v.344c0 2.598 1.254 4.61 3.762 6.036a6.191 6.191 0 002.903.706h.42c2.687 0 4.743-1.394 6.17-4.183.33-.878.496-1.731.496-2.559v-.344c0-2.164-.993-3.985-2.98-5.462-1.158-.802-2.482-1.203-3.972-1.203-2.941 0-5.093 1.534-6.456 4.603-.229.75-.343 1.438-.343 2.062zM90.789.431c.917.23 1.375.637 1.375 1.223v1.585C94.265 1.367 96.513.432 98.906.432c1.286 0 2.655.312 4.107.936.382.394.573.776.573 1.145v.077c-.153.904-.605 1.356-1.356 1.356h-.077c-1.311-.42-2.298-.63-2.96-.63h-.42c-2.814 0-4.877 1.458-6.188 4.373-.28.777-.42 1.662-.42 2.655v8.48c0 .713-.459 1.146-1.376 1.299h-.076c-.726 0-1.178-.477-1.356-1.432V2.093C89.47.986 89.949.432 90.789.432zm24.923.153c3.692 0 6.614 1.808 8.766 5.425.662 1.464.993 2.985.993 4.564v8.27c0 .7-.452 1.127-1.356 1.28h-.076c-.611 0-1.063-.356-1.356-1.07v-.076l.076-1.776v-.077c-2.1 2-4.36 2.999-6.78 2.999h-.554c-3.31 0-6.074-1.662-8.289-4.985-.802-1.604-1.203-3.221-1.203-4.851 0-3.629 1.782-6.507 5.348-8.633 1.515-.713 2.992-1.07 4.43-1.07zm-6.99 9.626v.21c0 2.84 1.425 4.98 4.277 6.418.904.331 1.713.497 2.426.497h.554c2.368 0 4.323-1.185 5.863-3.553.56-1.12.84-2.19.84-3.209v-.286c0-2.738-1.349-4.832-4.048-6.284a7.102 7.102 0 00-2.922-.63h-.077c-2.877 0-5.042 1.496-6.494 4.488-.28.93-.42 1.713-.42 2.35z"/></svg>