<?xml version="1.0" standalone="no"?>
<!DOCTYPE svg PUBLIC "-//W3C//DTD SVG 20010904//EN"
 "http://www.w3.org/TR/2001/REC-SVG-20010904/DTD/svg10.dtd">
<svg version="1.0" xmlns="http://www.w3.org/2000/svg"
 width="1024.000000pt" height="1024.000000pt" viewBox="0 0 1024.000000 1024.000000"
 preserveAspectRatio="xMidYMid meet">
<metadata>
Created by potrace 1.11, written by Peter Selinger 2001-2013
</metadata>
<g transform="translate(0.000000,1024.000000) scale(0.100000,-0.100000)"
fill="#000000" stroke="none">
<path d="M2724 9335 c-327 -42 -598 -126 -894 -276 -582 -294 -1035 -797
-1254 -1392 -132 -356 -178 -807 -115 -1122 175 -871 1225 -2300 3119 -4244
510 -524 1364 -1346 1442 -1388 51 -29 147 -31 195 -5 58 31 428 387 1069
1027 611 611 962 978 1365 1425 1276 1418 1999 2494 2135 3175 14 67 18 132
17 255 -3 579 -208 1141 -586 1610 -81 100 -272 289 -377 374 -284 227 -656
414 -1001 501 -229 58 -332 69 -639 69 -250 0 -301 -2 -414 -22 -637 -111
-1187 -423 -1591 -904 l-74 -87 -72 87 c-422 505 -1043 841 -1697 917 -155 18
-486 18 -628 0z m626 -421 c489 -71 943 -306 1282 -663 101 -106 180 -208 272
-348 43 -67 77 -108 102 -124 75 -46 208 -34 262 24 11 12 51 69 90 127 96
147 179 249 296 365 336 334 758 545 1241 621 132 20 447 23 575 5 485 -69
898 -269 1243 -601 196 -188 336 -379 452 -615 172 -349 263 -825 210 -1104
-131 -687 -1086 -1974 -2791 -3761 -284 -298 -1367 -1378 -1428 -1425 l-35
-27 -28 22 c-127 99 -1181 1146 -1588 1575 -1364 1441 -2232 2575 -2529 3301
-88 217 -126 384 -126 561 0 964 720 1816 1720 2036 100 22 193 36 345 51 74
7 328 -4 435 -20z"/>
</g>
</svg>
