<?xml version="1.0" standalone="no"?>
<!DOCTYPE svg PUBLIC "-//W3C//DTD SVG 20010904//EN"
 "http://www.w3.org/TR/2001/REC-SVG-20010904/DTD/svg10.dtd">
<svg version="1.0" xmlns="http://www.w3.org/2000/svg"
 width="961.000000pt" height="961.000000pt" viewBox="0 0 961.000000 961.000000"
 preserveAspectRatio="xMidYMid meet">
<metadata>
Created by potrace 1.11, written by Peter Selinger 2001-2013
</metadata>
<g transform="translate(0.000000,961.000000) scale(0.100000,-0.100000)"
fill="#000000" stroke="none">
<path d="M10 4805 l0 -4805 4800 0 4800 0 0 4805 0 4805 -4800 0 -4800 0 0
-4805z m3924 2190 c312 -55 606 -223 804 -459 l70 -85 42 55 c108 139 297 290
470 374 367 177 821 175 1185 -7 280 -140 519 -394 640 -682 109 -258 134
-539 66 -739 -149 -440 -661 -1114 -1553 -2043 -238 -248 -720 -721 -793 -779
-58 -46 -78 -39 -214 87 -192 178 -834 825 -1025 1033 -770 841 -1176 1434
-1252 1828 -38 196 10 481 117 694 184 369 563 647 984 722 109 19 350 20 459
1z"/>
<path d="M3585 6849 c-500 -53 -920 -408 -1038 -878 -17 -69 -21 -116 -21
-236 -1 -143 1 -155 32 -245 131 -390 574 -987 1315 -1772 193 -206 688 -701
838 -839 l98 -90 233 225 c319 307 796 807 1089 1141 533 607 871 1103 944
1385 9 33 15 101 15 160 0 317 -160 655 -410 868 -548 466 -1365 352 -1767
-246 -87 -130 -126 -130 -208 -5 -194 297 -523 495 -886 533 -111 11 -119 11
-234 -1z"/>
</g>
</svg>
