<?xml version="1.0" standalone="no"?>
<!DOCTYPE svg PUBLIC "-//W3C//DTD SVG 20010904//EN"
 "http://www.w3.org/TR/2001/REC-SVG-20010904/DTD/svg10.dtd">
<svg version="1.0" xmlns="http://www.w3.org/2000/svg"
 width="400.000000pt" height="400.000000pt" viewBox="0 0 400.000000 400.000000"
 preserveAspectRatio="xMidYMid meet">
<metadata>
Created by potrace 1.11, written by Peter Selinger 2001-2013
</metadata>
<g transform="translate(0.000000,400.000000) scale(0.100000,-0.100000)"
fill="#000000" stroke="none">
<path d="M2670 3058 c6 -7 10 -15 10 -19 0 -13 -29 -18 -36 -7 -4 7 -3 8 4 4
7 -4 12 -3 12 2 0 6 -7 12 -15 16 -8 3 -14 2 -14 -2 3 -20 -2 -31 -13 -28 -7
1 -10 1 -5 -1 13 -8 7 -19 -12 -20 -12 -1 -18 3 -15 11 5 14 -33 19 -41 5 -3
-5 1 -6 9 -3 18 7 23 -21 6 -31 -5 -3 -7 0 -5 7 4 9 -2 14 -15 15 -11 1 -20
-3 -20 -8 0 -6 -6 -7 -12 -2 -7 4 -20 6 -29 5 -9 -2 -19 4 -22 13 -7 17 -27
21 -27 4 0 -5 5 -7 10 -4 6 3 10 0 10 -7 0 -8 -13 -13 -35 -13 -19 0 -35 4
-35 8 0 4 -9 3 -20 -3 -11 -6 -17 -16 -14 -22 4 -7 3 -8 -5 -4 -6 4 -9 12 -6
17 6 8 -18 14 -40 9 -35 -7 -71 -5 -77 4 -12 17 -10 -12 2 -35 7 -13 7 -19 0
-19 -5 0 -10 3 -10 8 0 4 -11 15 -25 25 -17 12 -26 14 -31 5 -4 -6 -3 -8 4 -4
6 3 13 2 17 -4 3 -5 -1 -11 -9 -11 -37 -3 -41 -5 -38 -22 2 -9 -2 -17 -8 -17
-9 0 -14 14 -11 33 1 5 -3 6 -9 2 -6 -3 -8 -11 -5 -16 7 -11 7 -11 -65 -14
-73 -3 -72 -3 -64 -16 4 -8 9 -7 15 2 7 11 9 10 9 -4 0 -11 -5 -17 -12 -14 -7
2 -23 -4 -35 -15 -24 -22 -45 -17 -37 10 2 9 -1 7 -7 -5 -7 -13 -16 -23 -21
-23 -11 0 -10 17 2 25 6 3 10 11 10 18 0 6 -6 3 -13 -7 -13 -18 -15 -17 -42
10 -16 16 -23 21 -16 12 7 -9 9 -23 5 -29 -4 -8 -3 -9 4 -5 8 5 10 1 5 -9 -4
-13 -8 -14 -14 -4 -6 10 -13 10 -33 1 -16 -7 -27 -8 -31 -1 -4 5 -3 9 2 8 4
-1 15 -1 23 0 13 1 13 3 0 10 -8 6 -18 7 -24 4 -5 -3 -6 -1 -2 5 5 9 13 9 27
1 11 -5 25 -8 32 -5 7 2 4 5 -6 5 -10 1 -16 5 -13 9 3 5 -7 9 -22 10 -43 3
-66 7 -81 16 -10 7 -11 4 -3 -11 9 -16 7 -19 -13 -19 -13 0 -21 4 -19 8 3 5
10 5 16 2 7 -4 8 -2 4 5 -4 6 -11 9 -16 6 -5 -3 -11 -1 -15 5 -4 6 -11 7 -17
4 -16 -10 -138 -12 -132 -2 3 4 1 8 -5 8 -5 0 -12 -4 -15 -8 -2 -4 -17 -7 -33
-6 -15 1 -34 3 -42 3 -7 1 -11 7 -8 15 6 15 -17 16 -30 1 -5 -4 -1 -4 7 0 13
8 13 7 1 -9 -11 -13 -16 -14 -22 -4 -5 7 -1 21 9 33 17 20 17 20 -4 3 -15 -14
-23 -15 -32 -6 -9 9 -11 6 -7 -10 2 -13 -1 -22 -8 -23 -7 0 -20 -2 -29 -4 -16
-3 -22 5 -20 25 0 3 -7 6 -17 6 -10 0 -18 -6 -18 -12 0 -7 7 -10 16 -6 9 3 13
2 9 -2 -8 -10 -128 -14 -128 -6 0 4 -7 7 -15 7 -8 0 -15 -4 -15 -9 0 -4 -6 -7
-12 -5 -7 1 -12 -4 -10 -11 1 -8 -2 -11 -7 -7 -6 3 -8 12 -4 20 4 11 1 13 -11
9 -9 -3 -13 -11 -10 -16 4 -6 -3 -5 -15 1 -12 7 -26 9 -31 6 -5 -3 -11 -1 -15
5 -7 12 -25 4 -25 -12 0 -5 6 -8 14 -5 8 3 17 0 20 -8 4 -10 -2 -11 -25 -5
-25 8 -44 -3 -20 -12 5 -1 3 -8 -4 -15 -10 -10 -14 -9 -19 3 -4 10 -2 13 6 8
7 -4 8 -3 4 5 -5 8 -13 7 -29 -4 -29 -20 -32 -48 -5 -39 18 5 19 4 7 -9 -8 -8
-17 -13 -21 -10 -4 2 -5 -2 -2 -10 3 -9 17 -14 33 -13 16 1 28 -3 28 -10 0 -7
-7 -10 -16 -7 -9 3 -6 -2 7 -11 12 -10 20 -21 17 -26 -3 -4 3 -7 12 -6 10 2
22 -2 26 -8 6 -7 7 -6 4 4 -2 8 -10 15 -17 15 -7 0 -14 8 -16 18 -2 16 0 16
14 5 27 -21 40 -41 35 -54 -7 -18 14 -26 35 -15 23 12 22 16 25 -126 1 -61 5
-109 9 -107 4 2 10 -1 14 -7 4 -8 3 -9 -5 -5 -11 7 -33 -32 -25 -45 2 -4 -3
-13 -12 -20 -13 -10 -17 -10 -25 2 -7 11 -9 9 -9 -9 0 -15 4 -21 12 -16 6 4 8
3 5 -3 -4 -6 -17 -10 -29 -9 -13 1 -26 -3 -30 -9 -5 -6 -12 -5 -19 5 -8 12 -9
10 -4 -9 5 -17 4 -21 -5 -16 -9 5 -10 1 -6 -16 7 -24 7 -24 -10 -4 -15 18 -16
18 -10 1 5 -15 2 -17 -14 -13 -11 3 -18 1 -15 -3 3 -5 2 -10 -2 -13 -5 -2 -1
-2 7 0 10 2 8 -3 -5 -12 -11 -9 -19 -19 -18 -23 1 -4 -1 -9 -4 -12 -4 -3 -3 0
1 7 3 6 1 15 -5 19 -7 4 -10 3 -7 -2 4 -5 0 -22 -7 -39 l-14 -30 4 28 c4 32 0
34 -15 6 -9 -15 -8 -24 2 -37 8 -9 8 -13 1 -9 -6 4 -13 1 -16 -5 -2 -8 -8 -9
-13 -4 -5 5 -4 11 4 13 6 3 9 9 6 15 -3 5 -13 0 -21 -11 -8 -12 -19 -19 -24
-16 -5 4 -9 1 -9 -5 0 -7 7 -10 15 -6 8 3 15 1 15 -4 0 -6 -5 -10 -11 -10 -5
0 -7 -4 -4 -10 3 -5 0 -7 -8 -4 -8 3 -20 -2 -27 -10 -7 -9 -16 -14 -20 -11 -4
3 -14 -3 -21 -12 -10 -12 -10 -14 -1 -9 6 4 12 3 12 -2 0 -6 -7 -13 -16 -16
-22 -9 -26 -8 -18 6 4 7 3 8 -5 4 -15 -10 -3 -29 15 -22 8 3 14 1 14 -4 0 -8
-25 -14 -50 -12 -3 0 -7 -11 -8 -25 -2 -31 -11 -45 -22 -38 -5 3 -12 0 -16 -6
-4 -7 -3 -9 2 -6 6 3 16 2 24 -4 12 -7 10 -9 -9 -9 -16 0 -21 -4 -17 -15 3 -8
2 -14 -2 -14 -18 3 -29 -2 -30 -13 -3 -35 -11 -53 -22 -50 -7 2 -10 -3 -7 -12
4 -10 1 -13 -8 -9 -8 3 -13 9 -10 13 3 5 1 11 -4 14 -5 3 -8 -12 -7 -34 1 -33
-2 -39 -16 -34 -20 6 -33 -12 -17 -22 8 -4 9 -3 5 4 -5 8 -1 10 10 5 11 -4 13
-8 6 -11 -7 -2 -9 -9 -6 -14 5 -7 2 -8 -7 -2 -33 20 -47 1 -24 -35 5 -10 4
-12 -3 -7 -7 4 -12 2 -12 -4 0 -6 -5 -8 -10 -5 -6 4 -7 11 -4 17 4 7 2 8 -4 4
-9 -5 -8 -15 3 -36 11 -21 12 -31 3 -36 -6 -4 -8 -3 -5 3 8 12 -20 39 -30 29
-3 -3 -1 -6 5 -6 7 0 11 -10 10 -23 -1 -13 -8 -24 -15 -24 -10 0 -10 4 -1 14
6 7 8 16 4 20 -3 3 -6 1 -6 -6 0 -7 -4 -10 -9 -7 -5 4 -8 -2 -6 -11 1 -10 -3
-24 -9 -32 -7 -9 -7 -12 0 -9 6 4 10 -3 10 -16 0 -20 -5 -23 -30 -21 -28 3
-29 2 -11 -11 18 -14 18 -14 -4 -14 -12 0 -19 -4 -16 -10 4 -6 10 -8 15 -5 5
3 11 1 15 -4 3 -6 -3 -8 -15 -6 -16 3 -20 -2 -21 -23 -2 -70 -12 -99 -22 -62
-3 11 -2 18 2 15 4 -2 7 5 6 15 -2 23 -11 35 -13 18 -2 -12 -9 -55 -11 -68 -1
-3 -6 2 -11 10 -7 11 -10 3 -11 -30 -1 -25 -1 -51 0 -58 1 -6 -3 -12 -9 -12
-5 0 -9 5 -8 11 2 6 -4 14 -12 16 -12 4 -12 3 -2 -5 15 -10 15 -18 1 -43 -5
-9 -4 -20 2 -26 6 -6 5 -10 -5 -10 -8 0 -13 4 -10 9 3 4 0 8 -5 8 -6 0 -11
-14 -11 -31 0 -16 -4 -28 -9 -25 -5 3 -15 -1 -22 -10 -10 -12 -10 -17 -1 -23
8 -4 10 -16 6 -27 -6 -18 -6 -18 8 -1 13 18 14 18 14 -1 0 -22 -22 -23 -38 -1
-7 11 -8 9 -3 -6 12 -37 14 -56 4 -50 -5 4 -7 10 -4 15 3 4 -3 14 -13 21 -15
12 -16 12 -5 -2 7 -9 10 -19 6 -22 -3 -4 0 -13 6 -21 10 -11 8 -17 -9 -29 -12
-8 -16 -17 -10 -19 18 -6 0 -37 -18 -32 -9 3 -6 -2 8 -10 14 -8 19 -15 11 -16
-8 0 -11 -6 -7 -16 3 -9 2 -12 -5 -9 -6 4 -8 14 -5 22 3 8 2 11 -3 8 -14 -8
-9 -45 6 -45 7 0 13 -4 13 -10 0 -5 -3 -9 -7 -7 -5 1 -9 -1 -10 -6 -6 -16 -2
-19 12 -7 8 7 15 8 15 3 0 -5 7 -10 15 -10 9 0 14 6 11 13 -3 8 -1 16 5 19 5
4 9 3 8 -2 -4 -23 3 -31 22 -26 14 4 17 8 9 13 -17 10 -3 31 15 23 8 -3 15 0
15 6 0 6 -6 11 -12 11 -9 0 -8 3 2 9 8 6 18 7 22 5 4 -3 8 2 8 10 0 14 17 21
45 17 6 -1 2 5 -8 13 -15 12 -16 14 -2 20 8 3 15 1 15 -4 0 -6 4 -10 9 -10 4
0 7 14 5 30 -2 17 1 30 7 30 6 0 9 -10 7 -22 -2 -11 3 -22 10 -24 7 -1 8 0 2
3 -7 3 -5 12 6 24 9 10 21 16 25 13 5 -3 6 2 3 11 -6 14 -8 14 -20 -2 -7 -10
-14 -13 -14 -7 0 21 25 35 39 21 10 -9 11 -9 6 4 -4 10 -1 20 6 25 7 4 10 3 5
-4 -3 -6 -1 -14 5 -18 7 -4 9 -3 6 3 -4 6 -1 16 7 22 10 8 16 9 19 1 3 -6 5
-6 3 1 -1 7 -10 13 -19 15 -9 1 -15 -2 -12 -7 4 -5 -1 -6 -10 -3 -25 10 -2 21
48 23 9 1 17 6 17 12 0 5 -4 7 -10 4 -5 -3 -10 -1 -10 5 0 6 11 8 25 6 27 -5
43 8 24 20 -8 5 -9 3 -4 -6 5 -9 4 -11 -3 -6 -18 11 -14 23 8 29 11 3 18 1 14
-4 -3 -5 2 -6 11 -3 11 5 13 10 5 19 -9 10 -7 12 7 9 13 -4 23 3 32 20 8 13
19 22 26 20 7 -3 16 0 20 6 6 9 10 9 17 -1 6 -10 7 -6 3 10 -7 21 -5 23 16 18
22 -5 22 -5 7 7 -21 15 -23 28 -6 25 7 -1 24 -1 38 0 20 1 22 3 10 11 -9 6
-10 10 -3 10 6 0 10 9 8 20 -2 11 0 18 6 15 5 -4 9 -14 10 -23 0 -11 2 -12 6
-4 2 6 9 10 13 7 5 -3 12 0 16 6 4 7 3 9 -4 5 -6 -3 -14 -1 -18 5 -5 8 1 10
20 7 18 -4 26 -1 26 9 0 8 -4 11 -10 8 -5 -3 -10 -2 -10 4 0 6 14 9 30 7 17
-2 33 1 36 6 3 4 0 7 -7 6 -6 -2 -14 3 -16 10 -3 8 1 10 13 5 10 -4 15 -2 11
3 -4 6 6 9 24 6 17 -2 29 0 29 7 0 6 -8 8 -17 5 -16 -5 -16 -4 -2 5 9 6 30 12
48 13 17 1 31 6 31 11 0 5 -8 6 -17 3 -10 -3 -25 -1 -33 5 -13 10 -13 10 1 6
9 -3 22 -1 29 3 8 5 22 4 32 -1 13 -7 16 -6 13 3 -3 7 5 24 16 38 11 14 18 19
14 13 -8 -17 10 -50 19 -34 4 6 2 11 -5 11 -8 0 -9 3 0 13 6 8 9 17 6 20 -3 4
-2 5 2 2 3 -3 15 3 25 12 13 12 18 13 16 4 -2 -9 7 -14 24 -15 26 -2 26 -1 11
17 -15 16 -15 17 -1 12 11 -4 20 1 28 14 6 11 14 20 18 20 4 -1 12 0 17 1 6 1
25 1 43 0 23 -1 32 3 32 14 0 9 7 16 15 16 8 0 15 7 15 15 0 8 4 15 9 15 6 0
8 -10 6 -21 -3 -12 -1 -18 3 -15 4 4 7 13 7 19 0 7 8 12 17 12 9 0 20 3 23 7
4 4 14 4 23 1 8 -4 13 -2 9 3 -3 6 3 16 15 23 11 7 18 9 15 4 -3 -4 2 -15 11
-23 14 -13 15 -12 9 3 -3 9 -2 17 3 17 6 0 10 5 10 11 0 5 -4 8 -9 4 -5 -3
-12 -2 -15 3 -6 10 10 12 73 12 38 -1 43 1 37 17 -6 17 -5 17 8 1 14 -19 32
-25 21 -8 -3 5 -1 10 5 10 6 0 8 5 5 10 -4 6 -3 10 2 9 4 -1 10 0 13 1 5 2 32
7 65 12 12 2 19 -2 18 -9 -2 -8 4 -10 14 -6 11 4 13 8 5 11 -27 9 -9 17 38 16
27 0 47 3 44 7 -2 4 0 11 6 14 6 4 9 1 8 -6 -5 -20 19 -21 25 0 3 15 10 18 27
14 12 -3 24 -12 27 -20 5 -11 9 -11 24 3 15 13 16 21 7 38 -8 16 -5 14 15 -6
26 -28 44 -38 31 -16 -5 8 0 9 16 5 16 -4 23 -1 27 11 3 14 17 18 73 18 60 1
67 -1 52 -13 -15 -12 -14 -12 8 -2 14 7 33 14 44 16 16 3 17 1 5 -14 -11 -15
-10 -15 9 1 12 11 22 16 22 12 0 -4 9 -2 21 5 19 10 20 9 14 -13 l-7 -23 17
23 c9 13 21 19 28 15 6 -4 47 -8 90 -8 66 -1 77 1 72 15 -3 9 1 8 10 -4 11
-14 15 -16 15 -5 0 12 2 12 10 -1 5 -8 12 -11 16 -7 4 4 17 -1 28 -10 12 -10
15 -11 9 -3 -16 18 -17 34 -1 24 6 -4 40 -8 75 -9 35 -1 66 -5 70 -8 3 -4 12
-2 20 5 10 8 17 8 25 0 9 -9 16 -8 27 1 14 11 14 10 2 -5 -12 -16 -11 -18 2
-18 8 0 17 3 20 8 2 4 2 1 1 -6 -3 -8 5 -11 26 -7 18 3 30 1 30 -5 0 -6 -4 -8
-10 -5 -5 3 -10 0 -10 -9 0 -8 7 -13 18 -11 9 1 16 8 15 14 -2 6 2 11 7 11 9
0 14 -15 11 -33 -1 -5 3 -6 9 -2 5 3 10 12 10 20 0 8 4 16 8 19 11 7 9 -25 -3
-44 -8 -13 -7 -13 9 0 18 14 86 21 86 9 0 -3 12 -11 26 -17 14 -7 23 -16 19
-21 -3 -5 0 -13 7 -17 7 -4 10 -4 6 1 -4 4 -3 14 3 21 7 8 7 14 -1 19 -5 3
-10 4 -10 0 0 -3 -9 -1 -20 5 -11 6 -20 15 -20 21 0 6 7 4 15 -4 8 -9 25 -14
38 -13 17 2 24 -2 23 -13 -1 -11 7 -16 27 -15 15 1 27 -2 27 -7 0 -4 -16 -6
-35 -5 -19 2 -32 0 -30 -4 6 -10 56 -7 74 4 11 7 13 5 8 -7 -3 -9 -1 -19 5
-23 6 -4 8 -3 5 2 -3 6 -2 16 4 24 7 12 9 12 9 1 0 -10 3 -11 14 -2 11 9 16 9
21 1 4 -7 16 -10 26 -7 10 3 18 2 17 -2 -2 -18 4 -28 17 -28 11 0 12 4 4 14
-8 9 -8 13 0 13 12 0 12 -1 16 -38 1 -12 6 -26 10 -30 5 -4 6 0 3 9 -4 9 -2
22 3 30 7 11 9 9 9 -8 0 -13 5 -23 11 -23 6 0 8 8 5 18 -6 16 -5 16 8 0 7 -10
23 -18 35 -18 12 0 29 -7 37 -15 9 -8 20 -15 27 -15 6 0 2 6 -9 14 -18 14 -18
15 9 12 15 -1 30 -6 35 -11 4 -4 2 -5 -4 -2 -7 4 -14 -3 -16 -18 -3 -13 -2
-22 3 -20 4 3 19 1 33 -5 19 -7 26 -6 26 3 0 6 7 3 15 -7 8 -11 15 -14 15 -8
0 7 5 12 11 12 6 0 9 -7 5 -15 -3 -8 -1 -15 4 -15 6 0 10 7 10 17 0 25 14 6
18 -25 2 -15 6 -29 9 -32 3 -3 3 7 1 23 -6 31 -3 33 18 13 11 -11 11 -16 1
-20 -6 -3 3 -4 21 -3 18 2 36 -1 39 -6 3 -6 1 -7 -5 -3 -6 3 -13 2 -16 -3 -7
-11 13 -9 33 4 10 5 16 4 19 -3 2 -7 8 -10 13 -7 5 4 7 0 4 -7 -6 -17 3 -29
38 -51 15 -10 26 -13 25 -6 -2 6 3 14 11 17 10 3 12 0 8 -11 -3 -9 -1 -19 5
-23 6 -4 8 -3 5 3 -4 6 5 13 20 16 31 6 53 -1 53 -16 0 -7 -4 -7 -12 1 -14 14
-32 16 -23 2 4 -6 -1 -7 -12 -4 -14 5 -15 4 -4 -4 8 -6 20 -8 28 -5 8 3 13 2
12 -3 -5 -26 1 -35 15 -22 10 9 11 15 2 20 -6 4 5 8 24 8 29 1 32 2 17 11 -9
5 -22 7 -27 4 -6 -3 -7 1 -4 10 5 12 9 13 20 4 11 -9 14 -8 14 2 0 11 2 11 9
0 7 -12 13 -12 24 -3 7 7 16 9 20 6 3 -3 3 3 0 15 -3 12 -1 21 6 21 9 0 9 5 1
20 -9 16 -8 20 5 20 10 0 13 -5 9 -12 -4 -6 -3 -8 4 -5 12 8 10 32 -3 44 -4 4
-5 2 -1 -4 4 -8 1 -13 -9 -13 -12 0 -14 4 -6 17 5 10 5 26 0 40 -7 20 -5 25
14 33 l22 9 -22 0 c-16 1 -21 6 -19 24 1 13 6 28 10 35 4 7 3 12 -1 12 -5 0
-7 18 -5 40 2 21 7 38 11 37 3 -1 6 3 6 8 0 6 -6 9 -14 7 -9 -2 -12 2 -7 12 3
9 9 23 13 33 4 10 2 14 -4 10 -14 -9 -9 28 6 47 10 12 11 16 1 16 -8 0 -11 10
-8 30 3 17 1 30 -3 30 -11 0 -5 26 11 46 9 11 10 15 3 10 -9 -5 -12 -1 -11 11
0 10 0 35 0 55 -2 31 -5 36 -19 32 -17 -5 -17 -5 0 6 9 6 15 16 12 21 -4 5
-10 7 -14 4 -5 -2 -7 6 -7 18 1 12 -2 28 -7 35 -7 9 -5 11 7 6 10 -4 14 -13
11 -24 -3 -11 1 -20 11 -24 13 -5 14 -3 7 6 -5 7 -9 31 -8 53 1 22 0 32 -2 23
-3 -10 -8 -18 -13 -18 -5 0 -8 8 -8 18 1 30 -6 47 -27 59 -11 7 -16 12 -12 13
4 0 3 10 -4 21 -7 13 -7 19 -1 15 6 -3 14 -1 18 5 4 8 3 9 -4 5 -11 -7 -16 7
-15 41 0 6 -6 9 -15 6 -9 -4 -13 -2 -9 4 4 6 0 16 -8 23 -8 7 -15 9 -16 4 0
-5 -4 1 -10 14 -5 14 -13 20 -20 16 -8 -4 -9 -3 -5 5 4 6 12 9 17 6 5 -4 9 -1
9 6 0 6 -8 9 -20 6 -17 -4 -19 -1 -15 21 5 25 5 26 -4 5 -10 -22 -22 -32 -20
-15 1 4 1 19 0 35 -1 20 -6 27 -22 27 -16 0 -19 4 -14 23 5 20 5 20 -9 -3
l-15 -25 -1 33 c0 29 -3 32 -30 32 -23 0 -30 4 -30 20 0 11 -5 20 -11 20 -5 0
-7 5 -4 10 3 6 -4 10 -17 10 -13 0 -29 10 -37 23 -14 22 -14 22 7 3 11 -10 27
-16 34 -13 10 4 10 6 -1 6 -8 1 -25 10 -37 22 -12 11 -37 21 -57 22 -19 1 -33
5 -31 8 2 4 -3 9 -11 13 -8 3 -15 0 -15 -6 0 -6 -3 -9 -6 -5 -3 3 -3 11 1 17
5 8 14 7 30 -4 17 -12 26 -13 31 -4 4 6 3 8 -4 4 -5 -3 -12 -1 -14 5 -2 6 -22
12 -45 12 -23 0 -40 4 -37 9 3 5 10 6 15 3 5 -4 17 -1 26 5 17 11 17 11 0 6
-9 -3 -29 -1 -43 4 -14 6 -23 6 -20 2 2 -4 -9 -7 -25 -7 -16 0 -28 5 -27 10 2
6 6 9 11 7 4 -1 7 3 7 9 0 6 -6 9 -14 6 -15 -6 -40 15 -31 25 3 3 -17 4 -45 3
-27 -1 -48 1 -46 4 4 6 -158 7 -179 1 -5 -1 -12 -1 -15 0 -20 7 -46 7 -55 0
-6 -5 -17 -5 -25 0 -11 7 -11 10 -2 11 6 1 16 2 22 3 5 0 13 6 19 11 7 7 -5
10 -34 10 -28 0 -40 -3 -35 -9 6 -6 10 -15 10 -20 0 -6 -9 2 -19 17 -10 16
-21 24 -25 19 -3 -6 -2 -13 4 -17 5 -3 10 -10 10 -16 0 -5 -10 1 -21 12 -16
16 -18 23 -9 29 8 5 9 10 2 14 -6 3 -13 -3 -17 -14 -3 -11 -13 -20 -20 -20 -8
0 -12 -6 -9 -14 3 -8 1 -17 -5 -21 -7 -4 -8 0 -4 11 4 11 3 15 -5 10 -6 -3
-14 -1 -17 5 -4 5 -13 8 -20 5 -7 -2 -21 2 -32 9 -22 17 -33 19 -33 4 0 -5 5
-7 12 -3 7 4 8 3 4 -4 -4 -7 0 -12 11 -13 16 0 16 -1 -2 -8 -11 -5 -25 -5 -31
0 -6 5 -15 5 -20 1 -4 -4 -2 1 5 11 12 16 12 20 -2 33 -9 8 -12 9 -7 2z m194
-47 c4 -5 -3 -7 -14 -4 -23 6 -26 13 -6 13 8 0 17 -4 20 -9z m-207 -7 c-3 -3
-12 -4 -19 -1 -8 3 -5 6 6 6 11 1 17 -2 13 -5z m120 0 c-3 -3 -12 -4 -19 -1
-8 3 -5 6 6 6 11 1 17 -2 13 -5z m-463 -23 c-7 -8 -84 -9 -84 -2 0 4 20 7 44
7 25 0 43 -3 40 -5z m987 -12 c16 -25 10 -30 -11 -9 -12 12 -26 18 -32 14 -6
-4 -8 -3 -5 4 9 14 36 9 48 -9z m-1123 -19 c-7 -11 -14 -16 -16 -10 -2 6 -8 8
-12 5 -5 -3 -11 -1 -15 4 -3 6 3 8 15 6 11 -2 22 0 25 6 4 5 8 9 11 9 2 0 -1
-9 -8 -20z m-840 -15 c-3 -3 -9 2 -12 12 -6 14 -5 15 5 6 7 -7 10 -15 7 -18z
m397 -15 c3 -5 -1 -10 -10 -10 -9 0 -13 5 -10 10 3 6 8 10 10 10 2 0 7 -4 10
-10z m283 -15 c-3 -3 -9 2 -12 12 -6 14 -5 15 5 6 7 -7 10 -15 7 -18z m-1113
-25 c-3 -5 -12 -10 -18 -10 -7 0 -6 4 3 10 19 12 23 12 15 0z m2645 -24 c0 -3
-4 -8 -10 -11 -5 -3 -10 -1 -10 4 0 6 5 11 10 11 6 0 10 -2 10 -4z m-2529
-129 c-10 -9 -11 -8 -5 6 3 10 9 15 12 12 3 -3 0 -11 -7 -18z m69 -127 c0 -5
-2 -10 -4 -10 -3 0 -8 5 -11 10 -3 6 -1 10 4 10 6 0 11 -4 11 -10z m2745 -60
c-3 -4 2 -13 10 -20 17 -14 20 -30 4 -30 -5 0 -8 4 -5 9 3 5 -1 14 -9 21 -17
14 -21 45 -5 35 6 -4 8 -10 5 -15z m-2748 -10 c-2 -11 -6 -22 -9 -26 -4 -3 -5
2 -3 13 2 10 4 21 4 26 1 4 3 7 6 7 3 0 4 -9 2 -20z m2803 -120 c0 -5 0 -13
-1 -16 0 -4 5 -11 13 -15 9 -6 9 -9 1 -9 -13 0 -26 17 -29 38 -1 6 2 12 7 12
5 0 9 -4 9 -10z m5 -58 c-3 -3 -11 0 -18 7 -9 10 -8 11 6 5 10 -3 15 -9 12
-12z m-2934 -25 c-10 -9 -11 -8 -5 6 3 10 9 15 12 12 3 -3 0 -11 -7 -18z
m-207 -195 c3 -5 -1 -9 -9 -9 -8 0 -12 4 -9 9 3 4 7 8 9 8 2 0 6 -4 9 -8z
m-24 -27 c0 -12 -19 -12 -23 0 -4 9 -1 12 9 8 7 -3 14 -7 14 -8z m-60 -65
c-20 -13 -33 -13 -25 0 3 6 14 10 23 10 15 0 15 -2 2 -10z m1223 -115 c-3 -9
-8 -14 -10 -11 -3 3 -2 9 2 15 9 16 15 13 8 -4z m47 -6 c0 -4 -7 -6 -15 -3 -8
4 -15 10 -15 15 0 4 7 6 15 3 8 -4 15 -10 15 -15z m-110 -3 c-7 -7 -13 -7 -20
0 -6 6 -3 10 10 10 13 0 16 -4 10 -10z m20 -16 c0 -5 -5 -10 -11 -10 -5 0 -7
5 -4 10 3 6 8 10 11 10 2 0 4 -4 4 -10z m1593 -183 c7 3 8 2 4 -2 -12 -13 -36
-15 -44 -3 -3 7 -1 8 5 4 7 -4 12 -1 13 6 0 10 2 10 6 0 2 -6 10 -9 16 -5z
m257 -132 c4 3 11 -2 14 -11 4 -10 2 -13 -7 -8 -28 16 -36 27 -30 38 5 7 9 5
11 -7 2 -9 7 -15 12 -12z m-3090 -245 c0 -5 -4 -10 -10 -10 -5 0 -10 5 -10 10
0 6 5 10 10 10 6 0 10 -4 10 -10z m-66 -50 c-6 -6 -10 -3 -10 10 0 13 4 16 10
10 7 -7 7 -13 0 -20z m-350 -70 c-21 -8 -37 -3 -29 10 3 4 15 6 27 2 21 -5 21
-6 2 -12z"/>
<path d="M2720 3068 c0 -2 9 -11 20 -21 11 -9 20 -13 20 -7 0 5 -9 14 -20 20
-11 6 -20 9 -20 8z"/>
<path d="M2771 3058 c9 -7 18 -19 20 -26 3 -8 10 -6 23 9 16 19 16 21 1 16 -9
-4 -26 -2 -38 4 -19 9 -20 8 -6 -3z"/>
<path d="M2915 3050 c27 -12 43 -12 25 0 -8 5 -22 9 -30 9 -10 0 -8 -3 5 -9z"/>
<path d="M2470 3019 c0 -3 11 -6 25 -6 14 0 27 3 30 6 2 4 -9 7 -26 7 -16 0
-29 -3 -29 -7z"/>
<path d="M2993 3016 c-3 -6 -3 -8 2 -4 4 4 15 2 23 -5 13 -10 14 -9 8 1 -6 10
1 12 31 9 22 -2 48 0 59 3 10 4 -12 7 -49 7 -37 0 -71 -5 -74 -11z"/>
<path d="M1136 2962 c-3 -5 1 -9 9 -9 8 0 12 4 9 9 -3 4 -7 8 -9 8 -2 0 -6 -4
-9 -8z"/>
<path d="M1195 2960 c-3 -5 -1 -10 4 -10 6 0 11 5 11 10 0 6 -2 10 -4 10 -3 0
-8 -4 -11 -10z"/>
<path d="M1274 2960 c2 -16 20 -14 24 2 3 10 2 10 -6 -1 -7 -9 -11 -10 -15 -2
-4 7 -5 8 -3 1z"/>
<path d="M1410 2961 c0 -6 4 -13 10 -16 6 -3 7 1 4 9 -7 18 -14 21 -14 7z"/>
<path d="M1444 2958 c10 -6 22 -6 26 -2 5 5 -3 10 -18 11 -22 1 -24 0 -8 -9z"/>
<path d="M3356 2953 c-6 -14 -5 -15 5 -6 7 7 10 15 7 18 -3 3 -9 -2 -12 -12z"/>
<path d="M1935 2920 c3 -5 1 -10 -5 -10 -6 0 -8 -4 -5 -10 3 -5 1 -10 -6 -10
-7 0 -9 -3 -5 -7 4 -5 14 1 22 11 17 23 18 36 3 36 -5 0 -7 -4 -4 -10z"/>
<path d="M3631 2803 c0 -5 4 -17 9 -28 8 -17 8 -16 7 8 -1 15 -5 27 -9 27 -4
0 -8 -3 -7 -7z"/>
<path d="M1027 2689 c-4 -15 -2 -18 7 -10 7 6 16 8 20 4 4 -4 4 0 0 10 -8 23
-20 21 -27 -4z"/>
<path d="M1030 2419 c0 -5 5 -7 10 -4 6 3 10 8 10 11 0 2 -4 4 -10 4 -5 0 -10
-5 -10 -11z"/>
<path d="M3950 2120 c-9 -6 -10 -10 -3 -10 7 0 10 -10 7 -25 -2 -14 0 -25 5
-25 6 0 8 9 6 21 -3 16 0 19 13 15 16 -6 16 -5 0 7 -10 8 -15 17 -11 20 9 10
0 8 -17 -3z"/>
<path d="M3950 2046 c0 -2 7 -6 15 -10 8 -3 15 -1 15 4 0 6 -7 10 -15 10 -8 0
-15 -2 -15 -4z"/>
<path d="M3965 2010 c-3 -6 1 -7 9 -4 18 7 21 14 7 14 -6 0 -13 -4 -16 -10z"/>
<path d="M3940 1996 c0 -2 7 -9 15 -16 9 -7 15 -8 15 -2 0 5 -7 12 -15 16 -8
3 -15 4 -15 2z"/>
<path d="M566 1967 c3 -10 9 -15 12 -12 3 3 0 11 -7 18 -10 9 -11 8 -5 -6z"/>
<path d="M3950 1935 c-11 -13 -10 -14 4 -9 9 3 16 10 16 15 0 13 -6 11 -20 -6z"/>
<path d="M1960 1918 c0 -4 4 -8 9 -8 6 0 12 4 15 8 3 5 -1 9 -9 9 -8 0 -15 -4
-15 -9z"/>
<path d="M1996 1913 c-6 -14 -5 -15 5 -6 7 7 10 15 7 18 -3 3 -9 -2 -12 -12z"/>
<path d="M2037 1911 c-4 -17 -3 -21 5 -13 5 5 8 16 6 23 -3 8 -7 3 -11 -10z"/>
<path d="M2536 1913 c-6 -14 -5 -15 5 -6 7 7 10 15 7 18 -3 3 -9 -2 -12 -12z"/>
<path d="M2560 1921 c0 -6 4 -13 10 -16 6 -3 7 1 4 9 -7 18 -14 21 -14 7z"/>
<path d="M2600 1915 c-7 -8 -10 -18 -7 -22 4 -3 9 2 13 11 3 9 10 13 15 10 5
-3 6 -11 2 -17 -4 -7 0 -6 10 2 15 12 18 10 27 -10 10 -23 10 -23 6 -1 -5 25
11 31 20 7 4 -8 10 -12 15 -9 5 3 -2 15 -16 26 -19 15 -29 17 -39 9 -8 -7 -16
-7 -23 0 -7 7 -14 5 -23 -6z"/>
<path d="M525 1900 c-3 -6 1 -7 9 -4 18 7 21 14 7 14 -6 0 -13 -4 -16 -10z"/>
<path d="M1780 1886 c0 -7 7 -13 15 -13 8 0 15 4 15 8 0 4 -7 9 -15 13 -9 3
-15 0 -15 -8z"/>
<path d="M2735 1889 c-4 -6 -5 -12 -2 -15 2 -3 7 2 10 11 7 17 1 20 -8 4z"/>
<path d="M1875 1880 c3 -5 8 -10 11 -10 2 0 4 5 4 10 0 6 -5 10 -11 10 -5 0
-7 -4 -4 -10z"/>
<path d="M1597 1849 c-9 -5 -21 -8 -26 -5 -10 6 -37 -22 -29 -30 5 -5 78 34
78 42 0 6 -3 5 -23 -7z"/>
<path d="M2917 1849 c7 -7 15 -10 18 -7 3 3 -2 9 -12 12 -14 6 -15 5 -6 -5z"/>
<path d="M3130 1808 c0 -21 30 -32 44 -17 8 9 7 10 -3 4 -9 -5 -19 -1 -28 10
-11 16 -13 16 -13 3z"/>
<path d="M1420 1801 c0 -6 4 -13 10 -16 6 -3 7 1 4 9 -7 18 -14 21 -14 7z"/>
<path d="M1357 1751 c-4 -17 -3 -21 5 -13 5 5 8 16 6 23 -3 8 -7 3 -11 -10z"/>
<path d="M1230 1699 c0 -5 5 -7 10 -4 6 3 10 8 10 11 0 2 -4 4 -10 4 -5 0 -10
-5 -10 -11z"/>
<path d="M3950 1700 c0 -5 5 -10 10 -10 6 0 10 5 10 10 0 6 -4 10 -10 10 -5 0
-10 -4 -10 -10z"/>
<path d="M1145 1681 c-3 -5 -2 -12 3 -15 5 -3 9 1 9 9 0 17 -3 19 -12 6z"/>
<path d="M3976 1682 c-3 -5 1 -9 9 -9 8 0 12 4 9 9 -3 4 -7 8 -9 8 -2 0 -6 -4
-9 -8z"/>
<path d="M1113 1660 c-12 -18 0 -40 14 -26 4 3 1 6 -6 6 -7 0 -9 5 -6 10 4 6
11 8 16 5 5 -3 6 1 3 9 -8 20 -7 20 -21 -4z"/>
<path d="M340 1623 c0 -15 18 -35 23 -27 3 5 -1 15 -9 22 -8 7 -14 9 -14 5z"/>
<path d="M1023 1615 c-3 -9 -3 -18 -1 -21 3 -3 8 4 11 16 6 23 -1 27 -10 5z"/>
<path d="M3636 1607 c3 -10 9 -15 12 -12 3 3 0 11 -7 18 -10 9 -11 8 -5 -6z"/>
<path d="M965 1580 c-3 -5 -1 -10 4 -10 6 0 11 5 11 10 0 6 -2 10 -4 10 -3 0
-8 -4 -11 -10z"/>
<path d="M3920 1540 c-9 -6 -10 -10 -3 -10 6 0 15 5 18 10 8 12 4 12 -15 0z"/>
<path d="M193 1325 c0 -8 4 -15 9 -15 4 0 8 7 8 15 0 8 -4 15 -8 15 -5 0 -9
-7 -9 -15z"/>
<path d="M120 1099 c0 -5 5 -7 10 -4 6 3 10 8 10 11 0 2 -4 4 -10 4 -5 0 -10
-5 -10 -11z"/>
<path d="M270 1009 c0 -5 5 -7 10 -4 6 3 10 8 10 11 0 2 -4 4 -10 4 -5 0 -10
-5 -10 -11z"/>
<path d="M236 987 c3 -10 9 -15 12 -12 3 3 0 11 -7 18 -10 9 -11 8 -5 -6z"/>
</g>
</svg>
