<?xml version="1.0" standalone="no"?>
<!DOCTYPE svg PUBLIC "-//W3C//DTD SVG 20010904//EN"
 "http://www.w3.org/TR/2001/REC-SVG-20010904/DTD/svg10.dtd">
<svg version="1.0" xmlns="http://www.w3.org/2000/svg"
 width="800.000000pt" height="800.000000pt" viewBox="0 0 800.000000 800.000000"
 preserveAspectRatio="xMidYMid meet">
<metadata>
Created by potrace 1.11, written by Peter Selinger 2001-2013
</metadata>
<g transform="translate(0.000000,800.000000) scale(0.100000,-0.100000)"
fill="#000000" stroke="none">
<path d="M2180 6990 c-110 -12 -220 -34 -317 -66 -249 -80 -553 -286 -731
-497 -475 -561 -505 -1327 -80 -2070 74 -127 180 -288 254 -384 25 -31 43 -60
42 -64 -2 -4 -133 -127 -293 -274 -159 -147 -305 -282 -324 -300 l-33 -32 172
-187 c95 -102 174 -186 177 -186 2 0 152 138 334 306 182 168 335 304 340 302
5 -2 437 -421 960 -932 l951 -929 -186 -181 -186 -181 181 -184 181 -183 182
181 c101 99 188 181 194 181 6 0 95 -82 197 -182 l186 -181 179 184 180 184
-186 180 -186 181 60 59 c514 504 1845 1801 1851 1803 5 2 157 -135 339 -303
182 -168 333 -305 335 -305 6 0 347 366 347 373 0 2 -146 138 -325 303 -179
164 -325 302 -325 305 0 3 29 45 65 92 444 589 614 1190 494 1745 -42 194
-134 401 -252 569 -133 188 -373 395 -599 513 -547 286 -1255 195 -2003 -258
-71 -43 -233 -151 -341 -227 -9 -7 -19 -7 -28 0 -589 421 -1106 631 -1596 649
-69 3 -163 1 -210 -4z m435 -535 c106 -22 317 -92 435 -145 154 -70 286 -144
458 -258 l83 -55 -143 -143 c-79 -79 -496 -469 -928 -868 l-785 -725 -23 27
c-63 74 -210 310 -271 436 -121 246 -173 442 -173 656 -2 382 165 697 487 916
110 75 157 99 262 135 175 59 388 68 598 24z m3299 -4 c290 -78 561 -292 695
-551 114 -221 153 -482 107 -725 -51 -265 -190 -563 -389 -833 l-61 -82 -36
34 c-19 18 -386 357 -815 753 -429 397 -831 773 -894 836 l-114 116 114 74
c236 153 451 258 674 330 94 30 157 45 295 71 14 2 97 3 185 1 125 -2 177 -7
239 -24z m-1789 -902 c66 -67 492 -465 948 -886 455 -420 827 -766 827 -768 0
-6 -1894 -1850 -1900 -1850 -8 0 -1900 1843 -1900 1850 0 2 377 352 838 778
460 426 886 825 947 886 60 61 112 111 115 111 3 0 59 -54 125 -121z"/>
</g>
</svg>
