<svg width="1440" height="688" viewBox="0 0 1440 688" fill="none" xmlns="http://www.w3.org/2000/svg">
<path d="M-71.7168 983.297C-168.441 905.412 -131.593 610.881 -111.43 532.815C-66.3368 356.892 -177.419 392.077 -201.615 241.443C-225.811 90.809 71.1413 -35.8386 368.094 9.24165C726.206 63.6065 604.476 134.5 1068.6 53.1359C1532.73 -28.2285 1639.1 378.551 1616.39 431.457C1597.15 476.291 1676.39 647.503 1606.82 687.113C1574.04 705.778 1590.74 823.506 1467.92 815.188C1333.61 806.093 1249.05 1014.2 1101.68 936.135C954.299 858.07 978.496 1082.57 778.328 1045.19C578.16 1007.81 368.071 1111.13 250.058 1068.48C23.9263 986.764 48.174 1079.84 -71.7168 983.297Z" fill="url(#paint0_linear)"/>
<defs>
<linearGradient id="paint0_linear" x1="-123.527" y1="945.133" x2="1887.89" y2="110.203" gradientUnits="userSpaceOnUse">
<stop offset="0.265625" stop-color="#0A6EAA"/>
<stop offset="0.895833" stop-color="#00AAC8"/>
</linearGradient>
</defs>
</svg>
