<svg width="25" height="25" viewBox="0 0 25 25" fill="none" xmlns="http://www.w3.org/2000/svg">
<g opacity="0.9">
<path fill-rule="evenodd" clip-rule="evenodd" d="M12.0049 0.00488281C5.37747 0.00488281 0.00488281 5.37747 0.00488281 12.0049C0.00488281 18.6323 5.37747 24.0049 12.0049 24.0049C18.6323 24.0049 24.0049 18.6323 24.0049 12.0049C24.0049 5.37747 18.6323 0.00488281 12.0049 0.00488281ZM17.0056 7.87957C17.5563 8.0307 17.9901 8.47601 18.1373 9.04152C18.4048 10.0664 18.4048 12.2049 18.4048 12.2049C18.4048 12.2049 18.4048 14.3433 18.1373 15.3683C17.9901 15.9338 17.5563 16.3791 17.0056 16.5303C16.0075 16.8049 12.0048 16.8049 12.0048 16.8049C12.0048 16.8049 8.00209 16.8049 7.00391 16.5303C6.45315 16.3791 6.0194 15.9338 5.8722 15.3683C5.60478 14.3433 5.60478 12.2049 5.60478 12.2049C5.60478 12.2049 5.60478 10.0664 5.8722 9.04152C6.0194 8.47601 6.45315 8.0307 7.00391 7.87957C8.00209 7.60491 12.0048 7.60491 12.0048 7.60491C12.0048 7.60491 16.0075 7.60491 17.0056 7.87957Z" fill="white"/>
<path d="M10.8051 14.4048V10.4048L14.0051 12.4049L10.8051 14.4048Z" fill="white"/>
</g>
</svg>
