<svg width="25" height="25" viewBox="0 0 25 25" fill="none" xmlns="http://www.w3.org/2000/svg">
<g opacity="0.9">
<path fill-rule="evenodd" clip-rule="evenodd" d="M0.00488281 12.0049C0.00488281 5.37747 5.37747 0.00488281 12.0049 0.00488281C18.6323 0.00488281 24.0049 5.37747 24.0049 12.0049C24.0049 18.6323 18.6323 24.0049 12.0049 24.0049C5.37747 24.0049 0.00488281 18.6323 0.00488281 12.0049ZM16.6906 18.2152C17.8145 18.2152 18.7098 17.4917 19.2051 15.7581L18.3671 15.4346C17.9479 16.596 17.5859 16.8061 17.3003 16.8061C17.0145 16.8061 16.8619 16.6158 16.8619 16.2349C16.8619 16.0636 16.9003 15.8735 16.9572 15.6444L17.5669 13.4549C17.7193 12.9407 17.7765 12.4856 17.7765 12.0667C17.7765 10.4285 16.7858 9.57536 15.5857 9.57536C14.4619 9.57536 13.3189 10.5928 12.7475 11.6597L13.1665 9.75213H9.90902L9.45184 11.4437H10.9758L10.0374 15.1921C9.30036 16.8303 7.94664 16.848 7.77679 16.8099C7.49784 16.747 7.31945 16.6429 7.31945 16.2805C7.31945 16.0713 7.35751 15.7746 7.45278 15.4124L8.88162 9.75213H5.26227L4.80508 11.4437H6.30989L5.33839 15.4005C5.26227 15.7244 5.22405 16.0622 5.22405 16.3474C5.22405 17.4716 5.83363 18.2135 7.129 18.2135C8.20345 18.2135 9.07438 17.5668 9.70142 16.5367L9.31851 18.0562H11.452L12.6712 13.1832C12.9759 11.9449 13.5664 11.3195 14.4619 11.3195C15.1667 11.3195 15.6049 11.7579 15.6049 12.4815C15.6049 12.6912 15.5857 12.9195 15.5096 13.1673L14.8809 15.4151C14.7856 15.7389 14.7477 16.063 14.7477 16.3675C14.7477 17.4347 15.3761 18.2152 16.6906 18.2152ZM6.72863 7.28087C6.72863 6.55726 7.31907 6.00488 8.02392 6.00488C8.72885 6.00488 9.31928 6.55726 9.31928 7.28087C9.31928 8.00502 8.72885 8.55747 8.02392 8.55747C7.31907 8.55747 6.72863 8.00502 6.72863 7.28087Z" fill="white"/>
</g>
</svg>
