<svg width="25" height="25" viewBox="0 0 25 25" fill="none" xmlns="http://www.w3.org/2000/svg">
<g opacity="0.9">
<path fill-rule="evenodd" clip-rule="evenodd" d="M12.0049 0.00488281C5.37747 0.00488281 0.00488281 5.37747 0.00488281 12.0049C0.00488281 18.6323 5.37747 24.0049 12.0049 24.0049C18.6323 24.0049 24.0049 18.6323 24.0049 12.0049C24.0049 5.37747 18.6323 0.00488281 12.0049 0.00488281ZM11.6707 10.1739L11.6455 9.75868C11.5699 8.68248 12.233 7.69949 13.2823 7.31816C13.6684 7.18258 14.3231 7.16563 14.7512 7.28427C14.919 7.33511 15.238 7.50459 15.4646 7.65712L15.8759 7.93677L16.3292 7.79271C16.581 7.71644 16.9168 7.58933 17.0678 7.50459C17.2105 7.42833 17.3364 7.38596 17.3364 7.41138C17.3364 7.55544 17.0259 8.04693 16.7657 8.3181C16.4131 8.69943 16.5139 8.73333 17.2273 8.4791C17.6554 8.33505 17.6638 8.33505 17.5799 8.49605C17.5295 8.58079 17.2693 8.87738 16.9923 9.14855C16.5223 9.61462 16.4971 9.66547 16.4971 10.0553C16.4971 10.6569 16.2117 11.9111 15.9263 12.5975C15.3975 13.8855 14.2643 15.216 13.1312 15.8854C11.5364 16.826 9.41275 17.0633 7.62488 16.5125C7.02892 16.326 6.00488 15.8515 6.00488 15.7668C6.00488 15.7413 6.31545 15.7074 6.69317 15.699C7.48218 15.682 8.2712 15.4617 8.9427 15.0719L9.39596 14.8007L8.87555 14.6228C8.1369 14.3685 7.47379 13.7838 7.30591 13.233C7.25555 13.0551 7.27234 13.0466 7.74239 13.0466L8.22923 13.0381L7.81793 12.8432C7.3311 12.5975 6.88623 12.1823 6.66799 11.7586C6.50851 11.4535 6.30706 10.6824 6.36581 10.623C6.3826 10.5976 6.55887 10.6485 6.76032 10.7162C7.33949 10.9281 7.41503 10.8773 7.07928 10.5213C6.44975 9.87732 6.2567 8.91975 6.55887 8.01303L6.70156 7.60628L7.25555 8.15709C8.38871 9.26719 9.72332 9.92816 11.251 10.1231L11.6707 10.1739Z" fill="white"/>
</g>
</svg>
