<svg width="44" height="44" viewBox="0 0 44 44" fill="none" xmlns="http://www.w3.org/2000/svg">
<path d="M22.001 44C34.1512 44 44.001 34.1503 44.001 22C44.001 9.84974 34.1512 0 22.001 0C9.85071 0 0.000976562 9.84974 0.000976562 22C0.000976562 34.1503 9.85071 44 22.001 44Z" fill="#00AAC8"/>
<path fill-rule="evenodd" clip-rule="evenodd" d="M13.201 13H30.801C32.016 13 33.001 13.985 33.001 15.2V28.4C33.001 29.615 32.016 30.6 30.801 30.6H13.201C11.986 30.6 11.001 29.615 11.001 28.4V15.2C11.001 13.985 11.986 13 13.201 13ZM23.8156 25.595L30.8006 20.7V18.39L22.7156 24.055C22.2856 24.3534 21.7155 24.3534 21.2856 24.055L13.2006 18.39V20.7L20.1856 25.595C21.2756 26.357 22.7255 26.357 23.8156 25.595Z" fill="white"/>
</svg>
