<svg width="44" height="44" viewBox="0 0 44 44" fill="none" xmlns="http://www.w3.org/2000/svg">
<path d="M22 44C34.1503 44 44 34.1503 44 22C44 9.84974 34.1503 0 22 0C9.84974 0 0 9.84974 0 22C0 34.1503 9.84974 44 22 44Z" fill="white"/>
<path fill-rule="evenodd" clip-rule="evenodd" d="M13.2 13H30.8C32.015 13 33 13.985 33 15.2V28.4C33 29.615 32.015 30.6 30.8 30.6H13.2C11.985 30.6 11 29.615 11 28.4V15.2C11 13.985 11.985 13 13.2 13ZM23.8146 25.595L30.7996 20.7V18.39L22.7146 24.055C22.2846 24.3534 21.7146 24.3534 21.2846 24.055L13.1996 18.39V20.7L20.1846 25.595C21.2746 26.357 22.7245 26.357 23.8146 25.595Z" fill="#00AAC8"/>
</svg>
