<svg width="44" height="44" viewBox="0 0 44 44" fill="none" xmlns="http://www.w3.org/2000/svg">
<path d="M22 44C34.1503 44 44 34.1503 44 22C44 9.84974 34.1503 0 22 0C9.84974 0 0 9.84974 0 22C0 34.1503 9.84974 44 22 44Z" fill="white"/>
<path fill-rule="evenodd" clip-rule="evenodd" d="M22.7197 34.2398H22.7251C29.9379 34.2368 35.8041 28.3692 35.807 21.158C35.8083 17.6626 34.4489 14.3759 31.979 11.9033C29.5092 9.43053 26.2246 8.06816 22.725 8.06665C15.5144 8.06665 9.64587 13.9349 9.643 21.1477C9.64202 23.4533 10.2444 25.7038 11.3892 27.6878L9.53333 34.4666L16.4682 32.6475C18.379 33.6897 20.5303 34.239 22.7197 34.2398ZM28.868 23.9745C29.096 24.0847 29.25 24.1591 29.3157 24.2688C29.3974 24.4051 29.3974 25.0596 29.1251 25.8233C28.8526 26.5868 27.5468 27.2836 26.9187 27.3774C26.3556 27.4616 25.6429 27.4968 24.8599 27.2479C24.3852 27.0973 23.7764 26.8962 22.9965 26.5594C19.9321 25.2362 17.8613 22.2662 17.4699 21.7048C17.4424 21.6655 17.4233 21.638 17.4126 21.6237L17.4099 21.6202C17.237 21.3894 16.0779 19.8429 16.0779 18.2424C16.0779 16.7367 16.8175 15.9475 17.1579 15.5842C17.1812 15.5594 17.2027 15.5365 17.2219 15.5155C17.5215 15.1882 17.8757 15.1064 18.0936 15.1064C18.3114 15.1064 18.5296 15.1084 18.72 15.118C18.7435 15.1192 18.768 15.119 18.7932 15.1189C18.9837 15.1178 19.2212 15.1164 19.4555 15.6791C19.5456 15.8957 19.6775 16.2167 19.8166 16.5554C20.0979 17.2401 20.4086 17.9967 20.4633 18.1062C20.545 18.2698 20.5995 18.4606 20.4905 18.6789C20.4742 18.7116 20.4591 18.7425 20.4446 18.772C20.3628 18.939 20.3026 19.0619 20.1637 19.2241C20.1091 19.2879 20.0526 19.3566 19.9962 19.4254C19.8837 19.5623 19.7713 19.6992 19.6734 19.7968C19.5097 19.9598 19.3394 20.1366 19.53 20.4639C19.7207 20.7911 20.3767 21.8615 21.3485 22.7283C22.393 23.66 23.3009 24.0538 23.7611 24.2534C23.8509 24.2923 23.9237 24.3239 23.9771 24.3506C24.3039 24.5143 24.4945 24.4869 24.6852 24.2688C24.8759 24.0507 25.5024 23.3143 25.7202 22.9872C25.9381 22.66 26.1561 22.7145 26.4557 22.8236C26.7553 22.9327 28.3624 23.7234 28.6893 23.887C28.7531 23.919 28.8127 23.9478 28.868 23.9745Z" fill="#00AAC8"/>
</svg>
