<svg width="44" height="44" viewBox="0 0 44 44" fill="none" xmlns="http://www.w3.org/2000/svg">
<path d="M22.001 44C34.1512 44 44.001 34.1503 44.001 22C44.001 9.84974 34.1512 0 22.001 0C9.85071 0 0.000976562 9.84974 0.000976562 22C0.000976562 34.1503 9.85071 44 22.001 44Z" fill="#0084FF"/>
<path d="M13.6202 30.4714V35.1673L18.0111 32.671C19.2351 33.0238 20.5362 33.2142 21.8842 33.2142C29.1103 33.2142 34.9674 27.7485 34.9674 21.0071C34.9674 14.2653 29.1103 8.80005 21.8842 8.80005C14.6586 8.80005 8.80103 14.2653 8.80103 21.0071C8.80103 24.8246 10.6792 28.2333 13.6202 30.4714Z" fill="white"/>
<path d="M20.4871 17.6637L13.4314 25.1342L19.8527 21.6111L23.2077 25.1342L30.2236 17.6637L23.8735 21.1251L20.4871 17.6637V17.6637Z" fill="#0084FF"/>
</svg>
