<svg width="296" height="257" viewBox="0 0 296 257" fill="none" xmlns="http://www.w3.org/2000/svg">
<path opacity="0.1" d="M143.5 257C225.061 257 295.36 238.799 295.36 233C295.36 227.201 225.061 212 143.5 212C61.9386 212 0 227.201 0 233C0 238.799 61.9386 257 143.5 257Z" fill="#0A6EAA"/>
<path d="M233.005 11.9691H71.3042V219.923H233.005V11.9691Z" fill="#E6E8EC"/>
<path d="M193.356 74.2084H110.802V75.136H193.356V74.2084Z" fill="#3F3D56"/>
<path d="M193.356 80.7014H110.802V81.629H193.356V80.7014Z" fill="#3F3D56"/>
<path d="M193.356 87.1945H110.802V88.122H193.356V87.1945Z" fill="#3F3D56"/>
<path d="M193.356 104.61H110.802V105.538H193.356V104.61Z" fill="#24BCBA"/>
<path d="M193.356 111.103H110.802V112.031H193.356V111.103Z" fill="#24BCBA"/>
<path d="M193.356 117.596H110.802V118.524H193.356V117.596Z" fill="#3F3D56"/>
<path d="M193.356 134.011H110.802V134.938H193.356V134.011Z" fill="#3F3D56"/>
<path d="M193.356 140.504H110.802V141.432H193.356V140.504Z" fill="#3F3D56"/>
<path d="M193.356 146.996H110.802V147.924H193.356V146.996Z" fill="#3F3D56"/>
<path d="M193.356 163.41H110.802V164.338H193.356V163.41Z" fill="#3F3D56"/>
<path d="M193.356 169.904H110.802V170.831H193.356V169.904Z" fill="#24BCBA"/>
<path d="M193.356 176.397H110.802V177.324H193.356V176.397Z" fill="#3F3D56"/>
<path d="M193.356 192.811H110.802V193.739H193.356V192.811Z" fill="#3F3D56"/>
<path d="M193.356 199.303H110.802V200.231H193.356V199.303Z" fill="#3F3D56"/>
<path d="M193.356 205.797H110.802V206.724H193.356V205.797Z" fill="#3F3D56"/>
<path d="M239.013 230.946H65.3199V0H239.013V230.946ZM66.0936 230.172H238.239V0.773689H66.0936V230.172Z" fill="#3F3D56"/>
<path d="M84.7662 99.642C84.7648 103.96 83.5941 108.196 81.3787 111.902C79.1625 115.608 75.9841 118.644 72.181 120.688C71.8957 120.843 71.606 120.991 71.3119 121.132C68.0481 122.713 64.4676 123.531 60.841 123.525C57.2145 123.518 53.6369 122.687 50.3789 121.095C49.8172 120.82 49.2688 120.524 48.7336 120.206C48.1896 119.887 47.6611 119.544 47.1481 119.182C43.7742 116.81 41.072 113.604 39.3045 109.878C37.5371 106.151 36.7646 102.031 37.0623 97.9172C37.36 93.8037 38.7177 89.8373 41.0033 86.4041C43.2888 82.971 46.4244 80.1881 50.1047 78.3264C51.5584 77.5876 53.0851 77.0021 54.6602 76.5794C55.3545 76.3915 56.0607 76.2352 56.7786 76.1106C58.1341 75.8756 59.5073 75.7579 60.883 75.7591C61.166 75.7591 61.4469 75.7635 61.7277 75.7767C61.9334 75.7812 62.1391 75.79 62.3447 75.8033C64.4947 75.9318 66.6172 76.3521 68.6538 77.0527C68.8285 77.1124 69.0032 77.1743 69.1757 77.2385C69.7772 77.4596 70.3654 77.7058 70.9403 77.9771C75.0708 79.8941 78.5672 82.9522 81.0167 86.7908C83.4662 90.6294 84.7669 95.0884 84.7662 99.642Z" fill="#0A6EAA"/>
<path d="M70.2045 75.2195C68.0316 70.0925 62.5004 69.1243 62.5004 69.1243C62.5004 69.1243 57.1746 67.7035 52.727 74.4699C48.5814 80.7768 43.2353 86.6858 50.0151 89.2032L51.806 85.442L52.0209 89.7705C53.0068 89.9758 54.0031 90.127 55.0055 90.2234C62.5256 90.9874 69.6145 92.2577 69.7458 89.54C69.9204 85.9272 72.2952 80.1525 70.2045 75.2195Z" fill="#2F2E41"/>
<path d="M50.8921 117.004L50.7152 118.423L50.379 121.095C49.8174 120.82 49.2689 120.524 48.7338 120.206C48.1898 119.887 47.6613 119.545 47.1482 119.182L47.2013 117.804L47.261 116.276L49.7156 116.769L50.8921 117.004Z" fill="#FFB8B8"/>
<path d="M75.599 118.454C74.5252 119.295 73.3814 120.042 72.1802 120.688L71.0215 116.674L70.8689 116.146L70.4885 114.825L70.8976 114.761L75.086 114.1L75.2209 115.239L75.599 118.454Z" fill="#FFB8B8"/>
<path d="M62.5046 85.7913C66.1124 85.7913 69.0371 82.8666 69.0371 79.2587C69.0371 75.6509 66.1124 72.7262 62.5046 72.7262C58.8967 72.7262 55.9719 75.6509 55.9719 79.2587C55.9719 82.8666 58.8967 85.7913 62.5046 85.7913Z" fill="#FFB8B8"/>
<path d="M58.0288 81.7992C58.0288 81.7992 58.5127 90.0254 57.061 90.5093C55.6093 90.9932 64.5614 90.5093 64.5614 90.5093C64.5614 90.5093 63.3517 85.4284 64.5614 83.9767C65.7711 82.525 58.0288 81.7992 58.0288 81.7992Z" fill="#FFB8B8"/>
<path d="M64.6825 89.1786C64.6825 89.1786 58.3918 88.6947 57.1821 89.1786C55.9724 89.6625 52.5851 92.082 52.5851 92.082L54.2788 107.325L68.0698 110.228L70.2473 107.083L72.4248 102.486L71.4571 96.679L71.2151 93.2917L64.6825 89.1786Z" fill="white"/>
<path d="M51.3755 93.0498C51.3755 93.0498 48.2301 93.7756 47.9882 96.1951C47.7463 98.6146 47.7463 104.663 47.9882 105.631C48.2301 106.599 47.9882 107.083 47.7463 107.325C47.5043 107.567 47.0204 107.083 47.5043 107.809C47.9882 108.534 47.9882 108.534 47.7463 109.26C47.5043 109.986 46.7784 109.018 47.2624 110.228C47.7463 111.438 47.9882 111.68 47.7463 111.922C47.5043 112.164 46.7784 117.728 46.7784 117.728L50.8916 118.454L55.0047 104.179L51.3755 93.0498Z" fill="white"/>
<path d="M70.2466 93.0498C70.7061 93.0754 71.1504 93.2236 71.5333 93.4788C71.9161 93.7341 72.2238 94.0872 72.4242 94.5015C73.15 95.9532 75.0856 105.389 74.8436 106.115C74.6017 106.841 74.1178 105.873 74.6017 107.325C75.0856 108.776 74.6017 108.534 74.8436 109.502C75.0856 110.47 73.8759 109.502 74.8436 110.47C75.8114 111.438 76.2953 111.68 75.8114 112.164C75.3276 112.648 74.6017 111.68 75.3276 112.648C76.0534 113.615 76.0534 115.067 76.0534 115.067L70.2466 116.277L68.553 102.728L70.2466 93.0498Z" fill="white"/>
<path d="M71.0222 116.674L71.3119 121.132C68.0482 122.713 64.4676 123.531 60.8411 123.525C57.2146 123.518 53.637 122.687 50.3789 121.095C49.8172 120.82 49.2688 120.524 48.7336 120.206C48.9194 119.522 49.1074 118.841 49.2998 118.173C49.4369 117.698 49.5754 117.23 49.7155 116.769C50.8013 113.215 51.9711 110.193 53.068 109.018C53.068 109.018 53.068 106.358 53.5523 106.115C53.785 105.932 53.9627 105.689 54.0653 105.412C54.2456 105.012 54.3978 104.6 54.5208 104.18L53.7203 102.318L50.1379 93.9764C50.0359 93.7378 50.0288 93.4694 50.1179 93.2256C50.2071 92.982 50.3859 92.7815 50.6178 92.6651L51.8053 92.0702C51.9256 92.0105 52.0565 91.9751 52.1906 91.9661C52.3245 91.9572 52.459 91.9748 52.5862 92.0179C52.7134 92.0611 52.8308 92.129 52.9317 92.2176C53.0326 92.3063 53.115 92.414 53.1741 92.5346L58.634 103.696L64.6822 107.568L68.9236 105.681L69.0364 105.63C69.0364 105.63 72.1832 100.792 71.2146 98.3727C70.8011 97.3399 70.3455 95.96 69.9541 94.715C69.7263 93.9809 69.5229 93.2931 69.3637 92.7535C69.3386 92.6679 69.3405 92.5765 69.3691 92.4919C69.3977 92.4073 69.4516 92.3336 69.5236 92.2807C69.5956 92.2278 69.6821 92.1983 69.7714 92.1963C69.8606 92.1943 69.9484 92.2197 70.0227 92.2692L70.8476 92.8199C71.0345 92.9453 71.1824 93.1208 71.2743 93.3263C71.3125 93.4066 71.3407 93.4912 71.3584 93.5784L73.1496 102.245L70.7303 107.324V112.163L70.8984 114.761L70.9869 116.121L71.0222 116.674Z" fill="#2F2E41"/>
<path d="M68.9766 73.3568L63.4333 70.4532L55.7784 71.641L54.1946 78.6361L58.137 78.4846L59.2385 75.9145V78.4421L61.0576 78.3722L62.1136 74.2807L62.7734 78.6361L69.2406 78.5042L68.9766 73.3568Z" fill="#2F2E41"/>
<path d="M55.8511 80.529C56.252 80.529 56.5769 79.9603 56.5769 79.2588C56.5769 78.5572 56.252 77.9885 55.8511 77.9885C55.4502 77.9885 55.1252 78.5572 55.1252 79.2588C55.1252 79.9603 55.4502 80.529 55.8511 80.529Z" fill="#FFB8B8"/>
<path d="M255.527 158.486C255.527 168.205 248.961 176.431 239.914 179.184C238.578 179.593 237.206 179.876 235.817 180.028C234.97 180.122 234.117 180.17 233.264 180.17C232.946 180.17 232.631 180.164 232.317 180.148H232.313C229.13 180.024 226.009 179.228 223.157 177.811C221.152 176.815 219.309 175.524 217.689 173.98C215.579 171.987 213.898 169.586 212.748 166.922C211.598 164.258 211.003 161.387 211 158.486C211 149.296 216.869 141.441 225.156 138.285C226.147 137.906 227.165 137.599 228.201 137.365C232.017 136.503 235.99 136.631 239.742 137.737C240.027 137.817 240.31 137.908 240.588 138.004C240.59 138.004 240.592 138.006 240.594 138.006C241.263 138.231 241.921 138.49 242.564 138.781C242.785 138.877 243.006 138.98 243.223 139.088C243.656 139.297 244.08 139.521 244.496 139.761C244.657 139.851 244.816 139.944 244.972 140.04C247.53 141.579 249.749 143.62 251.497 146.039C253.087 148.239 254.241 150.722 254.899 153.356C255.318 155.033 255.528 156.756 255.527 158.486Z" fill="#0A6EAA"/>
<path d="M257.284 123.308L260.332 122.382L260.595 119.768C260.595 119.768 253.183 117.041 250.813 121.865C249.976 123.568 248.921 124.591 247.907 125.202C247.207 125.607 246.425 125.852 245.62 125.919C244.814 125.987 244.002 125.876 243.245 125.593C238.107 123.765 236.898 128.962 236.898 128.962C236.898 128.962 237.342 129.702 240.508 129.884C242.084 129.974 243.374 131.13 244.272 132.267C246.195 134.703 250.144 133.999 251.114 131.075C251.13 131.028 251.145 130.98 251.16 130.932C252.675 126.099 259.571 129.947 259.571 129.947L260.012 125.569L257.284 123.308Z" fill="#2F2E41"/>
<path d="M236.518 135.139C238.58 135.139 240.25 133.512 240.25 131.504C240.25 129.496 238.58 127.868 236.518 127.868C234.456 127.868 232.785 129.496 232.785 131.504C232.785 133.512 234.456 135.139 236.518 135.139Z" fill="#2F2E41"/>
<path d="M234.651 150.894C240.148 150.894 244.606 146.554 244.606 141.199C244.606 135.844 240.148 131.504 234.651 131.504C229.153 131.504 224.697 135.844 224.697 141.199C224.697 146.554 229.153 150.894 234.651 150.894Z" fill="#2F2E41"/>
<path d="M234.34 151.399C238.12 151.399 241.184 148.415 241.184 144.734C241.184 141.052 238.12 138.068 234.34 138.068C230.561 138.068 227.497 141.052 227.497 144.734C227.497 148.415 230.561 151.399 234.34 151.399Z" fill="#A0616A"/>
<path d="M231.644 149.783L232.888 156.247L239.11 155.439C239.11 155.439 238.073 150.389 238.695 148.975L231.644 149.783Z" fill="#A0616A"/>
<path d="M243.881 135.644C243.881 135.644 238.904 132.009 236.83 133.422C234.757 134.836 242.43 139.482 243.259 139.078C244.088 138.674 243.881 135.644 243.881 135.644Z" fill="#A0616A"/>
<path d="M248.65 163.113C248.651 163.147 248.649 163.181 248.646 163.214V163.216C248.518 166.103 243.061 174.939 239.913 179.184C238.578 179.593 237.206 179.876 235.817 180.028C234.97 180.122 234.117 180.17 233.263 180.17C232.946 180.17 232.631 180.164 232.317 180.148H232.313C229.415 179.236 225.972 178.039 223.461 177.096C222.278 176.648 221.301 176.259 220.687 175.981C220.458 175.888 220.238 175.773 220.031 175.638C218.994 174.829 221.276 174.223 222.313 174.022C223.35 173.819 221.899 171.598 221.899 171.598C218.165 167.759 222.727 164.529 222.727 164.529C222.727 164.529 224.593 160.69 224.593 159.68C224.598 159.605 224.626 159.534 224.673 159.475C225.454 158.399 231.645 156.45 231.645 156.45V153.217L232.286 153.113L238.594 152.089L239.11 152.004L240.146 153.621L244.711 154.227C244.711 154.227 248.65 159.48 248.65 163.113Z" fill="#003269"/>
<path d="M228.949 163.113C228.949 163.113 226.216 170.494 223.72 176.475C223.633 176.684 223.547 176.891 223.462 177.096C223.359 177.337 223.258 177.576 223.157 177.811C221.153 176.815 219.31 175.524 217.69 173.98C218.811 170.428 220.59 164.784 221.277 162.509C222.033 160.002 223.783 159.542 224.674 159.475C224.854 159.459 225.036 159.46 225.216 159.48L228.949 163.113Z" fill="#003269"/>
<path d="M244.088 154.833L244.709 154.227C244.709 154.227 252.59 145.946 252.382 143.926C252.382 143.926 248.235 138.876 243.05 140.29C243.05 140.29 240.769 134.836 244.295 135.038C247.82 135.24 260.885 134.432 260.678 140.29C260.47 146.148 248.028 164.124 248.028 164.124L244.088 154.833Z" fill="#003269"/>
<path d="M235.817 180.028C234.969 180.122 234.116 180.17 233.263 180.17C232.945 180.17 232.63 180.164 232.316 180.148H232.313C229.129 180.024 226.009 179.228 223.156 177.811C222.249 177.36 221.373 176.848 220.536 176.279L220.686 175.981V175.98L220.861 175.638L223.719 176.475L235.817 180.028Z" fill="white"/>
<path d="M241.153 141.664C241.869 139.427 239.539 136.682 235.949 135.533C232.359 134.383 228.868 135.265 228.151 137.502C227.435 139.739 229.766 142.484 233.355 143.633C236.946 144.783 240.437 143.901 241.153 141.664Z" fill="#2F2E41"/>
<path d="M64 224.74C63.9996 225.936 64.0903 227.129 64.2714 228.311C65.1418 233.893 68.0122 238.969 72.3477 242.592C72.4661 242.691 72.5868 242.791 72.7095 242.887C72.9636 243.092 73.2221 243.291 73.4848 243.484C73.8639 243.764 74.2515 244.031 74.6478 244.287C77.7631 246.294 81.3124 247.53 85.0007 247.889C88.6891 248.25 92.4102 247.726 95.8552 246.359C96.0188 246.294 96.1825 246.228 96.344 246.159C96.6025 246.049 96.8566 245.934 97.1107 245.814C97.7547 245.515 98.3829 245.185 98.9952 244.826C99.6262 244.457 100.236 244.061 100.826 243.637C101.095 243.443 101.356 243.247 101.616 243.042L101.621 243.04C105.066 240.334 107.68 236.711 109.163 232.589V232.586C110.934 227.626 110.972 222.211 109.27 217.226C107.568 212.241 104.226 207.981 99.7899 205.139C99.5853 205.011 99.3785 204.881 99.1696 204.761C98.9543 204.627 98.7346 204.502 98.5128 204.382C95.5273 202.725 92.2112 201.752 88.804 201.532C88.2935 201.498 87.7788 201.48 87.2598 201.48C87.234 201.48 87.2081 201.48 87.1822 201.482C86.4844 201.482 85.7953 201.515 85.1147 201.58C79.3418 202.114 73.9767 204.785 70.0708 209.069C66.1649 213.354 63.9999 218.943 64 224.74Z" fill="#0A6EAA"/>
<path d="M111.232 232.728C111.232 232.728 118.026 225.708 119.837 230.01C121.649 234.313 113.044 236.577 113.044 236.577L111.232 232.728Z" fill="#FFB8B8"/>
<path d="M72.7097 242.887C72.9639 243.092 73.2223 243.291 73.485 243.484C73.8641 243.764 74.2517 244.031 74.648 244.287C77.7634 246.294 81.3126 247.53 85.0009 247.89C88.6893 248.25 92.4104 247.726 95.8554 246.359C96.019 246.294 96.1827 246.228 96.3442 246.159C96.6027 246.049 96.8568 245.934 97.1109 245.814L96.5144 244.957C96.0818 244.552 95.5973 244.207 95.0736 243.929C90.9924 241.714 83.3059 241.782 78.1047 242.146C77.3638 242.198 76.6747 242.256 76.0544 242.314C75.6667 242.349 75.3049 242.385 74.9754 242.42C74.8419 242.435 74.7148 242.448 74.5942 242.461C73.4334 242.59 72.7377 242.691 72.7377 242.691L72.7097 242.887Z" fill="#2F2E41"/>
<path d="M92.6694 211.488C96.2633 211.488 99.1767 208.574 99.1767 204.981C99.1767 201.387 96.2633 198.473 92.6694 198.473C89.0756 198.473 86.1621 201.387 86.1621 204.981C86.1621 208.574 89.0756 211.488 92.6694 211.488Z" fill="#FFB8B8"/>
<path d="M88.363 207.14L83.6078 212.122L82.2491 219.821L94.2505 221.859L93.3447 214.839C93.3447 214.839 93.5712 211.442 94.4769 210.763C95.3827 210.084 88.363 207.14 88.363 207.14Z" fill="#FFB8B8"/>
<path d="M74.3213 243.372C74.7183 243.244 75.1216 243.137 75.5295 243.051C76.5562 242.828 77.6004 242.695 78.6502 242.653C81.1347 242.521 83.6133 243.002 85.8693 244.05C89.1688 245.633 93.0842 246.064 95.7763 246.146C95.9723 246.152 96.1618 246.156 96.3427 246.159C96.6012 246.049 96.8553 245.934 97.1094 245.814C97.7533 245.515 98.3815 245.185 98.9939 244.826L98.9853 244.029L98.8431 228.264V228.261L98.7764 220.726L94.4755 215.744L93.3706 214.5L92.8452 214.971L89.7201 217.784L85.1651 213.565L83.6058 212.122L76.1261 237.3L75.1612 240.548L74.5927 242.461L74.5043 242.754V242.756L74.3213 243.372Z" fill="white"/>
<path d="M91.7011 221.426C91.7119 222.557 91.8069 223.686 91.9854 224.803C92.7607 229.754 93.4262 237.985 95.0738 243.929C95.2891 244.714 95.5239 245.455 95.778 246.146L95.8555 246.359C96.0193 246.294 96.1829 246.228 96.3444 246.159C96.6028 246.049 96.857 245.934 97.1111 245.814C97.7551 245.515 98.3832 245.185 98.9956 244.826C99.6266 244.457 100.237 244.061 100.826 243.637L100.757 243.366V243.363L99.6848 239.069C99.6848 239.069 100.374 235.475 100.925 231.453V231.451C101.558 226.849 102.011 221.693 101.044 220.726L93.4563 213.785L93.4542 213.787C93.2178 214.163 93.0146 214.56 92.8469 214.971C92.33 216.197 91.6753 218.359 91.7011 221.426Z" fill="#00AAC8"/>
<path d="M68.094 237.921C69.2928 239.664 70.7239 241.236 72.3475 242.592C72.4659 242.691 72.5865 242.791 72.7094 242.887C72.9634 243.092 73.2219 243.291 73.4847 243.484C73.8637 243.764 74.2514 244.031 74.6477 244.287C74.9405 243.88 75.2356 243.467 75.5306 243.051C75.7051 242.808 75.8796 242.562 76.054 242.314C76.3297 241.922 76.6054 241.528 76.8767 241.132C76.9111 241.085 76.9435 241.037 76.9758 240.99C77.3204 240.492 77.6607 239.992 77.9923 239.495C80.4389 235.84 82.4677 232.332 82.7003 230.236C82.9803 227.728 83.5467 223.847 84.1217 220.14C84.4922 217.732 84.8668 215.398 85.1662 213.565C85.5281 211.338 85.7779 209.848 85.7779 209.848C85.7779 209.848 73.9111 208.661 72.2484 209.826H72.2463C72.1986 209.853 72.1572 209.89 72.1249 209.935C72.0926 209.98 72.0701 210.03 72.0589 210.084C71.878 211.346 72.8472 223.076 73.2478 227.813V227.815C73.3511 229.03 73.4179 229.785 73.4179 229.785C73.4179 229.785 72.7395 230.691 71.7445 232.145C70.7301 233.629 69.384 235.681 68.094 237.921Z" fill="#00AAC8"/>
<path d="M100.365 227.067L101.497 235.898L111.46 231.596L114.63 238.163L98.3266 244.277C98.3266 244.277 95.3828 228.652 100.365 227.067Z" fill="#00AAC8"/>
<path d="M99.1715 206.172C99.1715 206.172 100.056 205.217 99.9663 204.021C99.9073 203.341 99.9508 202.656 100.095 201.989C100.095 201.989 99.8186 200.032 99.4099 198.898C99.0012 197.764 99.3457 197.37 97.5891 196.751C95.8324 196.131 96.9507 193.892 91.7715 195.677C91.5745 195.876 91.323 196.012 91.0488 196.068C90.7746 196.124 90.4898 196.098 90.2305 195.992C89.2743 195.642 88.6981 196.956 88.6981 196.956C88.6981 196.956 88.1017 196.466 87.767 196.975C87.4324 197.484 85.8137 196.324 85.2202 200.025C84.6267 203.727 86.6643 207.027 86.6643 207.027C86.6643 207.027 86.9501 201.105 90.3138 200.997C93.6773 200.889 97.4811 199.615 97.9529 202.109C98.1994 203.506 98.6084 204.869 99.1715 206.172Z" fill="#2F2E41"/>
<path d="M72.3477 242.592C72.4661 242.691 72.5867 242.791 72.7095 242.887C72.9636 243.092 73.2221 243.291 73.4849 243.484C73.8639 243.764 74.2516 244.031 74.6478 244.287C76.556 245.522 78.6359 246.468 80.8203 247.095C81.3544 245.726 80.0751 244.022 78.6515 242.653C78.4706 242.478 78.2854 242.308 78.1045 242.146C77.6738 241.765 77.2494 241.42 76.8769 241.132C76.8597 241.119 76.8446 241.108 76.8295 241.095C76.1252 240.553 75.6148 240.219 75.6148 240.219L75.1626 240.548L72.3477 242.592Z" fill="#FFB8B8"/>
<path d="M64.2708 228.311C65.1412 233.893 68.0116 238.969 72.3471 242.592C72.4655 242.691 72.5861 242.791 72.7089 242.887C72.963 243.092 73.2214 243.291 73.4842 243.484L74.5051 242.756V242.754L74.9746 242.42L76.8289 241.095L76.9753 240.99L78.3989 239.973L77.9918 239.495L76.1268 237.3L71.7441 232.145L70.6995 230.917L73.2473 227.815V227.813L75.9071 224.576L73.6436 210.084C73.2149 209.86 72.7286 209.77 72.248 209.826H72.2458C71.7333 209.914 71.2099 210.268 70.9256 211.215C70.4109 212.932 66.2543 223.362 64.2708 228.311Z" fill="#00AAC8"/>
<path d="M99.3058 33.9004C99.2234 33.8181 99.1822 33.777 99.0998 33.6948C98.564 33.2016 97.8635 32.9138 97.0805 32.9138C96.8333 32.9138 96.6272 32.9549 96.38 32.996C95.8442 33.1193 95.3909 33.366 95.02 33.7359C94.9788 33.777 94.9376 33.8181 94.9376 33.8181L93.2893 35.4624L92.8772 35.8734C92.2178 36.5311 91.1464 36.5311 90.4458 35.8734C89.7865 35.2158 89.7865 34.147 90.4458 33.4482L94.6904 29.2965C93.6189 28.1866 92.0942 27.5289 90.4458 27.5289C87.1491 27.5289 84.4705 30.2008 84.4705 33.4893C84.4705 35.1335 85.1298 36.6134 86.2425 37.7232C86.9018 37.0655 87.9733 37.0655 88.6738 37.7232C89.0035 38.0521 89.1683 38.5042 89.1683 38.9153C89.1683 39.0797 89.2095 39.2441 89.3332 39.3264C89.4568 39.4908 89.6628 39.6141 89.9101 39.6141C90.3634 39.6141 90.7755 39.7785 91.1052 40.1074C91.4348 40.4362 91.5997 40.8884 91.5997 41.2994C91.5997 41.6694 91.9293 41.9982 92.3002 41.9982C92.7535 41.9982 93.1656 42.1627 93.4953 42.4915C93.825 42.8204 93.9898 43.2725 93.9898 43.6836C93.9898 44.0535 94.3195 44.3824 94.6904 44.3824C95.1437 44.3824 95.5558 44.5468 95.8854 44.8757C96.2151 45.2045 96.38 45.6567 96.38 46.0677C96.38 45.6567 96.7096 45.3689 97.0805 45.3689C97.5338 45.3689 97.9459 45.2045 98.2756 44.8757C98.6053 44.5468 98.7701 44.0946 98.7701 43.6836C98.7701 43.2725 99.0998 42.9848 99.4707 42.9848C99.924 42.9848 100.336 42.8204 100.666 42.4915C100.995 42.1627 101.16 41.7105 101.16 41.2994C101.16 40.8884 101.49 40.6006 101.861 40.6006C102.314 40.6006 102.726 40.4362 103.056 40.1074C103.715 39.4497 103.715 38.3809 103.056 37.6821L99.3058 33.9004Z" fill="#24BCBA"/>
<path d="M90.4454 35.9146C91.1048 36.5723 92.1762 36.5723 92.8768 35.9146L93.2889 35.5035L94.9373 33.8593C94.9785 33.8182 95.0197 33.777 95.0197 33.777C95.3906 33.4071 95.8851 33.1605 96.3796 33.0371C96.5856 32.996 96.8329 32.9549 97.0801 32.9549C97.8631 32.9549 98.5637 33.2427 99.0994 33.7359C99.1818 33.8182 99.223 33.8593 99.3054 33.9415L103.138 37.7643C104.209 36.6956 104.91 35.1746 104.91 33.5304C104.91 30.2419 102.231 27.57 98.9346 27.57C97.2862 27.57 95.8027 28.2277 94.69 29.3376L90.4454 33.4893C89.7861 34.147 89.7861 35.2569 90.4454 35.9146Z" fill="#1D3767"/>
<path d="M94.6905 44.4646C94.3196 44.4646 93.9899 44.1358 93.9899 43.7658C93.9899 43.3136 93.8251 42.9026 93.4954 42.5737C93.1657 42.2449 92.7124 42.0805 92.3003 42.0805C91.9294 42.0805 91.5998 41.7516 91.5998 41.3817C91.5998 40.9295 91.4349 40.5184 91.1053 40.1896C90.7756 39.8607 90.3223 39.6963 89.9102 39.6963C89.6629 39.6963 89.4569 39.573 89.3333 39.4086C89.2508 39.2853 89.1684 39.1619 89.1684 38.9975C89.1684 38.5453 89.0036 38.1343 88.6739 37.8054C88.0146 37.1477 86.9431 37.1477 86.2426 37.8054C85.5832 38.4631 85.5832 39.5319 86.2426 40.2307C86.5722 40.5595 87.0255 40.724 87.4376 40.724C87.8085 40.724 88.1382 41.0528 88.1382 41.4228C88.1382 41.8749 88.303 42.286 88.6327 42.6148C88.9624 42.9437 89.4157 43.1081 89.8278 43.1081C90.1987 43.1081 90.5283 43.437 90.5283 43.8069C90.5283 44.2591 90.6932 44.6701 91.0228 44.999C91.3525 45.3278 91.8058 45.4923 92.2179 45.4923C92.5888 45.4923 92.9185 45.8211 92.9185 46.1911C92.9185 46.6432 93.0833 47.0543 93.413 47.3831C94.0723 48.0408 95.1438 48.0408 95.8443 47.3831C96.174 47.0543 96.3388 46.6021 96.3388 46.1911C96.3388 45.7389 96.174 45.3278 95.8443 44.999C95.5559 44.629 95.1438 44.4646 94.6905 44.4646Z" fill="#1D3767"/>
<path d="M120.035 38.6687H114.142V43.5192H112.288V32.215H120.406V33.9415H114.142V36.9422H120.035V38.6687Z" fill="#1D3767"/>
<path d="M128.524 40.2307C128.524 42.697 126.752 43.7247 124.939 43.7247C123.126 43.7247 121.354 42.697 121.354 40.2307V35.7912H123.043V40.1074C123.043 41.5872 123.868 42.1627 124.939 42.1627C126.01 42.1627 126.835 41.6283 126.835 40.1074V35.7912H128.524V40.2307Z" fill="#1D3767"/>
<path d="M135.817 37.3122H132.85V40.6829C132.85 41.7105 133.386 42.1216 134.086 42.1216C134.622 42.1216 135.199 41.8749 135.652 41.5872L136.312 42.9437C135.694 43.3548 134.911 43.7247 133.922 43.7247C132.15 43.7247 131.119 42.7793 131.119 40.724V37.3122H129.553V35.7913H131.119V33.4482H132.809V35.7913H135.776V37.3122H135.817Z" fill="#1D3767"/>
<path d="M144.266 40.2307C144.266 42.697 142.494 43.7247 140.68 43.7247C138.867 43.7247 137.095 42.697 137.095 40.2307V35.7912H138.785V40.1074C138.785 41.5872 139.609 42.1627 140.68 42.1627C141.752 42.1627 142.576 41.6283 142.576 40.1074V35.7912H144.266V40.2307Z" fill="#1D3767"/>
<path d="M151.189 35.7912L150.776 37.4766C150.406 37.271 149.911 37.1888 149.499 37.1888C148.428 37.1888 147.645 37.9698 147.645 39.2852V43.5603H145.955V35.7912H147.645V36.6544C148.139 35.9145 148.963 35.5857 149.911 35.5857C150.406 35.5857 150.818 35.6268 151.189 35.7912Z" fill="#1D3767"/>
<path d="M158.896 39.6552C158.896 39.8607 158.896 40.1074 158.854 40.2718H153.126C153.374 41.6694 154.321 42.2449 155.434 42.2449C156.217 42.2449 157.041 41.9571 157.701 41.4227L158.525 42.6148C157.577 43.4369 156.506 43.7247 155.31 43.7247C152.962 43.7247 151.354 42.1215 151.354 39.6552C151.354 37.2299 152.92 35.5857 155.228 35.5857C157.371 35.5857 158.896 37.2299 158.896 39.6552ZM153.126 38.9975H157.165C156.959 37.8054 156.258 37.1066 155.187 37.1066C153.951 37.0655 153.291 37.8465 153.126 38.9975Z" fill="#1D3767"/>
<path d="M167.713 39.0797V43.5192H165.9V32.215H170.31C172.947 32.215 174.348 33.5304 174.348 35.6679C174.348 37.8054 172.947 39.1208 170.31 39.1208H167.713V39.0797ZM167.713 33.9004V37.3122H170.227C171.711 37.3122 172.411 36.7778 172.411 35.5857C172.411 34.4348 171.711 33.8593 170.227 33.8593H167.713V33.9004Z" fill="#1D3767"/>
<path d="M181.972 39.6552C181.972 39.8607 181.972 40.1074 181.931 40.2718H176.203C176.45 41.6694 177.398 42.2449 178.511 42.2449C179.294 42.2449 180.118 41.9571 180.777 41.4227L181.602 42.6148C180.654 43.4369 179.582 43.7247 178.387 43.7247C176.038 43.7247 174.431 42.1215 174.431 39.6552C174.431 37.2299 175.997 35.5857 178.305 35.5857C180.448 35.5857 181.972 37.2299 181.972 39.6552ZM176.203 38.9975H180.242C180.036 37.8054 179.335 37.1066 178.264 37.1066C177.027 37.0655 176.368 37.8465 176.203 38.9975Z" fill="#1D3767"/>
<path d="M188.771 35.7912L188.359 37.4766C187.989 37.271 187.494 37.1888 187.082 37.1888C186.01 37.1888 185.227 37.9698 185.227 39.2852V43.5603H183.538V35.7912H185.227V36.6544C185.722 35.9145 186.546 35.5857 187.494 35.5857C187.989 35.5857 188.359 35.6268 188.771 35.7912Z" fill="#1D3767"/>
<path d="M195.365 37.3122H192.687V43.5192H190.997V37.3122H189.431V35.7912H190.997V34.4758C190.997 32.9138 191.78 31.6806 193.593 31.6806C194.5 31.6806 195.2 31.9273 195.777 32.2561L195.159 33.6948C194.747 33.4482 194.211 33.2838 193.717 33.2838C193.057 33.2838 192.687 33.6948 192.687 34.4758V35.7912H195.365V37.3122Z" fill="#1D3767"/>
<path d="M203.279 39.6552C203.279 39.8607 203.279 40.1074 203.238 40.2718H197.509C197.757 41.6694 198.704 42.2449 199.817 42.2449C200.6 42.2449 201.424 41.9571 202.084 41.4227L202.908 42.6148C201.96 43.4369 200.889 43.7247 199.694 43.7247C197.345 43.7247 195.737 42.1215 195.737 39.6552C195.737 37.2299 197.303 35.5857 199.611 35.5857C201.795 35.5857 203.279 37.2299 203.279 39.6552ZM197.509 38.9975H201.548C201.342 37.8054 200.641 37.1066 199.57 37.1066C198.375 37.0655 197.674 37.8465 197.509 38.9975Z" fill="#1D3767"/>
<path d="M211.067 36.8189L209.996 37.9698C209.46 37.4766 208.883 37.1888 208.141 37.1888C206.823 37.1888 205.834 38.2165 205.834 39.6552C205.834 41.135 206.823 42.1215 208.141 42.1215C208.883 42.1215 209.542 41.7927 210.037 41.2994L211.067 42.4504C210.367 43.2725 209.336 43.6836 208.182 43.6836C205.71 43.6836 204.103 41.916 204.103 39.6141C204.103 37.271 205.71 35.5446 208.182 35.5446C209.336 35.5857 210.367 35.9968 211.067 36.8189Z" fill="#1D3767"/>
<path d="M218.03 37.3122H215.063V40.6829C215.063 41.7105 215.599 42.1216 216.3 42.1216C216.835 42.1216 217.412 41.8749 217.866 41.5872L218.525 42.9437C217.907 43.3548 217.124 43.7247 216.135 43.7247C214.363 43.7247 213.333 42.7793 213.333 40.724V37.3122H211.808V35.7913H213.374V33.4482H215.063V35.7913H218.03V37.3122Z" fill="#1D3767"/>
</svg>
