<svg width="493" height="223" viewBox="0 0 493 223" fill="none" xmlns="http://www.w3.org/2000/svg">
<path d="M241.219 185.439C248.564 193.306 248.944 204.868 248.944 204.868C248.944 204.868 237.415 203.676 230.07 195.809C222.725 187.943 222.345 176.381 222.345 176.381C222.345 176.381 233.874 177.573 241.219 185.439Z" fill="#0A6EAA"/>
<path d="M264.344 197.718C256.462 205.048 244.878 205.427 244.878 205.427C244.878 205.427 246.072 193.921 253.954 186.59C261.835 179.259 273.42 178.88 273.42 178.88C273.42 178.88 272.226 190.387 264.344 197.718Z" fill="#3393D4"/>
<path d="M262.384 221.065H233.395C232.839 221.065 232.294 220.909 231.822 220.614C231.351 220.32 230.972 219.899 230.729 219.4L224.417 206.451C224.197 206 224.096 205.501 224.122 205C224.149 204.499 224.303 204.013 224.57 203.587C224.836 203.162 225.207 202.811 225.647 202.568C226.086 202.325 226.581 202.197 227.083 202.197H268.696C269.199 202.197 269.693 202.325 270.133 202.568C270.573 202.811 270.943 203.162 271.21 203.587C271.476 204.013 271.63 204.499 271.657 205C271.684 205.501 271.582 206 271.362 206.451L265.051 219.4C264.807 219.899 264.428 220.32 263.957 220.614C263.485 220.909 262.94 221.065 262.384 221.065V221.065Z" fill="#3F3D56"/>
<path d="M392.574 63.1469C405.905 63.1469 416.712 52.3611 416.712 39.0561C416.712 25.7512 405.905 14.9654 392.574 14.9654C379.243 14.9654 368.436 25.7512 368.436 39.0561C368.436 52.3611 379.243 63.1469 392.574 63.1469Z" fill="#FFB8B8"/>
<path d="M374.561 51.1015C374.561 51.1015 379.108 85.3174 372.112 89.1579C365.115 92.9985 413.741 93.3477 413.741 93.3477C413.741 93.3477 402.896 63.6706 407.794 54.5929L374.561 51.1015Z" fill="#FFB8B8"/>
<path d="M449.246 93.5207L445.202 111.899L436.651 150.783L436.395 152.912L433.444 177.565L431.481 193.941L430.165 204.942C422.162 209.047 416.362 211.881 416.362 211.881C416.362 211.881 415.863 209.385 415.059 206.191C409.443 207.871 399.051 210.659 390.244 211.216C393.451 214.784 394.925 218.135 392.926 220.609C386.893 228.065 361.985 212.445 353.274 206.62C353.071 208.014 352.994 209.424 353.044 210.833L346.377 205.716L347.037 193.941L348.15 174.02L349.548 149.037C349.107 147.967 348.738 146.869 348.442 145.751C346.4 138.504 343.922 124.034 342.022 111.899C340.492 102.133 339.343 93.8811 339.1 92.1252C339.067 91.8958 339.051 91.7779 339.051 91.7779L375.955 75.5025C378.578 81.573 390.825 83.3978 390.825 83.3978C400.971 82.7 408.924 77.36 408.924 77.36L449.246 93.5207Z" fill="white"/>
<path d="M419.163 204.9C419.163 204.9 417.6 205.434 415.06 206.191C409.443 207.871 399.051 210.659 390.244 211.216C382.662 211.701 376.255 210.535 375.083 205.598C374.58 203.475 375.293 201.729 376.845 200.294C381.48 196.005 393.586 194.469 403.187 193.941C405.898 193.794 408.406 193.725 410.494 193.699C414.039 193.653 416.363 193.725 416.363 193.725L416.418 193.941L419.163 204.9Z" fill="#FFB8B8"/>
<path d="M372.493 16.2685L367.979 14.4652C367.979 14.4652 377.416 4.09624 390.545 4.99792L386.853 0.940466C386.853 0.940466 395.879 -2.66609 404.085 6.80117C408.398 11.7779 413.389 17.6278 416.501 24.2176H421.334L419.317 28.6507L426.377 33.0838L419.13 32.2875C419.562 34.7151 419.628 37.1935 419.327 39.6406C419.016 42.0885 417.764 44.3201 415.836 45.8644V45.8644C415.836 45.8644 410.239 34.3014 410.239 32.4981V37.0064C410.239 37.0064 405.726 32.949 405.726 30.244L403.264 33.3998L402.033 28.4407L386.853 33.3998L389.314 29.3424L379.878 30.6949L383.57 25.7358C383.57 25.7358 372.903 31.5965 372.493 36.5556C372.082 41.5146 368.96 46.2136 368.96 46.2136C368.96 46.2136 360.594 23.0308 372.493 16.2685Z" fill="#2F2E41"/>
<path d="M475.484 178.013C473.025 180.673 466.933 184.68 459.547 189.018C456.8 190.629 453.875 192.29 450.892 193.941C443.772 197.883 436.318 201.788 430.166 204.942C422.164 209.047 416.364 211.881 416.364 211.881C416.364 211.881 415.865 209.385 415.061 206.191C413.984 201.915 412.362 196.389 410.672 193.941C410.613 193.856 410.554 193.778 410.495 193.699C410.002 193.054 409.507 192.677 409.018 192.677L433.445 177.564L444.002 171.032L436.396 152.912L426.858 130.183L432.615 111.899L438.402 93.5207H449.247C449.247 93.5207 452.838 101.344 457.43 112.253C458.116 113.885 458.825 115.585 459.547 117.341C468.994 140.273 480.772 172.297 475.484 178.013Z" fill="white"/>
<path d="M392.925 220.609C386.892 228.065 361.985 212.445 353.273 206.62C351.376 205.352 350.247 204.549 350.247 204.549L358.217 193.942L360.741 190.584C360.741 190.584 362.999 191.779 366.338 193.725C366.459 193.797 366.58 193.87 366.705 193.942C369.584 195.629 373.198 197.834 376.845 200.294C381.877 203.691 386.964 207.567 390.244 211.216C393.451 214.784 394.924 218.135 392.925 220.609Z" fill="#FFB8B8"/>
<path d="M366.339 193.725C365.448 193.722 364.558 193.794 363.68 193.941C356.134 195.236 353.908 202.053 353.275 206.62C353.072 208.014 352.995 209.424 353.045 210.833L346.378 205.716L343.949 203.852C338.103 201.817 332.894 198.204 328.377 193.941C324.459 190.179 320.944 186.018 317.89 181.529C314.848 177.103 312.136 172.46 309.776 167.638C309.117 166.292 308.763 164.819 308.739 163.321C308.714 161.824 309.02 160.339 309.634 158.973L317.89 140.611L329.956 113.773C330.045 113.134 330.142 112.51 330.248 111.899C332.641 98.2055 339.052 92.1252 339.052 92.1252H343.949L347.225 111.899L351.295 136.466L348.443 145.751L341.852 167.193L348.151 174.02L366.339 193.725Z" fill="white"/>
<path d="M371.881 134.262L376.068 139.137C377.624 138.841 379.248 138.493 380.921 138.103L379.718 134.262L382.659 137.686C400.383 133.335 422.352 124.876 422.352 124.876C422.352 124.876 398.634 126.612 380.925 122.75C373.09 121.042 365.028 124.918 361.813 132.252C359.944 136.514 360.237 140.207 366.866 140.207C369.105 140.169 371.339 139.959 373.546 139.58L371.881 134.262Z" fill="#0A6EAA"/>
<path d="M467.326 216.612V218.6C467.327 219.146 467.226 219.687 467.027 220.196C466.939 220.422 466.833 220.641 466.709 220.851C466.318 221.506 465.763 222.049 465.098 222.426C464.433 222.802 463.682 223 462.918 223H316.34C315.576 223 314.825 222.802 314.16 222.426C313.495 222.049 312.94 221.506 312.549 220.851C312.425 220.641 312.319 220.422 312.231 220.196C312.032 219.687 311.931 219.146 311.932 218.6V216.612C311.932 216.034 312.046 215.462 312.267 214.928C312.489 214.394 312.813 213.909 313.223 213.5C313.632 213.092 314.118 212.768 314.653 212.547C315.188 212.326 315.761 212.212 316.34 212.212H324.789V211.285C324.789 211.261 324.794 211.237 324.803 211.215C324.812 211.192 324.826 211.172 324.843 211.155C324.86 211.138 324.88 211.124 324.903 211.115C324.925 211.106 324.949 211.101 324.973 211.101H329.381C329.405 211.101 329.429 211.106 329.452 211.115C329.474 211.124 329.494 211.138 329.511 211.155C329.528 211.172 329.542 211.192 329.551 211.215C329.56 211.237 329.565 211.261 329.565 211.285V212.212H332.319V211.285C332.319 211.261 332.324 211.237 332.333 211.215C332.342 211.192 332.356 211.172 332.373 211.155C332.39 211.138 332.41 211.124 332.433 211.115C332.455 211.106 332.479 211.101 332.503 211.101H336.911C336.935 211.101 336.959 211.106 336.982 211.115C337.004 211.124 337.024 211.138 337.041 211.155C337.058 211.172 337.072 211.192 337.081 211.215C337.09 211.237 337.095 211.261 337.095 211.285V212.212H339.852V211.285C339.852 211.261 339.857 211.237 339.866 211.215C339.875 211.192 339.889 211.172 339.906 211.155C339.923 211.138 339.943 211.124 339.966 211.115C339.988 211.106 340.012 211.101 340.036 211.101H344.444C344.469 211.101 344.493 211.106 344.515 211.115C344.537 211.124 344.557 211.138 344.575 211.155C344.592 211.172 344.605 211.192 344.614 211.215C344.624 211.237 344.628 211.261 344.628 211.285V212.212H347.382V211.285C347.382 211.261 347.387 211.237 347.396 211.215C347.405 211.192 347.419 211.172 347.436 211.155C347.453 211.138 347.473 211.124 347.496 211.115C347.518 211.106 347.542 211.101 347.566 211.101H351.974C351.999 211.101 352.022 211.106 352.045 211.115C352.067 211.124 352.087 211.138 352.104 211.155C352.122 211.172 352.135 211.192 352.144 211.215C352.154 211.237 352.158 211.261 352.158 211.285V212.212H354.912V211.285C354.912 211.261 354.917 211.237 354.926 211.215C354.935 211.192 354.949 211.172 354.966 211.155C354.983 211.138 355.003 211.124 355.026 211.115C355.048 211.106 355.072 211.101 355.096 211.101H359.504C359.528 211.101 359.552 211.106 359.575 211.115C359.597 211.124 359.617 211.138 359.634 211.155C359.651 211.172 359.665 211.192 359.674 211.215C359.683 211.237 359.688 211.261 359.688 211.285V212.212H362.445V211.285C362.445 211.261 362.45 211.237 362.459 211.215C362.469 211.192 362.482 211.172 362.499 211.155C362.516 211.138 362.537 211.124 362.559 211.115C362.581 211.106 362.605 211.101 362.629 211.101H367.038C367.062 211.101 367.086 211.106 367.108 211.115C367.13 211.124 367.151 211.138 367.168 211.155C367.185 211.172 367.198 211.192 367.207 211.215C367.217 211.237 367.221 211.261 367.221 211.285V212.212H369.975V211.285C369.975 211.261 369.98 211.237 369.989 211.215C369.999 211.192 370.012 211.172 370.029 211.155C370.046 211.138 370.066 211.124 370.089 211.115C370.111 211.106 370.135 211.101 370.159 211.101H404.69C404.715 211.101 404.739 211.106 404.761 211.115C404.783 211.124 404.803 211.138 404.821 211.155C404.838 211.172 404.851 211.192 404.86 211.215C404.87 211.237 404.874 211.261 404.874 211.285V212.212H407.632V211.285C407.631 211.261 407.636 211.237 407.645 211.215C407.655 211.192 407.668 211.172 407.685 211.155C407.702 211.138 407.723 211.124 407.745 211.115C407.767 211.106 407.791 211.101 407.815 211.101H412.224C412.272 211.102 412.319 211.121 412.353 211.156C412.388 211.19 412.407 211.236 412.407 211.285V212.212H415.161V211.285C415.161 211.261 415.166 211.237 415.175 211.215C415.185 211.192 415.198 211.172 415.215 211.155C415.232 211.138 415.253 211.124 415.275 211.115C415.297 211.106 415.321 211.101 415.345 211.101H419.754C419.778 211.101 419.802 211.106 419.824 211.115C419.846 211.124 419.867 211.138 419.884 211.155C419.901 211.172 419.914 211.192 419.924 211.215C419.933 211.237 419.937 211.261 419.937 211.285V212.212H422.691V211.285C422.691 211.261 422.696 211.237 422.705 211.215C422.715 211.192 422.728 211.172 422.745 211.155C422.762 211.138 422.783 211.124 422.805 211.115C422.827 211.106 422.851 211.101 422.875 211.101H427.284C427.308 211.101 427.332 211.106 427.354 211.115C427.376 211.124 427.397 211.138 427.414 211.155C427.431 211.172 427.444 211.192 427.453 211.215C427.463 211.237 427.467 211.261 427.467 211.285V212.212H430.225V211.285C430.225 211.261 430.229 211.237 430.239 211.215C430.248 211.192 430.261 211.172 430.278 211.155C430.295 211.138 430.316 211.124 430.338 211.115C430.36 211.106 430.384 211.101 430.408 211.101H434.817C434.865 211.102 434.911 211.122 434.945 211.156C434.979 211.19 434.998 211.237 434.997 211.285V212.212H437.755V211.285C437.755 211.261 437.759 211.237 437.768 211.215C437.778 211.192 437.791 211.172 437.808 211.155C437.825 211.138 437.846 211.124 437.868 211.115C437.89 211.106 437.914 211.101 437.938 211.101H442.347C442.371 211.101 442.395 211.106 442.417 211.115C442.439 211.124 442.46 211.138 442.477 211.155C442.494 211.172 442.507 211.192 442.517 211.215C442.526 211.237 442.531 211.261 442.53 211.285V212.212H445.284V211.285C445.284 211.261 445.289 211.237 445.298 211.215C445.308 211.192 445.321 211.172 445.338 211.155C445.355 211.138 445.376 211.124 445.398 211.115C445.42 211.106 445.444 211.101 445.468 211.101H449.877C449.901 211.101 449.925 211.106 449.947 211.115C449.969 211.124 449.99 211.138 450.007 211.155C450.024 211.172 450.037 211.192 450.047 211.215C450.056 211.237 450.06 211.261 450.06 211.285V212.212H462.918C463.497 212.212 464.07 212.326 464.605 212.547C465.14 212.768 465.626 213.092 466.035 213.5C466.445 213.909 466.769 214.394 466.991 214.928C467.212 215.462 467.326 216.034 467.326 216.612V216.612Z" fill="#003269"/>
<path d="M455.524 132.866H400.89V131.742H376.116V132.866H321.257C320.772 132.866 320.291 132.962 319.843 133.147C319.395 133.332 318.987 133.604 318.644 133.947C318.301 134.289 318.029 134.696 317.843 135.143C317.657 135.591 317.562 136.07 317.562 136.555V211.22C317.562 212.198 317.951 213.136 318.644 213.828C319.337 214.519 320.277 214.908 321.257 214.908H455.524C456.504 214.908 457.444 214.519 458.137 213.828C458.83 213.136 459.219 212.198 459.219 211.22V136.555C459.219 136.07 459.124 135.591 458.938 135.143C458.752 134.696 458.48 134.289 458.137 133.947C457.794 133.604 457.386 133.332 456.938 133.147C456.489 132.962 456.009 132.866 455.524 132.866V132.866Z" fill="#003269"/>
<path d="M385.871 170.072C390.403 170.072 394.077 166.405 394.077 161.882C394.077 157.359 390.403 153.692 385.871 153.692C381.339 153.692 377.665 157.359 377.665 161.882C377.665 166.405 381.339 170.072 385.871 170.072Z" fill="white"/>
<path d="M144.921 96.6871C151.519 96.6871 156.868 91.3488 156.868 84.7637C156.868 78.1785 151.519 72.8402 144.921 72.8402C138.323 72.8402 132.975 78.1785 132.975 84.7637C132.975 91.3488 138.323 96.6871 144.921 96.6871Z" fill="#2F2E41"/>
<path d="M148.25 73.1684C150.318 73.1687 152.35 73.7044 154.148 74.7232C155.946 75.742 157.448 77.209 158.508 78.9808C159.567 80.7526 160.149 82.7686 160.194 84.8316C160.239 86.8946 159.748 88.9341 158.767 90.7506C159.803 89.4572 160.557 87.9627 160.982 86.3622C161.407 84.7618 161.493 83.0905 161.235 81.4549C160.978 79.8193 160.381 78.2553 159.484 76.8625C158.587 75.4697 157.409 74.2787 156.025 73.3653C154.642 72.452 153.083 71.8363 151.447 71.5576C149.812 71.2789 148.137 71.3433 146.528 71.7466C144.919 72.1499 143.411 72.8833 142.102 73.9001C140.793 74.9168 139.71 76.1947 138.923 77.6521C140.04 76.2528 141.458 75.123 143.073 74.3467C144.688 73.5704 146.458 73.1676 148.25 73.1684V73.1684Z" fill="#2F2E41"/>
<path d="M122.598 84.7384C141.979 84.7384 157.691 69.0571 157.691 49.7133C157.691 30.3695 141.979 14.6883 122.598 14.6883C103.216 14.6883 87.5042 30.3695 87.5042 49.7133C87.5042 69.0571 103.216 84.7384 122.598 84.7384Z" fill="#2F2E41"/>
<path d="M95.0545 27.9819C101.101 21.1946 109.554 17.0176 118.628 16.3324C127.702 15.6472 136.688 18.5074 143.69 24.3095C143.403 24.0372 143.119 23.7627 142.82 23.4982C135.864 17.3264 126.737 14.1653 117.445 14.7103C108.154 15.2552 99.4602 19.4617 93.2764 26.4042C87.0925 33.3467 83.9252 42.4567 84.4713 51.7299C85.0174 61.0031 89.232 69.68 96.1881 75.8518C96.4863 76.1164 96.7926 76.3657 97.0972 76.6182C90.5037 70.3583 86.6051 61.7866 86.224 52.7122C85.8428 43.6378 89.0091 34.7705 95.0545 27.9819V27.9819Z" fill="#2F2E41"/>
<path d="M122.3 84.4416C134.783 84.4416 144.903 74.3418 144.903 61.8831C144.903 49.4244 134.783 39.3246 122.3 39.3246C109.817 39.3246 99.6978 49.4244 99.6978 61.8831C99.6978 74.3418 109.817 84.4416 122.3 84.4416Z" fill="#A0616A"/>
<path d="M106.241 69.0068C106.241 69.0068 109.215 96.3145 104.456 99.2827C99.6977 102.251 131.817 106.406 131.817 106.406C131.817 106.406 127.059 76.7242 138.955 69.0069L106.241 69.0068Z" fill="#A0616A"/>
<path d="M134.791 94.5336C134.791 94.5336 143.648 90.4057 130.892 91.876C118.136 93.3463 107.131 87.7067 107.131 87.7067C107.131 87.7067 103.266 83.848 102.671 88.0035C102.077 92.159 104.456 99.8764 91.3701 101.064C78.2844 102.251 66.3884 98.6891 61.6299 107.594C56.8715 116.498 59.2507 155.085 59.2507 155.085C59.2507 155.085 68.1728 187.142 75.3104 191.891C82.4481 196.641 144.902 190.11 144.902 190.11L162.747 158.054V120.654C162.747 120.654 160.367 107.594 143.713 111.156C143.713 111.156 133.006 108.781 133.601 103.438C134.196 98.0955 134.791 94.5336 134.791 94.5336Z" fill="white"/>
<path d="M77.6717 214.577C78.0393 212.979 78.2855 212.074 78.2855 212.074L78.0951 210.774L76.1355 197.493L75.3116 191.891C82.4476 188.923 84.2333 175.268 84.2333 175.268L84.5025 175.107L85.7202 174.38V174.377L90.0925 171.759L90.1811 171.707L91.9471 172.88L95.5348 175.268C100.238 178.771 105.622 181.256 111.343 182.564C117.063 183.872 122.994 183.975 128.756 182.865C131.439 182.407 134.061 181.651 136.575 180.611L145.228 177.732L145.497 177.643L145.763 177.682L150.837 178.449L150.929 178.465L151.349 178.528L150.174 186.636L148.471 198.42C152.971 200.798 156.972 205.267 160.471 210.774C161.246 211.993 161.997 213.26 162.723 214.577C163.668 216.281 164.571 218.053 165.431 219.868C165.536 220.084 165.638 220.304 165.74 220.523C166.071 221.234 166.399 221.952 166.718 222.672H76.0961C76.2143 221.948 76.3324 221.257 76.4473 220.592C76.4533 220.57 76.4577 220.547 76.4605 220.523C76.5031 220.301 76.5425 220.084 76.5786 219.868C76.9791 217.706 77.3664 215.901 77.6717 214.577Z" fill="#2F2E41"/>
<path d="M74.1221 100.47C74.1221 100.47 80.665 112.343 78.2858 127.184C75.9065 142.025 85.4234 178.831 85.4234 178.831L92.5611 177.05C92.5611 177.05 87.8026 146.181 88.9922 139.057C90.1818 131.933 90.1818 104.032 84.2338 100.47C78.2858 96.9081 74.1221 100.47 74.1221 100.47Z" fill="#0A6EAA"/>
<path d="M143.296 112.808L145.796 178.534L150.554 181.502C150.554 181.502 157.395 109.375 153.826 109.375H146.564C146.12 109.375 145.681 109.465 145.273 109.64C144.865 109.814 144.497 110.07 144.192 110.391C143.886 110.712 143.649 111.092 143.495 111.508C143.341 111.923 143.273 112.366 143.296 112.808V112.808Z" fill="#0A6EAA"/>
<path d="M88.6944 177.347C90.3369 177.347 91.6685 176.018 91.6685 174.379C91.6685 172.74 90.3369 171.411 88.6944 171.411C87.0519 171.411 85.7204 172.74 85.7204 174.379C85.7204 176.018 87.0519 177.347 88.6944 177.347Z" fill="#3393D4"/>
<path d="M148.173 180.315C149.816 180.315 151.147 178.986 151.147 177.347C151.147 175.708 149.816 174.379 148.173 174.379C146.531 174.379 145.199 175.708 145.199 177.347C145.199 178.986 146.531 180.315 148.173 180.315Z" fill="#3393D4"/>
<path d="M102.969 33.6846V56.2433H108.203L114.864 49.1196L113.972 56.2433H137.111L135.683 49.1196L138.538 56.2433H142.225V33.6846H102.969Z" fill="#2F2E41"/>
<path d="M99.3998 60.3989C100.385 60.3989 101.184 58.9371 101.184 57.1339C101.184 55.3306 100.385 53.8688 99.3998 53.8688C98.4143 53.8688 97.6154 55.3306 97.6154 57.1339C97.6154 58.9371 98.4143 60.3989 99.3998 60.3989Z" fill="#A0616A"/>
<path d="M145.2 60.3989C146.185 60.3989 146.984 58.9371 146.984 57.1339C146.984 55.3306 146.185 53.8688 145.2 53.8688C144.214 53.8688 143.415 55.3306 143.415 57.1339C143.415 58.9371 144.214 60.3989 145.2 60.3989Z" fill="#A0616A"/>
<path d="M157.394 177.05C157.394 177.05 130.33 172.004 128.546 180.909C126.761 189.814 158.583 185.955 158.583 185.955L157.394 177.05Z" fill="#A0616A"/>
<path d="M156.8 115.905C156.8 115.905 221.634 167.552 209.738 180.018C197.841 192.485 152.636 188.923 152.636 188.923L155.61 174.082L181.782 171.114L168.696 158.054L156.8 159.241V115.905Z" fill="white"/>
<path d="M61.0367 201.983L69.364 208.513C69.364 208.513 75.312 226.916 84.2341 221.574C93.1562 216.231 75.9068 197.234 75.9068 197.234L65.7952 193.672L61.0367 201.983Z" fill="#A0616A"/>
<path d="M69.363 106.406L61.0582 108.901C61.0582 108.901 3.33973 151.523 0.96051 163.396C-1.41871 175.269 12.2618 181.799 12.2618 181.799L64.0097 206.139L69.363 191.891L44.976 179.425C44.976 179.425 46.7604 175.863 39.6228 175.269C32.4851 174.676 31.2955 166.958 31.2955 166.958C31.2955 166.958 45.5708 144.993 53.3032 149.742C61.0357 154.492 63.4149 158.053 63.4149 158.053L69.363 106.406Z" fill="white"/>
<path d="M187.813 216.612V218.6C187.814 219.146 187.713 219.687 187.514 220.196C187.426 220.422 187.32 220.641 187.196 220.851C186.805 221.506 186.249 222.049 185.585 222.426C184.92 222.802 184.169 223 183.405 223H36.827C36.0627 223 35.3113 222.802 34.6467 222.426C33.9821 222.049 33.427 221.506 33.0358 220.851C32.912 220.641 32.8055 220.422 32.7174 220.196C32.5189 219.687 32.4176 219.146 32.4187 218.6V216.612C32.4185 216.034 32.5324 215.462 32.7539 214.928C32.9754 214.394 33.3001 213.909 33.7095 213.5C34.1189 213.092 34.6049 212.768 35.1398 212.547C35.6747 212.326 36.248 212.212 36.827 212.212H45.276V211.285C45.276 211.261 45.2807 211.237 45.2899 211.215C45.2991 211.192 45.3127 211.172 45.3298 211.155C45.3468 211.138 45.3671 211.124 45.3894 211.115C45.4118 211.106 45.4357 211.101 45.4598 211.101H49.8681C49.8923 211.101 49.9162 211.106 49.9385 211.115C49.9609 211.124 49.9811 211.138 49.9982 211.155C50.0153 211.172 50.0288 211.192 50.0381 211.215C50.0473 211.237 50.052 211.261 50.052 211.285V212.212H52.8059V211.285C52.8059 211.261 52.8106 211.237 52.8198 211.215C52.8291 211.192 52.8426 211.172 52.8597 211.155C52.8768 211.138 52.897 211.124 52.9194 211.115C52.9417 211.106 52.9656 211.101 52.9898 211.101H57.3981C57.4222 211.101 57.4461 211.106 57.4685 211.115C57.4908 211.124 57.5111 211.138 57.5281 211.155C57.5452 211.172 57.5587 211.192 57.568 211.215C57.5772 211.237 57.5819 211.261 57.5819 211.285V212.212H60.3392V211.285C60.3391 211.261 60.3439 211.237 60.3531 211.215C60.3623 211.192 60.3758 211.172 60.3929 211.155C60.41 211.138 60.4303 211.124 60.4526 211.115C60.4749 211.106 60.4988 211.101 60.523 211.101H64.9313C64.9555 211.101 64.9794 211.106 65.0017 211.115C65.024 211.124 65.0443 211.138 65.0614 211.155C65.0784 211.172 65.092 211.192 65.1012 211.215C65.1104 211.237 65.1152 211.261 65.1151 211.285V212.212H67.8691V211.285C67.8691 211.261 67.8738 211.237 67.883 211.215C67.8922 211.192 67.9058 211.172 67.9228 211.155C67.9399 211.138 67.9602 211.124 67.9825 211.115C68.0048 211.106 68.0288 211.101 68.0529 211.101H72.4612C72.4854 211.101 72.5093 211.106 72.5316 211.115C72.554 211.124 72.5742 211.138 72.5913 211.155C72.6084 211.172 72.6219 211.192 72.6311 211.215C72.6404 211.237 72.6451 211.261 72.6451 211.285V212.212H75.399V211.285C75.399 211.261 75.4037 211.237 75.4129 211.215C75.4222 211.192 75.4357 211.172 75.4528 211.155C75.4699 211.138 75.4901 211.124 75.5124 211.115C75.5348 211.106 75.5587 211.101 75.5828 211.101H79.9912C80.0153 211.101 80.0392 211.106 80.0615 211.115C80.0839 211.124 80.1042 211.138 80.1212 211.155C80.1383 211.172 80.1518 211.192 80.1611 211.215C80.1703 211.237 80.175 211.261 80.175 211.285V212.212H82.9322V211.285C82.9322 211.261 82.9369 211.237 82.9461 211.215C82.9553 211.192 82.9689 211.172 82.9859 211.155C83.003 211.138 83.0233 211.124 83.0456 211.115C83.0679 211.106 83.0919 211.101 83.116 211.101H87.5244C87.5485 211.101 87.5724 211.106 87.5948 211.115C87.6171 211.124 87.6374 211.138 87.6544 211.155C87.6715 211.172 87.685 211.192 87.6943 211.215C87.7035 211.237 87.7082 211.261 87.7082 211.285V212.212H90.4622V211.285C90.4621 211.261 90.4669 211.237 90.4761 211.215C90.4853 211.192 90.4988 211.172 90.5159 211.155C90.533 211.138 90.5533 211.124 90.5756 211.115C90.5979 211.106 90.6218 211.101 90.646 211.101H125.177C125.201 211.101 125.225 211.106 125.248 211.115C125.27 211.124 125.29 211.138 125.307 211.155C125.324 211.172 125.338 211.192 125.347 211.215C125.356 211.237 125.361 211.261 125.361 211.285V212.212H128.118V211.285C128.118 211.261 128.123 211.237 128.132 211.215C128.141 211.192 128.155 211.172 128.172 211.155C128.189 211.138 128.209 211.124 128.232 211.115C128.254 211.106 128.278 211.101 128.302 211.101H132.71C132.759 211.102 132.806 211.121 132.84 211.156C132.874 211.19 132.894 211.236 132.894 211.285V212.212H135.648V211.285C135.648 211.261 135.653 211.237 135.662 211.215C135.671 211.192 135.685 211.172 135.702 211.155C135.719 211.138 135.739 211.124 135.762 211.115C135.784 211.106 135.808 211.101 135.832 211.101H140.24C140.265 211.101 140.288 211.106 140.311 211.115C140.333 211.124 140.353 211.138 140.37 211.155C140.388 211.172 140.401 211.192 140.41 211.215C140.42 211.237 140.424 211.261 140.424 211.285V212.212H143.178V211.285C143.178 211.261 143.183 211.237 143.192 211.215C143.201 211.192 143.215 211.172 143.232 211.155C143.249 211.138 143.269 211.124 143.292 211.115C143.314 211.106 143.338 211.101 143.362 211.101H147.77C147.794 211.101 147.818 211.106 147.841 211.115C147.863 211.124 147.883 211.138 147.9 211.155C147.917 211.172 147.931 211.192 147.94 211.215C147.949 211.237 147.954 211.261 147.954 211.285V212.212H150.711V211.285C150.711 211.261 150.716 211.237 150.725 211.215C150.735 211.192 150.748 211.172 150.765 211.155C150.782 211.138 150.803 211.124 150.825 211.115C150.847 211.106 150.871 211.101 150.895 211.101H155.304C155.352 211.102 155.398 211.122 155.432 211.156C155.465 211.19 155.484 211.237 155.484 211.285V212.212H158.241V211.285C158.241 211.261 158.246 211.237 158.255 211.215C158.264 211.192 158.278 211.172 158.295 211.155C158.312 211.138 158.332 211.124 158.355 211.115C158.377 211.106 158.401 211.101 158.425 211.101H162.833C162.858 211.101 162.882 211.106 162.904 211.115C162.926 211.124 162.946 211.138 162.964 211.155C162.981 211.172 162.994 211.192 163.003 211.215C163.013 211.237 163.017 211.261 163.017 211.285V212.212H165.771V211.285C165.771 211.261 165.776 211.237 165.785 211.215C165.794 211.192 165.808 211.172 165.825 211.155C165.842 211.138 165.862 211.124 165.885 211.115C165.907 211.106 165.931 211.101 165.955 211.101H170.363C170.388 211.101 170.411 211.106 170.434 211.115C170.456 211.124 170.476 211.138 170.493 211.155C170.511 211.172 170.524 211.192 170.533 211.215C170.543 211.237 170.547 211.261 170.547 211.285V212.212H183.405C183.984 212.212 184.557 212.326 185.092 212.547C185.627 212.768 186.113 213.092 186.522 213.5C186.931 213.909 187.256 214.394 187.478 214.928C187.699 215.462 187.813 216.034 187.813 216.612V216.612Z" fill="#003269"/>
<path d="M176.01 132.865H121.376V131.741H96.6033V132.865H41.7441C40.764 132.865 39.824 133.253 39.131 133.945C38.4379 134.637 38.0486 135.575 38.0486 136.553V211.218C38.0486 212.196 38.4379 213.134 39.131 213.826C39.824 214.518 40.764 214.906 41.7441 214.906H176.01C176.991 214.906 177.93 214.518 178.624 213.826C179.317 213.134 179.706 212.196 179.706 211.218V136.553C179.706 135.575 179.317 134.637 178.624 133.945C177.93 133.253 176.991 132.865 176.01 132.865V132.865Z" fill="#003269"/>
<path d="M106.36 170.071C110.892 170.071 114.566 166.404 114.566 161.881C114.566 157.357 110.892 153.69 106.36 153.69C101.828 153.69 98.1542 157.357 98.1542 161.881C98.1542 166.404 101.828 170.071 106.36 170.071Z" fill="white"/>
<path d="M492.111 220.555H6.73389V221.575H492.111V220.555Z" fill="#3F3D56"/>
</svg>
