<svg width="468" height="372" viewBox="0 0 468 372" fill="none" xmlns="http://www.w3.org/2000/svg">
<rect x="281.608" width="262.49" height="262.49" transform="rotate(45 281.608 0)" fill="#D2D1D1" fill-opacity="0.28"/>
<rect x="-6.10352e-05" y="49" width="273" height="281.964" rx="8" fill="#D9D9D9"/>
<rect x="202.916" y="84.0417" width="57.0448" height="66.009" rx="8" fill="white"/>
<path fill-rule="evenodd" clip-rule="evenodd" d="M231.439 122.343C238.64 122.343 244.477 116.506 244.477 109.305C244.477 102.104 238.64 96.2659 231.439 96.2659C224.237 96.2659 218.4 102.104 218.4 109.305C218.4 116.506 224.237 122.343 231.439 122.343Z" fill="#DDE3E9"/>
<rect x="211.065" y="125.603" width="40.7463" height="4.88955" rx="2.44478" fill="#DDE3E9"/>
<rect x="217.585" y="133.752" width="27.7075" height="4.88955" rx="2.44478" fill="#DDE3E9"/>
<path d="M-6.10352e-05 57C-6.10352e-05 52.5817 3.58166 49 7.99994 49H265C269.418 49 273 52.5817 273 57V71.003H-6.10352e-05V57Z" fill="#BEBEBE"/>
<path fill-rule="evenodd" clip-rule="evenodd" d="M10.5942 63.6687C12.3945 63.6687 13.8539 62.2093 13.8539 60.409C13.8539 58.6087 12.3945 57.1493 10.5942 57.1493C8.79389 57.1493 7.33447 58.6087 7.33447 60.409C7.33447 62.2093 8.79389 63.6687 10.5942 63.6687Z" fill="#F2F2F2"/>
<path fill-rule="evenodd" clip-rule="evenodd" d="M20.3732 63.6687C22.1735 63.6687 23.6329 62.2093 23.6329 60.409C23.6329 58.6087 22.1735 57.1493 20.3732 57.1493C18.5729 57.1493 17.1135 58.6087 17.1135 60.409C17.1135 62.2093 18.5729 63.6687 20.3732 63.6687Z" fill="#F2F2F2"/>
<path fill-rule="evenodd" clip-rule="evenodd" d="M30.1521 63.6687C31.9524 63.6687 33.4118 62.2093 33.4118 60.409C33.4118 58.6087 31.9524 57.1493 30.1521 57.1493C28.3518 57.1493 26.8924 58.6087 26.8924 60.409C26.8924 62.2093 28.3518 63.6687 30.1521 63.6687Z" fill="#F2F2F2"/>
<rect x="202.916" y="156.57" width="57.0448" height="158.096" rx="8" fill="white"/>
<rect x="217.585" y="171.239" width="27.7075" height="21.1881" rx="4" fill="#DDE3E9"/>
<rect x="217.585" y="198.946" width="27.7075" height="20.3731" rx="4" fill="#AFB9C5"/>
<rect x="217.585" y="225.839" width="27.7075" height="20.3731" rx="4" fill="#DDE3E9"/>
<rect x="217.585" y="279.624" width="27.7075" height="20.3731" rx="4" fill="#DDE3E9"/>
<rect x="217.585" y="252.731" width="27.7075" height="20.3731" rx="4" fill="#C5CFD6"/>
<rect x="13.0387" y="84.8568" width="183.358" height="38.3015" rx="4" fill="white"/>
<g clip-path="url(#clip0)">
<rect x="20.3732" y="96.3474" width="136.093" height="5.74522" rx="2.87261" fill="#DDE3E9"/>
<rect x="20.3732" y="105.923" width="91.3498" height="5.74523" rx="2.87261" fill="#DDE3E9"/>
</g>
<path fill-rule="evenodd" clip-rule="evenodd" d="M176.802 109.712C179.952 109.712 182.506 107.158 182.506 104.008C182.506 100.857 179.952 98.3032 176.802 98.3032C173.651 98.3032 171.097 100.857 171.097 104.008C171.097 107.158 173.651 109.712 176.802 109.712Z" fill="#DDE3E9"/>
<path fill-rule="evenodd" clip-rule="evenodd" d="M176.802 106.453C178.152 106.453 179.246 105.358 179.246 104.008C179.246 102.658 178.152 101.563 176.802 101.563C175.451 101.563 174.357 102.658 174.357 104.008C174.357 105.358 175.451 106.453 176.802 106.453Z" fill="#F2F2F2"/>
<rect x="13.0385" y="129.678" width="183.358" height="31.7821" rx="4" fill="white"/>
<g clip-path="url(#clip1)">
<rect x="20.373" y="139.212" width="136.093" height="4.76731" rx="2.38366" fill="#DDE3E9"/>
<rect x="20.373" y="147.158" width="91.3498" height="4.76731" rx="2.38366" fill="#DDE3E9"/>
</g>
<path fill-rule="evenodd" clip-rule="evenodd" d="M176.801 151.273C179.952 151.273 182.506 148.719 182.506 145.569C182.506 142.418 179.952 139.864 176.801 139.864C173.651 139.864 171.097 142.418 171.097 145.569C171.097 148.719 173.651 151.273 176.801 151.273Z" fill="#DDE3E9"/>
<rect x="13.0385" y="167.979" width="183.358" height="31.7821" rx="4" fill="white"/>
<g clip-path="url(#clip2)">
<rect x="20.373" y="177.514" width="136.093" height="4.76731" rx="2.38366" fill="#DDE3E9"/>
<rect x="20.373" y="185.459" width="91.3498" height="4.76731" rx="2.38366" fill="#DDE3E9"/>
</g>
<path fill-rule="evenodd" clip-rule="evenodd" d="M176.801 189.575C179.952 189.575 182.506 187.021 182.506 183.87C182.506 180.72 179.952 178.166 176.801 178.166C173.651 178.166 171.097 180.72 171.097 183.87C171.097 187.021 173.651 189.575 176.801 189.575Z" fill="#DDE3E9"/>
<rect x="13.0385" y="282.884" width="183.358" height="31.7821" rx="4" fill="white"/>
<g clip-path="url(#clip3)">
<rect x="20.373" y="292.418" width="136.093" height="4.76731" rx="2.38366" fill="#DDE3E9"/>
<rect x="20.373" y="300.364" width="91.3498" height="4.76731" rx="2.38366" fill="#DDE3E9"/>
</g>
<path fill-rule="evenodd" clip-rule="evenodd" d="M176.801 304.479C179.952 304.479 182.506 301.925 182.506 298.775C182.506 295.624 179.952 293.07 176.801 293.07C173.651 293.07 171.097 295.624 171.097 298.775C171.097 301.925 173.651 304.479 176.801 304.479Z" fill="#DDE3E9"/>
<rect x="13.0385" y="244.582" width="183.358" height="31.7821" rx="4" fill="white"/>
<g clip-path="url(#clip4)">
<rect x="20.373" y="254.117" width="136.093" height="4.76731" rx="2.38366" fill="#DDE3E9"/>
<rect x="20.373" y="262.062" width="91.3498" height="4.76731" rx="2.38366" fill="#DDE3E9"/>
</g>
<path fill-rule="evenodd" clip-rule="evenodd" d="M176.801 266.178C179.952 266.178 182.506 263.624 182.506 260.474C182.506 257.323 179.952 254.769 176.801 254.769C173.651 254.769 171.097 257.323 171.097 260.474C171.097 263.624 173.651 266.178 176.801 266.178Z" fill="#DDE3E9"/>
<rect x="13.0385" y="206.281" width="183.358" height="31.7821" rx="4" fill="white"/>
<g clip-path="url(#clip5)">
<rect x="20.373" y="215.815" width="136.093" height="4.76731" rx="2.38366" fill="#DDE3E9"/>
<rect x="20.373" y="223.761" width="91.3498" height="4.76731" rx="2.38366" fill="#DDE3E9"/>
</g>
<path fill-rule="evenodd" clip-rule="evenodd" d="M176.801 227.876C179.952 227.876 182.506 225.322 182.506 222.172C182.506 219.021 179.952 216.467 176.801 216.467C173.651 216.467 171.097 219.021 171.097 222.172C171.097 225.322 173.651 227.876 176.801 227.876Z" fill="#DDE3E9"/>
<path opacity="0.4" d="M412.027 277.205C415.895 275.854 419.46 273.755 422.518 271.027C425.576 268.299 428.066 264.995 429.847 261.305C431.628 257.614 432.664 253.609 432.897 249.518C433.13 245.427 432.555 241.33 431.205 237.461C429.854 233.592 427.755 230.027 425.027 226.969C422.299 223.912 418.995 221.422 415.305 219.641C411.614 217.86 407.609 216.823 403.518 216.59C399.427 216.357 395.33 216.932 391.461 218.283L401.744 247.744L412.027 277.205Z" fill="white"/>
<circle opacity="0.4" cx="318.5" cy="33.5" r="15.5" fill="white"/>
<defs>
<clipPath id="clip0">
<rect x="20.3732" y="96.3474" width="136.093" height="15.3206" fill="white"/>
</clipPath>
<clipPath id="clip1">
<rect x="20.373" y="139.212" width="136.093" height="12.7128" fill="white"/>
</clipPath>
<clipPath id="clip2">
<rect x="20.373" y="177.514" width="136.093" height="12.7128" fill="white"/>
</clipPath>
<clipPath id="clip3">
<rect x="20.373" y="292.418" width="136.093" height="12.7128" fill="white"/>
</clipPath>
<clipPath id="clip4">
<rect x="20.373" y="254.117" width="136.093" height="12.7128" fill="white"/>
</clipPath>
<clipPath id="clip5">
<rect x="20.373" y="215.815" width="136.093" height="12.7128" fill="white"/>
</clipPath>
</defs>
</svg>
