<svg width="276" height="263" viewBox="0 0 276 263" fill="none" xmlns="http://www.w3.org/2000/svg">
<path d="M44 252C77.4173 252 109.466 238.725 133.095 215.095C156.725 191.466 170 159.417 170 126C170 92.5827 156.725 60.5341 133.095 36.9046C109.466 13.275 77.4173 9.9895e-07 44 -5.50763e-06L44 126L44 252Z" fill="#D2D1D1" fill-opacity="0.28"/>
<path d="M135.853 66.9495C135.776 66.8727 135.737 66.8343 135.661 66.7576C135.16 66.297 134.506 66.0283 133.775 66.0283C133.544 66.0283 133.352 66.0667 133.121 66.105C132.621 66.2202 132.197 66.4505 131.851 66.796C131.812 66.8343 131.774 66.8727 131.774 66.8727L130.235 68.4081L129.85 68.7919C129.234 69.4061 128.234 69.4061 127.58 68.7919C126.964 68.1778 126.964 67.1798 127.58 66.5273L131.543 62.6505C130.543 61.6141 129.119 61 127.58 61C124.501 61 122 63.4949 122 66.5657C122 68.101 122.616 69.4828 123.655 70.5192C124.27 69.905 125.271 69.905 125.925 70.5192C126.233 70.8263 126.387 71.2485 126.387 71.6323C126.387 71.7859 126.425 71.9394 126.541 72.0162C126.656 72.1697 126.849 72.2848 127.079 72.2848C127.503 72.2848 127.887 72.4384 128.195 72.7454C128.503 73.0525 128.657 73.4747 128.657 73.8586C128.657 74.204 128.965 74.5111 129.311 74.5111C129.735 74.5111 130.119 74.6646 130.427 74.9717C130.735 75.2788 130.889 75.701 130.889 76.0848C130.889 76.4303 131.197 76.7374 131.543 76.7374C131.966 76.7374 132.351 76.8909 132.659 77.198C132.967 77.505 133.121 77.9273 133.121 78.3111C133.121 77.9273 133.429 77.6586 133.775 77.6586C134.198 77.6586 134.583 77.505 134.891 77.198C135.199 76.8909 135.353 76.4687 135.353 76.0848C135.353 75.701 135.661 75.4323 136.007 75.4323C136.43 75.4323 136.815 75.2788 137.123 74.9717C137.431 74.6646 137.585 74.2424 137.585 73.8586C137.585 73.4747 137.892 73.2061 138.239 73.2061C138.662 73.2061 139.047 73.0525 139.355 72.7454C139.97 72.1313 139.97 71.1333 139.355 70.4808L135.853 66.9495Z" fill="#24BCBA"/>
<path d="M127.579 68.8303C128.195 69.4444 129.196 69.4444 129.85 68.8303L130.235 68.4464L131.774 66.9111C131.812 66.8727 131.851 66.8343 131.851 66.8343C132.197 66.4889 132.659 66.2586 133.121 66.1434C133.313 66.105 133.544 66.0666 133.775 66.0666C134.506 66.0666 135.16 66.3353 135.66 66.7959C135.737 66.8727 135.776 66.9111 135.853 66.9879L139.431 70.5575C140.432 69.5596 141.086 68.1394 141.086 66.604C141.086 63.5333 138.585 61.0384 135.506 61.0384C133.967 61.0384 132.582 61.6525 131.543 62.6889L127.579 66.5656C126.964 67.1798 126.964 68.2161 127.579 68.8303Z" fill="#1D3767"/>
<path d="M131.543 76.8141C131.197 76.8141 130.889 76.5071 130.889 76.1616C130.889 75.7394 130.735 75.3555 130.427 75.0485C130.119 74.7414 129.696 74.5879 129.311 74.5879C128.965 74.5879 128.657 74.2808 128.657 73.9353C128.657 73.5131 128.503 73.1293 128.195 72.8222C127.888 72.5151 127.464 72.3616 127.08 72.3616C126.849 72.3616 126.656 72.2465 126.541 72.0929C126.464 71.9778 126.387 71.8626 126.387 71.7091C126.387 71.2869 126.233 70.903 125.925 70.596C125.309 69.9818 124.309 69.9818 123.655 70.596C123.039 71.2101 123.039 72.2081 123.655 72.8606C123.963 73.1677 124.386 73.3212 124.771 73.3212C125.117 73.3212 125.425 73.6283 125.425 73.9737C125.425 74.3959 125.579 74.7798 125.887 75.0869C126.194 75.3939 126.618 75.5475 127.003 75.5475C127.349 75.5475 127.657 75.8545 127.657 76.2C127.657 76.6222 127.811 77.006 128.118 77.3131C128.426 77.6202 128.85 77.7737 129.234 77.7737C129.581 77.7737 129.889 78.0808 129.889 78.4263C129.889 78.8485 130.042 79.2323 130.35 79.5394C130.966 80.1535 131.967 80.1535 132.621 79.5394C132.929 79.2323 133.082 78.8101 133.082 78.4263C133.082 78.004 132.929 77.6202 132.621 77.3131C132.351 76.9677 131.967 76.8141 131.543 76.8141Z" fill="#1D3767"/>
<path d="M155.209 71.4021H149.707V75.9313H147.975V65.3758H155.556V66.9879H149.707V69.7899H155.209V71.4021Z" fill="#1D3767"/>
<path d="M163.136 72.8606C163.136 75.1636 161.482 76.1232 159.789 76.1232C158.095 76.1232 156.441 75.1636 156.441 72.8606V68.7151H158.018V72.7454C158.018 74.1272 158.788 74.6646 159.789 74.6646C160.789 74.6646 161.559 74.1656 161.559 72.7454V68.7151H163.136V72.8606V72.8606Z" fill="#1D3767"/>
<path d="M169.946 70.1354H167.176V73.2828C167.176 74.2424 167.676 74.6263 168.33 74.6263C168.831 74.6263 169.369 74.396 169.793 74.1273L170.408 75.3939C169.831 75.7778 169.1 76.1232 168.176 76.1232C166.522 76.1232 165.56 75.2404 165.56 73.3212V70.1354H164.097V68.7152H165.56V66.5273H167.137V68.7152H169.908V70.1354H169.946Z" fill="#1D3767"/>
<path d="M177.835 72.8606C177.835 75.1636 176.18 76.1232 174.487 76.1232C172.794 76.1232 171.14 75.1636 171.14 72.8606V68.7151H172.717V72.7454C172.717 74.1272 173.487 74.6646 174.487 74.6646C175.488 74.6646 176.257 74.1656 176.257 72.7454V68.7151H177.835V72.8606Z" fill="#1D3767"/>
<path d="M184.3 68.7151L183.915 70.2889C183.569 70.097 183.107 70.0202 182.722 70.0202C181.722 70.0202 180.991 70.7495 180.991 71.9778V75.9697H179.413V68.7151H180.991V69.5212C181.452 68.8303 182.222 68.5232 183.107 68.5232C183.569 68.5232 183.954 68.5616 184.3 68.7151Z" fill="#1D3767"/>
<path d="M191.497 72.3232C191.497 72.5151 191.497 72.7454 191.458 72.899H186.109C186.34 74.204 187.225 74.7414 188.264 74.7414C188.996 74.7414 189.765 74.4727 190.381 73.9737L191.15 75.0869C190.265 75.8545 189.265 76.1232 188.149 76.1232C185.956 76.1232 184.455 74.6263 184.455 72.3232C184.455 70.0586 185.917 68.5232 188.072 68.5232C190.073 68.5232 191.497 70.0586 191.497 72.3232ZM186.109 71.7091H189.881C189.688 70.5959 189.034 69.9434 188.034 69.9434C186.879 69.905 186.263 70.6343 186.109 71.7091Z" fill="#1D3767"/>
<path d="M199.731 71.7859V75.9313H198.037V65.3758H202.155C204.618 65.3758 205.926 66.6041 205.926 68.6C205.926 70.596 204.618 71.8243 202.155 71.8243H199.731V71.7859ZM199.731 66.9495V70.1354H202.078C203.463 70.1354 204.117 69.6364 204.117 68.5233C204.117 67.4485 203.463 66.9111 202.078 66.9111H199.731V66.9495Z" fill="#1D3767"/>
<path d="M213.045 72.3232C213.045 72.5151 213.045 72.7454 213.007 72.899H207.658C207.889 74.204 208.774 74.7414 209.813 74.7414C210.544 74.7414 211.314 74.4727 211.929 73.9737L212.699 75.0869C211.814 75.8545 210.813 76.1232 209.697 76.1232C207.504 76.1232 206.003 74.6263 206.003 72.3232C206.003 70.0586 207.466 68.5232 209.62 68.5232C211.621 68.5232 213.045 70.0586 213.045 72.3232ZM207.658 71.7091H211.429C211.237 70.5959 210.582 69.9434 209.582 69.9434C208.428 69.905 207.812 70.6343 207.658 71.7091Z" fill="#1D3767"/>
<path d="M219.394 68.7151L219.009 70.2889C218.663 70.097 218.201 70.0202 217.816 70.0202C216.816 70.0202 216.085 70.7495 216.085 71.9778V75.9697H214.507V68.7151H216.085V69.5212C216.546 68.8303 217.316 68.5232 218.201 68.5232C218.663 68.5232 219.009 68.5616 219.394 68.7151Z" fill="#1D3767"/>
<path d="M225.551 70.1354H223.05V75.9313H221.472V70.1354H220.01V68.7152H221.472V67.4869C221.472 66.0283 222.203 64.8768 223.896 64.8768C224.743 64.8768 225.397 65.1071 225.936 65.4141L225.358 66.7576C224.974 66.5273 224.473 66.3737 224.012 66.3737C223.396 66.3737 223.05 66.7576 223.05 67.4869V68.7152H225.551V70.1354Z" fill="#1D3767"/>
<path d="M232.94 72.3232C232.94 72.5151 232.94 72.7454 232.902 72.899H227.553C227.784 74.204 228.669 74.7414 229.708 74.7414C230.439 74.7414 231.209 74.4727 231.824 73.9737L232.594 75.0869C231.709 75.8545 230.708 76.1232 229.593 76.1232C227.399 76.1232 225.898 74.6263 225.898 72.3232C225.898 70.0586 227.361 68.5232 229.516 68.5232C231.555 68.5232 232.94 70.0586 232.94 72.3232ZM227.553 71.7091H231.324C231.132 70.5959 230.478 69.9434 229.477 69.9434C228.361 69.905 227.707 70.6343 227.553 71.7091Z" fill="#1D3767"/>
<path d="M240.213 69.6747L239.213 70.7495C238.712 70.2889 238.174 70.0202 237.481 70.0202C236.25 70.0202 235.326 70.9798 235.326 72.3232C235.326 73.705 236.25 74.6262 237.481 74.6262C238.174 74.6262 238.789 74.3192 239.251 73.8586L240.213 74.9333C239.559 75.701 238.597 76.0848 237.52 76.0848C235.211 76.0848 233.71 74.4343 233.71 72.2848C233.71 70.097 235.211 68.4848 237.52 68.4848C238.597 68.5232 239.559 68.9071 240.213 69.6747Z" fill="#1D3767"/>
<path d="M246.715 70.1354H243.945V73.2828C243.945 74.2424 244.445 74.6263 245.099 74.6263C245.599 74.6263 246.138 74.396 246.561 74.1273L247.177 75.3939C246.6 75.7778 245.869 76.1232 244.945 76.1232C243.291 76.1232 242.328 75.2404 242.328 73.3212V70.1354H240.905V68.7152H242.367V66.5273H243.945V68.7152H246.715V70.1354Z" fill="#1D3767"/>
<path fill-rule="evenodd" clip-rule="evenodd" d="M110 18C101.163 18 94 25.1634 94 34V107C94 115.837 101.163 123 110 123H260C268.837 123 276 115.837 276 107V34C276 25.1634 268.837 18 260 18H110ZM110 32C107.791 32 106 33.7909 106 36V105C106 107.209 107.791 109 110 109H260C262.209 109 264 107.209 264 105V36C264 33.7909 262.209 32 260 32H110Z" fill="#DFDFDF"/>
<path fill-rule="evenodd" clip-rule="evenodd" d="M77.8839 62.0145C82.3688 64.7177 86.7754 66.0238 88.844 65.4906C94.0309 64.1536 94.5078 45.1781 90.4944 37.6974C86.481 30.2167 65.8487 26.9561 64.8087 41.7778C64.4478 46.922 66.6078 51.5128 69.7992 55.2589L64.0769 81.9303H80.699L77.8839 62.0145Z" fill="#B28B67"/>
<path fill-rule="evenodd" clip-rule="evenodd" d="M78.715 43.4148C80.1527 41.2739 81.5331 39.641 83.3287 38.6927C90.6362 38.8082 91.4918 37.4981 91.4918 33.0827C90.3115 32.2382 86.1469 30.8161 81.4831 30.416C79.1039 29.7352 76.2855 29.8632 73.5705 30.9989C70.2189 31.9499 67.3809 33.9979 66.1274 37.832C61.592 45.6588 65.0344 53.8062 69.6733 56.5893C70.9082 55.1264 71.9858 53.7086 72.9473 52.3514C72.1749 51.5969 71.6954 50.5438 71.6954 49.3787C71.6954 47.0836 73.5559 45.2231 75.8509 45.2231C76.0197 45.2231 76.186 45.2332 76.3495 45.2527C76.4528 48.1222 76.8777 57.8301 77.9941 61.2022C79.3102 65.1777 86.9903 66.1538 89.6689 66.1538C91.9825 66.1538 91.9036 63.963 91.8471 62.3929C91.839 62.1668 91.8313 61.9536 91.8313 61.7616C91.8313 61.3605 91.3096 61.3615 90.7202 61.3627C89.9548 61.3642 89.0751 61.366 89.0751 60.4878C89.0751 59.5306 90.398 58.7963 91.5817 58.1392C92.3203 57.7293 93.0047 57.3494 93.2799 56.9642C94.1481 55.7489 94.4405 54.1098 93.1307 54.1098C92.4147 54.1098 91.4324 54.5225 90.2506 55.0191C88.4665 55.7688 86.2277 56.7095 83.7643 56.7095C79.6949 56.7095 78.727 43.58 78.715 43.4148Z" fill="#191847"/>
<path fill-rule="evenodd" clip-rule="evenodd" d="M61.5802 136.763L87.3195 201.909L104.583 256.986H111.4L85.0079 136.763L61.5802 136.763Z" fill="#997659"/>
<path fill-rule="evenodd" clip-rule="evenodd" d="M56.3973 136.763C56.1232 159.656 52.126 190.477 51.4874 191.904C50.8488 193.331 7.39526 228.199 7.39526 228.199L12.0905 233.223C12.0905 233.223 63.3616 203.329 65.7342 199.342C68.1068 195.355 75.831 158.664 82.0326 136.763H56.3973Z" fill="#B28B67"/>
<path fill-rule="evenodd" clip-rule="evenodd" d="M8.46457 228.245C8.07906 227.139 6.90007 226.46 5.81511 226.9C4.93646 227.257 3.9999 227.695 3.50853 228.107C2.42189 229.019 0.640961 231.13 0.640961 231.13C1.69872 232.391 19.6534 253.789 19.6534 253.789C19.6534 253.789 23.3144 252.222 21.9505 250.124C20.5866 248.025 19.7181 246.609 19.7181 246.609L15.7108 232.609C15.5558 232.067 14.9841 231.76 14.4471 231.931L12.7033 232.484C12.7033 232.484 10.4033 231.412 9.47915 230.311C9.08837 229.845 8.73838 229.03 8.46457 228.245Z" fill="#E4E4E4"/>
<path fill-rule="evenodd" clip-rule="evenodd" d="M104.203 254.25C103.108 253.835 101.83 254.301 101.469 255.416C101.178 256.318 100.912 257.317 100.912 257.959C100.912 259.377 101.384 262.098 101.384 262.098C103.03 262.098 130.962 262.098 130.962 262.098C130.962 262.098 132.115 258.287 129.631 257.983C127.147 257.679 125.504 257.434 125.504 257.434L112.203 251.505C111.689 251.275 111.086 251.516 110.872 252.037L110.175 253.728C110.175 253.728 107.875 254.801 106.437 254.801C105.829 254.801 104.98 254.545 104.203 254.25Z" fill="#E4E4E4"/>
<path fill-rule="evenodd" clip-rule="evenodd" d="M78.886 251.313L111.297 247.795L87.2767 136.763H58.2471L78.886 251.313Z" fill="#022C5B"/>
<path fill-rule="evenodd" clip-rule="evenodd" d="M14.0995 220.093L35.3594 245.257C35.3594 245.257 68.9483 208.572 74.5243 197.383C80.1002 186.194 84.5492 136.763 84.5492 136.763H51.8671C51.8671 136.763 49.4368 180.25 48.5907 182.274C47.7447 184.298 14.0995 220.093 14.0995 220.093Z" fill="#003269"/>
<path fill-rule="evenodd" clip-rule="evenodd" d="M107.912 78.9141L89.7091 88.8835L96.431 96.0981L109.657 83.988C116.625 82.0678 119.811 80.6631 119.216 79.7739C118.715 79.0241 117.906 79.0502 117.161 79.0741C116.58 79.0928 116.038 79.1103 115.711 78.7587C114.963 77.9559 116.39 75.149 117.858 72.5433C119.326 69.9375 117.756 70.1644 116.859 70.5391C113.921 72.5279 110.938 75.3196 107.912 78.9141ZM126.213 92.9026L118.218 97.2949L118.673 105.319C118.673 105.319 123.851 101.581 128.306 100.339C133.987 98.755 136.285 97.5455 139.061 94.0085C140.546 92.1161 141.807 88.3118 140.393 87.0729C139.851 86.5976 137.83 87.7204 135.769 88.866C134.198 89.7391 132.602 90.6255 131.62 90.8278C130.297 91.1001 130.452 89.3854 130.575 88.0152C130.664 87.032 130.737 86.2261 130.236 86.4591C127.896 86.4992 126.213 92.9026 126.213 92.9026Z" fill="#D2A179"/>
<path fill-rule="evenodd" clip-rule="evenodd" d="M80.8444 86.6627C87.22 86.5953 95.722 85.2487 104.794 79.4904L108.356 87.4353C102.099 93.6452 93.3004 98.7475 85.6071 98.5314C79.5444 98.3612 76.4459 91.0278 80.8444 86.6627Z" fill="#066182"/>
<path fill-rule="evenodd" clip-rule="evenodd" d="M123.48 93.4319C123.48 93.4319 99.9991 101.787 89.4242 99.3871C88.7965 97.262 88.143 95.1319 87.4904 93.0051C84.696 83.8978 81.9195 74.8486 81.269 66.4907L79.8212 66.4907H67.176L66.7181 66.4907C65.1225 66.4907 54.2777 87.2798 54.2676 100.786C54.2641 105.424 52.6391 109.425 50.9283 113.638C48.0897 120.628 45.0147 128.201 48.7178 140.227C52.0183 139.577 57.5878 140.303 63.6489 141.094C74.9927 142.573 88.0589 144.276 91.1963 137.605C93.5378 132.626 94.2348 127.177 93.9281 121.451C103.579 121.24 115.293 118.057 128.961 110.918C129.408 105.695 123.48 93.4319 123.48 93.4319Z" fill="#0A6EAA"/>
</svg>
