<svg width="335" height="243" viewBox="0 0 335 243" fill="none" xmlns="http://www.w3.org/2000/svg">
<path d="M293.874 118.363H290.892V236.691H293.874V118.363Z" fill="#003269"/>
<path d="M321.395 133.443C321.585 174.819 292.607 208.496 292.607 208.496C292.607 208.496 263.321 175.089 263.131 133.713C262.941 92.3365 291.919 58.6597 291.919 58.6597C291.919 58.6597 321.205 92.0668 321.395 133.443Z" fill="#003269"/>
<path d="M234.249 174.038H232.715V234.897H234.249V174.038Z" fill="#003269"/>
<path d="M248.517 182.783C248.614 204.063 233.71 221.384 233.71 221.384C233.71 221.384 218.648 204.202 218.55 182.921C218.452 161.641 233.357 144.32 233.357 144.32C233.357 144.32 248.419 161.502 248.517 182.783Z" fill="#003269"/>
<path d="M264.48 243C287.429 243 306.034 240.135 306.034 236.601C306.034 233.067 287.429 230.203 264.48 230.203C241.53 230.203 222.926 233.067 222.926 236.601C222.926 240.135 241.53 243 264.48 243Z" fill="#003269"/>
<path d="M267.907 87.4726C264.386 81.4969 257.421 81.2184 257.421 81.2184C257.421 81.2184 250.634 80.3465 246.28 89.4476C242.222 97.9306 236.621 106.121 245.379 108.107L246.96 103.161L247.94 108.475C249.187 108.565 250.438 108.587 251.687 108.54C261.065 108.235 269.997 108.628 269.709 105.248C269.327 100.754 271.294 93.2225 267.907 87.4726Z" fill="#2F2E41"/>
<path d="M255.229 98.7263C255.229 98.7263 259.778 105.125 257.048 110.305C254.319 115.485 263.418 120.969 263.418 120.969L270.091 106.344C270.091 106.344 262.205 101.164 264.328 96.2887L255.229 98.7263Z" fill="#FBBEBE"/>
<path d="M258.262 101.469C262.617 101.469 266.148 97.9217 266.148 93.5464C266.148 89.1711 262.617 85.6243 258.262 85.6243C253.906 85.6243 250.375 89.1711 250.375 93.5464C250.375 97.9217 253.906 101.469 258.262 101.469Z" fill="#FBBEBE"/>
<path d="M230.97 102.704L237.56 94.1625C237.56 94.1625 239.881 85.2091 243.242 85.663C246.603 86.1169 241.914 96.4004 241.914 96.4004L235.366 105.855L230.97 102.704Z" fill="#FBBEBE"/>
<path d="M264.328 216.339L266.451 227.613L271.001 228.832L269.788 215.425L264.328 216.339Z" fill="#FBBEBE"/>
<path d="M310.128 204.151L318.318 215.425L321.654 216.948L324.384 212.378L316.195 201.714L310.128 204.151Z" fill="#FBBEBE"/>
<path d="M262.578 116.133L257.518 109.442C257.518 109.442 247.716 111.258 246.806 112.172C245.896 113.086 249.232 129.844 249.232 129.844C249.232 129.844 249.839 134.415 252.569 136.852L255.298 138.68L277.744 134.11L278.588 124.077C278.895 120.423 278.439 116.745 277.249 113.278C276.059 109.811 274.161 106.632 271.677 103.945V103.945L267.772 104.481L262.578 116.133Z" fill="#00AAC8"/>
<path d="M247.949 112.742L246.433 112.133L239.456 111.523C239.456 111.523 237.03 110.914 237.637 109.695C238.243 108.477 238.85 108.172 237.637 107.867C236.423 107.562 236.12 107.258 236.423 106.344C236.727 105.43 238.546 103.601 238.546 103.601L233.39 99.3356C233.39 99.3356 233.111 99.5339 232.66 99.9008C230.1 101.983 221.999 109.496 227.93 117.008C234.907 125.844 243.096 131.024 249.769 129.196L247.949 112.742Z" fill="#00AAC8"/>
<path d="M254.622 137.118V141.384C254.622 141.384 251.892 146.564 252.802 151.439C253.712 156.314 254.015 158.751 254.015 158.751C254.114 162.898 254.83 167.006 256.139 170.939C258.262 177.033 251.286 216.948 260.082 217.558C268.878 218.167 273.731 218.777 276.461 215.73C279.19 212.683 271.911 160.275 271.911 160.275C271.911 160.275 296.783 212.378 301.939 210.245C307.095 208.112 320.138 203.237 318.621 200.495C317.105 197.753 278.887 136.813 278.887 136.813L277.674 134.071L254.622 137.118Z" fill="#2F2E41"/>
<path d="M269.181 225.48C269.181 225.48 264.328 225.175 264.328 226.699C264.328 228.222 261.902 233.402 261.902 233.402C261.902 233.402 260.082 239.496 264.935 238.887C269.788 238.277 272.821 232.793 272.821 232.793L271.608 227.003L269.181 225.48Z" fill="#2F2E41"/>
<path d="M319.834 214.816C319.834 214.816 315.588 212.073 315.891 213.901C316.195 215.73 316.498 220.605 318.621 220.909C320.744 221.214 327.114 223.042 327.417 223.652C327.72 224.261 335 226.699 335 222.738C335 218.777 330.45 215.73 330.45 215.73L325.294 211.769C325.294 211.769 321.958 211.464 321.351 213.597C320.744 215.73 319.834 214.816 319.834 214.816Z" fill="#2F2E41"/>
<path d="M258.274 86.3078C261.055 86.3078 263.31 84.0427 263.31 81.2487C263.31 78.4546 261.055 76.1896 258.274 76.1896C255.492 76.1896 253.238 78.4546 253.238 81.2487C253.238 84.0427 255.492 86.3078 258.274 86.3078Z" fill="#2F2E41"/>
<path d="M252.707 79.9173C252.708 78.6678 253.168 77.4626 254 76.5338C254.832 75.6049 255.977 75.0182 257.214 74.8867C257.037 74.8679 256.86 74.8584 256.683 74.8582C255.348 74.8582 254.067 75.3912 253.122 76.34C252.178 77.2888 251.647 78.5756 251.647 79.9173C251.647 81.2591 252.178 82.5459 253.122 83.4946C254.067 84.4434 255.348 84.9764 256.683 84.9764C256.86 84.9762 257.037 84.9667 257.214 84.948C255.977 84.8164 254.832 84.2297 254 83.3009C253.168 82.372 252.708 81.1668 252.707 79.9173V79.9173Z" fill="#2F2E41"/>
<path d="M266.35 86.8967L259.469 83.2757L249.967 84.7571L248 93.48L252.895 93.2907L254.262 90.0862V93.238L256.52 93.1509L257.831 88.0487L258.65 93.48L266.678 93.3154L266.35 86.8967Z" fill="#2F2E41"/>
<path d="M265.938 137.824L255.326 138.112C255.326 138.112 246.271 139.882 246.779 136.211C247.287 132.539 256.121 133.823 256.121 133.823L265.791 132.341L265.938 137.824Z" fill="#FBBEBE"/>
<path d="M274.335 103.39C274.868 103.308 275.413 103.421 275.871 103.708C276.329 103.994 276.67 104.435 276.833 104.952C278.91 111.529 285.311 133.537 278.952 136.556C271.462 140.112 265.996 139.956 265.996 139.956L263.07 132.72L265.734 130.209L268.577 111.844L269.939 104.058L274.335 103.39Z" fill="#00AAC8"/>
<path opacity="0.4" d="M272.366 115.637L271.153 127.825L260.537 132.395L272.366 129.653V115.637Z" fill="black"/>
<path d="M215.114 75.401C218.533 76.3112 221.492 78.47 223.41 81.4552L224.403 82.9987L224.452 83.0625L241.858 88.1788C242.177 88.2726 242.447 88.4885 242.609 88.7799C242.771 89.0714 242.813 89.4152 242.726 89.7374L241.375 94.7146C241.331 94.8767 241.255 95.0285 241.152 95.1612C241.05 95.2939 240.922 95.4049 240.777 95.4878C240.631 95.5707 240.471 95.6239 240.305 95.6443C240.139 95.6647 239.97 95.6519 239.809 95.6067L222.399 90.7182L222.399 90.7187L220.65 91.3828C217.43 92.6056 213.899 92.7262 210.604 91.7258V91.7258L215.114 75.401Z" fill="#3F3D56"/>
<path d="M233.444 89.8355C233.609 89.2695 232.886 88.559 231.83 88.2485C230.774 87.938 229.784 88.1451 229.619 88.711C229.454 89.277 230.177 89.9875 231.233 90.298C232.289 90.6085 233.279 90.4014 233.444 89.8355Z" fill="#575A89"/>
<path d="M177.661 49.3996L177.668 49.405L212.599 76.626L208.626 89.3014C135.969 141.878 87.8949 139.615 60.817 120.618C47.1239 111.012 38.4679 96.9439 34.5656 82.7841C30.6475 68.5666 31.5997 54.5715 36.6817 45.1008C50.4751 19.3963 80.8059 1.79023 119.379 11.7384C135.342 15.8552 148.999 23.5751 159.018 33.1677C164.954 38.8923 171.177 44.3099 177.661 49.3996Z" stroke="#0A6EAA" stroke-width="5"/>
<path d="M232.555 90.3574C232.959 90.3574 233.286 90.0288 233.286 89.6233C233.286 89.2179 232.959 88.8893 232.555 88.8893C232.152 88.8893 231.824 89.2179 231.824 89.6233C231.824 90.0288 232.152 90.3574 232.555 90.3574Z" fill="#3F3D56"/>
<path d="M216.569 84.8285C218.021 80.3319 217.556 76.1523 215.532 75.4929C213.508 74.8336 210.69 77.9442 209.239 82.4408C207.787 86.9373 208.252 91.117 210.276 91.7763C212.3 92.4357 215.118 89.325 216.569 84.8285Z" fill="#3C99E2"/>
<path opacity="0.4" d="M216.028 84.6695C217.427 80.3368 217.046 76.2988 215.206 75.4204C215.317 75.4343 215.426 75.4585 215.532 75.4929C217.556 76.1523 218.021 80.3319 216.569 84.8285C215.118 89.3251 212.3 92.4357 210.276 91.7764C210.203 91.7523 210.131 91.7234 210.061 91.6899C212.052 91.9446 214.653 88.9292 216.028 84.6695Z" fill="black"/>
<path d="M193.498 72.7295H192.946V72.1744H192.838V72.7295H192.285V72.838H192.838V73.3932H192.946V72.838H193.498V72.7295Z" fill="#F2F2F2"/>
<path d="M189.555 87.0503H189.003V86.4951H188.895V87.0503H188.342V87.1587H188.895V87.7139H189.003V87.1587H189.555V87.0503Z" fill="#F2F2F2"/>
<path d="M138.599 89.4878H138.046V88.9327H137.938V89.4878H137.385V89.5963H137.938V90.1515H138.046V89.5963H138.599V89.4878Z" fill="#F2F2F2"/>
<path d="M45.2832 60.9073H44.7691V60.3905H44.6687V60.9073H44.1543V61.0079H44.6687V61.5246H44.7691V61.0079H45.2832V60.9073Z" fill="#F2F2F2"/>
<path d="M21.9651 119.429H21.4507V118.912H21.3503V119.429H20.8362V119.529H21.3503V120.046H21.4507V119.529H21.9651V119.429Z" fill="#F2F2F2"/>
<path d="M76.225 79.8164C71.6811 73.0057 69.7082 64.7787 70.664 56.6271C71.6197 48.4754 75.4409 40.9391 81.4346 35.3847C87.4283 29.8303 95.1976 26.6256 103.333 26.3518C111.469 26.078 119.433 28.7532 125.781 33.8923C132.129 39.0314 136.44 46.2941 137.932 54.3633C139.425 62.4325 138 70.7739 133.917 77.8749C129.833 84.9759 123.362 90.3662 115.675 93.0683C107.988 95.7705 99.5955 95.6055 92.019 92.6034C91.5278 94.3712 90.6096 95.9886 89.3464 97.3109C88.0833 98.6331 86.5147 99.6188 84.7811 100.18C83.0474 100.741 81.2029 100.86 79.4126 100.526C77.6223 100.192 75.942 99.4151 74.5223 98.2657C73.1026 97.1163 71.9877 95.6298 71.2774 93.9394C70.5672 92.2489 70.2837 90.4072 70.4524 88.5792C70.6211 86.7512 71.2367 84.9939 72.2441 83.4647C73.2515 81.9354 74.6193 80.6819 76.225 79.8164Z" fill="#0A6EAA"/>
<path d="M104.157 41.116C111.968 41.116 117.342 45.4701 117.342 51.7292C117.342 55.874 115.342 58.7418 111.489 61.0236C107.865 63.1378 106.636 64.6869 106.636 67.3664C106.636 67.5835 106.593 67.7986 106.511 67.9992C106.428 68.1998 106.307 68.3822 106.154 68.5357C106.001 68.6893 105.82 68.8111 105.62 68.8942C105.42 68.9773 105.206 69.0201 104.99 69.0201H100.997C100.571 69.0201 100.161 68.8537 99.8542 68.5559C99.5474 68.2582 99.3677 67.8524 99.3528 67.424L99.3457 67.2198C98.9916 62.9075 100.491 60.2281 104.261 58.0092C107.781 55.8949 109.26 54.5552 109.26 51.9594C109.26 49.3637 106.761 47.4588 103.657 47.4588C101.298 47.4588 99.4316 48.6127 98.5754 50.4967C98.2744 51.1345 97.798 51.6723 97.2026 52.0465C96.6071 52.4207 95.9174 52.6157 95.2151 52.6084C92.5095 52.6084 90.7222 49.7168 91.9875 47.3134C93.989 43.5114 98.2121 41.116 104.157 41.116ZM98.6792 76.9957C98.6792 74.5883 100.679 72.6834 103.137 72.6834C105.615 72.6834 107.615 74.5674 107.615 76.9957C107.615 79.4239 105.615 81.308 103.137 81.308C100.658 81.308 98.6792 79.424 98.6792 76.9957Z" fill="white"/>
</svg>
