<svg width="548" height="361" viewBox="0 0 548 361" fill="none" xmlns="http://www.w3.org/2000/svg">
<path d="M443.143 360.786C487.472 335.192 519.818 293.038 533.066 243.595C546.315 194.152 539.379 141.472 513.786 97.143C488.192 52.8139 446.038 20.4674 396.595 7.21926C347.152 -6.02886 294.472 0.906635 250.143 26.5L346.643 193.643L443.143 360.786Z" fill="#D2D1D1" fill-opacity="0.28"/>
<path d="M76.8331 123.248C76.6229 123.039 76.5178 122.934 76.3077 122.724C74.9415 121.466 73.1549 120.732 71.1581 120.732C70.5276 120.732 70.0021 120.837 69.3716 120.942C68.0054 121.257 66.8494 121.886 65.9035 122.829C65.7985 122.934 65.6934 123.039 65.6934 123.039L61.4897 127.232L60.4388 128.28C58.7573 129.957 56.0249 129.957 54.2383 128.28C52.5569 126.603 52.5569 123.877 54.2383 122.095L65.0628 111.508C62.3304 108.677 58.442 107 54.2383 107C45.831 107 39 113.814 39 122.2C39 126.393 40.6815 130.167 43.519 132.997C45.2004 131.32 47.9328 131.32 49.7194 132.997C50.5601 133.836 50.9805 134.989 50.9805 136.037C50.9805 136.457 51.0856 136.876 51.4009 137.086C51.7161 137.505 52.2416 137.819 52.8721 137.819C54.0282 137.819 55.0791 138.239 55.9198 139.077C56.7605 139.916 57.1809 141.069 57.1809 142.117C57.1809 143.061 58.0217 143.9 58.9675 143.9C60.1235 143.9 61.1744 144.319 62.0151 145.157C62.8559 145.996 63.2762 147.149 63.2762 148.197C63.2762 149.141 64.117 149.98 65.0628 149.98C66.2188 149.98 67.2697 150.399 68.1105 151.238C68.9512 152.076 69.3716 153.229 69.3716 154.278C69.3716 153.229 70.2123 152.495 71.1581 152.495C72.3142 152.495 73.3651 152.076 74.2058 151.238C75.0466 150.399 75.4669 149.246 75.4669 148.197C75.4669 147.149 76.3077 146.415 77.2535 146.415C78.4095 146.415 79.4604 145.996 80.3012 145.157C81.1419 144.319 81.5623 143.166 81.5623 142.117C81.5623 141.069 82.403 140.335 83.3488 140.335C84.5048 140.335 85.5557 139.916 86.3965 139.077C88.078 137.4 88.078 134.675 86.3965 132.893L76.8331 123.248Z" fill="white"/>
<path d="M54.2377 128.385C55.9191 130.062 58.6515 130.062 60.4381 128.385L61.489 127.336L65.6927 123.143C65.7978 123.038 65.9029 122.934 65.9029 122.934C66.8487 121.99 68.1098 121.361 69.3709 121.047C69.8964 120.942 70.5269 120.837 71.1575 120.837C73.1542 120.837 74.9408 121.571 76.307 122.829C76.5172 123.038 76.6223 123.143 76.8324 123.353L86.606 133.102C89.3384 130.376 91.125 126.498 91.125 122.305C91.125 113.918 84.294 107.104 75.8866 107.104C71.6829 107.104 67.8996 108.782 65.0621 111.612L54.2377 122.2C52.5562 123.877 52.5562 126.707 54.2377 128.385Z" fill="#1D3767"/>
<path d="M65.0633 150.189C64.1174 150.189 63.2767 149.351 63.2767 148.407C63.2767 147.254 62.8563 146.206 62.0156 145.367C61.1749 144.529 60.0189 144.109 58.9679 144.109C58.0221 144.109 57.1814 143.271 57.1814 142.327C57.1814 141.174 56.761 140.126 55.9203 139.287C55.0795 138.449 53.9235 138.029 52.8726 138.029C52.242 138.029 51.7166 137.715 51.4013 137.295C51.1911 136.981 50.9809 136.667 50.9809 136.247C50.9809 135.094 50.5606 134.046 49.7198 133.207C48.0384 131.53 45.306 131.53 43.5194 133.207C41.8379 134.884 41.8379 137.61 43.5194 139.392C44.3601 140.231 45.5162 140.65 46.5671 140.65C47.5129 140.65 48.3536 141.489 48.3536 142.432C48.3536 143.585 48.774 144.633 49.6147 145.472C50.4555 146.311 51.6115 146.73 52.6624 146.73C53.6082 146.73 54.449 147.569 54.449 148.512C54.449 149.665 54.8693 150.714 55.7101 151.552C56.5508 152.391 57.7068 152.81 58.7577 152.81C59.7036 152.81 60.5443 153.649 60.5443 154.592C60.5443 155.745 60.9647 156.794 61.8054 157.632C63.4869 159.309 66.2193 159.309 68.0058 157.632C68.8466 156.794 69.2669 155.64 69.2669 154.592C69.2669 153.439 68.8466 152.391 68.0058 151.552C67.2702 150.609 66.2193 150.189 65.0633 150.189Z" fill="#1D3767"/>
<path d="M129.697 135.408H114.669V147.778H109.939V118.95H130.643V123.353H114.669V131.006H129.697V135.408Z" fill="white"/>
<path d="M151.346 139.392C151.346 145.681 146.827 148.302 142.203 148.302C137.579 148.302 133.06 145.681 133.06 139.392V128.07H137.369V139.077C137.369 142.851 139.471 144.319 142.203 144.319C144.935 144.319 147.037 142.956 147.037 139.077V128.07H151.346V139.392V139.392Z" fill="white"/>
<path d="M169.944 131.949H162.378V140.545C162.378 143.166 163.744 144.214 165.53 144.214C166.897 144.214 168.368 143.585 169.524 142.851L171.205 146.31C169.629 147.359 167.632 148.302 165.11 148.302C160.591 148.302 157.964 145.891 157.964 140.65V131.949H153.97V128.07H157.964V122.095H162.272V128.07H169.839V131.949H169.944Z" fill="white"/>
<path d="M191.489 139.392C191.489 145.681 186.97 148.302 182.346 148.302C177.722 148.302 173.203 145.681 173.203 139.392V128.07H177.512V139.077C177.512 142.851 179.614 144.319 182.346 144.319C185.078 144.319 187.18 142.956 187.18 139.077V128.07H191.489V139.392Z" fill="white"/>
<path d="M209.145 128.07L208.094 132.368C207.149 131.844 205.887 131.634 204.837 131.634C202.104 131.634 200.107 133.626 200.107 136.981V147.883H195.799V128.07H200.107V130.272C201.368 128.385 203.47 127.546 205.887 127.546C207.149 127.546 208.199 127.651 209.145 128.07Z" fill="white"/>
<path d="M228.8 137.924C228.8 138.448 228.8 139.077 228.695 139.497H214.087C214.717 143.061 217.135 144.528 219.972 144.528C221.969 144.528 224.071 143.795 225.752 142.432L227.854 145.472C225.437 147.568 222.704 148.302 219.657 148.302C213.666 148.302 209.568 144.214 209.568 137.924C209.568 131.739 213.561 127.546 219.447 127.546C224.911 127.546 228.8 131.739 228.8 137.924ZM214.087 136.247H224.386C223.86 133.207 222.074 131.425 219.341 131.425C216.189 131.32 214.507 133.312 214.087 136.247Z" fill="white"/>
<path d="M251.287 136.457V147.778H246.663V118.95H257.907C264.633 118.95 268.206 122.305 268.206 127.756C268.206 133.207 264.633 136.562 257.907 136.562H251.287V136.457ZM251.287 123.248V131.949H257.697C261.481 131.949 263.267 130.586 263.267 127.546C263.267 124.611 261.481 123.143 257.697 123.143H251.287V123.248Z" fill="white"/>
<path d="M287.649 137.924C287.649 138.448 287.649 139.077 287.544 139.497H272.936C273.567 143.061 275.984 144.528 278.822 144.528C280.818 144.528 282.92 143.795 284.602 142.432L286.704 145.472C284.286 147.568 281.554 148.302 278.506 148.302C272.516 148.302 268.417 144.214 268.417 137.924C268.417 131.739 272.411 127.546 278.296 127.546C283.761 127.546 287.649 131.739 287.649 137.924ZM272.936 136.247H283.235C282.71 133.207 280.923 131.425 278.191 131.425C275.038 131.32 273.357 133.312 272.936 136.247Z" fill="white"/>
<path d="M304.989 128.07L303.938 132.368C302.992 131.844 301.731 131.634 300.68 131.634C297.947 131.634 295.951 133.626 295.951 136.981V147.883H291.642V128.07H295.951V130.272C297.212 128.385 299.314 127.546 301.731 127.546C302.992 127.546 303.938 127.651 304.989 128.07Z" fill="white"/>
<path d="M321.804 131.949H314.973V147.778H310.664V131.949H306.671V128.07H310.664V124.716C310.664 120.732 312.661 117.587 317.285 117.587C319.597 117.587 321.384 118.216 322.855 119.055L321.278 122.724C320.228 122.095 318.861 121.676 317.6 121.676C315.919 121.676 314.973 122.724 314.973 124.716V128.07H321.804V131.949Z" fill="white"/>
<path d="M341.985 137.924C341.985 138.448 341.985 139.077 341.879 139.497H327.272C327.902 143.061 330.319 144.528 333.157 144.528C335.154 144.528 337.255 143.795 338.937 142.432L341.039 145.472C338.622 147.568 335.889 148.302 332.842 148.302C326.851 148.302 322.753 144.214 322.753 137.924C322.753 131.739 326.746 127.546 332.631 127.546C338.201 127.546 341.985 131.739 341.985 137.924ZM327.272 136.247H337.571C337.045 133.207 335.259 131.425 332.526 131.425C329.479 131.32 327.692 133.312 327.272 136.247Z" fill="white"/>
<path d="M361.847 130.691L359.115 133.626C357.748 132.368 356.277 131.634 354.385 131.634C351.023 131.634 348.5 134.255 348.5 137.924C348.5 141.698 351.023 144.214 354.385 144.214C356.277 144.214 357.959 143.375 359.22 142.117L361.847 145.052C360.06 147.149 357.433 148.197 354.491 148.197C348.185 148.197 344.086 143.69 344.086 137.819C344.086 131.844 348.185 127.441 354.491 127.441C357.433 127.546 360.06 128.594 361.847 130.691Z" fill="white"/>
<path d="M379.605 131.949H372.038V140.545C372.038 143.166 373.405 144.214 375.191 144.214C376.557 144.214 378.029 143.585 379.185 142.851L380.866 146.31C379.29 147.359 377.293 148.302 374.771 148.302C370.252 148.302 367.625 145.891 367.625 140.65V131.949H363.736V128.07H367.73V122.095H372.038V128.07H379.605V131.949Z" fill="white"/>
<path fill-rule="evenodd" clip-rule="evenodd" d="M16 55C7.16344 55 0 62.1634 0 71V194C0 202.837 7.16343 210 16 210H403C411.837 210 419 202.837 419 194V71C419 62.1634 411.837 55 403 55H16ZM15.7697 64.8109C13.5605 64.8109 11.7697 66.6018 11.7697 68.8109V196.654C11.7697 198.863 13.5605 200.654 15.7697 200.654H403.23C405.439 200.654 407.23 198.863 407.23 196.654V68.8109C407.23 66.6018 405.439 64.8109 403.23 64.8109H15.7697Z" fill="#DFDFDF"/>
<rect y="1.41421" width="50.9662" height="50.9662" transform="matrix(-0.707107 0.707107 0.707107 0.707107 509.453 234.239)" stroke="#BDBCBC" stroke-width="2"/>
<rect y="1.41421" width="29.5445" height="29.5445" transform="matrix(-0.707107 0.707107 0.707107 0.707107 517.325 214.414)" stroke="#C9C8C8" stroke-width="2"/>
</svg>
