<svg width="708" height="598" viewBox="0 0 708 598" fill="none" xmlns="http://www.w3.org/2000/svg">
<path d="M701.889 389.406C675.347 324.32 624.037 272.444 559.246 245.19C494.456 217.935 421.492 217.535 356.406 244.077C291.32 270.619 239.444 321.929 212.19 386.719C184.935 451.51 184.535 524.474 211.077 589.559L456.483 489.483L701.889 389.406Z" fill="#EFEFEF"/>
<rect x="668.014" y="221" width="35.3752" height="35.3752" transform="rotate(45 668.014 221)" fill="#00AAC8" fill-opacity="0.4"/>
<line x1="467.554" y1="460.394" x2="126.554" y2="595.893" stroke="#0A6EAA" stroke-width="3"/>
<rect x="676.338" y="250.134" width="35.3752" height="35.3752" transform="rotate(45 676.338 250.134)" fill="#00AAC8" fill-opacity="0.4"/>
<path fill-rule="evenodd" clip-rule="evenodd" d="M257.657 149.781C251.113 153.725 244.684 155.631 241.665 154.853C234.097 152.902 233.402 125.216 239.257 114.302C245.113 103.387 275.216 98.6296 276.734 120.255C277.26 127.76 274.109 134.459 269.452 139.924L277.802 178.839H253.549L257.657 149.781Z" fill="#E2B183"/>
<path fill-rule="evenodd" clip-rule="evenodd" d="M253.081 101.722C256.277 101.198 264.883 100.838 266.47 100.838C267.485 100.838 268.584 101.07 269.185 100.138C269.677 99.3757 269.496 98.0858 269.643 97.2008C269.814 96.1727 270.056 95.1579 270.301 94.1456C270.998 91.2651 272.052 88.5247 273.526 85.9518C276.293 81.1246 280.347 77.3436 285.464 75.1433C291.116 72.714 297.511 72.1577 303.589 72.6505C310.094 73.1777 315.983 75.325 322.124 77.3459C327.977 79.2716 334.107 80.0295 340.229 79.0892C346.396 78.1418 351.056 74.799 356.259 71.6263C361.584 68.3782 367.67 66.2539 373.966 66.7422C379.843 67.1982 385.26 69.6248 390.119 72.8664C394.666 75.8992 398.417 79.5482 400.536 84.6838C402.814 90.2082 402.812 96.2721 399.065 101.154C393.634 108.231 383.551 110.061 375.163 109.879C370.311 109.774 365.546 108.889 360.965 107.278C354.856 105.129 349.577 101.487 343.861 98.5318C341.179 97.1452 338.407 96.0064 335.501 95.186C332.681 94.3897 329.904 94.0244 327.35 95.7279C324.649 97.53 322.229 99.3003 319.139 100.428C316.175 101.511 313.035 102.116 309.877 102.092C303.733 102.044 297.675 100.13 291.708 98.8473C286.841 97.8018 281.634 96.7597 276.673 97.7648C274.602 98.1842 271.578 99.0502 270.83 101.202C283.416 103.483 288.359 119.047 284.811 130.473C282.896 136.64 271.385 143.849 266.909 140.607C264.074 138.553 265.795 135.857 266.909 134.077C269.043 130.668 269.773 126.289 265.825 123.916C262.42 121.869 258.84 126.73 258.772 126.724C257.836 126.651 249.749 122.077 244.178 115.403C238.681 115.729 237.847 112.105 239.16 109.141C240.472 106.177 248.664 102.447 253.081 101.722Z" fill="#04314B"/>
<path fill-rule="evenodd" clip-rule="evenodd" d="M279.835 278.462L198.509 414.459L137.538 529.432H124.405L226.563 278.462L279.835 278.462Z" fill="#E2B183"/>
<path fill-rule="evenodd" clip-rule="evenodd" d="M142.721 522.818C143.791 522.342 145.065 522.818 145.467 523.917C146.27 526.111 147.404 529.55 147.404 531.463C147.404 534.424 146.418 540.105 146.418 540.105C142.983 540.105 84.6879 540.105 84.6879 540.105C84.6879 540.105 82.2817 532.148 87.4659 531.514C92.6501 530.88 96.0792 530.368 96.0792 530.368L124.859 517.535C125.374 517.305 125.976 517.546 126.191 518.067L128.072 522.632C128.072 522.632 132.872 524.872 135.872 524.872C137.758 524.872 140.754 523.693 142.721 522.818Z" fill="#676767"/>
<path fill-rule="evenodd" clip-rule="evenodd" d="M154.471 511.021L129.145 503.358C129.145 503.358 145.789 453.589 169.944 393.82C194.099 334.051 221.828 278.462 221.828 278.462H293.358C293.358 278.462 262.53 348.779 227.994 406.246C193.458 463.713 154.471 511.021 154.471 511.021Z" fill="#022C5A"/>
<path fill-rule="evenodd" clip-rule="evenodd" d="M285.179 278.462C292.855 326.252 307.659 387.31 309.056 389.194C309.988 390.45 343.519 401.689 409.649 422.91L406.813 434.493C327.952 423.112 286.399 414.282 282.154 408.004C275.786 398.586 243.992 324.182 231.678 278.462H285.179Z" fill="#E2B183"/>
<path fill-rule="evenodd" clip-rule="evenodd" d="M386.403 412.897L381.407 431.553C322.423 436.727 286.283 432.989 272.986 420.336C259.688 407.684 244.533 360.393 227.52 278.462H295.728C306.507 345.552 312.533 380.505 313.807 383.322C315.08 386.138 339.279 395.997 386.403 412.897Z" fill="#003269"/>
<path fill-rule="evenodd" clip-rule="evenodd" d="M404.63 420.66C404.347 419.524 405.037 418.353 406.189 418.147C408.489 417.738 412.071 417.217 413.955 417.549C416.871 418.064 422.293 420.022 422.293 420.022C421.696 423.405 411.573 480.829 411.573 480.829C411.573 480.829 403.322 481.818 403.597 476.601C403.873 471.384 403.965 467.917 403.965 467.917L396.327 437.338C396.19 436.792 396.532 436.24 397.082 436.119L401.903 435.059C401.903 435.059 404.942 430.72 405.463 427.765C405.79 425.907 405.151 422.75 404.63 420.66Z" fill="#676767"/>
<path fill-rule="evenodd" clip-rule="evenodd" d="M140.88 174.126L153.762 215.485L171.297 204.706L151.982 172.646C150.93 157.597 149.371 150.498 147.307 151.348C145.566 152.065 145.285 153.731 145.026 155.266C144.825 156.461 144.637 157.577 143.782 158.102C141.831 159.301 136.678 155.223 131.953 151.144C127.228 147.065 127.044 150.371 127.44 152.363C130.296 159.195 134.776 166.449 140.88 174.126ZM337.406 335.288C334.198 328.78 323.276 265.347 323.276 265.347L300.405 265.437C300.405 265.437 321.588 333.837 323.276 338.022C325.469 343.459 321.744 351.358 319.218 356.714C318.827 357.543 318.465 358.311 318.158 358.999C321.663 360.568 323.347 358.672 325.122 356.673C327.127 354.414 329.248 352.025 334.243 354.349C336.172 355.247 337.998 356.309 339.782 357.346C345.944 360.928 351.604 364.22 359.305 359.467C360.526 358.714 361.863 355.877 358.631 353.66C350.578 348.137 338.974 338.47 337.406 335.288Z" fill="#E2B183"/>
<path fill-rule="evenodd" clip-rule="evenodd" d="M268.116 192.671C268.116 192.671 233.989 240.431 214.199 233.45C194.408 226.468 165.788 180.651 165.788 180.651C165.788 180.651 141.151 192.573 135.335 201.356C187.197 317.883 270.717 287.364 288.012 208.441L268.116 192.671Z" fill="#00AAC8"/>
<path fill-rule="evenodd" clip-rule="evenodd" d="M258.279 169.352L248.815 167.728C232.521 208.442 204.074 245.435 163.473 278.709L194.153 315.992C234.749 268.615 259.773 219.735 258.279 169.352Z" fill="#00AAC8"/>
<path fill-rule="evenodd" clip-rule="evenodd" d="M299.535 288.315H215.261C215.261 288.315 244.547 217.089 244.547 167.303L269.969 163.515C289.948 195.655 295.59 235.225 299.535 288.315Z" fill="#DDE3E9"/>
<path fill-rule="evenodd" clip-rule="evenodd" d="M270.507 163.533L270.527 163.515C270.527 163.515 328.625 220.437 337.841 324.442H296.765C297.099 319.86 297.307 315.335 297.401 310.873H242.238C242.238 310.873 252.647 213.556 253.622 181.443L259.765 163.884C259.765 163.884 265.859 163.617 268.838 163.515H270.497C270.5 163.521 270.504 163.527 270.507 163.533Z" fill="#00AAC8"/>
<path fill-rule="evenodd" clip-rule="evenodd" d="M297.391 311.305C297.832 291.873 296.108 273.628 293.233 257.117C291.729 276.709 288.587 300.284 282.023 311.305H297.391Z" fill="black" fill-opacity="0.1"/>
<path fill-rule="evenodd" clip-rule="evenodd" d="M285.185 277.368L257.945 264.701V277.368H285.185Z" fill="white" fill-opacity="0.2"/>
<mask id="path-20-inside-1" fill="white">
</mask>
<path d="M100.929 134.077C101.268 134.512 101.191 135.141 100.755 135.48C100.32 135.82 99.6912 135.742 99.3516 135.307L100.929 134.077ZM98.2863 121.226L97.3276 120.942L97.3276 120.942L98.2863 121.226ZM124.249 100.98L124.207 99.9804L124.207 99.9804L124.249 100.98ZM137.645 105.443C137.985 105.879 137.907 106.507 137.472 106.847C137.036 107.187 136.408 107.109 136.068 106.673L137.645 105.443ZM99.3516 135.307C96.3968 131.518 95.7331 126.32 97.3276 120.942L99.2451 121.511C97.7893 126.421 98.4593 130.91 100.929 134.077L99.3516 135.307ZM97.3276 120.942C98.9205 115.569 102.65 110.379 107.658 106.474L108.887 108.051C104.157 111.74 100.702 116.596 99.2451 121.511L97.3276 120.942ZM107.658 106.474C112.665 102.569 118.608 100.216 124.207 99.9804L124.291 101.979C119.169 102.194 113.618 104.362 108.887 108.051L107.658 106.474ZM124.207 99.9804C129.811 99.7444 134.69 101.655 137.645 105.443L136.068 106.673C133.599 103.507 129.408 101.763 124.291 101.979L124.207 99.9804Z" fill="#0A6EAA" mask="url(#path-20-inside-1)"/>
<mask id="path-22-inside-2" fill="white">
</mask>
<path d="M68.1847 132.409C68.4714 132.882 68.3211 133.497 67.8491 133.783C67.377 134.07 66.7619 133.92 66.4753 133.448L68.1847 132.409ZM126.444 68.6011L126.509 67.6032L126.509 67.6032L126.444 68.6011ZM152.217 81.375C152.504 81.8471 152.354 82.4622 151.882 82.7489C151.41 83.0355 150.795 82.8853 150.508 82.4132L152.217 81.375ZM66.4753 133.448C61.535 125.313 61.4776 114.798 66.1091 104.285L67.9394 105.091C63.5016 115.164 63.6641 124.966 68.1847 132.409L66.4753 133.448ZM66.1091 104.285C70.739 93.7755 79.7013 84.0444 90.9911 77.1879L92.0293 78.8973C81.0323 85.576 72.3788 95.0141 67.9394 105.091L66.1091 104.285ZM90.9911 77.1879C102.281 70.3314 115.048 66.8657 126.509 67.6032L126.38 69.5991C115.391 68.8919 103.026 72.2187 92.0293 78.8973L90.9911 77.1879ZM126.509 67.6032C137.973 68.3409 147.277 73.2404 152.217 81.375L150.508 82.4132C145.987 74.9697 137.365 70.3059 126.38 69.5991L126.509 67.6032Z" fill="#0A6EAA" mask="url(#path-22-inside-2)"/>
<mask id="path-24-inside-3" fill="white">
</mask>
<path d="M29.5423 122.35C29.8236 122.825 29.6663 123.439 29.191 123.72C28.7157 124.001 28.1024 123.844 27.8211 123.369L29.5423 122.35ZM28.5658 79.8822L29.4777 80.2926L28.5658 79.8822ZM119.103 26.3021L119.024 27.2989L119.024 27.2989L119.103 26.3021ZM157.581 46.5762C157.863 47.0515 157.705 47.6649 157.23 47.9461C156.755 48.2274 156.141 48.0701 155.86 47.5948L157.581 46.5762ZM27.8211 123.369C20.5405 111.066 20.5525 95.2525 27.6539 79.4718L29.4777 80.2926C22.5746 95.6326 22.6701 110.738 29.5423 122.35L27.8211 123.369ZM27.6539 79.4718C34.7533 63.6953 48.3824 49.1626 65.5102 39.0263L66.5288 40.7475C49.6986 50.7077 36.3826 64.9484 29.4777 80.2926L27.6539 79.4718ZM65.5102 39.0263C82.638 28.89 101.936 23.9364 119.182 25.3052L119.024 27.2989C102.25 25.9677 83.3591 30.7873 66.5288 40.7475L65.5102 39.0263ZM119.182 25.3052C136.433 26.6743 150.301 34.2738 157.581 46.5762L155.86 47.5948C148.988 35.9824 135.793 28.6298 119.024 27.2989L119.182 25.3052Z" fill="#0A6EAA" mask="url(#path-24-inside-3)"/>
<path d="M119.082 132.19L130.642 123.947C131.565 123.29 132.847 123.504 133.505 124.426L152.732 151.349C153.39 152.271 153.176 153.551 152.254 154.209L140.693 162.451C139.771 163.109 138.489 162.895 137.831 161.973L118.604 135.05C117.945 134.128 118.159 132.847 119.082 132.19Z" fill="#3A3768"/>
<path opacity="0.1" d="M119.082 132.19L130.642 123.947C131.565 123.29 132.847 123.504 133.505 124.426L152.732 151.349C153.39 152.271 153.176 153.551 152.254 154.209L140.693 162.451C139.771 163.109 138.489 162.895 137.831 161.973L118.604 135.05C117.945 134.128 118.159 132.847 119.082 132.19Z" fill="black"/>
<path d="M119.837 130.673L131.398 122.431C132.32 121.773 133.602 121.987 134.26 122.909L153.487 149.833C154.146 150.754 153.932 152.035 153.009 152.693L141.449 160.935C140.526 161.593 139.244 161.379 138.586 160.457L119.359 133.533C118.701 132.611 118.915 131.331 119.837 130.673Z" fill="#3A3768"/>
<path d="M120.881 131.163L122.583 129.942L122.729 130.146C122.911 130.395 123.182 130.564 123.486 130.617C123.79 130.67 124.102 130.603 124.358 130.43L129.798 126.549C130.056 126.365 130.23 126.085 130.282 125.773C130.333 125.46 130.259 125.139 130.074 124.881L129.928 124.678L131.557 123.539C131.711 123.427 131.887 123.347 132.073 123.304C132.259 123.26 132.451 123.254 132.64 123.285C132.828 123.315 133.009 123.383 133.171 123.484C133.333 123.585 133.473 123.717 133.584 123.872L152.379 150.194C152.602 150.507 152.692 150.896 152.63 151.276C152.567 151.655 152.357 151.995 152.045 152.22L141.345 159.844C141.189 159.955 141.013 160.034 140.827 160.077C140.641 160.12 140.448 160.126 140.26 160.094C140.071 160.063 139.891 159.994 139.729 159.892C139.567 159.791 139.427 159.658 139.317 159.502L120.522 133.189C120.412 133.032 120.334 132.856 120.292 132.669C120.25 132.483 120.246 132.289 120.279 132.101C120.312 131.913 120.383 131.733 120.486 131.572C120.589 131.411 120.723 131.272 120.881 131.163V131.163Z" fill="#06D0F3"/>
<path fill-rule="evenodd" clip-rule="evenodd" d="M579.453 194.447C572.554 196.431 566.253 196.594 563.702 195.154C557.304 191.545 563.397 166.277 571.365 157.808C579.334 149.338 607.822 152.349 603.947 172.322C602.602 179.254 598.113 184.56 592.558 188.381L590.686 225.69L568.666 219.79L579.453 194.447Z" fill="#E2B183"/>
<path fill-rule="evenodd" clip-rule="evenodd" d="M579.887 161.08C582.87 163.7 584.386 167.643 586.121 172.781C586.879 172.712 587.669 172.774 588.455 172.985C591.822 173.887 593.867 177.173 593.023 180.324C592.594 181.923 591.504 183.181 590.093 183.913C591.004 186.154 592.064 188.524 593.337 191.018C601.166 189.021 609.214 179.188 605.439 166.66C605.011 160.904 601.601 156.977 597.033 154.354C593.468 151.727 589.38 150.443 585.64 150.443C578.65 149.159 572.017 149.474 569.975 150.17C568.351 156.231 569.124 158.366 579.887 161.08V161.08Z" fill="#A37F00"/>
<path d="M577.266 189.41L563.917 195.283C558.084 190.861 557.567 186.357 562.463 177.636L574.713 178.396C572.732 187.632 572.907 182.263 577.266 189.41Z" fill="#949494"/>
<path d="M587.195 172.147C587.168 172.171 587.14 172.191 587.11 172.21L569.274 183.164C569.192 183.215 569.097 183.247 568.995 183.258C568.893 183.269 568.787 183.259 568.682 183.228C568.576 183.197 568.474 183.147 568.382 183.079C568.289 183.012 568.207 182.928 568.141 182.834C568.075 182.74 568.026 182.636 567.997 182.53C567.968 182.423 567.958 182.315 567.97 182.213C567.982 182.11 568.015 182.014 568.066 181.931C568.117 181.848 568.186 181.779 568.269 181.728L586.104 170.774C586.264 170.676 586.465 170.65 586.669 170.702C586.872 170.754 587.062 170.88 587.2 171.054C587.338 171.228 587.415 171.437 587.414 171.64C587.413 171.843 587.334 172.024 587.195 172.147V172.147Z" fill="#949494"/>
<path d="M574.896 189.66C574.604 189.615 574.321 189.548 574.075 189.467C573.829 189.386 573.627 189.293 573.492 189.198C573.356 189.103 573.29 189.008 573.3 188.924C573.311 188.84 573.398 188.769 573.552 188.718L590.247 183.207C590.362 183.169 590.513 183.143 590.691 183.13C590.87 183.118 591.072 183.12 591.286 183.136C591.499 183.152 591.721 183.181 591.938 183.223C592.154 183.264 592.362 183.317 592.548 183.377C592.735 183.438 592.897 183.506 593.024 183.577C593.152 183.647 593.243 183.72 593.293 183.79C593.342 183.86 593.349 183.926 593.313 183.984C593.276 184.043 593.197 184.092 593.081 184.13L576.387 189.642C576.231 189.694 576.01 189.722 575.748 189.726C575.486 189.729 575.192 189.706 574.896 189.66V189.66Z" fill="#949494"/>
<path fill-rule="evenodd" clip-rule="evenodd" d="M580.156 301.695L533.534 419.508L502.265 519.109H489.918L537.721 301.695L580.156 301.695Z" fill="#E2B183"/>
<path fill-rule="evenodd" clip-rule="evenodd" d="M589.544 301.695C590.04 343.095 597.281 398.834 598.437 401.415C599.594 403.995 678.301 467.05 678.301 467.05L669.797 476.137C669.797 476.137 576.93 422.075 572.632 414.864C568.335 407.654 554.344 341.302 543.111 301.695H589.544Z" fill="#E2B183"/>
<path fill-rule="evenodd" clip-rule="evenodd" d="M676.902 465.457C677.233 464.335 678.418 463.665 679.518 464.068C681.419 464.765 684.129 465.869 685.341 466.885C687.31 468.534 690.535 472.352 690.535 472.352C688.619 474.632 656.098 513.328 656.098 513.328C656.098 513.328 649.467 510.494 651.938 506.699C654.408 502.905 655.981 500.344 655.981 500.344L663.469 474.225C663.624 473.684 664.196 473.377 664.734 473.548L668.687 474.799C668.687 474.799 672.853 472.861 674.527 470.869C675.526 469.681 676.377 467.236 676.902 465.457Z" fill="#003269"/>
<path fill-rule="evenodd" clip-rule="evenodd" d="M504.59 513.494C505.662 513.026 506.935 513.502 507.332 514.602C508.02 516.505 508.915 519.288 508.915 520.868C508.915 523.434 508.059 528.355 508.059 528.355C505.078 528.355 454.484 528.355 454.484 528.355C454.484 528.355 452.396 521.462 456.895 520.913C461.395 520.363 464.371 519.92 464.371 519.92L489.225 508.857C489.74 508.628 490.342 508.869 490.556 509.389L492.137 513.218C492.137 513.218 496.302 515.158 498.907 515.158C500.462 515.158 502.887 514.237 504.59 513.494Z" fill="#003269"/>
<path fill-rule="evenodd" clip-rule="evenodd" d="M548.81 508.85L490.103 502.489L533.612 301.695H586.193L548.81 508.85Z" fill="#009BB6"/>
<path fill-rule="evenodd" clip-rule="evenodd" d="M666.158 452.391L627.65 497.899C627.65 497.899 566.81 431.557 556.711 411.323C546.611 391.088 538.552 301.695 538.552 301.695H597.75C597.75 301.695 602.151 380.339 603.684 383.999C605.216 387.659 666.158 452.391 666.158 452.391Z" fill="#00AAC8"/>
<path fill-rule="evenodd" clip-rule="evenodd" d="M473.695 296.793L507.392 280.178L511.117 297.621L479.412 304.644C469.327 312.972 463.933 316.234 463.231 314.43C462.64 312.909 463.518 311.738 464.328 310.659C464.958 309.819 465.547 309.034 465.365 308.184C464.951 306.243 459.303 305.444 453.912 304.915C448.521 304.385 450.487 302.296 451.976 301.355C457.978 299.067 465.218 297.547 473.695 296.793ZM623.381 362.933C621.619 356.897 621.826 301.134 621.826 301.134L602.264 297.764C602.264 297.764 610.08 359.311 610.893 363.136C611.95 368.105 607.577 374.283 604.612 378.471C604.154 379.119 603.729 379.72 603.363 380.261C606.123 382.128 607.847 380.764 609.665 379.325C611.718 377.701 613.891 375.982 617.81 378.718C619.324 379.775 620.725 380.956 622.094 382.109C626.821 386.094 631.164 389.755 638.461 386.861C639.618 386.402 641.188 384.184 638.759 381.805C632.707 375.88 624.242 365.884 623.381 362.933Z" fill="#E2B183"/>
<path fill-rule="evenodd" clip-rule="evenodd" d="M580.713 209.442L572.868 206.63C538.292 227.223 517.196 274.778 475.764 294.635L482.686 307.154C547.897 310.518 574.41 252.65 580.713 209.442Z" fill="#003269"/>
<path fill-rule="evenodd" clip-rule="evenodd" d="M598.079 317.151C598.079 317.151 549.428 308.573 526.506 304.531C523.236 303.954 524.684 299.348 525.576 297.052C535.874 270.555 562.393 244.712 569.285 205.625L590.499 206.033C602.741 236.463 602.693 271.264 598.079 317.151Z" fill="#DDE3E9"/>
<path fill-rule="evenodd" clip-rule="evenodd" d="M602.668 338.183C604.525 346.464 606.492 353.75 608.553 359.444L623.903 362.15C634.955 309.13 621.972 264.544 609.415 236.826C613.219 237.22 616.886 236.249 619.71 232.765C629.653 220.502 628.247 212.537 620.617 208.655C616.421 206.52 612.088 206.708 606.901 206.933C602.656 207.117 597.84 207.326 592.06 206.308C592.058 206.307 592.056 206.307 592.054 206.307C591.494 206.208 590.977 206.156 590.502 206.146L583.583 205.328C583.583 205.328 539.173 294.54 546.097 328.208L602.668 338.183Z" fill="#003269"/>
<path fill-rule="evenodd" clip-rule="evenodd" d="M602.668 338.183C600.232 327.319 597.987 314.743 595.973 301.809C592.054 314.971 587.093 328.009 581.524 334.455L602.668 338.183Z" fill="black" fill-opacity="0.1"/>
</svg>
