<svg width="860" height="579" viewBox="0 0 860 579" fill="none" xmlns="http://www.w3.org/2000/svg">
<path opacity="0.2" d="M518 55.1947C550.035 25.0833 591.184 6.13938 635.161 1.25565C679.139 -3.62808 723.529 5.81683 761.553 28.1481C683.492 55.7053 597.359 56.7184 518 55.1947Z" fill="white"/>
<path opacity="0.1" d="M113.109 511.411L191.813 375.204C192.032 374.821 192.348 374.503 192.73 374.281C193.112 374.06 193.546 373.943 193.987 373.943C194.428 373.943 194.862 374.06 195.244 374.281C195.625 374.503 195.942 374.821 196.161 375.204L274.864 511.411C275.094 511.793 275.217 512.228 275.222 512.673C275.227 513.118 275.113 513.556 274.892 513.943C274.671 514.329 274.35 514.649 273.964 514.871C273.578 515.092 273.139 515.207 272.694 515.202H249.217C248.551 515.204 247.913 515.469 247.443 515.94C246.972 516.41 246.707 517.047 246.705 517.712V546.781C246.705 547.445 246.441 548.082 245.972 548.552C245.503 549.023 244.866 549.288 244.201 549.29H213.568C212.902 549.29 212.263 549.026 211.792 548.555C211.321 548.085 211.056 547.446 211.056 546.781V532.731C211.056 532.068 210.792 531.432 210.323 530.962C209.853 530.493 209.216 530.229 208.552 530.229H179.429C178.764 530.229 178.127 530.493 177.656 530.962C177.185 531.431 176.92 532.067 176.918 532.731V546.781C176.918 547.446 176.653 548.085 176.182 548.555C175.711 549.026 175.072 549.29 174.406 549.29H143.781C143.114 549.29 142.475 549.026 142.004 548.555C141.533 548.085 141.269 547.446 141.269 546.781V517.682C141.269 517.016 141.004 516.378 140.533 515.907C140.062 515.436 139.423 515.172 138.757 515.172H115.28C114.84 515.171 114.408 515.054 114.027 514.834C113.647 514.613 113.331 514.297 113.111 513.916C112.891 513.535 112.775 513.103 112.775 512.664C112.775 512.224 112.89 511.792 113.109 511.411ZM222.863 526.484C223.094 526.722 223.37 526.911 223.675 527.041C223.98 527.171 224.307 527.24 224.639 527.242H235.664C236.331 527.242 236.969 526.978 237.44 526.507C237.911 526.037 238.176 525.398 238.176 524.733C238.176 524.067 237.911 523.429 237.44 522.958C236.969 522.487 236.331 522.223 235.664 522.223H224.616C224.12 522.223 223.634 522.37 223.221 522.646C222.808 522.922 222.486 523.314 222.296 523.772C222.106 524.231 222.057 524.735 222.154 525.222C222.25 525.709 222.489 526.156 222.841 526.507L222.863 526.484ZM150.564 526.484C150.795 526.722 151.071 526.911 151.376 527.041C151.681 527.171 152.008 527.24 152.34 527.242H163.358C164.024 527.242 164.663 526.978 165.134 526.507C165.605 526.037 165.869 525.398 165.869 524.733C165.869 524.067 165.605 523.429 165.134 522.958C164.663 522.487 164.024 522.223 163.358 522.223H152.294C151.798 522.223 151.312 522.37 150.899 522.646C150.486 522.922 150.165 523.314 149.975 523.772C149.785 524.231 149.735 524.735 149.832 525.222C149.928 525.709 150.168 526.156 150.519 526.507L150.564 526.484Z" fill="#70DDFF"/>
<path opacity="0.1" d="M572.079 514.134L650.782 377.926C651.003 377.545 651.32 377.229 651.701 377.009C652.083 376.789 652.516 376.674 652.956 376.674C653.397 376.674 653.829 376.789 654.211 377.009C654.593 377.229 654.91 377.545 655.13 377.926L723.112 495.574C714.619 506.268 705.09 516.099 694.664 524.923H683.585C682.919 524.923 682.28 525.187 681.809 525.658C681.338 526.129 681.074 526.767 681.074 527.433C681.074 528.098 681.338 528.736 681.809 529.207C682.28 529.678 682.919 529.942 683.585 529.942H688.26C682.535 534.244 676.441 538.032 670.048 541.262V535.462C670.048 534.796 669.784 534.158 669.313 533.687C668.842 533.217 668.203 532.952 667.537 532.952H638.414C637.749 532.954 637.112 533.219 636.643 533.69C636.173 534.16 635.91 534.797 635.91 535.462V549.503C635.911 549.868 635.831 550.228 635.674 550.557C635.473 550.991 635.152 551.359 634.749 551.617C634.346 551.875 633.877 552.012 633.398 552.013H602.765C602.376 552.014 601.993 551.924 601.646 551.749C601.299 551.573 600.998 551.318 600.769 551.005C600.432 550.572 600.253 550.037 600.261 549.488V520.412C600.261 519.746 599.996 519.108 599.525 518.637C599.054 518.167 598.415 517.902 597.749 517.902H574.272C573.829 517.906 573.393 517.792 573.008 517.573C572.623 517.354 572.303 517.037 572.081 516.654C571.858 516.272 571.74 515.837 571.74 515.394C571.74 514.952 571.857 514.517 572.079 514.134ZM624.095 525.658C623.864 525.421 623.588 525.232 623.283 525.101C622.979 524.971 622.651 524.903 622.319 524.9H611.271C610.605 524.9 609.966 525.165 609.495 525.635C609.024 526.106 608.76 526.744 608.76 527.41C608.76 528.075 609.024 528.714 609.495 529.184C609.966 529.655 610.605 529.919 611.271 529.919H622.327C622.824 529.919 623.309 529.772 623.722 529.496C624.135 529.22 624.457 528.829 624.647 528.37C624.837 527.912 624.886 527.407 624.79 526.92C624.693 526.434 624.454 525.987 624.103 525.636L624.095 525.658ZM673.531 475.254C674.197 475.254 674.836 474.99 675.307 474.519C675.778 474.049 676.043 473.41 676.043 472.745V453.684C676.043 453.019 675.778 452.38 675.307 451.91C674.836 451.439 674.197 451.175 673.531 451.175H632.366C631.701 451.177 631.064 451.442 630.595 451.912C630.126 452.383 629.862 453.02 629.862 453.684V472.745C629.862 473.409 630.126 474.046 630.595 474.517C631.064 474.987 631.701 475.252 632.366 475.254H673.531Z" fill="#70DDFF"/>
<path opacity="0.2" d="M288.478 267.928H385.871V246.881C385.871 245.546 386.402 244.266 387.347 243.321C388.292 242.377 389.574 241.847 390.91 241.847H419.509V219.427C419.509 218.587 419.843 217.781 420.438 217.187C421.033 216.592 421.84 216.258 422.681 216.258H459.521C460.362 216.258 461.169 216.592 461.764 217.187C462.359 217.781 462.693 218.587 462.693 219.427V241.839H496.316C497.652 241.839 498.933 242.37 499.878 243.314C500.823 244.258 501.354 245.539 501.354 246.874V267.921H594.224C594.495 267.923 594.753 268.032 594.944 268.223C595.134 268.415 595.241 268.674 595.241 268.944V548.358C595.241 548.628 595.134 548.887 594.944 549.079C594.753 549.27 594.495 549.379 594.224 549.381H532.503C532.231 549.381 531.971 549.273 531.779 549.081C531.587 548.889 531.479 548.629 531.479 548.358V510.767C531.477 510.496 531.368 510.237 531.177 510.045C530.985 509.854 530.725 509.745 530.454 509.743H504.382C504.111 509.745 503.851 509.854 503.66 510.045C503.468 510.237 503.359 510.496 503.357 510.767V548.358C503.357 548.628 503.25 548.887 503.06 549.079C502.87 549.27 502.611 549.379 502.341 549.381H380.362C380.091 549.379 379.832 549.271 379.64 549.079C379.449 548.888 379.34 548.628 379.338 548.358V510.767C379.338 510.497 379.231 510.237 379.041 510.046C378.85 509.854 378.592 509.745 378.321 509.743H352.249C351.977 509.743 351.716 509.851 351.524 510.043C351.332 510.235 351.224 510.495 351.224 510.767V548.358C351.222 548.628 351.114 548.888 350.922 549.079C350.73 549.271 350.471 549.379 350.2 549.381H288.478C288.207 549.379 287.948 549.271 287.756 549.079C287.565 548.888 287.456 548.628 287.454 548.358V268.952C287.456 268.681 287.565 268.422 287.756 268.23C287.948 268.039 288.207 267.93 288.478 267.928ZM542.527 496.687C542.527 496.957 542.634 497.215 542.825 497.406C543.015 497.596 543.274 497.703 543.544 497.703H581.666C581.8 497.704 581.933 497.679 582.058 497.628C582.182 497.578 582.295 497.503 582.39 497.408C582.485 497.314 582.561 497.202 582.612 497.078C582.664 496.954 582.691 496.821 582.691 496.687V483.7C582.691 483.428 582.583 483.168 582.391 482.976C582.198 482.784 581.938 482.676 581.666 482.676H543.544C543.273 482.678 543.015 482.787 542.824 482.979C542.634 483.17 542.527 483.43 542.527 483.7V496.687ZM542.527 463.07C542.526 463.204 542.552 463.337 542.602 463.461C542.653 463.585 542.728 463.698 542.822 463.793C542.917 463.888 543.029 463.964 543.153 464.015C543.277 464.067 543.41 464.093 543.544 464.093H581.666C581.801 464.094 581.935 464.068 582.059 464.017C582.184 463.966 582.298 463.891 582.393 463.796C582.488 463.7 582.564 463.587 582.615 463.462C582.666 463.338 582.692 463.204 582.691 463.07V450.067C582.692 449.932 582.666 449.798 582.615 449.674C582.564 449.549 582.488 449.436 582.393 449.341C582.298 449.245 582.184 449.17 582.059 449.119C581.935 449.068 581.801 449.042 581.666 449.043H543.544C543.41 449.043 543.277 449.07 543.153 449.121C543.029 449.173 542.917 449.248 542.822 449.343C542.728 449.439 542.653 449.551 542.602 449.676C542.552 449.8 542.526 449.933 542.527 450.067V463.07ZM542.527 429.459C542.527 429.729 542.634 429.989 542.824 430.18C543.015 430.372 543.273 430.481 543.544 430.483H581.666C581.801 430.483 581.934 430.456 582.058 430.405C582.183 430.353 582.295 430.278 582.391 430.183C582.486 430.088 582.561 429.975 582.613 429.851C582.664 429.727 582.691 429.594 582.691 429.459V416.449C582.691 416.177 582.583 415.917 582.391 415.725C582.198 415.533 581.938 415.425 581.666 415.425H543.544C543.273 415.427 543.015 415.536 542.824 415.728C542.634 415.92 542.527 416.179 542.527 416.449V429.459ZM542.527 395.841C542.526 395.976 542.552 396.108 542.602 396.233C542.653 396.357 542.728 396.47 542.822 396.565C542.917 396.66 543.029 396.735 543.153 396.787C543.277 396.839 543.41 396.865 543.544 396.865H581.666C581.801 396.866 581.935 396.84 582.059 396.789C582.184 396.738 582.298 396.663 582.393 396.567C582.488 396.472 582.564 396.359 582.615 396.234C582.666 396.11 582.692 395.976 582.691 395.841V382.861C582.692 382.727 582.666 382.593 582.615 382.469C582.564 382.344 582.488 382.231 582.393 382.135C582.298 382.04 582.184 381.965 582.059 381.914C581.935 381.863 581.801 381.837 581.666 381.838H543.544C543.41 381.838 543.277 381.864 543.153 381.916C543.029 381.967 542.917 382.043 542.822 382.138C542.728 382.233 542.653 382.346 542.602 382.47C542.552 382.594 542.526 382.727 542.527 382.861V395.841ZM542.527 362.231C542.527 362.501 542.634 362.761 542.824 362.952C543.015 363.144 543.273 363.253 543.544 363.255H581.666C581.938 363.255 582.198 363.147 582.391 362.955C582.583 362.763 582.691 362.503 582.691 362.231V349.221C582.691 349.087 582.664 348.954 582.612 348.83C582.561 348.706 582.485 348.594 582.39 348.5C582.295 348.405 582.182 348.331 582.058 348.28C581.933 348.229 581.8 348.204 581.666 348.205H543.544C543.274 348.205 543.015 348.312 542.825 348.502C542.634 348.693 542.527 348.951 542.527 349.221V362.231ZM542.527 328.621C542.527 328.89 542.634 329.149 542.825 329.339C543.015 329.53 543.274 329.637 543.544 329.637H581.666C581.8 329.638 581.933 329.612 582.058 329.562C582.182 329.511 582.295 329.437 582.39 329.342C582.485 329.248 582.561 329.135 582.612 329.012C582.664 328.888 582.691 328.755 582.691 328.621V315.611C582.691 315.339 582.583 315.079 582.391 314.887C582.198 314.695 581.938 314.587 581.666 314.587H543.544C543.273 314.589 543.015 314.698 542.824 314.889C542.634 315.081 542.527 315.34 542.527 315.611V328.621ZM542.527 295.003C542.526 295.137 542.552 295.27 542.602 295.394C542.653 295.518 542.728 295.631 542.822 295.726C542.917 295.822 543.029 295.897 543.153 295.949C543.277 296 543.41 296.027 543.544 296.027H581.666C581.801 296.028 581.935 296.002 582.059 295.951C582.184 295.9 582.298 295.824 582.393 295.729C582.488 295.634 582.564 295.521 582.615 295.396C582.666 295.271 582.692 295.138 582.691 295.003V282.023C582.692 281.888 582.666 281.755 582.615 281.63C582.564 281.506 582.488 281.392 582.393 281.297C582.298 281.202 582.184 281.126 582.059 281.075C581.935 281.024 581.801 280.999 581.666 281H543.544C543.41 281 543.277 281.026 543.153 281.078C543.029 281.129 542.917 281.205 542.822 281.3C542.728 281.395 542.653 281.508 542.602 281.632C542.552 281.756 542.526 281.889 542.527 282.023V295.003ZM452.145 496.68C452.145 496.814 452.172 496.947 452.224 497.07C452.275 497.194 452.351 497.306 452.446 497.401C452.541 497.495 452.654 497.57 452.778 497.621C452.903 497.671 453.036 497.697 453.17 497.696H491.292C491.563 497.696 491.822 497.589 492.014 497.399C492.206 497.208 492.315 496.95 492.317 496.68V483.7C492.315 483.429 492.206 483.17 492.015 482.978C491.823 482.787 491.563 482.678 491.292 482.676H453.17C452.898 482.676 452.638 482.784 452.446 482.976C452.253 483.168 452.145 483.428 452.145 483.7V496.68ZM452.145 463.062C452.144 463.197 452.17 463.33 452.221 463.455C452.273 463.58 452.348 463.693 452.443 463.788C452.539 463.883 452.652 463.959 452.777 464.01C452.901 464.061 453.035 464.087 453.17 464.086H491.292C491.427 464.086 491.56 464.059 491.684 464.008C491.809 463.956 491.922 463.881 492.017 463.786C492.112 463.691 492.187 463.578 492.239 463.454C492.29 463.329 492.317 463.196 492.317 463.062V450.067C492.317 449.932 492.29 449.799 492.239 449.675C492.187 449.551 492.112 449.438 492.017 449.343C491.922 449.248 491.809 449.173 491.684 449.121C491.56 449.07 491.427 449.043 491.292 449.043H453.17C453.035 449.042 452.901 449.068 452.777 449.119C452.652 449.17 452.539 449.245 452.443 449.341C452.348 449.436 452.273 449.549 452.221 449.674C452.17 449.798 452.144 449.932 452.145 450.067V463.062ZM452.145 429.452C452.145 429.723 452.253 429.984 452.446 430.175C452.638 430.367 452.898 430.475 453.17 430.475H491.292C491.563 430.473 491.823 430.365 492.015 430.173C492.206 429.982 492.315 429.723 492.317 429.452V416.449C492.315 416.178 492.206 415.919 492.015 415.727C491.823 415.536 491.563 415.427 491.292 415.425H453.17C452.898 415.425 452.638 415.533 452.446 415.725C452.253 415.917 452.145 416.177 452.145 416.449V429.452ZM452.145 395.834C452.144 395.969 452.17 396.102 452.221 396.227C452.273 396.351 452.348 396.465 452.443 396.56C452.539 396.655 452.652 396.73 452.777 396.782C452.901 396.833 453.035 396.858 453.17 396.857H491.292C491.427 396.857 491.56 396.831 491.684 396.78C491.809 396.728 491.922 396.653 492.017 396.558C492.112 396.463 492.187 396.35 492.239 396.226C492.29 396.101 492.317 395.968 492.317 395.834V382.861C492.317 382.727 492.29 382.594 492.239 382.47C492.187 382.346 492.112 382.233 492.017 382.138C491.922 382.043 491.809 381.967 491.684 381.916C491.56 381.864 491.427 381.838 491.292 381.838H453.17C453.035 381.837 452.901 381.863 452.777 381.914C452.652 381.965 452.539 382.04 452.443 382.135C452.348 382.231 452.273 382.344 452.221 382.469C452.17 382.593 452.144 382.727 452.145 382.861V395.834ZM452.145 362.224C452.145 362.495 452.253 362.755 452.446 362.947C452.638 363.139 452.898 363.247 453.17 363.247H491.292C491.563 363.245 491.823 363.137 492.015 362.945C492.206 362.754 492.315 362.495 492.317 362.224V349.221C492.315 348.951 492.206 348.692 492.014 348.502C491.822 348.312 491.563 348.205 491.292 348.205H453.17C453.036 348.204 452.903 348.229 452.778 348.28C452.654 348.331 452.541 348.405 452.446 348.5C452.351 348.594 452.275 348.706 452.224 348.83C452.172 348.954 452.145 349.087 452.145 349.221V362.224ZM452.145 328.613C452.145 328.747 452.172 328.88 452.224 329.004C452.275 329.128 452.351 329.24 452.446 329.334C452.541 329.429 452.654 329.504 452.778 329.554C452.903 329.605 453.036 329.63 453.17 329.629H491.292C491.563 329.629 491.822 329.523 492.014 329.332C492.206 329.142 492.315 328.884 492.317 328.613V315.611C492.315 315.34 492.206 315.081 492.015 314.889C491.823 314.697 491.563 314.589 491.292 314.587H453.17C452.898 314.587 452.638 314.695 452.446 314.887C452.253 315.079 452.145 315.339 452.145 315.611V328.613ZM452.145 294.996C452.144 295.13 452.17 295.264 452.221 295.388C452.273 295.513 452.348 295.626 452.443 295.722C452.539 295.817 452.652 295.892 452.777 295.943C452.901 295.994 453.035 296.02 453.17 296.019H491.292C491.427 296.019 491.56 295.993 491.684 295.941C491.809 295.89 491.922 295.814 492.017 295.719C492.112 295.624 492.187 295.511 492.239 295.387C492.29 295.263 492.317 295.13 492.317 294.996V282.023C492.317 281.889 492.29 281.756 492.239 281.631C492.187 281.507 492.112 281.394 492.017 281.299C491.922 281.204 491.809 281.129 491.684 281.077C491.56 281.026 491.427 281 491.292 281H453.17C453.035 280.999 452.901 281.024 452.777 281.075C452.652 281.126 452.539 281.202 452.443 281.297C452.348 281.392 452.273 281.506 452.221 281.63C452.17 281.755 452.144 281.888 452.145 282.023V294.996ZM390.386 496.672C390.386 496.806 390.413 496.939 390.464 497.063C390.516 497.187 390.592 497.299 390.687 497.393C390.782 497.488 390.895 497.562 391.019 497.613C391.143 497.664 391.276 497.689 391.411 497.688H429.533C429.803 497.688 430.063 497.581 430.255 497.391C430.447 497.201 430.555 496.942 430.557 496.672V483.7C430.555 483.429 430.447 483.17 430.255 482.978C430.064 482.787 429.804 482.678 429.533 482.676H391.411C391.139 482.676 390.878 482.784 390.686 482.976C390.494 483.168 390.386 483.428 390.386 483.7V496.672ZM390.386 463.054C390.385 463.189 390.411 463.323 390.462 463.447C390.513 463.572 390.589 463.685 390.684 463.78C390.779 463.876 390.893 463.951 391.017 464.002C391.142 464.053 391.276 464.079 391.411 464.078H429.533C429.668 464.078 429.801 464.051 429.925 464C430.049 463.949 430.162 463.873 430.257 463.778C430.353 463.683 430.428 463.57 430.479 463.446C430.531 463.322 430.557 463.189 430.557 463.054V450.067C430.557 449.932 430.531 449.799 430.479 449.675C430.428 449.551 430.353 449.438 430.257 449.343C430.162 449.248 430.049 449.173 429.925 449.121C429.801 449.07 429.668 449.043 429.533 449.043H391.411C391.276 449.042 391.142 449.068 391.017 449.119C390.893 449.17 390.779 449.245 390.684 449.341C390.589 449.436 390.513 449.549 390.462 449.674C390.411 449.798 390.385 449.932 390.386 450.067V463.054ZM390.386 429.444C390.386 429.716 390.494 429.976 390.686 430.168C390.878 430.36 391.139 430.468 391.411 430.468H429.533C429.804 430.466 430.064 430.357 430.255 430.166C430.447 429.974 430.555 429.715 430.557 429.444V416.449C430.555 416.178 430.447 415.919 430.255 415.727C430.064 415.536 429.804 415.427 429.533 415.425H391.411C391.139 415.425 390.878 415.533 390.686 415.725C390.494 415.917 390.386 416.177 390.386 416.449V429.444ZM390.386 395.826C390.385 395.961 390.411 396.095 390.462 396.219C390.513 396.344 390.589 396.457 390.684 396.552C390.779 396.648 390.893 396.723 391.017 396.774C391.142 396.825 391.276 396.851 391.411 396.85H429.533C429.668 396.85 429.801 396.823 429.925 396.772C430.049 396.721 430.162 396.645 430.257 396.55C430.353 396.455 430.428 396.342 430.479 396.218C430.531 396.094 430.557 395.961 430.557 395.826V382.861C430.557 382.727 430.531 382.594 430.479 382.47C430.428 382.346 430.353 382.233 430.257 382.138C430.162 382.043 430.049 381.967 429.925 381.916C429.801 381.864 429.668 381.838 429.533 381.838H391.411C391.276 381.837 391.142 381.863 391.017 381.914C390.893 381.965 390.779 382.04 390.684 382.135C390.589 382.231 390.513 382.344 390.462 382.469C390.411 382.593 390.385 382.727 390.386 382.861V395.826ZM390.386 362.216C390.386 362.488 390.494 362.748 390.686 362.94C390.878 363.132 391.139 363.24 391.411 363.24H429.533C429.804 363.238 430.064 363.129 430.255 362.938C430.447 362.746 430.555 362.487 430.557 362.216V349.221C430.555 348.951 430.447 348.692 430.255 348.502C430.063 348.312 429.803 348.205 429.533 348.205H391.411C391.276 348.204 391.143 348.229 391.019 348.28C390.895 348.331 390.782 348.405 390.687 348.5C390.592 348.594 390.516 348.706 390.464 348.83C390.413 348.954 390.386 349.087 390.386 349.221V362.216ZM390.386 328.606C390.386 328.74 390.413 328.873 390.464 328.996C390.516 329.12 390.592 329.232 390.687 329.327C390.782 329.421 390.895 329.496 391.019 329.547C391.143 329.597 391.276 329.623 391.411 329.622H429.533C429.803 329.622 430.063 329.515 430.255 329.325C430.447 329.134 430.555 328.876 430.557 328.606V315.611C430.555 315.34 430.447 315.081 430.255 314.889C430.064 314.697 429.804 314.589 429.533 314.587H391.411C391.139 314.587 390.878 314.695 390.686 314.887C390.494 315.079 390.386 315.339 390.386 315.611V328.606ZM390.386 294.988C390.385 295.123 390.411 295.256 390.462 295.381C390.513 295.506 390.589 295.619 390.684 295.714C390.779 295.809 390.893 295.885 391.017 295.936C391.142 295.987 391.276 296.013 391.411 296.012H429.533C429.668 296.012 429.801 295.985 429.925 295.934C430.049 295.882 430.162 295.807 430.257 295.712C430.353 295.617 430.428 295.504 430.479 295.38C430.531 295.256 430.557 295.122 430.557 294.988V282.023C430.557 281.889 430.531 281.756 430.479 281.631C430.428 281.507 430.353 281.394 430.257 281.299C430.162 281.204 430.049 281.129 429.925 281.077C429.801 281.026 429.668 281 429.533 281H391.411C391.276 280.999 391.142 281.024 391.017 281.075C390.893 281.126 390.779 281.202 390.684 281.297C390.589 281.392 390.513 281.506 390.462 281.63C390.411 281.755 390.385 281.888 390.386 282.023V294.988ZM300.005 496.665C300.007 496.935 300.116 497.193 300.307 497.384C300.499 497.574 300.759 497.681 301.029 497.681H339.152C339.286 497.682 339.419 497.656 339.543 497.605C339.667 497.555 339.78 497.48 339.875 497.386C339.971 497.291 340.046 497.179 340.098 497.055C340.149 496.931 340.176 496.799 340.176 496.665V483.7C340.176 483.428 340.068 483.168 339.876 482.976C339.684 482.784 339.423 482.676 339.152 482.676H301.022C300.75 482.678 300.491 482.787 300.299 482.978C300.108 483.17 299.999 483.429 299.997 483.7L300.005 496.665ZM300.005 463.047C300.005 463.318 300.113 463.579 300.305 463.771C300.497 463.963 300.757 464.07 301.029 464.07H339.152C339.286 464.071 339.42 464.046 339.545 463.994C339.67 463.943 339.783 463.868 339.878 463.773C339.974 463.678 340.049 463.564 340.1 463.44C340.151 463.315 340.177 463.182 340.176 463.047V450.067C340.177 449.932 340.151 449.798 340.1 449.674C340.049 449.549 339.974 449.436 339.878 449.341C339.783 449.245 339.67 449.17 339.545 449.119C339.42 449.068 339.286 449.042 339.152 449.043H301.022C300.75 449.043 300.489 449.151 300.297 449.343C300.105 449.535 299.997 449.795 299.997 450.067L300.005 463.047ZM300.005 429.437C300.007 429.707 300.115 429.967 300.307 430.158C300.499 430.35 300.758 430.458 301.029 430.46H339.152C339.423 430.46 339.684 430.352 339.876 430.16C340.068 429.968 340.176 429.708 340.176 429.437V416.449C340.176 416.177 340.068 415.917 339.876 415.725C339.684 415.533 339.423 415.425 339.152 415.425H301.022C300.75 415.427 300.491 415.536 300.299 415.727C300.108 415.919 299.999 416.178 299.997 416.449L300.005 429.437ZM300.005 395.819C300.005 396.09 300.113 396.351 300.305 396.543C300.497 396.734 300.757 396.842 301.029 396.842H339.152C339.286 396.843 339.42 396.818 339.545 396.766C339.67 396.715 339.783 396.64 339.878 396.545C339.974 396.449 340.049 396.336 340.1 396.212C340.151 396.087 340.177 395.953 340.176 395.819V382.861C340.177 382.727 340.151 382.593 340.1 382.469C340.049 382.344 339.974 382.231 339.878 382.135C339.783 382.04 339.67 381.965 339.545 381.914C339.42 381.863 339.286 381.837 339.152 381.838H301.022C300.75 381.838 300.489 381.946 300.297 382.138C300.105 382.33 299.997 382.59 299.997 382.861L300.005 395.819ZM300.005 362.208C300.007 362.479 300.115 362.739 300.307 362.93C300.499 363.122 300.758 363.23 301.029 363.232H339.152C339.423 363.232 339.684 363.124 339.876 362.932C340.068 362.74 340.176 362.48 340.176 362.208V349.221C340.176 349.087 340.149 348.954 340.098 348.83C340.046 348.706 339.971 348.594 339.875 348.5C339.78 348.405 339.667 348.331 339.543 348.28C339.419 348.229 339.286 348.204 339.152 348.205H301.022C300.751 348.205 300.492 348.312 300.3 348.502C300.108 348.692 299.999 348.951 299.997 349.221L300.005 362.208ZM300.005 328.598C300.003 328.733 300.028 328.867 300.078 328.993C300.128 329.118 300.202 329.233 300.297 329.329C300.391 329.426 300.504 329.503 300.628 329.555C300.753 329.608 300.886 329.636 301.022 329.637H339.152C339.286 329.638 339.419 329.612 339.543 329.562C339.667 329.511 339.78 329.437 339.875 329.342C339.971 329.248 340.046 329.135 340.098 329.012C340.149 328.888 340.176 328.755 340.176 328.621V315.611C340.176 315.339 340.068 315.079 339.876 314.887C339.684 314.695 339.423 314.587 339.152 314.587H301.022C300.75 314.589 300.491 314.697 300.299 314.889C300.108 315.081 299.999 315.34 299.997 315.611L300.005 328.598ZM300.005 294.98C300.005 295.252 300.113 295.512 300.305 295.704C300.497 295.896 300.757 296.004 301.029 296.004H339.152C339.286 296.005 339.42 295.979 339.545 295.928C339.67 295.877 339.783 295.802 339.878 295.706C339.974 295.611 340.049 295.498 340.1 295.373C340.151 295.249 340.177 295.115 340.176 294.98V282.023C340.177 281.888 340.151 281.755 340.1 281.63C340.049 281.506 339.974 281.392 339.878 281.297C339.783 281.202 339.67 281.126 339.545 281.075C339.42 281.024 339.286 280.999 339.152 281H301.022C300.75 281 300.489 281.107 300.297 281.299C300.105 281.491 299.997 281.752 299.997 282.023L300.005 294.98Z" fill="white"/>
<path opacity="0.1" d="M565.844 192.201C570.128 191.386 574.559 191.867 578.569 193.581C580.986 194.657 583.603 195.21 586.248 195.204C588.894 195.197 591.508 194.631 593.92 193.543C596.762 192.298 599.841 191.685 602.943 191.747C606.046 191.808 609.098 192.543 611.888 193.9C613.484 194.74 615.259 195.182 617.063 195.188C624.348 195.188 630.411 187.857 631.67 178.182C630.215 177.123 628.978 175.792 628.028 174.263C623.756 167.386 617.139 162.966 609.71 162.966C602.282 162.966 595.748 167.333 591.499 174.134C590.225 176.189 588.441 177.88 586.321 179.043C584.2 180.207 581.815 180.804 579.396 180.775H579.206C573.348 180.775 568.325 185.423 565.844 192.201Z" fill="#70DDFF"/>
<path opacity="0.1" d="M543.688 161.836L555.465 169.296L548.317 156.309C550.343 154.693 552.85 153.799 555.442 153.769H555.632C556.45 153.781 557.268 153.72 558.075 153.587L562.052 156.119L560.337 153.011C563.166 152.023 565.61 150.165 567.318 147.703L574.466 152.252L569.966 144.034C574.147 139.022 579.777 135.951 585.969 135.951C593.398 135.951 600.015 140.364 604.287 147.241C605.552 149.304 607.342 150.996 609.475 152.142C611.608 153.289 614.007 153.85 616.428 153.769H616.83C625.032 153.769 631.68 163.056 631.68 174.52C631.68 185.984 625.032 195.272 616.83 195.272C615.025 195.267 613.248 194.822 611.655 193.975C608.864 192.62 605.811 191.886 602.709 191.826C599.606 191.766 596.528 192.38 593.686 193.626C591.282 194.699 588.678 195.253 586.045 195.253C583.412 195.253 580.808 194.699 578.404 193.626C575.584 192.401 572.533 191.798 569.458 191.856C566.384 191.915 563.358 192.635 560.587 193.968C559.008 194.793 557.254 195.227 555.473 195.234C547.27 195.234 540.623 185.938 540.623 174.482C540.571 170.077 541.625 165.729 543.688 161.836Z" fill="#70DDFF"/>
<path opacity="0.1" d="M216.035 330.547C219.034 329.979 222.134 330.314 224.943 331.51C226.626 332.262 228.449 332.651 230.293 332.651C232.136 332.651 233.959 332.262 235.642 331.51C237.632 330.638 239.788 330.209 241.96 330.252C244.132 330.296 246.269 330.81 248.223 331.76C249.339 332.349 250.581 332.658 251.843 332.662C256.942 332.662 261.184 327.529 262.064 320.759C261.047 320.014 260.182 319.083 259.514 318.014C256.524 313.2 251.926 310.106 246.698 310.106C241.47 310.106 236.917 313.139 233.927 317.923C233.036 319.362 231.789 320.545 230.305 321.36C228.821 322.174 227.152 322.591 225.459 322.571H225.322C221.301 322.556 217.787 325.808 216.035 330.547Z" fill="#70DDFF"/>
<path opacity="0.1" d="M200.541 309.318L208.781 314.542L203.781 305.443C205.199 304.314 206.953 303.69 208.766 303.669H208.895C209.467 303.676 210.038 303.633 210.602 303.54L213.402 305.307L212.203 303.138C214.181 302.444 215.89 301.147 217.09 299.431L222.106 302.585L218.949 296.846C221.871 293.335 225.778 291.182 230.149 291.182C235.347 291.182 240.014 294.275 242.973 299.09C243.858 300.528 245.109 301.706 246.598 302.505C248.086 303.304 249.76 303.695 251.449 303.639H251.699C257.436 303.639 262.095 310.136 262.095 318.158C262.095 326.18 257.436 332.685 251.699 332.685C250.437 332.681 249.195 332.371 248.08 331.783C246.126 330.832 243.989 330.318 241.816 330.276C239.643 330.234 237.488 330.665 235.499 331.54C233.814 332.287 231.992 332.673 230.149 332.673C228.306 332.673 226.484 332.287 224.8 331.54C222.826 330.684 220.691 330.262 218.54 330.304C216.388 330.346 214.271 330.85 212.332 331.783C211.225 332.356 209.998 332.657 208.751 332.662C203.007 332.662 198.355 326.164 198.355 318.135C198.337 315.06 199.088 312.029 200.541 309.318Z" fill="#70DDFF"/>
<path opacity="0.1" d="M666.297 282.023C663.297 281.456 660.197 281.791 657.388 282.986C655.707 283.738 653.885 284.127 652.042 284.127C650.2 284.127 648.378 283.738 646.697 282.986C644.707 282.115 642.551 281.686 640.378 281.729C638.206 281.772 636.069 282.286 634.116 283.236C632.999 283.824 631.758 284.134 630.496 284.139C625.397 284.139 621.148 279.006 620.267 272.235C621.286 271.492 622.151 270.561 622.817 269.491C625.791 264.661 630.443 261.552 635.656 261.552C640.869 261.552 645.429 264.585 648.419 269.369C649.313 270.81 650.563 271.995 652.049 272.812C653.535 273.629 655.207 274.049 656.902 274.032H657.031C661.068 274.032 664.589 277.285 666.297 282.023Z" fill="#70DDFF"/>
<path opacity="0.1" d="M681.837 260.794L673.596 265.995L678.604 256.897C677.186 255.769 675.432 255.145 673.619 255.123H673.482C672.911 255.129 672.339 255.086 671.775 254.994L668.983 256.76L670.182 254.592C668.202 253.898 666.49 252.602 665.287 250.884L660.287 254.054L663.451 248.314C660.522 244.804 656.584 242.651 652.243 242.651C647.046 242.651 642.379 245.744 639.42 250.558C638.535 251.997 637.284 253.176 635.795 253.975C634.307 254.774 632.633 255.165 630.944 255.108H630.671C624.926 255.108 620.275 261.605 620.275 269.627C620.275 277.648 624.926 284.154 630.671 284.154C631.932 284.148 633.174 283.838 634.29 283.251C636.244 282.301 638.381 281.786 640.554 281.744C642.726 281.703 644.882 282.134 646.871 283.009C648.554 283.756 650.375 284.142 652.217 284.142C654.059 284.142 655.88 283.756 657.563 283.009C659.538 282.152 661.674 281.731 663.826 281.773C665.979 281.815 668.097 282.319 670.037 283.251C671.144 283.825 672.372 284.127 673.619 284.131C679.356 284.131 684.015 277.633 684.015 269.604C684.034 266.532 683.285 263.504 681.837 260.794Z" fill="#70DDFF"/>
<path opacity="0.1" d="M681.698 553.135C670.209 560.484 653.654 553.05 642.088 560.287C639.101 562.15 636.691 564.893 633.603 566.585C629.895 568.627 625.533 568.995 621.316 569.149C585.999 570.524 550.089 560.604 515.655 568.619C506.024 570.858 496.605 574.498 486.737 575.027C469.69 575.959 453.355 567.585 436.291 567.123C410.41 566.423 384.98 583.863 360.007 576.984C351.793 574.72 344.258 569.892 335.781 569.08C326.337 568.226 317.257 572.37 308.076 574.788C275.518 583.333 241.61 569.49 207.948 568.456C185.996 567.781 164.257 572.601 142.322 573.712C126.725 574.498 111.095 573.395 95.5161 572.302C89.5763 571.883 83.3564 571.37 78.384 568.089C73.4116 564.808 70.3568 557.758 73.4285 552.631L681.698 553.135Z" fill="black"/>
<path d="M681.698 549.426C670.209 556.775 653.654 549.341 642.088 556.579C639.101 558.441 636.691 561.184 633.603 562.876C629.895 564.918 625.533 565.286 621.316 565.44C585.999 566.815 550.089 556.895 515.655 564.91C506.024 567.149 496.605 570.789 486.737 571.319C469.69 572.25 453.355 563.876 436.291 563.414C410.41 562.714 384.98 580.154 360.007 573.275C351.793 571.011 344.258 566.183 335.781 565.371C326.337 564.517 317.257 568.661 308.076 571.079C275.518 579.624 241.61 565.781 207.948 564.747C185.996 564.072 164.257 568.892 142.322 570.003C126.725 570.789 111.095 569.686 95.5161 568.593C89.5763 568.174 83.3564 567.661 78.384 564.38C73.4116 561.099 70.3568 554.049 73.4285 548.922L681.698 549.426Z" fill="#3F3D56"/>
<g opacity="0.1">
<path opacity="0.1" d="M754.523 455.594C754.492 458.884 755.338 462.124 756.974 464.98C755.367 467.848 754.523 471.08 754.523 474.366C754.523 477.653 755.367 480.885 756.974 483.753C756.143 485.173 755.52 486.705 755.123 488.302C763.406 477.393 771.03 466 777.955 454.184C777.789 451.365 776.968 448.624 775.558 446.177C777.194 443.321 778.04 440.082 778.009 436.791C778.018 434.567 777.644 432.359 776.901 430.263C776.547 429.269 776.097 428.311 775.558 427.405C773.418 423.773 770.049 421.43 766.27 421.43C762.491 421.43 759.114 423.773 756.974 427.405C756.454 428.285 756.014 429.212 755.662 430.172C754.901 432.296 754.516 434.535 754.523 436.791C754.492 440.082 755.338 443.321 756.974 446.177C755.333 449.042 754.487 452.293 754.523 455.594Z" fill="#3F3D56"/>
<path opacity="0.1" d="M766.271 433.417C759.788 433.417 754.532 426.54 754.532 418.056C754.532 409.573 759.788 402.696 766.271 402.696C772.754 402.696 778.009 409.573 778.009 418.056C778.009 426.54 772.754 433.417 766.271 433.417Z" fill="#3F3D56"/>
<path opacity="0.1" d="M766.271 414.644C759.788 414.644 754.532 407.767 754.532 399.284C754.532 390.8 759.788 383.923 766.271 383.923C772.754 383.923 778.009 390.8 778.009 399.284C778.009 407.767 772.754 414.644 766.271 414.644Z" fill="#3F3D56"/>
<path opacity="0.1" d="M710.27 305.527C710.25 318.134 714.494 330.379 722.312 340.274C716.358 347.839 712.448 356.804 710.955 366.312C709.463 375.819 710.439 385.55 713.79 394.573C717.141 403.595 722.755 411.607 730.093 417.84C737.431 424.074 746.248 428.32 755.7 430.172C757.05 430.445 758.424 430.657 759.812 430.824C764.096 431.336 768.424 431.359 772.712 430.892C774.139 430.741 775.548 430.531 776.939 430.263C783.073 429.131 788.973 426.975 794.391 423.887C804.491 403.272 813.312 382.056 820.805 360.359C818.834 353.062 815.403 346.24 810.721 340.305C816.509 332.957 820.373 324.283 821.963 315.068C823.553 305.853 822.819 296.388 819.826 287.528L777.121 301.85L817.171 281.06C815.407 277.424 813.257 273.987 810.759 270.81C815.535 264.744 819.01 257.761 820.967 250.296C822.924 242.83 823.322 235.041 822.135 227.415C820.947 219.789 818.201 212.49 814.067 205.971C809.932 199.451 804.499 193.853 798.104 189.524C791.71 185.195 784.491 182.229 776.899 180.809C769.307 179.389 761.503 179.547 753.975 181.273C746.447 182.999 739.354 186.255 733.141 190.839C726.927 195.424 721.725 201.237 717.858 207.918L759.145 238.246L714.375 215.045C711.512 222.15 710.132 229.764 710.317 237.42C710.502 245.077 712.25 252.615 715.453 259.573L748.84 259.323L717.987 264.388C719.297 266.629 720.76 268.777 722.365 270.817C714.537 280.696 710.275 292.926 710.27 305.527Z" fill="#70DDFF"/>
<path opacity="0.1" d="M710.27 375.052C710.272 388.075 714.799 400.694 723.078 410.752C731.357 420.811 742.874 427.685 755.662 430.202C757.012 430.475 758.386 430.688 759.775 430.854C764.058 431.366 768.386 431.389 772.674 430.923C774.101 430.771 775.51 430.561 776.901 430.293C783.035 429.161 788.935 427.005 794.353 423.917C804.467 403.293 813.301 382.067 820.805 360.359C818.834 353.062 815.403 346.24 810.721 340.305C818.543 330.399 822.786 318.144 822.763 305.527C822.763 299.219 714.77 330.714 722.312 340.274C714.487 350.178 710.244 362.434 710.27 375.052Z" fill="black"/>
</g>
<g opacity="0.1">
<path opacity="0.1" d="M77.2534 440.976C79.454 447.997 81.8063 454.965 84.2194 461.773C84.89 459.767 85.2283 457.664 85.221 455.549C85.221 448.778 81.8822 443.031 77.2534 440.976Z" fill="#3F3D56"/>
<path opacity="0.1" d="M53.6526 320C53.6526 333.307 56.3388 354.331 61.2406 378.381C65.534 399.502 70.8904 420.394 77.2894 440.976C79.49 447.997 81.8422 454.965 84.2552 461.773C87.0249 469.507 89.9463 477.028 93.0043 484.223C101.365 481.156 108.881 476.157 114.938 469.634C120.995 463.111 125.422 455.248 127.858 446.689C130.293 438.129 130.667 429.115 128.95 420.384C127.233 411.652 123.472 403.45 117.977 396.448C123.766 389.079 127.63 380.386 129.22 371.153C130.809 361.919 130.075 352.436 127.082 343.557L84.3767 357.91L124.426 337.075C122.663 333.431 120.513 329.987 118.015 326.801C123.349 320.005 127.05 312.076 128.833 303.625C130.617 295.174 130.434 286.427 128.299 278.057C126.164 269.688 122.134 261.921 116.52 255.353C110.906 248.786 103.857 243.594 95.9181 240.179C78.6805 251.929 65.7051 268.931 58.9262 288.65L66.3246 294.154L58.3875 290.037C55.7252 298.211 54.171 306.705 53.7664 315.292H55.9973L53.7208 315.664C53.6525 317.097 53.6526 318.537 53.6526 320Z" fill="#70DDFF"/>
<path opacity="0.1" d="M61.2041 378.381C65.4975 399.502 70.8539 420.394 77.2529 440.976C79.4534 447.997 81.8058 454.965 84.2188 461.773C86.9884 469.507 89.9099 477.028 92.9678 484.223C101.328 481.157 108.844 476.158 114.901 469.634C120.959 463.111 125.386 455.248 127.821 446.689C130.256 438.129 130.631 429.116 128.913 420.384C127.196 411.652 123.436 403.451 117.94 396.448C125.753 386.524 129.993 374.259 129.975 361.633C129.975 357.842 90.7293 367.774 61.2041 378.381Z" fill="black"/>
</g>
<path opacity="0.2" d="M1.85864 296.576C1.85864 296.453 1.85864 296.322 1.85864 296.191C2.29602 286.913 3.97614 277.735 6.85419 268.903C7.01825 268.403 7.18225 267.895 7.35449 267.403C14.6825 246.097 28.709 227.726 47.343 215.03C68.2302 200.818 93.5845 194.687 118.668 197.784C143.751 200.88 166.847 212.993 183.641 231.857C185.398 221.912 188.177 212.175 191.933 202.799C219.304 206.255 246.926 207.283 274.478 205.871C257.595 213.646 240.089 219.996 222.144 224.853L222.784 227.229C242.923 221.767 262.508 214.445 281.286 205.355L286.955 202.611L280.671 203.021C251.4 204.935 222.014 204.093 192.901 200.505C199.2 185.502 207.936 171.64 218.757 159.479C265.972 154.727 312.818 144.831 356.563 125.21L355.554 122.974C312.974 142.087 267.342 151.909 221.275 156.742C236.868 140.048 256.134 127.204 277.551 119.223C298.969 111.242 321.951 108.344 344.682 110.757C367.413 113.17 389.272 120.828 408.531 133.127C427.79 145.425 443.922 162.028 455.653 181.622C460.017 139.365 477.592 99.5521 505.887 67.8319C531.076 77.8836 557.085 85.7526 583.625 91.3518C623.539 99.8244 664.387 103.071 705.141 101.011C688.257 108.785 670.751 115.135 652.807 119.992L653.447 122.368C673.58 116.905 693.159 109.583 711.933 100.494L717.601 97.75L711.317 98.1596C641.852 102.716 572.246 91.7021 507.593 65.9231C510.027 63.2633 512.531 60.6636 515.107 58.124C595.839 59.7625 683.764 58.9433 763.364 30C792.861 48.1824 817.205 73.6038 834.079 103.843C850.954 134.082 859.796 168.132 859.763 202.75C859.763 240.811 849.288 293.152 831.053 345.664C822.928 369.166 813.364 392.148 802.417 414.479C796.848 425.784 790.934 436.77 784.724 447.289C777.237 460.056 768.995 472.366 760.042 484.154C758.434 486.268 756.807 488.343 755.161 490.38C745.986 501.978 735.688 512.644 724.417 522.224C722.137 524.124 719.843 525.935 717.535 527.655C711.35 532.325 704.762 536.437 697.848 539.944C685.815 545.965 673.396 549.496 660.69 550.004C659.673 550.045 658.647 550.069 657.63 550.069V550.487H106.403V550.069H105.993C102.816 550.057 99.6645 549.503 96.6745 548.431C77.1847 541.525 59.2371 513.794 44.3163 478.747C41.0352 470.973 37.8524 462.846 34.8584 454.49C32.2171 447.117 29.7072 439.605 27.3284 432.019C20.4109 409.779 14.6205 387.205 9.97937 364.383C4.72137 338.398 1.77667 315.68 1.77667 301.303C1.75208 299.697 1.75201 298.141 1.85864 296.576Z" fill="white"/>
<path d="M283.018 166.742C267.107 166.742 254.209 153.854 254.209 137.956C254.209 122.058 267.107 109.171 283.018 109.171C298.929 109.171 311.827 122.058 311.827 137.956C311.827 153.854 298.929 166.742 283.018 166.742Z" fill="#3F3D56"/>
<path d="M299.73 361.88C296.757 382.726 300.383 403.983 306.032 424.266C307.088 428.043 308.224 431.851 310.198 435.241C312.173 438.631 314.921 441.546 317.242 444.734C322.077 451.385 324.913 459.228 327.565 466.99C334.874 488.468 341.013 510.326 345.954 532.468C346.252 533.375 346.252 534.354 345.954 535.262C345.253 536.872 343.126 537.082 341.377 537.074L318.765 536.953C317.959 535.407 319.45 533.732 320.376 532.251C323.6 527.242 320.505 520.736 317.661 515.494C310.747 502.764 305.395 489.246 301.721 475.235C300.174 469.333 298.917 463.302 296.402 457.738C293.364 450.991 288.602 445.185 284.733 438.872C280.237 431.537 276.957 423.574 273.701 415.578C269.156 404.483 264.571 393.25 262.782 381.398C261.098 370.27 261.928 358.933 263.024 347.733C262.973 347.4 263.002 347.059 263.109 346.739C263.215 346.42 263.397 346.13 263.637 345.894C263.878 345.658 264.172 345.482 264.494 345.382C264.816 345.282 265.157 345.26 265.49 345.317L295.83 343.755C302.083 343.433 303.566 342.064 302.615 348.2C301.955 352.781 300.391 357.242 299.73 361.88Z" fill="#0A6EAA"/>
<path d="M293.769 311.201C299.934 320.058 306.396 330.252 304.35 340.856C302.794 348.908 296.654 355.149 290.86 360.986C267.699 384.224 244.926 410.038 237.045 441.884C235.014 450.113 234.031 458.559 232.282 466.845C229.107 481.902 223.418 496.299 217.777 510.607L202.659 548.733C197.97 548.848 193.36 547.519 189.453 544.926C185.546 542.333 182.532 538.602 180.82 534.239C182.803 534.086 185.389 532.17 186.55 530.56C192.997 521.646 194.318 510.18 195.97 499.31C197.8 487.297 200.241 475.38 202.691 463.471L213.522 410.779C214.771 404.7 216.02 398.613 217.648 392.622C223.95 369.416 235.892 347.531 237.738 323.537C238.012 320.01 238.181 316.137 240.574 313.52C243.089 310.758 247.215 310.299 250.946 310.082C266.039 309.116 279.062 307.642 293.769 311.201Z" fill="#0A6EAA"/>
<path d="M334.489 531.928C336.132 531.538 337.812 531.322 339.501 531.284C341.12 531.341 342.702 531.775 344.124 532.551C345.545 533.327 346.766 534.423 347.688 535.753C348.63 537.26 349.37 538.885 349.888 540.584L352.072 546.848C352.717 548.684 353.346 550.802 352.387 552.485C351.673 553.53 350.646 554.323 349.453 554.747C344.167 557.099 338.171 557.227 332.45 557.791C326.857 558.339 321.313 559.321 315.793 560.351C313.891 560.714 311.997 561.076 310.071 561.269C305.768 561.704 301.432 561.269 297.129 560.883L292.689 560.456C291.203 560.392 289.732 560.121 288.321 559.651C287.616 559.412 286.967 559.033 286.413 558.536C285.859 558.039 285.411 557.435 285.098 556.76C284.002 554.047 286.355 550.834 289.232 550.27C290.4 550.045 291.649 550.15 292.794 549.997C294.136 549.767 295.446 549.375 296.694 548.829C302.335 546.599 308.113 544.344 313.109 540.834C314.495 539.859 315.946 538.499 315.793 536.808C315.649 536.083 315.407 535.382 315.076 534.722C314.398 532.994 314.375 531.079 315.011 529.335C315.285 528.595 315.817 527.814 316.566 527.725C318.694 527.467 318.436 530.567 318.75 531.751C319.177 533.361 319.951 533.506 321.466 533.361C325.818 532.967 330.169 532.75 334.489 531.928Z" fill="#F2F2F2"/>
<path d="M207.268 553.564C207.23 556.71 206.147 559.754 204.19 562.22C203.592 562.955 202.845 563.556 201.998 563.983C200.724 564.507 199.343 564.725 197.969 564.619C194.133 564.536 190.342 563.769 186.776 562.356C185.519 561.788 184.227 561.301 182.907 560.899C181.247 560.56 179.568 560.318 177.879 560.174C171.215 559.216 165.364 555.287 158.925 553.298C157.001 552.822 155.116 552.203 153.284 551.446C150.738 550.246 148.675 548.225 146.652 546.269C145.459 545.212 144.433 543.983 143.606 542.621C142.421 540.423 142.349 537.79 142.3 535.302C142.257 534.913 142.324 534.52 142.494 534.167C142.678 533.913 142.929 533.715 143.219 533.595C145.177 532.629 147.498 533.112 149.666 533.49C157.499 534.883 165.517 534.626 173.471 534.368C174.225 534.472 174.993 534.323 175.655 533.946C176.316 533.569 176.835 532.984 177.13 532.283L180.151 527.451C181.014 526.067 182.384 524.48 183.947 524.955C185.196 525.334 185.704 526.864 185.655 528.176C185.607 529.489 185.204 530.793 185.454 532.073C185.632 532.778 185.953 533.439 186.396 534.015C186.84 534.591 187.397 535.07 188.033 535.423C189.302 536.112 190.657 536.632 192.062 536.969C196.51 538.225 201.684 539.65 205.125 542.919C207.655 545.238 207.422 550.432 207.268 553.564Z" fill="#F2F2F2"/>
<path d="M208.83 234.112C207.095 232.787 205.606 231.168 204.43 229.329C203.417 227.254 202.782 225.016 202.552 222.718L201.287 214.731C200.586 210.327 199.764 205.664 196.823 202.307C193.881 198.949 188.023 197.749 185.033 201.067C183.728 202.508 183.212 204.489 182.89 206.413C181.97 212.152 182.348 218.023 183.997 223.596C185.645 229.17 188.521 234.304 192.415 238.621C196.033 242.583 200.473 245.731 204.301 249.475C207.637 252.696 210.53 256.392 213.609 259.894C221.053 268.355 229.58 275.8 238.969 282.037C238.856 276.046 238.091 269.621 238.969 263.671C239.622 259.371 241.387 257.052 237.22 254.242C227.55 247.671 217.791 241.729 208.83 234.112Z" fill="#FBBEBE"/>
<path d="M290.094 175.188C290.408 179.472 292.189 183.852 295.734 186.324C285.694 189.835 275.79 193.705 266.023 197.935C267.908 196.123 268.48 193.345 268.569 190.736C268.819 183.916 266.458 177.209 263.009 171.331C262.46 170.586 262.143 169.695 262.098 168.771C262.211 166.871 264.467 165.993 266.321 165.55C272.644 164.017 279.098 163.082 285.597 162.756C288.377 162.667 291.673 161.79 291.044 165.325C290.448 168.626 289.844 171.847 290.094 175.188Z" fill="#FBBEBE"/>
<path d="M270.671 177.483C257.662 177.483 247.116 166.946 247.116 153.947C247.116 140.949 257.662 130.412 270.671 130.412C283.68 130.412 294.226 140.949 294.226 153.947C294.226 166.946 283.68 177.483 270.671 177.483Z" fill="#FBBEBE"/>
<path d="M247.35 217.517C248.172 215.75 249.174 214.071 250.339 212.509C254.61 206.381 258.994 200.262 264.474 195.189C268.625 191.49 273.118 188.193 277.891 185.342C280.467 183.577 283.299 182.219 286.288 181.316C288.062 180.923 289.865 180.678 291.68 180.583L297.796 180.084C298.332 180.013 298.877 180.029 299.408 180.132C301.068 180.551 301.825 182.612 301.471 184.279C301.116 185.945 299.859 187.298 298.747 188.562C298.473 201.035 304.025 213.338 304.775 225.794C306.088 247.575 292.784 267.833 291.72 289.63C291.61 290.615 291.715 291.612 292.026 292.553C292.203 293.004 292.469 293.414 292.671 293.857C293.299 295.226 293.275 296.78 293.388 298.286C293.827 303.656 296.181 308.69 300.02 312.473C299.022 313.711 297.739 314.689 296.281 315.324C293.71 316.443 290.64 316.539 287.908 317.32C280.785 319.398 273.483 321.491 266.078 321.049C265.158 319.048 264.588 316.905 264.393 314.712C263.346 314.059 262.137 315.452 261.976 316.676C261.815 317.9 262.048 319.325 261.17 320.211C260.292 321.097 259.18 320.96 258.108 320.823C253.587 320.251 249.243 318.73 244.811 317.707C240.379 316.684 235.641 316.193 231.329 317.659C230.459 316.556 230.83 314.921 231.539 313.713C232.248 312.505 233.255 311.443 233.658 310.098C233.861 309.323 233.948 308.523 233.916 307.723C233.916 300.838 232.498 293.881 233.844 287.126C234.238 285.145 234.867 283.213 235.27 281.224C236.076 277.367 235.955 273.389 235.85 269.452C235.745 265.514 236.221 261.255 236.301 257.261C236.304 255.611 236.412 253.962 236.624 252.325C236.898 250.61 237.43 248.936 237.575 247.204C238.01 242.808 236.237 238.444 236.503 234.031C236.946 227.332 244.739 223.693 247.35 217.517Z" fill="white"/>
<path d="M300.512 214.361C306.217 229.482 309.006 245.522 311.794 261.448L318.241 298.858C320.07 309.43 321.907 320.066 321.835 330.791C321.835 333.803 321.641 336.871 322.431 339.777C323.463 343.594 326.025 346.775 327.967 350.245C331.908 357.332 333.221 365.58 331.674 373.539C331.013 376.881 329.208 380.673 325.816 381.06C323.027 381.366 320.618 379.151 318.99 376.865C315.251 371.623 313.397 365.294 311.737 359.062C306.393 338.695 302.656 317.94 300.56 296.99C300.361 294.337 299.987 291.701 299.44 289.099C298.728 286.415 297.818 283.788 296.716 281.24C294.25 275.131 291.782 269.023 289.31 262.914C283.613 248.799 277.883 234.619 270.059 221.559C277.795 219.337 285.845 216.728 293.581 214.53C295.814 213.87 298.207 214.264 300.512 214.361Z" fill="#FBBEBE"/>
<path d="M287.103 225.851C292.519 224.684 298.12 225.046 303.648 224.909C304.433 224.966 305.215 224.762 305.872 224.329C306.992 223.371 306.517 221.575 305.952 220.215L303.277 213.773C302.838 212.442 302.105 211.225 301.133 210.214C299.772 209.006 297.854 208.709 296.048 208.491C290.174 207.815 284.13 207.589 278.432 209.176C272.735 210.762 267.376 214.369 264.83 219.707C263.766 221.93 263.274 224.732 264.685 226.753C266.78 229.756 271.478 233.114 274.983 231.471C279.182 229.482 282.397 226.85 287.103 225.851Z" fill="#DFEAF1"/>
<path d="M258.309 117.392C262.963 117.342 267.53 118.658 271.444 121.176C275.149 117.668 279.721 115.206 284.691 114.044C289.661 112.881 294.851 113.058 299.729 114.557C300.247 111.589 301.571 108.819 303.557 106.551C305.542 104.283 308.113 102.603 310.989 101.696C313.865 100.788 316.935 100.687 319.864 101.403C322.793 102.12 325.469 103.627 327.6 105.759C329.731 107.892 331.234 110.568 331.946 113.496C332.659 116.425 332.552 119.492 331.639 122.364C330.726 125.236 329.04 127.801 326.767 129.782C324.494 131.762 321.72 133.08 318.748 133.592C319.811 137.22 320.148 141.022 319.741 144.78C319.333 148.538 318.189 152.179 316.373 155.496C314.558 158.812 312.106 161.739 309.158 164.108C306.21 166.478 302.824 168.244 299.194 169.306C295.563 170.368 291.758 170.706 287.997 170.299C284.235 169.892 280.591 168.748 277.272 166.934C273.953 165.12 271.024 162.67 268.652 159.725C266.281 156.779 264.513 153.396 263.45 149.768C261.75 150.116 260.019 150.291 258.284 150.292C246.922 150.292 237.703 142.924 237.703 133.842C237.703 124.759 246.962 117.392 258.309 117.392Z" fill="#3F3D56"/>
<path opacity="0.1" d="M254.209 142.063C255.945 142.068 257.676 141.892 259.375 141.539C260.182 144.485 261.455 147.282 263.146 149.825C261.553 150.132 259.934 150.288 258.311 150.292C247.69 150.292 238.971 143.85 237.85 135.605C241.63 139.535 247.553 142.063 254.209 142.063Z" fill="black"/>
<path opacity="0.1" d="M287.137 162.627C291.644 162.621 296.088 161.559 300.11 159.527C304.133 157.495 307.624 154.55 310.302 150.927C312.979 147.304 314.771 143.104 315.531 138.665C316.291 134.225 316 129.67 314.681 125.363C318.494 124.693 321.948 122.701 324.438 119.738C326.927 116.776 328.291 113.031 328.292 109.163C328.293 108.174 328.204 107.188 328.026 106.216C330.036 108.385 331.423 111.056 332.042 113.947C332.662 116.838 332.49 119.842 331.545 122.644C330.6 125.446 328.916 127.941 326.672 129.868C324.427 131.794 321.705 133.081 318.791 133.592C321.009 140.871 320.253 148.731 316.688 155.455C313.123 162.179 307.039 167.218 299.765 169.472C292.492 171.726 284.621 171.011 277.874 167.483C271.127 163.955 266.052 157.902 263.759 150.646C266.422 154.355 269.932 157.377 273.998 159.461C278.064 161.544 282.567 162.63 287.137 162.627Z" fill="black"/>
<path d="M182.042 211.16C181.954 211.037 181.981 210.867 182.103 210.78C182.224 210.694 182.394 210.723 182.482 210.846L184.757 214.032C184.845 214.155 184.817 214.325 184.696 214.411C184.575 214.498 184.405 214.468 184.317 214.345L182.042 211.16Z" fill="#3A3768"/>
<path d="M194.78 197.633C194.73 197.564 194.746 197.469 194.815 197.42C194.884 197.371 194.98 197.387 195.029 197.455L195.703 198.399C195.752 198.468 195.736 198.563 195.667 198.613C195.598 198.662 195.503 198.646 195.454 198.577L194.78 197.633Z" fill="#3A3768"/>
<path d="M196.344 199.856C196.289 199.78 196.307 199.675 196.383 199.62C196.459 199.566 196.565 199.584 196.619 199.66L197.906 201.462C197.961 201.538 197.943 201.644 197.867 201.698C197.791 201.752 197.685 201.735 197.631 201.659L196.344 199.856Z" fill="#3A3768"/>
<path d="M198.341 202.652C198.29 202.58 198.306 202.479 198.379 202.428C198.451 202.376 198.552 202.393 198.604 202.465L199.914 204.3C199.966 204.373 199.949 204.473 199.877 204.525C199.804 204.577 199.704 204.56 199.652 204.488L198.341 202.652Z" fill="#3A3768"/>
<path d="M178.136 204.322L189.576 196.165C190.489 195.514 191.757 195.726 192.409 196.638L211.436 223.282C212.088 224.194 211.876 225.461 210.963 226.112L199.522 234.269C198.609 234.92 197.341 234.708 196.69 233.796L177.662 207.152C177.011 206.24 177.223 204.973 178.136 204.322Z" fill="#3A3768"/>
<path opacity="0.1" d="M178.136 204.322L189.576 196.165C190.489 195.514 191.757 195.726 192.409 196.638L211.436 223.282C212.088 224.194 211.876 225.461 210.963 226.112L199.522 234.269C198.609 234.92 197.341 234.708 196.69 233.796L177.662 207.152C177.011 206.24 177.223 204.973 178.136 204.322Z" fill="black"/>
<path d="M178.883 202.821L190.324 194.664C191.236 194.013 192.505 194.225 193.156 195.138L212.183 221.781C212.835 222.693 212.623 223.96 211.71 224.611L200.27 232.768C199.357 233.419 198.089 233.207 197.437 232.295L178.41 205.651C177.758 204.739 177.97 203.472 178.883 202.821Z" fill="#3A3768"/>
<path d="M179.916 203.305L181.6 202.098L181.745 202.299C181.925 202.546 182.193 202.713 182.494 202.766C182.795 202.818 183.104 202.752 183.357 202.581L188.74 198.74C188.995 198.557 189.168 198.281 189.219 197.971C189.27 197.662 189.197 197.345 189.014 197.089L188.869 196.888L190.481 195.761C190.634 195.65 190.808 195.571 190.992 195.528C191.176 195.485 191.366 195.478 191.553 195.509C191.739 195.54 191.918 195.607 192.078 195.707C192.239 195.807 192.378 195.937 192.487 196.091L211.087 222.139C211.308 222.449 211.397 222.834 211.335 223.209C211.273 223.585 211.065 223.921 210.756 224.144L200.167 231.688C200.013 231.798 199.839 231.877 199.655 231.919C199.471 231.962 199.28 231.968 199.093 231.936C198.907 231.905 198.729 231.837 198.568 231.736C198.408 231.636 198.27 231.504 198.161 231.35L179.561 205.31C179.452 205.156 179.375 204.981 179.333 204.796C179.292 204.612 179.288 204.42 179.321 204.234C179.354 204.048 179.423 203.87 179.525 203.71C179.628 203.551 179.76 203.413 179.916 203.305Z" fill="#70DDFF"/>
<path d="M184.818 199.948L186.458 198.779C186.574 198.697 186.735 198.723 186.818 198.839C186.901 198.955 186.874 199.116 186.758 199.199L185.118 200.368C185.002 200.451 184.841 200.424 184.758 200.308C184.676 200.192 184.702 200.031 184.818 199.948Z" fill="#E6E8EC"/>
<path d="M184.252 201.011C184.092 201.011 183.962 200.881 183.962 200.721C183.962 200.561 184.092 200.431 184.252 200.431C184.413 200.431 184.543 200.561 184.543 200.721C184.543 200.881 184.413 201.011 184.252 201.011Z" fill="#E6E8EC"/>
<path d="M191.748 166.581L192.167 167.531C194.09 166.68 196.075 165.882 198.056 165.156L197.701 164.18C195.694 164.913 193.692 165.719 191.748 166.581Z" fill="#003269"/>
<path d="M180.411 172.544L180.964 173.426C182.754 172.32 184.609 171.261 186.477 170.284L185.989 169.36C184.102 170.352 182.227 171.426 180.411 172.544Z" fill="#003269"/>
<path d="M170.005 180.003L170.673 180.804C172.303 179.463 173.995 178.161 175.707 176.934L175.098 176.089C173.366 177.331 171.649 178.644 170.005 180.003Z" fill="#003269"/>
<path d="M160.736 188.806L161.506 189.509C162.935 187.963 164.438 186.444 165.965 184.998L165.243 184.244C163.696 185.705 162.179 187.242 160.736 188.806Z" fill="#003269"/>
<path d="M152.757 198.801L153.621 199.39C154.823 197.664 156.105 195.955 157.423 194.311L156.602 193.668C155.268 195.325 153.972 197.053 152.757 198.801Z" fill="#003269"/>
<path d="M146.21 209.79L147.146 210.257C148.105 208.38 149.142 206.515 150.225 204.713L149.32 204.182C148.224 206.006 147.178 207.892 146.21 209.79Z" fill="#003269"/>
<path d="M141.219 221.562L142.212 221.901C142.905 219.917 143.678 217.929 144.509 215.997L143.541 215.59C142.703 217.548 141.921 219.557 141.219 221.562Z" fill="#003269"/>
<path d="M138.321 231.835L139.473 231.524C139.748 230.325 140.052 229.128 140.375 227.949L139.359 227.683C138.983 229.055 138.637 230.439 138.321 231.835Z" fill="#003269"/>
<path d="M167.915 129.636L168.523 131.015C171.316 129.779 174.199 128.622 177.074 127.568L176.559 126.15C173.645 127.214 170.739 128.385 167.915 129.636Z" fill="#003269"/>
<path d="M151.453 138.294L152.255 139.575C154.855 137.968 157.549 136.431 160.26 135.012L159.552 133.671C156.812 135.112 154.09 136.67 151.453 138.294Z" fill="#003269"/>
<path d="M136.343 149.125L137.313 150.287C139.679 148.34 142.136 146.45 144.622 144.668L143.738 143.441C141.223 145.245 138.73 147.151 136.343 149.125Z" fill="#003269"/>
<path d="M122.884 161.906L124.002 162.927C126.077 160.682 128.259 158.476 130.476 156.377L129.427 155.282C127.182 157.403 124.979 159.635 122.884 161.906Z" fill="#003269"/>
<path d="M111.295 176.419L112.548 177.275C114.294 174.77 116.155 172.288 118.07 169.9L116.878 168.967C114.941 171.374 113.059 173.882 111.295 176.419Z" fill="#003269"/>
<path d="M101.794 192.375L103.153 193.053C104.545 190.328 106.051 187.62 107.624 185.003L106.309 184.232C104.718 186.881 103.199 189.62 101.794 192.375Z" fill="#003269"/>
<path d="M94.5478 209.468L95.9889 209.96C96.9954 207.079 98.118 204.193 99.3239 201.387L97.9187 200.797C96.702 203.64 95.5668 206.556 94.5478 209.468Z" fill="#003269"/>
<path d="M90.3395 224.385L92.0124 223.933C92.4118 222.193 92.8532 220.454 93.3224 218.742L91.8471 218.355C91.3007 220.348 90.7982 222.358 90.3395 224.385Z" fill="#003269"/>
<path d="M142.789 77.5246L143.694 79.5775C147.851 77.7385 152.141 76.0154 156.421 74.4467L155.655 72.3363C151.317 73.9205 146.991 75.6633 142.789 77.5246Z" fill="#003269"/>
<path d="M118.289 90.4109L119.483 92.3181C123.352 89.9263 127.361 87.6385 131.397 85.5261L130.344 83.5303C126.265 85.6746 122.213 87.9941 118.289 90.4109Z" fill="#003269"/>
<path d="M95.7997 106.531L97.2433 108.261C100.765 105.363 104.422 102.55 108.122 99.8974L106.806 98.0716C103.064 100.756 99.352 103.594 95.7997 106.531Z" fill="#003269"/>
<path d="M75.7674 125.555L77.432 127.075C80.5203 123.733 83.7677 120.45 87.0674 117.325L85.507 115.696C82.1645 118.853 78.8864 122.174 75.7674 125.555Z" fill="#003269"/>
<path d="M58.5222 147.156L60.3884 148.429C62.9861 144.7 65.7571 141.006 68.6065 137.453L66.8324 136.063C63.9497 139.646 61.1481 143.379 58.5222 147.156Z" fill="#003269"/>
<path d="M44.377 170.905L46.3993 171.913C48.4708 167.857 50.7131 163.827 53.0531 159.932L51.0963 158.784C48.728 162.726 46.4671 166.803 44.377 170.905Z" fill="#003269"/>
<path d="M33.5905 196.345L35.7354 197.077C37.2334 192.788 38.9042 188.493 40.6991 184.317L38.6076 183.438C36.7967 187.669 35.1072 192.01 33.5905 196.345Z" fill="#003269"/>
<path d="M27.329 218.547L29.819 217.874C30.4134 215.284 31.0704 212.696 31.7687 210.148L29.5729 209.572C28.7597 212.537 28.0117 215.529 27.329 218.547Z" fill="#003269"/>
<path d="M576.586 291.809L529.948 316.771L530.486 317.777L577.125 292.815L576.586 291.809Z" fill="#3F3D56"/>
<path d="M541.911 458.731C541.911 458.731 541.911 510.362 530.062 523.905C530.062 523.905 527.522 530.676 526.676 533.215C526.203 534.66 525.637 536.074 524.983 537.447V540.833C524.983 540.833 502.13 538.294 499.591 532.369L503.823 527.29C503.823 527.29 504.669 526.444 503.823 523.905C502.977 521.365 505.516 521.365 505.516 521.365L511.441 507.823L510.594 451.96L514.826 374.937L551.222 373.244L541.911 458.731Z" fill="#0A6EAA"/>
<path d="M523.288 535.754C523.288 535.754 529.213 553.529 523.288 554.375C517.363 555.222 465.733 556.068 466.579 549.297C467.425 542.526 484.354 543.372 484.354 543.372L502.128 532.369L523.288 535.754Z" fill="#2F2E41"/>
<path d="M575.765 374.937C575.765 374.937 577.458 385.94 570.687 397.79C563.915 409.64 568.148 449.421 568.148 449.421L628.242 501.898C628.242 501.898 616.393 522.212 612.161 521.365C607.929 520.519 541.063 466.349 541.063 466.349L514.824 378.323L575.765 374.937Z" fill="#0A6EAA"/>
<path d="M627.417 499.655C627.417 499.655 645.602 504.167 643.145 509.624C640.688 515.081 613.762 559.143 608.496 554.804C603.23 550.464 613.008 536.619 613.008 536.619L613.229 515.715L627.417 499.655Z" fill="#2F2E41"/>
<path d="M562.223 217.507C562.23 221.966 560.697 226.291 557.883 229.75C555.659 232.507 552.722 234.603 549.392 235.811C546.061 237.019 542.464 237.293 538.989 236.603C537.249 236.267 535.565 235.687 533.987 234.882C531.48 233.618 529.276 231.827 527.527 229.631C525.778 227.436 524.524 224.888 523.853 222.162C523.475 220.639 523.285 219.076 523.287 217.507C523.287 212.344 525.338 207.392 528.989 203.741C532.64 200.09 537.592 198.039 542.755 198.039C547.918 198.039 552.87 200.09 556.521 203.741C560.172 207.392 562.223 212.344 562.223 217.507Z" fill="#DEB6BC"/>
<path d="M558.073 224.375L557.212 249.425L540.832 255.897C540.832 255.897 539.225 230.247 536.958 228.825C534.69 227.403 558.073 224.375 558.073 224.375Z" fill="#DEB6BC"/>
<path d="M536.831 258.979C536.831 258.979 559.684 236.126 565.609 236.973C571.534 237.819 571.534 240.359 571.534 242.051C571.534 243.744 569.841 244.591 571.534 245.437C573.227 246.283 574.919 245.437 574.919 247.976C574.919 250.515 590.155 275.908 585.076 303.839C579.998 331.77 574.073 345.313 576.612 360.548C579.151 375.783 577.459 379.169 577.459 379.169C577.459 379.169 513.978 384.248 513.132 378.323C512.285 372.398 515.671 375.783 511.439 371.551C507.207 367.319 508.9 367.319 508.9 364.78C508.9 362.241 527.521 258.979 536.831 258.979Z" fill="#003269"/>
<path d="M548.68 374.091C548.68 374.091 538.523 398.637 530.905 392.712C523.288 386.787 534.291 366.473 534.291 366.473L548.68 374.091Z" fill="white"/>
<path d="M573.226 260.672C573.226 260.672 593.112 262.949 585.708 299.476C578.304 336.003 549.526 378.323 549.526 378.323L530.059 369.012L555.451 319.074L549.526 287.757C549.526 287.757 546.141 258.133 573.226 260.672Z" fill="#003269"/>
<path opacity="0.2" d="M555.876 319.498L527.944 366.05L530.483 368.589L555.876 319.498Z" fill="black"/>
<path opacity="0.2" d="M570.659 341.191L548.257 377.899H555.875L570.659 341.191Z" fill="black"/>
<path opacity="0.2" d="M520.055 407.9L518.93 408.33L541.203 466.728L542.329 466.299L520.055 407.9Z" fill="black"/>
<path d="M536.949 263.627C537.614 263.627 538.153 263.088 538.153 262.423C538.153 261.758 537.614 261.219 536.949 261.219C536.284 261.219 535.745 261.758 535.745 262.423C535.745 263.088 536.284 263.627 536.949 263.627Z" fill="white"/>
<path d="M526.718 296.137C526.846 296.137 526.972 296.096 527.075 296.019C527.179 295.943 527.255 295.835 527.293 295.712L537.527 262.601C537.551 262.525 537.559 262.446 537.552 262.367C537.545 262.288 537.522 262.212 537.485 262.141C537.449 262.071 537.398 262.009 537.337 261.959C537.277 261.908 537.206 261.87 537.131 261.847C537.055 261.823 536.976 261.815 536.897 261.823C536.818 261.83 536.741 261.853 536.672 261.89C536.602 261.927 536.54 261.977 536.489 262.038C536.439 262.099 536.401 262.169 536.377 262.245L526.143 295.357C526.115 295.447 526.109 295.543 526.125 295.636C526.141 295.728 526.178 295.816 526.234 295.892C526.29 295.968 526.363 296.03 526.447 296.072C526.531 296.115 526.624 296.137 526.718 296.137Z" fill="white"/>
<path d="M538.854 232.417L533.989 237.045C528.978 234.524 524.139 227.73 522.773 222.162L529.156 219.487C529.573 225.166 533.604 228.942 538.854 232.417Z" fill="white"/>
<path d="M540.067 221.911C540.047 221.911 540.028 221.91 540.009 221.907L528.695 220.291C528.643 220.284 528.592 220.266 528.546 220.239C528.501 220.212 528.461 220.176 528.429 220.134C528.397 220.091 528.374 220.043 528.361 219.992C528.347 219.94 528.344 219.887 528.352 219.834C528.359 219.782 528.377 219.731 528.404 219.685C528.431 219.64 528.467 219.6 528.509 219.568C528.552 219.536 528.6 219.513 528.651 219.5C528.703 219.486 528.756 219.483 528.809 219.491L540.123 221.107C540.224 221.122 540.316 221.174 540.38 221.253C540.444 221.333 540.476 221.433 540.469 221.535C540.462 221.637 540.416 221.733 540.342 221.803C540.267 221.872 540.169 221.911 540.067 221.911Z" fill="white"/>
<path d="M538.45 232.417C538.379 232.417 538.31 232.399 538.248 232.364C538.187 232.329 538.136 232.278 538.101 232.217C538.065 232.156 538.046 232.087 538.046 232.017C538.045 231.946 538.063 231.877 538.098 231.815L541.846 225.142C541.872 225.095 541.907 225.054 541.949 225.022C541.991 224.989 542.038 224.964 542.09 224.95C542.141 224.936 542.194 224.931 542.247 224.938C542.3 224.944 542.351 224.961 542.397 224.987C542.443 225.013 542.484 225.048 542.517 225.09C542.55 225.131 542.574 225.179 542.588 225.23C542.602 225.282 542.606 225.335 542.6 225.388C542.593 225.441 542.576 225.492 542.55 225.538L538.802 232.211C538.767 232.274 538.715 232.326 538.654 232.362C538.592 232.398 538.521 232.417 538.45 232.417Z" fill="white"/>
<path d="M551.566 229.204C549.99 228.37 548.159 228.198 546.454 227.681C540.351 225.828 536.262 218.928 537.567 212.685C537.809 211.885 537.917 211.05 537.888 210.214C537.66 208.365 535.768 207.172 533.954 206.748C532.139 206.325 530.209 206.386 528.475 205.705C525.798 204.653 524.019 201.901 523.634 199.051C523.248 196.2 524.094 193.293 525.47 190.767L526.125 192.652C527.124 191.806 527.866 190.697 528.266 189.45C529.011 189.575 529.711 189.889 530.3 190.363C530.888 190.836 531.345 191.452 531.627 192.153C532.679 192.773 532.831 190.226 533.993 189.85C534.479 189.693 534.98 189.992 535.443 190.208C537.784 191.3 540.504 190.366 543.016 189.761C547.365 188.718 551.898 188.712 556.25 189.745C559.141 190.435 562.002 191.635 564.071 193.769C565.769 195.522 566.828 197.788 567.729 200.056C569.948 205.64 571.414 211.682 570.681 217.645C570.071 222.526 568.03 227.116 564.814 230.837C563.139 232.767 557.673 239.501 554.676 238.353C550.911 236.91 556.003 231.549 551.566 229.204Z" fill="#2F2E41"/>
</svg>
