<svg width="400" height="354" viewBox="0 0 400 354" fill="none" xmlns="http://www.w3.org/2000/svg">
<g clip-path="url(#clip0)">
<path d="M162.013 54.0603L162.013 99.5001L162.013 131.5C162.013 131.5 189.5 162 243.507 127.484C243.507 127.484 265 111 298.083 123.267L288.407 52.7981C288.407 52.7981 266.043 29.6927 216.304 55.623C216.301 55.621 188.236 74.851 162.013 54.0603Z" fill="#5D76B7"/>
<path d="M208.803 69.6394L207.829 75.0125L202.995 76.2902L206.831 77.9174L205.817 82.7631L209.546 78.7514L213.035 80.4076L211.464 76.3038L214.667 72.337L210.372 73.7467L208.803 69.6394Z" fill="#FFD037"/>
<path d="M223.203 60.1748L222.198 65.1954L217.583 66.9845L221.202 68.0969L220.713 72.9011L223.874 68.4103L227.697 69.8606L225.806 66.1362L228.85 62.3575L225.093 63.8991L223.203 60.1748Z" fill="#FFD037"/>
<path d="M238.012 57.9046L237.492 62.3563L232.73 64.5104L236.497 65.2633L235.977 69.715L239.545 65.8947L243.545 67.3325L241.288 63.4562L245.033 59.6234L240.241 61.4251L238.012 57.9046Z" fill="#FFD037"/>
<path d="M249.464 64.1997L248.947 68.6535L243.935 69.9471L248.095 71.1935L247.402 75.6597L251.147 71.8269L255.159 73.4416L252.96 70.2682L256.688 66.2564L251.694 67.7256L249.464 64.1997Z" fill="#FFD037"/>
<path d="M255.039 76.2712L254.519 80.723L249.51 82.0186L253.671 83.265L252.977 87.7312L256.719 83.8964L260.731 85.5111L258.532 82.3377L262.264 78.3279L257.266 79.7951L255.039 76.2712Z" fill="#FFD037"/>
<path d="M254.171 89.3975L253.651 93.8492L248.642 95.1449L252.799 96.3893L252.109 100.858L255.851 97.0227L259.863 98.6374L257.664 95.464L261.396 91.4542L256.398 92.9214L254.171 89.3975Z" fill="#FFD037"/>
<path d="M242.332 104.303L241.842 109.107L236.085 112.049L240.712 112.551L240.356 116.813L243.883 112.469L248.701 113.132L246.122 109.638L249.484 105.484L245.234 107.419L242.332 104.303Z" fill="#FFD037"/>
<path d="M227.972 116.415L226.959 121.261L221.727 124.157L226.179 124.677L225.498 129.32L229.173 124.608L233.433 124.967L231.234 121.793L234.921 117.257L230.333 119.397L227.972 116.415Z" fill="#FFD037"/>
<path d="M212.008 119.66L210.845 124.869L205.366 126.907L208.985 128.019L208.293 132.491L212.022 128.479L216.123 129.026L214.612 125.622L218.285 120.913L213.711 123.226L212.008 119.66Z" fill="#FFD037"/>
<path d="M200.159 114.984L198.822 120.207L193.779 121.148L197.282 122.978L196.209 127.124L199.983 123.639L204.156 125.062L202.777 121.119L205.821 117.34L201.861 118.549L200.159 114.984Z" fill="#FFD037"/>
<path d="M194.965 101.115L193.791 106.152L188.005 106.623L192.281 109.275L190.565 114.179L195.009 110.286L199.242 112.409L197.498 108.32L201.885 103.725L196.333 104.886L194.965 101.115Z" fill="#FFD037"/>
<path d="M199.578 84.1559L198.404 89.193L192.618 89.6644L196.896 92.313L195.178 97.2196L199.624 93.3239L203.855 95.45L202.107 91.3587L206.497 86.7655L200.948 87.9238L199.578 84.1559Z" fill="#FFD037"/>
<path d="M237.764 102.538L235.056 89.7504C235.015 89.5548 234.936 89.3693 234.823 89.2045C234.71 89.0396 234.565 88.8986 234.398 88.7896C234.23 88.6805 234.043 88.6056 233.846 88.5689C233.65 88.5323 233.448 88.5347 233.253 88.5761L232.322 88.7818L231.193 83.4285C231.088 82.9308 230.886 82.4587 230.598 82.0391C230.311 81.6195 229.943 81.2606 229.517 80.983C229.091 80.7054 228.614 80.5145 228.114 80.4212C227.614 80.3278 227.101 80.3339 226.603 80.439L220.336 81.7606C219.838 81.8657 219.366 82.0677 218.946 82.3553C218.527 82.6428 218.168 83.0102 217.89 83.4364C217.613 83.8627 217.422 84.3394 217.328 84.8394C217.235 85.3395 217.241 85.853 217.346 86.3507L218.475 91.704L217.54 91.9023C217.344 91.9436 217.159 92.023 216.994 92.136C216.829 92.249 216.688 92.3933 216.579 92.5608C216.47 92.7283 216.395 92.9156 216.358 93.1121C216.322 93.3085 216.324 93.5103 216.366 93.7058L219.074 106.493C219.115 106.689 219.194 106.874 219.307 107.039C219.42 107.204 219.565 107.345 219.732 107.454C219.9 107.563 220.087 107.638 220.283 107.675C220.48 107.711 220.682 107.709 220.877 107.667L236.588 104.354C236.785 104.313 236.972 104.233 237.138 104.119C237.304 104.006 237.446 103.86 237.555 103.691C237.664 103.522 237.739 103.334 237.775 103.136C237.811 102.938 237.807 102.734 237.764 102.538V102.538ZM218.928 87.0115C218.823 86.5138 218.817 86.0003 218.91 85.5003C219.003 85.0003 219.194 84.5235 219.472 84.0973C219.749 83.6711 220.108 83.3037 220.528 83.0161C220.948 82.7286 221.42 82.5265 221.917 82.4215L225.443 81.6774C225.941 81.5723 226.454 81.5662 226.954 81.6596C227.454 81.7529 227.931 81.9438 228.357 82.2214C228.783 82.499 229.151 82.8579 229.438 83.2775C229.726 83.6971 229.928 84.1692 230.033 84.6669L230.96 89.0596L219.857 91.4007L218.928 87.0115ZM227.899 98.5483L228.329 100.631C228.352 100.741 228.354 100.854 228.333 100.964C228.313 101.074 228.271 101.179 228.21 101.273C228.149 101.367 228.07 101.447 227.978 101.511C227.886 101.574 227.782 101.619 227.672 101.642C227.563 101.665 227.45 101.667 227.34 101.646C227.23 101.626 227.125 101.584 227.031 101.523C226.937 101.462 226.856 101.383 226.793 101.291C226.73 101.198 226.685 101.095 226.662 100.985L226.2 98.7969C225.748 98.6635 225.355 98.3791 225.086 97.9911C224.817 97.603 224.69 97.1348 224.724 96.6642C224.759 96.1935 224.954 95.749 225.276 95.4044C225.599 95.0598 226.029 94.836 226.496 94.7702C226.964 94.7044 227.439 94.8006 227.844 95.0427C228.249 95.2849 228.559 95.6584 228.723 96.1012C228.886 96.5439 228.892 97.0292 228.742 97.4763C228.591 97.9234 228.291 98.3053 227.893 98.5586L227.899 98.5483Z" fill="url(#paint0_linear)"/>
<path d="M226.585 81.0892L220.635 82.3462C220.162 82.446 219.714 82.638 219.315 82.9112C218.917 83.1844 218.576 83.5335 218.312 83.9384C218.049 84.3434 217.867 84.7963 217.779 85.2713C217.69 85.7463 217.696 86.2341 217.796 86.7068L218.981 92.3215L220.282 92.0455L219.29 87.3446C219.19 86.8719 219.184 86.3841 219.273 85.9091C219.361 85.4341 219.543 84.9812 219.806 84.5762C220.07 84.1713 220.411 83.8222 220.809 83.549C221.208 83.2758 221.656 83.0838 222.129 82.984L225.476 82.2791C225.949 82.179 226.437 82.1731 226.912 82.2616C227.387 82.3502 227.84 82.5314 228.244 82.795C228.649 83.0586 228.998 83.3994 229.272 83.798C229.545 84.1965 229.737 84.645 229.837 85.1178L230.829 89.8186L232.13 89.5426L230.946 83.9279C230.846 83.4551 230.654 83.0067 230.381 82.6081C230.107 82.2096 229.758 81.8687 229.353 81.6051C228.949 81.3415 228.496 81.1603 228.021 81.0718C227.546 80.9832 227.058 80.9892 226.585 81.0892V81.0892Z" fill="#F0F5FA"/>
<path d="M232.901 88.8273L217.982 91.9698C217.607 92.0488 217.279 92.2736 217.069 92.5947C216.86 92.9159 216.786 93.3071 216.865 93.6824L219.429 105.822C219.508 106.197 219.733 106.526 220.054 106.736C220.375 106.945 220.766 107.018 221.141 106.939L236.07 103.789C236.445 103.71 236.773 103.485 236.983 103.164C237.192 102.842 237.266 102.451 237.187 102.076L234.627 89.9524C234.589 89.7645 234.514 89.586 234.407 89.4273C234.299 89.2687 234.161 89.1331 234 89.0284C233.839 88.9237 233.659 88.852 233.471 88.8174C233.282 88.7829 233.088 88.7862 232.901 88.8273V88.8273ZM227.807 98.2936L228.221 100.262C228.244 100.365 228.245 100.472 228.226 100.576C228.208 100.679 228.168 100.779 228.111 100.867C228.054 100.956 227.98 101.033 227.893 101.093C227.806 101.153 227.708 101.196 227.605 101.218C227.502 101.24 227.395 101.242 227.291 101.223C227.187 101.204 227.088 101.165 226.999 101.108C226.911 101.051 226.834 100.976 226.774 100.89C226.714 100.803 226.671 100.705 226.649 100.602L226.215 98.5166C225.785 98.3895 225.412 98.1189 225.157 97.75C224.902 97.381 224.781 96.9359 224.815 96.4888C224.848 96.0417 225.034 95.6194 225.34 95.2924C225.647 94.9653 226.057 94.7532 226.501 94.6913C226.945 94.6294 227.397 94.7214 227.781 94.9521C228.166 95.1828 228.46 95.5382 228.614 95.9591C228.768 96.3801 228.774 96.8413 228.63 97.2658C228.486 97.6904 228.2 98.0528 227.822 98.2927L227.807 98.2936Z" fill="#F0F5FA"/>
<ellipse cx="163.5" cy="300" rx="7.5" ry="1" fill="#096399"/>
<rect x="161" y="50.0001" width="6" height="250" fill="#F0F5FA"/>
<path d="M84.2982 244.36C84.2982 244.36 79.0309 226.485 85.2873 213.321C87.9456 207.818 88.747 201.601 87.5713 195.604C86.9914 192.762 86.1524 189.979 85.0648 187.29" stroke="#535461" stroke-width="2" stroke-miterlimit="10"/>
<path d="M88.9498 178.972C88.9498 181.165 84.9775 187.517 84.9775 187.517C84.9775 187.517 81.0052 181.161 81.0052 178.972C81.0052 177.919 81.4238 176.908 82.1687 176.163C82.9136 175.419 83.924 175 84.9775 175C86.031 175 87.0414 175.419 87.7863 176.163C88.5313 176.908 88.9498 177.919 88.9498 178.972V178.972Z" fill="#0A6EAA"/>
<path d="M95.5078 191.108C94.3161 192.947 87.5315 196.125 87.5315 196.125C87.5315 196.125 87.6546 188.633 88.8463 186.794C89.4404 185.962 90.3323 185.391 91.3366 185.2C92.3408 185.009 93.38 185.212 94.238 185.768C95.0961 186.324 95.7069 187.189 95.9434 188.183C96.1799 189.178 96.0239 190.225 95.5078 191.108V191.108Z" fill="#0A6EAA"/>
<path d="M95.222 211.851C93.2636 212.836 85.8037 212.157 85.8037 212.157C85.8037 212.157 89.6926 205.753 91.6469 204.768C92.5801 204.347 93.6401 204.302 94.6057 204.643C95.5713 204.984 96.3678 205.685 96.829 206.599C97.2903 207.513 97.3806 208.57 97.0812 209.55C96.7817 210.529 96.1157 211.355 95.222 211.855V211.851Z" fill="#0A6EAA"/>
<path d="M91.472 227.498C89.7084 228.801 82.2405 229.388 82.2405 229.388C82.2405 229.388 84.9893 222.421 86.753 221.118C87.6016 220.552 88.6355 220.334 89.6405 220.509C90.6454 220.685 91.5444 221.24 92.151 222.06C92.7577 222.88 93.0256 223.902 92.8992 224.915C92.7728 225.927 92.2618 226.852 91.472 227.498V227.498Z" fill="#0A6EAA"/>
<path d="M79.2058 196.554C80.7947 198.079 88.0997 199.664 88.0997 199.664C88.0997 199.664 86.3082 192.391 84.7352 190.865C84.3691 190.469 83.926 190.151 83.433 189.931C82.94 189.712 82.4074 189.595 81.8676 189.588C81.3279 189.581 80.7925 189.684 80.294 189.891C79.7954 190.098 79.3443 190.404 78.9681 190.791C78.5918 191.178 78.2985 191.638 78.1058 192.142C77.9131 192.646 77.8252 193.184 77.8475 193.723C77.8697 194.263 78.0017 194.792 78.2352 195.278C78.4687 195.765 78.799 196.199 79.2058 196.554V196.554Z" fill="#0A6EAA"/>
<path d="M75.0507 214.902C77.009 215.887 84.469 215.207 84.469 215.207C84.469 215.207 80.5801 208.804 78.6258 207.819C78.158 207.557 77.6421 207.393 77.1092 207.336C76.5763 207.279 76.0373 207.33 75.5248 207.487C75.0122 207.644 74.5367 207.902 74.1268 208.248C73.7169 208.593 73.3812 209.018 73.1397 209.496C72.8983 209.975 72.7563 210.497 72.7221 211.032C72.6879 211.567 72.7623 212.103 72.9409 212.609C73.1194 213.114 73.3984 213.578 73.761 213.973C74.1235 214.368 74.5623 214.685 75.0507 214.906V214.902Z" fill="#0A6EAA"/>
<path d="M73.4578 233.293C75.2215 234.596 82.6893 235.184 82.6893 235.184C82.6893 235.184 79.9405 228.217 78.1768 226.914C77.3282 226.347 76.2943 226.129 75.2894 226.305C74.2844 226.48 73.3855 227.036 72.7788 227.856C72.1721 228.676 71.9042 229.698 72.0306 230.71C72.157 231.723 72.668 232.647 73.4578 233.293V233.293Z" fill="#0A6EAA"/>
<path d="M72.4489 243.347C72.4489 243.347 81.3507 243.073 84.032 241.162C86.7133 239.252 97.7244 236.972 98.3878 240.034C99.0512 243.097 111.762 255.272 101.701 255.343C91.6389 255.415 78.3516 253.778 75.6743 252.165C72.997 250.553 72.4489 243.347 72.4489 243.347Z" fill="#A8A8A8"/>
<path opacity="0.2" d="M101.891 254.287C91.8414 254.366 78.5423 252.722 75.865 251.109C73.8272 249.865 73.0129 245.413 72.7427 243.355H72.4448C72.4448 243.355 73.0089 250.533 75.6862 252.165C78.3635 253.798 91.6627 255.443 101.713 255.343C104.612 255.319 105.613 254.287 105.562 252.761C105.157 253.691 104.052 254.267 101.891 254.287Z" fill="black"/>
<path d="M116.779 254.357C117.507 253.763 118.037 252.963 118.3 252.061C118.499 251.147 118.109 250.055 117.235 249.721C116.258 249.348 115.213 250.023 114.423 250.71C113.632 251.397 112.723 252.176 111.686 252.029C112.219 251.546 112.618 250.933 112.843 250.25C113.069 249.567 113.113 248.838 112.973 248.132C112.928 247.84 112.805 247.565 112.616 247.338C112.071 246.758 111.09 247.008 110.439 247.465C108.373 248.919 107.797 251.723 107.785 254.249C107.579 253.34 107.754 252.39 107.746 251.469C107.738 250.547 107.483 249.483 106.697 248.998C106.209 248.736 105.661 248.606 105.108 248.621C104.179 248.585 103.146 248.68 102.51 249.36C101.716 250.202 101.926 251.62 102.613 252.537C103.301 253.455 104.341 254.047 105.303 254.69C106.073 255.148 106.73 255.774 107.225 256.522C107.283 256.625 107.331 256.734 107.368 256.847H113.188C114.491 256.183 115.699 255.345 116.779 254.357Z" fill="#0A6EAA"/>
<path d="M269.268 170.188C269.268 170.188 252.648 186.808 262.031 211.468C271.414 236.128 245.947 277.138 245.947 277.138C245.947 277.138 246.221 277.098 246.742 277.011C280.875 270.985 297.833 231.949 278.854 202.947C271.783 192.163 265.991 179.515 269.268 170.188Z" fill="#0A6EAA"/>
<path opacity="0.1" d="M269.269 170.462C269.269 170.462 252.648 187.082 262.031 211.742C271.414 236.402 245.947 277.412 245.947 277.412C245.947 277.412 246.221 277.372 246.742 277.285C280.86 271.259 297.817 232.207 278.838 203.21C271.783 192.441 265.991 179.773 269.269 170.462Z" fill="black"/>
<path d="M269.268 170.188C269.268 170.188 259.886 190.558 269.268 207.178C278.651 223.798 270.857 270.436 245.947 277.138" stroke="#535461" stroke-miterlimit="10"/>
<path d="M298.866 237.403C298.866 237.403 279.902 234.384 278.174 251.377C276.446 268.371 241.709 270.738 241.709 270.738L242.36 271.171C271.04 290 298.461 283.164 294.325 258.162C292.792 248.863 292.915 239.528 298.866 237.403Z" fill="#0A6EAA"/>
<path d="M298.866 237.403C298.866 237.403 284.145 240.632 285.36 254.019C286.576 267.406 263.497 283.45 241.709 270.738" stroke="#535461" stroke-miterlimit="10"/>
<path d="M282.182 271.35C282.182 271.35 267.247 268.355 263.263 264.383C259.278 260.41 241.355 253.431 239.365 258.424C237.375 263.417 212.481 280.311 229.395 283.299C246.309 286.286 269.225 287.271 274.202 285.285C279.179 283.299 282.182 271.35 282.182 271.35Z" fill="#A8A8A8"/>
<path opacity="0.2" d="M229.395 281.463C246.325 284.451 269.225 285.436 274.202 283.45C277.996 281.932 280.629 274.647 281.67 271.255L282.166 271.358C282.166 271.358 279.179 283.307 274.202 285.297C269.225 287.287 246.321 286.294 229.395 283.311C224.509 282.449 223.111 280.423 223.639 277.861C224.068 279.521 225.772 280.808 229.395 281.463Z" fill="black"/>
</g>
<defs>
<linearGradient id="paint0_linear" x1="20813.1" y1="1969.77" x2="20660.8" y2="105.037" gradientUnits="userSpaceOnUse">
<stop stop-color="#808080" stop-opacity="0.25"/>
<stop offset="0.54" stop-color="#808080" stop-opacity="0.12"/>
<stop offset="1" stop-color="#808080" stop-opacity="0.1"/>
</linearGradient>
<clipPath id="clip0">
<rect width="400" height="353.187" fill="white"/>
</clipPath>
</defs>
</svg>
