<svg width="288" height="218" viewBox="0 0 288 218" fill="none" xmlns="http://www.w3.org/2000/svg">
<path d="M217.838 6.62567H82.7397V180.368H217.838V6.62567Z" fill="#E6E8EC"/>
<path d="M183.415 38.0761H114.443V38.8511H183.415V38.0761Z" fill="#3F3D56"/>
<path d="M183.415 43.5009H114.443V44.2759H183.415V43.5009Z" fill="#3F3D56"/>
<path d="M183.415 48.9258H114.443V49.7007H183.415V48.9258Z" fill="#3F3D56"/>
<path d="M183.415 78.4764H114.443V79.2514H183.415V78.4764Z" fill="#0A6EAA"/>
<path d="M183.415 83.9012H114.443V84.6762H183.415V83.9012Z" fill="#0A6EAA"/>
<path d="M183.415 89.326H114.443V90.101H183.415V89.326Z" fill="#3F3D56"/>
<path d="M183.415 103.04H114.443V103.815H183.415V103.04Z" fill="#3F3D56"/>
<path d="M183.415 108.465H114.443V109.24H183.415V108.465Z" fill="#3F3D56"/>
<path d="M183.415 113.889H114.443V114.664H183.415V113.889Z" fill="#3F3D56"/>
<path d="M183.415 127.603H114.443V128.378H183.415V127.603Z" fill="#3F3D56"/>
<path d="M183.415 133.028H114.443V133.803H183.415V133.028Z" fill="#0A6EAA"/>
<path d="M183.415 138.453H114.443V139.228H183.415V138.453Z" fill="#3F3D56"/>
<path d="M183.415 152.167H114.443V152.942H183.415V152.167Z" fill="#3F3D56"/>
<path d="M183.415 157.591H114.443V158.366H183.415V157.591Z" fill="#3F3D56"/>
<path d="M183.415 163.016H114.443V163.791H183.415V163.016Z" fill="#3F3D56"/>
<path d="M227.373 192.952H82.2549V0H227.373V192.952ZM82.9013 192.305H226.726V0.646405H82.9013V192.305Z" fill="#3F3D56"/>
<path d="M195.215 15.0289C195.215 14.2919 195.409 13.5679 195.778 12.9298C196.146 12.2917 196.677 11.762 197.315 11.394C196.677 11.0237 195.952 10.8283 195.214 10.8273C194.475 10.8263 193.75 11.0198 193.11 11.3883C192.471 11.7568 191.94 12.2873 191.57 12.9265C191.201 13.5656 191.006 14.2907 191.006 15.0289C191.006 15.7671 191.201 16.4922 191.57 17.1313C191.94 17.7705 192.471 18.301 193.11 18.6695C193.75 19.038 194.475 19.2315 195.214 19.2305C195.952 19.2295 196.677 19.0341 197.315 18.6638C196.677 18.2958 196.146 17.7661 195.778 17.128C195.409 16.4899 195.215 15.7659 195.215 15.0289V15.0289Z" fill="#3F3D56"/>
<path d="M200.709 15.0289C200.709 14.2919 200.903 13.5679 201.272 12.9298C201.641 12.2917 202.171 11.762 202.809 11.394C202.171 11.0237 201.446 10.8283 200.708 10.8273C199.97 10.8263 199.244 11.0198 198.605 11.3883C197.965 11.7568 197.434 12.2873 197.064 12.9265C196.695 13.5656 196.5 14.2907 196.5 15.0289C196.5 15.7671 196.695 16.4922 197.064 17.1313C197.434 17.7705 197.965 18.301 198.605 18.6695C199.244 19.038 199.97 19.2315 200.708 19.2305C201.446 19.2295 202.171 19.0341 202.809 18.6638C202.171 18.2958 201.641 17.7661 201.272 17.128C200.903 16.4899 200.709 15.7659 200.709 15.0289V15.0289Z" fill="#0A6EAA"/>
<path d="M206.203 19.2305C208.524 19.2305 210.405 17.3494 210.405 15.0289C210.405 12.7084 208.524 10.8273 206.203 10.8273C203.883 10.8273 202.001 12.7084 202.001 15.0289C202.001 17.3494 203.883 19.2305 206.203 19.2305Z" fill="#3F3D56"/>
<path d="M109.566 51.874C109.564 58.1844 107.853 64.3766 104.615 69.7925C101.376 75.2084 96.7307 79.6458 91.1722 82.6332C90.7553 82.8594 90.3319 83.0759 89.902 83.2828C85.1319 85.5935 79.8988 86.7893 74.5985 86.7798C69.2982 86.7703 64.0694 85.5557 59.3077 83.2279C58.4867 82.8271 57.6852 82.394 56.903 81.9286C56.108 81.4632 55.3355 80.9622 54.5857 80.4322C49.6546 76.9651 45.7053 72.2804 43.1221 66.8341C40.5389 61.3878 39.4099 55.3654 39.845 49.3532C40.2801 43.3411 42.2644 37.544 45.6049 32.5263C48.9453 27.5087 53.528 23.4414 58.9069 20.7205C61.0316 19.6406 63.2629 18.7849 65.5649 18.1672C66.5797 17.8925 67.6118 17.6641 68.6611 17.482C70.6422 17.1385 72.6492 16.9665 74.6598 16.9682C75.0735 16.9682 75.484 16.9746 75.8944 16.994C76.195 17.0005 76.4956 17.0134 76.7962 17.0328C79.9384 17.2206 83.0405 17.8349 86.0171 18.8589C86.2725 18.9462 86.5278 19.0366 86.7799 19.1304C87.659 19.4536 88.5187 19.8134 89.359 20.2099C95.3958 23.0117 100.506 27.4812 104.086 33.0915C107.666 38.7017 109.567 45.2187 109.566 51.874Z" fill="#0A6EAA"/>
<path d="M88.2841 16.1795C85.1083 8.68633 77.0243 7.27117 77.0243 7.27117C77.0243 7.27117 69.2405 5.19463 62.7401 15.084C56.6811 24.3018 48.8677 32.938 58.7766 36.6173L61.3941 31.1202L61.7081 37.4464C63.149 37.7465 64.6052 37.9675 66.0703 38.1084C77.0612 39.225 87.4219 41.0815 87.6138 37.1095C87.8689 31.8292 91.3398 23.3894 88.2841 16.1795Z" fill="#2F2E41"/>
<path d="M60.0578 77.2486L59.7992 79.3235L59.3079 83.2278C58.487 82.827 57.6854 82.3939 56.9033 81.9285C56.1082 81.4631 55.3358 80.9622 54.5859 80.4321L54.6635 78.4186L54.7508 76.1852L58.3383 76.906L60.0578 77.2486Z" fill="#FFB8B8"/>
<path d="M96.1689 79.3688C94.5995 80.5975 92.9278 81.6896 91.1722 82.6331L89.4786 76.767L89.2556 75.9946L88.6997 74.065L89.2976 73.9713L95.4191 73.0049L95.6163 74.6694L96.1689 79.3688Z" fill="#FFB8B8"/>
<path d="M77.0296 31.6307C82.3026 31.6307 86.5772 27.3561 86.5772 22.0831C86.5772 16.8101 82.3026 12.5355 77.0296 12.5355C71.7566 12.5355 67.4819 16.8101 67.4819 22.0831C67.4819 27.3561 71.7566 31.6307 77.0296 31.6307Z" fill="#FFB8B8"/>
<path d="M70.488 25.796C70.488 25.796 71.1952 37.819 69.0735 38.5262C66.9518 39.2334 80.0356 38.5262 80.0356 38.5262C80.0356 38.5262 78.2676 31.1003 80.0356 28.9786C81.8037 26.8569 70.488 25.796 70.488 25.796Z" fill="#FFB8B8"/>
<path d="M80.212 36.5814C80.212 36.5814 71.018 35.8741 69.2499 36.5814C67.4819 37.2886 62.5312 40.8247 62.5312 40.8247L65.0066 63.1025L85.1627 67.3459L88.3452 62.7489L91.5277 56.0302L90.1133 47.5434L89.7597 42.5928L80.212 36.5814Z" fill="white"/>
<path d="M60.7636 42.2392C60.7636 42.2392 56.1666 43.3 55.813 46.8362C55.4594 50.3724 55.4594 59.2128 55.813 60.6272C56.1666 62.0417 55.813 62.7489 55.4594 63.1025C55.1058 63.4561 54.3985 62.7489 55.1058 63.8098C55.813 64.8706 55.813 64.8706 55.4594 65.9315C55.1058 66.9923 54.0449 65.5778 54.7522 67.3459C55.4594 69.114 55.813 69.4676 55.4594 69.8212C55.1058 70.1748 54.0449 78.308 54.0449 78.308L60.0564 79.3689L66.0679 58.5055L60.7636 42.2392Z" fill="white"/>
<path d="M88.3454 42.2392C89.017 42.2767 89.6663 42.4932 90.2259 42.8663C90.7855 43.2394 91.2351 43.7554 91.528 44.3609C92.5888 46.4826 95.4178 60.2736 95.0641 61.3345C94.7105 62.3953 94.0033 60.9808 94.7105 63.1025C95.4177 65.2242 94.7105 64.8706 95.0641 66.2851C95.4178 67.6995 93.6497 66.2851 95.0641 67.6995C96.4786 69.114 97.1858 69.4676 96.4786 70.1749C95.7714 70.8821 94.7105 69.4676 95.7714 70.8821C96.8322 72.2965 96.8322 74.4182 96.8322 74.4182L88.3454 76.1863L85.8701 56.3838L88.3454 42.2392Z" fill="white"/>
<path d="M89.4789 76.767L89.9023 83.2828C85.1322 85.5935 79.8991 86.7893 74.5988 86.7798C69.2985 86.7703 64.0697 85.5557 59.3079 83.2278C58.487 82.827 57.6855 82.3939 56.9033 81.9285C57.1748 80.9299 57.4495 79.9344 57.7307 78.9583C57.9311 78.2634 58.1336 77.5793 58.3383 76.906C59.9253 71.7121 61.635 67.2939 63.2381 65.5777C63.2381 65.5777 63.2381 61.6896 63.9459 61.3341C64.2861 61.0675 64.5457 60.7117 64.6957 60.3063C64.9592 59.7224 65.1817 59.1209 65.3615 58.5061L64.1915 55.7847L58.9557 43.5935C58.8066 43.2448 58.7962 42.8524 58.9265 42.4962C59.0568 42.1401 59.3181 41.8471 59.657 41.6769L61.3926 40.8075C61.5684 40.7202 61.7598 40.6685 61.9557 40.6554C62.1515 40.6423 62.3481 40.668 62.534 40.7311C62.7199 40.7942 62.8915 40.8934 63.0389 41.0229C63.1864 41.1525 63.3068 41.31 63.3932 41.4862L71.3731 57.7983L80.2127 63.4575L86.4117 60.7006L86.5765 60.6263C86.5765 60.6263 91.1757 53.5546 89.7601 50.0188C89.1557 48.5094 88.4899 46.4926 87.9178 44.673C87.5849 43.6 87.2876 42.5948 87.0549 41.8062C87.0182 41.681 87.021 41.5474 87.0628 41.4238C87.1046 41.3002 87.1834 41.1924 87.2886 41.1151C87.3938 41.0378 87.5202 40.9947 87.6507 40.9918C87.7812 40.9888 87.9094 41.026 88.018 41.0984L89.2236 41.9032C89.4968 42.0865 89.713 42.343 89.8473 42.6433C89.9031 42.7607 89.9444 42.8844 89.9702 43.0118L92.5881 55.6781L89.0523 63.102V70.1737L89.2979 73.9713L89.4272 75.959L89.4789 76.767Z" fill="#2F2E41"/>
<path d="M86.4887 13.4571L78.387 9.2135L67.1991 10.9494L64.8843 21.173L70.6463 20.9516L72.2562 17.1953V20.8895L74.9149 20.7874L76.4582 14.8075L77.4226 21.173L86.8746 20.9803L86.4887 13.4571Z" fill="#2F2E41"/>
<path d="M67.305 23.9396C67.8909 23.9396 68.3658 23.1084 68.3658 22.0831C68.3658 21.0578 67.8909 20.2266 67.305 20.2266C66.7191 20.2266 66.2441 21.0578 66.2441 22.0831C66.2441 23.1084 66.7191 23.9396 67.305 23.9396Z" fill="#FFB8B8"/>
<path d="M278.79 109.748C278.79 125.24 268.325 138.351 253.904 142.739C251.775 143.39 249.589 143.841 247.375 144.083C246.024 144.234 244.665 144.31 243.305 144.31C242.799 144.31 242.296 144.3 241.796 144.275H241.79C236.716 144.077 231.742 142.808 227.195 140.55C224 138.963 221.063 136.905 218.481 134.444C215.118 131.268 212.438 127.441 210.605 123.195C208.772 118.948 207.824 114.373 207.819 109.748C207.819 95.1004 217.174 82.5812 230.382 77.5505C231.962 76.9463 233.584 76.4564 235.235 76.0848C241.317 74.7105 247.65 74.9143 253.631 76.6768C254.085 76.8048 254.535 76.9489 254.979 77.1025C254.982 77.1025 254.985 77.1057 254.988 77.1057C256.055 77.4644 257.104 77.8767 258.129 78.3409C258.481 78.4946 258.833 78.6578 259.178 78.8306C259.868 79.1634 260.544 79.5208 261.208 79.9027C261.464 80.0467 261.717 80.1939 261.967 80.3475C266.043 82.8005 269.581 86.0533 272.366 89.9097C274.9 93.4159 276.74 97.3741 277.788 101.571C278.456 104.245 278.792 106.991 278.79 109.748Z" fill="#0A6EAA"/>
<path d="M281.591 53.6788L286.449 52.2036L286.868 48.0366C286.868 48.0366 275.053 43.6896 271.276 51.3786C269.942 54.0935 268.261 55.724 266.644 56.6973C265.528 57.3428 264.283 57.7335 262.999 57.8412C261.714 57.949 260.421 57.7712 259.213 57.3206C251.025 54.4079 249.097 62.691 249.097 62.691C249.097 62.691 249.805 63.8701 254.852 64.1601C257.364 64.3043 259.419 66.1455 260.851 67.9588C263.915 71.8418 270.21 70.7196 271.756 66.0591C271.781 65.984 271.805 65.9079 271.829 65.8309C274.244 58.1269 285.236 64.2608 285.236 64.2608L285.938 57.2829L281.591 53.6788Z" fill="#2F2E41"/>
<path d="M248.492 72.5367C251.778 72.5367 254.441 69.9422 254.441 66.7417C254.441 63.5413 251.778 60.9468 248.492 60.9468C245.206 60.9468 242.542 63.5413 242.542 66.7417C242.542 69.9422 245.206 72.5367 248.492 72.5367Z" fill="#2F2E41"/>
<path d="M245.517 97.6481C254.279 97.6481 261.383 90.7295 261.383 82.1949C261.383 73.6603 254.279 66.7417 245.517 66.7417C236.754 66.7417 229.651 73.6603 229.651 82.1949C229.651 90.7295 236.754 97.6481 245.517 97.6481Z" fill="#2F2E41"/>
<path d="M245.021 98.453C251.045 98.453 255.929 93.6964 255.929 87.8289C255.929 81.9614 251.045 77.2048 245.021 77.2048C238.997 77.2048 234.113 81.9614 234.113 87.8289C234.113 93.6964 238.997 98.453 245.021 98.453Z" fill="#A0616A"/>
<path d="M240.724 95.8774L242.707 106.18L252.624 104.892C252.624 104.892 250.971 96.8433 251.962 94.5897L240.724 95.8774Z" fill="#A0616A"/>
<path d="M260.226 73.3414C260.226 73.3414 252.293 67.5465 248.988 69.8001C245.683 72.0537 257.913 79.4584 259.235 78.8145C260.557 78.1706 260.226 73.3414 260.226 73.3414Z" fill="#A0616A"/>
<path d="M267.829 117.124C267.83 117.178 267.827 117.231 267.822 117.284V117.287C267.618 121.889 258.921 135.973 253.904 142.739C251.775 143.391 249.589 143.841 247.375 144.083C246.024 144.234 244.665 144.31 243.304 144.31C242.798 144.31 242.296 144.3 241.796 144.275H241.79C237.17 142.822 231.683 140.914 227.681 139.41C225.795 138.697 224.238 138.076 223.259 137.634C222.894 137.485 222.544 137.302 222.214 137.087C220.561 135.797 224.198 134.831 225.851 134.511C227.504 134.188 225.191 130.648 225.191 130.648C219.24 124.529 226.511 119.38 226.511 119.38C226.511 119.38 229.485 113.262 229.485 111.652C229.493 111.532 229.538 111.418 229.613 111.325C230.858 109.61 240.725 106.503 240.725 106.503V101.35L241.747 101.184L251.801 99.5519L252.623 99.4175L254.275 101.994L261.55 102.96C261.55 102.96 267.829 111.332 267.829 117.124Z" fill="#003269"/>
<path d="M236.427 117.124C236.427 117.124 232.071 128.888 228.092 138.421C227.954 138.754 227.816 139.084 227.681 139.41C227.517 139.794 227.356 140.175 227.195 140.55C224 138.963 221.063 136.905 218.481 134.444C220.268 128.782 223.104 119.787 224.198 116.161C225.404 112.164 228.193 111.431 229.613 111.325C229.9 111.299 230.19 111.301 230.477 111.332L236.427 117.124Z" fill="#003269"/>
<path d="M260.557 103.926L261.548 102.96C261.548 102.96 274.109 89.7605 273.778 86.5411C273.778 86.5411 267.168 78.4926 258.904 80.7461C258.904 80.7461 255.268 72.0537 260.887 72.3757C266.506 72.6976 287.33 71.4098 287 80.7461C286.669 90.0824 266.837 118.735 266.837 118.735L260.557 103.926Z" fill="#003269"/>
<path d="M247.375 144.083C246.024 144.234 244.664 144.31 243.304 144.31C242.798 144.31 242.296 144.3 241.796 144.275H241.79C236.716 144.077 231.742 142.808 227.195 140.55C225.749 139.832 224.353 139.016 223.019 138.108L223.258 137.634V137.631L223.538 137.087L228.092 138.421L247.375 144.083Z" fill="white"/>
<path d="M255.879 82.9364C257.02 79.3711 253.306 74.9957 247.584 73.1638C241.861 71.3318 236.297 72.737 235.155 76.3023C234.014 79.8676 237.728 84.243 243.45 86.0749C249.173 87.9069 254.737 86.5017 255.879 82.9364Z" fill="#2F2E41"/>
<path d="M2.18582e-06 183.094C-0.000629163 184.888 0.135509 186.679 0.407235 188.453C1.71351 196.83 6.0211 204.447 12.5273 209.884C12.7051 210.033 12.8861 210.182 13.0703 210.327C13.4517 210.634 13.8395 210.933 14.2338 211.222C14.8027 211.643 15.3844 212.044 15.9791 212.428C20.6543 215.44 25.9806 217.294 31.5157 217.834C37.0508 218.375 42.6351 217.588 47.8049 215.537C48.0505 215.44 48.2961 215.34 48.5385 215.237C48.9264 215.072 49.3077 214.9 49.6891 214.719C50.6555 214.27 51.5982 213.776 52.5171 213.236C53.4641 212.683 54.3799 212.089 55.2644 211.452C55.6684 211.161 56.0594 210.867 56.4505 210.56L56.457 210.557C61.6283 206.495 65.551 201.059 67.7755 194.872V194.868C70.4342 187.424 70.4908 179.298 67.9362 171.817C65.3816 164.337 60.3665 157.943 53.7098 153.679C53.4027 153.486 53.0924 153.292 52.7789 153.111C52.4557 152.91 52.1261 152.723 51.7932 152.542C47.3129 150.056 42.3365 148.595 37.2232 148.266C36.4572 148.214 35.6848 148.188 34.9059 148.188C34.8671 148.188 34.8283 148.188 34.7895 148.191C33.7423 148.191 32.7081 148.24 31.6868 148.337C23.0234 149.139 14.972 153.148 9.11044 159.577C3.24889 166.007 -0.000188133 174.394 2.18582e-06 183.094Z" fill="#0A6EAA"/>
<path d="M70.8818 195.081C70.8818 195.081 81.0764 184.547 83.795 191.003C86.5136 197.46 73.6004 200.858 73.6004 200.858L70.8818 195.081Z" fill="#FFB8B8"/>
<path d="M13.0703 210.327C13.4517 210.634 13.8395 210.933 14.2338 211.222C14.8027 211.643 15.3844 212.044 15.9791 212.428C20.6543 215.44 25.9806 217.294 31.5157 217.834C37.0508 218.375 42.6351 217.588 47.8049 215.537C48.0505 215.44 48.2961 215.34 48.5385 215.237C48.9264 215.072 49.3078 214.9 49.6891 214.72L48.7939 213.433C48.1447 212.826 47.4176 212.307 46.6317 211.891C40.507 208.566 28.9719 208.669 21.1666 209.215C20.0547 209.293 19.0205 209.38 18.0897 209.467C17.5079 209.519 16.9649 209.574 16.4704 209.626C16.27 209.648 16.0793 209.668 15.8984 209.687C14.1563 209.881 13.1123 210.033 13.1123 210.033L13.0703 210.327Z" fill="#2F2E41"/>
<path d="M43.0243 163.206C48.4176 163.206 52.7898 158.834 52.7898 153.441C52.7898 148.048 48.4176 143.675 43.0243 143.675C37.631 143.675 33.2588 148.048 33.2588 153.441C33.2588 158.834 37.631 163.206 43.0243 163.206Z" fill="#FFB8B8"/>
<path d="M36.5604 156.682L29.4242 164.158L27.3853 175.711L45.3957 178.77L44.0364 168.235C44.0364 168.235 44.3762 163.138 45.7355 162.119C47.0948 161.099 36.5604 156.682 36.5604 156.682Z" fill="#FFB8B8"/>
<path d="M15.4907 211.054C16.0865 210.863 16.6917 210.702 17.3039 210.573C18.8446 210.238 20.4116 210.038 21.9871 209.975C25.7155 209.778 29.4352 210.499 32.8208 212.072C37.7723 214.448 43.6481 215.094 47.6881 215.217C47.9823 215.227 48.2667 215.233 48.5382 215.237C48.926 215.072 49.3074 214.9 49.6888 214.719C50.6551 214.27 51.5978 213.776 52.5168 213.236L52.5039 212.04L52.2905 188.382V188.378L52.1904 177.07L45.736 169.594L44.078 167.726L43.2894 168.434L38.5997 172.655L31.764 166.323L29.424 164.158L18.1992 201.943L16.7512 206.817L15.898 209.687L15.7654 210.127V210.13L15.4907 211.054Z" fill="white"/>
<path d="M41.5704 178.12C41.5867 179.818 41.7293 181.512 41.9971 183.188C43.1606 190.618 44.1593 202.971 46.6318 211.891C46.955 213.068 47.3073 214.18 47.6887 215.217L47.805 215.537C48.0507 215.44 48.2963 215.34 48.5387 215.237C48.9265 215.072 49.3079 214.9 49.6893 214.719C50.6557 214.27 51.5983 213.776 52.5173 213.236C53.4643 212.683 54.38 212.089 55.2645 211.452L55.1611 211.045V211.041L53.5516 204.597C53.5516 204.597 54.5858 199.203 55.4132 193.168V193.165C56.3634 186.258 57.0421 178.521 55.591 177.07L44.2045 166.653L44.2013 166.656C43.8466 167.221 43.5416 167.816 43.2899 168.434C42.5142 170.273 41.5317 173.518 41.5704 178.12Z" fill="#00AAC8"/>
<path d="M6.14404 202.874C7.94312 205.49 10.0907 207.849 12.5273 209.884C12.705 210.033 12.886 210.182 13.0703 210.327C13.4516 210.634 13.8395 210.933 14.2338 211.222C14.8026 211.643 15.3844 212.044 15.9791 212.428C16.4186 211.817 16.8614 211.197 17.3042 210.573C17.566 210.208 17.8278 209.839 18.0896 209.467C18.5033 208.879 18.917 208.288 19.3242 207.693C19.3759 207.622 19.4244 207.551 19.4729 207.48C19.99 206.733 20.5007 205.983 20.9984 205.237C24.67 199.752 27.7146 194.487 28.0636 191.342C28.4838 187.577 29.3338 181.753 30.1968 176.191C30.7527 172.577 31.315 169.074 31.7643 166.323C32.3073 162.981 32.6822 160.745 32.6822 160.745C32.6822 160.745 14.8737 158.964 12.3786 160.712H12.3754C12.3038 160.753 12.2417 160.809 12.1932 160.876C12.1447 160.943 12.111 161.019 12.0942 161.1C11.8227 162.994 13.2771 180.596 13.8783 187.706V187.709C14.0334 189.532 14.1336 190.664 14.1336 190.664C14.1336 190.664 13.1155 192.024 11.6223 194.206C10.1 196.433 8.08002 199.513 6.14404 202.874Z" fill="#00AAC8"/>
<path d="M54.5708 186.586L56.2699 199.839L71.222 193.382L75.9795 203.237L51.5125 212.412C51.5125 212.412 47.0948 188.965 54.5708 186.586Z" fill="#00AAC8"/>
<path d="M52.781 155.228C52.781 155.228 54.108 153.795 53.9737 152.001C53.8852 150.98 53.9504 149.952 54.1673 148.951C54.1673 148.951 53.752 146.015 53.1387 144.313C52.5254 142.611 53.0424 142.019 50.4062 141.09C47.77 140.161 49.4482 136.8 41.6758 139.479C41.3802 139.777 41.0028 139.981 40.5912 140.066C40.1797 140.15 39.7524 140.11 39.3633 139.952C37.9283 139.426 37.0636 141.398 37.0636 141.398C37.0636 141.398 36.1686 140.663 35.6663 141.427C35.1641 142.19 32.735 140.45 31.8443 146.004C30.9536 151.559 34.0114 156.512 34.0114 156.512C34.0114 156.512 34.4404 147.624 39.4882 147.462C44.5359 147.301 50.2442 145.389 50.9522 149.132C51.3222 151.228 51.9359 153.274 52.781 155.228Z" fill="#2F2E41"/>
<path d="M12.5273 209.884C12.7051 210.033 12.8861 210.182 13.0703 210.327C13.4517 210.634 13.8395 210.933 14.2339 211.222C14.8027 211.643 15.3845 212.044 15.9791 212.428C18.8427 214.281 21.964 215.701 25.2421 216.642C26.0437 214.587 24.1238 212.03 21.9875 209.975C21.716 209.713 21.438 209.458 21.1666 209.215C20.5202 208.643 19.8834 208.126 19.3243 207.693C19.2985 207.674 19.2758 207.657 19.2532 207.638C18.1963 206.824 17.4303 206.323 17.4303 206.323L16.7516 206.817L12.5273 209.884Z" fill="#FFB8B8"/>
<path d="M0.407227 188.453C1.7135 196.83 6.02109 204.447 12.5273 209.884C12.7051 210.033 12.8861 210.182 13.0703 210.327C13.4517 210.634 13.8395 210.933 14.2338 211.222L15.7658 210.13V210.127L16.4704 209.626L19.2532 207.638L19.4729 207.48L21.6093 205.954L20.9984 205.237L18.1995 201.943L11.6224 194.206L10.0548 192.364L13.8783 187.709V187.706L17.8698 182.848L14.473 161.1C13.8297 160.763 13.0999 160.628 12.3786 160.712H12.3754C11.6062 160.845 10.8208 161.375 10.3942 162.797C9.62173 165.373 3.38392 181.026 0.407227 188.453Z" fill="#00AAC8"/>
</svg>
