<svg width="369" height="386" viewBox="0 0 369 386" fill="none" xmlns="http://www.w3.org/2000/svg">
<path d="M267.599 89.1997C255.885 77.4858 241.979 68.1938 226.674 61.8543C211.369 55.5148 194.965 52.2519 178.399 52.2519C161.834 52.2519 145.43 55.5148 130.125 61.8543C114.82 68.1939 100.914 77.4858 89.1997 89.1997C77.4859 100.914 68.1939 114.82 61.8544 130.125C55.5149 145.43 52.252 161.833 52.252 178.399C52.252 194.965 55.5149 211.369 61.8544 226.674C68.1939 241.979 77.4859 255.885 89.1997 267.599L178.399 178.399L267.599 89.1997Z" fill="white"/>
<mask id="path-2-inside-1" fill="white">
<path d="M279.078 118.339C267.364 106.625 253.458 97.3335 238.153 90.994C222.848 84.6545 206.444 81.3916 189.878 81.3916C173.313 81.3916 156.909 84.6545 141.604 90.994C126.299 97.3335 112.393 106.625 100.679 118.339C88.9649 130.053 79.6729 143.96 73.3334 159.265C66.9939 174.569 63.731 190.973 63.731 207.539C63.731 224.105 66.9939 240.509 73.3334 255.814C79.6729 271.119 88.9649 285.025 100.679 296.739L189.878 207.539L279.078 118.339Z"/>
</mask>
<path d="M279.078 118.339C267.364 106.625 253.458 97.3335 238.153 90.994C222.848 84.6545 206.444 81.3916 189.878 81.3916C173.313 81.3916 156.909 84.6545 141.604 90.994C126.299 97.3335 112.393 106.625 100.679 118.339C88.9649 130.053 79.6729 143.96 73.3334 159.265C66.9939 174.569 63.731 190.973 63.731 207.539C63.731 224.105 66.9939 240.509 73.3334 255.814C79.6729 271.119 88.9649 285.025 100.679 296.739L189.878 207.539L279.078 118.339Z" stroke="#00AAC8" stroke-width="6" mask="url(#path-2-inside-1)"/>
<path d="M126 158C126 152.477 130.477 148 136 148H308C313.523 148 318 152.477 318 158V228C318 233.523 313.523 238 308 238H136C130.477 238 126 233.523 126 228V158Z" fill="#003269"/>
<path d="M222 202.402L131.282 158.368C130.721 158.096 130.101 157.971 129.478 158.006C128.856 158.04 128.253 158.233 127.725 158.565C127.197 158.898 126.762 159.36 126.46 159.907C126.158 160.455 126 161.071 126 161.696V237.458C126 238.974 126.297 240.475 126.875 241.875C127.452 243.275 128.299 244.548 129.366 245.619C130.433 246.691 131.7 247.541 133.095 248.121C134.489 248.701 135.984 249 137.493 249H306.507C309.555 249 312.478 247.784 314.634 245.619C316.789 243.455 318 240.519 318 237.458V162.994C318 162.231 317.807 161.479 317.439 160.811C317.071 160.143 316.54 159.579 315.895 159.173C315.251 158.767 314.515 158.533 313.756 158.491C312.996 158.448 312.239 158.601 311.554 158.933L222 202.402Z" fill="#00AAC8"/>
<rect x="86.6426" y="76" width="24.7583" height="24.7583" transform="rotate(88.7453 86.6426 76)" fill="#00AAC8" fill-opacity="0.4"/>
<rect x="76.7524" y="94.7585" width="24.7583" height="24.7583" transform="rotate(88.7453 76.7524 94.7585)" fill="#00AAC8" fill-opacity="0.4"/>
</svg>
