<svg width="486" height="437" viewBox="0 0 486 437" fill="none" xmlns="http://www.w3.org/2000/svg">
<path fill-rule="evenodd" clip-rule="evenodd" d="M326.065 75.2443C319.589 79.1475 313.226 81.0333 310.24 80.2635C302.75 78.333 302.062 50.9351 307.857 40.1339C313.651 29.3328 343.442 24.625 344.943 46.0255C345.464 53.4529 342.346 60.0814 337.738 65.4901L346 104H322L326.065 75.2443Z" fill="#EDB37C"/>
<path fill-rule="evenodd" clip-rule="evenodd" d="M317.336 28.37C320.616 27.37 325.376 27.0308 327.379 27.2603C326.24 24.5308 325.788 21.4899 326.156 18.5291C326.515 15.6521 327.8 13.2024 328.989 10.6354C329.537 9.45217 330.158 8.2754 331.084 7.37038C332.027 6.44834 333.222 5.83973 334.474 5.54937C335.755 5.25215 337.095 5.2769 338.378 5.54663C338.946 5.66593 339.455 5.9255 340.012 6.06979C340.582 6.21763 340.859 5.86077 341.273 5.50213C342.27 4.63797 343.732 4.21138 344.994 4.0587C346.41 3.88748 347.878 4.10102 349.229 4.56639C350.543 5.01943 351.805 5.75509 352.755 6.82681C353.178 7.30387 353.562 7.84687 353.812 8.44638C353.914 8.6924 353.931 8.83815 354.177 8.92827C354.404 9.0117 354.669 9.01412 354.904 9.09353C357.169 9.86095 359.107 11.6117 360.161 13.8595C360.777 15.1709 361.068 17.4798 360.989 20.0677C360.909 22.6556 358.572 29.4081 356.386 31.8711C354.436 34.0695 351.568 35.5203 348.801 36.1553C350.638 38.2548 351.86 40.8784 352.765 43.5467C353.747 46.445 354.354 49.4566 354.579 52.5251C354.792 55.4405 354.812 58.5235 354.128 61.3767C353.489 64.0448 352.122 66.2337 349.839 67.6223C348.794 68.2584 347.669 68.7363 346.537 69.173C345.422 69.6034 344.304 70.0219 343.136 70.2634C340.925 70.7203 338.378 70.6418 336.675 68.8822C336.061 68.2479 335.386 67.4508 334.938 66.6759C334.777 66.3972 334.68 66.215 334.876 65.9426C335.11 65.6164 335.489 65.3664 335.79 65.1112C337.507 63.6561 338.569 61.7135 338.837 59.4049C339.109 57.0626 338.48 54.0393 336.203 53.017C333.391 51.7552 330.296 53.2036 327.797 54.5537C326.735 50.806 324.555 47.4315 321.136 45.7124C317.355 43.8105 313.015 43.5879 309.129 41.9561C308.116 41.5309 307.084 41.0482 306.339 40.1818C306.027 39.8197 305.662 39.35 305.537 38.871C305.374 38.242 305.78 37.7145 306.093 37.2241C307.755 34.6236 314.057 29.37 317.336 28.37Z" fill="#191847"/>
<path fill-rule="evenodd" clip-rule="evenodd" d="M159 344C246.813 344 318 275.947 318 192C318 108.053 246.813 40 159 40C71.1867 40 0 108.053 0 192C0 275.947 71.1867 344 159 344Z" fill="#D2D1D1" fill-opacity="0.4"/>
<path fill-rule="evenodd" clip-rule="evenodd" d="M355 198L280.694 322.227L224.985 427.25H212.986L306.326 198L355 198Z" fill="#EDB37C"/>
<path fill-rule="evenodd" clip-rule="evenodd" d="M229.55 421.284C230.622 420.813 231.896 421.29 232.295 422.391C233.023 424.398 234 427.409 234 429.106C234 431.811 233.099 437 233.099 437C229.961 437 176.697 437 176.697 437C176.697 437 174.498 429.732 179.235 429.152C183.972 428.573 187.105 428.106 187.105 428.106L213.32 416.419C213.835 416.189 214.437 416.43 214.652 416.951L216.337 421.039C216.337 421.039 220.722 423.085 223.463 423.085C225.132 423.085 227.754 422.074 229.55 421.284Z" fill="#E4E4E4"/>
<path fill-rule="evenodd" clip-rule="evenodd" d="M240.457 410.433L217.317 403.433C217.317 403.433 232.524 357.971 254.595 303.374C276.665 248.778 302 198 302 198H367.356C367.356 198 339.189 262.232 307.634 314.725C276.079 367.219 240.457 410.433 240.457 410.433Z" fill="#003269"/>
<path fill-rule="evenodd" clip-rule="evenodd" d="M359.884 198C366.897 241.654 380.423 297.427 381.7 299.149C382.551 300.296 413.188 310.562 473.61 329.947L471.018 340.528C398.964 330.132 360.998 322.066 357.119 316.331C351.302 307.728 322.252 239.763 311 198H359.884Z" fill="#EDB37C"/>
<path fill-rule="evenodd" clip-rule="evenodd" d="M452.371 320.8L447.805 337.842C393.913 342.569 360.892 339.153 348.742 327.596C336.593 316.039 322.746 272.84 307.201 198H369.522C379.371 259.284 384.877 291.212 386.04 293.785C387.203 296.357 409.314 305.363 452.371 320.8Z" fill="#032D5B"/>
<path fill-rule="evenodd" clip-rule="evenodd" d="M469.069 328.074C468.791 326.937 469.482 325.765 470.635 325.563C472.739 325.195 475.873 324.756 477.544 325.05C480.208 325.52 485.162 327.309 485.162 327.309C484.617 330.399 475.368 382.854 475.368 382.854C475.368 382.854 467.828 383.757 468.08 378.991C468.332 374.226 468.416 371.059 468.416 371.059L461.459 343.213C461.323 342.667 461.664 342.115 462.215 341.994L466.533 341.044C466.533 341.044 469.309 337.081 469.785 334.381C470.075 332.738 469.535 329.98 469.069 328.074Z" fill="#E4E4E4"/>
<path fill-rule="evenodd" clip-rule="evenodd" d="M228.765 146.704L265 162.617L253.43 177.439L226.293 156.633C212.738 154.143 206.451 152.004 207.434 150.216C208.262 148.709 209.803 148.624 211.222 148.545C212.328 148.484 213.36 148.427 213.924 147.705C215.211 146.056 212.034 140.961 208.812 136.255C205.59 131.549 208.61 131.719 210.377 132.282C216.289 135.572 222.418 140.379 228.765 146.704ZM391 171.066L411.492 167C425.389 203.63 433.674 223.702 436.348 227.218C438.308 229.796 450.397 236.437 458.58 239.984C461.865 241.407 461.159 244.183 460.196 245.071C454.12 250.672 448.471 248.709 442.322 246.572C440.541 245.953 438.719 245.32 436.833 244.851C431.95 243.639 430.464 246.15 429.06 248.523C427.816 250.624 426.637 252.616 423.221 251.821C423.376 251.151 423.567 250.4 423.773 249.589C425.105 244.349 427.069 236.62 424.155 232.13C422.66 229.826 411.608 209.471 391 171.066Z" fill="#EDB37C"/>
<path fill-rule="evenodd" clip-rule="evenodd" d="M335.305 90.3321L326.658 88.8489C307.823 107.119 300.138 151.012 287.586 156.823C275.719 162.316 258.896 157 238.9 149.823L232.776 163.505C250.945 183.161 289.651 199.767 305.34 190.287C330.423 175.13 336.214 120.994 335.305 90.3321Z" fill="#0A6EAA"/>
<path fill-rule="evenodd" clip-rule="evenodd" d="M373 199C373 199 320.992 199 296.489 199C292.992 199 293.651 193.952 294.157 191.404C299.989 162.004 322.759 130.312 322.759 88.4607L344.828 85C363.083 114.358 369.395 150.505 373 199Z" fill="#DDE3E9"/>
<path fill-rule="evenodd" clip-rule="evenodd" d="M346 85H346.252C395.753 115.504 425.669 162.791 436 226.859L419.963 230C409.339 217.623 396.229 197.368 380.631 169.233C385.417 186.181 388.91 203.563 390 220H321.128C307.795 186.305 337.514 85 337.514 85H342.269H346Z" fill="#0A6EAA"/>
<path d="M152.911 211.667C152.911 205.742 154.229 200.86 156.864 197.02C159.61 193.07 163.563 188.791 168.725 184.183C172.678 180.672 175.588 177.655 177.455 175.131C179.432 172.498 180.421 169.536 180.421 166.244C180.421 161.636 178.554 157.906 174.82 155.053C171.086 152.2 166.089 150.774 159.829 150.774C147.969 150.774 139.019 154.998 132.979 163.446L117 153.078C121.722 146.605 127.817 141.668 135.285 138.266C142.753 134.755 151.538 133 161.641 133C173.941 133 183.715 135.688 190.963 141.064C198.321 146.331 202 153.627 202 162.953C202 167.451 201.231 171.401 199.694 174.802C198.266 178.203 196.509 181.111 194.422 183.524C192.336 185.828 189.59 188.517 186.186 191.589C182.013 195.319 178.883 198.61 176.797 201.463C174.82 204.316 173.831 207.717 173.831 211.667H152.911ZM163.453 251C159.61 251 156.425 249.793 153.899 247.379C151.483 244.856 150.275 241.784 150.275 238.163C150.275 234.543 151.483 231.525 153.899 229.112C156.425 226.698 159.61 225.491 163.453 225.491C167.187 225.491 170.262 226.698 172.678 229.112C175.204 231.525 176.467 234.543 176.467 238.163C176.467 241.784 175.204 244.856 172.678 247.379C170.262 249.793 167.187 251 163.453 251Z" fill="#D7D7D7"/>
</svg>
