<svg width="215" height="250" viewBox="0 0 215 250" fill="none" xmlns="http://www.w3.org/2000/svg">
<path d="M163.176 234.756C162.697 234.766 162.233 234.929 161.853 235.222C160.724 232.24 158.978 230.324 157.016 230.324C155.053 230.324 153.307 232.24 152.179 235.222C151.798 234.929 151.334 234.766 150.855 234.756C148.626 234.756 146.818 238.526 146.818 243.177H167.213C167.213 238.526 165.406 234.756 163.176 234.756Z" fill="#00AAC8"/>
<path d="M208.215 242.237H0V243.177H208.215V242.237Z" fill="#3F3D56"/>
<path d="M185.543 243.177H156.688V242.707C156.688 235.98 159.322 230.711 162.683 230.711C163.236 230.715 163.78 230.856 164.265 231.121C165.95 226.996 168.428 224.645 171.116 224.645C173.804 224.645 176.282 226.996 177.967 231.121C178.452 230.856 178.995 230.715 179.548 230.711C182.91 230.711 185.543 235.98 185.543 242.707V243.177ZM157.633 242.237H184.599C184.482 236.452 182.216 231.651 179.548 231.651C178.991 231.665 178.453 231.857 178.012 232.199L177.514 232.56L177.297 231.985C175.758 227.918 173.505 225.585 171.116 225.585C168.727 225.585 166.474 227.918 164.935 231.985L164.717 232.56L164.219 232.199C163.779 231.857 163.241 231.665 162.683 231.651C160.015 231.651 157.75 236.452 157.633 242.237Z" fill="#3F3D56"/>
<path d="M77.0025 73.8444C77.0911 73.7045 76.8604 73.3995 76.4873 73.1632C76.1141 72.9269 75.7398 72.8488 75.6512 72.9887C75.5626 73.1286 75.7932 73.4336 76.1664 73.6699C76.5395 73.9062 76.9139 73.9843 77.0025 73.8444Z" fill="#3F3D56"/>
<path d="M75.6924 71.2405C75.891 70.9269 76.206 70.7051 76.5681 70.6238C76.9303 70.5424 77.3099 70.6083 77.6235 70.8069L95.3594 82.0381C95.673 82.2367 95.8949 82.5517 95.9762 82.9139C96.0575 83.276 95.9916 83.6557 95.7931 83.9693V83.9693L75.6924 71.2405Z" fill="#00AAC8"/>
<path d="M74.0156 71.8346L74.5736 70.9535C74.7093 70.7392 74.9246 70.5875 75.1721 70.532C75.4196 70.4764 75.679 70.5214 75.8933 70.6571L96.0871 83.4448C96.3409 83.6056 96.5204 83.8605 96.5863 84.1536C96.6521 84.4467 96.5988 84.754 96.438 85.0078L95.9744 85.74L74.0156 71.8346Z" fill="#3F3D56"/>
<path d="M77.0215 72.3186L76.8076 72.6564L78.1589 73.5122L78.3729 73.1743L77.0215 72.3186Z" fill="#D0CDE1"/>
<path d="M78.8799 73.4952L78.666 73.833L80.0173 74.6887L80.2313 74.3509L78.8799 73.4952Z" fill="#D0CDE1"/>
<path d="M105.646 32.4553C112.608 32.4553 118.252 26.8113 118.252 19.8492C118.252 12.887 112.608 7.24304 105.646 7.24304C98.6835 7.24304 93.0396 12.887 93.0396 19.8492C93.0396 26.8113 98.6835 32.4553 105.646 32.4553Z" fill="#FFB8B8"/>
<path d="M106.415 28.7656C106.415 28.7656 112.564 38.4508 111.027 41.218C109.489 43.9852 104.724 51.5182 104.724 51.5182C104.724 51.5182 125.939 35.8374 123.172 32.4552C123.172 32.4552 116.869 27.0746 116.561 23.6924L106.415 28.7656Z" fill="#FFB8B8"/>
<path d="M116.254 213.852L116.869 223.537L126.708 221.846L126.093 212.468L116.254 213.852Z" fill="#FFB8B8"/>
<path d="M72.44 219.241L70.5952 225.39L81.5103 227.389L83.0477 221.701L72.44 219.241Z" fill="#FFB8B8"/>
<path d="M117.253 83.4179L118.252 90.259C118.252 90.259 130.859 115.318 117.176 127.616L98.7283 173.121C98.7283 173.121 96.7298 196.796 90.8879 205.098L85.5073 224.007L69.519 219.856L82.4326 178.809C82.4326 178.809 82.2789 161.591 84.1237 157.748L92.2716 121.159L93.732 82.0343C93.732 82.0343 115.255 80.497 117.253 83.4179Z" fill="#003269"/>
<path d="M74.7807 56.1399L74.8954 56.4C75.4219 56.167 75.9653 55.9488 76.5075 55.7501L76.4104 55.4828C75.861 55.6834 75.313 55.9042 74.7807 56.1399Z" fill="#0A6EAA"/>
<path d="M71.677 57.7722L71.8282 58.0138C72.3182 57.7109 72.8261 57.4211 73.3373 57.1535L73.2039 56.9007C72.6873 57.1723 72.174 57.4661 71.677 57.7722Z" fill="#0A6EAA"/>
<path d="M68.8284 59.8143L69.0112 60.0334C69.4573 59.6663 69.9205 59.31 70.3892 58.974L70.2226 58.7427C69.7485 59.0827 69.2784 59.4422 68.8284 59.8143Z" fill="#0A6EAA"/>
<path d="M66.2907 62.2239L66.5015 62.4164C66.8927 61.9931 67.304 61.5773 67.722 61.1815L67.5244 60.9751C67.101 61.3749 66.6857 61.7957 66.2907 62.2239Z" fill="#0A6EAA"/>
<path d="M64.1063 64.9599L64.3427 65.1212C64.6717 64.6489 65.0227 64.1809 65.3836 63.7309L65.1589 63.5549C64.7938 64.0086 64.4389 64.4815 64.1063 64.9599Z" fill="#0A6EAA"/>
<path d="M62.3149 67.9682L62.5711 68.096C62.8335 67.5822 63.1175 67.0717 63.4139 66.5784L63.166 66.4329C62.8661 66.9323 62.5797 67.4487 62.3149 67.9682Z" fill="#0A6EAA"/>
<path d="M60.949 71.1906L61.2207 71.2833C61.4105 70.7401 61.6221 70.196 61.8495 69.6671L61.5845 69.5558C61.3551 70.0917 61.1411 70.6415 60.949 71.1906Z" fill="#0A6EAA"/>
<path d="M60.1558 74.0027L60.4712 73.9175C60.5465 73.5893 60.6297 73.2616 60.7181 72.9389L60.44 72.8659C60.337 73.2415 60.2422 73.6204 60.1558 74.0027Z" fill="#0A6EAA"/>
<path d="M68.2568 46.0265L68.4233 46.4041C69.1878 46.0659 69.9769 45.7489 70.7641 45.4604L70.6231 45.0723C69.8253 45.3636 69.0297 45.6842 68.2568 46.0265Z" fill="#0A6EAA"/>
<path d="M63.7503 48.3966L63.9698 48.7473C64.6814 48.3074 65.4188 47.8867 66.1611 47.4982L65.9673 47.1311C65.2172 47.5255 64.472 47.9521 63.7503 48.3966Z" fill="#0A6EAA"/>
<path d="M59.6142 51.3615L59.8797 51.6798C60.5274 51.1467 61.2 50.6293 61.8805 50.1415L61.6386 49.8057C60.9502 50.2993 60.2675 50.8213 59.6142 51.3615Z" fill="#0A6EAA"/>
<path d="M55.9297 54.8602L56.2359 55.1398C56.8038 54.5252 57.4011 53.9214 58.008 53.3467L57.721 53.0471C57.1062 53.6276 56.5033 54.2385 55.9297 54.8602Z" fill="#0A6EAA"/>
<path d="M52.7583 58.8331L53.1015 59.0674C53.5793 58.3816 54.0889 57.7021 54.613 57.0486L54.2867 56.793C53.7565 57.4519 53.2412 58.1385 52.7583 58.8331Z" fill="#0A6EAA"/>
<path d="M50.1571 63.201L50.5291 63.3865C50.91 62.6406 51.3224 61.8992 51.7528 61.1829L51.3929 60.9717C50.9574 61.6969 50.5415 62.4466 50.1571 63.201Z" fill="#0A6EAA"/>
<path d="M48.1731 67.88L48.5676 68.0147C48.8431 67.2259 49.1504 66.4359 49.4805 65.6679L49.0958 65.5062C48.7628 66.2844 48.452 67.0828 48.1731 67.88Z" fill="#0A6EAA"/>
<path d="M47.021 71.9633L47.479 71.8396C47.5883 71.3631 47.7091 70.8872 47.8375 70.4187L47.4337 70.3127C47.2841 70.858 47.1466 71.4082 47.021 71.9633Z" fill="#0A6EAA"/>
<path d="M61.3789 31.7619L61.6267 32.3239C62.7646 31.8205 63.939 31.3488 65.1106 30.9194L64.9007 30.3417C63.7134 30.7753 62.5292 31.2524 61.3789 31.7619Z" fill="#0A6EAA"/>
<path d="M54.6717 35.2895L54.9985 35.8115C56.0576 35.1568 57.1552 34.5305 58.2599 33.9523L57.9716 33.406C56.8552 33.9929 55.7459 34.6279 54.6717 35.2895Z" fill="#0A6EAA"/>
<path d="M48.5157 39.7023L48.9108 40.1759C49.8749 39.3825 50.8759 38.6124 51.8887 37.8863L51.5287 37.3865C50.5042 38.1213 49.4881 38.8982 48.5157 39.7023Z" fill="#0A6EAA"/>
<path d="M43.0318 44.9097L43.4875 45.3258C44.3329 44.411 45.2218 43.5124 46.1251 42.657L45.6979 42.2111C44.783 43.0751 43.8856 43.9844 43.0318 44.9097Z" fill="#0A6EAA"/>
<path d="M38.311 50.8228L38.8218 51.1714C39.5329 50.1507 40.2915 49.1394 41.0715 48.1668L40.5858 47.7864C39.7967 48.767 39.0298 49.7889 38.311 50.8228Z" fill="#0A6EAA"/>
<path d="M34.4394 57.3239L34.993 57.6C35.56 56.4898 36.1738 55.3864 36.8144 54.3203L36.2787 54.0059C35.6304 55.0852 35.0115 56.2012 34.4394 57.3239Z" fill="#0A6EAA"/>
<path d="M31.4866 64.2879L32.0738 64.4884C32.4838 63.3143 32.9412 62.1386 33.4326 60.9955L32.86 60.7549C32.3643 61.9131 31.9018 63.1013 31.4866 64.2879Z" fill="#0A6EAA"/>
<path d="M29.7725 70.3654L30.4541 70.1812C30.6168 69.472 30.7966 68.7637 30.9878 68.0663L30.3867 67.9086C30.1641 68.7203 29.9594 69.5392 29.7725 70.3654Z" fill="#0A6EAA"/>
<path d="M114.87 126.07L121.788 172.805C121.788 172.805 125.478 190.792 125.785 197.71C126.092 204.628 127.322 213.544 127.322 213.544L114.87 215.543L102.571 155.279L114.87 126.07Z" fill="#003269"/>
<path d="M128.552 216.926L118.713 217.541C118.713 217.541 115.05 213.39 115.268 215.543C115.485 217.695 113.179 226.765 113.179 226.765L105.492 234.759C105.492 234.759 90.2727 234.759 92.5787 242.139C94.8847 249.518 112.871 243.368 112.871 243.368L119.789 241.062V244.137C119.789 244.137 131.627 245.828 131.934 242.753C132.242 239.679 131.934 235.835 131.473 235.528C131.012 235.221 128.552 216.926 128.552 216.926Z" fill="#2F2E41"/>
<path d="M83.0804 224.515C83.0804 224.515 76.0476 223.952 75.0629 223.108C74.0783 222.264 72.5311 218.748 70.4213 220.998C68.3114 223.249 60.7159 230.563 60.7159 230.563L53.4018 234.079C53.4018 234.079 43.8372 231.548 40.6021 237.455C37.3669 243.363 56.4963 249.552 61.4192 247.583L67.6081 246.317L67.3268 249.27C67.3268 249.27 76.0475 251.24 77.3134 248.708C78.5794 246.176 79.5639 243.222 79.0013 242.378C78.4387 241.534 83.0804 224.515 83.0804 224.515Z" fill="#2F2E41"/>
<path d="M135.009 48.1361L124.118 72.2307L119.39 82.6907L117.637 86.5694L92.271 86.2619L94.8845 68.5826C91.1949 59.0512 99.9577 55.2078 99.9577 55.2078L107.337 47.3444V48.5973C107.337 48.5973 114.562 39.9882 117.791 35.0688C121.019 30.1493 125.477 31.9941 125.477 31.9941C133.164 31.2254 135.009 48.1361 135.009 48.1361Z" fill="#0A6EAA"/>
<path opacity="0.2" d="M124.119 72.2306L119.39 82.6906C117.871 79.8497 116.715 76.632 116.715 74.7319C116.715 69.5049 121.942 72.2722 121.942 72.2722C121.942 72.2722 117.714 49.1353 117.714 42.2173C117.714 37.6222 121.545 58.0149 124.119 72.2306Z" fill="black"/>
<path d="M119.943 73.9633L97.0369 73.5021C97.0369 73.5021 80.28 74.8857 82.7397 81.6499C85.1994 88.4142 98.5742 81.6499 98.5742 81.6499L125.324 85.8007L119.943 73.9633Z" fill="#FFB8B8"/>
<path d="M124.248 33.2239C124.248 33.2239 116.254 33.8389 116.254 40.7569C116.254 47.6749 123.479 72.2722 123.479 72.2722C123.479 72.2722 118.252 69.505 118.252 74.7319C118.252 79.9588 127.015 95.1784 127.938 85.032C127.938 85.032 141.159 91.4888 140.39 79.3439C139.621 67.199 131.32 41.5255 131.32 41.5255C131.32 41.5255 130.397 32.7627 124.248 33.2239Z" fill="#0A6EAA"/>
<path d="M106.065 18.478C105.182 17.6236 105.198 16.1828 104.487 15.1812C103.37 13.6086 101.044 13.714 99.1337 13.9855C97.856 14.1111 96.6002 14.4029 95.398 14.8535C94.8707 15.0705 94.401 15.4069 94.026 15.8364C93.651 16.2659 93.3809 16.7766 93.2369 17.3283C93.0873 17.9478 92.7575 16.19 92.4218 13.9133C92.0779 11.5904 92.4803 9.21821 93.5711 7.13863C94.6618 5.05905 96.3846 3.37943 98.4911 2.34177C98.5162 2.32947 98.541 2.31734 98.5656 2.30538C100.726 1.25557 102.989 0.328445 105.377 0.0679182C107.764 -0.192609 110.312 0.279095 112.185 1.78311C113.041 2.47051 113.737 3.35298 114.655 3.95554C116.267 5.01422 118.308 5.0655 120.224 5.28869C122.405 5.47741 124.521 6.1266 126.433 7.19339C128.354 8.28034 129.77 10.0808 130.373 12.2045C130.98 14.6756 129.99 17.5968 127.56 18.6691C127.136 18.8476 126.76 19.1237 126.462 19.4748C124.467 21.9137 127.688 23.2481 128.155 25.3709C128.544 27.1423 126.841 28.7461 125.094 29.2338C123.45 29.6425 121.715 29.4665 120.186 28.7362C118.658 28.0059 117.431 26.7666 116.716 25.2309C116.117 23.8413 115.98 22.3041 115.817 20.7997C115.631 19.0776 111.114 15.9584 114.163 18.3047C114.755 18.7478 115.221 19.3374 115.516 20.0154C116.443 22.236 114.518 23.4964 113.485 25.0819C112.923 25.9736 112.622 27.005 112.617 28.0591C112.611 29.1131 112.901 30.1477 113.453 31.0454C112.132 30.3054 111.11 29.1275 110.565 27.7147C110.019 26.3019 109.984 24.743 110.465 23.3069C110.742 22.5535 111.161 21.8569 111.413 21.0947C111.806 19.9052 111.459 17.5937 109.703 18.0623C108.45 18.3968 107.379 19.7497 106.065 18.478Z" fill="#ABA469"/>
<path d="M208.796 180.383C211.911 180.383 214.437 177.858 214.437 174.743C214.437 171.628 211.911 169.102 208.796 169.102C205.681 169.102 203.156 171.628 203.156 174.743C203.156 177.858 205.681 180.383 208.796 180.383Z" fill="#003269" fill-opacity="0.3"/>
<path d="M194.697 202.473C199.888 202.473 204.097 198.265 204.097 193.073C204.097 187.881 199.888 183.673 194.697 183.673C189.505 183.673 185.296 187.881 185.296 193.073C185.296 198.265 189.505 202.473 194.697 202.473Z" fill="#00AAC8"/>
<path d="M197.705 198.713H196.765V242.424H197.705V198.713Z" fill="#3F3D56"/>
<path d="M197.517 199.653C195.565 199.653 193.656 199.074 192.033 197.99C190.41 196.905 189.145 195.364 188.398 193.56C187.651 191.757 187.455 189.772 187.836 187.857C188.217 185.943 189.157 184.184 190.537 182.804C191.918 181.423 193.677 180.483 195.591 180.102C197.506 179.722 199.49 179.917 201.294 180.664C203.097 181.411 204.639 182.676 205.724 184.299C206.808 185.922 207.387 187.831 207.387 189.783C207.384 192.4 206.343 194.909 204.493 196.759C202.642 198.609 200.134 199.65 197.517 199.653ZM197.517 180.853C195.75 180.853 194.024 181.376 192.555 182.358C191.087 183.339 189.942 184.734 189.266 186.366C188.59 187.997 188.414 189.793 188.758 191.525C189.103 193.257 189.953 194.849 191.202 196.098C192.451 197.346 194.042 198.197 195.775 198.542C197.507 198.886 199.302 198.709 200.934 198.033C202.566 197.357 203.961 196.213 204.942 194.744C205.923 193.276 206.447 191.549 206.447 189.783C206.444 187.415 205.503 185.145 203.828 183.471C202.154 181.797 199.884 180.855 197.517 180.853V180.853Z" fill="#3F3D56"/>
<path d="M205.507 182.733C204.298 182.733 203.117 182.374 202.112 181.703C201.107 181.032 200.324 180.077 199.862 178.961C199.399 177.844 199.278 176.616 199.514 175.431C199.75 174.245 200.332 173.157 201.186 172.302C202.041 171.448 203.129 170.866 204.315 170.63C205.5 170.394 206.728 170.515 207.845 170.978C208.961 171.44 209.916 172.223 210.587 173.228C211.258 174.233 211.617 175.414 211.617 176.623C211.615 178.243 210.971 179.796 209.825 180.941C208.68 182.087 207.127 182.731 205.507 182.733ZM205.507 171.452C204.484 171.452 203.484 171.756 202.634 172.324C201.784 172.892 201.121 173.699 200.73 174.644C200.339 175.589 200.236 176.628 200.436 177.631C200.635 178.634 201.128 179.555 201.851 180.278C202.574 181.001 203.495 181.494 204.498 181.693C205.501 181.893 206.54 181.79 207.485 181.399C208.43 181.008 209.237 180.345 209.805 179.495C210.374 178.645 210.677 177.645 210.677 176.623C210.675 175.252 210.13 173.938 209.161 172.968C208.191 171.999 206.877 171.454 205.507 171.452V171.452Z" fill="#3F3D56"/>
</svg>
