<svg width="482" height="314" viewBox="0 0 482 314" fill="none" xmlns="http://www.w3.org/2000/svg">
<path d="M233.09 313.391C361.822 313.391 466.18 306.983 466.18 299.079C466.18 291.174 361.822 284.766 233.09 284.766C104.358 284.766 0 291.174 0 299.079C0 306.983 104.358 313.391 233.09 313.391Z" fill="#003269"/>
<path opacity="0.1" d="M234.621 302.657C286.565 302.657 328.675 298.766 328.675 293.967C328.675 289.168 286.565 285.277 234.621 285.277C182.676 285.277 140.567 289.168 140.567 293.967C140.567 298.766 182.676 302.657 234.621 302.657Z" fill="black"/>
<path d="M377.749 231.56C377.749 263.868 398.017 290.011 423.064 290.011Z" fill="#003269"/>
<path d="M423.064 290.011C423.064 257.34 445.682 230.904 473.634 230.904Z" fill="#00AAC8"/>
<path d="M394.17 234.489C394.17 265.178 407.094 290.01 423.067 290.01Z" fill="#00AAC8"/>
<path d="M423.064 290.011C423.064 248.265 449.207 214.485 481.514 214.485Z" fill="#003269"/>
<path d="M413.529 290.423C413.529 290.423 419.956 290.225 421.893 288.846C423.83 287.467 431.778 285.82 432.259 288.032C432.739 290.244 441.917 299.033 434.661 299.091C427.406 299.15 417.803 297.961 415.87 296.784C413.937 295.606 413.529 290.423 413.529 290.423Z" fill="#A8A8A8"/>
<path opacity="0.2" d="M434.791 298.321C427.535 298.379 417.932 297.191 415.999 296.013C414.527 295.117 413.94 291.899 413.744 290.414C413.608 290.42 413.529 290.423 413.529 290.423C413.529 290.423 413.937 295.606 415.87 296.783C417.803 297.961 427.406 299.149 434.661 299.091C436.755 299.074 437.479 298.329 437.439 297.225C437.148 297.892 436.349 298.308 434.791 298.321Z" fill="black"/>
<path d="M296.984 230.072H181.462V297.545H296.984V230.072Z" fill="#003269"/>
<path d="M320.967 230.647H235.797C233.004 230.647 230.326 229.538 228.351 227.563C226.376 225.588 225.266 222.909 225.266 220.116V181.096C225.266 180.529 225.382 179.968 225.605 179.448C225.829 178.927 226.157 178.458 226.568 178.068L271.7 135.287C273.504 133.576 275.896 132.623 278.382 132.623C280.868 132.623 283.26 133.576 285.065 135.287L328.095 176.076C329.17 177.095 330.026 178.322 330.611 179.683C331.196 181.044 331.498 182.509 331.498 183.991V220.116C331.498 222.909 330.389 225.588 328.414 227.563C326.439 229.538 323.76 230.647 320.967 230.647Z" fill="#003269"/>
<path opacity="0.1" d="M225.266 181.737H330.613V215.961C330.613 219.856 329.066 223.592 326.311 226.346C323.557 229.1 319.821 230.648 315.926 230.648H239.953C238.024 230.648 236.115 230.268 234.333 229.53C232.551 228.791 230.932 227.71 229.568 226.346C228.204 224.982 227.122 223.363 226.384 221.581C225.646 219.799 225.266 217.889 225.266 215.961V181.737Z" fill="black"/>
<path d="M311.652 148.207H244.895C241.695 148.207 239.1 150.801 239.1 154.001V220.759C239.1 223.959 241.695 226.553 244.895 226.553H311.652C314.852 226.553 317.447 223.959 317.447 220.759V154.001C317.447 150.801 314.852 148.207 311.652 148.207Z" fill="#FAF8F8"/>
<path opacity="0.1" d="M317.446 183.496V226.553H239.1V183.496L278.273 202.43L317.446 183.496Z" fill="black"/>
<path d="M278.274 204.864L228.081 180.604C227.77 180.454 227.427 180.385 227.082 180.404C226.738 180.423 226.404 180.529 226.112 180.712C225.82 180.896 225.579 181.15 225.412 181.452C225.245 181.753 225.158 182.093 225.158 182.437V224.178C225.158 225.013 225.322 225.84 225.642 226.611C225.961 227.383 226.43 228.084 227.02 228.674C227.611 229.265 228.312 229.733 229.083 230.053C229.855 230.372 230.682 230.537 231.517 230.537H325.031C326.717 230.537 328.335 229.867 329.527 228.674C330.72 227.482 331.39 225.864 331.39 224.178V183.152C331.39 182.732 331.283 182.318 331.079 181.95C330.876 181.581 330.582 181.271 330.225 181.047C329.869 180.824 329.462 180.694 329.041 180.671C328.621 180.648 328.202 180.732 327.823 180.915L278.274 204.864Z" fill="#00AAC8"/>
<path d="M267.76 155.4H245.85V158.498H267.76V155.4Z" fill="#0A6EAA"/>
<path d="M309.144 166.687H244.077V168.458H309.144V166.687Z" fill="#0A6EAA"/>
<path d="M309.144 172.663H244.077V174.433H309.144V172.663Z" fill="#0A6EAA"/>
<path d="M309.144 178.638H244.077V180.409H309.144V178.638Z" fill="#0A6EAA"/>
<path d="M242.308 158.531C247.319 158.531 251.382 154.461 251.382 149.441C251.382 144.42 247.319 140.35 242.308 140.35C237.296 140.35 233.234 144.42 233.234 149.441C233.234 154.461 237.296 158.531 242.308 158.531Z" fill="white"/>
<path d="M242.308 138.801C240.163 138.801 238.066 139.437 236.283 140.629C234.499 141.82 233.109 143.514 232.289 145.496C231.468 147.477 231.253 149.658 231.671 151.761C232.09 153.865 233.123 155.797 234.639 157.314C236.156 158.83 238.088 159.863 240.192 160.282C242.296 160.7 244.476 160.485 246.458 159.665C248.439 158.844 250.133 157.454 251.324 155.67C252.516 153.887 253.152 151.79 253.152 149.646C253.144 146.772 251.998 144.019 249.967 141.987C247.935 139.955 245.181 138.809 242.308 138.801V138.801ZM240.081 155.428L234.524 149.87L236.082 148.311L240.087 152.315L248.538 143.864L250.097 145.422L240.081 155.428V155.428Z" fill="#57B894"/>
<path d="M129.773 0.0127412C129.006 -0.0502553 128.237 0.121378 127.57 0.504888C126.936 1.04488 126.428 1.71598 126.08 2.47179C124.467 5.30289 122.285 7.76832 119.67 9.71189C117.766 11.1071 115.344 12.8467 115.67 15.4191C115.842 16.2686 116.156 17.0831 116.598 17.8283C118.355 21.3749 123.15 24.1157 122.678 28.1627C124.424 25.2405 122.089 23.7955 123.834 20.8733C124.666 19.4816 126.11 17.9107 127.365 18.7847C127.785 19.0773 128.061 19.6021 128.499 19.8589C129.543 20.4716 130.653 19.3003 131.578 18.4707C134.764 15.6098 139.297 16.3593 143.262 17.2507C145.135 17.6715 147.191 18.2236 148.298 20.013C149.753 22.3656 146.915 24.9066 146.198 27.5665C146.14 27.7931 146.137 28.0306 146.19 28.2585C146.243 28.4865 146.351 28.6982 146.504 28.8754C146.657 29.0527 146.85 29.1903 147.068 29.2765C147.286 29.3627 147.521 29.3949 147.754 29.3703C148.944 29.2529 150.353 29.1567 150.424 28.6345C151.921 28.6878 153.755 28.5183 154.397 26.9593C154.593 26.3425 154.696 25.7001 154.704 25.053C154.94 22.4343 156.051 20.0453 156.787 17.553C157.524 15.0606 157.844 12.1398 156.601 9.93005C156.158 9.19484 155.609 8.52831 154.973 7.95156C147.922 1.12792 138.652 0.00262019 129.773 0.0127412Z" fill="#2F2E41"/>
<path d="M124.213 33.2744C124.213 33.2744 125.746 46.0534 120.124 47.0757C114.501 48.0981 125.235 65.4776 125.235 65.4776L150.793 68.5445L144.659 48.0981C144.659 48.0981 140.57 46.5646 143.126 36.3413C145.682 26.1181 124.213 33.2744 124.213 33.2744Z" fill="#A0616A"/>
<path d="M108.62 252.819L110.665 280.933H121.399L118.332 252.819H108.62Z" fill="#A0616A"/>
<path d="M187.343 199.658L188.876 223.171L200.633 218.059L196.032 198.635L187.343 199.658Z" fill="#A0616A"/>
<path d="M100.954 145.474C100.954 145.474 101.465 175.122 104.532 184.834C107.599 194.546 107.088 195.057 106.577 196.59C106.066 198.124 105.554 197.102 105.554 199.657C105.554 202.213 104.532 242.595 105.554 246.173C106.577 249.751 102.488 255.885 105.554 256.396C108.621 256.908 122.934 256.396 123.445 253.329C123.956 250.262 119.356 249.24 121.401 247.195C123.445 245.151 126.512 203.235 126.512 203.235L133.668 174.099L146.959 158.764H175.073L183.762 192.501C183.762 192.501 180.184 202.213 182.74 202.213C185.296 202.213 200.631 205.28 200.631 194.035C200.631 182.789 195.519 149.563 194.497 148.541C193.474 147.519 195.008 143.941 193.474 142.407C191.941 140.874 174.05 130.139 167.405 128.095C160.76 126.05 151.438 123.616 151.438 123.616L100.954 145.474Z" fill="#003269"/>
<path d="M200.629 213.97C200.629 213.97 192.962 211.414 189.384 219.082C185.806 226.749 187.339 228.794 187.339 228.794C187.339 228.794 199.096 232.883 201.14 230.839C202.03 229.949 204.855 229.64 207.762 229.575C212.191 229.475 213.369 223.21 209.187 221.751C209.062 221.708 208.936 221.67 208.808 221.638C204.719 220.615 200.629 213.97 200.629 213.97Z" fill="white"/>
<path d="M135.714 41.7087C144.183 41.7087 151.049 34.843 151.049 26.3738C151.049 17.9046 144.183 11.0389 135.714 11.0389C127.244 11.0389 120.379 17.9046 120.379 26.3738C120.379 34.843 127.244 41.7087 135.714 41.7087Z" fill="#A0616A"/>
<path d="M115.778 53.4652C115.778 53.4652 140.825 58.5769 146.959 50.3983C153.093 42.2197 155.649 73.4006 155.649 73.4006L158.716 106.115L154.115 124.006C154.115 124.006 130.091 143.43 122.423 144.963C114.756 146.497 102.999 147.519 102.999 147.519C102.999 147.519 106.577 90.7801 106.577 89.7578C106.577 88.7354 115.778 53.4652 115.778 53.4652Z" fill="white"/>
<path d="M123.394 43.8785C123.394 43.8785 117.822 40.6861 116.288 43.7531C114.755 46.8201 100.442 54.4875 98.9085 54.4875C97.375 54.4875 101.975 96.9139 99.9308 102.026C97.8862 107.137 88.1741 144.452 93.7969 147.519C99.4197 150.586 95.3304 144.452 100.953 152.119C106.576 159.787 134.179 159.787 135.712 156.72C137.246 153.653 123.444 130.651 126 109.182C128.556 87.713 132.645 58.0656 129.067 53.9763C125.489 49.887 123.394 43.8785 123.394 43.8785Z" fill="#0A6EAA"/>
<path d="M141.849 47.3313L142.561 44.881C142.561 44.881 163.829 51.9317 164.851 56.5322C165.873 61.1326 165.362 93.3358 161.784 95.8917C158.206 98.4475 153.094 102.537 156.672 108.671C160.251 114.805 164.34 121.45 167.407 121.961C170.474 122.472 176.097 126.05 174.563 129.628C173.03 133.206 154.628 126.561 154.628 126.561C154.628 126.561 142.36 117.36 142.871 103.048C143.382 88.7354 141.849 47.3313 141.849 47.3313Z" fill="#0A6EAA"/>
<path d="M159.739 107.648L147.471 130.651C147.471 130.651 129.58 149.052 139.804 151.097C150.027 153.142 155.65 134.229 155.65 134.229L168.94 115.316L159.739 107.648Z" fill="#A0616A"/>
<path d="M130.519 4.02514C129.9 3.97934 129.281 4.09942 128.725 4.37298C128.222 4.74024 127.808 5.21521 127.512 5.76318C126.149 7.81405 124.371 9.55711 122.294 10.8804C120.744 11.8665 118.773 13.0961 119.038 14.9143C119.182 15.5239 119.439 16.1013 119.794 16.6171C121.229 19.1491 121.8 22.0798 121.422 24.9655L125.684 18.7692C126.361 17.7856 127.537 16.6753 128.558 17.293C128.9 17.4998 129.125 17.8708 129.481 18.0522C130.331 18.4853 131.235 17.6574 131.988 17.071C134.582 15.049 138.271 15.5787 141.5 16.2088C143.024 16.5062 144.698 16.8964 145.599 18.1611C147.096 20.2629 145.532 23.2997 146.406 25.7278C146.651 25.5565 146.859 25.3379 147.017 25.0849C147.176 24.8318 147.282 24.5496 147.329 24.2548C148.548 24.2925 150.041 24.1726 150.563 23.0708C150.722 22.639 150.807 22.1834 150.814 21.7234C151.005 19.8725 151.91 18.184 152.509 16.4224C153.109 14.6608 153.369 12.5964 152.358 11.0346C151.988 10.5054 151.541 10.0341 151.033 9.6362C145.293 4.81333 137.746 4.01798 130.519 4.02514Z" fill="#2F2E41"/>
<path d="M159.74 54.4875L164.502 55.7517C164.502 55.7517 175.586 84.135 173.03 103.559C170.474 122.983 168.941 118.894 168.941 118.894C168.941 118.894 164.851 109.693 155.651 111.738L159.74 54.4875Z" fill="#0A6EAA"/>
<path d="M109.331 277.217C108.098 278.892 108.345 281.286 107.254 283.056C106.307 284.591 104.523 285.395 103.34 286.755C102.962 287.206 102.625 287.691 102.333 288.202C101.235 290.042 100.342 292.399 101.424 294.249C102.294 295.736 104.123 296.318 105.8 296.714C107.92 297.215 110.123 297.616 112.267 297.233C114.411 296.85 116.507 295.537 117.272 293.498C117.422 292.985 117.601 292.481 117.807 291.987C118.969 289.699 122.615 289.675 123.804 287.4C124.637 285.809 123.872 283.885 123.107 282.26L120.771 277.297C119.995 275.65 116.852 276.597 115.214 276.202C113.077 275.688 110.868 275.121 109.331 277.217Z" fill="white"/>
<path d="M119.716 162.13L128.78 174.472L164.127 156.21L166.166 155.161L122.003 152.309L119.716 162.13Z" fill="white"/>
<path opacity="0.2" d="M120.207 162.8L128.779 174.472L164.125 156.21L120.207 162.8Z" fill="black"/>
<path d="M116.904 176.525L118.543 165.821L166.342 155.171L116.904 176.525Z" fill="white"/>
<path d="M92.2643 117.872L113.733 151.097C113.733 151.097 127.023 167.966 131.113 160.298C135.202 152.631 116.8 139.852 116.8 139.852L102.999 114.294L92.2643 117.872Z" fill="#A0616A"/>
<path d="M102.997 55.5099L98.9078 54.4875C98.9078 54.4875 90.7292 57.0434 88.6846 67.7778C86.6399 78.5122 88.1734 121.45 90.7292 121.961C93.285 122.472 103.352 114.485 104.964 116.178C106.575 117.872 101.464 109.182 102.997 104.581C104.531 99.981 102.997 55.5099 102.997 55.5099Z" fill="#0A6EAA"/>
</svg>
