<svg width="612" height="753" viewBox="0 0 612 753" fill="none" xmlns="http://www.w3.org/2000/svg">
<circle cx="305.815" cy="336.852" r="231.539" transform="rotate(-65.9419 305.815 336.852)" fill="#0A6EAA" fill-opacity="0.3"/>
<rect x="233.171" y="40.9669" width="285.523" height="601.029" rx="35" transform="rotate(4.76592 233.171 40.9669)" fill="#EAEAEA"/>
<path d="M503.168 99.6403L459.218 626.781C458.689 633.06 455.688 638.872 450.875 642.94C446.062 647.009 439.83 649.001 433.549 648.479L219.493 630.632C216.381 630.378 213.349 629.513 210.572 628.086C207.795 626.658 205.327 624.697 203.309 622.314C201.291 619.932 199.763 617.174 198.813 614.2C197.863 611.226 197.509 608.094 197.772 604.984L241.721 77.8426C241.98 74.7316 242.85 71.702 244.28 68.927C245.71 66.152 247.674 63.6859 250.057 61.6695C252.441 59.6531 255.199 58.126 258.173 57.1753C261.147 56.2245 264.28 55.8689 267.392 56.1286L299.425 58.7993L299.082 62.9061C298.65 68.0791 300.291 73.2119 303.644 77.1756C306.997 81.1392 311.788 83.6091 316.962 84.042L425.832 93.1189C429.997 93.475 434.164 92.4785 437.717 90.2773C438.434 89.8419 439.12 89.3574 439.771 88.8272C441.828 87.1669 443.527 85.106 444.763 82.7697C446 80.4333 446.749 77.8702 446.965 75.2356L447.308 71.1288L481.448 73.9751C484.56 74.2336 487.59 75.1027 490.366 76.5326C493.142 77.9625 495.609 79.9252 497.627 82.3087C499.644 84.6921 501.171 87.4495 502.122 90.4234C503.073 93.3972 503.428 96.5292 503.168 99.6403Z" fill="#003269"/>
<path fill-rule="evenodd" clip-rule="evenodd" d="M446.897 120.247C453.963 131.076 462.356 138.714 467.527 139.752C480.495 142.353 501.946 100.681 501.062 79.7381C500.179 58.795 457.815 29.3754 439.576 61.2081C433.245 72.2563 433.114 84.7833 436.184 96.5406L394.802 149.685L431.755 167.547L446.897 120.247Z" fill="#E9BC92"/>
<path fill-rule="evenodd" clip-rule="evenodd" d="M428.767 42.4526C428.145 40.6929 428.31 38.69 428.522 36.8148C428.742 34.8668 428.987 32.9098 429.436 30.9888C430.334 27.1507 432.252 23.1644 436.022 21.6695C439.046 20.4708 442.486 20.9406 445.332 22.0567C447.227 22.8001 448.981 23.9636 450.455 25.3867C451.917 26.7985 452.866 28.6618 454.209 30.1834C456.078 26.4825 458.604 22.8865 462.038 20.6151C465.342 18.4298 469.078 18.1133 472.606 19.2571C476.228 20.4312 479.196 22.8464 481.442 25.9595C482.004 26.739 482.549 27.5347 483.035 28.3716C483.441 29.0723 483.831 29.8682 484.46 30.3771C485.16 30.9446 485.773 30.6775 486.565 30.3492C487.494 29.9643 488.46 29.6969 489.433 29.5161C493.735 28.7171 498.364 29.771 501.366 32.9473C502.749 34.4108 503.868 36.3016 504.288 38.3653C504.663 40.2049 504.364 42.6906 505.325 44.3108C505.733 44.9985 506.412 44.6766 507.146 44.5515C508.25 44.3633 509.345 44.0962 510.451 43.9287C512.004 43.6933 513.556 43.706 515.061 44.047C517.263 44.5461 519.948 45.9766 519.26 48.8444C519.002 49.9216 518.335 50.8849 517.792 51.8335C517.046 53.136 516.296 54.4361 515.529 55.7256C514.946 56.7047 514.356 57.6375 513.678 58.5479C513.317 59.0332 512.513 59.875 512.483 60.5216C512.446 61.3299 513.953 61.5887 514.507 61.8853C515.602 62.4711 516.628 63.2089 517.43 64.185C518.051 64.9416 518.63 65.8921 518.524 66.9725C518.459 67.6362 518.125 68.1884 517.747 68.7206C517.293 69.3593 517.249 69.7932 516.998 70.5376C518.854 70.524 524.844 71.3952 524.199 74.3988C523.984 75.3989 523 76.1705 522.257 76.7424C520.953 77.7455 519.499 78.535 518.052 79.259C515.034 80.7696 511.816 81.7755 508.576 82.3995C510.767 84.9894 509.726 89.0016 506.256 90.0142C504.723 90.4612 503.185 89.9821 501.869 89.2699C501.387 89.0093 500.769 88.4767 500.34 88.3751C500.109 88.3204 499.8 88.3892 499.502 88.2693C497.539 87.4813 495.616 85.9872 493.963 84.6683C491.018 82.318 488.643 79.2365 487.239 75.6129C486.879 74.6833 486.507 74.0688 485.62 73.6509C484.842 73.2846 483.98 73.1298 483.198 72.7757C481.127 71.839 479.765 69.9473 478.187 68.3633C476.831 70.8735 474.734 73.3468 472.568 75.1482C470.801 76.6172 468.881 76.0266 467.045 75.3427C461.172 73.1559 455.819 69.841 450.191 67.13C455.041 70.9926 460.422 74.2195 465.119 78.2763C467.242 80.11 464.584 80.8537 462.99 81.4892C460.366 82.5359 457.965 84.244 455.895 86.2657C454.909 81.5062 451.307 76.9428 446.621 75.9933C441.442 74.944 435.185 79.6078 435.966 85.5128C436.42 88.9409 439.024 91.4384 441.055 93.7986C438.041 94.9144 436.068 97.7595 433.607 99.7702C432.393 100.762 430.858 101.804 429.311 101.606C428.739 101.533 428.154 101.268 427.572 101.482C426.85 101.746 426.467 102.247 425.645 102.377C422.368 102.897 418.599 100.913 417.501 97.6364C416.507 94.6731 418.559 91.7352 421.187 90.4883C419.1 88.1351 415.015 84.4316 418.022 80.8612C412.54 77.7471 403.227 61.9127 414.074 58.8745C411.042 54.4997 409.994 46.8841 415.13 43.0996C419.084 40.1854 424.729 40.7567 428.767 42.4526" fill="#5A3737"/>
<path fill-rule="evenodd" clip-rule="evenodd" d="M310.884 280.075L290.228 511.75L272.329 681.214L301.917 695.516L395.065 320.765L310.884 280.075Z" fill="#0C6195"/>
<path fill-rule="evenodd" clip-rule="evenodd" d="M256.187 707.602L273.356 676.012L305.69 691.641C320.873 718.924 353.086 746.841 353.086 746.841L350.109 753L291.6 724.719L273.073 711.965L271.584 715.044L256.187 707.602Z" fill="#676767"/>
<path fill-rule="evenodd" clip-rule="evenodd" d="M454.458 314.543L481.89 376.412C492.745 387.229 501.003 397.682 506.665 407.771C507.638 410.79 507.947 415.954 499.879 410.472C491.812 404.991 483.08 399.588 480.267 401.799C477.455 404.011 480.59 410.378 476.013 412.913C472.961 414.604 469.265 403.867 464.925 380.701L429.18 334.419L454.458 314.543Z" fill="#E9BC92"/>
<path fill-rule="evenodd" clip-rule="evenodd" d="M419.953 139.68L439.552 142.26C434.796 210.601 442.202 282.529 476.699 356.935L450.796 374.476C414.891 320.642 378.475 274.703 380.64 221.011C381.367 202.991 410.818 157.231 419.953 139.68Z" fill="#676767"/>
<mask id="mask0" mask-type="alpha" maskUnits="userSpaceOnUse" x="195" y="53" width="311" height="597">
<path d="M503.056 99.0331L459.106 626.174C458.577 632.453 455.576 638.265 450.763 642.333C445.95 646.401 439.718 648.393 433.437 647.872L219.381 630.025C216.269 629.771 213.237 628.906 210.46 627.478C207.683 626.051 205.215 624.09 203.197 621.707C201.179 619.324 199.651 616.567 198.701 613.593C197.751 610.619 197.397 607.487 197.66 604.376L241.609 77.2354C241.868 74.1243 242.738 71.0948 244.168 68.3198C245.598 65.5448 247.562 63.0787 249.945 61.0623C252.329 59.0459 255.087 57.5187 258.061 56.568C261.035 55.6173 264.168 55.2616 267.28 55.5213L299.313 58.1921L298.97 62.2989C298.538 67.4719 300.179 72.6047 303.532 76.5683C306.885 80.532 311.676 83.0019 316.85 83.4348L425.72 92.5117C429.885 92.8678 434.052 91.8712 437.605 89.6701C438.322 89.2347 439.008 88.7501 439.659 88.2199C441.716 86.5596 443.415 84.4988 444.651 82.1624C445.888 79.8261 446.637 77.2629 446.853 74.6284L447.196 70.5215L481.336 73.3679C484.448 73.6264 487.478 74.4954 490.254 75.9253C493.03 77.3552 495.497 79.318 497.515 81.7014C499.532 84.0849 501.059 86.8423 502.01 89.8161C502.961 92.79 503.316 95.9219 503.056 99.0331Z" fill="#F2F2F2"/>
</mask>
<g mask="url(#mask0)">
<path fill-rule="evenodd" clip-rule="evenodd" d="M292.671 268.656C259.377 335.481 216.218 426.255 212.318 429.539C208.418 432.822 49.5304 468.634 49.5304 468.634L52.2461 501.938C52.2461 501.938 230.967 479.932 243.592 471.593C256.216 463.254 343.282 372.446 392.572 316.944L292.671 268.656Z" fill="#0A6EAA"/>
<path fill-rule="evenodd" clip-rule="evenodd" d="M252.123 195.47C252.123 195.47 175.541 269.13 165.721 274.791C160.921 277.558 137.453 280.02 122.197 280.191C116.074 280.259 115.346 285.105 116.276 287.144C123.844 303.73 138.63 300.006 153.266 302.284C169.3 304.78 157.516 320.15 170.111 322.301C171.6 313.639 172.949 296.569 181.693 290.621C187.522 286.655 277.48 212.612 277.48 212.612L252.123 195.47Z" fill="#E9BC92"/>
<path fill-rule="evenodd" clip-rule="evenodd" d="M284.016 272.783C284.016 272.783 352.903 315.577 398.317 328.032C402.068 329.061 405.398 323.558 405.693 318.873C410.278 245.916 418.925 184.503 439.383 142.178C430.87 142.32 414.925 131.632 414.925 131.632C363.181 160.428 324.897 203.661 284.016 272.783Z" fill="white"/>
<path fill-rule="evenodd" clip-rule="evenodd" d="M409.415 121.935C410.464 121.784 411.01 121.721 411.01 121.721L410.579 122.497L423.357 128.674C422.122 132.939 418.199 142.162 412.764 154.939C394.071 198.885 357.494 284.875 350.91 355.778L237.743 301.076C258.947 262.083 278.267 235.329 297.355 214.453C270.28 225.992 236.449 247.33 198.116 286.239L172.398 264.51C264.637 150.044 384.436 125.921 407.19 122.274C407.54 121.973 407.891 121.671 408.242 121.368L409.415 121.935Z" fill="#949494"/>
</g>
<rect x="144.728" y="108.786" width="53.31" height="53.31" transform="rotate(45 144.728 108.786)" fill="#00AAC8"/>
<rect x="156.184" y="144.127" width="53.31" height="53.31" transform="rotate(45 156.184 144.127)" fill="#00AAC8" fill-opacity="0.5"/>
</svg>
