<svg width="249" height="221" viewBox="0 0 249 221" fill="none" xmlns="http://www.w3.org/2000/svg">
<g clip-path="url(#clip0)">
<path opacity="0.1" d="M111.552 85.5064C101.82 82.3514 91.5305 79.7066 81.0148 79.9792C65.555 80.3813 50.6906 87.5979 43.3595 98.2636C37.1627 107.302 36.3355 117.924 33.6305 127.975C30.2976 140.357 23.9715 152.108 17.2196 163.599C13.5931 169.771 9.76723 176.073 9.13676 182.855C8.2719 192.271 13.9676 201.685 22.9476 207.994C31.9277 214.304 43.8768 217.667 55.8825 218.452C62.2707 218.868 68.9471 218.547 74.6347 216.242C80.651 213.813 85.0508 209.368 91.0914 206.966C96.6901 204.742 103.216 204.456 109.496 204.783C117.629 205.195 125.685 206.578 133.491 208.901C142.245 211.525 150.379 215.3 159.114 217.961C167.849 220.622 177.613 222.128 186.563 219.988C194.967 217.98 201.632 213.03 207.643 208.016C217.33 199.956 226.337 191.11 234.573 181.568C240.002 175.255 245.059 168.589 247.484 161.213C252.115 147.109 245.91 131.14 232.026 121.427C220.525 113.377 205.051 109.823 189.899 107.664C176.08 105.675 160.092 105.478 147.391 100.412C135.278 95.5675 124.258 89.6247 111.552 85.5064Z" fill="#227AA6"/>
<path d="M121.286 93.8753C120.941 93.9077 120.59 93.8915 120.248 93.9455C119.674 94.06 119.126 94.2805 118.632 94.5959C116.18 95.9939 113.866 97.9154 112.85 100.549C112.766 100.711 112.74 100.897 112.774 101.076C112.835 101.223 112.933 101.352 113.06 101.448L114.014 102.317C114.134 102.443 114.278 102.543 114.437 102.614C114.694 102.681 114.965 102.673 115.218 102.59C117.84 101.988 120.626 101.294 122.466 99.3296C123.339 98.3985 124.144 97.1166 125.429 97.0815C125.968 97.0815 126.472 97.2893 127.003 97.3513C127.534 97.4134 128.172 97.1867 128.299 96.6686C128.34 96.4108 128.31 96.1468 128.213 95.9048L127.421 93.2627C127.205 92.5394 125.031 92.5016 124.306 92.6311C123.201 92.8228 122.458 93.7673 121.286 93.8753Z" fill="#003269"/>
<path d="M130.62 108.759C130.582 109.663 130.655 110.578 130.506 111.474C130.376 112.181 130.15 112.866 129.835 113.512C129.351 114.55 128.735 115.521 128.003 116.402C127.322 117.212 126.505 117.973 125.495 118.292C124.485 118.61 123.243 118.381 122.612 117.528C122.098 116.834 122.073 115.908 122.111 115.042C122.203 112.913 122.537 110.754 123.49 108.848C123.9 108.039 124.42 107.267 124.838 106.449C125.711 104.752 126.209 102.738 127.715 101.567C128.66 102.004 129.67 102.282 130.706 102.39C131.107 102.433 132.255 102.46 132.39 102.976C132.481 103.324 131.727 104.298 131.581 104.641C131.006 105.941 130.68 107.338 130.62 108.759Z" fill="#003269"/>
<path d="M119.939 69.8371C120.262 70.6629 120.672 71.4726 120.747 72.3524C120.801 72.8922 120.747 73.4319 120.747 73.9717C120.793 74.7112 120.916 75.4439 121.114 76.1577L122.614 82.311C122.838 83.2313 123.062 84.1759 122.946 85.1151C122.868 85.7412 122.641 86.3484 122.644 86.9772C122.673 87.4541 122.749 87.9269 122.87 88.3887C123.155 89.8155 123.077 91.2909 122.644 92.6798C122.6 92.7845 122.584 92.899 122.598 93.0118C122.636 93.1872 122.806 93.2951 122.959 93.3788C124.575 94.2643 126.336 94.8521 128.159 95.1141C129.805 91.1932 130.954 87.0817 131.581 82.875C131.964 80.3274 132.15 77.7473 132.64 75.2185C132.651 75.0725 132.713 74.9349 132.815 74.8299C132.998 74.6761 133.276 74.7732 133.491 74.8758C136.245 76.202 138.894 77.7358 141.415 79.4638C142.302 78.3136 142.925 76.9823 143.241 75.5641C143.558 74.1459 143.559 72.6754 143.245 71.2567C142.928 70.0335 142.476 68.8495 141.897 67.7266C141.281 66.3608 140.513 65.0689 139.607 63.8754C137.608 61.3656 134.677 59.7625 131.659 58.6748C129.824 58.0109 127.936 57.5198 126.05 57.0178C124.994 56.7344 123.223 55.8114 122.197 56.5293C121.119 57.2769 120.402 59.1309 119.961 60.3076C119.415 61.7671 119.118 63.3079 119.082 64.8659C119.038 66.5634 119.329 68.2528 119.939 69.8371Z" fill="#3F3D56"/>
<path d="M141.598 77.2561C141.035 77.8714 141.509 78.8538 141.401 79.685C141.331 80.0604 141.197 80.4209 141.005 80.751L138.427 85.8221C137.996 86.5831 137.673 87.4006 137.467 88.251C137.114 90.0808 137.839 92.1373 136.912 93.7539C136.613 94.2748 136.15 94.7228 136.026 95.3111C135.934 95.7402 136.026 96.1882 135.98 96.6227C135.918 97.1328 135.646 97.5916 135.495 98.0828C135.378 98.5548 135.294 99.0346 135.245 99.5186C134.918 101.582 133.839 103.452 132.216 104.765C131.287 105.554 130.093 105.961 128.875 105.904C127.674 105.801 126.48 104.984 126.235 103.802C126.151 103.399 126.168 102.951 125.917 102.625C125.561 102.158 124.812 102.139 124.47 101.661L125.796 99.4754C126.208 98.798 126.628 98.0909 126.696 97.3001C126.777 96.3313 126.31 95.3651 126.477 94.407C126.62 93.5839 127.21 92.8984 127.388 92.0834C127.609 91.0713 127.167 90.0485 126.927 89.0391C126.34 86.5535 126.997 83.9626 127.652 81.4824C128.522 78.2007 129.414 74.8677 131.176 71.9664C134.692 73.8637 137.925 75.6854 141.598 77.2561Z" fill="#3F3D56"/>
<path d="M141.631 25.8492C141.841 26.4213 141.728 27.0555 141.687 27.6628C141.593 29.0122 141.878 30.3616 141.814 31.7299C141.749 33.0982 141.329 34.4044 141.038 35.7349C140.211 39.5321 140.41 43.4886 139.661 47.302C138.737 52.0249 136.374 56.424 135.908 61.217C135.76 62.7392 135.779 64.3692 134.946 65.6539C129.999 63.4725 125.322 60.721 121.011 57.4549C121.96 50.4083 122.897 43.3266 122.771 36.218C122.709 35.361 122.769 34.4997 122.948 33.6595C123.173 32.9538 123.496 32.2833 123.908 31.6678C124.95 29.9702 126.098 28.3402 127.243 26.7128C127.976 25.671 128.768 24.578 129.937 24.0895C131.107 23.601 132.492 23.8196 133.766 24.0517C135.3 24.3324 136.832 24.6131 138.362 24.8938C139.319 25.0692 141.221 24.7345 141.631 25.8492Z" fill="#0A6EAA"/>
<path d="M104.737 52.8507C104.109 52.2209 103.423 51.6508 102.689 51.1477C103.646 49.9819 103.457 48.2951 103.692 46.8027C103.884 45.8332 104.175 44.8863 104.562 43.977C104.659 43.7206 104.796 43.4372 105.063 43.3698C105.227 43.3495 105.393 43.3757 105.543 43.4453C106.351 43.7314 108.038 43.7152 108.665 44.2388C109.422 44.8757 108.73 46.2089 108.444 47.0051C108.242 47.5394 105.139 53.2555 104.737 52.8507Z" fill="#BE6F72"/>
<path d="M107.084 103.251C107.49 103.909 107.755 104.644 107.863 105.41C107.928 106.177 107.647 107.016 106.995 107.421C106.343 107.825 105.409 107.691 104.633 107.448C102.987 106.911 101.472 106.033 100.189 104.871C98.9049 103.708 97.8807 102.287 97.1829 100.701C96.9377 100.134 96.7248 99.532 96.2911 99.0948C95.9688 98.8111 95.6111 98.5707 95.2268 98.3796C94.168 97.7805 93.1468 96.9925 92.6565 95.8751C92.1661 94.7578 92.387 93.2654 93.4028 92.6015C93.7194 92.4183 94.0692 92.3001 94.4318 92.2537C94.7945 92.2074 95.1628 92.2339 95.5151 92.3316C96.2174 92.5314 96.8898 92.8246 97.5143 93.2033C98.5596 93.7728 99.8367 94.264 100.747 95.0223C101.556 95.6889 102.28 96.5903 102.97 97.3757C103.76 98.2793 104.5 99.2253 105.188 100.209C105.409 100.498 107.27 102.989 107.084 103.251Z" fill="#003269"/>
<path d="M87.3357 97.5862C87.2441 98.9441 87.0047 100.288 86.6217 101.594C86.4035 102.328 86.1152 103.092 85.509 103.559C84.9962 103.892 84.4151 104.105 83.8089 104.182C83.5974 104.24 83.3765 104.253 83.1596 104.223C82.7878 104.144 82.5237 103.823 82.2947 103.518C81.3948 102.325 80.5192 101.065 80.1393 99.6184C79.6004 97.5214 80.1393 95.2733 81.0742 93.314C81.4103 92.5241 81.9003 91.8093 82.5156 91.2116C83.2759 90.5857 84.1894 90.1748 85.1614 90.0214C86.1556 89.8217 87.3761 89.3953 87.4489 90.6071C87.5553 92.9335 87.5175 95.2644 87.3357 97.5862Z" fill="#003269"/>
<path d="M102.243 46.8595C104.102 47.823 106.166 49.0482 106.554 51.1074C106.794 52.3651 106.333 53.6524 106.409 54.9316C106.476 56.057 106.948 57.1447 106.888 58.2674C106.825 58.7979 106.735 59.3248 106.619 59.8462C106.46 60.842 106.554 61.8568 106.514 62.8634C106.425 65.1304 105.668 67.3111 105.301 69.5484C105.042 71.1459 104.981 72.7695 105.121 74.382C105.21 75.4237 105.39 76.46 105.39 77.5072C105.39 78.2613 105.328 79.0141 105.204 79.758C104.843 82.095 104.116 84.3603 103.049 86.4699C101.753 89.0257 101.936 92.3236 102.074 95.1871C102.134 95.5817 102.083 95.9853 101.928 96.353C101.589 96.971 100.743 97.0601 100.042 97.0007C97.4443 96.7629 95.0351 95.5408 93.3064 93.584C93.0542 93.338 92.8831 93.0206 92.816 92.6745C92.7567 92.0969 93.2202 91.6219 93.5543 91.1443C94.6912 89.525 94.403 87.3308 94.5377 85.3418C94.636 83.8947 94.9814 82.4753 95.5588 81.1452C95.8929 80.376 96.3105 79.6176 96.3859 78.781C96.456 78.0011 96.2189 77.2292 95.9845 76.4843L95.1762 73.9151C93.9234 69.9235 92.6624 65.9077 90.7657 62.1806C89.5212 62.9917 88.6305 64.2456 88.2735 65.6891C87.5676 68.2314 88.5725 71.0705 87.6107 73.5156C87.4514 73.8547 87.319 74.2057 87.2146 74.5655C87.158 74.876 87.1363 75.192 87.15 75.5074C87.1749 78.138 87.335 80.7656 87.6295 83.3798C87.6441 83.7757 87.7551 84.1621 87.9528 84.5052C88.1118 84.7346 88.3435 84.9046 88.5133 85.1232C88.9848 85.7358 88.8958 86.5941 88.7827 87.3578L88.2438 90.9688C88.2343 91.1519 88.1736 91.3286 88.0687 91.4789C87.9416 91.6022 87.7832 91.6881 87.6107 91.7272C85.8986 92.2597 84.0938 92.4252 82.3137 92.213C81.7883 92.1509 81.3115 91.7974 80.8723 91.5005C80.8265 90.9607 81.4974 90.6018 81.5216 90.0647C81.4956 89.7465 81.3479 89.4507 81.1094 89.2389C80.1071 88.1054 78.9108 86.9017 78.9216 85.3877C78.9216 84.991 79.0159 84.5942 79.0025 84.1975C78.9674 83.1801 78.2669 82.3084 78.0217 81.3287C77.72 80.1169 78.1214 78.8593 78.275 77.6205C78.4852 75.9527 78.2373 74.2632 78.0056 72.598L77.103 66.4879C76.9981 65.5396 76.8106 64.6022 76.5426 63.6866C76.2028 62.785 75.8041 61.9069 75.349 61.0579C74.4868 59.3037 73.7782 57.4793 73.0723 55.6603C72.848 55.1661 72.7069 54.6381 72.6547 54.0977C72.6143 53.172 73.0912 52.2976 73.684 51.5851C74.7942 50.2611 76.3094 49.3409 77.9948 48.9673C78.2765 48.8886 78.5726 48.8766 78.8597 48.9322C79.1011 49.0124 79.3277 49.1319 79.5305 49.2857C81.6133 50.6503 83.9832 51.5131 86.4546 51.8067C88.9259 52.1003 91.4316 51.8166 93.7752 50.9779C94.0446 51.183 94.543 51.0939 94.8529 50.9482C95.7178 50.5515 96.4237 49.8903 97.1834 49.3289C98.5979 48.2548 100.505 47.2346 102.243 46.8595Z" fill="#3F3D56"/>
<path d="M46.3977 116.167C46.5407 116.581 46.756 116.966 47.0335 117.304C48.0088 118.578 49.3695 119.595 49.9972 121.082C50.1292 121.4 50.2262 121.735 50.3475 122.059C50.7162 123.036 51.3173 123.909 52.0988 124.601C52.6948 125.097 53.3425 125.527 54.0306 125.883C55.2214 126.534 56.5093 127.122 57.8618 127.087C58.1338 127.081 58.4045 127.048 58.6701 126.99C59.0911 126.902 59.4969 126.753 59.8744 126.547C60.7447 126.067 61.491 125.128 61.3186 124.148C61.2838 123.961 61.2249 123.78 61.1435 123.608C61.0005 123.335 60.8356 123.074 60.6504 122.828C60.1951 122.197 59.7263 121.549 59.0608 121.144C58.3118 120.685 57.3688 120.572 56.6952 120.005C56.4294 119.764 56.1998 119.486 56.0135 119.179C55.403 118.239 54.9481 117.207 54.6664 116.122C54.4616 115.312 54.3242 114.424 53.7342 113.83C53.1441 113.237 52.3332 113.102 51.5464 112.967C51.2806 112.912 51.0096 112.886 50.7381 112.888C50.3529 112.902 49.9541 113.013 49.5931 112.832C49.232 112.651 49.1108 112.395 48.6743 112.43C48.3269 112.477 47.9994 112.62 47.7286 112.843C46.7048 113.601 46.0258 114.95 46.3977 116.167Z" fill="#3F3D56"/>
<path d="M55.9704 117.396C56.1455 118.31 56.4149 119.285 57.1208 119.881C57.5708 120.27 58.1986 120.513 58.4222 121.06C58.6458 121.608 58.3575 122.297 57.9857 122.799C57.511 123.433 56.9226 123.974 56.2506 124.394C55.6794 124.747 54.9977 125.017 54.343 124.86C53.8042 124.734 53.3785 124.345 52.977 123.97C52.0556 123.114 51.1126 122.226 50.5953 121.079C50.0564 119.87 50.0295 118.47 49.4421 117.279C49.1 116.586 48.5719 115.979 48.3644 115.234C48.2714 114.965 48.2714 114.672 48.3644 114.403C48.4649 114.21 48.6169 114.049 48.8034 113.938C48.9899 113.827 49.2036 113.77 49.4206 113.774C49.8544 113.788 50.2822 113.88 50.6842 114.044C51.9006 114.478 53.1456 114.827 54.4104 115.088C54.9142 115.182 55.2187 115.18 55.4881 115.668C55.737 116.216 55.8997 116.798 55.9704 117.396Z" fill="#FBBEBE"/>
<path d="M59.096 125.13C58.8962 125.436 58.7547 125.777 58.6784 126.134C58.6148 126.412 58.6047 126.7 58.6487 126.982C59.0697 126.894 59.4755 126.745 59.8531 126.539C60.7233 126.059 61.4696 125.119 61.2972 124.14C61.2624 123.953 61.2035 123.772 61.1221 123.6C60.9935 123.571 60.8596 123.577 60.7338 123.616C60.608 123.655 60.4948 123.727 60.4054 123.824C59.9037 124.188 59.4619 124.629 59.096 125.13Z" fill="#FBBEBE"/>
<path d="M49.4408 104.625C49.3236 104.877 49.2887 105.161 49.3411 105.434C49.4651 105.974 50.0174 106.284 50.5158 106.53L55.2551 108.851C55.5838 109.003 55.904 109.174 56.2142 109.361C57.0225 109.858 57.6584 110.559 58.3481 111.202C59.0378 111.844 59.8057 112.446 60.7191 112.673C61.6309 112.873 62.5838 112.748 63.4133 112.319C63.8604 112.096 64.2754 111.814 64.6473 111.48C64.9693 111.197 65.2667 110.887 65.5364 110.554C65.7682 110.309 65.9341 110.009 66.0187 109.682C66.1076 109.188 65.8624 108.703 65.5769 108.295C65.4124 108.06 65.2324 107.837 65.038 107.626C63.2409 105.637 60.2961 104.606 57.7634 104.201C56.7558 104.039 55.7993 103.661 54.8294 103.354C53.8594 103.046 52.8329 102.814 51.8252 102.957C50.8176 103.1 49.8261 103.68 49.4408 104.625Z" fill="#3F3D56"/>
<path opacity="0.1" d="M49.4408 104.625C49.3236 104.877 49.2887 105.161 49.3411 105.434C49.4651 105.974 50.0174 106.284 50.5158 106.53L55.2551 108.851C55.5838 109.003 55.904 109.174 56.2142 109.361C57.0225 109.858 57.6584 110.559 58.3481 111.202C59.0378 111.844 59.8057 112.446 60.7191 112.673C61.6309 112.873 62.5838 112.748 63.4133 112.319C63.8604 112.096 64.2754 111.814 64.6473 111.48C64.9693 111.197 65.2667 110.887 65.5364 110.554C65.7682 110.309 65.9341 110.009 66.0187 109.682C66.1076 109.188 65.8624 108.703 65.5769 108.295C65.4124 108.06 65.2324 107.837 65.038 107.626C63.2409 105.637 60.2961 104.606 57.7634 104.201C56.7558 104.039 55.7993 103.661 54.8294 103.354C53.8594 103.046 52.8329 102.814 51.8252 102.957C50.8176 103.1 49.8261 103.68 49.4408 104.625Z" fill="black"/>
<path d="M61.3003 106.106C61.6647 106.516 61.9645 106.98 62.1894 107.48C62.3918 107.808 62.4639 108.2 62.3915 108.578C62.2855 108.833 62.1157 109.056 61.8984 109.226L61.4269 109.663C61.2845 109.812 61.1189 109.936 60.9366 110.03C60.6786 110.127 60.4032 110.169 60.1283 110.152C59.4951 110.152 58.8135 110.152 58.2989 109.771C57.5957 109.264 57.469 108.214 57.7896 107.407C58.1103 106.6 58.7811 105.99 59.4574 105.445C60.007 105 60.915 105.699 61.3003 106.106Z" fill="#FBBEBE"/>
<path d="M64.1779 108.897C64.0907 109.345 64.1327 109.808 64.2991 110.233C64.4177 110.638 64.5335 111.042 64.6494 111.455C64.6494 111.455 64.6494 111.455 64.6494 111.472C64.9713 111.189 65.2687 110.879 65.5385 110.546C65.7702 110.301 65.9361 110.001 66.0207 109.674C66.1096 109.18 65.8645 108.694 65.5789 108.287C65.4144 108.052 65.2344 107.828 65.04 107.618C64.9134 107.782 64.8029 107.944 64.7113 108.049C64.4756 108.291 64.2937 108.58 64.1779 108.897Z" fill="#FBBEBE"/>
<path d="M51.7978 88.7827C51.2401 91.1306 51.4772 93.5865 51.7736 95.9831C51.9999 97.8075 52.2531 99.6966 51.7143 101.454C51.5149 102.109 51.1997 102.776 51.3209 103.453C51.5499 104.73 53.0857 105.221 54.3574 105.461C54.7243 105.555 55.1055 105.578 55.4809 105.529C55.8575 105.426 56.207 105.242 56.5047 104.989C58.3124 103.673 59.6852 101.845 60.4465 99.7398C60.9287 98.331 61.0823 96.8332 61.2305 95.3516C61.4784 92.8579 61.7289 90.3345 61.3652 87.857C61.2574 87.1283 61.0958 86.4077 61.0284 85.6736C60.9436 84.3969 61.0142 83.1145 61.2386 81.8548C61.7025 78.7342 62.4051 75.6539 63.3401 72.6411C60.7745 72.9823 58.1666 72.5104 55.8823 71.2917C56.3242 71.5292 55.8177 75.3156 55.7638 75.8473C55.6003 77.4323 55.3148 79.0023 54.9097 80.5432C54.158 83.4228 52.4795 85.9219 51.7978 88.7827Z" fill="#3F3D56"/>
<path opacity="0.1" d="M51.7978 88.7827C51.2401 91.1306 51.4772 93.5865 51.7736 95.9831C51.9999 97.8075 52.2531 99.6966 51.7143 101.454C51.5149 102.109 51.1997 102.776 51.3209 103.453C51.5499 104.73 53.0857 105.221 54.3574 105.461C54.7243 105.555 55.1055 105.578 55.4809 105.529C55.8575 105.426 56.207 105.242 56.5047 104.989C58.3124 103.673 59.6852 101.845 60.4465 99.7398C60.9287 98.331 61.0823 96.8332 61.2305 95.3516C61.4784 92.8579 61.7289 90.3345 61.3652 87.857C61.2574 87.1283 61.0958 86.4077 61.0284 85.6736C60.9436 84.3969 61.0142 83.1145 61.2386 81.8548C61.7025 78.7342 62.4051 75.6539 63.3401 72.6411C60.7745 72.9823 58.1666 72.5104 55.8823 71.2917C56.3242 71.5292 55.8177 75.3156 55.7638 75.8473C55.6003 77.4323 55.3148 79.0023 54.9097 80.5432C54.158 83.4228 52.4795 85.9219 51.7978 88.7827Z" fill="black"/>
<path d="M65.7862 75.0242C66.8639 78.1521 66.6268 81.5688 66.1607 84.8451C65.6946 88.1215 65.0076 91.3978 65.2096 94.6985C65.2878 95.9939 65.4979 97.3244 65.1207 98.5632C64.9111 99.1675 64.6336 99.7461 64.2936 100.288L55.6961 115.18C55.4769 115.566 55.1651 115.892 54.7888 116.127C54.4125 116.363 53.9836 116.501 53.5407 116.529C52.622 116.594 51.7194 116.292 50.8626 115.954C50.2933 115.765 49.7642 115.471 49.3026 115.088C49.0738 114.897 48.8945 114.653 48.78 114.378C48.6655 114.103 48.6193 113.804 48.6452 113.506C49.0305 110.921 49.6098 108.273 50.0381 105.68C50.3295 103.92 50.9649 102.235 51.908 100.722C52.5735 99.6427 53.3925 98.6738 53.9664 97.5511C55.6153 94.3341 55.0441 90.4101 53.7724 87.0257C52.5007 83.6414 50.6066 80.5 49.5963 77.0402C49.2967 76.0774 49.1255 75.0792 49.0871 74.0715C49.0746 73.0308 49.2671 71.998 49.6536 71.032C50.0401 70.066 50.613 69.1858 51.3395 68.4418C51.5515 68.2013 51.8187 68.016 52.1181 67.902C52.4681 67.8207 52.8328 67.8272 53.1797 67.9209C57.9674 68.852 64.2047 70.4038 65.7862 75.0242Z" fill="#3F3D56"/>
<path d="M143.066 28.3267C143.222 29.5087 142.796 30.7043 142.19 31.7272C139.897 35.5595 134.611 37.2543 130.524 35.4704C128.84 34.7336 127.415 33.5192 126.019 32.3209C125.55 31.9161 125.063 31.4924 124.825 30.9202C124.408 29.9082 124.912 28.7018 125.733 27.9785C126.555 27.2552 127.619 26.899 128.678 26.5778C132.173 25.4875 142.233 22.0492 143.066 28.3267Z" fill="#FBBEBE"/>
<path d="M141.02 24.5754C144.202 27.1392 148.834 29.5817 152.439 31.4816C153.665 32.1293 155.025 32.858 155.467 34.1804C155.704 34.8875 155.626 35.6567 155.548 36.4016C155.397 37.8346 155.241 39.2893 154.688 40.6198C154.039 42.177 152.891 43.4616 151.97 44.8758C150.353 47.3533 149.405 50.2734 147.409 52.4622C148.756 56.9449 150.229 61.4222 150.709 66.075C150.736 66.2029 150.721 66.336 150.669 66.4555C150.613 66.534 150.542 66.5995 150.458 66.6471L147.107 68.8493C146.741 69.063 146.414 69.3367 146.139 69.659C145.547 70.4308 145.625 71.5157 145.258 72.4144C145.058 72.8531 144.77 73.2466 144.414 73.5712C144.057 73.8959 143.639 74.145 143.184 74.3036C142.268 74.6198 141.292 74.7231 140.331 74.6059C139.106 74.5287 137.928 74.1129 136.925 73.4049C136.071 72.7572 135.462 71.8477 134.875 70.9517C134.44 70.3406 134.078 69.6802 133.797 68.9843C133.439 67.9911 133.417 66.9089 133.431 65.8509C133.439 63.8378 133.632 61.8297 134.004 59.8515C134.161 59.0661 134.355 58.2916 134.479 57.5008C134.726 55.9085 134.678 54.2839 134.861 52.6835C135.112 50.8834 135.513 49.1076 136.06 47.3749C136.36 46.3017 136.594 45.2111 136.761 44.1093C137.076 42.1716 137.704 40.3013 138.331 38.4419L139.409 35.2546C139.638 34.5664 139.87 33.8809 140.142 33.2089C140.649 31.9539 141.301 30.7314 141.473 29.3927C141.664 27.9327 140.091 26.2001 140.622 24.8291C140.665 24.6779 140.899 24.4782 141.02 24.5754Z" fill="#3F3D56"/>
<path d="M154.606 33.4275C155.353 33.7648 155.765 34.5691 156.032 35.3463C156.633 37.098 156.778 38.9745 156.452 40.7979C156.347 41.2563 156.275 41.7217 156.236 42.1905C156.242 42.7339 156.295 43.2757 156.395 43.8098C156.665 45.8744 156.395 47.9714 156.484 50.0548C156.576 52.3974 157.085 54.8722 156.104 57.0016C155.452 58.4158 154.218 59.4683 153.001 60.4237C148.467 63.9632 143.464 66.8552 138.136 69.0167C139.055 67.9102 139.071 66.245 138.46 64.9415C137.848 63.638 136.711 62.6583 135.496 61.8972C137.042 61.5529 138.54 61.0171 139.955 60.3022C142.778 58.8665 145.198 56.7641 147.588 54.6833C147.94 54.4294 148.215 54.0816 148.38 53.6794C148.622 52.8697 147.954 52.1005 147.491 51.3908C146.087 49.2317 146.413 46.4115 147 43.9124C147.655 41.1731 148.617 38.4446 150.371 36.2423C151.465 34.866 152.893 33.808 154.606 33.4275Z" fill="#3F3D56"/>
<path d="M137.898 69.084C137.656 69.4794 137.341 69.8255 136.971 70.1042C136.163 70.6439 135.053 70.4388 134.15 70.0556C133.311 69.6992 132.537 69.2058 131.86 68.5955C131.569 68.2854 131.225 68.0295 130.844 67.8399C130.138 67.57 129.152 67.7724 128.756 67.122C128.71 67.0537 128.687 66.9722 128.691 66.8899C128.716 66.6551 129.023 66.5903 129.26 66.5768C130.36 66.504 131.427 66.174 132.377 65.6134C132.074 65.3938 131.814 65.1191 131.612 64.8037C131.528 64.6936 131.483 64.559 131.483 64.4205C131.516 64.27 131.598 64.135 131.717 64.0372C132.583 63.2186 133.673 62.6766 134.847 62.4805C136.022 62.2844 137.228 62.4431 138.313 62.9361C138.524 63.0219 138.71 63.1614 138.852 63.341C138.951 63.5065 139.018 63.6898 139.048 63.8807C139.223 64.6364 139.856 65.7699 139.627 66.5336C139.374 67.4108 138.418 68.3419 137.898 69.084Z" fill="#FBBEBE"/>
<path d="M119.527 65.6809C122.879 61.8027 124.377 56.6993 125.767 51.7632L126.761 48.2547L129.159 39.8047C129.512 38.5579 129.865 37.311 130.1 36.0399C130.501 33.8458 130.539 31.6031 130.514 29.3739C130.48 28.4497 130.269 27.5408 129.892 26.6966C129.658 26.1137 129.545 25.493 129.353 24.8911C129.11 24.0521 128.746 23.253 128.273 22.5189C128.141 22.3006 127.977 22.104 127.785 21.9359C127.454 21.7102 127.078 21.5575 126.683 21.4879C125.827 21.2328 124.939 21.0975 124.045 21.0858C123.151 21.1182 122.23 21.4286 121.653 22.1087C121.214 22.6295 121.012 23.3042 120.664 23.8899C120.502 24.1297 120.356 24.3793 120.225 24.6374C120.077 25.0296 119.995 25.4436 119.983 25.8627C119.842 27.563 119.723 29.265 119.624 30.9688C119.578 31.7434 119.538 32.5234 119.568 33.3006C119.592 33.9051 119.657 34.507 119.721 35.1088L120.36 41.003C120.508 42.3875 120.403 43.6829 120.527 45.0701C120.829 48.4193 120.109 51.7686 119.371 55.0557C119.018 56.6183 118.654 58.2025 117.9 59.6167C117.234 60.8689 116.237 62.1401 116.502 63.5354C116.593 64.0211 116.838 64.4745 116.876 64.9657C116.858 65.2699 116.888 65.5751 116.965 65.8698C117.075 66.0703 117.246 66.2305 117.452 66.3276C117.659 66.4246 117.891 66.4533 118.115 66.4096C118.649 66.3158 119.141 66.0616 119.527 65.6809Z" fill="#3F3D56"/>
<path d="M119.936 50.16C120.038 50.9346 119.96 51.7199 119.998 52.4999C120.082 53.5044 120.263 54.4985 120.536 55.4686C120.806 56.5481 121.151 57.7572 122.102 58.3563C122.34 58.4804 122.568 58.624 122.783 58.7854C122.889 58.8691 122.967 58.9832 123.007 59.1124C123.046 59.2417 123.045 59.3799 123.004 59.5087L122.263 59.3845C122.348 59.4489 122.417 59.5303 122.468 59.6235C122.518 59.7167 122.548 59.8195 122.556 59.9251C122.565 60.0308 122.55 60.137 122.515 60.2368C122.479 60.3366 122.422 60.4277 122.349 60.5042C122.276 60.5806 122.187 60.6407 122.089 60.6806C121.991 60.7204 121.886 60.739 121.78 60.7352C121.674 60.7314 121.571 60.7053 121.476 60.6586C121.381 60.6119 121.297 60.5456 121.229 60.4641C121.257 60.7072 121.234 60.9536 121.162 61.1873C121.124 61.302 121.052 61.4024 120.956 61.4748C120.859 61.5472 120.743 61.5882 120.623 61.5922C120.483 61.5704 120.351 61.5148 120.237 61.4302L118.303 60.2293C117.723 59.9167 117.241 59.4497 116.91 58.8799L116.064 57.6033C115.877 57.3573 115.729 57.0843 115.625 56.7937C115.31 55.7142 116.191 54.5159 115.733 53.4984C115.595 53.2477 115.433 53.0109 115.25 52.7913C114.272 51.4419 114.334 49.6068 114.442 47.9335C114.477 47.3694 114.579 46.7001 115.089 46.4545C115.493 46.2575 115.978 46.433 116.352 46.6785C116.727 46.9241 117.058 47.248 117.484 47.3937C117.753 47.4855 118.05 47.4963 118.319 47.5934C118.696 47.7257 119.047 48.2412 119.3 48.5461C119.658 49.0141 119.878 49.5732 119.936 50.16Z" fill="#FBBEBE"/>
<path d="M96.3258 25.9058C96.097 26.432 95.7758 26.9128 95.3774 27.3254C95.1773 27.5316 94.9316 27.6878 94.6602 27.7816C94.3888 27.8753 94.0992 27.9039 93.8147 27.8652C93.2166 27.7464 92.7774 27.2525 92.3814 26.7857C91.3468 25.5685 90.2987 24.3351 89.6036 22.894C88.542 20.6998 88.3723 18.1953 88.2187 15.7637C88.181 15.1376 88.1487 14.4737 88.4477 13.9258C88.8276 13.2268 89.6332 12.8976 90.3768 12.6196L94.4856 11.0813C94.7374 10.9618 95.0161 10.9106 95.2939 10.9329C95.9378 11.0408 96.1749 11.8181 96.3501 12.4469C96.6635 13.5769 97.1843 14.6385 97.8858 15.5775C98.8072 16.8082 100.874 18.4652 99.6937 20.0008C98.2684 21.8414 97.3631 23.8278 96.3258 25.9058Z" fill="#BE6F72"/>
<path d="M101.583 18.8835C103.382 20.5784 103.991 23.2178 103.905 25.6872C103.819 28.1566 103.135 30.564 102.744 33.0037C102.353 35.4434 102.275 38.0478 103.334 40.2905C103.698 41.0596 104.193 41.7721 104.447 42.5844C104.659 43.3873 104.731 44.221 104.66 45.0485C104.655 45.9208 104.489 46.7847 104.169 47.5961C103.595 48.87 102.415 49.7552 101.286 50.5648C98.9827 52.2327 96.6333 53.9275 93.9282 54.7993C92.0961 55.3903 90.1562 55.5846 88.2379 55.6899C86.9391 55.7935 85.6329 55.7565 84.342 55.5792C82.0839 55.2023 80.0088 54.1019 78.428 52.4432C78.1526 52.1758 77.9256 51.8626 77.7572 51.5175C77.5926 51.0684 77.5131 50.5924 77.5228 50.1141C77.4581 48.3419 77.4689 46.5697 77.5551 44.7975C77.6046 43.1085 77.8367 41.43 78.2475 39.7912C78.7621 37.902 79.6539 36.1316 80.3302 34.291C82.685 27.8921 82.4479 20.6107 85.7188 14.6356C86.4247 13.3456 87.6048 11.9881 89.0597 12.1932C89.3396 12.21 89.603 12.3314 89.7979 12.5332C89.9651 12.7788 90.0586 13.0673 90.0673 13.3644C90.4149 16.2684 90.908 19.2478 92.274 21.8684C92.8128 22.8966 93.6211 24.4619 94.8632 24.7372C96.1052 25.0125 96.8381 23.825 97.5035 22.983C98.6729 21.4389 100.045 20.06 101.583 18.8835Z" fill="#E3E8F4"/>
<path d="M110.197 14.5143C110.564 14.713 110.906 14.9539 111.218 15.2322C112.026 15.9986 112.322 17.1726 112.317 18.2845C112.312 19.3964 112.048 20.4921 111.886 21.5932C111.452 24.5619 111.821 27.6008 111.994 30.6073C112.046 31.0927 112.017 31.5835 111.908 32.0592C111.775 32.5126 111.503 32.912 111.328 33.3519C110.814 34.6528 111.202 36.1371 110.9 37.5027C110.577 38.9574 109.469 40.2798 109.677 41.756C109.76 42.3336 110.038 42.8652 110.156 43.4374C110.275 44.0095 110.172 44.7004 109.679 45.0081C109.186 45.3158 108.47 45.0918 107.882 45.2618C107.644 45.35 107.411 45.4546 107.187 45.5748C106.279 45.9851 105.196 45.8447 104.302 45.3967C103.425 44.9174 102.637 44.2912 101.971 43.5453C100.944 42.4928 99.9503 41.3404 99.5003 39.9397C98.8429 37.9102 99.4276 35.6999 100.142 33.6866C100.856 31.6733 101.707 29.6384 101.58 27.4982C101.51 26.3 101.133 25.1476 100.907 23.9709C100.627 22.3406 100.526 20.6843 100.608 19.0321C100.643 17.823 100.724 16.5762 101.244 15.4831C101.614 14.754 102.162 14.1298 102.836 13.6677C103.51 13.2056 104.289 12.9204 105.102 12.8383C106.988 12.6332 108.604 13.5967 110.197 14.5143Z" fill="#3F3D56"/>
<path opacity="0.1" d="M105.101 40.6008C105.12 41.4644 105.274 42.3196 105.559 43.135C106.041 42.0339 106.098 40.7978 106.162 39.5996C106.432 35.4731 107.345 31.5814 108.318 27.5845C107.609 28.1242 107.211 29.4736 106.871 30.2833C105.524 33.5482 104.919 37.0727 105.101 40.6008Z" fill="black"/>
<path d="M86.9391 11.8478C85.6405 12.1905 84.5143 12.9624 83.256 13.467C81.9493 14.0068 80.5429 14.2362 79.1715 14.5682C75.9976 15.34 72.8103 16.7731 70.8947 19.426C69.4829 21.3772 68.8982 23.7873 67.931 25.9976C67.1227 27.8517 66.045 29.5897 65.4495 31.5194C64.6709 34.0374 64.7598 36.7362 64.9511 39.3648C65.1074 41.5238 65.3445 43.7072 66.3225 45.6206C66.8344 46.6246 67.5403 47.5233 68.0522 48.5273C68.6665 49.7336 68.9898 51.0641 69.5017 52.3056C70.0136 53.547 70.7653 54.7885 71.9535 55.4362L73.9203 54.2838C76.8544 52.5647 79.7885 50.8428 82.631 48.9753C85.1097 47.356 87.61 45.4965 88.9302 42.8355C90.0995 40.4848 90.2154 37.7374 89.9136 35.1277C89.6118 32.5179 88.9221 29.9649 88.5665 27.3632C88.1134 24.0887 88.1816 20.763 88.7685 17.5099C89.038 16.0417 89.7546 14.525 89.9028 13.0622C90.0672 11.4996 88.0626 11.5509 86.9391 11.8478Z" fill="#3F3D56"/>
<path d="M74.7805 54.7507C76.2866 56.1784 78.4528 56.594 80.3361 57.4495C81.7354 58.1003 82.9954 59.0168 84.0462 60.1483C84.6254 60.7852 85.1859 61.6515 84.8949 62.4612C84.6497 63.1575 83.898 63.5137 83.2083 63.7728C82.3515 64.0967 81.395 64.3827 80.5409 64.0562C80.0398 63.8646 79.6356 63.4813 79.1749 63.2087C78.046 62.5367 76.6234 62.534 75.4649 61.9133C73.8322 61.0389 73.0185 59.1147 71.4827 58.0756C70.6421 57.5089 69.4809 57.0447 69.3947 56.0326C69.3907 55.6666 69.468 55.3044 69.621 54.972C69.9308 54.1461 70.4589 51.3097 71.639 51.3853C72.9242 51.4689 73.8241 54.0679 74.7805 54.7507Z" fill="#FBBEBE"/>
<path d="M66.8887 42.1013C67.3818 43.8771 68.5268 45.3912 69.715 46.7999C70.5691 47.812 71.5067 48.9131 71.5363 50.2382C71.5633 51.4905 70.728 52.6429 69.6503 53.2825C68.5726 53.9221 67.3036 54.1272 66.0562 54.2082C65.0582 54.3044 64.0513 54.2342 63.0763 54.0004C60.6137 53.3311 58.9055 51.1801 56.9684 49.5176C55.8179 48.5326 54.5246 47.6744 53.6436 46.441C52.7626 45.2076 52.3908 43.4372 53.2583 42.1931C53.5714 41.7898 53.9334 41.4271 54.336 41.1136C55.8074 39.8357 57.0621 38.3272 58.0514 36.647C58.4502 35.9696 58.8328 35.2355 59.5037 34.828C60.4655 34.2424 61.6995 34.5096 62.788 34.7956C63.9708 35.106 67.3036 35.7132 67.5353 37.2246C67.6296 37.8453 66.8618 38.8115 66.7459 39.4781C66.5984 40.3523 66.6472 41.2484 66.8887 42.1013Z" fill="#FBBEBE"/>
<path d="M72.9796 45.4857C73.3326 46.1265 73.6231 46.7998 73.8472 47.4963C74.6689 50.3571 73.2005 53.3042 72.5 56.1973C71.6055 59.9028 71.9854 63.7783 71.9423 67.5917C71.9235 69.3351 71.7376 71.2539 70.4847 72.463C70.1614 72.7707 69.7734 73.0298 69.5552 73.4184C69.4203 73.7032 69.3199 74.0031 69.2561 74.3117C69.0648 74.9785 68.7256 75.5934 68.2637 76.1104C67.8018 76.6274 67.2292 77.0332 66.5887 77.2974C65.9483 77.5616 65.2565 77.6774 64.5651 77.6361C63.8736 77.5948 63.2005 77.3976 62.5959 77.0591C61.5747 76.4896 60.6883 75.5019 59.519 75.4722C59.1513 75.49 58.7851 75.5305 58.4224 75.5936C57.2585 75.7097 56.1188 75.2779 55.0276 74.8542C54.7672 74.7718 54.5242 74.6418 54.3109 74.4709C54.1143 74.2901 53.9876 74.0472 53.8071 73.8529C53.1416 73.135 52.0046 73.2592 51.0455 73.0594C50.3298 72.899 49.6745 72.538 49.1559 72.0186C48.6373 71.4992 48.2769 70.8427 48.1168 70.1258C47.9228 69.1975 48.0872 68.2367 48.2488 67.3002L48.9709 63.1278C49.2739 61.5974 49.4835 60.0499 49.5986 58.494C49.6872 56.7356 49.5367 54.9734 49.1514 53.2556C48.8335 51.8522 48.3593 50.4785 48.1868 49.0482C47.8864 46.4847 48.5596 43.9018 50.0728 41.8127C50.4474 41.2972 50.9377 40.7817 51.5736 40.7331C52.0882 40.6873 52.5704 40.9625 53.0177 41.227C56.9028 43.53 60.8149 45.7853 64.754 47.9929C65.8317 48.6002 66.9336 49.2101 68.1353 49.5097C68.4963 49.6014 69.0136 49.5636 69.0648 49.1966C69.0713 49.0567 69.0346 48.9182 68.9597 48.7999C68.2862 47.5017 67.3108 46.3871 66.5349 45.1511C65.7589 43.915 65.1608 42.4523 65.3898 41.0165C65.7024 39.0302 67.5453 37.7159 69.0514 39.2731C70.7407 41.0408 71.8723 43.3132 72.9796 45.4857Z" fill="#00AAC8"/>
<path d="M60.9155 70.6737C64.0759 70.8761 67.3063 71.092 70.2323 72.3065C71.1726 72.6951 72.1695 73.1971 73.1583 72.9569C73.6504 72.8069 74.1082 72.5611 74.5054 72.2336C75.7236 71.3389 76.8745 70.3557 77.9487 69.2919C77.8409 68.7009 77.0407 68.6199 76.4426 68.6253C74.9842 68.634 73.5455 68.2876 72.2503 67.616C71.8246 67.3595 71.373 67.1487 70.9032 66.9871C69.6234 66.6336 68.3193 67.3083 67.0342 67.6376C65.132 68.1233 63.1275 67.84 61.1849 67.5539L55.9418 66.7793C55.4542 66.7092 54.9045 66.6525 54.5165 66.9548C54.2572 67.2002 54.0794 67.5196 54.0073 67.8697C53.3661 70.0287 53.6732 70.2095 55.8071 70.3445L60.9155 70.6737Z" fill="#FBBEBE"/>
<path opacity="0.1" d="M132.508 33.2034C137.269 33.2034 141.129 29.3368 141.129 24.5672C141.129 19.7976 137.269 15.931 132.508 15.931C127.746 15.931 123.886 19.7976 123.886 24.5672C123.886 29.3368 127.746 33.2034 132.508 33.2034Z" fill="black"/>
<path d="M132.445 32.8283C137.207 32.8283 141.067 28.9617 141.067 24.1921C141.067 19.4225 137.207 15.5559 132.445 15.5559C127.684 15.5559 123.823 19.4225 123.823 24.1921C123.823 28.9617 127.684 32.8283 132.445 32.8283Z" fill="#FBBEBE"/>
<path d="M139.722 13.2269C140.412 13.6534 141.134 14.1122 141.511 14.83C141.714 15.3174 141.869 15.8236 141.972 16.3414C142.444 17.9607 143.699 19.3667 143.775 21.0535C143.858 22.9022 142.473 24.508 140.905 25.4768C140.547 25.7411 140.116 25.8864 139.671 25.8924C139.216 25.8628 138.822 25.5767 138.405 25.3932C136.635 24.6051 134.654 25.6037 132.779 26.0625C130.831 26.5339 128.786 26.4136 126.906 25.717C125.895 25.3392 124.915 24.7724 124.281 23.8953C123.648 23.0182 123.422 21.7903 123.961 20.8484C124.23 20.368 124.677 19.9335 124.648 19.3856C124.632 19.0564 124.438 18.7595 124.378 18.4356C124.292 17.9202 124.562 17.4182 124.836 16.9783C126.083 14.9683 127.659 13.1829 129.498 11.6967C130.036 11.2541 130.659 10.8223 131.365 10.7899C132.782 10.7278 134 11.7858 135.457 11.7912C137.112 11.7966 138.3 12.3471 139.722 13.2269Z" fill="#3F3D56"/>
<path opacity="0.1" d="M100.707 22.3677C105.617 22.3677 109.598 18.3803 109.598 13.4616C109.598 8.54292 105.617 4.55554 100.707 4.55554C95.7966 4.55554 91.8159 8.54292 91.8159 13.4616C91.8159 18.3803 95.7966 22.3677 100.707 22.3677Z" fill="black"/>
<path d="M100.864 22.1492C105.774 22.1492 109.755 18.1618 109.755 13.2432C109.755 8.32448 105.774 4.3371 100.864 4.3371C95.9533 4.3371 91.9727 8.32448 91.9727 13.2432C91.9727 18.1618 95.9533 22.1492 100.864 22.1492Z" fill="#BE6F72"/>
<path d="M105.613 18.2736C106.869 18.978 108.418 18.9052 109.819 18.584C110.614 18.4344 111.367 18.116 112.028 17.6502C112.357 17.4151 112.628 17.1083 112.82 16.753C113.013 16.3976 113.123 16.0031 113.141 15.5991C113.141 14.695 112.548 13.88 112.475 12.9759C112.387 11.837 113.128 10.7844 113.206 9.64014C113.284 8.49585 112.721 7.46491 112.171 6.48254C111.225 4.79578 110.242 3.08744 108.803 1.79741C107.364 0.507377 105.371 -0.31576 103.485 0.118749C102.558 0.331954 101.698 0.831234 100.753 0.928391C99.9121 1.00666 99.0822 0.752969 98.2443 0.645016C97.4064 0.537064 96.4661 0.604534 95.8653 1.18478C95.5365 1.50864 95.3264 1.96473 94.9411 2.20223C94.6799 2.32294 94.4096 2.4231 94.1328 2.5018C93.1602 2.89312 92.7156 3.99154 92.3708 4.9793L90.0591 11.6157C90.8323 12.1554 91.7646 12.401 92.6106 12.8166C93.4566 13.2323 94.2783 13.8962 94.4508 14.8246C94.5828 15.5289 94.3322 16.3386 94.7417 16.9269C95.1162 17.4667 95.8787 17.5584 96.5254 17.4667C97.172 17.3749 97.8213 17.1509 98.4679 17.2508C100.084 17.4964 100.685 18.4895 102.181 17.2508C103.676 16.012 104.223 17.491 105.613 18.2736Z" fill="#3F3D56"/>
<path opacity="0.1" d="M63.0789 41.424C67.543 41.424 71.1618 37.7991 71.1618 33.3276C71.1618 28.856 67.543 25.2311 63.0789 25.2311C58.6149 25.2311 54.9961 28.856 54.9961 33.3276C54.9961 37.7991 58.6149 41.424 63.0789 41.424Z" fill="black"/>
<path d="M63.3914 40.9842C67.8555 40.9842 71.4743 37.3593 71.4743 32.8877C71.4743 28.4162 67.8555 24.7913 63.3914 24.7913C58.9274 24.7913 55.3086 28.4162 55.3086 32.8877C55.3086 37.3593 58.9274 40.9842 63.3914 40.9842Z" fill="#FBBEBE"/>
<path d="M69.5801 24.9721C67.6557 23.4932 65.4935 22.3542 63.1866 21.604C61.7101 21.1236 60.1043 20.7943 58.6063 21.2369C56.5748 21.8172 53.8563 22.6835 52.598 24.3865C51.9784 25.2231 51.3506 26.084 51.0515 27.0853C50.4534 29.0986 51.3048 31.2441 51.2482 33.3438C51.1808 35.7916 49.8849 38.0262 48.4704 40.0234C47.0559 42.0205 46.7703 44.8812 45.9351 47.186C45.6495 47.9767 45.5579 49.0752 46.2934 49.4719C46.9401 49.8308 47.7214 49.3828 48.3195 48.951L51.9164 46.3467C52.196 46.1165 52.5183 45.944 52.8648 45.8393C53.6057 45.6666 54.3305 46.1308 54.9501 46.5707L62.4941 51.9143C62.6432 51.6094 62.7237 51.2753 62.7297 50.9358C62.7358 50.5963 62.6673 50.2596 62.5292 49.9496C63.2377 50.1682 63.7524 50.7592 64.3747 51.1802C64.9971 51.6012 65.9428 51.7389 66.3954 51.1505C66.8481 50.5622 66.5059 49.7715 66.0021 49.2965C65.4982 48.8215 64.8355 48.5381 64.3424 48.0496C63.3644 47.0753 63.2647 45.537 62.6477 44.3064C62.2058 43.4427 61.4919 42.7195 61.1793 41.7992C60.6701 40.2959 61.3356 38.6766 61.9876 37.2301C62.7663 35.5136 63.6473 33.6812 65.3043 32.7851C65.862 32.4829 66.479 32.3048 67.0501 32.0295C68.4727 31.3467 70.2483 29.7355 70.9434 28.2916C71.5523 27.0097 70.6147 25.7709 69.5801 24.9721Z" fill="#3F3D56"/>
<path opacity="0.1" d="M57.3451 51.7281C58.1184 52.222 58.9913 52.5377 59.7511 53.0532C60.5109 53.5687 61.1764 54.3514 61.1979 55.2689C61.2195 56.1461 60.6591 56.9152 60.1202 57.6115L53.557 66.2396L56.9033 67.1275C56.3644 67.8724 56.227 68.8224 55.9468 69.6968C55.6666 70.5712 55.1385 71.4807 54.244 71.7101C53.4357 71.9179 52.5897 71.4915 51.7545 71.5401C51.1375 71.5779 50.5555 71.8693 49.9386 71.8936C49.1437 71.9233 48.4055 71.505 47.7427 71.0624C46.2662 70.0719 44.8006 68.6523 44.8113 66.8711C44.8463 66.2687 44.967 65.6744 45.1697 65.1061C46.1369 61.9458 47.1392 58.7099 49.1437 56.0813C50.2214 54.6779 51.539 53.4931 52.8565 52.3164C53.156 52.0143 53.5086 51.7701 53.8965 51.5959C54.7586 51.272 55.6989 51.6714 56.5907 51.9305C57.4825 52.1896 58.606 52.2274 59.1207 51.4636" fill="black"/>
<path d="M57.0627 51.1964C57.8359 51.6876 58.7089 52.006 59.4687 52.5215C60.2285 53.037 60.894 53.8196 60.9182 54.7345C60.9424 55.6494 60.3793 56.3835 59.8405 57.0798L53.2745 65.6998L56.6208 66.5877C56.082 67.3326 55.9446 68.2799 55.6644 69.157C55.3841 70.0341 54.8561 70.9409 53.9616 71.1703C53.1533 71.3781 52.3073 70.9517 51.4721 71.0003C50.8551 71.0353 50.2731 71.3295 49.6561 71.3511C48.8613 71.3808 48.1231 70.9625 47.4603 70.5199C45.9838 69.5321 44.5181 68.1098 44.5316 66.3313C44.5639 65.7288 44.6837 65.1342 44.8872 64.5663C45.8545 61.4033 46.8568 58.1674 48.8613 55.5415C49.939 54.1354 51.2592 52.9506 52.574 51.7631C52.875 51.4627 53.2272 51.2187 53.614 51.0426C54.4762 50.7187 55.4165 51.1181 56.3083 51.3799C57.2001 51.6417 58.3236 51.6768 58.8382 50.913" fill="#00AAC8"/>
<g opacity="0.1">
<path opacity="0.1" d="M124.562 22.1058C125.195 22.9829 126.178 23.5524 127.186 23.9275C129.065 24.6269 131.111 24.7472 133.059 24.273C134.945 23.8142 136.915 22.8156 138.685 23.6037C139.103 23.7899 139.493 24.0732 139.949 24.1056C140.394 24.0976 140.826 23.9514 141.185 23.6873C142.277 23.0126 143.279 22.0303 143.758 20.8725C143.758 20.9318 143.758 20.9912 143.775 21.0533C143.858 22.902 142.473 24.5078 140.905 25.4766C140.547 25.7409 140.116 25.8862 139.671 25.8922C139.216 25.8626 138.822 25.5765 138.405 25.393C136.635 24.6049 134.654 25.6035 132.779 26.0623C130.831 26.5337 128.786 26.4134 126.906 25.7168C125.895 25.339 124.915 24.7722 124.281 23.8951C123.648 23.018 123.422 21.7901 123.961 20.8482L124.001 20.7807C124.088 21.2583 124.28 21.7108 124.562 22.1058Z" fill="black"/>
<path opacity="0.1" d="M124.92 17.5962C124.942 18.0118 124.691 18.36 124.451 18.7135C124.418 18.6259 124.392 18.5356 124.373 18.4437C124.292 17.9606 124.524 17.491 124.78 17.0673C124.853 17.2354 124.901 17.4138 124.92 17.5962Z" fill="black"/>
</g>
<path opacity="0.1" d="M93.0013 4.09948L90.6896 10.7331C91.4628 11.2729 92.395 11.5212 93.241 11.9341C94.087 12.347 94.9088 13.0136 95.0812 13.942C95.2133 14.6464 94.9627 15.4561 95.3722 16.0471C95.7467 16.5869 96.5092 16.6759 97.1558 16.5869C97.8025 16.4978 98.4518 16.2711 99.0984 16.371C100.715 16.6166 101.316 17.6097 102.811 16.3845C104.306 15.1592 104.848 16.6139 106.238 17.3965C107.494 18.1036 109.043 18.0307 110.444 17.7069C111.238 17.5581 111.992 17.2406 112.653 16.7758C112.747 16.6987 112.837 16.6168 112.923 16.5302C112.716 16.9725 112.406 17.3578 112.017 17.6529C111.356 18.1187 110.603 18.4371 109.808 18.5867C108.407 18.9078 106.844 18.9807 105.602 18.2763C104.212 17.4937 103.641 16.066 102.175 17.2643C100.71 18.4625 100.074 17.4964 98.4625 17.2643C97.8159 17.1644 97.1693 17.3884 96.52 17.4802C95.8707 17.5719 95.1109 17.4802 94.7364 16.9404C94.3268 16.3521 94.5774 15.5424 94.4454 14.838C94.273 13.9096 93.4512 13.243 92.6052 12.8301C91.7592 12.4172 90.827 12.1662 90.0537 11.6292L92.3762 4.97659C92.6456 4.24521 92.942 3.45446 93.4808 2.93359C93.2941 3.31059 93.1339 3.70016 93.0013 4.09948Z" fill="black"/>
<g opacity="0.1">
<path opacity="0.1" d="M63.1293 50.2411C63.7247 50.511 64.4764 50.5514 64.8536 50.0468C65.2766 49.507 64.9641 48.6704 64.4603 48.1927C63.9564 47.715 63.2936 47.4343 62.8006 46.9458C61.8226 45.9743 61.7229 44.4359 61.1059 43.2053C60.664 42.339 59.95 41.6157 59.6375 40.6954C59.1283 39.1948 59.7938 37.5729 60.4458 36.129C61.2244 34.4126 62.1055 32.5801 63.7625 31.6841C64.3202 31.3818 64.9372 31.2037 65.5083 30.9284C66.9309 30.2456 68.7065 28.6317 69.4016 27.1878C69.9862 25.9707 69.1618 24.7886 68.1811 23.9871C68.658 24.2974 69.1241 24.624 69.5767 24.9721C70.614 25.7818 71.5489 27.0097 70.9238 28.2863C70.2287 29.7301 68.4532 31.3413 67.0306 32.0241C66.4594 32.294 65.8424 32.4775 65.2847 32.7798C63.6277 33.6758 62.7467 35.5083 61.9681 37.2247C61.3134 38.6713 60.6479 40.2906 61.1598 41.7938C61.4723 42.7141 62.1863 43.4374 62.6282 44.301C63.2532 45.5317 63.3448 47.07 64.3229 48.0442C64.8159 48.5327 65.4787 48.8134 65.9825 49.2911C66.4864 49.7688 66.7908 50.5946 66.3759 51.1452C65.961 51.6957 64.9749 51.5824 64.3552 51.1749C63.9376 50.8915 63.5577 50.5191 63.1293 50.2411Z" fill="black"/>
<path opacity="0.1" d="M46.7888 47.8473L50.3857 45.2456C50.6651 45.0146 50.9874 44.8413 51.334 44.7356C52.075 44.5655 52.7997 45.0297 53.4194 45.4696L60.9634 50.8133C61.1126 50.5079 61.193 50.1734 61.1991 49.8334C61.2051 49.4935 61.1366 49.1564 60.9984 48.8458C61.6909 49.0617 62.1947 49.6393 62.7955 50.0441C62.7082 50.0044 62.6182 49.9711 62.5261 49.9442C62.6642 50.2543 62.7327 50.591 62.7267 50.9305C62.7206 51.27 62.6402 51.604 62.4911 51.909L54.9471 46.5653C54.3274 46.1254 53.5999 45.6612 52.8617 45.834C52.5152 45.9387 52.1929 46.1111 51.9133 46.3413L48.3164 48.9457C47.7183 49.3775 46.937 49.8255 46.2904 49.4666C46.1135 49.3577 45.9683 49.2041 45.8695 49.0212C45.7706 48.8384 45.7216 48.6327 45.7272 48.4248C46.1089 48.2886 46.467 48.0938 46.7888 47.8473Z" fill="black"/>
</g>
<path d="M136.651 65.4732C136.651 65.4732 121.213 66.7119 118.141 64.5205L132.265 62.3398L136.651 65.4732Z" fill="#E3E8F4"/>
<path opacity="0.1" d="M136.651 65.4732C136.651 65.4732 121.213 66.7119 118.141 64.5205L132.265 62.3398L136.651 65.4732Z" fill="black"/>
<path d="M136.651 65.4731L132.326 62.7311C132.326 62.7311 119.426 66.4446 115.891 64.9117L119.488 59.8569L132.27 62.3533L136.651 65.4731Z" fill="#E3E8F4"/>
<path d="M117.467 29.1146C116.99 29.718 116.608 30.3905 116.333 31.1091C116.209 31.4896 116.147 31.8863 116.042 32.2722C115.746 33.2333 115.291 34.1375 114.695 34.9468C113.366 36.8818 111.707 38.7494 111.373 41.0731C111.211 42.2201 111.389 43.3859 111.615 44.5221C111.738 45.2714 111.951 46.0028 112.251 46.7001C112.593 47.4396 113.102 48.09 113.493 48.8051C113.85 49.5071 114.151 50.2363 114.393 50.9858C114.854 50.5243 115.126 49.9063 115.495 49.3665C115.864 48.8267 116.414 48.341 117.063 48.3329C117.812 48.3329 118.429 48.9536 119.17 49.0507C119.286 49.0741 119.406 49.0628 119.515 49.0184C119.784 48.8915 119.806 48.5272 119.784 48.2357C119.571 46.1981 118.407 44.1875 118.957 42.212C119.464 40.3849 121.274 39.2433 122.225 37.6051C122.915 36.4149 123.12 35.0115 123.303 33.6459C123.532 32.0132 123.764 30.3669 123.661 28.7233C123.61 27.8948 122.953 22.6591 121.751 23.2069C121.333 23.3959 120.97 24.1974 120.708 24.5564L119.631 26.0866L117.467 29.1146Z" fill="#3F3D56"/>
<path d="M85.2197 62.8904L76.5523 69.9586L65.4006 67.9615L72.9096 62.0565L85.2197 62.8904Z" fill="#E3E8F4"/>
<path opacity="0.1" d="M85.532 62.4504L76.8645 69.5186L65.7129 67.5214L73.2218 61.6165L85.532 62.4504Z" fill="black"/>
<path d="M85.471 62.0753L76.8035 69.1408L65.6492 67.1463L73.1608 61.2386L85.471 62.0753Z" fill="#E3E8F4"/>
<path opacity="0.1" d="M85.7215 61.2576L77.0513 68.3258L65.8997 66.3286L73.4113 60.4236L85.7215 61.2576Z" fill="black"/>
<path d="M85.6565 60.8825L76.989 67.9506L65.8374 65.9535L73.3464 60.0485L85.6565 60.8825Z" fill="#E3E8F4"/>
<path d="M199.671 157.459C199.876 157.36 200.101 157.312 200.329 157.319C200.556 157.327 200.778 157.39 200.975 157.503C201.172 157.616 201.339 157.776 201.461 157.968C201.582 158.16 201.655 158.379 201.673 158.606L202.156 164.87L199.294 165.388L197.785 160.86L199.671 157.459Z" fill="#3F3D56"/>
<path d="M99.5642 115.474L55.7741 137.734C55.2719 137.99 54.8506 138.381 54.5571 138.864C54.2636 139.346 54.1094 139.9 54.1116 140.465C54.1138 141.029 54.2724 141.582 54.5697 142.062C54.867 142.542 55.2914 142.93 55.7956 143.183L150.109 190.592C151.787 191.434 153.646 191.85 155.522 191.803C157.398 191.756 159.233 191.247 160.867 190.323L200.592 167.885C201.074 167.609 201.471 167.207 201.742 166.722C202.012 166.237 202.146 165.687 202.127 165.131C202.108 164.576 201.939 164.036 201.636 163.57C201.334 163.104 200.91 162.73 200.411 162.487L102.256 115.444C101.835 115.242 101.373 115.14 100.907 115.145C100.44 115.15 99.9806 115.263 99.5642 115.474Z" fill="#3F3D56"/>
<path d="M55.4807 133.861L54.1093 134.881L54.0015 139.766C53.9928 140.147 54.0913 140.522 54.2857 140.85C54.4801 141.177 54.7626 141.443 55.1008 141.617L151.025 190.924C151.243 191.037 151.486 191.091 151.731 191.083C151.975 191.074 152.214 191.002 152.423 190.875C152.632 190.747 152.805 190.568 152.925 190.354C153.045 190.14 153.108 189.899 153.108 189.653V182.558L55.4807 133.861Z" fill="#3F3D56"/>
<path d="M99.565 109.812L55.7749 132.069C55.2723 132.325 54.8505 132.715 54.5563 133.197C54.262 133.679 54.107 134.233 54.1084 134.797C54.1098 135.362 54.2676 135.915 54.5642 136.396C54.8608 136.876 55.2845 137.264 55.7884 137.518L150.11 184.928C151.788 185.769 153.647 186.184 155.522 186.137C157.398 186.09 159.234 185.582 160.868 184.658L200.592 162.217C201.074 161.942 201.472 161.54 201.743 161.055C202.013 160.569 202.146 160.019 202.128 159.464C202.109 158.908 201.94 158.369 201.637 157.903C201.335 157.437 200.911 157.062 200.412 156.82L102.257 109.779C101.835 109.578 101.374 109.476 100.907 109.482C100.44 109.487 99.9813 109.6 99.565 109.812Z" fill="#E3E8F4"/>
<path d="M108.628 113.852L60.3792 138.392L143.306 179.927L193.064 154.628L108.628 113.852Z" fill="#3F3D56"/>
<path d="M173.652 172.375C176.463 172.375 178.741 171.023 178.741 169.356C178.741 167.688 176.463 166.336 173.652 166.336C170.841 166.336 168.562 167.688 168.562 169.356C168.562 171.023 170.841 172.375 173.652 172.375Z" fill="#3F3D56"/>
<path d="M80.8279 122.159C81.0883 122.159 81.2994 121.947 81.2994 121.687C81.2994 121.426 81.0883 121.214 80.8279 121.214C80.5675 121.214 80.3564 121.426 80.3564 121.687C80.3564 121.947 80.5675 122.159 80.8279 122.159Z" fill="#3F3D56"/>
<path d="M79.4164 125.935C79.7289 125.935 79.9822 125.681 79.9822 125.368C79.9822 125.055 79.7289 124.801 79.4164 124.801C79.1039 124.801 78.8506 125.055 78.8506 125.368C78.8506 125.681 79.1039 125.935 79.4164 125.935Z" fill="#3F3D56"/>
<path d="M81.4893 124.423L87.1445 121.781" stroke="#3F3D56" stroke-miterlimit="10"/>
<path d="M131.587 136.708L115.622 145.94C113.303 147.282 112.508 150.253 113.847 152.576C115.186 154.9 118.152 155.696 120.472 154.354L136.436 145.122C138.756 143.78 139.551 140.809 138.211 138.486C136.872 136.162 133.906 135.366 131.587 136.708Z" fill="#00AAC8"/>
<path d="M145.866 143.995L129.902 153.228C127.582 154.569 126.788 157.54 128.127 159.864C129.466 162.187 132.432 162.983 134.752 161.642L150.716 152.409C153.036 151.068 153.83 148.097 152.491 145.773C151.152 143.45 148.186 142.654 145.866 143.995Z" fill="#00AAC8"/>
<path d="M118.653 128.342L102.689 137.575C100.369 138.916 99.5744 141.887 100.914 144.211C102.253 146.534 105.219 147.331 107.538 145.989L123.503 136.756C125.823 135.415 126.617 132.444 125.278 130.12C123.939 127.797 120.973 127.001 118.653 128.342Z" fill="#00AAC8"/>
</g>
<defs>
<clipPath id="clip0">
<rect width="249" height="221" fill="white"/>
</clipPath>
</defs>
</svg>
