<svg width="289" height="240" viewBox="0 0 289 240" fill="none" xmlns="http://www.w3.org/2000/svg">
<rect x="103.669" y="17" width="146.61" height="146.61" transform="rotate(45 103.669 17)" fill="#D2D1D1" fill-opacity="0.28"/>
<rect x="113.697" width="174.633" height="180.367" rx="8" fill="#D9D9D9"/>
<rect x="243.499" y="22.4156" width="36.4905" height="42.2247" rx="8" fill="white"/>
<path fill-rule="evenodd" clip-rule="evenodd" d="M261.744 46.9163C266.351 46.9163 270.085 43.1821 270.085 38.5756C270.085 33.9692 266.351 30.235 261.744 30.235C257.138 30.235 253.404 33.9692 253.404 38.5756C253.404 43.1821 257.138 46.9163 261.744 46.9163Z" fill="#DDE3E9"/>
<rect x="248.712" y="49.0015" width="26.0646" height="3.12775" rx="1.56388" fill="#DDE3E9"/>
<rect x="252.882" y="54.2144" width="17.7239" height="3.12775" rx="1.56388" fill="#DDE3E9"/>
<path d="M113.697 8C113.697 3.58173 117.279 0 121.697 0H280.33C284.748 0 288.33 3.58172 288.33 8V14.0749H113.697V8Z" fill="#BEBEBE"/>
<path fill-rule="evenodd" clip-rule="evenodd" d="M120.474 9.38326C121.626 9.38326 122.559 8.4497 122.559 7.29809C122.559 6.14648 121.626 5.21292 120.474 5.21292C119.322 5.21292 118.389 6.14648 118.389 7.29809C118.389 8.4497 119.322 9.38326 120.474 9.38326Z" fill="#F2F2F2"/>
<path fill-rule="evenodd" clip-rule="evenodd" d="M126.73 9.38326C127.881 9.38326 128.815 8.4497 128.815 7.29809C128.815 6.14648 127.881 5.21292 126.73 5.21292C125.578 5.21292 124.644 6.14648 124.644 7.29809C124.644 8.4497 125.578 9.38326 126.73 9.38326Z" fill="#F2F2F2"/>
<path fill-rule="evenodd" clip-rule="evenodd" d="M132.985 9.38326C134.137 9.38326 135.07 8.4497 135.07 7.29809C135.07 6.14648 134.137 5.21292 132.985 5.21292C131.833 5.21292 130.9 6.14648 130.9 7.29809C130.9 8.4497 131.833 9.38326 132.985 9.38326Z" fill="#F2F2F2"/>
<rect x="243.499" y="68.8106" width="36.4905" height="101.131" rx="8" fill="white"/>
<rect x="252.882" y="78.1939" width="17.7239" height="13.5536" rx="4" fill="#DDE3E9"/>
<rect x="252.882" y="95.9178" width="17.7239" height="13.0323" rx="4" fill="#AFB9C5"/>
<rect x="252.882" y="113.12" width="17.7239" height="13.0323" rx="4" fill="#DDE3E9"/>
<rect x="252.882" y="147.526" width="17.7239" height="13.0323" rx="4" fill="#DDE3E9"/>
<rect x="252.882" y="130.323" width="17.7239" height="13.0323" rx="4" fill="#C5CFD6"/>
<rect x="122.038" y="22.9369" width="117.291" height="24.5007" rx="4" fill="white"/>
<g clip-path="url(#clip0)">
<rect x="126.729" y="30.2871" width="87.0558" height="3.67511" rx="1.83756" fill="#DDE3E9"/>
<rect x="126.729" y="36.4123" width="58.4347" height="3.67511" rx="1.83756" fill="#DDE3E9"/>
</g>
<path fill-rule="evenodd" clip-rule="evenodd" d="M226.794 38.8363C228.809 38.8363 230.443 37.2026 230.443 35.1873C230.443 33.1719 228.809 31.5382 226.794 31.5382C224.779 31.5382 223.145 33.1719 223.145 35.1873C223.145 37.2026 224.779 38.8363 226.794 38.8363Z" fill="#DDE3E9"/>
<path fill-rule="evenodd" clip-rule="evenodd" d="M226.794 36.7511C227.657 36.7511 228.358 36.051 228.358 35.1873C228.358 34.3236 227.657 33.6234 226.794 33.6234C225.93 33.6234 225.23 34.3236 225.23 35.1873C225.23 36.051 225.93 36.7511 226.794 36.7511Z" fill="#F2F2F2"/>
<rect x="122.038" y="51.6079" width="117.291" height="20.3304" rx="4" fill="white"/>
<g clip-path="url(#clip1)">
<rect x="126.729" y="57.7071" width="87.0558" height="3.04956" rx="1.52478" fill="#DDE3E9"/>
<rect x="126.729" y="62.7897" width="58.4347" height="3.04956" rx="1.52478" fill="#DDE3E9"/>
</g>
<path fill-rule="evenodd" clip-rule="evenodd" d="M226.794 65.4222C228.809 65.4222 230.443 63.7884 230.443 61.7731C230.443 59.7578 228.809 58.1241 226.794 58.1241C224.779 58.1241 223.145 59.7578 223.145 61.7731C223.145 63.7884 224.779 65.4222 226.794 65.4222Z" fill="#DDE3E9"/>
<path fill-rule="evenodd" clip-rule="evenodd" d="M226.794 63.337C227.657 63.337 228.358 62.6368 228.358 61.7731C228.358 60.9094 227.657 60.2093 226.794 60.2093C225.93 60.2093 225.23 60.9094 225.23 61.7731C225.23 62.6368 225.93 63.337 226.794 63.337Z" fill="#F2F2F2"/>
<rect x="122.038" y="76.1087" width="117.291" height="20.3304" rx="4" fill="white"/>
<g clip-path="url(#clip2)">
<rect x="126.729" y="82.2079" width="87.0558" height="3.04956" rx="1.52478" fill="#DDE3E9"/>
<rect x="126.729" y="87.2905" width="58.4347" height="3.04956" rx="1.52478" fill="#DDE3E9"/>
</g>
<path fill-rule="evenodd" clip-rule="evenodd" d="M226.794 89.9229C228.809 89.9229 230.443 88.2892 230.443 86.2739C230.443 84.2586 228.809 82.6248 226.794 82.6248C224.779 82.6248 223.145 84.2586 223.145 86.2739C223.145 88.2892 224.779 89.9229 226.794 89.9229Z" fill="#DDE3E9"/>
<path fill-rule="evenodd" clip-rule="evenodd" d="M226.794 87.8377C227.657 87.8377 228.358 87.1376 228.358 86.2739C228.358 85.4102 227.657 84.71 226.794 84.71C225.93 84.71 225.23 85.4102 225.23 86.2739C225.23 87.1376 225.93 87.8377 226.794 87.8377Z" fill="#AFB9C5"/>
<rect x="122.038" y="149.611" width="117.291" height="20.3304" rx="4" fill="white"/>
<g clip-path="url(#clip3)">
<rect x="126.729" y="155.71" width="87.0558" height="3.04956" rx="1.52478" fill="#DDE3E9"/>
<rect x="126.729" y="160.793" width="58.4347" height="3.04956" rx="1.52478" fill="#DDE3E9"/>
</g>
<path fill-rule="evenodd" clip-rule="evenodd" d="M226.794 163.425C228.809 163.425 230.443 161.791 230.443 159.776C230.443 157.761 228.809 156.127 226.794 156.127C224.779 156.127 223.145 157.761 223.145 159.776C223.145 161.791 224.779 163.425 226.794 163.425Z" fill="#DDE3E9"/>
<path fill-rule="evenodd" clip-rule="evenodd" d="M226.794 161.34C227.657 161.34 228.358 160.64 228.358 159.776C228.358 158.912 227.657 158.212 226.794 158.212C225.93 158.212 225.23 158.912 225.23 159.776C225.23 160.64 225.93 161.34 226.794 161.34Z" fill="#F2F2F2"/>
<rect x="122.038" y="125.11" width="117.291" height="20.3304" rx="4" fill="white"/>
<g clip-path="url(#clip4)">
<rect x="126.729" y="131.209" width="87.0558" height="3.04956" rx="1.52478" fill="#DDE3E9"/>
<rect x="126.729" y="136.292" width="58.4347" height="3.04956" rx="1.52478" fill="#DDE3E9"/>
</g>
<path fill-rule="evenodd" clip-rule="evenodd" d="M226.794 138.924C228.809 138.924 230.443 137.291 230.443 135.275C230.443 133.26 228.809 131.626 226.794 131.626C224.779 131.626 223.145 133.26 223.145 135.275C223.145 137.291 224.779 138.924 226.794 138.924Z" fill="#DDE3E9"/>
<path fill-rule="evenodd" clip-rule="evenodd" d="M226.794 136.839C227.657 136.839 228.358 136.139 228.358 135.275C228.358 134.412 227.657 133.712 226.794 133.712C225.93 133.712 225.23 134.412 225.23 135.275C225.23 136.139 225.93 136.839 226.794 136.839Z" fill="#F2F2F2"/>
<rect x="122.038" y="100.609" width="117.291" height="20.3304" rx="4" fill="white"/>
<g clip-path="url(#clip5)">
<rect x="126.729" y="106.709" width="87.0558" height="3.04956" rx="1.52478" fill="#DDE3E9"/>
<rect x="126.729" y="111.791" width="58.4347" height="3.04956" rx="1.52478" fill="#DDE3E9"/>
</g>
<path fill-rule="evenodd" clip-rule="evenodd" d="M226.794 114.424C228.809 114.424 230.443 112.79 230.443 110.775C230.443 108.759 228.809 107.126 226.794 107.126C224.779 107.126 223.145 108.759 223.145 110.775C223.145 112.79 224.779 114.424 226.794 114.424Z" fill="#DDE3E9"/>
<path fill-rule="evenodd" clip-rule="evenodd" d="M226.794 112.339C227.657 112.339 228.358 111.638 228.358 110.775C228.358 109.911 227.657 109.211 226.794 109.211C225.93 109.211 225.23 109.911 225.23 110.775C225.23 111.638 225.93 112.339 226.794 112.339Z" fill="#F2F2F2"/>
<path fill-rule="evenodd" clip-rule="evenodd" d="M64.8458 107.798L85.6611 175.849L95.7446 233.721H103.651L92.9959 107.798H64.8458Z" fill="#C89871"/>
<path fill-rule="evenodd" clip-rule="evenodd" d="M57.3992 107.798C58.8131 145.162 57.1492 164.434 56.8327 167.829C56.5163 171.223 52.1833 193.234 41.9255 234.86L50.3501 231.967C66.5616 193.79 72.0859 173.948 73.9452 168.935C75.8046 163.922 80.7429 143.543 88.7602 107.798H57.3992Z" fill="#D0A67F"/>
<path fill-rule="evenodd" clip-rule="evenodd" d="M44.4206 231.679C43.3287 231.257 42.0508 231.725 41.6858 232.838C41.3641 233.818 41.0605 234.93 41.0605 235.633C41.0605 237.129 41.5591 240 41.5591 240C43.2948 240 72.7574 240 72.7574 240C72.7574 240 73.9735 235.98 71.3534 235.659C68.7333 235.338 67.0003 235.08 67.0003 235.08L52.9195 228.803C52.4049 228.573 51.8025 228.814 51.5878 229.335L50.8309 231.171C50.8309 231.171 48.4053 232.303 46.8889 232.303C46.2185 232.303 45.2702 232.008 44.4206 231.679Z" fill="#E4E4E4"/>
<path fill-rule="evenodd" clip-rule="evenodd" d="M96.4162 231.679C95.3243 231.257 94.0464 231.725 93.6814 232.838C93.3597 233.818 93.0562 234.93 93.0562 235.633C93.0562 237.129 93.5547 240 93.5547 240C95.2904 240 124.753 240 124.753 240C124.753 240 125.969 235.98 123.349 235.659C120.729 235.338 118.996 235.08 118.996 235.08L104.915 228.803C104.4 228.573 103.798 228.814 103.583 229.335L102.826 231.171C102.826 231.171 100.401 232.303 98.8845 232.303C98.2141 232.303 97.2658 232.008 96.4162 231.679Z" fill="#E4E4E4"/>
<path fill-rule="evenodd" clip-rule="evenodd" d="M62.0801 107.798L70.9304 142.469H97.9628L93.9321 107.798H62.0801Z" fill="#676767"/>
<path fill-rule="evenodd" clip-rule="evenodd" d="M57.1018 107.798C52.7337 120.892 55.4424 142.469 55.4424 142.469H83.0279L90.6133 107.798H57.1018Z" fill="#949494"/>
<path fill-rule="evenodd" clip-rule="evenodd" d="M77.8449 12.6573C70.9713 12.6573 65.3992 18.2295 65.3992 25.1031V35.6129C65.3992 41.8475 69.9835 47.0114 75.9652 47.9176C75.968 47.9685 75.9708 48.0197 75.9738 48.071H92.015C94.7429 45.4057 91.6599 27.3278 89.7376 21.3364C89.4656 20.4889 89.2023 19.8796 88.9435 19.4654C86.8871 15.425 82.6892 12.6573 77.8449 12.6573Z" fill="#9D842C"/>
<path fill-rule="evenodd" clip-rule="evenodd" d="M78.0857 39.3434C81.6677 41.5024 85.1871 42.5456 86.8392 42.1197C90.9819 41.0519 91.3628 25.8969 88.1574 19.9223C84.952 13.9477 68.4737 11.3436 67.6431 23.1812C67.3549 27.2896 69.08 30.9561 71.6288 33.948L67.0586 55.2495H80.3341L78.0857 39.3434Z" fill="#D7A97F"/>
<path fill-rule="evenodd" clip-rule="evenodd" d="M65.8866 23.2503C66.272 22.8692 66.6449 22.5004 67.0149 22.1704L66.9971 21.7404C66.9971 21.7404 71.1637 13.2105 77.5691 13.2105C83.9688 13.2105 85.9927 16.1857 87.7132 18.7147L87.7178 18.7215C86.8179 21.8093 84.1058 23.0585 81.0385 24.4714C79.7181 25.0795 78.332 25.718 76.9962 26.5465C76.473 26.1214 75.8058 25.8667 75.0792 25.8667C73.3989 25.8667 72.0369 27.2288 72.0369 28.909C72.0369 30.5892 73.3989 31.9513 75.0792 31.9513C75.1255 31.9513 75.1716 31.9502 75.2175 31.9482C75.8291 38.5184 75.5841 46.0215 73.7612 47.8026H57.72C57.2595 39.8019 59.3292 37.5195 61.4441 35.1873C63.4341 32.9929 65.464 30.7543 65.464 23.6665C65.6068 23.527 65.7475 23.3878 65.8866 23.2503L65.8866 23.2503Z" fill="#9D842C"/>
<path fill-rule="evenodd" clip-rule="evenodd" d="M132.459 82.19L112.416 90.9921L118.816 99.1909L133.827 87.682C141.325 86.3048 144.802 85.1217 144.259 84.1327C143.801 83.2987 142.949 83.2517 142.163 83.2084C141.552 83.1747 140.981 83.1432 140.669 82.7437C139.957 81.8314 141.714 79.0132 143.497 76.4102C145.279 73.8071 143.608 73.9011 142.631 74.2124C139.361 76.032 135.97 78.6912 132.459 82.19ZM42.7201 95.6655L31.3853 93.4165C23.698 113.678 19.115 124.781 17.6363 126.726C16.552 128.152 9.86479 131.825 5.33851 133.787C3.52172 134.575 3.9118 136.11 4.44466 136.601C7.80577 139.699 10.9305 138.613 14.3318 137.431C15.3165 137.089 16.3244 136.739 17.3679 136.479C20.0689 135.809 20.8909 137.198 21.6677 138.51C22.3554 139.672 23.0077 140.775 24.8974 140.335C24.8115 139.964 24.7059 139.549 24.5919 139.1C23.8553 136.201 22.7689 131.927 24.3806 129.443C25.2078 128.168 31.321 116.909 42.7201 95.6655Z" fill="#DEB186"/>
<path fill-rule="evenodd" clip-rule="evenodd" d="M73.5276 51.008L78.3107 50.1876C88.7288 60.2936 92.9802 84.5731 99.9231 87.7869C106.487 90.8254 115.793 87.885 126.853 83.9148L130.241 91.483C120.191 102.356 98.781 111.541 90.1026 106.297C76.2277 97.9134 73.0246 67.9683 73.5276 51.008Z" fill="#003269"/>
<path fill-rule="evenodd" clip-rule="evenodd" d="M52.6769 111.117C52.6769 111.117 81.4446 111.117 94.9988 111.117C96.9327 111.117 96.5683 108.325 96.2887 106.916C93.0623 90.6529 80.4676 73.1225 80.4676 49.9729L68.26 48.0586C58.1627 64.2981 54.6709 84.2921 52.6769 111.117Z" fill="#DDE3E9"/>
<path fill-rule="evenodd" clip-rule="evenodd" d="M81.3697 122.733H43.2733C43.8761 113.641 45.8086 104.027 48.4555 94.652C39.828 110.214 32.5761 121.419 26.6998 128.265L17.8287 126.527C23.5431 91.0882 40.0909 64.932 67.4724 48.0586L67.6117 48.0586H72.3059C72.3059 48.0586 88.7447 104.095 81.3697 122.733Z" fill="#003269"/>
<defs>
<clipPath id="clip0">
<rect x="126.729" y="30.2871" width="87.0558" height="9.8003" fill="white"/>
</clipPath>
<clipPath id="clip1">
<rect x="126.729" y="57.7071" width="87.0558" height="8.13216" fill="white"/>
</clipPath>
<clipPath id="clip2">
<rect x="126.729" y="82.2079" width="87.0558" height="8.13216" fill="white"/>
</clipPath>
<clipPath id="clip3">
<rect x="126.729" y="155.71" width="87.0558" height="8.13216" fill="white"/>
</clipPath>
<clipPath id="clip4">
<rect x="126.729" y="131.209" width="87.0558" height="8.13216" fill="white"/>
</clipPath>
<clipPath id="clip5">
<rect x="126.729" y="106.709" width="87.0558" height="8.13216" fill="white"/>
</clipPath>
</defs>
</svg>
