<svg width="397" height="244" viewBox="0 0 397 244" fill="none" xmlns="http://www.w3.org/2000/svg">
<path d="M138.038 126.65C138.373 127.432 138.728 128.222 139.093 128.999L138.312 129.365C137.943 128.58 137.585 127.781 137.245 126.991L138.038 126.65Z" fill="#E6E6E6"/>
<path d="M277.339 64.1151C277.832 65.165 278.305 66.2348 278.746 67.2951L277.949 67.6262C277.289 66.0386 276.559 64.4387 275.789 62.8912L276.562 62.5071C276.826 63.0383 277.085 63.5743 277.339 64.1151ZM274.06 57.8771L273.315 58.3132C272.441 56.8192 271.505 55.3399 270.535 53.9152L271.248 53.4297C272.229 54.8704 273.175 56.3665 274.06 57.8771ZM280.601 72.2186C281.162 73.8765 281.672 75.572 282.116 77.2581L281.282 77.4774C280.842 75.8109 280.339 74.1346 279.784 72.4953L280.601 72.2186ZM268.138 49.1852L267.46 49.7186C266.392 48.3612 265.262 47.0237 264.103 45.7435L264.742 45.1642C265.915 46.4594 267.058 47.8121 268.138 49.1852ZM283.28 82.3902C283.608 84.1054 283.879 85.8552 284.088 87.5905L283.231 87.6936C283.025 85.9775 282.756 84.2476 282.433 82.5515L283.28 82.3902ZM261.077 41.3878L260.48 42.0099C259.235 40.8132 257.933 39.645 256.611 38.5383L257.166 37.877C258.502 38.9963 259.818 40.1773 261.077 41.3878ZM284.536 92.8421C284.624 94.5913 284.652 96.3637 284.619 98.1103L283.756 98.0942C283.788 96.3676 283.761 94.6149 283.674 92.8855L284.536 92.8421ZM253.02 34.6423L252.513 35.3402C251.115 34.3255 249.665 33.3461 248.203 32.4304L248.661 31.6988C250.14 32.6253 251.606 33.6157 253.02 34.6423ZM284.34 103.37C284.187 105.114 283.972 106.873 283.701 108.598L282.849 108.463C283.117 106.758 283.33 105.019 283.481 103.295L284.34 103.37ZM244.111 29.0602L243.704 29.8209C242.18 29.0057 240.61 28.233 239.036 27.5241L239.39 26.7372C240.982 27.4543 242.571 28.2357 244.111 29.0602ZM282.706 113.768C282.317 115.471 281.865 117.183 281.361 118.858L280.535 118.609C281.033 116.953 281.48 115.26 281.865 113.576L282.706 113.768ZM234.52 24.7411L234.221 25.55C232.6 24.9497 230.939 24.3971 229.282 23.9082L229.526 23.0805C231.202 23.5752 232.882 24.1339 234.52 24.7411ZM279.672 123.843C279.055 125.479 278.374 127.113 277.648 128.701L276.864 128.342C277.582 126.772 278.255 125.156 278.865 123.539L279.672 123.843ZM224.428 21.7645L224.241 22.6064C222.556 22.2319 220.834 21.9106 219.123 21.6514L219.253 20.7986C220.983 21.0604 222.724 21.3856 224.428 21.7645ZM275.299 133.409C274.466 134.945 273.569 136.471 272.634 137.944L271.906 137.482C272.83 136.025 273.717 134.516 274.541 132.997L275.299 133.409ZM214.021 20.1894L213.951 21.0489C212.227 20.9077 210.477 20.8249 208.748 20.8027L208.759 19.9402C210.508 19.9625 212.278 20.0462 214.021 20.1894ZM269.667 142.286C268.632 143.693 267.536 145.082 266.408 146.413L265.75 145.856C266.865 144.539 267.949 143.166 268.972 141.775L269.667 142.286ZM203.492 20.0534L203.541 20.9148C201.813 21.0121 200.067 21.1708 198.351 21.3867L198.243 20.5307C199.979 20.312 201.745 20.1514 203.492 20.0534ZM262.876 150.305C261.657 151.558 260.38 152.783 259.079 153.949L258.503 153.306C259.79 152.154 261.053 150.942 262.258 149.703L262.876 150.305ZM193.047 21.3686L193.213 22.2156C191.518 22.5492 189.813 22.9464 188.146 23.3956L187.922 22.5626C189.607 22.1083 191.332 21.7067 193.047 21.3686ZM255.039 157.321C253.66 158.393 252.226 159.432 250.776 160.407L250.294 159.691C251.728 158.727 253.146 157.7 254.509 156.64L255.039 157.321ZM182.891 24.1055L183.172 24.9212C181.541 25.4832 179.907 26.1098 178.313 26.7831L177.978 25.9885C179.588 25.3074 181.242 24.6739 182.891 24.1055H182.891ZM246.312 163.193C244.802 164.065 243.239 164.898 241.669 165.669L241.289 164.894C242.842 164.133 244.387 163.309 245.88 162.446L246.312 163.193ZM173.591 28.9706C172.047 29.7494 170.511 30.5902 169.027 31.4695L168.587 30.7275C170.088 29.838 171.641 28.9877 173.202 28.1999L173.591 28.9706ZM164.644 34.2739C163.22 35.2565 161.814 36.299 160.465 37.3734L159.928 36.6985C161.292 35.6119 162.714 34.5572 164.155 33.5637L164.644 34.2739ZM156.509 40.7535C155.237 41.9194 153.989 43.1441 152.8 44.394L152.175 43.7995C153.377 42.5353 154.64 41.2965 155.927 40.1176L156.509 40.7535ZM149.35 48.2829C148.249 49.6143 147.18 51 146.175 52.4008L145.474 51.8977C146.491 50.4808 147.571 49.0796 148.685 47.733L149.35 48.2829ZM143.288 56.7279C142.378 58.1988 141.509 59.7182 140.704 61.2427L139.941 60.8403C140.755 59.2981 141.634 57.7616 142.554 56.2738L143.288 56.7279ZM138.433 65.9248C137.733 67.5036 137.078 69.1271 136.486 70.7507L135.676 70.4554C136.274 68.8134 136.936 67.1714 137.644 65.5747L138.433 65.9248ZM134.872 75.6988C134.393 77.3611 133.964 79.0593 133.599 80.7463L132.756 80.564C133.125 78.8579 133.558 77.1403 134.044 75.4595L134.872 75.6988ZM132.673 85.8689C132.424 87.582 132.231 89.3232 132.1 91.0443L131.239 90.979C131.372 89.2381 131.567 87.4773 131.819 85.7446L132.673 85.8689ZM131.883 96.2478C131.871 97.9779 131.919 99.7295 132.026 101.454L131.164 101.508C131.056 99.7633 131.008 97.9914 131.02 96.2414L131.883 96.2478ZM132.527 106.639C132.752 108.352 133.041 110.079 133.384 111.772L132.538 111.943C132.191 110.231 131.9 108.484 131.671 106.752L132.527 106.639ZM134.593 116.833C135.052 118.497 135.575 120.167 136.148 121.799L135.333 122.084C134.754 120.434 134.226 118.745 133.761 117.062L134.593 116.833Z" fill="#E6E6E6"/>
<path d="M236.425 167.076L236.75 167.875C235.943 168.204 235.127 168.521 234.324 168.817L234.025 168.007C234.82 167.714 235.627 167.401 236.425 167.076Z" fill="#E6E6E6"/>
<path d="M88.2905 15.5351C83.9351 8.17573 75.3182 7.83275 75.3182 7.83275C75.3182 7.83275 66.9215 6.75899 61.5352 17.9674C56.5146 28.4145 49.5856 38.5014 60.4196 40.947L62.3766 34.8561L63.5885 41.4004C65.1311 41.5114 66.6785 41.5378 68.224 41.4796C79.8264 41.105 90.8759 41.5892 90.5201 37.4258C90.0472 31.8911 92.4813 22.6162 88.2905 15.5351Z" fill="#003269"/>
<path d="M53.4634 176.81V188.443L47.4595 187.692V177.936L53.4634 176.81Z" fill="#FFB8B8"/>
<path d="M95.1162 184.315L97.3677 193.321L102.621 191.445L98.8687 182.814L95.1162 184.315Z" fill="#FFB8B8"/>
<path d="M54.5894 52.2291L55.3398 72.8676L60.218 74.3686L61.719 54.4806L54.5894 52.2291Z" fill="#FFB8B8"/>
<path d="M56.0902 71.3667L55.3397 72.8677L48.5853 79.2468C48.5853 79.2468 43.7071 83.3745 45.5833 86.0012L50.4615 83.7498V82.2488L61.7188 74.3687L56.0902 71.3667Z" fill="#FFB8B8"/>
<path d="M83.4832 77.3705V86.0011L54.5894 81.4982L57.9666 75.119L83.4832 77.3705Z" fill="#FFB8B8"/>
<path d="M96.6165 50.353C96.6165 50.353 99.2432 57.4827 99.6184 58.2332C99.9937 58.9837 104.497 76.2449 104.497 76.2449L115.754 94.2566C115.754 94.2566 124.009 104.013 118.756 104.388C113.502 104.763 109.75 96.1329 109.75 96.1329L98.4927 81.4983L87.9858 53.7302L96.6165 50.353Z" fill="#FFB8B8"/>
<path d="M75.0403 34.4051C81.0503 34.4051 85.9224 29.5331 85.9224 23.5231C85.9224 17.513 81.0503 12.641 75.0403 12.641C69.0303 12.641 64.1582 17.513 64.1582 23.5231C64.1582 29.5331 69.0303 34.4051 75.0403 34.4051Z" fill="#FFB8B8"/>
<path d="M71.8505 30.8403C71.8505 30.8403 71.8505 38.7205 67.7228 39.8462C63.5951 40.9719 71.1 49.2273 71.1 49.2273L86.1098 41.7224C86.1098 41.7224 79.7306 39.471 81.6069 30.8403H71.8505Z" fill="#FFB8B8"/>
<path d="M69.4115 38.9081L61.4534 41.5347C59.2936 42.4062 57.4178 43.8594 56.0342 45.7328C54.6507 47.6063 53.8136 49.8266 53.616 52.1472C53.4759 53.5781 53.681 55.0217 54.2141 56.357C56.4655 61.6104 59.0923 62.7361 59.0923 62.7361C59.0923 62.7361 59.4675 64.9876 59.0923 65.3628C58.717 65.7381 57.9665 66.1133 58.3418 67.239C58.717 68.3648 59.0923 67.9895 58.717 69.1153C58.3418 70.241 56.8408 72.8677 56.8408 72.8677C56.8408 72.8677 58.3418 73.6182 57.216 74.3687C56.0903 75.1192 55.7151 76.6202 55.7151 76.6202C55.7151 76.6202 81.2317 77.7459 83.8584 80.3726L88.3613 61.9856C88.3613 61.9856 98.8682 57.8579 98.4929 53.7302C98.1177 49.6026 95.8662 45.8501 93.2395 44.7244C90.6128 43.5986 84.2386 40.5934 84.2386 40.5934C84.2386 40.5934 83.3984 43.3842 75.7154 42.7122C74.4445 42.5992 73.2162 42.1979 72.1238 41.5387C71.0314 40.8795 70.1038 39.9798 69.4115 38.9081V38.9081Z" fill="white"/>
<path d="M84.2334 83.3745C84.2334 83.3745 59.4673 81.8735 55.7149 76.6201L45.208 86.7517L46.3337 93.1309L45.9585 176.435C45.9585 176.435 45.5833 180.563 46.709 180.563C47.8347 180.563 53.8386 181.313 54.2139 180.563C54.5891 179.812 53.0881 178.311 55.7149 177.561C58.3416 176.81 58.3416 179.437 58.3416 176.81C58.3416 174.184 57.9663 162.926 57.2158 161.05C56.4653 159.174 65.8465 116.021 65.8465 116.021C65.8465 116.021 90.6126 182.814 92.4888 184.315C94.365 185.816 94.7403 188.068 95.866 187.692C96.9917 187.317 102.245 185.816 102.62 185.441C102.996 185.066 102.245 182.064 102.62 180.938C102.996 179.812 104.121 181.313 102.62 179.062C101.119 176.81 100.744 175.309 100.744 174.184C100.744 173.058 86.8601 100.636 86.8601 100.636C86.8601 100.636 89.8621 93.8814 85.3592 90.1289L84.2334 83.3745Z" fill="#003269"/>
<path d="M54.214 185.441C54.214 185.441 50.4615 181.689 48.9606 181.689H45.2081C45.2081 181.689 41.8309 188.818 40.7052 189.193C39.5795 189.569 32.0746 198.575 38.829 198.575C45.5834 198.575 48.2101 196.323 48.2101 196.323L54.214 193.321V185.441Z" fill="#003269"/>
<path d="M96.7451 190.833L95.8662 198.575C95.8662 198.575 103.371 201.577 103.371 201.952C103.371 202.327 115.379 207.956 116.129 203.078C116.88 198.199 110.126 194.072 110.126 194.072C110.126 194.072 102.925 185.546 101.647 185.869C100.369 186.192 100.369 188.443 100.369 188.443L96.7451 190.833Z" fill="#003269"/>
<path d="M174.105 149.482H69.0361V102.669L121.57 126.283L174.105 102.669V149.482Z" fill="white"/>
<path d="M69.0361 102.669H174.105L121.674 129.716L69.0361 102.669Z" fill="#003269"/>
<path d="M121.675 134.085C124.088 134.085 126.044 132.129 126.044 129.716C126.044 127.303 124.088 125.347 121.675 125.347C119.262 125.347 117.306 127.303 117.306 129.716C117.306 132.129 119.262 134.085 121.675 134.085Z" fill="#E6E6E6"/>
<path d="M76.3726 14.1005C79.8136 14.1005 82.603 11.311 82.603 7.87003C82.603 4.42903 79.8136 1.63956 76.3726 1.63956C72.9316 1.63956 70.1421 4.42903 70.1421 7.87003C70.1421 11.311 72.9316 14.1005 76.3726 14.1005Z" fill="#003269"/>
<path d="M69.486 6.23047C69.4861 4.69168 70.0557 3.20738 71.085 2.0635C72.1142 0.919609 73.5304 0.197056 75.0606 0.0350259C74.1917 -0.0575015 73.313 0.0337916 72.4816 0.302975C71.6503 0.572158 70.8848 1.01321 70.235 1.59749C69.5852 2.18176 69.0656 2.89619 68.7099 3.69437C68.3542 4.49255 68.1704 5.35662 68.1704 6.23047C68.1704 7.10432 68.3542 7.96839 68.7099 8.76657C69.0656 9.56475 69.5852 10.2792 70.235 10.8635C70.8848 11.4477 71.6503 11.8888 72.4816 12.158C73.313 12.4272 74.1917 12.5184 75.0606 12.4259C73.5304 12.2639 72.1142 11.5413 71.085 10.3974C70.0557 9.25356 69.4861 7.76926 69.486 6.23047V6.23047Z" fill="#003269"/>
<path d="M86.3646 14.8259L77.8515 10.3665L66.0954 12.1905L63.6631 22.9334L69.718 22.7004L71.4093 18.7539V22.6355L74.2033 22.5281L75.8248 16.2447L76.8383 22.9334L86.7699 22.7308L86.3646 14.8259Z" fill="#003269"/>
<path d="M397 136.847H215.757V225.029H397V136.847Z" fill="white"/>
<path d="M397 136.847H215.757V148.104H397V136.847Z" fill="white"/>
<path d="M242.024 197.261C251.143 197.261 258.535 189.869 258.535 180.75C258.535 171.632 251.143 164.24 242.024 164.24C232.905 164.24 225.513 171.632 225.513 180.75C225.513 189.869 232.905 197.261 242.024 197.261Z" fill="#E6E6E6"/>
<path d="M375.611 171.557H285.552V174.184H375.611V171.557Z" fill="#E6E6E6"/>
<path d="M375.611 179.437H285.552V182.064H375.611V179.437Z" fill="#E6E6E6"/>
<path d="M339.963 187.317H285.552V189.944H339.963V187.317Z" fill="#E6E6E6"/>
<path d="M333.595 58.5822C333.595 58.5822 331.144 66.636 332.545 69.0871C333.946 71.5383 330.094 76.7907 323.791 74.3396C317.488 71.8885 317.138 69.0871 317.138 69.0871C317.138 69.0871 319.589 65.2353 320.289 57.1815L333.595 58.5822Z" fill="#A0616A"/>
<path d="M365.636 137.544C365.636 137.544 378.242 143.847 372.639 152.251C369.382 157.136 363.168 166.635 358.535 173.733C354.657 179.674 351.683 186.158 349.71 192.973L348.828 196.022L345.326 200.224L337.973 191.82C337.973 191.82 348.828 171.86 348.828 168.008C348.828 164.157 357.582 151.901 357.582 151.901L348.828 146.298C348.828 146.298 358.632 135.093 365.636 137.544Z" fill="#A0616A"/>
<path d="M324.667 159.254C324.667 159.254 324.316 169.059 323.966 172.911C323.677 176.089 326.487 184.986 325.513 194.885C324.918 201.289 324.989 207.737 325.725 214.127L327.118 226.836L316.613 227.887L313.111 199.173C313.111 199.173 311.01 178.864 312.061 172.21L311.71 158.204C311.71 158.204 319.414 155.403 324.667 159.254Z" fill="#A0616A"/>
<path d="M343.4 118.46C343.4 118.46 367.912 134.218 368.262 139.12C368.262 139.12 354.255 137.719 353.905 149.975C353.905 149.975 345.501 146.824 343.4 146.123C341.299 145.423 330.094 138.069 330.094 138.069C330.094 138.069 325.542 141.571 325.542 147.174C325.542 152.776 325.892 162.581 325.542 163.281C325.192 163.982 317.138 153.827 310.485 162.581L305.933 138.42C305.933 138.42 304.532 123.713 307.333 122.662L326.943 115.309L343.4 118.46Z" fill="#003269"/>
<path d="M328.518 62.9593C334.32 62.9593 339.023 58.2561 339.023 52.4544C339.023 46.6526 334.32 41.9494 328.518 41.9494C322.716 41.9494 318.013 46.6526 318.013 52.4544C318.013 58.2561 322.716 62.9593 328.518 62.9593Z" fill="#A0616A"/>
<path d="M331.144 70.8379C331.144 70.8379 319.295 73.9674 317.691 68.0256C317.691 68.0256 303.131 70.8379 300.68 80.2923C298.229 89.7468 306.633 112.507 306.633 113.208C306.633 113.908 299.63 118.11 302.781 120.211C305.932 122.312 308.734 119.861 307.333 122.662C305.932 125.464 303.481 126.164 305.582 126.864C307.683 127.565 320.289 116.709 330.094 119.511C339.898 122.312 344.801 120.211 344.801 120.211L349.197 82.2141C349.369 80.7584 349.173 79.2829 348.628 77.9223C348.083 76.5616 347.206 75.3591 346.076 74.4245C343.882 72.6183 340.97 70.6669 338.148 70.1376C332.545 69.0871 332.312 68.512 332.312 68.512L331.144 70.8379Z" fill="#D0CDE1"/>
<path d="M342.349 132.117C342.349 132.117 339.198 149.975 334.996 147.524C330.794 145.073 336.047 132.117 336.047 132.117L342.349 132.117Z" fill="#A0616A"/>
<path d="M327.721 134.428C327.721 134.428 333.182 151.72 328.323 151.489C323.464 151.258 322.132 137.341 322.132 137.341L327.721 134.428Z" fill="#A0616A"/>
<path d="M347.077 195.321C347.077 195.321 349.528 192.52 350.928 196.372C352.329 200.224 356.181 205.126 356.181 205.126C356.181 205.126 364.585 214.58 358.632 214.93C352.679 215.281 344.275 206.527 344.275 206.527L334.471 197.422C334.471 197.422 337.72 189.508 339.247 189.438C340.774 189.368 340.423 198.823 347.077 195.321Z" fill="#003269"/>
<path d="M324.316 224.385C324.316 224.385 326.784 225.105 326.6 222.119C326.6 222.119 335.521 226.836 333.07 230.338C333.045 230.373 333.021 230.408 332.996 230.443C329.544 235.357 324.818 239.239 319.327 241.67C316.634 242.862 314.238 243.656 313.811 242.944C312.76 241.193 312.76 237.691 313.461 236.29C314.161 234.89 317.663 232.439 316.612 230.338C315.562 228.237 316.962 222.634 318.713 222.634C320.464 222.634 324.316 224.385 324.316 224.385Z" fill="#003269"/>
<path d="M337.686 43.553C337.686 43.553 334.306 36.2312 327.829 37.9208C321.352 39.6105 317.691 42.145 317.41 44.6795C317.128 47.214 317.551 51.0157 317.551 51.0157C317.551 51.0157 318.255 45.8059 322.76 46.9324C327.266 48.0588 334.306 47.214 334.306 47.214L335.433 57.352C335.433 57.352 336.7 55.5215 338.108 56.6479C339.516 57.7744 342.192 45.8059 337.686 43.553Z" fill="#003269"/>
<path d="M306.632 79.9422C306.632 79.9422 315.036 102.703 314.336 105.504C313.636 108.306 314.336 108.656 315.387 109.356C316.437 110.056 319.238 117.41 319.238 117.41C319.238 117.41 320.989 121.612 322.39 122.662C323.791 123.713 323.791 126.514 323.791 126.514C323.791 126.514 327.292 130.016 326.592 130.716C325.892 131.416 325.891 132.467 327.292 133.517C328.693 134.568 330.093 135.968 329.393 136.319C328.693 136.669 323.791 140.521 322.39 140.17C320.989 139.82 323.09 138.42 321.339 137.719C319.589 137.019 318.538 135.968 319.238 135.618C319.939 135.268 322.04 135.268 319.939 134.568C317.838 133.867 310.484 129.315 308.033 123.713C305.582 118.11 293.838 84.213 300.935 79.4514C300.935 79.4514 303.831 75.7403 306.632 79.9422Z" fill="#D0CDE1"/>
<path d="M345.501 76.0904L345.643 76.1496C346.966 76.7012 348.134 77.5669 349.047 78.6717C349.96 79.7765 350.589 81.0871 350.882 82.4901C351.646 86.1498 352.398 91.4433 351.804 96.3999C350.753 105.154 350.053 109.006 348.652 111.807C347.252 114.608 346.901 113.558 347.252 115.659C347.602 117.76 349.353 116.009 347.602 118.81C345.851 121.612 344.8 120.911 345.501 122.312C346.201 123.713 347.252 123.713 345.851 125.464C344.45 127.214 344.45 127.915 344.1 128.615C343.75 129.315 342.699 134.568 342.699 134.568C342.699 134.568 337.097 132.817 333.945 133.517C333.945 133.517 336.747 128.615 336.046 127.565C335.346 126.514 334.295 126.164 335.346 125.113C336.396 124.063 338.147 124.413 336.396 123.363C334.646 122.312 337.797 111.457 337.797 111.457L345.501 76.0904Z" fill="#D0CDE1"/>
<path d="M251.03 189.109C251.03 195.911 246.986 198.286 241.998 198.286C241.882 198.286 241.767 198.285 241.652 198.282C241.421 198.277 241.192 198.267 240.966 198.251C236.464 197.932 232.966 195.435 232.966 189.109C232.966 182.563 241.33 174.303 241.961 173.689L241.962 173.689C241.986 173.665 241.998 173.653 241.998 173.653C241.998 173.653 251.03 182.306 251.03 189.109Z" fill="white"/>
<path d="M241.668 197.246L244.972 192.63L241.66 197.752L241.651 198.282C241.42 198.277 241.191 198.267 240.965 198.251L241.321 191.445L241.318 191.393L241.324 191.383L241.358 190.74L238.038 185.604L241.368 190.258L241.376 190.394L241.645 185.252L238.803 179.946L241.68 184.349L241.96 173.689L241.961 173.653V173.689L241.914 182.095L244.744 178.762L241.903 182.818L241.828 187.422L244.47 183.004L241.817 188.1L241.775 190.659L245.611 184.51L241.761 191.553L241.668 197.246Z" fill="#F2F2F2"/>
<path d="M18.0353 171.225C17.9662 171.112 16.3354 168.389 15.77 162.735C15.2514 157.547 15.5848 148.803 20.1196 136.606C28.7107 113.499 18.1398 94.8551 18.0318 94.6694L18.5533 94.3668C18.5807 94.4139 21.3084 99.1674 22.9197 106.737C25.0489 116.772 24.2736 127.206 20.6847 136.816C12.1084 159.883 18.4844 170.803 18.5498 170.911L18.0353 171.225Z" fill="white"/>
<path d="M14.6757 93.3126C16.8395 93.3126 18.5936 91.5585 18.5936 89.3947C18.5936 87.2309 16.8395 85.4768 14.6757 85.4768C12.5119 85.4768 10.7578 87.2309 10.7578 89.3947C10.7578 91.5585 12.5119 93.3126 14.6757 93.3126Z" fill="white"/>
<path d="M27.0322 107.779C29.196 107.779 30.9501 106.025 30.9501 103.861C30.9501 101.697 29.196 99.9429 27.0322 99.9429C24.8684 99.9429 23.1143 101.697 23.1143 103.861C23.1143 106.025 24.8684 107.779 27.0322 107.779Z" fill="white"/>
<path d="M18.5937 117.423C20.7575 117.423 22.5116 115.669 22.5116 113.505C22.5116 111.341 20.7575 109.587 18.5937 109.587C16.4299 109.587 14.6758 111.341 14.6758 113.505C14.6758 115.669 16.4299 117.423 18.5937 117.423Z" fill="white"/>
<path d="M28.8408 125.56C31.0046 125.56 32.7587 123.806 32.7587 121.642C32.7587 119.478 31.0046 117.724 28.8408 117.724C26.677 117.724 24.9229 119.478 24.9229 121.642C24.9229 123.806 26.677 125.56 28.8408 125.56Z" fill="white"/>
<path d="M15.58 138.218C17.7438 138.218 19.4979 136.464 19.4979 134.3C19.4979 132.136 17.7438 130.382 15.58 130.382C13.4162 130.382 11.6621 132.136 11.6621 134.3C11.6621 136.464 13.4162 138.218 15.58 138.218Z" fill="white"/>
<path d="M20.4018 171.369C20.4018 171.369 16.4839 161.725 28.2376 154.492L20.4018 171.369Z" fill="white"/>
<path d="M15.5838 171.194C15.5838 171.194 13.8007 160.939 0 161.027L15.5838 171.194Z" fill="white"/>
<path d="M221.385 145.102C222.836 145.102 224.012 143.926 224.012 142.476C224.012 141.025 222.836 139.849 221.385 139.849C219.934 139.849 218.758 141.025 218.758 142.476C218.758 143.926 219.934 145.102 221.385 145.102Z" fill="white"/>
<path d="M228.89 145.102C230.341 145.102 231.517 143.926 231.517 142.476C231.517 141.025 230.341 139.849 228.89 139.849C227.44 139.849 226.264 141.025 226.264 142.476C226.264 143.926 227.44 145.102 228.89 145.102Z" fill="white"/>
<path d="M236.395 145.102C237.846 145.102 239.022 143.926 239.022 142.476C239.022 141.025 237.846 139.849 236.395 139.849C234.945 139.849 233.769 141.025 233.769 142.476C233.769 143.926 234.945 145.102 236.395 145.102Z" fill="white"/>
</svg>
