<svg width="296" height="192" viewBox="0 0 296 192" fill="none" xmlns="http://www.w3.org/2000/svg">
<path opacity="0.1" d="M143.5 192C225.061 192 295.36 173.799 295.36 168C295.36 162.201 225.061 147 143.5 147C61.9386 147 0 162.201 0 168C0 173.799 61.9386 192 143.5 192Z" fill="#0A6EAA"/>
<path d="M265.731 94.8779L265.015 104.667C264.976 105.191 264.75 105.684 264.377 106.055C264.004 106.425 263.509 106.649 262.984 106.684C262.682 106.704 262.379 106.661 262.094 106.557C261.809 106.454 261.549 106.292 261.33 106.082C261.112 105.873 260.939 105.62 260.823 105.34C260.708 105.06 260.652 104.759 260.659 104.456L260.887 94.8779L269.316 67.851L268.296 51.2932L276.275 51.0083L275.705 70.0944L265.731 94.8779Z" fill="#A0616A"/>
<path d="M277.923 54.3718C274.365 53.5513 271.319 54.5077 268.956 57.8338L267.126 43.9985C267.037 43.1294 267.263 42.2569 267.764 41.5411C268.266 40.8253 269.008 40.3141 269.856 40.1011C270.756 39.875 271.708 40.0014 272.517 40.4544C273.327 40.9073 273.932 41.6526 274.21 42.5375L277.923 54.3718Z" fill="#0A6EAA"/>
<path d="M278.343 38.133C270.121 34.6368 261.674 36.8519 251.672 38.3893C251.579 36.5275 250.451 34.2617 251.633 32.9628C253.069 31.3847 252.936 29.7267 252.073 28.0591C249.863 23.7947 253.029 19.2573 256.224 15.4844C256.945 14.6359 257.855 13.9693 258.881 13.5386C259.908 13.1079 261.022 12.9253 262.132 13.0057L268.052 13.4284C271.002 13.639 271.717 15.6582 272.553 18.4942C273.967 20.4161 274.723 22.3327 274.247 24.2393C276.364 25.6858 276.72 27.4319 275.769 29.4003C274.962 30.6397 274.97 31.8461 275.805 33.0191C276.902 34.5147 277.742 36.1822 278.29 37.9534L278.343 38.133Z" fill="#2F2E41"/>
<path d="M248.993 165.732H245.06L242.724 133.257L252.698 132.972L248.993 165.732Z" fill="#A0616A"/>
<path d="M249.278 176.272C248.23 176.75 247.351 172.874 246.467 173.743C243.992 176.174 238.056 175.629 238.056 175.629C237.857 175.565 237.673 175.461 237.515 175.324C237.357 175.186 237.228 175.018 237.137 174.83C237.046 174.642 236.994 174.437 236.985 174.228C236.975 174.019 237.008 173.81 237.081 173.614C237.169 173.379 237.313 173.17 237.5 173.003C237.687 172.836 237.911 172.717 238.155 172.657L240.786 171.999L244.918 164.735L249.136 164.45C250.076 165.648 250.733 167.044 251.055 168.533C251.378 170.022 251.359 171.564 251 173.044C250.617 174.606 250.026 175.931 249.278 176.272Z" fill="#2F2E41"/>
<path d="M275.181 165.732H271.248L268.912 133.257L279.17 131.263L275.181 165.732Z" fill="#A0616A"/>
<path d="M275.466 176.272C274.417 176.751 273.539 172.874 272.654 173.743C270.18 176.174 264.244 175.629 264.244 175.629C264.045 175.565 263.861 175.461 263.703 175.324C263.545 175.187 263.416 175.019 263.325 174.83C263.234 174.642 263.182 174.437 263.172 174.228C263.163 174.019 263.196 173.81 263.269 173.614C263.357 173.38 263.501 173.17 263.688 173.003C263.875 172.837 264.099 172.718 264.342 172.657L266.974 171.999L271.106 164.735L275.609 164.165L275.722 164.351C276.593 165.754 277.154 167.326 277.369 168.963C277.583 170.599 277.446 172.263 276.967 173.842C276.592 175.042 276.082 175.991 275.466 176.272Z" fill="#2F2E41"/>
<path d="M284 134.724C277.643 137.536 273.836 134.493 267.365 135.413C265.518 135.675 263.341 108.514 261.485 108.627C259.121 108.772 257.075 136.145 254.697 136.051C248.719 135.795 242.79 134.858 237.025 133.257C243.187 109.366 250.463 87.7627 250.418 70.0167L268.904 68.5924L271.448 72.6254C275.528 82.1942 279.696 92.8208 281.772 103.942L284 134.724Z" fill="#2F2E41"/>
<path d="M259.537 33.2686C264.258 33.2686 268.086 29.4424 268.086 24.7225C268.086 20.0027 264.258 16.1765 259.537 16.1765C254.816 16.1765 250.988 20.0027 250.988 24.7225C250.988 29.4424 254.816 33.2686 259.537 33.2686Z" fill="#A0616A"/>
<path d="M268.94 39.8207L258.397 40.3902L256.687 30.9895L265.236 29.5655L268.94 39.8207Z" fill="#A0616A"/>
<path d="M269.759 70.0166L256.25 70.3418L250.418 71.156C247.556 61.7033 245.146 52.2722 250.988 44.3785L257.827 37.5416L268.086 37.2568L268.221 37.3344C269.851 38.2675 271.113 39.7275 271.801 41.474C272.489 43.2204 272.562 45.1491 272.006 46.9421C269.461 55.2121 269.783 63.0215 269.759 70.0166Z" fill="#0A6EAA"/>
<path d="M269.241 24.6794C269.245 22.1282 268.309 19.665 266.613 17.7589V14.7234H257.343C256.636 14.7234 255.936 14.8626 255.283 15.133C254.63 15.4034 254.037 15.7997 253.537 16.2994C253.037 16.799 252.641 17.3922 252.37 18.0451C252.1 18.6979 251.96 19.3976 251.96 20.1042V20.1042H258.139C256.473 23.1704 255.755 26.3852 257.359 29.4823C258.327 31.3507 258.37 35.0625 257.044 36.8447C257.741 36.8845 258.44 36.8845 259.137 36.8447C262.001 36.8447 269.811 37.2171 271.696 35.35C273.606 33.4593 269.241 27.5784 269.241 24.6794Z" fill="#2F2E41"/>
<path d="M254.867 95.7747H200.106C199.76 95.7757 199.428 95.9135 199.184 96.1579C198.939 96.4024 198.802 96.7337 198.801 97.0795V154.541C198.802 154.887 198.939 155.218 199.184 155.463C199.428 155.707 199.76 155.845 200.106 155.846H254.867C255.213 155.845 255.544 155.707 255.789 155.463C256.033 155.218 256.171 154.887 256.172 154.541V97.0795C256.171 96.7337 256.033 96.4024 255.789 96.1579C255.544 95.9135 255.213 95.7757 254.867 95.7747Z" fill="#E6E6E6"/>
<path d="M253.562 97.4056H201.411C201.152 97.4066 200.903 97.51 200.72 97.6933C200.537 97.8766 200.433 98.125 200.432 98.3843V153.236C200.433 153.495 200.536 153.744 200.72 153.927C200.903 154.111 201.152 154.214 201.411 154.215H253.562C253.821 154.214 254.07 154.111 254.253 153.927C254.437 153.744 254.54 153.495 254.541 153.236V98.3843C254.54 98.1249 254.437 97.8765 254.253 97.6931C254.07 97.5097 253.821 97.4064 253.562 97.4056Z" fill="white"/>
<path d="M250.133 96.509L249.417 106.298C249.378 106.822 249.152 107.315 248.779 107.686C248.406 108.056 247.911 108.28 247.387 108.315C247.084 108.335 246.781 108.292 246.496 108.188C246.211 108.085 245.951 107.923 245.732 107.713C245.514 107.504 245.341 107.251 245.225 106.971C245.11 106.691 245.054 106.39 245.061 106.087L245.289 96.509L252.413 69.4465L252.698 52.9242L260.677 52.6393L260.107 71.7255L250.133 96.509Z" fill="#A0616A"/>
<path d="M261.531 54.0641C258.149 52.689 254.989 53.1495 252.128 56.0582L252.52 42.1081C252.569 41.2357 252.932 40.4103 253.54 39.7832C254.149 39.1561 254.963 38.7692 255.834 38.6935C256.758 38.6132 257.678 38.8892 258.405 39.4649C259.133 40.0407 259.612 40.8727 259.746 41.7904L261.531 54.0641Z" fill="#0A6EAA"/>
<path d="M249.692 111.281C249.841 111.281 249.984 111.34 250.089 111.445C250.195 111.551 250.254 111.694 250.254 111.843V112.967C250.254 113.116 250.195 113.259 250.089 113.364C249.984 113.47 249.841 113.529 249.692 113.529H205.281C205.207 113.529 205.134 113.514 205.066 113.486C204.998 113.458 204.936 113.416 204.883 113.364C204.831 113.312 204.79 113.25 204.762 113.182C204.733 113.114 204.719 113.041 204.719 112.967V111.843C204.719 111.769 204.733 111.696 204.762 111.628C204.79 111.559 204.831 111.498 204.883 111.445C204.936 111.393 204.998 111.352 205.066 111.324C205.134 111.295 205.207 111.281 205.281 111.281H249.692Z" fill="#E6E6E6"/>
<path d="M249.692 116.619C249.841 116.619 249.984 116.679 250.089 116.784C250.195 116.889 250.254 117.032 250.254 117.181V118.305C250.254 118.454 250.195 118.597 250.089 118.703C249.984 118.808 249.841 118.867 249.692 118.867H205.281C205.207 118.867 205.134 118.853 205.066 118.825C204.998 118.796 204.936 118.755 204.883 118.703C204.831 118.651 204.79 118.589 204.762 118.52C204.733 118.452 204.719 118.379 204.719 118.305V117.181C204.719 117.108 204.733 117.035 204.762 116.966C204.79 116.898 204.831 116.836 204.883 116.784C204.936 116.732 204.998 116.69 205.066 116.662C205.134 116.634 205.207 116.619 205.281 116.619H249.692" fill="#E6E6E6"/>
<path d="M249.692 121.958C249.841 121.958 249.984 122.018 250.089 122.123C250.195 122.228 250.254 122.371 250.254 122.52V123.644C250.254 123.793 250.195 123.936 250.089 124.042C249.984 124.147 249.841 124.206 249.692 124.206H205.281C205.132 124.206 204.989 124.147 204.883 124.042C204.778 123.936 204.719 123.793 204.719 123.644V122.52C204.719 122.371 204.778 122.228 204.883 122.123C204.989 122.018 205.132 121.958 205.281 121.958H249.692Z" fill="#00AAC8"/>
<path d="M249.692 127.414C249.841 127.414 249.984 127.473 250.089 127.579C250.195 127.684 250.254 127.827 250.254 127.976V129.1C250.254 129.249 250.195 129.392 250.089 129.498C249.984 129.603 249.841 129.662 249.692 129.662H205.281C205.207 129.662 205.134 129.648 205.066 129.619C204.998 129.591 204.936 129.55 204.883 129.498C204.831 129.445 204.79 129.383 204.762 129.315C204.733 129.247 204.719 129.174 204.719 129.1V127.976C204.719 127.902 204.733 127.829 204.762 127.761C204.79 127.693 204.831 127.631 204.883 127.579C204.936 127.527 204.998 127.485 205.066 127.457C205.134 127.429 205.207 127.414 205.281 127.414H249.692" fill="#E6E6E6"/>
<path d="M249.692 132.753C249.841 132.753 249.984 132.812 250.089 132.918C250.195 133.023 250.254 133.166 250.254 133.315V134.439C250.254 134.588 250.195 134.731 250.089 134.837C249.984 134.942 249.841 135.001 249.692 135.001H205.281C205.207 135.001 205.134 134.987 205.066 134.958C204.998 134.93 204.936 134.889 204.883 134.837C204.831 134.784 204.79 134.722 204.762 134.654C204.733 134.586 204.719 134.513 204.719 134.439V133.315C204.719 133.241 204.733 133.168 204.762 133.1C204.79 133.032 204.831 132.97 204.883 132.918C204.936 132.866 204.998 132.824 205.066 132.796C205.134 132.768 205.207 132.753 205.281 132.753H249.692Z" fill="#E6E6E6"/>
<path d="M249.692 138.092C249.841 138.092 249.984 138.151 250.089 138.256C250.195 138.362 250.254 138.505 250.254 138.654V139.778C250.254 139.927 250.195 140.07 250.089 140.175C249.984 140.28 249.841 140.34 249.692 140.34H205.281C205.132 140.34 204.989 140.28 204.883 140.175C204.778 140.07 204.719 139.927 204.719 139.778V138.654C204.719 138.505 204.778 138.362 204.883 138.256C204.989 138.151 205.132 138.092 205.281 138.092H249.692Z" fill="#E6E6E6"/>
<path d="M53.6993 164.206L49.3387 164.448L39.4061 97.6056L30.0792 164.327L25.3552 163.237C22.7318 134.476 19.3163 104.747 21.7213 91.7932H54.9106C59.8392 104.67 56.5493 134.902 53.6993 164.206Z" fill="#2F2E41"/>
<path d="M26.5694 176.308C25.995 176.279 25.4341 176.123 24.9269 175.851C24.4198 175.58 23.9789 175.2 23.6358 174.739C23.2927 174.277 23.0558 173.745 22.9422 173.182C22.8285 172.618 22.8409 172.036 22.9784 171.478L24.9627 163.419C26.6215 161.358 28.1064 161.449 29.4394 163.419L30.8018 162.835L31.775 169.84L30.4328 173.76C30.1449 174.541 29.6147 175.21 28.9197 175.668C28.2246 176.127 27.4011 176.351 26.5694 176.308Z" fill="#2F2E41"/>
<path d="M52.9695 176.308C53.544 176.279 54.1048 176.123 54.612 175.851C55.1191 175.58 55.56 175.2 55.9031 174.739C56.2463 174.277 56.4831 173.745 56.5967 173.182C56.7104 172.618 56.698 172.036 56.5605 171.478L54.5762 163.419C52.9174 161.358 51.4326 161.449 50.0996 163.419L48.7371 162.835L47.7639 169.84L49.1061 173.76C49.394 174.541 49.9242 175.21 50.6193 175.668C51.3143 176.127 52.1378 176.351 52.9695 176.308Z" fill="#2F2E41"/>
<path d="M40.3751 23.498C45.7269 23.498 50.0654 19.1608 50.0654 13.8107C50.0654 8.46051 45.7269 4.12335 40.3751 4.12335C35.0233 4.12335 30.6848 8.46051 30.6848 13.8107C30.6848 19.1608 35.0233 23.498 40.3751 23.498Z" fill="#FFB8B8"/>
<path d="M46.1891 31.7318H33.834L34.5607 18.8962H46.1891V31.7318Z" fill="#FFB8B8"/>
<path d="M59.32 93.4475H20.0742C25.7963 74.1594 24.7904 53.4968 20.5587 32.1753L31.2181 28.7847L34.1252 26.3629C37.7732 30.8046 41.807 30.7679 46.2381 26.1207L49.8719 28.7847L60.5313 32.4175C54.909 52.9596 53.9946 73.3223 59.32 93.4475Z" fill="#003269"/>
<path d="M30.0257 11.3073C29.6187 10.1449 29.4614 8.90976 29.5638 7.68246C29.6663 6.45516 30.0263 5.26321 30.6203 4.18429C31.8045 2.08491 34.0849 0.116966 38.469 0.00595811C48.0342 -0.236227 52.1792 6.97361 51.6403 9.08781C51.1013 11.202 49.1732 16.2322 49.1732 16.2322C49.1732 16.2322 50.3689 11.3885 47.9776 10.9042C45.5863 10.4198 36.3199 8.48235 33.6297 10.662C32.8625 11.2493 32.2647 12.0293 31.8972 12.9227C31.5296 13.8161 31.4054 14.7909 31.5373 15.7478L30.0257 11.3073Z" fill="#F9FACE"/>
<path d="M69.1971 96.1008H14.4359C14.0904 96.1033 13.7599 96.2416 13.5157 96.4858C13.2714 96.7299 13.1331 97.0604 13.1306 97.4057V154.867C13.1316 155.213 13.2695 155.544 13.514 155.789C13.7586 156.033 14.09 156.171 14.4359 156.172H69.1971C69.5429 156.171 69.8743 156.033 70.1189 155.789C70.3635 155.544 70.5013 155.213 70.5023 154.867V97.4057C70.5013 97.0599 70.3635 96.7286 70.1189 96.4841C69.8743 96.2396 69.5429 96.1018 69.1971 96.1008Z" fill="#E6E6E6"/>
<path d="M67.8917 97.7318H15.7409C15.4815 97.7326 15.2329 97.8359 15.0495 98.0193C14.8661 98.2027 14.7627 98.4511 14.762 98.7104V153.562C14.7627 153.822 14.8661 154.07 15.0495 154.253C15.2329 154.437 15.4815 154.54 15.7409 154.541H67.8917C68.1511 154.54 68.3996 154.437 68.583 154.253C68.7664 154.07 68.8698 153.822 68.8706 153.562V98.7104C68.8698 98.4511 68.7664 98.2027 68.583 98.0193C68.3996 97.8359 68.1511 97.7326 67.8917 97.7318Z" fill="white"/>
<path d="M58.0005 100.785C57.505 100.592 57.0533 100.302 56.6722 99.9312C56.2911 99.5607 55.9883 99.1174 55.7819 98.6276C55.5754 98.1379 55.4695 97.6116 55.4705 97.0802C55.4714 96.5487 55.5791 96.0228 55.7873 95.5338L59.029 87.9182L58.5445 63.6999L56.8487 55.4657L65.57 52.0751L67.2658 63.4577L64.1164 89.6134L63.3903 97.4529C63.3337 98.0644 63.1358 98.6544 62.8123 99.1765C62.4887 99.6985 62.0484 100.138 61.5259 100.461C61.0034 100.784 60.413 100.982 59.8012 101.038C59.1895 101.094 58.5731 101.007 58.0005 100.785Z" fill="#FFB8B8"/>
<path d="M22.2652 100.785C22.7607 100.592 23.2124 100.302 23.5936 99.9312C23.9747 99.5607 24.2775 99.1174 24.4839 98.6276C24.6903 98.1378 24.7962 97.6116 24.7953 97.0801C24.7944 96.5487 24.6866 96.0228 24.4784 95.5338L21.2368 87.9181L21.7213 63.6999L23.4171 55.4657L14.6958 52.0751L13 63.4577L16.1493 89.6134L16.8755 97.4529C16.9321 98.0644 17.13 98.6544 17.4535 99.1765C17.777 99.6985 18.2174 100.138 18.7399 100.461C19.2624 100.784 19.8528 100.982 20.4645 101.038C21.0763 101.094 21.6927 101.007 22.2652 100.785Z" fill="#FFB8B8"/>
<path d="M66.2967 52.8017C62.8391 53.6849 59.5606 55.1598 56.6063 57.161L54.426 50.6221L59.998 31.974C61.5012 32.4749 62.8207 33.4131 63.7874 34.6683C64.7541 35.9235 65.324 37.4386 65.4241 39.0195C65.2952 43.6305 65.5873 48.2437 66.2967 52.8017Z" fill="#003269"/>
<path d="M13.969 52.8015C17.4265 53.6848 20.705 55.1596 23.6593 57.1608L25.8396 50.6219L20.9945 31.7316C17.9193 32.7564 15.0463 35.7853 14.8416 39.0193C14.9704 43.6303 14.6784 48.2435 13.969 52.8015Z" fill="#003269"/>
<path d="M64.022 111.304C64.1711 111.304 64.3141 111.363 64.4195 111.468C64.525 111.574 64.5842 111.717 64.5842 111.866V112.99C64.5842 113.139 64.525 113.282 64.4195 113.387C64.3141 113.492 64.1711 113.552 64.022 113.552H19.611C19.5372 113.552 19.4641 113.537 19.3959 113.509C19.3277 113.481 19.2657 113.439 19.2135 113.387C19.1613 113.335 19.1199 113.273 19.0916 113.205C19.0634 113.136 19.0488 113.063 19.0488 112.99V111.866C19.0488 111.792 19.0634 111.719 19.0916 111.651C19.1199 111.582 19.1613 111.52 19.2135 111.468C19.2657 111.416 19.3277 111.375 19.3959 111.346C19.4641 111.318 19.5372 111.304 19.611 111.304H64.022Z" fill="#E6E6E6"/>
<path d="M64.022 116.643C64.1711 116.643 64.3141 116.702 64.4195 116.807C64.525 116.913 64.5842 117.056 64.5842 117.205V118.329C64.5842 118.478 64.525 118.621 64.4195 118.726C64.3141 118.831 64.1711 118.891 64.022 118.891H19.611C19.5372 118.891 19.4641 118.876 19.3959 118.848C19.3277 118.82 19.2657 118.778 19.2135 118.726C19.1613 118.674 19.1199 118.612 19.0916 118.544C19.0634 118.475 19.0488 118.402 19.0488 118.329V117.205C19.0488 117.131 19.0634 117.058 19.0916 116.989C19.1199 116.921 19.1613 116.859 19.2135 116.807C19.2657 116.755 19.3277 116.714 19.3959 116.685C19.4641 116.657 19.5372 116.643 19.611 116.643H64.022Z" fill="#E6E6E6"/>
<path d="M64.022 121.982C64.1711 121.982 64.3141 122.041 64.4195 122.146C64.525 122.252 64.5842 122.395 64.5842 122.544V123.668C64.5842 123.817 64.525 123.96 64.4195 124.065C64.3141 124.17 64.1711 124.23 64.022 124.23H19.611C19.4619 124.23 19.3189 124.17 19.2135 124.065C19.1081 123.96 19.0488 123.817 19.0488 123.668V122.544C19.0488 122.395 19.1081 122.252 19.2135 122.146C19.3189 122.041 19.4619 121.982 19.611 121.982H64.022" fill="#00AAC8"/>
<path d="M64.022 127.437C64.1711 127.437 64.3141 127.496 64.4195 127.602C64.525 127.707 64.5842 127.85 64.5842 127.999V129.123C64.5842 129.272 64.525 129.415 64.4195 129.52C64.3141 129.626 64.1711 129.685 64.022 129.685H19.611C19.5372 129.685 19.4641 129.67 19.3959 129.642C19.3277 129.614 19.2657 129.573 19.2135 129.52C19.1613 129.468 19.1199 129.406 19.0916 129.338C19.0634 129.27 19.0488 129.197 19.0488 129.123V127.999C19.0488 127.925 19.0634 127.852 19.0916 127.784C19.1199 127.716 19.1613 127.654 19.2135 127.602C19.2657 127.549 19.3277 127.508 19.3959 127.48C19.4641 127.452 19.5372 127.437 19.611 127.437H64.022Z" fill="#E6E6E6"/>
<path d="M64.022 132.776C64.1711 132.776 64.3141 132.835 64.4195 132.941C64.525 133.046 64.5842 133.189 64.5842 133.338V134.462C64.5842 134.611 64.525 134.754 64.4195 134.859C64.3141 134.965 64.1711 135.024 64.022 135.024H19.611C19.5372 135.024 19.4641 135.009 19.3959 134.981C19.3277 134.953 19.2657 134.912 19.2135 134.859C19.1613 134.807 19.1199 134.745 19.0916 134.677C19.0634 134.609 19.0488 134.536 19.0488 134.462V133.338C19.0488 133.264 19.0634 133.191 19.0916 133.123C19.1199 133.055 19.1613 132.993 19.2135 132.941C19.2657 132.888 19.3277 132.847 19.3959 132.819C19.4641 132.791 19.5372 132.776 19.611 132.776H64.022Z" fill="#E6E6E6"/>
<path d="M64.022 138.115C64.1711 138.115 64.3141 138.174 64.4195 138.28C64.525 138.385 64.5842 138.528 64.5842 138.677V139.801C64.5842 139.95 64.525 140.093 64.4195 140.198C64.3141 140.304 64.1711 140.363 64.022 140.363H19.611C19.4619 140.363 19.3189 140.304 19.2135 140.198C19.1081 140.093 19.0488 139.95 19.0488 139.801V138.677C19.0488 138.528 19.1081 138.385 19.2135 138.28C19.3189 138.174 19.4619 138.115 19.611 138.115H64.022Z" fill="#E6E6E6"/>
<path d="M174.849 57.4122H120.088C119.742 57.4127 119.41 57.5503 119.166 57.7949C118.921 58.0395 118.783 58.3711 118.783 58.7171V154.547C118.784 154.893 118.922 155.224 119.166 155.469C119.411 155.713 119.742 155.851 120.088 155.852H174.849C175.195 155.851 175.527 155.713 175.771 155.469C176.016 155.224 176.154 154.893 176.155 154.547V58.7171C176.154 58.3711 176.017 58.0395 175.772 57.7949C175.527 57.5503 175.195 57.4127 174.849 57.4122Z" fill="#E6E6E6"/>
<path d="M174.5 59.8131C174.474 59.6963 174.427 59.5849 174.363 59.4836C174.273 59.3487 174.152 59.2379 174.009 59.1611C173.866 59.0843 173.706 59.0438 173.544 59.0433H121.393C121.134 59.0435 120.885 59.1467 120.701 59.3301C120.518 59.5136 120.415 59.7624 120.415 60.0219V153.242C120.415 153.502 120.519 153.75 120.702 153.934C120.886 154.117 121.134 154.22 121.393 154.221H173.544C173.804 154.22 174.052 154.117 174.236 153.934C174.419 153.75 174.522 153.502 174.523 153.242V60.0219C174.524 59.9517 174.516 59.8816 174.5 59.8131Z" fill="white"/>
<path d="M169.674 109.673C169.823 109.673 169.966 109.732 170.072 109.838C170.177 109.943 170.237 110.086 170.237 110.235V111.359C170.237 111.508 170.177 111.651 170.072 111.756C169.966 111.862 169.823 111.921 169.674 111.921H125.263C125.19 111.921 125.116 111.906 125.048 111.878C124.98 111.85 124.918 111.809 124.866 111.756C124.814 111.704 124.772 111.642 124.744 111.574C124.716 111.506 124.701 111.433 124.701 111.359V110.235C124.701 110.161 124.716 110.088 124.744 110.02C124.772 109.952 124.814 109.89 124.866 109.838C124.918 109.785 124.98 109.744 125.048 109.716C125.116 109.687 125.19 109.673 125.263 109.673H169.674Z" fill="#E6E6E6"/>
<path d="M169.674 115.012C169.823 115.012 169.966 115.071 170.072 115.176C170.177 115.282 170.237 115.425 170.237 115.574V116.698C170.237 116.847 170.177 116.99 170.072 117.095C169.966 117.2 169.823 117.26 169.674 117.26H125.263C125.19 117.26 125.116 117.245 125.048 117.217C124.98 117.189 124.918 117.147 124.866 117.095C124.814 117.043 124.772 116.981 124.744 116.913C124.716 116.844 124.701 116.771 124.701 116.698V115.574C124.701 115.5 124.716 115.427 124.744 115.359C124.772 115.29 124.814 115.228 124.866 115.176C124.918 115.124 124.98 115.083 125.048 115.054C125.116 115.026 125.19 115.012 125.263 115.012H169.674Z" fill="#E6E6E6"/>
<path d="M169.674 120.351C169.823 120.351 169.966 120.41 170.072 120.515C170.177 120.621 170.237 120.764 170.237 120.913V122.037C170.237 122.186 170.177 122.329 170.072 122.434C169.966 122.539 169.823 122.599 169.674 122.599H125.263C125.114 122.599 124.971 122.539 124.866 122.434C124.76 122.329 124.701 122.186 124.701 122.037V120.913C124.701 120.764 124.76 120.621 124.866 120.515C124.971 120.41 125.114 120.351 125.263 120.351H169.674Z" fill="#00AAC8"/>
<path d="M169.674 125.806C169.823 125.806 169.966 125.866 170.072 125.971C170.177 126.076 170.237 126.219 170.237 126.368V127.492C170.237 127.641 170.177 127.784 170.072 127.89C169.966 127.995 169.823 128.054 169.674 128.054H125.263C125.19 128.054 125.116 128.04 125.048 128.012C124.98 127.983 124.918 127.942 124.866 127.89C124.814 127.838 124.772 127.776 124.744 127.707C124.716 127.639 124.701 127.566 124.701 127.492V126.368C124.701 126.295 124.716 126.222 124.744 126.153C124.772 126.085 124.814 126.023 124.866 125.971C124.918 125.919 124.98 125.877 125.048 125.849C125.116 125.821 125.19 125.806 125.263 125.806H169.674Z" fill="#E6E6E6"/>
<path d="M169.674 131.145C169.823 131.145 169.966 131.205 170.072 131.31C170.177 131.415 170.237 131.558 170.237 131.707V132.831C170.237 132.98 170.177 133.123 170.072 133.229C169.966 133.334 169.823 133.393 169.674 133.393H125.263C125.19 133.393 125.116 133.379 125.048 133.351C124.98 133.322 124.918 133.281 124.866 133.229C124.814 133.177 124.772 133.115 124.744 133.046C124.716 132.978 124.701 132.905 124.701 132.831V131.707C124.701 131.634 124.716 131.56 124.744 131.492C124.772 131.424 124.814 131.362 124.866 131.31C124.918 131.258 124.98 131.216 125.048 131.188C125.116 131.16 125.19 131.145 125.263 131.145H169.674Z" fill="#E6E6E6"/>
<path d="M169.674 136.484C169.823 136.484 169.966 136.544 170.072 136.649C170.177 136.754 170.237 136.897 170.237 137.046V138.17C170.237 138.319 170.177 138.462 170.072 138.568C169.966 138.673 169.823 138.732 169.674 138.732H125.263C125.114 138.732 124.971 138.673 124.866 138.568C124.76 138.462 124.701 138.319 124.701 138.17V137.046C124.701 136.897 124.76 136.754 124.866 136.649C124.971 136.544 125.114 136.484 125.263 136.484H169.674Z" fill="#E6E6E6"/>
<path d="M125.585 67.9987C125.412 67.9988 125.246 68.0676 125.123 68.1899C125.001 68.3123 124.932 68.4781 124.932 68.6511V98.9609C124.932 99.1338 125.001 99.2997 125.123 99.422C125.246 99.5443 125.412 99.6131 125.585 99.6133H169.353C169.526 99.6131 169.692 99.5443 169.814 99.422C169.937 99.2997 170.005 99.1338 170.006 98.9609V68.6511C170.005 68.4781 169.937 68.3123 169.814 68.1899C169.692 68.0676 169.526 67.9988 169.353 67.9987H125.585Z" fill="#00AAC8"/>
<path d="M193.557 44.4599C194.746 44.9652 195.929 45.5254 197.071 46.1251L197.375 45.5475C196.217 44.9395 195.018 44.3717 193.813 43.8594L193.557 44.4599Z" fill="#CCCCCC"/>
<path d="M207.071 52.2686L206.635 52.755C207.598 53.6154 208.536 54.5267 209.423 55.4631L209.897 55.0146C208.997 54.0651 208.046 53.1411 207.071 52.2686Z" fill="#CCCCCC"/>
<path d="M200.438 48.0708C201.528 48.7624 202.604 49.5076 203.633 50.2857L204.027 49.7651C202.983 48.9765 201.893 48.2211 200.787 47.5199L200.438 48.0708Z" fill="#CCCCCC"/>
<path d="M186.185 42.0131C187.441 42.3196 188.698 42.681 189.921 43.087L190.127 42.4677C188.887 42.0563 187.613 41.69 186.34 41.3792L186.185 42.0131Z" fill="#CCCCCC"/>
<path d="M221.994 79.3519L221.35 79.4553C221.554 80.7264 221.705 82.0242 221.799 83.3128L222.45 83.265C222.355 81.9579 222.201 80.6415 221.994 79.3519Z" fill="#CCCCCC"/>
<path d="M219.458 71.9293C219.88 73.1476 220.254 74.3999 220.568 75.6512L221.201 75.4922C220.882 74.2227 220.503 72.9522 220.075 71.7158L219.458 71.9293Z" fill="#CCCCCC"/>
<path d="M216.298 64.8424C216.923 65.9724 217.506 67.1418 218.032 68.3179L218.627 68.0523C218.095 66.8591 217.503 65.6729 216.869 64.5267L216.298 64.8424Z" fill="#CCCCCC"/>
<path d="M211.976 58.3936C212.783 59.4014 213.556 60.4556 214.274 61.5268L214.816 61.1637C214.088 60.0772 213.304 59.0081 212.486 57.9861L211.976 58.3936Z" fill="#CCCCCC"/>
<path d="M180.319 37.457C178.838 38.6331 176.487 39.7001 174.605 40.3017C176.425 41.0729 178.668 42.3494 180.036 43.6555L179.16 40.8401C180.237 40.9399 181.315 41.0739 182.375 41.2437L182.478 40.5996C181.393 40.4256 180.289 40.2889 179.187 40.1874L180.319 37.457Z" fill="#CCCCCC"/>
<path d="M76.4148 68.0523L77.0107 68.318C77.5354 67.1423 78.1185 65.9729 78.7441 64.8424L78.173 64.5267C77.5384 65.6734 76.947 66.8596 76.4148 68.0523Z" fill="#CCCCCC"/>
<path d="M73.8416 75.4921L74.4744 75.651C74.7883 74.4015 75.1614 73.1492 75.5837 71.9289L74.9667 71.7158C74.5386 72.9538 74.1599 74.2243 73.8416 75.4921Z" fill="#CCCCCC"/>
<path d="M72.5918 83.2651L73.2428 83.3129C73.3368 82.0244 73.488 80.7265 73.6923 79.4555L73.048 79.3519C72.8408 80.6415 72.6874 81.9581 72.5918 83.2651Z" fill="#CCCCCC"/>
<path d="M80.2261 61.1636L80.7681 61.5268C81.4859 60.4564 82.259 59.4023 83.0662 58.3936L82.5566 57.9861C81.738 59.0089 80.9539 60.078 80.2261 61.1636Z" fill="#CCCCCC"/>
<path d="M97.667 45.5475L97.9704 46.1251C99.1142 45.5249 100.297 44.9647 101.485 44.4599L101.229 43.8594C100.025 44.3712 98.8266 44.939 97.667 45.5475Z" fill="#CCCCCC"/>
<path d="M104.916 42.4673L105.121 43.0866C106.344 42.6805 107.601 42.3191 108.857 42.0127L108.702 41.3787C107.429 41.6895 106.155 42.0558 104.916 42.4673Z" fill="#CCCCCC"/>
<path d="M85.145 55.0146L85.6189 55.4631C86.5055 54.5273 87.4435 53.6161 88.4067 52.755L87.9717 52.2686C86.995 53.1417 86.044 54.0656 85.145 55.0146Z" fill="#CCCCCC"/>
<path d="M91.0154 49.765L91.4089 50.2855C92.4388 49.5073 93.5139 48.7621 94.6043 48.0708L94.2547 47.5199C93.1493 48.2207 92.0595 48.976 91.0154 49.765Z" fill="#CCCCCC"/>
<path d="M120.437 40.3019C118.555 39.6996 116.204 38.6326 114.723 37.4565L115.855 40.1876C114.753 40.289 113.649 40.4258 112.564 40.5997L112.667 41.2439C113.727 41.0741 114.805 40.9401 115.882 40.8402L115.006 43.655C116.374 42.3489 118.617 41.0724 120.437 40.3019Z" fill="#CCCCCC"/>
<path d="M147.469 50.4142C145.468 50.4142 143.512 49.8212 141.849 48.71C140.185 47.5988 138.889 46.0195 138.123 44.1717C137.358 42.3238 137.157 40.2906 137.548 38.329C137.938 36.3673 138.901 34.5655 140.316 33.1512C141.731 31.737 143.533 30.7738 145.495 30.3836C147.458 29.9935 149.492 30.1937 151.34 30.9591C153.188 31.7245 154.768 33.0206 155.88 34.6836C156.991 36.3466 157.584 38.3017 157.584 40.3018C157.581 42.9828 156.515 45.5532 154.618 47.449C152.722 49.3448 150.151 50.4112 147.469 50.4142ZM147.469 30.8417C145.597 30.8417 143.768 31.3966 142.212 32.436C140.655 33.4755 139.442 34.953 138.726 36.6816C138.01 38.4102 137.823 40.3123 138.188 42.1473C138.553 43.9824 139.454 45.668 140.778 46.991C142.101 48.314 143.787 49.215 145.623 49.58C147.458 49.9451 149.361 49.7577 151.09 49.0417C152.819 48.3257 154.297 47.1132 155.337 45.5575C156.377 44.0018 156.932 42.1728 156.932 40.3018C156.929 37.7937 155.931 35.3891 154.157 33.6157C152.383 31.8422 149.978 30.8446 147.469 30.8418V30.8417Z" fill="#00AAC8"/>
<path d="M148.448 35.4091H146.49V45.1953H148.448V35.4091Z" fill="#00AAC8"/>
<path d="M152.364 41.2803V39.3231H142.574V41.2803H152.364Z" fill="#00AAC8"/>
</svg>
