<svg width="271" height="208" viewBox="0 0 271 208" fill="none" xmlns="http://www.w3.org/2000/svg">
<g clip-path="url(#clip0)">
<path opacity="0.1" d="M253.923 117.746C243.937 132.724 246.465 153.543 251.492 170.033C253.185 175.553 255.098 181.386 253.961 187.487C252.571 194.949 246.902 200.695 241.091 203.912C230.501 209.78 218.209 209.297 209.089 202.661C201.208 196.924 195.851 187.135 187.808 181.68C174.365 172.584 156.413 177.451 140.912 185.269C129.945 190.794 117.904 197.84 107.51 193.42C100.197 190.309 95.4571 181.931 93.1017 172.886C91.965 168.518 91.2202 163.76 88.7971 160.391C87.3461 158.39 85.4114 157.015 83.4066 155.899C65.0975 145.592 40.9408 153.21 23.2266 141.62C11.2728 133.807 4.16048 118.098 1.50516 101.422C-1.15016 84.7462 0.158149 67.0094 1.9332 49.5547C3.19315 37.1521 4.99964 23.8838 11.9378 13.9411C19.2774 3.42434 31.1829 -1.05389 41.6832 0.207348C52.1836 1.46858 61.4168 7.71447 69.4529 15.2553C79.4962 24.6603 88.6471 36.5878 101.399 39.853C110.083 42.0837 119.442 39.9905 128.569 38.8884C143.828 37.0677 158.95 38.0806 173.97 39.2839C188.352 40.4366 202.826 41.7895 216.332 46.7042C225.89 50.1817 233.343 57.1076 242.303 61.7136C248.143 64.716 254.648 65.2417 260.121 69.1894C266.863 74.0486 272.822 82.8604 270.479 93.7485C268.251 104.116 259.221 109.788 253.923 117.746Z" fill="#227AA6"/>
<path d="M77.2889 100.582H72.3972V161.127H77.2889V100.582Z" fill="#D6D6E3"/>
<path d="M235.829 107.433V51.7479C235.83 50.1958 236.447 48.7075 237.544 47.6103C238.641 46.513 240.129 45.8967 241.68 45.8967C243.229 45.8996 244.714 46.5172 245.809 47.6142C246.904 48.7111 247.519 50.1977 247.52 51.7479V119.141C247.52 120.694 246.903 122.183 245.806 123.281C244.709 124.379 243.221 124.995 241.669 124.995H205.432C203.88 124.995 202.392 124.379 201.295 123.281C200.198 122.183 199.581 120.694 199.581 119.141C199.581 117.589 200.198 116.1 201.295 115.002C202.392 113.904 203.88 113.287 205.432 113.287H229.978C231.53 113.287 233.018 112.671 234.116 111.573C235.213 110.475 235.829 108.986 235.829 107.433Z" fill="#AEBEE1"/>
<path d="M235.829 107.433V51.7479C235.83 50.1958 236.447 48.7075 237.544 47.6103C238.641 46.513 240.129 45.8967 241.68 45.8967C243.229 45.8996 244.714 46.5172 245.809 47.6142C246.904 48.7111 247.519 50.1977 247.52 51.7479V119.141C247.52 120.694 246.903 122.183 245.806 123.281C244.709 124.379 243.221 124.995 241.669 124.995H205.432C203.88 124.995 202.392 124.379 201.295 123.281C200.198 122.183 199.581 120.694 199.581 119.141C199.581 117.589 200.198 116.1 201.295 115.002C202.392 113.904 203.88 113.287 205.432 113.287H229.978C231.53 113.287 233.018 112.671 234.116 111.573C235.213 110.475 235.829 108.986 235.829 107.433Z" fill="#535461"/>
<path d="M199.581 118.16C199.66 116.677 200.3 115.282 201.368 114.261C202.436 113.239 203.852 112.67 205.323 112.67H229.447C230.972 112.67 232.435 112.059 233.513 110.971C234.592 109.884 235.197 108.408 235.197 106.87V51.6943C235.196 50.2035 235.764 48.7695 236.784 47.6899C237.803 46.6104 239.195 45.9682 240.672 45.8967V118.16H199.581Z" fill="#D6D6E3"/>
<path d="M17.5588 108.617V53.6302C17.5588 52.0995 16.9442 50.6313 15.8499 49.5476C14.7555 48.4639 13.2708 47.8533 11.7213 47.8497C10.1695 47.8497 8.68123 48.4587 7.58391 49.5428C6.4866 50.6268 5.87013 52.0971 5.87013 53.6302V120.178C5.86832 120.938 6.01833 121.691 6.31157 122.394C6.60481 123.097 7.03552 123.736 7.57904 124.274C8.12255 124.812 8.7682 125.239 9.479 125.53C10.1898 125.822 10.9518 125.972 11.7213 125.972H47.9575C49.5094 125.972 50.9976 125.363 52.095 124.279C53.1923 123.195 53.8087 121.724 53.8087 120.191C53.8087 118.658 53.1923 117.188 52.095 116.104C50.9976 115.02 49.5094 114.411 47.9575 114.411H23.4127C22.643 114.411 21.8807 114.262 21.1696 113.97C20.4584 113.679 19.8125 113.252 19.2687 112.714C18.7249 112.176 18.2939 111.537 18.0005 110.834C17.7071 110.131 17.557 109.377 17.5588 108.617Z" fill="#AEBEE1"/>
<path d="M17.5588 108.617V53.6302C17.5588 52.0995 16.9442 50.6313 15.8499 49.5476C14.7555 48.4639 13.2708 47.8533 11.7213 47.8497C10.1695 47.8497 8.68123 48.4587 7.58391 49.5428C6.4866 50.6268 5.87013 52.0971 5.87013 53.6302V120.178C5.86832 120.938 6.01833 121.691 6.31157 122.394C6.60481 123.097 7.03552 123.736 7.57904 124.274C8.12255 124.812 8.7682 125.239 9.479 125.53C10.1898 125.822 10.9518 125.972 11.7213 125.972H47.9575C49.5094 125.972 50.9976 125.363 52.095 124.279C53.1923 123.195 53.8087 121.724 53.8087 120.191C53.8087 118.658 53.1923 117.188 52.095 116.104C50.9976 115.02 49.5094 114.411 47.9575 114.411H23.4127C22.643 114.411 21.8807 114.262 21.1696 113.97C20.4584 113.679 19.8125 113.252 19.2687 112.714C18.7249 112.176 18.2939 111.537 18.0005 110.834C17.7071 110.131 17.557 109.377 17.5588 108.617Z" fill="#535461"/>
<path d="M53.8088 120.113C53.7298 118.63 53.0903 117.235 52.0219 116.213C50.9535 115.192 49.5375 114.623 48.0655 114.623H23.9397C23.1842 114.623 22.436 114.474 21.7379 114.182C21.0398 113.891 20.4055 113.464 19.8711 112.925C19.3368 112.386 18.9129 111.747 18.6237 111.043C18.3345 110.339 18.1857 109.584 18.1857 108.822V53.6423C18.1854 52.1537 17.6177 50.7221 16.6 49.6439C15.5824 48.5657 14.1927 47.9233 12.7185 47.8497V120.113H53.8088Z" fill="#D6D6E3"/>
<path d="M184.906 100.582H179.036V162.103H184.906V100.582Z" fill="#D6D6E3"/>
<path opacity="0.1" d="M77.2889 100.582H72.3972V105.465H77.2889V100.582Z" fill="black"/>
<path opacity="0.1" d="M184.906 100.582H179.036V105.465H184.906V100.582Z" fill="black"/>
<path opacity="0.1" d="M90.9855 63.4742C90.9081 64.4377 90.8101 65.4142 90.6915 66.4038H90.0072V63.4742H90.9855Z" fill="black"/>
<path d="M113.487 93.8976C113.504 94.8878 112.791 95.6995 111.908 95.6995H95.2401V93.959H109.109C109.708 93.959 110.081 93.2338 109.78 92.6536L97.2035 67.0334C97.1145 66.8488 96.9765 66.6923 96.8046 66.5811C96.6326 66.4699 96.4334 66.4082 96.2288 66.403H90.0072V63.4742H97.8635C98.0067 63.4778 98.1461 63.5208 98.2665 63.5986C98.3868 63.6763 98.4835 63.7858 98.5458 63.9149L112.963 91.8084C113.296 92.4554 113.475 93.1702 113.487 93.8976Z" fill="#535461"/>
<path d="M83.3678 89.4596L83.1586 89.8403L81.2023 88.4277L87.2549 38.0845H88.8133C88.8133 38.0845 88.8771 38.3162 88.9817 38.7577C90.0249 43.1086 95.1491 67.7491 83.3678 89.4596Z" fill="#535461"/>
<path opacity="0.1" d="M89.029 38.7577L83.3816 89.4596L83.1711 89.8403L81.2023 88.4277L87.2937 38.0845H88.8621C88.8621 38.0845 88.9237 38.3245 89.029 38.7577Z" fill="black"/>
<path d="M85.1373 37.6273L78.9265 89.3358L82.8986 89.8102L89.1094 38.1017L85.1373 37.6273Z" fill="#D6D6E3"/>
<path d="M65.5488 94.2333C65.548 94.3629 65.4888 94.4871 65.3842 94.5787C65.2796 94.6704 65.1379 94.7222 64.9899 94.723H64.1531C64.0048 94.723 63.8627 94.6714 63.7579 94.5796C63.653 94.4877 63.5941 94.3632 63.5941 94.2333C63.5915 94.2143 63.5915 94.195 63.5941 94.176C63.6108 94.0578 63.6761 93.949 63.7778 93.8699C63.8795 93.7908 64.0106 93.747 64.1466 93.7465H64.9834C65.1076 93.7476 65.2279 93.7847 65.3254 93.8521C65.423 93.9194 65.4924 94.0132 65.5227 94.1187C65.537 94.1558 65.5458 94.1943 65.5488 94.2333Z" fill="#E3EDF9"/>
<path d="M67.5055 94.2333C67.5046 94.3629 67.4454 94.4871 67.3407 94.5787C67.2359 94.6704 67.0941 94.7222 66.946 94.723H66.1084C65.96 94.723 65.8176 94.6714 65.7127 94.5796C65.6078 94.4877 65.5488 94.3632 65.5488 94.2333C65.5491 94.1877 65.5569 94.1424 65.5717 94.0987C65.5965 94.0193 65.645 93.9471 65.7124 93.8897C65.7636 93.844 65.8247 93.8078 65.8922 93.7832C65.9596 93.7587 66.032 93.7461 66.1051 93.7465H66.9427C67.0507 93.746 67.1566 93.7728 67.2477 93.8236C67.3388 93.8744 67.4112 93.947 67.4564 94.0328C67.4883 94.096 67.505 94.1642 67.5055 94.2333Z" fill="#E3EDF9"/>
<path d="M69.4622 94.2347C69.4613 94.364 69.4021 94.4877 69.2974 94.5792C69.1926 94.6706 69.0508 94.7222 68.9027 94.723H68.0651C67.9167 94.723 67.7744 94.6715 67.6695 94.58C67.5645 94.4884 67.5056 94.3642 67.5056 94.2347C67.5042 94.1648 67.5209 94.0955 67.5547 94.032C67.6 93.9477 67.6716 93.8762 67.7613 93.8258C67.851 93.7753 67.9551 93.7478 68.0618 93.7465H68.8994C68.973 93.7461 69.046 93.7585 69.114 93.7829C69.1821 93.8073 69.244 93.8432 69.296 93.8886C69.348 93.934 69.3892 93.988 69.4172 94.0474C69.4452 94.1068 69.4593 94.1705 69.4589 94.2347H69.4622Z" fill="#E3EDF9"/>
<path d="M71.419 94.2333C71.4181 94.3629 71.3589 94.4871 71.2541 94.5787C71.1493 94.6704 71.0075 94.7222 70.8593 94.723H70.0215C69.9192 94.7229 69.8188 94.6983 69.7314 94.6518C69.6439 94.6054 69.5727 94.5388 69.5255 94.4594C69.4782 94.38 69.4568 94.2907 69.4635 94.2014C69.4701 94.1121 69.5047 94.026 69.5633 93.9527L69.6288 93.8897C69.68 93.844 69.7411 93.8078 69.8085 93.7832C69.876 93.7587 69.9484 93.7461 70.0215 93.7465H70.8593C70.9356 93.7473 71.011 93.7617 71.0807 93.7887C71.1505 93.8158 71.2132 93.855 71.2651 93.904C71.3635 93.992 71.4187 94.1102 71.419 94.2333Z" fill="#E3EDF9"/>
<path opacity="0.1" d="M65.5325 93.7465C65.5438 93.8081 65.5493 93.8716 65.5488 93.9353C65.548 94.1439 65.4888 94.3435 65.3842 94.4909C65.2795 94.6384 65.1379 94.7218 64.9899 94.723H64.1531C64.0048 94.723 63.8627 94.64 63.7579 94.4923C63.653 94.3446 63.5941 94.1442 63.5941 93.9353C63.5915 93.9047 63.5915 93.8738 63.5941 93.8432L65.5325 93.7465Z" fill="black"/>
<path opacity="0.1" d="M67.4597 93.7465C67.4892 93.8335 67.5047 93.9268 67.5055 94.0214C67.5046 94.2071 67.4454 94.385 67.3407 94.5163C67.2359 94.6477 67.0941 94.7219 66.946 94.723H66.1084C65.96 94.723 65.8176 94.6491 65.7127 94.5175C65.6078 94.3859 65.5488 94.2074 65.5488 94.0214C65.5491 93.956 65.5569 93.8911 65.5717 93.8285L67.4597 93.7465Z" fill="black"/>
<path opacity="0.1" d="M69.3771 93.7465C69.4322 93.8475 69.4616 93.9641 69.4622 94.0832C69.4613 94.2526 69.4021 94.4147 69.2974 94.5345C69.1926 94.6543 69.0508 94.722 68.9027 94.723H68.0651C67.9167 94.723 67.7744 94.6556 67.6695 94.5356C67.5645 94.4156 67.5056 94.2529 67.5056 94.0832C67.5042 93.9915 67.5209 93.9007 67.5547 93.8175L69.3771 93.7465Z" fill="black"/>
<path opacity="0.1" d="M71.419 94.1412C71.4181 94.2952 71.3589 94.4427 71.2541 94.5516C71.1493 94.6605 71.0075 94.7221 70.8593 94.723H70.0215C69.9192 94.7229 69.8188 94.6937 69.7314 94.6384C69.6439 94.5832 69.5727 94.5041 69.5255 94.4098C69.4782 94.3154 69.4568 94.2094 69.4635 94.1032C69.4701 93.9971 69.5047 93.8949 69.5633 93.8077L71.2651 93.7465C71.3643 93.8519 71.4195 93.9937 71.419 94.1412Z" fill="black"/>
<path d="M75.3295 95.6995H61.6355V95.1115C61.6353 94.8505 61.7427 94.5996 61.9349 94.4118C62.1272 94.2241 62.3892 94.1142 62.6657 94.1054L73.6485 93.7473C73.8667 93.7403 74.0842 93.7748 74.288 93.8487C74.4918 93.9226 74.6778 94.0345 74.8349 94.1776C74.992 94.3207 75.117 94.4922 75.2024 94.6818C75.2878 94.8714 75.332 95.0753 75.3322 95.2814L75.3295 95.6995Z" fill="#D6D6E3"/>
<path d="M142.838 93.8976C142.821 94.8878 143.534 95.6995 144.417 95.6995H161.098V93.959H147.209C146.61 93.959 146.236 93.2338 146.537 92.6536L159.117 67.0334C159.206 66.8488 159.344 66.6923 159.516 66.5811C159.688 66.4699 159.887 66.4082 160.092 66.403H166.318V63.4742H158.465C158.324 63.4795 158.187 63.5231 158.069 63.6002C157.951 63.6774 157.856 63.7851 157.794 63.9121L143.373 91.8056C143.036 92.4525 142.853 93.1684 142.838 93.8976Z" fill="#535461"/>
<path d="M173.721 89.4596L173.951 89.8403L176.101 88.4277L169.447 38.0845H167.734C167.734 38.0845 167.664 38.3162 167.549 38.7577C166.399 43.1086 160.755 67.7491 173.721 89.4596Z" fill="#535461"/>
<path opacity="0.1" d="M167.296 38.7577L173.649 89.4596L173.886 89.8403L176.101 88.4277L169.251 38.0845H167.487C167.487 38.0845 167.415 38.3245 167.296 38.7577Z" fill="black"/>
<path d="M171.354 37.6221L167.382 38.0965L173.593 89.805L177.565 89.3306L171.354 37.6221Z" fill="#D6D6E3"/>
<path d="M190.776 94.2333C190.777 94.3629 190.836 94.4871 190.941 94.5787C191.046 94.6704 191.187 94.7222 191.335 94.723H192.172C192.32 94.723 192.463 94.6714 192.567 94.5796C192.672 94.4877 192.731 94.3632 192.731 94.2333C192.734 94.2143 192.734 94.195 192.731 94.176C192.714 94.0578 192.649 93.949 192.547 93.8699C192.446 93.7908 192.315 93.747 192.179 93.7465H191.342C191.218 93.7476 191.097 93.7847 191 93.8521C190.902 93.9194 190.833 94.0132 190.803 94.1187C190.788 94.1558 190.779 94.1943 190.776 94.2333Z" fill="#E3EDF9"/>
<path d="M188.821 94.2333C188.822 94.3629 188.881 94.4871 188.985 94.5787C189.09 94.6704 189.232 94.7222 189.38 94.723H190.217C190.291 94.723 190.363 94.7103 190.431 94.6857C190.499 94.6611 190.561 94.625 190.613 94.5796C190.665 94.5341 190.706 94.4801 190.734 94.4207C190.762 94.3613 190.776 94.2976 190.776 94.2333C190.776 94.1877 190.768 94.1424 190.753 94.0987C190.729 94.0193 190.68 93.9471 190.613 93.8897C190.562 93.844 190.501 93.8078 190.433 93.7832C190.366 93.7587 190.293 93.7461 190.22 93.7465H189.367C189.259 93.746 189.153 93.7728 189.062 93.8236C188.971 93.8744 188.899 93.947 188.853 94.0328C188.827 94.097 188.816 94.1652 188.821 94.2333Z" fill="#E3EDF9"/>
<path d="M186.863 94.2347C186.864 94.364 186.923 94.4877 187.028 94.5792C187.133 94.6706 187.274 94.7222 187.423 94.723H188.26C188.409 94.723 188.551 94.6715 188.656 94.58C188.761 94.4884 188.82 94.3642 188.82 94.2347C188.821 94.1648 188.804 94.0955 188.771 94.032C188.725 93.9477 188.654 93.8762 188.564 93.8258C188.474 93.7753 188.37 93.7478 188.263 93.7465H187.426C187.352 93.7461 187.279 93.7585 187.211 93.7829C187.143 93.8073 187.081 93.8432 187.029 93.8886C186.977 93.934 186.936 93.988 186.908 94.0474C186.88 94.1068 186.866 94.1705 186.866 94.2347H186.863Z" fill="#E3EDF9"/>
<path d="M184.906 94.2333C184.907 94.3629 184.966 94.4871 185.071 94.5787C185.176 94.6704 185.318 94.7222 185.466 94.723H186.304C186.406 94.7229 186.506 94.6983 186.594 94.6518C186.681 94.6054 186.752 94.5388 186.8 94.4594C186.847 94.38 186.868 94.2907 186.862 94.2014C186.855 94.1121 186.821 94.026 186.762 93.9527L186.696 93.8897C186.645 93.844 186.584 93.8078 186.517 93.7832C186.449 93.7587 186.377 93.7461 186.304 93.7465H185.466C185.39 93.7473 185.314 93.7617 185.244 93.7887C185.175 93.8158 185.112 93.855 185.06 93.904C184.962 93.992 184.907 94.1102 184.906 94.2333Z" fill="#E3EDF9"/>
<path opacity="0.1" d="M190.793 93.7465C190.781 93.8081 190.776 93.8716 190.776 93.9353C190.777 94.1439 190.836 94.3435 190.941 94.4909C191.046 94.6384 191.187 94.7218 191.335 94.723H192.172C192.32 94.723 192.463 94.64 192.567 94.4923C192.672 94.3446 192.731 94.1442 192.731 93.9353C192.734 93.9047 192.734 93.8738 192.731 93.8432L190.793 93.7465Z" fill="black"/>
<path opacity="0.1" d="M188.865 93.7465C188.836 93.8335 188.82 93.9268 188.82 94.0214C188.821 94.2071 188.88 94.385 188.985 94.5163C189.089 94.6477 189.231 94.7219 189.379 94.723H190.217C190.29 94.723 190.363 94.7048 190.431 94.6696C190.499 94.6343 190.561 94.5827 190.613 94.5175C190.664 94.4523 190.706 94.375 190.734 94.2899C190.762 94.2047 190.776 94.1135 190.776 94.0214C190.776 93.956 190.768 93.8911 190.753 93.8285L188.865 93.7465Z" fill="black"/>
<path opacity="0.1" d="M186.948 93.7465C186.893 93.8475 186.864 93.9641 186.863 94.0832C186.864 94.2526 186.923 94.4147 187.028 94.5345C187.133 94.6543 187.274 94.722 187.423 94.723H188.26C188.409 94.723 188.551 94.6556 188.656 94.5356C188.761 94.4156 188.82 94.2529 188.82 94.0832C188.821 93.9915 188.804 93.9007 188.771 93.8175L186.948 93.7465Z" fill="black"/>
<path opacity="0.1" d="M184.906 94.1412C184.907 94.2952 184.966 94.4427 185.071 94.5516C185.176 94.6605 185.318 94.7221 185.466 94.723H186.304C186.406 94.7229 186.506 94.6937 186.594 94.6384C186.681 94.5832 186.752 94.5041 186.8 94.4098C186.847 94.3154 186.868 94.2094 186.862 94.1032C186.855 93.9971 186.821 93.8949 186.762 93.8077L185.06 93.7465C184.961 93.8519 184.906 93.9937 184.906 94.1412Z" fill="black"/>
<path d="M180.996 95.6995H194.69V95.1115C194.69 94.8505 194.582 94.5996 194.39 94.4118C194.198 94.2241 193.936 94.1142 193.66 94.1054L182.677 93.7473C182.458 93.7403 182.241 93.7748 182.037 93.8487C181.833 93.9226 181.647 94.0345 181.49 94.1776C181.333 94.3207 181.208 94.4922 181.123 94.6818C181.037 94.8714 180.993 95.0753 180.993 95.2814L180.996 95.6995Z" fill="#D6D6E3"/>
<path d="M238.099 103.056C244.479 92.2589 242.167 70.4798 242.424 70.0632C242.654 69.6962 241.775 59.4399 235.911 56.9345C234.852 54.8402 233.809 52.481 233.809 52.481C233.707 52.5771 233.594 52.6614 233.472 52.7321C233.426 52.607 233.381 52.4801 233.336 52.3513C233.262 52.1333 233.193 51.9098 233.123 51.6863C233.288 51.7386 233.455 51.781 233.624 51.8132C234.071 51.9222 234.542 51.8804 234.963 51.6946C235.106 51.6178 235.236 51.5181 235.347 51.3994C235.809 51.0931 236.063 50.5412 236.279 50.0197L237.986 45.9415C238.754 44.101 239.529 42.2495 239.938 40.2987C240.547 37.363 240.311 34.3153 239.258 31.5076C238.854 30.437 238.295 29.3664 237.347 28.7263C235.447 27.4404 232.803 28.3289 230.632 27.5756C229.918 27.3273 229.274 26.9079 228.56 26.654C227.02 26.1022 225.28 26.3974 223.798 27.0845C222.315 27.7716 221.115 28.8642 219.818 29.8438C219.179 30.3322 218.158 30.8371 217.406 31.4994C216.676 32.0678 216.115 32.7548 216.222 33.6599C216.344 34.6946 217.437 35.3155 218.454 35.5583C218.623 35.5969 218.797 35.6273 218.969 35.6576C217.761 36.8785 216.89 38.3908 216.442 40.047C215.994 41.7033 215.983 43.4471 216.411 45.1087C216.84 46.7702 217.692 48.2928 218.885 49.5282C220.078 50.7636 221.571 51.6697 223.22 52.1582C223.739 53.1305 224.188 54.1383 224.564 55.1741C224.613 55.3157 224.662 55.4583 224.71 55.6017C223.034 56.0763 221.723 56.4709 221.461 56.6889C220.667 57.3456 222.329 63.096 222.329 63.096C221.906 63.6313 221.474 64.2411 221.037 64.895C217.724 69.9168 215.625 75.6384 214.909 81.608C214.632 83.7906 214.273 86.0229 213.816 88.1448L193.995 84.1797L193.953 84.6681L193.48 84.5522L191.992 84.1852L191.934 84.5191L191.707 84.4115C188.021 82.6869 181.809 80.485 177.602 82.7559C173.163 85.1399 182.744 88.3076 188.892 89.9935C186.854 90.0929 184.904 90.5813 183.361 91.7236C178.902 95.0568 191.511 96.7924 197.466 97.4077L197.706 97.4326V97.5595L199.769 97.7499L200.253 97.794L200.3 98.528C200.3 98.528 203.254 99.0109 207.201 99.5959C202.695 100.719 197.128 101.497 193.262 101.952C189.163 102.432 185.673 105.28 184.572 109.251C184.216 110.389 184.182 111.604 184.472 112.76C185.623 116.77 184.218 146.264 183.9 152.616L176.612 156.801C176.612 156.801 165.273 158.181 172.826 160.833C173.507 161.065 174.202 161.249 174.909 161.385C173.913 162.025 173.999 162.861 176.933 163.887C184.492 166.531 202.062 163.771 202.062 163.771C202.062 163.771 201.678 160.664 201.053 158.082L201.246 158.098C201.246 158.098 199.432 151.363 202.184 147.966C204.936 144.57 201.722 118.718 201.722 118.718C201.722 118.718 206.54 116.728 220.941 116.599C232.557 119.573 238.218 108.925 238.138 103.42C238.113 103.296 238.107 103.169 238.099 103.056Z" fill="url(#paint0_linear)"/>
<path d="M194.69 86.469L193.473 91.7935C193.473 91.7935 192.38 91.5272 190.74 91.0717C185.185 89.5158 173.47 85.7797 178.166 83.0376C182.214 80.6712 188.176 82.9725 191.716 84.7681C193.011 85.4277 193.984 86.0193 194.419 86.2974C194.602 86.4098 194.69 86.469 194.69 86.469Z" fill="#F8B9BF"/>
<path opacity="0.1" d="M194.603 88.0518L193.675 91.7934C193.675 91.7934 192.516 91.5344 190.776 91.0912L191.823 84.9578C193.197 85.5996 194.229 86.1752 194.69 86.4458L194.603 88.0518Z" fill="black"/>
<path d="M194.398 91.7934L191.755 90.981L192.576 84.9578L194.69 85.6061L194.398 91.7934Z" fill="#D9DFE8"/>
<path opacity="0.1" d="M194.49 91.7934L193.711 91.4258L194.005 84.9578L194.69 85.2809L194.49 91.7934Z" fill="black"/>
<path d="M228.083 66.0576C228.083 66.0576 221.459 62.3219 218.515 73.0383C215.571 83.7546 215.293 88.6912 215.293 88.6912L194.375 84.6085L193.711 92.0663C193.711 92.0663 216.077 99.1148 218.89 98.6024C221.703 98.0901 230.832 83.1501 230.832 83.1501C230.832 83.1501 239.131 71.5716 228.083 66.0576Z" fill="#227AA6"/>
<g opacity="0.1">
<path opacity="0.1" d="M195.104 86.6317L193.876 91.584C193.876 91.584 192.773 91.3364 191.117 90.9127C185.511 89.4655 173.686 85.9907 178.426 83.4403C182.512 81.2393 188.53 83.3798 192.102 85.0498C193.41 85.6633 194.392 86.2136 194.831 86.4722C195.016 86.5767 195.104 86.6317 195.104 86.6317Z" fill="black"/>
<path opacity="0.1" d="M194.758 88.0295L193.875 91.6061C193.875 91.6061 192.771 91.3585 191.116 90.9348L192.112 85.0719C193.42 85.6854 194.402 86.2357 194.841 86.4943L194.758 88.0295Z" fill="black"/>
<path opacity="0.1" d="M194.763 91.9443L191.336 91.0997L192.401 84.8379L195.141 85.5119L194.763 91.9443Z" fill="black"/>
<path opacity="0.1" d="M194.762 91.9443L193.283 91.5811L193.84 85.1927L195.14 85.5119L194.762 91.9443Z" fill="black"/>
<path opacity="0.1" d="M227.825 66.2836C227.825 66.2836 221.245 62.4924 218.32 73.368C215.396 84.2436 215.12 89.2536 215.12 89.2536L194.339 85.1103L193.68 92.6789C193.68 92.6789 215.898 99.8321 218.693 99.3121C221.487 98.7922 230.556 83.6301 230.556 83.6301C230.556 83.6301 238.8 71.8796 227.825 66.2836Z" fill="#0A6EAA"/>
</g>
<path d="M186.169 149.922L177.517 154.965C177.517 154.965 166.307 156.354 173.775 159.003C181.242 161.651 198.603 158.886 198.603 158.886C198.603 158.886 197.638 150.992 196.293 149.89C194.948 148.788 186.169 149.922 186.169 149.922Z" fill="#68739D"/>
<path d="M218.969 95.8246C218.969 95.8246 214.807 98.0123 207.414 99.9019C203.081 100.996 197.658 101.772 193.909 102.215C191.991 102.425 190.177 103.204 188.699 104.451C187.221 105.699 186.145 107.361 185.608 109.224C185.266 110.324 185.233 111.498 185.513 112.615C186.745 116.944 184.906 152.133 184.906 152.133L197.609 153.314C197.609 153.314 195.876 146.831 198.506 143.563C201.136 140.295 198.066 115.421 198.066 115.421C198.066 115.421 202.668 113.507 216.42 113.381C229.161 116.662 234.41 102.642 232.444 98.7123C230.477 94.7827 218.969 95.8246 218.969 95.8246Z" fill="#00AAC8"/>
<g opacity="0.1">
<path opacity="0.1" d="M185.97 150.279L177.486 155.151C177.486 155.151 166.495 156.494 173.817 159.052C181.139 161.611 198.162 158.94 198.162 158.94C198.162 158.94 197.216 151.313 195.897 150.248C194.578 149.184 185.97 150.279 185.97 150.279Z" fill="black"/>
<path opacity="0.1" d="M219.036 95.6116C219.036 95.6116 214.815 97.8126 207.316 99.7137C202.921 100.814 197.42 101.596 193.618 102.041C191.672 102.252 189.832 103.035 188.333 104.291C186.834 105.546 185.742 107.218 185.197 109.093C184.85 110.199 184.817 111.38 185.101 112.504C186.351 116.859 184.486 152.262 184.486 152.262L197.37 153.451C197.37 153.451 195.613 146.928 198.28 143.64C200.948 140.352 197.834 115.327 197.834 115.327C197.834 115.327 202.502 113.401 216.451 113.275C229.374 116.576 234.699 102.47 232.704 98.5169C230.71 94.5634 219.036 95.6116 219.036 95.6116Z" fill="black"/>
</g>
<path d="M190.082 152.851L181.429 157.892C181.429 157.892 170.224 159.269 177.686 161.928C185.149 164.586 202.516 161.811 202.516 161.811C202.516 161.811 201.551 153.921 200.206 152.82C198.861 151.718 190.082 152.851 190.082 152.851Z" fill="#68739D"/>
<path d="M220.339 116.314C206.584 116.44 201.981 118.354 201.981 118.354C201.981 118.354 205.053 143.237 202.422 146.493C199.791 149.75 201.524 156.244 201.524 156.244L188.82 155.063C188.82 155.063 188.841 154.647 188.877 153.904C189.182 147.789 190.523 119.406 189.421 115.548C189.143 114.434 189.176 113.265 189.516 112.168C190.051 110.302 191.126 108.638 192.603 107.388C194.081 106.137 195.896 105.356 197.816 105.144C201.562 104.704 206.987 103.938 211.321 102.83L211.533 102.776C218.797 100.9 222.877 98.7535 222.877 98.7535C222.877 98.7535 234.388 97.7144 236.354 101.644C236.632 102.267 236.769 102.944 236.757 103.626C236.855 108.928 231.441 119.177 220.339 116.314Z" fill="#00AAC8"/>
<path d="M200.56 92.9845L200.094 97.6526C200.094 97.6526 198.976 97.5794 197.313 97.4179C191.632 96.8703 179.583 95.3311 183.843 92.3713C187.506 89.8278 193.69 90.9381 197.422 91.9676C198.782 92.3461 199.828 92.712 200.293 92.8861C200.464 92.9466 200.56 92.9845 200.56 92.9845Z" fill="#F8B9BF"/>
<path d="M234.801 59.4664C234.801 59.4664 233.082 60.796 230.982 62.2558C228.678 62.7714 226.003 63.1974 224.075 63.4742C224.764 61.3034 224.35 58.8613 223.573 56.7204C222.727 54.4832 221.567 52.375 220.126 50.4577L231.748 46.8732C230.836 49.1552 231.248 51.7575 232.022 54.0205C232.706 55.9471 233.64 57.7777 234.801 59.4664Z" fill="#F8B9BF"/>
<path opacity="0.1" d="M200.56 94.1979L200.244 97.6526C200.244 97.6526 199.191 97.5772 197.625 97.4109L197.727 91.7935C199.009 92.1834 199.993 92.5603 200.431 92.7397L200.56 94.1979Z" fill="black"/>
<path d="M201.538 97.6526L197.625 97.3676L197.754 91.7935L200.884 92.0205L201.538 97.6526Z" fill="#D9DFE8"/>
<path opacity="0.1" d="M234.802 59.3402C234.802 59.3402 233.154 60.7117 231.141 62.2175C228.932 62.7493 226.369 63.1887 224.521 63.4742C225.182 61.2351 224.785 58.7161 224.04 56.5078C226.761 55.6681 230.654 54.5822 232.141 53.7089C232.794 55.7009 233.689 57.5939 234.802 59.3402Z" fill="black"/>
<path d="M232.683 53.7089C232.683 53.7089 234.542 58.3331 235.714 60.4222C236.885 62.5113 222.104 64.4507 222.104 64.4507C222.104 64.4507 220.57 58.6295 221.303 57.9619C222.036 57.2943 231.446 55.0614 232.683 53.7089Z" fill="#D9DFE8"/>
<path opacity="0.1" d="M236.758 103.606C236.109 104.743 235.3 105.783 234.356 106.693C227.539 113.123 216.364 106.421 211.321 102.757C218.643 100.89 222.756 98.7529 222.756 98.7529C222.756 98.7529 234.358 97.7185 236.341 101.63C236.625 102.25 236.767 102.925 236.758 103.606Z" fill="black"/>
<path d="M234.955 105.699C227.217 113.063 213.871 103.312 210.274 100.439C209.69 99.9729 209.365 99.6849 209.365 99.6849C210.786 98.3514 212.034 95.5254 213.023 92.0683C213.944 88.7608 214.609 85.387 215.013 81.977C215.702 76.2116 217.719 70.6857 220.906 65.8358C221.324 65.2047 221.727 64.6148 222.146 64.099C225.067 60.3758 229.977 58.0107 229.977 58.0107C240.338 54.9762 241.731 70.3766 241.455 70.8211C241.178 71.2655 243.949 97.136 234.955 105.699Z" fill="#0A6EAA"/>
<path opacity="0.1" d="M236.004 85.2608C236.004 85.2608 229.33 101.465 226.661 102.389C225.134 102.916 216.973 101.917 210.275 100.965C209.691 100.502 209.365 100.215 209.365 100.215C210.788 98.8895 212.039 96.0798 213.029 92.6426L221.656 93.0518C221.656 93.0518 221.176 88.1033 222.443 77.0061C223.71 65.9089 230.735 68.6587 230.735 68.6587C242.356 72.5296 236.004 85.2608 236.004 85.2608Z" fill="black"/>
<path opacity="0.1" d="M201.538 97.6526L199.992 97.5269L199.581 91.7935L200.939 91.902L201.538 97.6526Z" fill="black"/>
<path d="M230.545 67.6816C230.545 67.6816 223.325 64.9344 222.023 76.0297C220.72 87.1251 221.214 92.0767 221.214 92.0767L199.581 91.0755L200.069 98.5942C200.069 98.5942 223.613 102.335 226.356 101.412C229.099 100.49 235.958 84.2824 235.958 84.2824C235.958 84.2824 242.479 71.5501 230.545 67.6816Z" fill="#0A6EAA"/>
<path opacity="0.1" d="M230.762 51.2352C230.451 49.4789 232.212 49.502 232.845 47.8497L221.105 51.6656C221.92 52.8048 222.647 54.0093 223.28 55.2677C223.889 55.456 224.514 55.5818 225.147 55.6432C227.946 55.9205 228.82 53.0521 230.762 51.2352Z" fill="black"/>
<path d="M235.012 45.4834C235.503 40.1939 231.6 35.5096 226.295 35.0208C220.991 34.532 216.294 38.4237 215.803 43.7132C215.313 49.0027 219.216 53.687 224.52 54.1758C229.825 54.6646 234.522 50.7729 235.012 45.4834Z" fill="#F8B9BF"/>
<path opacity="0.1" d="M216.226 36.1381C216.342 37.1372 217.376 37.7465 218.338 37.9715C219.3 38.1966 220.343 38.2076 221.186 38.7318C222.533 39.5772 222.897 41.4545 222.727 43.0684C222.633 43.9797 222.498 45.0967 223.231 45.6265C223.461 45.7701 223.718 45.8635 223.985 45.9009C224.75 46.0586 225.534 46.0864 226.308 45.9833C226.76 45.9229 227.226 45.8186 227.655 45.9476C228.361 46.1562 228.778 46.9137 228.916 47.6466C229.053 48.3794 228.978 49.1424 229.088 49.8807C229.242 50.8052 229.667 51.6604 230.308 52.3336C230.949 53.0069 231.775 53.4665 232.677 53.6519C233.1 53.7567 233.545 53.7162 233.943 53.5367C234.455 53.2622 234.716 52.6776 234.937 52.1314L236.554 48.19C237.281 46.4142 238.014 44.6219 238.402 42.7391C238.978 39.9032 238.755 36.9591 237.758 34.247C237.376 33.215 236.848 32.1803 235.95 31.56C234.153 30.3166 231.64 31.1757 229.597 30.4621C228.921 30.2233 228.312 29.8171 227.639 29.5728C226.181 29.0431 224.535 29.323 223.131 29.99C221.727 30.6569 220.593 31.7082 219.359 32.6661C218.289 33.5142 216.024 34.4117 216.226 36.1381Z" fill="black"/>
<path d="M216.225 36.1381C216.341 37.1372 217.376 37.7465 218.338 37.9715C219.3 38.1966 220.342 38.2076 221.186 38.7318C222.533 39.5772 222.896 41.4545 222.727 43.0684C222.632 43.9797 222.498 45.0967 223.231 45.6265C223.461 45.7701 223.718 45.8635 223.985 45.9009C224.749 46.0586 225.534 46.0864 226.307 45.9833C226.76 45.9229 227.226 45.8186 227.655 45.9476C228.361 46.1562 228.778 46.9137 228.916 47.6466C229.053 48.3794 228.978 49.1424 229.088 49.8807C229.242 50.8052 229.667 51.6604 230.308 52.3336C230.949 53.0069 231.775 53.4665 232.677 53.6519C233.1 53.7568 233.545 53.7162 233.943 53.5367C234.455 53.2622 234.716 52.6776 234.937 52.1314L236.554 48.19C237.281 46.4142 238.014 44.6219 238.402 42.7391C238.978 39.9032 238.755 36.9591 237.758 34.247C237.376 33.215 236.848 32.1803 235.95 31.56C234.153 30.3166 231.64 31.1757 229.597 30.4621C228.921 30.2233 228.312 29.8171 227.638 29.5728C226.181 29.0431 224.535 29.323 223.131 29.99C221.727 30.6569 220.593 31.7082 219.359 32.6661C218.292 33.5142 216.026 34.4117 216.225 36.1381Z" fill="#B96B6B"/>
<path opacity="0.1" d="M224.04 73.2394C224.04 73.2394 220.345 87.7502 216.667 89.0932C212.989 90.4363 214.614 90.8168 214.614 90.8168" fill="black"/>
<path d="M224.04 125.972H220.126V152.338H224.04V125.972Z" fill="#D6D6E3"/>
<path opacity="0.1" d="M224.04 125.972H220.126V127.925H224.04V125.972Z" fill="black"/>
<path d="M212.3 126.203V126.717C212.3 126.876 212.333 127.033 212.396 127.179C212.46 127.326 212.553 127.459 212.67 127.571C212.788 127.683 212.927 127.772 213.081 127.833C213.234 127.894 213.398 127.925 213.565 127.925H230.602C230.768 127.925 230.932 127.894 231.086 127.833C231.239 127.772 231.379 127.683 231.496 127.571C231.614 127.459 231.707 127.326 231.77 127.179C231.834 127.033 231.867 126.876 231.867 126.717V126.203C231.867 126.044 231.834 125.887 231.77 125.741C231.707 125.594 231.614 125.461 231.496 125.349C231.379 125.237 231.239 125.148 231.086 125.087C230.932 125.026 230.768 124.995 230.602 124.995H213.565C213.398 124.995 213.234 125.026 213.081 125.087C212.927 125.148 212.788 125.237 212.67 125.349C212.553 125.461 212.46 125.594 212.396 125.741C212.333 125.887 212.3 126.044 212.3 126.203Z" fill="#D6D6E3"/>
<path d="M237.18 150.385H206.986C206.138 150.385 205.451 151.229 205.451 152.27V152.407C205.451 153.447 206.138 154.291 206.986 154.291H237.18C238.028 154.291 238.715 153.447 238.715 152.407V152.27C238.715 151.229 238.028 150.385 237.18 150.385Z" fill="#D6D6E3"/>
<path d="M236.758 158.197C237.839 158.197 238.715 157.323 238.715 156.244C238.715 155.165 237.839 154.291 236.758 154.291C235.678 154.291 234.802 155.165 234.802 156.244C234.802 157.323 235.678 158.197 236.758 158.197Z" fill="#535461"/>
<path d="M207.408 158.197C208.489 158.197 209.365 157.323 209.365 156.244C209.365 155.165 208.489 154.291 207.408 154.291C206.327 154.291 205.451 155.165 205.451 156.244C205.451 157.323 206.327 158.197 207.408 158.197Z" fill="#535461"/>
<path d="M222.083 158.197C223.164 158.197 224.04 157.323 224.04 156.244C224.04 155.165 223.164 154.291 222.083 154.291C221.002 154.291 220.126 155.165 220.126 156.244C220.126 157.323 221.002 158.197 222.083 158.197Z" fill="#535461"/>
<path d="M247.143 93.7465H220.503C219.214 93.7465 218.17 94.801 218.17 96.1019V96.2737C218.17 97.5745 219.214 98.6291 220.503 98.6291H247.143C248.432 98.6291 249.477 97.5745 249.477 96.2737V96.1019C249.477 94.801 248.432 93.7465 247.143 93.7465Z" fill="#D6D6E3"/>
<path opacity="0.1" d="M224.04 150.385C224.04 150.385 222.502 152.582 220.126 150.385H224.04Z" fill="black"/>
<path opacity="0.1" d="M249.477 96.676V96.9902C249.477 97.4249 249.267 97.8417 248.894 98.1491C248.52 98.4564 248.014 98.6291 247.486 98.6291H220.16C219.632 98.6291 219.126 98.4564 218.753 98.1491C218.379 97.8417 218.17 97.4249 218.17 96.9902V96.676H249.477Z" fill="black"/>
<path d="M197.625 100.582H191.755V168.939H197.625V100.582Z" fill="#D6D6E3"/>
<path opacity="0.1" d="M197.625 100.582H191.755V105.465H197.625V100.582Z" fill="black"/>
<path d="M33.2636 127.925H29.3502V154.291H33.2636V127.925Z" fill="#D6D6E3"/>
<path opacity="0.1" d="M33.2636 127.925H29.3502V129.878H33.2636V127.925Z" fill="black"/>
<path d="M41.0902 127.574V128.262C41.0902 128.691 40.957 129.102 40.7198 129.405C40.4826 129.708 40.1609 129.878 39.8255 129.878H22.7882C22.4527 129.878 22.131 129.708 21.8939 129.405C21.6567 129.102 21.5234 128.691 21.5234 128.262V127.574C21.5263 127.147 21.6608 126.74 21.8977 126.44C22.1345 126.14 22.4546 125.972 22.7882 125.972H39.8255C39.9916 125.972 40.156 126.014 40.3095 126.095C40.4629 126.176 40.6023 126.295 40.7198 126.445C40.8372 126.595 40.9304 126.773 40.9939 126.969C41.0575 127.165 41.0902 127.375 41.0902 127.587V127.574Z" fill="#D6D6E3"/>
<path opacity="0.1" d="M41.0902 126.948H21.5234C21.6467 126.639 21.8008 126.391 21.9747 126.222C22.1486 126.053 22.338 125.968 22.5293 125.972H40.0844C40.2757 125.968 40.465 126.053 40.6389 126.222C40.8128 126.391 40.9669 126.639 41.0902 126.948Z" fill="black"/>
<path d="M46.404 152.338H16.2099C15.3623 152.338 14.6752 153.182 14.6752 154.223V154.36C14.6752 155.4 15.3623 156.244 16.2099 156.244H46.404C47.2516 156.244 47.9387 155.4 47.9387 154.36V154.223C47.9387 153.182 47.2516 152.338 46.404 152.338Z" fill="#D6D6E3"/>
<path d="M16.6318 160.15C17.7125 160.15 18.5885 159.276 18.5885 158.197C18.5885 157.119 17.7125 156.244 16.6318 156.244C15.5512 156.244 14.6752 157.119 14.6752 158.197C14.6752 159.276 15.5512 160.15 16.6318 160.15Z" fill="#535461"/>
<path d="M45.9821 160.15C47.0627 160.15 47.9387 159.276 47.9387 158.197C47.9387 157.119 47.0627 156.244 45.9821 156.244C44.9014 156.244 44.0254 157.119 44.0254 158.197C44.0254 159.276 44.9014 160.15 45.9821 160.15Z" fill="#535461"/>
<path d="M31.3069 160.15C32.3875 160.15 33.2636 159.276 33.2636 158.197C33.2636 157.119 32.3875 156.244 31.3069 156.244C30.2263 156.244 29.3502 157.119 29.3502 158.197C29.3502 159.276 30.2263 160.15 31.3069 160.15Z" fill="#535461"/>
<path opacity="0.1" d="M29.3502 152.338C29.3502 152.338 30.8875 154.535 33.2636 152.338H29.3502Z" fill="black"/>
<path d="M72.0397 158.256L65.0001 153.8C64.9641 147.524 64.8644 118.387 66.1803 114.489C66.5197 113.36 66.5389 112.161 66.2357 111.022C65.3215 107.061 61.986 104.103 57.944 103.452C54.132 102.836 48.6466 101.827 44.2307 100.524C48.1674 100.12 51.1178 99.7707 51.1178 99.7707L51.1954 99.0477L53.7303 98.9267V98.8195L53.9713 98.8058C59.8916 98.4566 72.4635 97.2938 68.1916 93.8135C66.7261 92.6204 64.8145 92.0569 62.7977 91.8672C68.9645 90.4707 78.6027 87.7657 74.3058 85.2228C70.2223 82.8092 63.9696 84.706 60.2379 86.2482L60.0079 86.3444L59.9664 86.0118L58.4759 86.3087L58.0022 86.4021L57.98 85.9183L37.0665 89.1237C36.9026 86.7459 36.6178 84.3778 36.2132 82.0284C36.6814 78.933 38.8589 74.4191 38.0915 71.9972C37.1995 69.185 33.5371 68.2641 31.9967 65.724C31.5923 65.0615 31.1906 64.4402 30.7972 63.8959C29.9362 62.7348 28.9465 61.6735 27.8467 60.7317C27.9133 59.0984 28.2814 57.4911 28.9327 55.9897C29.3502 54.9853 29.839 54.0115 30.3955 53.0757C32.8331 52.4757 34.9482 50.9754 36.3094 48.881C37.6705 46.7865 38.1752 44.2557 37.7203 41.8047C39.0445 42.3682 40.6541 42.426 41.4825 41.3264L41.0891 41.1752C41.1279 41.1339 41.1666 41.0927 41.1999 41.046C40.3937 40.7408 39.5377 40.3944 38.906 39.8391C38.7461 39.6609 38.611 39.4621 38.5043 39.2481C38.122 38.4784 38.1663 37.5547 37.8007 36.774C37.6286 36.4185 37.3843 36.1022 37.0831 35.8448C36.4416 35.1939 35.63 34.7332 34.7394 34.5143C33.7393 34.2256 32.6865 34.0799 31.728 33.6896C30.4216 32.1843 28.6971 31.0947 26.7699 30.5568C24.8428 30.019 22.7987 30.0568 20.8931 30.6656L20.5468 30.7839C20.7873 29.6332 20.5629 28.4349 19.9221 27.4468C19.2812 26.4587 18.275 25.7597 17.12 25.5003C15.965 25.2409 14.7535 25.4418 13.7463 26.0597C12.739 26.6777 12.0165 27.6633 11.7342 28.8046C11.8221 27.8027 12.2476 26.8594 12.9421 26.127C12.8701 26.1875 12.7953 26.2452 12.726 26.3084C12.2934 26.712 11.9452 27.1962 11.7012 27.7334C11.4572 28.2705 11.3222 28.8501 11.3039 29.439C11.2857 30.0279 11.3845 30.6146 11.5947 31.1657C11.805 31.7167 12.1226 32.2212 12.5293 32.6504L12.6097 32.7274C12.9295 33.1158 13.3125 33.4484 13.7428 33.7116C12.9509 33.4341 12.2526 32.9432 11.7261 32.2941C11.1996 31.6449 10.8657 30.863 10.7618 30.0361C10.7618 30.1296 10.7618 30.2231 10.7618 30.311C10.7964 30.9018 10.9484 31.4799 11.2091 32.0121C11.4697 32.5444 11.834 33.0202 12.2807 33.4121C12.7275 33.8041 13.248 34.1045 13.8122 34.296C14.3765 34.4875 14.9733 34.5664 15.5684 34.528L15.6931 34.5143L15.6266 34.605C14.3383 36.4853 13.7276 38.7422 13.8935 41.01C14.0594 43.2777 14.9923 45.4234 16.5408 47.0993C16.7247 47.5173 16.9693 47.9063 17.2667 48.2539C17.3712 48.3726 17.4831 48.4846 17.6019 48.5893C18.3606 49.3837 19.3982 49.8581 20.4997 49.9143C20.6844 50.1324 20.8811 50.3423 21.0898 50.5439C20.9071 51.3151 20.6682 52.0722 20.375 52.809C19.7846 54.2765 19.0497 55.6826 18.1809 57.0068C12.1969 58.6947 11.6705 68.7781 11.8866 69.1603C12.1443 69.6166 10.9946 85.451 15.4271 104.579C15.2443 110.047 18.4579 119.088 29.8663 116.705C44.1337 117.461 48.8129 119.63 48.8129 119.63C48.8129 119.63 47.4582 144.253 49.3919 147.837C50.6025 150.083 49.7437 153.382 48.8378 155.711C48.502 156.287 48.2343 156.899 48.0399 157.536C47.7629 158.116 47.5607 158.468 47.5607 158.468H47.7546C47.0232 160.989 46.5052 164.032 46.5052 164.032C46.5052 164.032 63.8006 167.515 71.408 165.236C74.3612 164.351 74.4831 163.532 73.5246 162.855C74.2306 162.752 74.9286 162.601 75.6134 162.402C83.2264 160.123 72.0397 158.256 72.0397 158.256Z" fill="url(#paint1_linear)"/>
<path d="M35.2203 41.014C35.2203 42.9454 34.6178 44.8334 33.4891 46.4393C32.3603 48.0452 30.7559 49.2968 28.8789 50.036C27.0018 50.7751 24.9363 50.9684 22.9437 50.5917C20.951 50.2149 19.1206 49.2848 17.6839 47.9191C16.2473 46.5534 15.2689 44.8134 14.8726 42.9191C14.4762 41.0249 14.6796 39.0614 15.4571 37.277C16.2346 35.4927 17.5513 33.9675 19.2406 32.8945C20.9299 31.8215 22.916 31.2488 24.9477 31.2488C26.2967 31.2488 27.6326 31.5014 28.8789 31.9921C30.1252 32.4829 31.2576 33.2022 32.2115 34.109C33.1654 35.0157 33.9221 36.0923 34.4383 37.277C34.9546 38.4618 35.2203 39.7316 35.2203 41.014Z" fill="#FD868A"/>
<path d="M56.7438 87.6397L57.7938 92.7699C57.7938 92.7699 58.9618 92.5644 60.6908 92.2068C66.597 90.982 79.0767 87.9579 74.2436 85.1366C70.0866 82.7122 63.7201 84.6185 59.9227 86.1671C58.5303 86.7303 57.4831 87.254 57.0142 87.4989C56.8387 87.5862 56.7438 87.6397 56.7438 87.6397Z" fill="#F8B9BF"/>
<path opacity="0.1" d="M57.7427 88.9571L58.3444 92.7699C58.3444 92.7699 59.2768 92.5571 60.6571 92.1869L60.0439 85.9342C58.9323 86.5172 58.0964 87.0594 57.722 87.313L57.7427 88.9571Z" fill="black"/>
<path d="M56.8471 92.7699L60.6571 92.0949L59.7942 85.9342L56.7438 86.4747L56.8471 92.7699Z" fill="#D9DFE8"/>
<path opacity="0.1" d="M56.8595 92.7699L58.7005 92.464L58.3636 85.9342L56.7438 86.2008L56.8595 92.7699Z" fill="black"/>
<path d="M25.6733 65.9445C25.6733 65.9445 32.4265 62.5245 34.8804 73.2713C37.3343 84.0182 37.3703 88.9171 37.3703 88.9171L58.374 85.7632L58.7005 93.1814C58.7005 93.1814 36.1254 99.2122 33.3505 98.5831C30.5756 97.9539 22.1515 82.7599 22.1515 82.7599C22.1515 82.7599 14.4328 70.9429 25.6733 65.9445Z" fill="#227AA6"/>
<g opacity="0.1">
<path opacity="0.1" d="M57.1113 87.669L58.1184 92.6817C58.1184 92.6817 59.2385 92.4809 60.8966 92.1315C66.5608 90.9347 78.5293 87.9799 73.8942 85.2231C69.9075 82.8543 63.8019 84.7169 60.16 86.2301C58.8247 86.7803 57.8204 87.2921 57.3707 87.5314C57.2024 87.6167 57.1113 87.669 57.1113 87.669Z" fill="black"/>
<path opacity="0.1" d="M57.3932 89.0831L58.1161 92.6818C58.1161 92.6818 59.2362 92.4809 60.8944 92.1315L60.1577 86.2301C58.8224 86.7803 57.8181 87.2921 57.3684 87.5314L57.3932 89.0831Z" fill="black"/>
<path opacity="0.1" d="M57.2204 92.9925L60.6801 92.302L59.8966 85.9989L57.1266 86.5519L57.2204 92.9925Z" fill="black"/>
<path opacity="0.1" d="M57.2204 92.9926L58.713 92.6928L58.4399 86.2906L57.1266 86.552L57.2204 92.9926Z" fill="black"/>
<path opacity="0.1" d="M25.884 66.1735C25.884 66.1735 32.6187 62.674 35.0659 73.6707C37.5131 84.6673 37.5489 89.6801 37.5489 89.6801L58.4951 86.4529L58.8207 94.0436C58.8207 94.0436 36.3074 100.215 33.5402 99.5708C30.7729 98.927 22.3718 83.3798 22.3718 83.3798C22.3718 83.3798 14.6742 71.2881 25.884 66.1735Z" fill="black"/>
</g>
<path d="M63.2071 151.275L71.3174 156.909C71.3174 156.909 82.0417 158.875 74.7468 161.285C67.4519 163.696 50.8738 160.01 50.8738 160.01C50.8738 160.01 52.1334 151.844 53.4743 150.762C54.8151 149.679 63.2071 151.275 63.2071 151.275Z" fill="#0A6EAA"/>
<path d="M32.9523 96.0073C32.9523 96.0073 37.0913 98.3742 44.5349 100.585C48.8984 101.882 54.3875 102.884 58.18 103.493C60.1256 103.788 61.9379 104.647 63.3867 105.96C64.8355 107.272 65.8554 108.979 66.3166 110.864C66.6144 111.972 66.5961 113.139 66.264 114.238C64.8168 118.502 65.1107 153.677 65.1107 153.677L52.1254 154.291C52.1254 154.291 54.1796 147.9 51.6485 144.526C49.1175 141.152 53.3563 116.482 53.3563 116.482C53.3563 116.482 48.7571 114.369 34.7571 113.634C21.6359 116.364 16.9203 102.128 19.0993 98.295C21.2783 94.4622 32.9523 96.0073 32.9523 96.0073Z" fill="#003269"/>
<g opacity="0.1">
<path opacity="0.1" d="M63.4292 151.657L71.6896 156.885C71.6896 156.885 82.6124 158.709 75.1824 160.945C67.7525 163.182 50.8676 159.762 50.8676 159.762C50.8676 159.762 52.1505 152.186 53.5162 151.181C54.8819 150.177 63.4292 151.657 63.4292 151.657Z" fill="black"/>
<path opacity="0.1" d="M32.805 95.5843C32.805 95.5843 36.9241 97.9696 44.332 100.198C48.6746 101.505 54.1374 102.515 57.9117 103.128C59.8479 103.426 61.6516 104.292 63.0934 105.614C64.5353 106.937 65.5502 108.657 66.0093 110.557C66.3056 111.673 66.2875 112.85 65.9569 113.957C64.5167 118.254 64.8091 153.704 64.8091 153.704L51.8861 154.323C51.8861 154.323 53.9305 147.883 51.4115 144.482C48.8926 141.082 53.1111 116.219 53.1111 116.219C53.1111 116.219 48.5339 114.089 34.6011 113.349C21.5428 116.1 16.8498 101.753 19.0184 97.8899C21.1869 94.0271 32.805 95.5843 32.805 95.5843Z" fill="#003269"/>
</g>
<path d="M59.2937 154.13L67.4039 159.295C67.4039 159.295 78.1282 161.097 70.8333 163.307C63.5384 165.516 46.9603 162.138 46.9603 162.138C46.9603 162.138 48.2199 154.652 49.5608 153.66C50.9017 152.668 59.2937 154.13 59.2937 154.13Z" fill="#0A6EAA"/>
<path d="M30.5134 116.37C44.2314 117.108 48.7379 119.231 48.7379 119.231C48.7379 119.231 47.4368 143.32 49.2812 146.825C51.2506 150.544 47.521 157.221 47.521 157.221L60.2447 156.604C60.2447 156.604 60.2447 156.187 60.2447 155.441C60.2067 149.302 60.1143 120.797 61.3774 116.976C61.7029 115.873 61.7208 114.7 61.4291 113.586C60.9767 111.693 59.9773 109.978 58.5578 108.659C57.1382 107.341 55.3626 106.478 53.4563 106.18C49.7376 105.571 44.3618 104.565 40.0861 103.262L39.8769 103.196C32.7137 101.002 28.7396 98.662 28.7396 98.662C28.7396 98.662 20.2671 98.0695 18.1455 101.921C17.8739 102.42 16.7031 103.402 16.6542 104.194C16.3364 109.499 19.3272 118.748 30.5134 116.37Z" fill="#003269"/>
<path d="M50.8738 93.6506L51.1166 98.6291C51.1166 98.6291 52.2405 98.5996 53.9155 98.5004C59.6307 98.1651 71.7703 97.0546 67.6456 93.7257C64.0992 90.8636 57.852 91.7756 54.0683 92.7064C52.6797 93.0498 51.6131 93.3931 51.1493 93.5567C50.9693 93.6158 50.8738 93.6506 50.8738 93.6506Z" fill="#F8B9BF"/>
<path d="M18.5886 58.8268C18.5886 58.8268 20.1936 60.2839 22.1838 61.8959C24.4041 62.5328 26.9988 63.0993 28.8526 63.4741C28.2775 61.1772 28.7884 58.6831 29.6364 56.4877C30.5566 54.204 31.7777 52.0684 33.2637 50.1438L22.1089 45.8967C22.8981 48.3063 22.3764 50.9977 21.5285 53.3002C20.7799 55.2688 19.7917 57.1266 18.5886 58.8268Z" fill="#F8B9BF"/>
<path opacity="0.1" d="M50.8738 95.0934L51.0377 98.629C51.0377 98.629 52.0929 98.5999 53.6654 98.5017L53.8088 92.7699C52.5052 93.1094 51.5038 93.4489 51.0684 93.6107L50.8738 95.0934Z" fill="black"/>
<path d="M49.8955 98.629L53.6333 98.4782L53.8089 92.7699L50.8175 92.8911L49.8955 98.629Z" fill="#D9DFE8"/>
<path d="M16.5564 105.389C24.1396 113.061 38.2809 103.943 42.0837 101.243C42.7016 100.803 43.047 100.532 43.047 100.532C41.6427 99.141 39.3959 97.8537 38.5336 94.369C37.711 90.8124 37.1535 87.2025 36.8653 83.5677C36.6322 80.6843 39.6936 75.1935 38.8089 72.4549C37.9242 69.7164 34.2814 68.8172 32.7508 66.3383C32.3491 65.6932 31.9503 65.0865 31.5571 64.5563C28.7317 60.7299 23.8082 58.1526 23.8082 58.1526C13.3182 54.6679 12.4952 69.2463 12.7564 69.7C13.0176 70.1537 11.8184 86.2243 16.5564 105.389Z" fill="#227AA6"/>
<path opacity="0.1" d="M17.0732 84.3565C17.0732 84.3565 23.0286 101.23 25.6562 102.294C27.1608 102.903 35.3676 102.246 42.1054 101.573C42.7095 101.124 43.0472 100.847 43.0472 100.847C41.6744 99.4258 40.5569 96.4963 39.7167 92.9384L31.0706 92.9692C31.0706 92.9692 31.7708 87.9423 30.9965 76.5231C30.2222 65.1038 23.0752 67.6144 23.0752 67.6144C11.2881 71.0522 17.0732 84.3565 17.0732 84.3565Z" fill="black"/>
<path opacity="0.1" d="M49.8955 98.629L51.917 98.564L52.8305 92.7699L51.0512 92.8274L49.8955 98.629Z" fill="black"/>
<path d="M23.0102 66.6347C23.0102 66.6347 30.0866 64.1405 30.8623 75.5446C31.638 86.9488 30.944 91.9931 30.944 91.9931L51.8522 91.9149L51.0493 99.5847C51.0493 99.5847 28.1869 102.378 25.574 101.319C22.9612 100.261 17.0632 83.382 17.0632 83.382C17.0632 83.382 11.3231 70.073 23.0102 66.6347Z" fill="#227AA6"/>
<path opacity="0.1" d="M23.3291 50.2061C23.6876 48.5397 22.0393 48.4869 21.5234 46.8732L32.2852 51.0393C31.4835 52.0974 30.7607 53.2221 30.1235 54.4027C29.5504 54.5565 28.9646 54.6495 28.3746 54.6804C25.759 54.8193 25.06 52.0336 23.3291 50.2061Z" fill="black"/>
<path d="M29.1465 53.96C34.4673 53.7052 38.5736 49.1973 38.318 43.8913C38.0624 38.5854 33.5418 34.4907 28.2209 34.7456C22.9001 35.0004 18.7939 39.5083 19.0494 44.8143C19.305 50.1202 23.8256 54.2149 29.1465 53.96Z" fill="#F8B9BF"/>
<path opacity="0.1" d="M23.4802 74.2159C23.4802 74.2159 26.4676 88.5532 29.9952 90.0173C33.5228 91.4814 31.9237 91.7934 31.9237 91.7934" fill="black"/>
<path opacity="0.1" d="M36.1985 81.9621C36.1985 81.9621 33.4866 82.72 30.3285 79.0985L36.1985 81.9621Z" fill="black"/>
<path d="M17.121 35.1549C19.5525 35.1549 21.5236 33.1875 21.5236 30.7605C21.5236 28.3336 19.5525 26.3661 17.121 26.3661C14.6896 26.3661 12.7185 28.3336 12.7185 30.7605C12.7185 33.1875 14.6896 35.1549 17.121 35.1549Z" fill="#FD868A"/>
<path d="M14.1555 33.3828C13.4667 32.5645 13.0834 31.4846 13.0834 30.3628C13.0834 29.2409 13.4667 28.161 14.1555 27.3427C14.0911 27.4007 14.0267 27.4586 13.9673 27.5221C13.2014 28.3241 12.7529 29.4323 12.7204 30.6028C12.6879 31.7733 13.0741 32.9103 13.7939 33.7636C14.5138 34.6169 15.5085 35.1166 16.5591 35.1528C17.6097 35.189 18.6301 34.7588 19.396 33.9567C19.4579 33.8933 19.5124 33.8243 19.5669 33.758C18.791 34.4734 17.7997 34.8327 16.7946 34.763C15.7894 34.6933 14.8458 34.1998 14.1555 33.3828Z" fill="#FA595F"/>
<path d="M16.3781 34.6121C15.2597 34.6784 14.1577 34.3227 13.2961 33.6173C12.4346 32.9119 11.8783 31.9098 11.7402 30.8148C11.7402 30.9043 11.7402 30.9938 11.7402 31.086C11.8133 32.2348 12.3467 33.308 13.2232 34.0695C13.6572 34.4465 14.1623 34.7357 14.7098 34.9205C15.2572 35.1053 15.8363 35.182 16.4139 35.1464C16.9914 35.1108 17.5562 34.9635 18.076 34.7129C18.5958 34.4623 19.0604 34.1133 19.4432 33.6859C19.826 33.2585 20.1197 32.761 20.3073 32.2218C20.4949 31.6826 20.5728 31.1124 20.5367 30.5435C20.5367 30.4513 20.5174 30.3645 20.5064 30.2723C20.5086 31.3773 20.0827 32.4416 19.3156 33.248C18.5485 34.0545 17.4979 34.5423 16.3781 34.6121Z" fill="#FD868A"/>
<path opacity="0.1" d="M32.2939 34.6963C33.3395 35.2108 34.5365 35.3534 35.6578 35.6777C36.779 36.0021 37.9227 36.5949 38.4161 37.6519C38.7777 38.4292 38.7357 39.3492 39.1141 40.1182C39.6579 41.2367 40.9137 41.7512 42.0687 42.1902C41.0763 43.5184 38.9459 43.1577 37.5555 42.2545C36.1651 41.3513 34.9682 40.0175 33.3507 39.668C32.5527 39.511 31.7256 39.6038 30.9825 39.9336C30.2393 40.2635 29.6165 40.8143 29.1992 41.5107C28.7563 42.2853 28.5993 43.1884 28.3807 44.0497C27.82 46.3202 26.6987 48.5796 24.7365 49.8687C22.7743 51.1578 19.8505 51.1494 18.3116 49.3849C17.4146 48.3559 17.1146 46.955 16.8483 45.6184C16.6967 44.9952 16.6242 44.3554 16.6325 43.7141C16.7222 42.1091 17.793 40.7417 18.875 39.5505C20.1505 38.1524 21.5072 36.8102 22.864 35.4764C24.0357 34.3244 25.3868 32.3726 27.1529 32.2356C29.188 32.0734 30.626 33.8826 32.2939 34.6963Z" fill="black"/>
<path d="M32.2939 34.6963C33.3395 35.2108 34.5365 35.3534 35.6578 35.6777C36.779 36.0021 37.9227 36.5949 38.4161 37.6519C38.7777 38.4292 38.7357 39.3492 39.1141 40.1182C39.6579 41.2367 40.9137 41.7512 42.0687 42.1902C41.0763 43.5184 38.9459 43.1577 37.5555 42.2545C36.1651 41.3513 34.9682 40.0175 33.3507 39.668C32.5527 39.511 31.7256 39.6038 30.9825 39.9336C30.2393 40.2635 29.6165 40.8143 29.1992 41.5107C28.7563 42.2853 28.5993 43.1884 28.3807 44.0497C27.82 46.3202 26.6987 48.5796 24.7365 49.8687C22.7743 51.1578 19.8505 51.1494 18.3116 49.3849C17.4146 48.3559 17.1146 46.955 16.8483 45.6184C16.6967 44.9952 16.6242 44.3554 16.6325 43.7141C16.7222 42.1091 17.793 40.7417 18.875 39.5505C20.1505 38.1524 21.5072 36.8102 22.864 35.4764C24.0357 34.3244 25.3868 32.3726 27.1529 32.2356C29.188 32.0734 30.626 33.8826 32.2939 34.6963Z" fill="#FD868A"/>
<path d="M32.8866 95.6995H6.24712C4.95827 95.6995 3.91345 96.754 3.91345 98.0549V98.2267C3.91345 99.5275 4.95827 100.582 6.24712 100.582H32.8866C34.1755 100.582 35.2203 99.5275 35.2203 98.2267V98.0549C35.2203 96.754 34.1755 95.6995 32.8866 95.6995Z" fill="#D6D6E3"/>
<path opacity="0.1" d="M3.91345 97.6526V98.1239C3.91345 98.7759 4.12316 99.4011 4.49645 99.8621C4.86974 100.323 5.37603 100.582 5.90393 100.582H33.2298C33.7577 100.582 34.264 100.323 34.6373 99.8621C35.0106 99.4011 35.2203 98.7759 35.2203 98.1239V97.6526H3.91345Z" fill="black"/>
<path d="M64.5704 100.582H59.6787V168.939H64.5704V100.582Z" fill="#D6D6E3"/>
<path opacity="0.1" d="M64.5704 100.582H59.6787V105.465H64.5704V100.582Z" fill="black"/>
<path d="M199.581 95.6995H56.7438V104.488H199.581V95.6995Z" fill="#D6D6E3"/>
</g>
<defs>
<linearGradient id="paint0_linear" x1="203.341" y1="166.996" x2="216.097" y2="24.9395" gradientUnits="userSpaceOnUse">
<stop stop-color="#808080" stop-opacity="0.25"/>
<stop offset="0.54" stop-color="#808080" stop-opacity="0.12"/>
<stop offset="1" stop-color="#808080" stop-opacity="0.1"/>
</linearGradient>
<linearGradient id="paint1_linear" x1="22253.8" y1="99637.6" x2="22253.8" y2="27727.5" gradientUnits="userSpaceOnUse">
<stop stop-color="#808080" stop-opacity="0.25"/>
<stop offset="0.54" stop-color="#808080" stop-opacity="0.12"/>
<stop offset="1" stop-color="#808080" stop-opacity="0.1"/>
</linearGradient>
<clipPath id="clip0">
<rect width="271" height="208" fill="white"/>
</clipPath>
</defs>
</svg>
