<svg width="575" height="440" viewBox="0 0 575 440" fill="none" xmlns="http://www.w3.org/2000/svg">
<path d="M-1.68726e-05 386C51.1868 386 100.277 365.666 136.472 329.472C172.666 293.277 193 244.187 193 193C193 141.813 172.666 92.7229 136.472 56.5284C100.277 20.3339 51.1868 1.53014e-06 2.91422e-05 -8.4363e-06L-8.4363e-06 193L-1.68726e-05 386Z" fill="#D2D1D1" fill-opacity="0.28"/>
<path d="M110.833 125.248C110.623 125.039 110.518 124.934 110.308 124.724C108.942 123.466 107.155 122.733 105.158 122.733C104.528 122.733 104.002 122.837 103.372 122.942C102.006 123.257 100.85 123.886 99.9037 124.829C99.7986 124.934 99.6935 125.039 99.6935 125.039L95.4899 129.232L94.4389 130.28C92.7575 131.957 90.0251 131.957 88.2385 130.28C86.557 128.603 86.557 125.877 88.2385 124.095L99.063 113.508C96.3306 110.677 92.4422 109 88.2385 109C79.8312 109 73.0002 115.814 73.0002 124.2C73.0002 128.393 74.6817 132.167 77.5191 134.997C79.2006 133.32 81.933 133.32 83.7196 134.997C84.5603 135.836 84.9807 136.989 84.9807 138.037C84.9807 138.457 85.0858 138.876 85.401 139.086C85.7163 139.505 86.2418 139.82 86.8723 139.82C88.0283 139.82 89.0793 140.239 89.92 141.078C90.7607 141.916 91.1811 143.069 91.1811 144.118C91.1811 145.061 92.0218 145.9 92.9677 145.9C94.1237 145.9 95.1746 146.319 96.0153 147.158C96.8561 147.996 97.2764 149.149 97.2764 150.198C97.2764 151.141 98.1172 151.98 99.063 151.98C100.219 151.98 101.27 152.399 102.111 153.238C102.951 154.076 103.372 155.229 103.372 156.278C103.372 155.229 104.213 154.496 105.158 154.496C106.314 154.496 107.365 154.076 108.206 153.238C109.047 152.399 109.467 151.246 109.467 150.198C109.467 149.149 110.308 148.416 111.254 148.416C112.41 148.416 113.461 147.996 114.301 147.158C115.142 146.319 115.562 145.166 115.562 144.118C115.562 143.069 116.403 142.335 117.349 142.335C118.505 142.335 119.556 141.916 120.397 141.078C122.078 139.4 122.078 136.675 120.397 134.893L110.833 125.248Z" fill="white"/>
<path d="M88.2378 130.385C89.9193 132.062 92.6517 132.062 94.4382 130.385L95.4891 129.337L99.6928 125.143C99.7979 125.039 99.903 124.934 99.903 124.934C100.849 123.99 102.11 123.361 103.371 123.047C103.896 122.942 104.527 122.837 105.158 122.837C107.154 122.837 108.941 123.571 110.307 124.829C110.517 125.039 110.622 125.143 110.833 125.353L120.606 135.102C123.339 132.377 125.125 128.498 125.125 124.305C125.125 115.918 118.294 109.105 109.887 109.105C105.683 109.105 101.9 110.782 99.0623 113.612L88.2378 124.2C86.5563 125.877 86.5563 128.708 88.2378 130.385Z" fill="#1D3767"/>
<path d="M99.0636 152.189C98.1177 152.189 97.277 151.351 97.277 150.407C97.277 149.254 96.8566 148.206 96.0159 147.367C95.1752 146.529 94.0192 146.109 92.9682 146.109C92.0224 146.109 91.1817 145.271 91.1817 144.327C91.1817 143.174 90.7613 142.126 89.9206 141.287C89.0798 140.449 87.9238 140.029 86.8729 140.029C86.2423 140.029 85.7169 139.715 85.4016 139.296C85.1914 138.981 84.9812 138.667 84.9812 138.247C84.9812 137.094 84.5609 136.046 83.7201 135.207C82.0387 133.53 79.3063 133.53 77.5197 135.207C75.8382 136.885 75.8382 139.61 77.5197 141.392C78.3604 142.231 79.5165 142.65 80.5674 142.65C81.5132 142.65 82.3539 143.489 82.3539 144.432C82.3539 145.585 82.7743 146.634 83.615 147.472C84.4558 148.311 85.6118 148.73 86.6627 148.73C87.6085 148.73 88.4493 149.569 88.4493 150.512C88.4493 151.665 88.8696 152.714 89.7104 153.552C90.5511 154.391 91.7071 154.81 92.7581 154.81C93.7039 154.81 94.5446 155.649 94.5446 156.592C94.5446 157.745 94.965 158.794 95.8057 159.632C97.4872 161.31 100.22 161.31 102.006 159.632C102.847 158.794 103.267 157.641 103.267 156.592C103.267 155.439 102.847 154.391 102.006 153.552C101.271 152.609 100.22 152.189 99.0636 152.189Z" fill="#1D3767"/>
<path d="M163.697 137.409H148.669V149.778H143.94V120.95H164.643V125.353H148.669V133.006H163.697V137.409Z" fill="white"/>
<path d="M185.346 141.392C185.346 147.682 180.827 150.302 176.203 150.302C171.579 150.302 167.06 147.682 167.06 141.392V130.07H171.369V141.077C171.369 144.851 173.471 146.319 176.203 146.319C178.936 146.319 181.038 144.956 181.038 141.077V130.07H185.346V141.392V141.392Z" fill="white"/>
<path d="M203.944 133.949H196.378V142.545C196.378 145.166 197.744 146.214 199.531 146.214C200.897 146.214 202.368 145.585 203.524 144.851L205.206 148.311C203.629 149.359 201.632 150.302 199.11 150.302C194.591 150.302 191.964 147.891 191.964 142.65V133.949H187.97V130.07H191.964V124.095H196.273V130.07H203.839V133.949H203.944Z" fill="white"/>
<path d="M225.489 141.392C225.489 147.682 220.97 150.302 216.346 150.302C211.722 150.302 207.203 147.682 207.203 141.392V130.07H211.512V141.077C211.512 144.851 213.614 146.319 216.346 146.319C219.079 146.319 221.18 144.956 221.18 141.077V130.07H225.489V141.392Z" fill="white"/>
<path d="M243.145 130.07L242.094 134.368C241.149 133.844 239.887 133.635 238.837 133.635C236.104 133.635 234.107 135.626 234.107 138.981V149.883H229.799V130.07H234.107V132.272C235.369 130.385 237.47 129.546 239.887 129.546C241.149 129.546 242.2 129.651 243.145 130.07Z" fill="white"/>
<path d="M262.8 139.924C262.8 140.448 262.8 141.077 262.695 141.497H248.087C248.717 145.061 251.135 146.528 253.972 146.528C255.969 146.528 258.071 145.795 259.752 144.432L261.854 147.472C259.437 149.569 256.704 150.302 253.657 150.302C247.666 150.302 243.568 146.214 243.568 139.924C243.568 133.739 247.561 129.546 253.447 129.546C258.911 129.546 262.8 133.739 262.8 139.924ZM248.087 138.247H258.386C257.86 135.207 256.074 133.425 253.341 133.425C250.189 133.32 248.507 135.312 248.087 138.247Z" fill="white"/>
<path d="M285.287 138.457V149.778H280.663V120.95H291.908C298.633 120.95 302.207 124.305 302.207 129.756C302.207 135.207 298.633 138.562 291.908 138.562H285.287V138.457ZM285.287 125.248V133.949H291.697C295.481 133.949 297.267 132.586 297.267 129.546C297.267 126.611 295.481 125.144 291.697 125.144H285.287V125.248Z" fill="white"/>
<path d="M321.649 139.924C321.649 140.448 321.649 141.077 321.544 141.497H306.937C307.567 145.061 309.984 146.528 312.822 146.528C314.818 146.528 316.92 145.795 318.602 144.432L320.704 147.472C318.286 149.569 315.554 150.302 312.506 150.302C306.516 150.302 302.418 146.214 302.418 139.924C302.418 133.739 306.411 129.546 312.296 129.546C317.761 129.546 321.649 133.739 321.649 139.924ZM306.937 138.247H317.236C316.71 135.207 314.924 133.425 312.191 133.425C309.038 133.32 307.357 135.312 306.937 138.247Z" fill="white"/>
<path d="M338.989 130.07L337.938 134.368C336.992 133.844 335.731 133.635 334.68 133.635C331.947 133.635 329.951 135.626 329.951 138.981V149.883H325.642V130.07H329.951V132.272C331.212 130.385 333.314 129.546 335.731 129.546C336.992 129.546 337.938 129.651 338.989 130.07Z" fill="white"/>
<path d="M355.804 133.949H348.973V149.778H344.664V133.949H340.671V130.07H344.664V126.716C344.664 122.732 346.661 119.588 351.285 119.588C353.597 119.588 355.384 120.216 356.855 121.055L355.278 124.724C354.228 124.095 352.861 123.676 351.6 123.676C349.919 123.676 348.973 124.724 348.973 126.716V130.07H355.804V133.949Z" fill="white"/>
<path d="M375.985 139.924C375.985 140.448 375.985 141.077 375.879 141.497H361.272C361.902 145.061 364.319 146.528 367.157 146.528C369.154 146.528 371.255 145.795 372.937 144.432L375.039 147.472C372.622 149.569 369.889 150.302 366.842 150.302C360.851 150.302 356.753 146.214 356.753 139.924C356.753 133.739 360.746 129.546 366.631 129.546C372.201 129.546 375.985 133.739 375.985 139.924ZM361.272 138.247H371.571C371.045 135.207 369.259 133.425 366.526 133.425C363.479 133.32 361.692 135.312 361.272 138.247Z" fill="white"/>
<path d="M395.847 132.691L393.115 135.626C391.749 134.368 390.277 133.634 388.386 133.634C385.023 133.634 382.5 136.255 382.5 139.924C382.5 143.698 385.023 146.214 388.386 146.214C390.277 146.214 391.959 145.375 393.22 144.117L395.847 147.052C394.061 149.149 391.433 150.197 388.491 150.197C382.185 150.197 378.087 145.69 378.087 139.819C378.087 133.844 382.185 129.441 388.491 129.441C391.433 129.546 394.061 130.594 395.847 132.691Z" fill="white"/>
<path d="M413.605 133.949H406.038V142.545C406.038 145.166 407.405 146.214 409.191 146.214C410.557 146.214 412.029 145.585 413.185 144.851L414.866 148.311C413.29 149.359 411.293 150.302 408.771 150.302C404.252 150.302 401.625 147.891 401.625 142.65V133.949H397.736V130.07H401.73V124.095H406.038V130.07H413.605V133.949Z" fill="white"/>
<path fill-rule="evenodd" clip-rule="evenodd" d="M50.0002 57C41.1636 57 34.0002 64.1634 34.0002 73V196C34.0002 204.837 41.1636 212 50.0002 212H437C445.837 212 453 204.837 453 196V73C453 64.1634 445.837 57 437 57H50.0002ZM49.7698 66.8109C47.5607 66.8109 45.7698 68.6018 45.7698 70.8109V198.654C45.7698 200.863 47.5607 202.654 49.7698 202.654H437.23C439.44 202.654 441.23 200.863 441.23 198.654V70.8109C441.23 68.6018 439.44 66.8109 437.23 66.8109H49.7698Z" fill="#DFDFDF"/>
<path fill-rule="evenodd" clip-rule="evenodd" d="M449.621 159.537C442.401 163.889 435.307 165.992 431.977 165.133C423.627 162.981 422.86 132.434 429.32 120.391C435.781 108.349 468.996 103.1 470.67 126.96C471.251 135.241 467.774 142.631 462.636 148.662L471.848 191.598H445.089L449.621 159.537Z" fill="#B28B67"/>
<path fill-rule="evenodd" clip-rule="evenodd" d="M448.283 129.595C445.969 126.149 443.747 123.52 440.856 121.994C429.092 122.18 427.715 120.071 427.715 112.963C429.615 111.603 436.319 109.314 443.827 108.67C447.657 107.574 452.194 107.78 456.565 109.608C461.961 111.139 466.529 114.436 468.547 120.608C475.848 133.208 470.307 146.324 462.839 150.804C460.851 148.449 459.116 146.167 457.568 143.982C458.812 142.767 459.584 141.072 459.584 139.196C459.584 135.502 456.588 132.506 452.894 132.506C452.622 132.506 452.354 132.523 452.091 132.554C451.925 137.173 451.241 152.801 449.444 158.23C447.325 164.63 434.962 166.201 430.65 166.201C426.925 166.201 427.052 162.674 427.143 160.147C427.156 159.783 427.169 159.439 427.169 159.13C427.169 158.485 428.008 158.486 428.957 158.488C430.189 158.491 431.605 158.494 431.605 157.08C431.605 155.539 429.476 154.357 427.57 153.299C426.381 152.639 425.28 152.028 424.837 151.408C423.439 149.451 422.968 146.812 425.077 146.812C426.229 146.812 427.811 147.477 429.713 148.276C432.585 149.483 436.189 150.997 440.155 150.997C446.706 150.997 448.264 129.86 448.283 129.595Z" fill="#191847"/>
<path fill-rule="evenodd" clip-rule="evenodd" d="M475.867 279.868L434.431 384.743L406.64 473.405H395.666L438.153 279.868L475.867 279.868Z" fill="#997659"/>
<path fill-rule="evenodd" clip-rule="evenodd" d="M484.211 279.868C484.652 316.722 491.087 366.339 492.115 368.636C493.143 370.934 563.095 427.064 563.095 427.064L555.537 435.152C555.537 435.152 473 387.028 469.18 380.609C465.361 374.19 452.926 315.125 442.943 279.868H484.211Z" fill="#B28B67"/>
<path fill-rule="evenodd" clip-rule="evenodd" d="M561.782 425.875C562.121 424.754 563.305 424.084 564.402 424.492C566.074 425.115 568.321 426.052 569.352 426.916C571.101 428.384 573.968 431.783 573.968 431.783C572.265 433.812 543.362 468.258 543.362 468.258C543.362 468.258 537.468 465.736 539.664 462.358C541.859 458.981 543.257 456.701 543.257 456.701L549.881 433.56C550.036 433.018 550.608 432.711 551.145 432.882L554.55 433.962C554.55 433.962 558.253 432.236 559.74 430.463C560.586 429.456 561.312 427.433 561.782 425.875Z" fill="#E4E4E4"/>
<path fill-rule="evenodd" clip-rule="evenodd" d="M448.008 464.273L395.832 458.61L434.501 279.868H481.233L448.008 464.273Z" fill="#022C5B"/>
<path fill-rule="evenodd" clip-rule="evenodd" d="M552.303 414.015L518.078 454.525C518.078 454.525 464.006 395.468 455.03 377.456C446.054 359.444 438.892 279.868 438.892 279.868H491.504C491.504 279.868 495.416 349.876 496.778 353.133C498.14 356.391 552.303 414.015 552.303 414.015Z" fill="#003269"/>
<path fill-rule="evenodd" clip-rule="evenodd" d="M401.283 186.743L430.585 202.792L419.764 214.406L398.473 194.911C387.256 191.82 382.127 189.558 383.084 188.127C383.892 186.92 385.194 186.962 386.394 187C387.328 187.031 388.2 187.059 388.727 186.493C389.931 185.2 387.634 180.682 385.271 176.487C382.907 172.292 385.434 172.657 386.88 173.261C391.609 176.462 396.41 180.956 401.283 186.743ZM371.82 209.262L384.692 216.333L383.959 229.249C383.959 229.249 375.622 223.233 368.451 221.233C359.306 218.683 355.606 216.736 351.137 211.042C348.746 207.996 346.717 201.871 348.993 199.877C349.866 199.112 353.119 200.919 356.438 202.764C358.967 204.169 361.535 205.596 363.117 205.922C365.246 206.36 364.997 203.6 364.798 201.394C364.655 199.811 364.538 198.514 365.344 198.889C369.111 198.953 371.82 209.262 371.82 209.262Z" fill="#D2A179"/>
<path fill-rule="evenodd" clip-rule="evenodd" d="M444.856 199.216C434.592 199.108 420.906 196.94 406.302 187.67L400.567 200.46C410.64 210.457 424.804 218.671 437.189 218.323C446.949 218.049 451.937 206.244 444.856 199.216Z" fill="#066182"/>
<path fill-rule="evenodd" clip-rule="evenodd" d="M376.219 210.114C376.219 210.114 414.02 223.565 431.044 219.701C432.054 216.279 433.106 212.851 434.157 209.427C438.655 194.766 443.125 180.198 444.172 166.743L446.503 166.743H466.859L467.596 166.743C470.165 166.743 487.623 200.21 487.639 221.952C487.645 229.419 490.261 235.86 493.015 242.642C497.585 253.895 502.535 266.085 496.573 285.445C491.26 284.399 482.294 285.568 472.537 286.84C454.276 289.221 433.242 291.964 428.191 281.224C424.422 273.209 423.299 264.437 423.793 255.219C408.257 254.88 389.399 249.756 367.397 238.263C366.677 229.856 376.219 210.114 376.219 210.114Z" fill="#0A6EAA"/>
<rect x="132.547" y="291.414" width="50.9662" height="50.9662" transform="rotate(45 132.547 291.414)" stroke="#BDBCBC" stroke-width="2"/>
<rect x="124.674" y="271.59" width="29.5445" height="29.5445" transform="rotate(45 124.674 271.59)" stroke="#C9C8C8" stroke-width="2"/>
</svg>
