<svg width="458" height="253" viewBox="0 0 458 253" fill="none" xmlns="http://www.w3.org/2000/svg">
<path d="M226.199 252.369C351.126 252.369 452.398 245.285 452.398 236.545C452.398 227.806 351.126 220.722 226.199 220.722C101.273 220.722 0 227.806 0 236.545C0 245.285 101.273 252.369 226.199 252.369Z" fill="#003269"/>
<path d="M375.385 187.213C375.385 212.857 391.473 233.608 411.355 233.608L375.385 187.213Z" fill="#3F3D56"/>
<path d="M411.354 233.608C411.354 207.676 429.307 186.692 451.494 186.692L411.354 233.608Z" fill="#0A6EAA"/>
<path d="M388.417 189.538C388.417 213.897 398.676 233.608 411.355 233.608L388.417 189.538Z" fill="#0A6EAA"/>
<path d="M411.354 233.608C411.354 200.472 432.105 173.659 457.749 173.659L411.354 233.608Z" fill="#3F3D56"/>
<path d="M403.787 233.935C403.787 233.935 408.888 233.778 410.426 232.684C411.963 231.589 418.272 230.282 418.654 232.037C419.035 233.793 426.32 240.769 420.561 240.816C414.802 240.862 407.179 239.919 405.645 238.984C404.11 238.049 403.787 233.935 403.787 233.935Z" fill="#A8A8A8"/>
<path opacity="0.2" d="M420.663 240.205C414.904 240.251 407.282 239.308 405.748 238.373C404.579 237.661 404.113 235.107 403.958 233.929C403.85 233.933 403.787 233.935 403.787 233.935C403.787 233.935 404.11 238.05 405.645 238.984C407.179 239.919 414.802 240.862 420.561 240.816C422.223 240.802 422.797 240.211 422.766 239.335C422.535 239.864 421.901 240.195 420.663 240.205Z" fill="black"/>
<path d="M314.705 39.4848C314.705 39.4848 319.895 50.3845 317.819 55.5748C315.743 60.7651 325.604 66.4745 325.604 66.4745L338.58 59.208V49.8654L336.504 45.7132C336.504 45.7132 328.199 41.0419 329.238 33.7754C330.276 26.5089 314.705 39.4848 314.705 39.4848Z" fill="#FFB9B9"/>
<path opacity="0.1" d="M314.705 39.4848C314.705 39.4848 319.895 50.3845 317.819 55.5748C315.743 60.7651 325.604 66.4745 325.604 66.4745L338.58 59.208V49.8654L336.504 45.7132C336.504 45.7132 328.199 41.0419 329.238 33.7754C330.276 26.5089 314.705 39.4848 314.705 39.4848Z" fill="black"/>
<path d="M304.843 85.1598C304.843 85.1598 303.805 96.5785 303.805 98.1356C303.805 99.6927 302.248 104.883 302.248 104.883C302.248 104.883 296.539 131.354 292.905 133.949C289.272 136.544 287.196 152.634 292.905 151.596C298.615 150.558 300.172 136.544 300.172 136.544L311.989 114.23L313.667 87.2359L304.843 85.1598Z" fill="#FFB9B9"/>
<path d="M308.995 62.3223H304.843C304.843 62.3223 300.691 87.2359 304.843 88.274C308.995 89.312 316.781 89.312 316.781 89.312L308.995 62.3223Z" fill="#0A6EAA"/>
<path d="M332.352 222.704L334.428 232.565L338.58 229.451L336.504 220.628L332.352 222.184V222.704Z" fill="#FFB9B9"/>
<path d="M313.667 117.34L310.553 119.416C310.553 119.416 308.996 137.582 312.629 151.596C316.262 165.61 318.857 182.219 318.857 182.219C318.857 182.219 325.086 223.742 326.643 224.78C328.2 225.818 338.061 226.337 338.58 224.261C339.099 222.185 334.947 183.257 334.947 183.257C334.947 183.257 331.833 150.558 334.428 146.406C334.428 146.406 342.733 182.219 345.328 185.852C345.328 185.852 348.961 225.299 351.037 226.337C353.113 227.375 362.975 227.894 363.494 225.818C364.013 223.742 360.38 179.105 358.823 175.472C357.266 171.838 356.747 117.859 353.113 118.378C349.48 118.897 313.667 117.34 313.667 117.34Z" fill="#2F2E41"/>
<path d="M319.895 44.1561C326.488 44.1561 331.833 38.8113 331.833 32.2183C331.833 25.6252 326.488 20.2805 319.895 20.2805C313.302 20.2805 307.957 25.6252 307.957 32.2183C307.957 38.8113 313.302 44.1561 319.895 44.1561Z" fill="#FFB9B9"/>
<path d="M324.567 58.6891L321.972 54.0177C321.972 54.0177 318.858 49.8655 317.301 50.9035C315.744 51.9416 315.744 55.5749 315.744 55.5749C315.744 55.5749 303.806 59.7271 304.844 65.4365C305.882 71.1459 312.63 81.0075 312.63 81.0075C312.63 81.0075 313.668 89.312 312.63 91.3882C311.591 93.4643 309.515 95.0214 311.072 97.0976C312.63 99.1737 313.149 99.6927 312.63 102.288C312.11 104.883 311.072 105.921 312.11 106.959C313.149 107.997 311.591 118.897 310.553 119.416C309.515 119.935 343.772 125.125 346.367 123.568C348.962 122.011 356.228 122.011 355.709 120.454C355.19 118.897 353.114 109.554 353.114 107.997C353.114 106.44 353.114 99.6927 352.595 99.1737C352.076 98.6547 353.114 90.8691 353.114 90.8691L350.519 69.0697L358.823 56.0939C358.823 56.0939 356.747 48.8274 346.886 47.7894C337.024 46.7513 334.296 44.1561 334.296 44.1561C334.296 44.1561 333.391 48.8274 331.315 49.8655C329.239 50.9036 324.567 58.6891 324.567 58.6891Z" fill="#0A6EAA"/>
<path d="M362.456 72.703L365.57 96.0595L358.823 129.797C358.823 129.797 356.228 149.001 351.038 148.482C345.847 147.963 351.038 127.721 351.038 127.721L355.19 96.0595C355.19 96.0595 348.442 79.9695 349.999 77.8933C351.557 75.8172 362.456 72.703 362.456 72.703Z" fill="#FFB9B9"/>
<path d="M337.023 227.894C337.023 227.894 330.276 224.261 328.719 224.78C327.162 225.299 325.605 232.565 325.605 232.565C325.605 232.565 313.667 241.389 321.452 243.465C329.238 245.541 332.352 240.87 332.352 240.87C332.352 240.87 340.138 236.718 340.138 235.679C340.138 234.641 339.1 227.894 339.1 227.894H337.023Z" fill="white"/>
<path d="M352.594 225.299C352.594 225.299 349.48 242.427 351.556 243.465C353.632 244.503 362.456 246.06 363.494 243.465C364.532 240.87 364.532 234.641 364.013 232.565C363.494 230.489 361.937 225.299 361.937 225.299H352.594Z" fill="white"/>
<path d="M317.813 13.3363C317.349 13.1968 316.856 13.1818 316.383 13.2929C315.788 13.4874 315.396 14.0379 314.942 14.4694C313.752 15.5995 312.051 15.9531 310.499 16.4885C308.948 17.0239 307.315 17.9713 306.927 19.566C306.833 20.2078 306.777 20.8545 306.758 21.5028C306.527 23.384 305.092 25.0781 305.348 26.9561C305.516 28.183 306.391 29.224 306.57 30.4491C306.77 31.8152 306.08 33.237 306.465 34.5629C306.842 35.8623 308.119 36.6541 309.294 37.3234C309.799 34.1224 310.404 30.9396 311.112 27.775C311.192 27.2033 311.414 26.6608 311.759 26.1973C312.802 25.0151 314.849 25.6883 316.203 24.8807C316.718 24.5739 317.1 24.0675 317.64 23.8092C319.205 23.0614 320.897 24.7182 322.631 24.7337C323.397 24.7405 324.236 24.4366 324.882 24.8462C325.168 25.055 325.395 25.3338 325.541 25.6558C326.159 26.8156 326.498 28.1189 327.219 29.2178C327.94 30.3167 329.23 31.2133 330.508 30.9055C330.313 29.9146 331.089 29.0231 331.399 28.0621C331.934 26.4089 331.06 24.6142 331.271 22.8896C331.468 21.2702 332.523 19.3693 331.366 18.2197C330.97 17.8857 330.501 17.6501 329.997 17.5323C325.9 16.2323 322.116 14.0534 317.813 13.3363Z" fill="#2F2E41"/>
<path d="M353.632 54.0177L358.823 56.0938C358.823 56.0938 365.57 77.8932 364.013 77.8932C362.456 77.8932 348.442 81.5265 348.442 79.9694C348.442 78.4123 349.48 54.0177 353.632 54.0177Z" fill="#0A6EAA"/>
<path d="M271.439 9.73767H110.767V62.4837H116.853V76.2788L130.648 62.4837H271.439V9.73767Z" fill="#0A6EAA"/>
<path d="M271.439 151.746H110.767V204.492H116.853V218.287L130.648 204.492H271.439V151.746Z" fill="#0A6EAA"/>
<path d="M131.054 91.6969H291.726V144.443H285.64V158.238L271.845 144.443H131.054V91.6969Z" fill="white"/>
<path opacity="0.3" d="M252.775 18.4612H129.43V23.33H252.775V18.4612Z" fill="white"/>
<path opacity="0.3" d="M191.102 27.7932H129.43V32.6621H191.102V27.7932Z" fill="white"/>
<path opacity="0.3" d="M136.328 53.7604C140.137 53.7604 143.225 50.6723 143.225 46.8629C143.225 43.0535 140.137 39.9653 136.328 39.9653C132.518 39.9653 129.43 43.0535 129.43 46.8629C129.43 50.6723 132.518 53.7604 136.328 53.7604Z" fill="white"/>
<path d="M269.004 99.6089H145.66V104.478H269.004V99.6089Z" fill="#00AAC8"/>
<path d="M207.332 108.941H145.66V113.81H207.332V108.941Z" fill="#00AAC8"/>
<path d="M152.557 134.908C156.367 134.908 159.455 131.82 159.455 128.011C159.455 124.201 156.367 121.113 152.557 121.113C148.748 121.113 145.66 124.201 145.66 128.011C145.66 131.82 148.748 134.908 152.557 134.908Z" fill="#00AAC8"/>
<path opacity="0.3" d="M252.775 160.47H129.43V165.339H252.775V160.47Z" fill="white"/>
<path opacity="0.3" d="M191.102 169.802H129.43V174.671H191.102V169.802Z" fill="white"/>
<path opacity="0.3" d="M136.328 195.769C140.137 195.769 143.225 192.681 143.225 188.871C143.225 185.062 140.137 181.974 136.328 181.974C132.518 181.974 129.43 185.062 129.43 188.871C129.43 192.681 132.518 195.769 136.328 195.769Z" fill="white"/>
<path d="M54.8735 105.84C54.98 106.401 55.0896 106.965 55.1896 107.523C56.158 112.874 56.8343 118.274 57.2155 123.698L77.1885 91.1481L77.47 91.5484C77.4274 86.5318 76.7494 81.5409 75.4522 76.6948C74.9339 74.793 74.3726 72.9111 73.7681 71.0491L54.8735 105.84Z" fill="#6C63FF"/>
<path d="M64.6408 216.279C64.7073 217.191 64.8199 218.099 64.9783 219C64.9783 219 72.3803 224.033 72.9725 218.408C73.3574 214.742 72.4869 213.087 71.8296 212.379L71.8193 212.368C71.4243 211.951 71.2017 211.399 71.196 210.824V204.196L64.6822 206.268L64.9783 211.894C64.5401 213.063 64.5342 214.81 64.6408 216.279Z" fill="#FFB9B9"/>
<path opacity="0.05" d="M64.6404 216.279C64.7069 217.191 64.8195 218.099 64.9779 219C64.9779 219 72.3799 224.033 72.9721 218.408C73.357 214.742 72.4865 213.087 71.8292 212.379C71.5722 212.185 71.267 212.065 70.9466 212.032C70.6262 211.998 70.3028 212.053 70.0113 212.19C68.827 211.663 67.5242 212.542 66.4465 213.679C65.7161 214.449 65.1071 215.326 64.6404 216.279Z" fill="black"/>
<path d="M70.0113 212.782C70.0113 212.782 73.2682 211.006 73.8603 219C74.4525 226.994 74.7486 226.106 74.7486 226.106C74.7486 226.106 77.7094 233.212 71.4917 232.323C65.2741 231.435 62.3132 230.843 62.6093 227.29C62.7878 225.148 63.2889 222.039 63.6589 219.906C64.0115 217.794 64.9809 215.833 66.4453 214.27C67.5257 213.133 68.827 212.256 70.0113 212.782Z" fill="white"/>
<path d="M104.794 222.945L108.189 224.582C108.189 224.582 118.793 226.21 115.43 220.171C114.456 218.367 113.713 216.447 113.218 214.458C112.509 211.687 112.116 208.845 112.044 205.986L103.072 207.238C105.998 211.134 105.627 217.454 105.174 220.764C104.991 222.098 104.794 222.945 104.794 222.945Z" fill="#FFB9B9"/>
<path opacity="0.05" d="M104.795 222.945L108.189 224.582C108.189 224.582 118.794 226.21 115.43 220.171C114.457 218.367 113.714 216.447 113.219 214.458C111.159 214.854 109.591 217.82 109.591 217.82C107.93 223.587 106.436 222.146 105.175 220.764C104.992 222.098 104.795 222.945 104.795 222.945Z" fill="black"/>
<path d="M109.787 218.379C109.787 218.379 112.431 213.378 115.364 215.49C118.297 217.602 116.842 220.619 126.341 223.574C135.841 226.528 129.563 232.798 123.75 232.319C117.938 231.84 105.546 229.582 105.546 229.582C105.546 229.582 102.324 220.358 103.819 220.149C105.315 219.941 107.378 226.747 109.787 218.379Z" fill="white"/>
<path opacity="0.3" d="M123.359 231.201C127.133 231.512 131.101 228.978 130.822 226.354C132.625 229.318 128.061 232.674 123.75 232.319C117.937 231.84 105.545 229.582 105.545 229.582C105.545 229.582 105.393 229.148 105.172 228.467C105.532 228.533 117.634 230.729 123.359 231.201Z" fill="white"/>
<path opacity="0.3" d="M62.6247 227.12C62.9661 229.783 65.9204 230.343 71.4917 231.139C74.3251 231.544 75.2498 230.288 75.42 228.801C75.6052 230.705 75.0645 232.834 71.4917 232.323C65.274 231.435 62.3132 230.843 62.6093 227.29C62.6139 227.235 62.6196 227.176 62.6247 227.12Z" fill="white"/>
<path d="M49.0821 111.553L48.0992 126.295C48.0992 126.295 47.313 141.234 53.4066 142.414C59.5002 143.593 53.4066 123.347 53.4066 123.347V109.98L49.0821 111.553Z" fill="#FBBEBE"/>
<path d="M54.1926 57.8894L53.4063 59.6585C53.4063 59.6585 53.6029 72.0424 53.4063 73.0252C53.2098 74.008 50.6544 81.6742 50.6544 82.4605C50.6544 83.2467 48.6887 106.049 48.2956 107.425C47.9024 108.801 46.1333 113.125 47.7059 113.715C49.2784 114.305 52.2269 111.946 53.4063 113.715C54.5858 115.484 55.5686 113.715 55.5686 113.125C55.5686 112.535 55.9617 101.331 58.3206 98.186C60.6794 95.0409 62.8416 87.9644 63.2348 86.5884C63.6279 85.2124 64.2176 65.359 64.4142 64.9659C64.6108 64.5727 63.6279 59.2654 63.6279 59.2654L54.1926 57.8894Z" fill="white"/>
<path d="M65.3963 78.7256C65.3963 78.7256 63.0375 87.9643 61.4649 89.7334C59.8924 91.5025 52.0297 104.673 54.3885 122.167C56.7473 139.662 60.8752 162.464 60.8752 162.464C60.8752 162.464 61.465 170.523 60.6787 172.685C59.8924 174.848 64.2169 209.247 64.2169 209.247C64.2169 209.247 70.3105 213.965 73.6522 208.068C73.6522 208.068 72.8659 195.291 73.6522 194.111C74.4385 192.932 73.6522 171.702 73.6522 171.702C73.6522 171.702 74.2419 118.826 77.387 120.988C80.5321 123.15 90.1639 159.908 90.1639 159.908C90.1639 159.908 94.2919 174.061 94.0953 175.241C93.8987 176.42 97.6335 191.163 97.6335 191.163C97.6335 191.163 101.172 211.606 102.548 211.999C103.924 212.392 112.376 212.589 113.162 210.426L110.804 191.949C110.804 191.949 108.445 170.916 107.265 167.968C106.086 165.019 104.12 123.15 98.4198 110.766C98.4198 110.766 96.2575 90.9129 94.685 87.9643C94.685 87.9643 93.7625 83.9136 94.9008 80.1321C94.9009 80.132 67.5586 80.2981 65.3963 78.7256Z" fill="#003269"/>
<path d="M77.0931 41.8691C86.2122 41.8691 93.6048 32.4964 93.6048 20.9345C93.6048 9.37271 86.2122 0 77.0931 0C67.9739 0 60.5813 9.37271 60.5813 20.9345C60.5813 32.4964 67.9739 41.8691 77.0931 41.8691Z" fill="#2F2E41"/>
<path d="M111.001 45.5056L108.445 51.0095L78.1738 59.8551C78.1738 59.8551 57.141 65.9487 54.9787 56.1202C52.8165 46.2918 63.2346 45.309 63.2346 45.309C63.2346 45.309 67.166 42.557 72.0802 39.805C73.7235 38.8831 74.268 37.3912 74.2641 35.8127C74.26 35.3433 74.2159 34.8751 74.1323 34.4132C74.0375 33.8793 73.9062 33.3526 73.7392 32.8367C73.3231 31.5635 72.7667 30.3405 72.0802 29.1903C72.0802 29.1903 85.0537 24.0796 84.8571 26.8315C84.7741 27.8228 84.8808 28.8209 85.1716 29.7722C85.4401 30.6052 85.8021 31.4051 86.2508 32.1566C86.471 32.5359 86.7167 32.9291 86.9899 33.3458C87.3437 33.8864 87.7467 34.4623 88.1988 35.0874C90.7542 38.6256 99.2066 38.6256 99.2066 38.6256C105.89 37.8394 111.001 45.5056 111.001 45.5056Z" fill="#FBBEBE"/>
<path d="M142.255 76.9565C142.255 76.9565 156.408 87.3747 159.16 87.1781C161.912 86.9815 178.031 85.9987 174.296 89.7335C170.561 93.4683 153.656 91.1095 153.656 91.1095L138.127 81.281L142.255 76.9565Z" fill="#FBBEBE"/>
<path opacity="0.1" d="M85.1715 29.7722C83.7415 31.2986 81.913 32.3944 79.8927 32.936C77.8724 33.4775 75.7409 33.4431 73.7391 32.8367C73.323 31.5635 72.7665 30.3405 72.0801 29.1904C72.0801 29.1904 85.0536 24.0796 84.857 26.8315C84.774 27.8228 84.8807 28.8209 85.1715 29.7722Z" fill="black"/>
<path d="M76.9949 31.9424C83.183 31.9424 88.1993 26.926 88.1993 20.738C88.1993 14.55 83.183 9.53357 76.9949 9.53357C70.8069 9.53357 65.7905 14.55 65.7905 20.738C65.7905 26.926 70.8069 31.9424 76.9949 31.9424Z" fill="#FBBEBE"/>
<path d="M63.0382 53.3683C63.0382 53.3683 111.787 42.3605 111.984 43.9331C112.18 45.5056 114.146 48.6507 114.146 48.6507L102.745 61.6242C102.745 61.6242 104.121 67.9144 101.369 69.2904C98.6171 70.6664 98.2239 81.0845 95.6685 81.2811C93.1131 81.4776 63.2347 81.0845 63.0382 79.512C62.8416 77.9394 63.8244 76.9566 63.0382 76.5634C62.2519 76.1703 61.0725 76.1703 62.0553 74.2046C63.0382 72.2389 63.0382 63.983 63.0382 63.983L53.7994 59.6586C53.7994 59.6586 52.5325 55.9957 54.8368 55.37C57.1411 54.7443 63.0382 53.3683 63.0382 53.3683Z" fill="white"/>
<path d="M112.377 48.2576H114.146C114.146 48.2576 119.453 51.7958 120.829 54.9409C122.205 58.086 127.119 62.2139 128.299 63.3933C129.478 64.5727 145.597 75.7771 145.4 77.3497C145.203 78.9222 140.682 80.4948 140.486 82.2639C140.289 84.033 142.452 84.8193 141.076 84.8193C139.7 84.8193 131.247 79.9051 128.102 78.136C124.957 76.3669 118.47 71.2561 117.684 69.8801C116.898 68.5041 111.59 66.1453 111.001 65.1624C110.411 64.1796 101.172 59.6586 101.172 59.6586L112.377 48.2576Z" fill="white"/>
<path d="M78.5667 20.6397C85.0261 20.6397 90.2625 17.4274 90.2625 13.4649C90.2625 9.50241 85.0261 6.29016 78.5667 6.29016C72.1072 6.29016 66.8708 9.50241 66.8708 13.4649C66.8708 17.4274 72.1072 20.6397 78.5667 20.6397Z" fill="#2F2E41"/>
</svg>
