<svg width="493" height="223" viewBox="0 0 493 223" fill="none" xmlns="http://www.w3.org/2000/svg">
<path d="M241.219 185.439C248.564 193.306 248.944 204.867 248.944 204.867C248.944 204.867 237.415 203.675 230.07 195.809C222.725 187.943 222.345 176.381 222.345 176.381C222.345 176.381 233.874 177.573 241.219 185.439Z" fill="#0A6EAA"/>
<path d="M264.344 197.718C256.462 205.048 244.877 205.427 244.877 205.427C244.877 205.427 246.072 193.921 253.953 186.59C261.835 179.259 273.42 178.88 273.42 178.88C273.42 178.88 272.225 190.387 264.344 197.718Z" fill="#3393D4"/>
<path d="M262.384 221.065H233.395C232.839 221.065 232.294 220.908 231.822 220.614C231.351 220.32 230.972 219.899 230.729 219.4L224.417 206.451C224.197 206 224.096 205.5 224.122 204.999C224.149 204.498 224.303 204.012 224.57 203.587C224.836 203.162 225.207 202.811 225.646 202.568C226.086 202.325 226.581 202.197 227.083 202.197H268.696C269.199 202.197 269.693 202.325 270.133 202.568C270.573 202.811 270.943 203.162 271.21 203.587C271.476 204.012 271.63 204.498 271.657 204.999C271.684 205.5 271.582 206 271.362 206.451L265.051 219.4C264.807 219.899 264.428 220.32 263.957 220.614C263.485 220.908 262.94 221.065 262.384 221.065Z" fill="#3F3D56"/>
<path d="M392.574 63.1469C405.905 63.1469 416.712 52.3611 416.712 39.0561C416.712 25.7511 405.905 14.9653 392.574 14.9653C379.243 14.9653 368.436 25.7511 368.436 39.0561C368.436 52.3611 379.243 63.1469 392.574 63.1469Z" fill="#FFB8B8"/>
<path d="M374.56 51.1016C374.56 51.1016 379.108 85.3175 372.112 89.158C365.115 92.9985 413.741 93.3477 413.741 93.3477C413.741 93.3477 402.896 63.6706 407.794 54.5929L374.56 51.1016Z" fill="#FFB8B8"/>
<path d="M449.246 93.5207L445.202 111.899L436.651 150.783L436.395 152.912L433.444 177.564L431.481 193.941L430.165 204.942C422.163 209.047 416.362 211.881 416.362 211.881C416.362 211.881 415.863 209.385 415.059 206.191C409.443 207.871 399.051 210.659 390.244 211.216C393.451 214.784 394.925 218.135 392.926 220.608C386.893 228.065 361.985 212.445 353.274 206.62C353.071 208.014 352.994 209.424 353.044 210.833L346.377 205.716L347.037 193.941L348.15 174.02L349.548 149.037C349.107 147.967 348.738 146.869 348.442 145.751C346.4 138.504 343.922 124.034 342.022 111.899C340.492 102.133 339.343 93.8811 339.1 92.1251C339.067 91.8958 339.051 91.7779 339.051 91.7779L375.956 75.5024C378.578 81.573 390.825 83.3977 390.825 83.3977C400.971 82.6999 408.924 77.36 408.924 77.36L449.246 93.5207Z" fill="white"/>
<path d="M419.162 204.9C419.162 204.9 417.6 205.434 415.059 206.19C409.443 207.871 399.051 210.659 390.244 211.216C382.662 211.701 376.254 210.535 375.083 205.598C374.58 203.475 375.293 201.728 376.845 200.294C381.48 196.005 393.586 194.469 403.187 193.941C405.898 193.794 408.406 193.725 410.494 193.699C414.039 193.653 416.363 193.725 416.363 193.725L416.418 193.941L419.162 204.9Z" fill="#FFB8B8"/>
<path d="M372.493 16.2686L367.979 14.4652C367.979 14.4652 377.416 4.0963 390.545 4.99798L386.853 0.940527C386.853 0.940527 395.879 -2.66603 404.085 6.80123C408.398 11.778 413.389 17.6279 416.501 24.2177H421.334L419.317 28.6508L426.377 33.0839L419.13 32.2876C419.562 34.7152 419.628 37.1935 419.327 39.6407C419.016 42.0886 417.764 44.3202 415.836 45.8645C415.836 45.8645 410.239 34.3015 410.239 32.4982V37.0064C410.239 37.0064 405.726 32.949 405.726 30.2441L403.264 33.3999L402.033 28.4408L386.853 33.3999L389.314 29.3425L379.878 30.6949L383.57 25.7358C383.57 25.7358 372.903 31.5965 372.493 36.5556C372.082 41.5147 368.96 46.2137 368.96 46.2137C368.96 46.2137 360.594 23.0309 372.493 16.2686Z" fill="#2F2E41"/>
<path d="M475.484 178.014C473.025 180.674 466.933 184.68 459.547 189.018C456.8 190.63 453.875 192.291 450.892 193.942C443.772 197.883 436.318 201.788 430.166 204.943C422.164 209.048 416.364 211.881 416.364 211.881C416.364 211.881 415.865 209.385 415.061 206.191C413.984 201.916 412.362 196.389 410.672 193.942C410.613 193.857 410.554 193.778 410.495 193.699C410.002 193.054 409.507 192.677 409.018 192.677L433.445 177.565L444.002 171.032L436.396 152.913L426.858 130.183L432.615 111.9L438.402 93.521H449.247C449.247 93.521 452.838 101.344 457.43 112.253C458.116 113.885 458.825 115.585 459.547 117.341C468.994 140.274 480.772 172.297 475.484 178.014Z" fill="white"/>
<path d="M392.925 220.608C386.892 228.065 361.985 212.445 353.274 206.62C351.376 205.352 350.247 204.549 350.247 204.549L358.217 193.941L360.741 190.583C360.741 190.583 362.999 191.779 366.338 193.725C366.459 193.797 366.581 193.869 366.705 193.941C369.584 195.629 373.198 197.833 376.845 200.294C381.877 203.691 386.964 207.567 390.244 211.216C393.451 214.784 394.924 218.135 392.925 220.608Z" fill="#FFB8B8"/>
<path d="M366.339 193.725C365.448 193.722 364.558 193.794 363.68 193.941C356.133 195.235 353.908 202.053 353.274 206.62C353.072 208.014 352.995 209.424 353.045 210.833L346.378 205.715L343.949 203.851C338.103 201.817 332.894 198.203 328.377 193.941C324.459 190.178 320.944 186.018 317.89 181.528C314.847 177.103 312.135 172.46 309.776 167.638C309.117 166.292 308.763 164.818 308.739 163.321C308.714 161.824 309.02 160.339 309.634 158.973L317.89 140.611L329.956 113.773C330.045 113.134 330.142 112.51 330.248 111.899C332.641 98.2054 339.052 92.125 339.052 92.125H343.949L347.225 111.899L351.295 136.466L348.443 145.751L341.852 167.192L348.151 174.02L366.339 193.725Z" fill="white"/>
<path d="M371.881 134.262L376.068 139.137C377.624 138.841 379.248 138.494 380.921 138.103L379.719 134.262L382.659 137.686C400.383 133.335 422.352 124.876 422.352 124.876C422.352 124.876 398.634 126.612 380.925 122.751C373.09 121.042 365.028 124.919 361.813 132.252C359.944 136.514 360.237 140.207 366.866 140.207C369.105 140.169 371.339 139.959 373.546 139.58L371.881 134.262Z" fill="#0A6EAA"/>
<path d="M467.326 216.612V218.6C467.327 219.146 467.226 219.687 467.027 220.196C466.939 220.423 466.833 220.642 466.709 220.851C466.318 221.506 465.762 222.049 465.098 222.426C464.433 222.803 463.682 223.001 462.918 223H316.34C315.576 223.001 314.824 222.803 314.16 222.426C313.495 222.049 312.94 221.506 312.549 220.851C312.425 220.642 312.319 220.423 312.23 220.196C312.032 219.687 311.931 219.146 311.932 218.6V216.612C311.931 216.034 312.045 215.462 312.267 214.928C312.488 214.394 312.813 213.909 313.222 213.5C313.632 213.092 314.118 212.768 314.653 212.547C315.188 212.326 315.761 212.212 316.34 212.212H324.789V211.285C324.789 211.261 324.794 211.237 324.803 211.215C324.812 211.192 324.826 211.172 324.843 211.155C324.86 211.138 324.88 211.125 324.902 211.115C324.925 211.106 324.949 211.102 324.973 211.102H329.381C329.405 211.102 329.429 211.106 329.452 211.115C329.474 211.125 329.494 211.138 329.511 211.155C329.528 211.172 329.542 211.192 329.551 211.215C329.56 211.237 329.565 211.261 329.565 211.285V212.212H332.319V211.285C332.319 211.261 332.324 211.237 332.333 211.215C332.342 211.192 332.356 211.172 332.373 211.155C332.39 211.138 332.41 211.125 332.432 211.115C332.455 211.106 332.479 211.102 332.503 211.102H336.911C336.935 211.102 336.959 211.106 336.981 211.115C337.004 211.125 337.024 211.138 337.041 211.155C337.058 211.172 337.072 211.192 337.081 211.215C337.09 211.237 337.095 211.261 337.095 211.285V212.212H339.852V211.285C339.852 211.261 339.857 211.237 339.866 211.215C339.875 211.192 339.889 211.172 339.906 211.155C339.923 211.138 339.943 211.125 339.966 211.115C339.988 211.106 340.012 211.102 340.036 211.102H344.444C344.468 211.102 344.492 211.106 344.515 211.115C344.537 211.125 344.557 211.138 344.574 211.155C344.591 211.172 344.605 211.192 344.614 211.215C344.623 211.237 344.628 211.261 344.628 211.285V212.212H347.382V211.285C347.382 211.261 347.387 211.237 347.396 211.215C347.405 211.192 347.419 211.172 347.436 211.155C347.453 211.138 347.473 211.125 347.495 211.115C347.518 211.106 347.542 211.102 347.566 211.102H351.974C351.998 211.102 352.022 211.106 352.045 211.115C352.067 211.125 352.087 211.138 352.104 211.155C352.121 211.172 352.135 211.192 352.144 211.215C352.153 211.237 352.158 211.261 352.158 211.285V212.212H354.912V211.285C354.912 211.261 354.917 211.237 354.926 211.215C354.935 211.192 354.949 211.172 354.966 211.155C354.983 211.138 355.003 211.125 355.025 211.115C355.048 211.106 355.072 211.102 355.096 211.102H359.504C359.528 211.102 359.552 211.106 359.575 211.115C359.597 211.125 359.617 211.138 359.634 211.155C359.651 211.172 359.665 211.192 359.674 211.215C359.683 211.237 359.688 211.261 359.688 211.285V212.212H362.445V211.285C362.445 211.261 362.45 211.237 362.459 211.215C362.468 211.192 362.482 211.172 362.499 211.155C362.516 211.138 362.536 211.125 362.559 211.115C362.581 211.106 362.605 211.102 362.629 211.102H367.037C367.061 211.102 367.085 211.106 367.108 211.115C367.13 211.125 367.15 211.138 367.167 211.155C367.184 211.172 367.198 211.192 367.207 211.215C367.216 211.237 367.221 211.261 367.221 211.285V212.212H369.975V211.285C369.975 211.261 369.98 211.237 369.989 211.215C369.998 211.192 370.012 211.172 370.029 211.155C370.046 211.138 370.066 211.125 370.089 211.115C370.111 211.106 370.135 211.102 370.159 211.102H404.69C404.714 211.102 404.738 211.106 404.761 211.115C404.783 211.125 404.803 211.138 404.82 211.155C404.837 211.172 404.851 211.192 404.86 211.215C404.869 211.237 404.874 211.261 404.874 211.285V212.212H407.631V211.285C407.631 211.261 407.636 211.237 407.645 211.215C407.654 211.192 407.668 211.172 407.685 211.155C407.702 211.138 407.722 211.125 407.745 211.115C407.767 211.106 407.791 211.102 407.815 211.102H412.223C412.272 211.102 412.319 211.122 412.353 211.156C412.387 211.19 412.407 211.236 412.407 211.285V212.212H415.161V211.285C415.161 211.261 415.166 211.237 415.175 211.215C415.184 211.192 415.198 211.172 415.215 211.155C415.232 211.138 415.252 211.125 415.275 211.115C415.297 211.106 415.321 211.102 415.345 211.102H419.753C419.778 211.102 419.801 211.106 419.824 211.115C419.846 211.125 419.866 211.138 419.883 211.155C419.901 211.172 419.914 211.192 419.923 211.215C419.933 211.237 419.937 211.261 419.937 211.285V212.212H422.691V211.285C422.691 211.261 422.696 211.237 422.705 211.215C422.714 211.192 422.728 211.172 422.745 211.155C422.762 211.138 422.782 211.125 422.805 211.115C422.827 211.106 422.851 211.102 422.875 211.102H427.283C427.307 211.102 427.331 211.106 427.354 211.115C427.376 211.125 427.396 211.138 427.413 211.155C427.43 211.172 427.444 211.192 427.453 211.215C427.462 211.237 427.467 211.261 427.467 211.285V212.212H430.224V211.285C430.224 211.261 430.229 211.237 430.238 211.215C430.248 211.192 430.261 211.172 430.278 211.155C430.295 211.138 430.315 211.125 430.338 211.115C430.36 211.106 430.384 211.102 430.408 211.102H434.817C434.865 211.102 434.911 211.122 434.945 211.156C434.978 211.191 434.997 211.237 434.997 211.285V212.212H437.754V211.285C437.754 211.261 437.759 211.237 437.768 211.215C437.777 211.192 437.791 211.172 437.808 211.155C437.825 211.138 437.845 211.125 437.868 211.115C437.89 211.106 437.914 211.102 437.938 211.102H442.346C442.371 211.102 442.395 211.106 442.417 211.115C442.439 211.125 442.459 211.138 442.477 211.155C442.494 211.172 442.507 211.192 442.516 211.215C442.526 211.237 442.53 211.261 442.53 211.285V212.212H445.284V211.285C445.284 211.261 445.289 211.237 445.298 211.215C445.307 211.192 445.321 211.172 445.338 211.155C445.355 211.138 445.375 211.125 445.398 211.115C445.42 211.106 445.444 211.102 445.468 211.102H449.876C449.901 211.102 449.924 211.106 449.947 211.115C449.969 211.125 449.989 211.138 450.006 211.155C450.024 211.172 450.037 211.192 450.046 211.215C450.056 211.237 450.06 211.261 450.06 211.285V212.212H462.918C463.497 212.212 464.07 212.326 464.605 212.547C465.14 212.768 465.626 213.092 466.035 213.5C466.444 213.909 466.769 214.394 466.991 214.928C467.212 215.462 467.326 216.034 467.326 216.612Z" fill="#003269"/>
<path d="M455.523 132.867H400.889V131.743H376.116V132.867H321.257C320.772 132.867 320.291 132.962 319.843 133.147C319.394 133.333 318.987 133.604 318.644 133.947C318.301 134.289 318.029 134.696 317.843 135.143C317.657 135.591 317.562 136.071 317.562 136.555V211.22C317.562 212.198 317.951 213.136 318.644 213.828C319.337 214.52 320.277 214.908 321.257 214.908H455.523C456.503 214.908 457.443 214.52 458.137 213.828C458.83 213.136 459.219 212.198 459.219 211.22V136.555C459.219 136.071 459.123 135.591 458.938 135.143C458.752 134.696 458.48 134.289 458.137 133.947C457.793 133.604 457.386 133.333 456.938 133.147C456.489 132.962 456.009 132.867 455.523 132.867Z" fill="#003269"/>
<path d="M385.871 170.072C390.403 170.072 394.077 166.405 394.077 161.882C394.077 157.359 390.403 153.692 385.871 153.692C381.339 153.692 377.665 157.359 377.665 161.882C377.665 166.405 381.339 170.072 385.871 170.072Z" fill="white"/>
<path d="M144.921 96.6872C151.519 96.6872 156.868 91.3489 156.868 84.7638C156.868 78.1786 151.519 72.8403 144.921 72.8403C138.323 72.8403 132.975 78.1786 132.975 84.7638C132.975 91.3489 138.323 96.6872 144.921 96.6872Z" fill="#2F2E41"/>
<path d="M148.25 73.1686C150.317 73.1689 152.35 73.7046 154.147 74.7234C155.945 75.7422 157.448 77.2092 158.508 78.981C159.567 80.7528 160.148 82.7687 160.194 84.8317C160.239 86.8947 159.747 88.9342 158.767 90.7507C159.802 89.4574 160.557 87.9628 160.982 86.3624C161.407 84.7619 161.493 83.0907 161.235 81.4551C160.977 79.8195 160.381 78.2555 159.484 76.8627C158.587 75.4699 157.409 74.2788 156.025 73.3655C154.642 72.4521 153.082 71.8365 151.447 71.5578C149.812 71.2791 148.136 71.3434 146.527 71.7467C144.918 72.15 143.411 72.8834 142.102 73.9002C140.793 74.917 139.71 76.1948 138.923 77.6523C140.04 76.253 141.458 75.1231 143.073 74.3468C144.688 73.5705 146.457 73.1678 148.25 73.1686Z" fill="#2F2E41"/>
<path d="M122.598 84.7386C141.979 84.7386 157.691 69.0573 157.691 49.7135C157.691 30.3697 141.979 14.6885 122.598 14.6885C103.216 14.6885 87.5044 30.3697 87.5044 49.7135C87.5044 69.0573 103.216 84.7386 122.598 84.7386Z" fill="#2F2E41"/>
<path d="M95.0544 27.9819C101.101 21.1946 109.554 17.0176 118.628 16.3324C127.702 15.6472 136.688 18.5075 143.689 24.3095C143.402 24.0372 143.118 23.7628 142.82 23.4982C135.864 17.3264 126.737 14.1653 117.445 14.7103C108.154 15.2553 99.46 19.4617 93.2762 26.4042C87.0924 33.3468 83.9251 42.4567 84.4711 51.7299C85.0172 61.0031 89.2319 69.6801 96.1879 75.8518C96.4861 76.1164 96.7925 76.3657 97.097 76.6182C90.5036 70.3584 86.6049 61.7867 86.2238 52.7122C85.8427 43.6378 89.009 34.7705 95.0544 27.9819Z" fill="#2F2E41"/>
<path d="M122.3 84.4417C134.783 84.4417 144.903 74.3419 144.903 61.8832C144.903 49.4245 134.783 39.3247 122.3 39.3247C109.817 39.3247 99.6978 49.4245 99.6978 61.8832C99.6978 74.3419 109.817 84.4417 122.3 84.4417Z" fill="#A0616A"/>
<path d="M106.24 69.0068C106.24 69.0068 109.214 96.3145 104.456 99.2827C99.6976 102.251 131.817 106.406 131.817 106.406C131.817 106.406 127.059 76.7242 138.955 69.0069L106.24 69.0068Z" fill="#A0616A"/>
<path d="M134.791 94.5334C134.791 94.5334 143.648 90.4055 130.892 91.8758C118.136 93.3461 107.131 87.7065 107.131 87.7065C107.131 87.7065 103.266 83.8478 102.671 88.0033C102.076 92.1588 104.456 99.8762 91.37 101.063C78.2843 102.251 66.3882 98.6889 61.6298 107.594C56.8714 116.498 59.2506 155.085 59.2506 155.085C59.2506 155.085 68.1726 187.142 75.3103 191.891C82.4479 196.64 144.902 190.11 144.902 190.11L162.746 158.053V120.654C162.746 120.654 160.367 107.594 143.713 111.155C143.713 111.155 133.006 108.781 133.601 103.438C134.196 98.0953 134.791 94.5334 134.791 94.5334Z" fill="white"/>
<path d="M77.6716 214.577C78.0392 212.979 78.2854 212.075 78.2854 212.075L78.095 210.774L76.1354 197.493L75.3115 191.891C82.4475 188.923 84.2332 175.268 84.2332 175.268L84.5024 175.108L85.7201 174.38V174.377L90.0924 171.759L90.181 171.707L91.947 172.88L95.5347 175.268C100.238 178.771 105.622 181.256 111.343 182.564C117.063 183.872 122.994 183.975 128.756 182.865C131.438 182.407 134.061 181.651 136.575 180.611L145.228 177.732L145.497 177.643L145.763 177.683L150.837 178.449L150.929 178.466L151.349 178.528L150.174 186.636L148.471 198.42C152.971 200.798 156.972 205.267 160.471 210.774C161.246 211.993 161.996 213.26 162.723 214.577C163.668 216.281 164.571 218.053 165.431 219.868C165.536 220.084 165.638 220.304 165.74 220.523C166.071 221.234 166.399 221.952 166.718 222.673H76.096C76.2142 221.949 76.3324 221.257 76.4473 220.592C76.4532 220.57 76.4576 220.547 76.4604 220.523C76.503 220.301 76.5424 220.084 76.5785 219.868C76.979 217.706 77.3663 215.901 77.6716 214.577Z" fill="#2F2E41"/>
<path d="M74.1221 100.47C74.1221 100.47 80.6649 112.343 78.2857 127.184C75.9065 142.025 85.4233 178.831 85.4233 178.831L92.561 177.05C92.561 177.05 87.8026 146.181 88.9922 139.057C90.1818 131.933 90.1818 104.032 84.2337 100.47C78.2857 96.9084 74.1221 100.47 74.1221 100.47Z" fill="#0A6EAA"/>
<path d="M143.296 112.808L145.796 178.534L150.554 181.502C150.554 181.502 157.395 109.375 153.826 109.375H146.564C146.12 109.375 145.681 109.465 145.273 109.639C144.865 109.814 144.497 110.07 144.192 110.391C143.886 110.712 143.649 111.092 143.495 111.508C143.341 111.923 143.273 112.366 143.296 112.808Z" fill="#0A6EAA"/>
<path d="M88.6942 177.347C90.3367 177.347 91.6683 176.018 91.6683 174.379C91.6683 172.74 90.3367 171.411 88.6942 171.411C87.0517 171.411 85.7202 172.74 85.7202 174.379C85.7202 176.018 87.0517 177.347 88.6942 177.347Z" fill="#3393D4"/>
<path d="M148.173 180.315C149.816 180.315 151.147 178.986 151.147 177.347C151.147 175.708 149.816 174.379 148.173 174.379C146.531 174.379 145.199 175.708 145.199 177.347C145.199 178.986 146.531 180.315 148.173 180.315Z" fill="#3393D4"/>
<path d="M102.969 33.6846V56.2433H108.203L114.865 49.1196L113.973 56.2433H137.111L135.683 49.1196L138.538 56.2433H142.226V33.6846H102.969Z" fill="#2F2E41"/>
<path d="M99.3996 60.3988C100.385 60.3988 101.184 58.9369 101.184 57.1337C101.184 55.3305 100.385 53.8687 99.3996 53.8687C98.4141 53.8687 97.6152 55.3305 97.6152 57.1337C97.6152 58.9369 98.4141 60.3988 99.3996 60.3988Z" fill="#A0616A"/>
<path d="M145.199 60.3988C146.185 60.3988 146.984 58.9369 146.984 57.1337C146.984 55.3305 146.185 53.8687 145.199 53.8687C144.214 53.8687 143.415 55.3305 143.415 57.1337C143.415 58.9369 144.214 60.3988 145.199 60.3988Z" fill="#A0616A"/>
<path d="M157.393 177.05C157.393 177.05 130.33 172.004 128.545 180.909C126.761 189.813 158.583 185.955 158.583 185.955L157.393 177.05Z" fill="#A0616A"/>
<path d="M156.8 115.905C156.8 115.905 221.633 167.552 209.737 180.018C197.841 192.485 152.636 188.923 152.636 188.923L155.61 174.082L181.782 171.114L168.696 158.054L156.8 159.241V115.905Z" fill="white"/>
<path d="M61.0366 201.983L69.3639 208.513C69.3639 208.513 75.3119 226.916 84.234 221.574C93.156 216.231 75.9067 197.234 75.9067 197.234L65.795 193.672L61.0366 201.983Z" fill="#A0616A"/>
<path d="M69.363 106.406L61.0582 108.901C61.0582 108.901 3.33973 151.523 0.96051 163.396C-1.41871 175.269 12.2618 181.799 12.2618 181.799L64.0097 206.139L69.363 191.891L44.976 179.425C44.976 179.425 46.7604 175.863 39.6228 175.269C32.4851 174.675 31.2955 166.958 31.2955 166.958C31.2955 166.958 45.5708 144.993 53.3032 149.742C61.0357 154.492 63.4149 158.053 63.4149 158.053L69.363 106.406Z" fill="white"/>
<path d="M187.813 216.612V218.6C187.814 219.146 187.712 219.687 187.514 220.196C187.426 220.423 187.319 220.642 187.196 220.851C186.804 221.506 186.249 222.049 185.585 222.426C184.92 222.803 184.169 223.001 183.404 223H36.8268C36.0624 223.001 35.3111 222.803 34.6465 222.426C33.9819 222.049 33.4268 221.506 33.0356 220.851C32.9118 220.642 32.8053 220.423 32.7172 220.196C32.5187 219.687 32.4174 219.146 32.4185 218.6V216.612C32.4183 216.034 32.5322 215.462 32.7537 214.928C32.9752 214.394 33.2999 213.909 33.7093 213.5C34.1187 213.092 34.6047 212.768 35.1396 212.547C35.6745 212.326 36.2478 212.212 36.8268 212.212H45.2758V211.285C45.2758 211.261 45.2805 211.237 45.2897 211.215C45.2989 211.192 45.3125 211.172 45.3295 211.155C45.3466 211.138 45.3669 211.125 45.3892 211.115C45.4115 211.106 45.4355 211.102 45.4596 211.102H49.8679C49.8921 211.102 49.916 211.106 49.9383 211.115C49.9606 211.125 49.9809 211.138 49.998 211.155C50.0151 211.172 50.0286 211.192 50.0378 211.215C50.0471 211.237 50.0518 211.261 50.0517 211.285V212.212H52.8057V211.285C52.8057 211.261 52.8104 211.237 52.8196 211.215C52.8289 211.192 52.8424 211.172 52.8595 211.155C52.8765 211.138 52.8968 211.125 52.9191 211.115C52.9415 211.106 52.9654 211.102 52.9895 211.102H57.3979C57.422 211.102 57.4459 211.106 57.4682 211.115C57.4906 211.125 57.5108 211.138 57.5279 211.155C57.545 211.172 57.5585 211.192 57.5678 211.215C57.577 211.237 57.5817 211.261 57.5817 211.285V212.212H60.339V211.285C60.3389 211.261 60.3436 211.237 60.3529 211.215C60.3621 211.192 60.3756 211.172 60.3927 211.155C60.4098 211.138 60.4301 211.125 60.4524 211.115C60.4747 211.106 60.4986 211.102 60.5228 211.102H64.9311C64.9552 211.102 64.9792 211.106 65.0015 211.115C65.0238 211.125 65.0441 211.138 65.0612 211.155C65.0782 211.172 65.0918 211.192 65.101 211.215C65.1102 211.237 65.115 211.261 65.1149 211.285V212.212H67.8689V211.285C67.8688 211.261 67.8736 211.237 67.8828 211.215C67.892 211.192 67.9056 211.172 67.9226 211.155C67.9397 211.138 67.96 211.125 67.9823 211.115C68.0046 211.106 68.0286 211.102 68.0527 211.102H72.461C72.4852 211.102 72.5091 211.106 72.5314 211.115C72.5537 211.125 72.574 211.138 72.5911 211.155C72.6082 211.172 72.6217 211.192 72.6309 211.215C72.6402 211.237 72.6449 211.261 72.6448 211.285V212.212H75.3988V211.285C75.3988 211.261 75.4035 211.237 75.4127 211.215C75.4219 211.192 75.4355 211.172 75.4526 211.155C75.4696 211.138 75.4899 211.125 75.5122 211.115C75.5345 211.106 75.5585 211.102 75.5826 211.102H79.9909C80.0151 211.102 80.039 211.106 80.0613 211.115C80.0836 211.125 80.1039 211.138 80.121 211.155C80.1381 211.172 80.1516 211.192 80.1609 211.215C80.1701 211.237 80.1748 211.261 80.1748 211.285V212.212H82.932V211.285C82.9319 211.261 82.9367 211.237 82.9459 211.215C82.9551 211.192 82.9687 211.172 82.9857 211.155C83.0028 211.138 83.0231 211.125 83.0454 211.115C83.0677 211.106 83.0916 211.102 83.1158 211.102H87.5242C87.5483 211.102 87.5722 211.106 87.5945 211.115C87.6169 211.125 87.6371 211.138 87.6542 211.155C87.6713 211.172 87.6848 211.192 87.6941 211.215C87.7033 211.237 87.708 211.261 87.708 211.285V212.212H90.462V211.285C90.4619 211.261 90.4666 211.237 90.4759 211.215C90.4851 211.192 90.4986 211.172 90.5157 211.155C90.5328 211.138 90.5531 211.125 90.5754 211.115C90.5977 211.106 90.6216 211.102 90.6458 211.102H125.177C125.201 211.102 125.225 211.106 125.247 211.115C125.27 211.125 125.29 211.138 125.307 211.155C125.324 211.172 125.338 211.192 125.347 211.215C125.356 211.237 125.361 211.261 125.361 211.285V212.212H128.118V211.285C128.118 211.261 128.123 211.237 128.132 211.215C128.141 211.192 128.155 211.172 128.172 211.155C128.189 211.138 128.209 211.125 128.232 211.115C128.254 211.106 128.278 211.102 128.302 211.102H132.71C132.759 211.102 132.805 211.122 132.84 211.156C132.874 211.19 132.894 211.236 132.894 211.285V212.212H135.648V211.285C135.648 211.261 135.653 211.237 135.662 211.215C135.671 211.192 135.685 211.172 135.702 211.155C135.719 211.138 135.739 211.125 135.761 211.115C135.784 211.106 135.808 211.102 135.832 211.102H140.24C140.264 211.102 140.288 211.106 140.311 211.115C140.333 211.125 140.353 211.138 140.37 211.155C140.387 211.172 140.401 211.192 140.41 211.215C140.419 211.237 140.424 211.261 140.424 211.285V212.212H143.178V211.285C143.178 211.261 143.183 211.237 143.192 211.215C143.201 211.192 143.215 211.172 143.232 211.155C143.249 211.138 143.269 211.125 143.291 211.115C143.314 211.106 143.338 211.102 143.362 211.102H147.77C147.794 211.102 147.818 211.106 147.841 211.115C147.863 211.125 147.883 211.138 147.9 211.155C147.917 211.172 147.931 211.192 147.94 211.215C147.949 211.237 147.954 211.261 147.954 211.285V212.212H150.711V211.285C150.711 211.261 150.716 211.237 150.725 211.215C150.734 211.192 150.748 211.172 150.765 211.155C150.782 211.138 150.802 211.125 150.825 211.115C150.847 211.106 150.871 211.102 150.895 211.102H155.303C155.352 211.102 155.398 211.122 155.431 211.156C155.465 211.191 155.484 211.237 155.484 211.285V212.212H158.241V211.285C158.241 211.261 158.246 211.237 158.255 211.215C158.264 211.192 158.278 211.172 158.295 211.155C158.312 211.138 158.332 211.125 158.355 211.115C158.377 211.106 158.401 211.102 158.425 211.102H162.833C162.857 211.102 162.881 211.106 162.904 211.115C162.926 211.125 162.946 211.138 162.963 211.155C162.98 211.172 162.994 211.192 163.003 211.215C163.012 211.237 163.017 211.261 163.017 211.285V212.212H165.771V211.285C165.771 211.261 165.776 211.237 165.785 211.215C165.794 211.192 165.808 211.172 165.825 211.155C165.842 211.138 165.862 211.125 165.884 211.115C165.907 211.106 165.931 211.102 165.955 211.102H170.363C170.387 211.102 170.411 211.106 170.434 211.115C170.456 211.125 170.476 211.138 170.493 211.155C170.51 211.172 170.524 211.192 170.533 211.215C170.542 211.237 170.547 211.261 170.547 211.285V212.212H183.404C183.983 212.212 184.557 212.326 185.092 212.547C185.626 212.768 186.112 213.092 186.522 213.5C186.931 213.909 187.256 214.394 187.477 214.928C187.699 215.462 187.813 216.034 187.813 216.612Z" fill="#003269"/>
<path d="M176.01 132.865H121.376V131.741H96.6031V132.865H41.7439C40.7638 132.865 39.8238 133.253 39.1308 133.945C38.4377 134.637 38.0483 135.575 38.0483 136.553V211.218C38.0483 212.196 38.4377 213.134 39.1307 213.826C39.8238 214.518 40.7638 214.906 41.7439 214.906H176.01C176.99 214.906 177.93 214.518 178.623 213.826C179.316 213.134 179.706 212.196 179.706 211.218V136.553C179.706 135.575 179.316 134.637 178.623 133.945C177.93 133.253 176.99 132.865 176.01 132.865Z" fill="#003269"/>
<path d="M106.36 170.071C110.893 170.071 114.567 166.404 114.567 161.881C114.567 157.357 110.893 153.69 106.36 153.69C101.828 153.69 98.1543 157.357 98.1543 161.881C98.1543 166.404 101.828 170.071 106.36 170.071Z" fill="white"/>
<path d="M492.111 220.555H6.73389V221.575H492.111V220.555Z" fill="#3F3D56"/>
</svg>
