<svg width="86" height="274" viewBox="0 0 86 274" fill="none" xmlns="http://www.w3.org/2000/svg">
<path d="M25.472 41.6756H24.7402V48.4442H25.472V41.6756Z" fill="#F2F2F2"/>
<path d="M71.2059 58.1399H70.4741V64.9085H71.2059V58.1399Z" fill="#F2F2F2"/>
<path d="M66.0838 227.904H65.3521V234.673H66.0838V227.904Z" fill="#F2F2F2"/>
<path d="M76.6946 171.926H75.9629V178.695H76.6946V171.926Z" fill="#F2F2F2"/>
<path d="M29.1904 22.6386C29.1904 22.6386 34.5389 37.8612 31.2475 40.2031C27.9562 42.5451 42.3559 61.6708 42.3559 61.6708L59.6355 56.987L50.1729 40.9838C50.1729 40.9838 48.9386 24.9806 48.9386 22.6386C48.9386 20.2967 29.1904 22.6386 29.1904 22.6386Z" fill="#A0616A"/>
<path opacity="0.1" d="M29.1904 22.6386C29.1904 22.6386 34.5389 37.8612 31.2475 40.2031C27.9562 42.5451 42.3559 61.6708 42.3559 61.6708L59.6355 56.987L50.1729 40.9838C50.1729 40.9838 48.9386 24.9806 48.9386 22.6386C48.9386 20.2967 29.1904 22.6386 29.1904 22.6386Z" fill="black"/>
<path d="M20.2129 131.148C20.2129 131.148 18.6517 150.664 20.2129 160.813C21.7742 170.961 24.1162 199.064 24.1162 199.064C24.1162 199.064 24.1162 252.148 32.7033 252.929C41.2903 253.709 47.5355 254.49 48.3161 251.367C49.0968 248.245 44.4129 246.683 46.7548 245.122C49.0968 243.561 49.8774 238.096 46.7548 231.851C43.6323 225.606 46.7548 162.374 46.7548 162.374L61.5871 202.187C61.5871 202.187 63.1484 234.974 64.7096 239.658C66.2709 244.342 63.1484 252.929 68.6129 253.709C74.0774 254.49 80.3225 249.806 83.4451 248.245C86.5677 246.683 78.7612 246.683 80.3225 245.903C81.8838 245.122 86.5676 242.78 85.0064 242C83.4451 241.219 81.8838 203.748 81.8838 203.748C81.8838 203.748 77.5903 123.732 72.1258 120.61C66.6613 117.487 63.1483 122.865 63.1483 122.865L20.2129 131.148Z" fill="#003269"/>
<path d="M34.2647 249.806V256.051C34.2647 256.051 27.2389 273.027 34.2647 273.027C41.2905 273.027 46.755 274.787 46.755 272.445V251.367L34.2647 249.806Z" fill="#2F2E41"/>
<path d="M80.3223 249.795V256.04C80.3223 256.04 87.3481 273.016 80.3223 273.016C73.2965 273.016 67.832 274.775 67.832 272.434V251.356L80.3223 249.795Z" fill="#2F2E41"/>
<path d="M40.119 33.958C47.8795 33.958 54.1706 27.6669 54.1706 19.9064C54.1706 12.146 47.8795 5.85486 40.119 5.85486C32.3585 5.85486 26.0674 12.146 26.0674 19.9064C26.0674 27.6669 32.3585 33.958 40.119 33.958Z" fill="#A0616A"/>
<path d="M35.8259 46.058C35.8259 46.058 39.7291 57.7676 45.9743 55.4257L52.2195 53.0838L63.1485 128.026C63.1485 128.026 54.5614 140.516 42.0711 132.709C29.5808 124.903 35.8259 46.058 35.8259 46.058Z" fill="#00AAC8"/>
<path d="M46.7549 43.7161L50.2678 36.3C50.2678 36.3 70.9548 46.058 74.0774 49.1806C77.2 52.3032 77.2 56.987 77.2 56.987L71.7355 76.5031C71.7355 76.5031 73.2968 119.439 73.2968 121C73.2968 122.561 78.7613 131.148 74.8581 128.026C70.9548 124.903 70.1742 121.78 67.0516 126.464C63.929 131.148 56.9033 136.613 56.9033 136.613L46.7549 43.7161Z" fill="#003269"/>
<path d="M74.0772 99.9224L71.7353 121.78C71.7353 121.78 57.6837 134.271 60.8063 135.051C63.9289 135.832 65.4902 132.709 65.4902 132.709C65.4902 132.709 70.9547 138.174 74.0772 135.051C77.1998 131.929 85.0062 102.264 85.0062 102.264L74.0772 99.9224Z" fill="#A0616A"/>
<path d="M40.4193 0.0475161C37.3042 -0.0638442 33.9707 -0.11893 31.3442 1.55974C30.1358 2.40219 29.0759 3.43976 28.2079 4.62996C25.6499 7.86371 23.4396 11.9325 24.3898 15.9447L25.4934 15.5143C25.4933 16.5852 25.2553 17.6428 24.7963 18.6105C24.9517 18.1586 25.4722 18.8891 25.3328 19.3462L24.1172 23.3345C26.1156 22.6018 28.6015 24.0852 28.9058 26.1918C29.0447 21.5594 29.5253 16.2475 33.2831 13.5351C35.1781 12.1672 37.5764 11.7496 39.884 11.3788C42.0127 11.0367 44.2444 10.7105 46.2833 11.4113C48.3223 12.1121 50.0587 14.1974 49.5964 16.3034C50.5366 15.9795 51.5881 16.6347 52.0527 17.5139C52.5173 18.393 52.5417 19.4301 52.5557 20.4244C53.5579 21.1327 54.6984 19.7263 55.1068 18.569C56.0655 15.8527 56.9177 12.9612 56.4012 10.1273C55.8847 7.29338 53.5755 4.58516 50.6949 4.57555C51.0446 4.19151 51.2311 3.68652 51.2151 3.1674L48.8409 2.9668C49.4436 2.88145 49.9979 2.5892 50.4089 2.14009C49.4557 3.18902 41.9608 0.10262 40.4193 0.0475161Z" fill="#2F2E41"/>
<path d="M39.1376 41.3461C39.1376 41.3461 32.4158 35.1253 29.9967 35.5063C27.5777 35.8874 24.2748 41.3461 24.2748 41.3461C24.2748 41.3461 4.45769 47.5847 5.28341 53.8232C6.10912 60.0617 15.1919 90.4746 15.1919 90.4746C15.1919 90.4746 22.6234 127.126 16.0177 131.025C9.41196 134.924 47.3947 145.062 48.2205 140.383C49.0462 135.704 50.6976 88.915 48.2205 81.8966C45.7433 74.8783 39.1376 41.3461 39.1376 41.3461Z" fill="#003269"/>
<path d="M67.0518 53.8644H76.7044C76.7044 53.8644 83.4453 83.5289 84.2259 86.6515C85.0066 89.7741 86.5679 104.606 85.7872 104.606C85.0065 104.606 69.3937 101.484 69.3937 103.826L67.0518 53.8644Z" fill="#003269"/>
<path d="M66.7248 127.323H29.7718C26.1657 110.735 25.8644 94.7071 29.7718 79.3941H66.7248C60.7614 94.4317 60.3887 110.349 66.7248 127.323Z" fill="#F2F2F2"/>
<path d="M14.748 106.948L25.6771 111.632C25.6771 111.632 46.7544 114.755 46.7544 106.168C46.7544 97.5805 25.6771 102.264 25.6771 102.264L18.6508 100.018L14.748 106.948Z" fill="#A0616A"/>
<path d="M17.0903 49.1806L7.72257 51.5225L0.696786 92.8966C0.696786 92.8966 -1.64517 103.826 2.25806 104.606C6.16129 105.387 17.0903 111.632 17.0903 111.632C17.0903 111.632 18.6516 99.9225 21.7742 99.9225L13.9677 93.6773L18.6516 66.3548L17.0903 49.1806Z" fill="#003269"/>
</svg>
