<svg width="146" height="80" viewBox="0 0 146 80" fill="none" xmlns="http://www.w3.org/2000/svg">
<path d="M99.1029 19.0591C100.099 13.925 98.2525 9.48031 98.1989 9.41234C94.8339 1.64442 87.9541 0.685566 87.2012 0.467094L87.0062 0.416117C77.5204 -0.939628 69.3041 1.45143 69.3041 1.45143L66.9832 2.23308C66.8565 2.27556 66.7224 2.28284 66.5921 2.25493C64.4673 1.79735 56.9808 0.397911 51.0792 1.96485C50.4079 2.14326 50.3324 3.07663 50.9745 3.34122C52.5558 3.99543 54.253 5.51017 53.634 9.02273C53.6024 9.20115 53.4988 9.365 53.3538 9.47545C43.9472 16.6244 39.6806 27.02 38.0518 32.1638C37.8166 32.9066 38.7669 33.4492 39.292 32.8727C65.4152 4.1787 96.6529 23.4468 96.5834 23.3594C96.6212 23.3764 96.6565 23.3909 96.6931 23.4055C96.877 23.5026 97.0805 23.5694 97.2998 23.5961C98.1368 23.6968 98.9068 23.1931 99.159 22.4309C99.159 22.4309 99.204 22.2937 99.1992 22.2937C99.2004 22.284 99.1992 22.2949 99.2004 22.2852C99.215 22.2245 99.2199 22.1906 99.2272 22.1274C99.2369 22.051 99.2454 21.9478 99.2442 21.8738C99.3588 20.5156 99.1967 19.6927 99.1127 19.3771C99.0859 19.274 99.0822 19.1659 99.1029 19.0591Z" fill="white"/>
<path d="M21.9772 46.4762L21.9614 70.3747L16.7799 70.3711L16.7921 51.4441L8.82793 51.4392L8.81575 70.3662L3.63424 70.3626L3.64643 51.4356L0 51.4331L0.00365495 46.4629L3.65008 46.4653V45.9871C3.65374 39.5349 7.25509 36.2869 14.4992 36.2918C16.178 36.293 17.9531 36.4847 19.8245 36.9168L19.822 41.6492C18.1432 41.4089 16.3681 41.2644 14.4968 41.2632C10.6591 41.2608 8.83403 42.5025 8.83281 45.9907V46.4689L21.9772 46.4762Z" fill="white"/>
<path d="M48.8387 55.7177L48.829 70.392L43.6475 70.3883L43.656 56.2408C43.6584 52.6554 41.597 50.6951 38.2857 50.6927C34.6392 50.6903 32.1916 52.9357 32.188 57.5711L32.1794 70.3811L26.9979 70.3774L27.0138 46.4785L32.1953 46.4822L32.1928 49.5409C33.7779 47.1036 36.2255 45.8632 39.6319 45.8656C45.1509 45.8692 48.8424 49.5991 48.8387 55.7177Z" fill="white"/>
<path d="M53.4354 70.3944L53.4574 35.5029L58.6388 35.5066L58.6169 70.398L53.4354 70.3944Z" fill="white"/>
<path d="M67.7385 60.6529C68.5036 64.2857 71.4288 66.2956 75.4115 66.2981C78.1466 66.2993 80.2104 65.2979 81.6018 63.339L85.8708 65.8271C83.517 69.3142 80.0143 71.0329 75.3603 71.0305C71.4739 71.028 68.3087 69.8313 65.9111 67.4875C63.5134 65.0965 62.3158 62.0839 62.3182 58.4512C62.3207 54.8658 63.5219 51.903 65.8745 49.5156C68.2271 47.0796 71.2985 45.8865 74.9924 45.8889C78.4951 45.8913 81.3727 47.1354 83.6254 49.5751C85.8793 52.0147 87.0282 55.026 87.0257 58.5155C87.0257 59.0411 86.977 59.7584 86.832 60.6663L67.7385 60.6529ZM81.7991 56.4558C81.0815 52.5839 78.3489 50.574 74.9424 50.5728C71.1047 50.5703 68.4159 52.8158 67.6947 56.4473L81.7991 56.4558Z" fill="white"/>
<path d="M109.489 46.5322L114.671 46.5358L114.655 70.4345L109.473 70.4308L109.476 66.9899C107.507 69.7135 104.723 71.0499 101.077 71.0474C97.7664 71.045 94.9837 69.8482 92.6348 67.4098C90.2859 64.9714 89.1358 61.9589 89.1382 58.4694C89.1407 54.9325 90.2944 51.9698 92.6458 49.5338C94.9984 47.0978 97.7822 45.9047 101.092 45.9071C104.739 45.9095 107.52 47.2495 109.485 49.927L109.489 46.5322ZM101.895 66.1245C104.054 66.1257 105.878 65.4096 107.318 63.9761C108.758 62.4954 109.479 60.6796 109.481 58.4815C109.482 56.2822 108.763 54.4652 107.325 53.0306C105.886 51.5474 104.064 50.8301 101.905 50.8288C99.7462 50.8276 97.9223 51.5425 96.4823 53.0233C95.0422 54.4555 94.321 56.2725 94.3198 58.4706C94.3185 60.6687 95.0373 62.4857 96.475 63.9689C97.9138 65.4047 99.7364 66.122 101.895 66.1245Z" fill="white"/>
<path d="M141.776 49.6115C144.126 52.0511 145.275 55.0151 145.272 58.5046C145.27 62.0415 144.116 65.0043 141.764 67.4403C139.411 69.8763 136.628 71.0694 133.317 71.0669C129.67 71.0645 126.889 69.7245 124.924 67.047L124.915 80.0001L119.734 79.9965L119.756 46.5382L124.937 46.5419L124.935 49.9829C126.904 47.2592 129.688 45.9229 133.333 45.9253C136.645 45.9277 139.427 47.1718 141.776 49.6115ZM132.506 66.144C134.664 66.1452 136.488 65.4291 137.928 63.9968C139.368 62.5161 140.09 60.7003 140.091 58.5022C140.092 56.3029 139.373 54.4859 137.936 53.0512C136.498 51.568 134.675 50.8507 132.515 50.8495C130.356 50.8483 128.533 51.5632 127.093 53.0439C125.652 54.4762 124.931 56.2932 124.93 58.4913C124.929 60.6894 125.646 62.5064 127.085 63.9896C128.524 65.4242 130.347 66.1428 132.506 66.144Z" fill="white"/>
</svg>
