<svg width="266" height="48" viewBox="0 0 266 48" fill="none" xmlns="http://www.w3.org/2000/svg">
<path fill-rule="evenodd" clip-rule="evenodd" d="M33.2899 3.70044C29.0295 5.6536 25.1353 8.97535 22.8644 11.4409L22.8351 11.4727L1.41823 31.173L0 29.6417L21.3535 9.99964C23.7549 7.40018 27.851 3.90004 32.416 1.80723C36.9783 -0.284308 42.2758 -1.07439 46.7323 2.28243C48.7226 3.59149 51.0571 6.23692 51.7421 10.0041C52.438 13.8313 51.3992 18.6279 46.942 24.1251L46.9032 24.173L22.8244 47.5931L21.364 46.1018L45.354 22.7678C49.4927 17.6435 50.2454 13.4603 49.6846 10.3757C49.1146 7.24126 47.1552 5.04815 45.5564 4.00592L45.5254 3.98568L45.4959 3.9633C41.9344 1.26386 37.5619 1.74197 33.2899 3.70044Z" fill="#ffffff"/>
<path fill-rule="evenodd" clip-rule="evenodd" d="M23.709 3.70044C27.9338 5.6536 31.7953 8.97535 34.0472 11.4409L34.0763 11.4727L55.314 31.173L56.7203 29.6417L35.5455 9.99964C33.1642 7.40018 29.1024 3.90004 24.5756 1.80723C20.0515 -0.284308 14.7983 -1.07439 10.3791 2.28243C8.40548 3.59149 6.0905 6.23692 5.41125 10.0041C4.72118 13.8313 5.75124 18.6279 10.1712 24.1251L10.2096 24.173L34.0869 47.5931L35.5352 46.1018L11.7459 22.7678C7.64178 17.6435 6.89537 13.4603 7.45155 10.3757C8.01671 7.24126 9.95976 5.04815 11.5451 4.00592L11.5759 3.98568L11.6052 3.9633C15.1369 1.26386 19.4728 1.74197 23.709 3.70044Z" fill="#ffffff"/>
<path d="M70.6293 15.4931H73.1842V23.188H82.8956V15.4931H85.4505V34.1156H82.8956V25.4065H73.1842V34.1156H70.6293V15.4931Z" fill="#ffffff"/>
<path d="M94.7424 20.2343C95.7084 20.2343 96.6448 20.4625 97.5516 20.9188C98.4583 21.3668 99.1489 21.9499 99.6235 22.6683C100.081 23.3528 100.386 24.1515 100.539 25.0642C100.674 25.6896 100.742 26.6869 100.742 28.056H90.7638C90.8062 29.4336 91.1324 30.5407 91.7425 31.3774C92.3527 32.2056 93.2976 32.6197 94.5771 32.6197C95.772 32.6197 96.7253 32.2267 97.4372 31.4408C97.8439 30.9844 98.132 30.4562 98.3015 29.8561H100.551C100.492 30.3548 100.293 30.9125 99.954 31.5295C99.6235 32.138 99.2506 32.6366 98.8354 33.0254C98.1405 33.7015 97.2804 34.1579 96.255 34.3945C95.7042 34.5297 95.0814 34.5973 94.3865 34.5973C92.6917 34.5973 91.2553 33.9846 90.0774 32.7592C88.8995 31.5253 88.3105 29.8012 88.3105 27.5869C88.3105 25.4065 88.9037 23.6359 90.0901 22.2753C91.2765 20.9146 92.8272 20.2343 94.7424 20.2343ZM98.3905 26.2432C98.2973 25.2544 98.0812 24.4642 97.7422 23.8726C97.1151 22.7739 96.0686 22.2246 94.6026 22.2246C93.5518 22.2246 92.6705 22.6049 91.9586 23.3655C91.2468 24.1177 90.8697 25.0769 90.8273 26.2432H98.3905Z" fill="#ffffff"/>
<path d="M105.318 30.5027C105.318 31.1619 105.56 31.6816 106.043 32.0619C106.526 32.4422 107.098 32.6324 107.759 32.6324C108.564 32.6324 109.343 32.4465 110.097 32.0746C111.369 31.4577 112.004 30.4477 112.004 29.0448V27.2066C111.725 27.3841 111.364 27.532 110.924 27.6503C110.483 27.7686 110.051 27.8532 109.627 27.9039L108.242 28.0813C107.411 28.1912 106.788 28.3645 106.373 28.6011C105.67 28.9983 105.318 29.6322 105.318 30.5027ZM110.86 25.8882C111.386 25.8206 111.737 25.6009 111.915 25.229C112.017 25.0262 112.068 24.7346 112.068 24.3543C112.068 23.5768 111.788 23.0148 111.229 22.6683C110.678 22.3133 109.886 22.1358 108.852 22.1358C107.657 22.1358 106.81 22.457 106.31 23.0993C106.03 23.4542 105.848 23.9824 105.763 24.6839H103.628C103.67 23.0105 104.212 21.8485 105.255 21.1977C106.305 20.5385 107.521 20.2089 108.903 20.2089C110.504 20.2089 111.805 20.5132 112.805 21.1217C113.796 21.7302 114.292 22.6767 114.292 23.9613V31.783C114.292 32.0197 114.339 32.2098 114.432 32.3535C114.534 32.4972 114.741 32.569 115.055 32.569C115.157 32.569 115.271 32.5648 115.398 32.5563C115.525 32.5394 115.661 32.5183 115.805 32.4929V34.179C115.449 34.2804 115.178 34.3438 114.991 34.3691C114.805 34.3945 114.551 34.4072 114.229 34.4072C113.441 34.4072 112.869 34.1283 112.513 33.5705C112.326 33.2747 112.195 32.8564 112.119 32.3155C111.653 32.924 110.983 33.4522 110.11 33.9001C109.237 34.348 108.276 34.572 107.225 34.572C105.962 34.572 104.928 34.1917 104.123 33.431C103.327 32.662 102.928 31.7027 102.928 30.5534C102.928 29.2941 103.322 28.318 104.111 27.625C104.899 26.932 105.932 26.5052 107.212 26.3446L110.86 25.8882Z" fill="#ffffff"/>
<path d="M118.118 15.4931H120.406V34.1156H118.118V15.4931Z" fill="#ffffff"/>
<path d="M124.309 16.7481H126.622V20.5385H128.796V22.402H126.622V31.2633C126.622 31.7366 126.783 32.0535 127.105 32.2141C127.283 32.307 127.58 32.3535 127.995 32.3535C128.105 32.3535 128.224 32.3535 128.351 32.3535C128.478 32.345 128.626 32.3324 128.796 32.3155V34.1156C128.533 34.1917 128.258 34.2466 127.969 34.2804C127.69 34.3142 127.385 34.3311 127.054 34.3311C125.986 34.3311 125.262 34.0607 124.881 33.5198C124.499 32.9704 124.309 32.2605 124.309 31.39V22.402H122.465V20.5385H124.309V16.7481Z" fill="#ffffff"/>
<path d="M131.096 15.4297H133.384V22.3767C133.927 21.6921 134.414 21.2104 134.846 20.9315C135.583 20.4498 136.503 20.2089 137.604 20.2089C139.579 20.2089 140.918 20.8977 141.621 22.2753C142.003 23.0274 142.193 24.0712 142.193 25.4065V34.1156H139.842V25.5586C139.842 24.5614 139.715 23.8303 139.46 23.3655C139.045 22.6218 138.265 22.2499 137.121 22.2499C136.172 22.2499 135.312 22.5753 134.541 23.2261C133.77 23.8768 133.384 25.1065 133.384 26.9151V34.1156H131.096V15.4297Z" fill="#ffffff"/>
<path d="M154.091 20.5385H156.62C156.298 21.409 155.582 23.3951 154.472 26.4967C153.642 28.8293 152.947 30.7308 152.388 32.2014C151.066 35.6664 150.133 37.7793 149.591 38.5399C149.049 39.3005 148.117 39.6808 146.795 39.6808C146.473 39.6808 146.223 39.6681 146.045 39.6428C145.875 39.6174 145.663 39.5709 145.409 39.5033V37.4243C145.807 37.5342 146.096 37.6018 146.274 37.6271C146.451 37.6525 146.608 37.6652 146.744 37.6652C147.168 37.6652 147.477 37.5933 147.672 37.4497C147.875 37.3144 148.045 37.1454 148.18 36.9426C148.223 36.875 148.375 36.5285 148.638 35.9031C148.901 35.2777 149.091 34.8128 149.21 34.5086L144.176 20.5385H146.769L150.417 31.5929L154.091 20.5385Z" fill="#ffffff"/>
<path d="M172.522 15.4297V18.7384H166.916V34.1156H162.976V18.7384H157.345V15.4297H172.522Z" fill="#ffffff"/>
<path d="M178.814 31.5675C179.873 31.5675 180.687 31.1914 181.255 30.4393C181.822 29.6871 182.106 28.618 182.106 27.232C182.106 25.846 181.822 24.7811 181.255 24.0374C180.687 23.2852 179.873 22.9091 178.814 22.9091C177.755 22.9091 176.937 23.2852 176.361 24.0374C175.793 24.7811 175.509 25.846 175.509 27.232C175.509 28.618 175.793 29.6871 176.361 30.4393C176.937 31.1914 177.755 31.5675 178.814 31.5675ZM185.907 27.232C185.907 29.2603 185.322 30.9971 184.153 32.4422C182.983 33.879 181.208 34.5973 178.827 34.5973C176.446 34.5973 174.67 33.879 173.501 32.4422C172.331 30.9971 171.747 29.2603 171.747 27.232C171.747 25.2375 172.331 23.5092 173.501 22.0471C174.67 20.585 176.446 19.854 178.827 19.854C181.208 19.854 182.983 20.585 184.153 22.0471C185.322 23.5092 185.907 25.2375 185.907 27.232Z" fill="#ffffff"/>
<path d="M194.462 31.1492C195.309 31.1492 196.025 30.8323 196.61 30.1984C197.195 29.5561 197.487 28.5377 197.487 27.1432C197.487 25.8333 197.207 24.836 196.648 24.1515C196.097 23.4669 195.356 23.1246 194.423 23.1246C193.152 23.1246 192.275 23.7205 191.792 24.9121C191.538 25.5459 191.411 26.3277 191.411 27.2573C191.411 28.0602 191.547 28.7744 191.818 29.3998C192.309 30.566 193.191 31.1492 194.462 31.1492ZM193.559 19.9681C194.254 19.9681 194.86 20.0737 195.377 20.285C196.258 20.6484 196.97 21.316 197.512 22.288V20.2977H201.033V33.4057C201.033 35.1889 200.732 36.5327 200.131 37.437C199.097 38.992 197.114 39.7696 194.182 39.7696C192.411 39.7696 190.966 39.423 189.847 38.73C188.729 38.037 188.11 37.0017 187.992 35.6242H191.932C192.034 36.0467 192.199 36.351 192.428 36.5369C192.818 36.8665 193.474 37.0313 194.398 37.0313C195.703 37.0313 196.576 36.5961 197.017 35.7256C197.305 35.1678 197.449 34.2297 197.449 32.9113V32.0239C197.101 32.6155 196.728 33.0592 196.33 33.355C195.61 33.9043 194.673 34.179 193.521 34.179C191.741 34.179 190.318 33.5578 189.25 32.3155C188.191 31.0647 187.661 29.3744 187.661 27.2447C187.661 25.191 188.174 23.4669 189.199 22.0724C190.225 20.6695 191.678 19.9681 193.559 19.9681Z" fill="#ffffff"/>
<path d="M209.893 22.9091C209.054 22.9091 208.402 23.1711 207.935 23.6951C207.478 24.2191 207.19 24.929 207.071 25.8248H212.702C212.643 24.8698 212.35 24.1472 211.825 23.6571C211.308 23.1584 210.664 22.9091 209.893 22.9091ZM209.893 19.93C211.045 19.93 212.084 20.1455 213.007 20.5766C213.931 21.0076 214.694 21.6879 215.295 22.6176C215.838 23.4373 216.189 24.3881 216.35 25.4699C216.443 26.1037 216.482 27.0165 216.465 28.2081H206.982C207.033 29.5941 207.469 30.566 208.291 31.1238C208.791 31.4703 209.393 31.6436 210.096 31.6436C210.842 31.6436 211.448 31.4323 211.914 31.0097C212.168 30.7816 212.393 30.4646 212.588 30.059H216.287C216.194 30.8787 215.766 31.7112 215.003 32.5563C213.817 33.9001 212.156 34.572 210.02 34.572C208.257 34.572 206.702 34.0057 205.355 32.8733C204.008 31.7408 203.334 29.8984 203.334 27.3461C203.334 24.9544 203.94 23.1204 205.152 21.8443C206.372 20.5681 207.952 19.93 209.893 19.93Z" fill="#ffffff"/>
<path d="M217.494 22.9979V20.4244H219.426V16.5706H223.011V20.4244H225.261V22.9979H223.011V30.2998C223.011 30.8661 223.083 31.221 223.227 31.3647C223.371 31.4999 223.812 31.5675 224.549 31.5675C224.659 31.5675 224.774 31.5675 224.892 31.5675C225.019 31.5591 225.142 31.5506 225.261 31.5422V34.2424L223.545 34.3058C221.833 34.3649 220.664 34.0691 220.037 33.4184C219.63 33.0043 219.426 32.3662 219.426 31.5041V22.9979H217.494Z" fill="#ffffff"/>
<path d="M235.226 19.9427C236.082 19.9427 236.858 20.0906 237.553 20.3864C238.256 20.6822 238.832 21.1343 239.281 21.7428C239.663 22.2584 239.896 22.7908 239.98 23.3401C240.065 23.881 240.107 24.7684 240.107 26.0023V34.1156H236.409V25.7107C236.409 24.967 236.281 24.367 236.027 23.9106C235.697 23.2683 235.07 22.9472 234.146 22.9472C233.188 22.9472 232.46 23.2683 231.96 23.9106C231.468 24.5445 231.222 25.453 231.222 26.6362V34.1156H227.612V15.4931H231.222V22.0978C231.748 21.2949 232.354 20.7371 233.04 20.4244C233.735 20.1033 234.464 19.9427 235.226 19.9427Z" fill="#ffffff"/>
<path d="M248.967 22.9091C248.128 22.9091 247.476 23.1711 247.01 23.6951C246.552 24.2191 246.264 24.929 246.145 25.8248H251.776C251.717 24.8698 251.425 24.1472 250.899 23.6571C250.382 23.1584 249.738 22.9091 248.967 22.9091ZM248.967 19.93C250.12 19.93 251.158 20.1455 252.081 20.5766C253.005 21.0076 253.768 21.6879 254.369 22.6176C254.912 23.4373 255.263 24.3881 255.424 25.4699C255.518 26.1037 255.556 27.0165 255.539 28.2081H246.056C246.107 29.5941 246.544 30.566 247.366 31.1238C247.866 31.4703 248.467 31.6436 249.171 31.6436C249.916 31.6436 250.522 31.4323 250.988 31.0097C251.242 30.7816 251.467 30.4646 251.662 30.059H255.361C255.268 30.8787 254.84 31.7112 254.077 32.5563C252.891 33.9001 251.23 34.572 249.094 34.572C247.332 34.572 245.777 34.0057 244.429 32.8733C243.082 31.7408 242.408 29.8984 242.408 27.3461C242.408 24.9544 243.014 23.1204 244.226 21.8443C245.446 20.5681 247.027 19.93 248.967 19.93Z" fill="#ffffff"/>
<path d="M265.517 19.9681C265.585 19.9681 265.64 19.9723 265.682 19.9807C265.733 19.9807 265.839 19.985 266 19.9934V23.6951C265.771 23.6697 265.568 23.6528 265.39 23.6444C265.212 23.6359 265.068 23.6317 264.958 23.6317C263.5 23.6317 262.522 24.105 262.022 25.0515C261.742 25.584 261.602 26.4038 261.602 27.5109V34.1156H257.954V20.2977H261.411V22.7063C261.971 21.7851 262.458 21.1555 262.873 20.8174C263.551 20.2512 264.432 19.9681 265.517 19.9681Z" fill="#ffffff"/>
</svg>
