<svg width="291" height="46" viewBox="0 0 291 46" fill="none" xmlns="http://www.w3.org/2000/svg">
<path d="M1 29.1828L21.4542 10.3038C25.9191 5.43967 36.7677 -2.82938 44.4425 3.0076C47.8817 5.25727 52.6966 12.3103 44.4425 22.525L21.4542 44.9609" stroke="white" stroke-width="2"/>
<path d="M54 29.1828L33.5458 10.3038C29.0809 5.43967 18.2323 -2.82938 10.5575 3.0076C7.11831 5.25727 2.30343 12.3103 10.5575 22.525L33.5458 44.9609" stroke="white" stroke-width="2"/>
<path d="M67.9653 15.0679H70.4189V22.4775H79.7451V15.0679H82.1987V33H79.7451V24.6138H70.4189V33H67.9653V15.0679ZM91.1221 19.6333C92.0498 19.6333 92.9491 19.853 93.8198 20.2925C94.6906 20.7238 95.3538 21.2853 95.8096 21.9771C96.249 22.6362 96.542 23.4053 96.6885 24.2842C96.8187 24.8864 96.8838 25.8467 96.8838 27.165H87.3013C87.342 28.4915 87.6553 29.5576 88.2412 30.3633C88.8271 31.1608 89.7345 31.5596 90.9634 31.5596C92.1108 31.5596 93.0264 31.1812 93.71 30.4243C94.1006 29.9849 94.3773 29.4762 94.54 28.8984H96.7007C96.6437 29.3786 96.4525 29.9157 96.127 30.5098C95.8096 31.0957 95.4515 31.5758 95.0527 31.9502C94.3854 32.6012 93.5594 33.0407 92.5747 33.2686C92.0457 33.3988 91.4476 33.4639 90.7803 33.4639C89.1527 33.4639 87.7733 32.8739 86.6421 31.6938C85.5109 30.5057 84.9453 28.8455 84.9453 26.7134C84.9453 24.6138 85.515 22.9089 86.6543 21.5986C87.7936 20.2884 89.2829 19.6333 91.1221 19.6333ZM94.6255 25.4194C94.536 24.4673 94.3285 23.7064 94.0029 23.1367C93.4007 22.0788 92.3957 21.5498 90.9878 21.5498C89.9787 21.5498 89.1323 21.916 88.4487 22.6484C87.7651 23.3727 87.403 24.2964 87.3623 25.4194H94.6255ZM101.278 29.521C101.278 30.1558 101.51 30.6562 101.974 31.0225C102.438 31.3887 102.987 31.5718 103.622 31.5718C104.395 31.5718 105.144 31.3927 105.868 31.0347C107.089 30.4406 107.699 29.4681 107.699 28.1172V26.3472C107.431 26.5181 107.085 26.6605 106.662 26.7744C106.238 26.8883 105.823 26.9697 105.417 27.0186L104.086 27.1895C103.288 27.2952 102.69 27.4621 102.292 27.6899C101.616 28.0724 101.278 28.6828 101.278 29.521ZM106.601 25.0776C107.105 25.0125 107.443 24.8009 107.614 24.4429C107.711 24.2476 107.76 23.9668 107.76 23.6006C107.76 22.8519 107.492 22.3107 106.955 21.9771C106.426 21.6353 105.665 21.4644 104.672 21.4644C103.524 21.4644 102.711 21.7736 102.23 22.3921C101.962 22.7339 101.787 23.2425 101.706 23.918H99.6548C99.6955 22.3066 100.216 21.1877 101.217 20.561C102.226 19.9263 103.394 19.6089 104.721 19.6089C106.259 19.6089 107.508 19.9019 108.468 20.4878C109.42 21.0737 109.896 21.9852 109.896 23.2222V30.7539C109.896 30.9818 109.941 31.1649 110.031 31.3032C110.128 31.4416 110.328 31.5107 110.629 31.5107C110.727 31.5107 110.836 31.5067 110.958 31.4985C111.081 31.4823 111.211 31.4619 111.349 31.4375V33.061C111.007 33.1587 110.747 33.2197 110.568 33.2441C110.389 33.2686 110.145 33.2808 109.835 33.2808C109.079 33.2808 108.529 33.0122 108.188 32.4751C108.008 32.1903 107.882 31.7874 107.809 31.2666C107.361 31.8525 106.719 32.3612 105.88 32.7925C105.042 33.2238 104.118 33.4395 103.109 33.4395C101.897 33.4395 100.904 33.0732 100.131 32.3408C99.3659 31.6003 98.9834 30.6766 98.9834 29.5698C98.9834 28.3573 99.3618 27.4173 100.119 26.75C100.875 26.0827 101.868 25.6717 103.097 25.5171L106.601 25.0776ZM113.571 15.0679H115.768V33H113.571V15.0679ZM119.516 16.2764H121.737V19.9263H123.825V21.7207H121.737V30.2534C121.737 30.7091 121.892 31.0143 122.201 31.1689C122.372 31.2585 122.657 31.3032 123.056 31.3032C123.161 31.3032 123.275 31.3032 123.397 31.3032C123.52 31.2951 123.662 31.2829 123.825 31.2666V33C123.572 33.0732 123.308 33.1261 123.031 33.1587C122.763 33.1912 122.47 33.2075 122.152 33.2075C121.127 33.2075 120.431 32.9471 120.065 32.4263C119.699 31.8973 119.516 31.2137 119.516 30.3755V21.7207H117.746V19.9263H119.516V16.2764ZM126.034 15.0068H128.231V21.6963C128.752 21.0371 129.22 20.5732 129.635 20.3047C130.343 19.8408 131.226 19.6089 132.284 19.6089C134.18 19.6089 135.466 20.2721 136.142 21.5986C136.508 22.3229 136.691 23.328 136.691 24.6138V33H134.433V24.7603C134.433 23.8 134.311 23.096 134.066 22.6484C133.668 21.9323 132.919 21.5742 131.82 21.5742C130.909 21.5742 130.083 21.8875 129.342 22.5142C128.602 23.1408 128.231 24.3249 128.231 26.0664V33H126.034V15.0068ZM148.117 19.9263H150.546C150.237 20.7645 149.549 22.6769 148.483 25.6636C147.685 27.9097 147.018 29.7407 146.481 31.1567C145.211 34.4933 144.316 36.5278 143.795 37.2603C143.275 37.9927 142.379 38.3589 141.11 38.3589C140.801 38.3589 140.561 38.3467 140.39 38.3223C140.227 38.2979 140.023 38.2531 139.779 38.188V36.186C140.162 36.2918 140.438 36.3569 140.609 36.3813C140.78 36.4058 140.931 36.418 141.061 36.418C141.468 36.418 141.765 36.3488 141.952 36.2104C142.147 36.0802 142.31 35.9175 142.44 35.7222C142.481 35.6571 142.628 35.3234 142.88 34.7212C143.132 34.119 143.315 33.6714 143.429 33.3784L138.595 19.9263H141.085L144.589 30.5708L148.117 19.9263ZM165.817 15.0068V18.1929H160.434V33H156.649V18.1929H151.242V15.0068H165.817ZM171.859 30.5464C172.877 30.5464 173.658 30.1842 174.203 29.46C174.748 28.7357 175.021 27.7062 175.021 26.3716C175.021 25.0369 174.748 24.0116 174.203 23.2954C173.658 22.5711 172.877 22.209 171.859 22.209C170.842 22.209 170.057 22.5711 169.503 23.2954C168.958 24.0116 168.686 25.0369 168.686 26.3716C168.686 27.7062 168.958 28.7357 169.503 29.46C170.057 30.1842 170.842 30.5464 171.859 30.5464ZM178.671 26.3716C178.671 28.3247 178.109 29.9971 176.986 31.3887C175.863 32.7721 174.158 33.4639 171.872 33.4639C169.585 33.4639 167.88 32.7721 166.757 31.3887C165.634 29.9971 165.072 28.3247 165.072 26.3716C165.072 24.451 165.634 22.7868 166.757 21.3789C167.88 19.971 169.585 19.2671 171.872 19.2671C174.158 19.2671 175.863 19.971 176.986 21.3789C178.109 22.7868 178.671 24.451 178.671 26.3716ZM186.886 30.1436C187.7 30.1436 188.388 29.8384 188.949 29.228C189.511 28.6095 189.792 27.6289 189.792 26.2861C189.792 25.0247 189.523 24.0645 188.986 23.4053C188.457 22.7461 187.745 22.4165 186.85 22.4165C185.629 22.4165 184.787 22.9902 184.323 24.1377C184.079 24.748 183.957 25.5008 183.957 26.396C183.957 27.1691 184.087 27.8568 184.347 28.459C184.819 29.582 185.666 30.1436 186.886 30.1436ZM186.02 19.377C186.687 19.377 187.269 19.4787 187.765 19.6821C188.611 20.0321 189.295 20.675 189.816 21.6108V19.6943H193.197V32.3164C193.197 34.0335 192.908 35.3275 192.331 36.1982C191.338 37.6956 189.433 38.4443 186.618 38.4443C184.917 38.4443 183.529 38.1107 182.455 37.4434C181.381 36.776 180.787 35.7791 180.673 34.4526H184.457C184.555 34.8595 184.713 35.1525 184.933 35.3315C185.307 35.6489 185.938 35.8076 186.825 35.8076C188.078 35.8076 188.917 35.3885 189.34 34.5503C189.617 34.0132 189.755 33.1099 189.755 31.8403V30.9858C189.421 31.5555 189.063 31.9827 188.681 32.2676C187.989 32.7965 187.09 33.061 185.983 33.061C184.274 33.061 182.907 32.4629 181.881 31.2666C180.864 30.0622 180.355 28.4346 180.355 26.3838C180.355 24.4062 180.848 22.7461 181.833 21.4033C182.817 20.0524 184.213 19.377 186.02 19.377ZM201.706 22.209C200.9 22.209 200.273 22.4613 199.826 22.9658C199.386 23.4704 199.11 24.154 198.996 25.0166H204.403C204.346 24.097 204.066 23.4012 203.561 22.9292C203.065 22.4491 202.446 22.209 201.706 22.209ZM201.706 19.3403C202.812 19.3403 203.809 19.5479 204.696 19.9629C205.583 20.3779 206.316 21.033 206.894 21.9282C207.414 22.7176 207.752 23.6331 207.907 24.6748C207.996 25.2852 208.033 26.1641 208.017 27.3115H198.91C198.959 28.6462 199.378 29.582 200.167 30.1191C200.648 30.4528 201.225 30.6196 201.901 30.6196C202.617 30.6196 203.199 30.4162 203.646 30.0093C203.891 29.7896 204.106 29.4844 204.293 29.0938H207.846C207.756 29.8831 207.345 30.6847 206.613 31.4985C205.473 32.7925 203.878 33.4395 201.828 33.4395C200.135 33.4395 198.642 32.8942 197.348 31.8037C196.054 30.7132 195.407 28.9391 195.407 26.4814C195.407 24.1784 195.989 22.4124 197.152 21.1836C198.324 19.9548 199.842 19.3403 201.706 19.3403ZM209.005 22.2944V19.8164H210.861V16.1055H214.303V19.8164H216.464V22.2944H214.303V29.3257C214.303 29.8709 214.372 30.2127 214.511 30.3511C214.649 30.4813 215.072 30.5464 215.78 30.5464C215.886 30.5464 215.996 30.5464 216.11 30.5464C216.232 30.5382 216.35 30.5301 216.464 30.522V33.1221L214.816 33.1831C213.172 33.2401 212.049 32.9552 211.447 32.3286C211.056 31.9299 210.861 31.3154 210.861 30.4854V22.2944H209.005ZM226.034 19.3525C226.856 19.3525 227.601 19.495 228.268 19.7798C228.944 20.0646 229.497 20.5 229.928 21.0859C230.294 21.5824 230.518 22.0951 230.6 22.624C230.681 23.1449 230.722 23.9993 230.722 25.1875V33H227.169V24.9067C227.169 24.1906 227.047 23.6128 226.803 23.1733C226.486 22.5549 225.884 22.2456 224.997 22.2456C224.077 22.2456 223.377 22.5549 222.897 23.1733C222.425 23.7837 222.189 24.6585 222.189 25.7979V33H218.722V15.0679H222.189V21.4277C222.694 20.6546 223.275 20.1175 223.935 19.8164C224.602 19.5072 225.302 19.3525 226.034 19.3525ZM239.23 22.209C238.424 22.209 237.798 22.4613 237.35 22.9658C236.911 23.4704 236.634 24.154 236.52 25.0166H241.928C241.871 24.097 241.59 23.4012 241.085 22.9292C240.589 22.4491 239.971 22.209 239.23 22.209ZM239.23 19.3403C240.337 19.3403 241.334 19.5479 242.221 19.9629C243.108 20.3779 243.84 21.033 244.418 21.9282C244.939 22.7176 245.277 23.6331 245.431 24.6748C245.521 25.2852 245.557 26.1641 245.541 27.3115H236.435C236.483 28.6462 236.903 29.582 237.692 30.1191C238.172 30.4528 238.75 30.6196 239.425 30.6196C240.141 30.6196 240.723 30.4162 241.171 30.0093C241.415 29.7896 241.631 29.4844 241.818 29.0938H245.37C245.281 29.8831 244.87 30.6847 244.137 31.4985C242.998 32.7925 241.403 33.4395 239.352 33.4395C237.659 33.4395 236.166 32.8942 234.872 31.8037C233.578 30.7132 232.931 28.9391 232.931 26.4814C232.931 24.1784 233.513 22.4124 234.677 21.1836C235.849 19.9548 237.366 19.3403 239.23 19.3403ZM255.124 19.377C255.189 19.377 255.242 19.381 255.282 19.3892C255.331 19.3892 255.433 19.3932 255.587 19.4014V22.9658C255.368 22.9414 255.172 22.9251 255.001 22.917C254.831 22.9089 254.692 22.9048 254.586 22.9048C253.187 22.9048 252.247 23.3605 251.767 24.272C251.498 24.7847 251.364 25.5741 251.364 26.6401V33H247.86V19.6943H251.181V22.0137C251.718 21.1266 252.186 20.5203 252.584 20.1948C253.236 19.6496 254.082 19.377 255.124 19.377Z" fill="white"/>
</svg>
