<?xml version="1.0" encoding="utf-8"?>
<svg id="Layer_1" data-name="Layer 1" viewBox="0 0 496 76" xmlns="http://www.w3.org/2000/svg">
  <defs>
    <style>.cls-1{fill:#15bebb;}.cls-2{fill:none;stroke:#3676e1;stroke-linecap:round;stroke-linejoin:round;stroke-width:0;}.cls-3{fill:#003269;}</style>
  </defs>
  <title>Artboard 2</title>
  <path class="cls-1" d="M 54.764 23.469 C 54.524 23.209 54.274 22.949 54.014 22.719 C 51.98 20.86 49.321 19.832 46.564 19.839 C 45.709 19.837 44.856 19.938 44.024 20.139 C 42.095 20.576 40.322 21.531 38.894 22.899 C 38.764 23.019 38.634 23.139 38.514 23.269 L 32.384 29.409 L 30.894 30.909 C 27.453 34.35 21.578 32.776 20.318 28.075 C 19.734 25.894 20.357 23.566 21.954 21.969 L 37.624 6.329 C 25.461 -5.598 4.947 0.114 0.699 16.612 C -1.233 24.116 0.9 32.085 6.324 37.619 C 9.764 34.178 15.638 35.751 16.899 40.45 C 17.042 40.985 17.115 41.536 17.114 42.089 L 17.114 42.089 C 17.114 43.532 18.281 44.704 19.724 44.709 C 23.216 44.709 26.049 47.537 26.054 51.029 L 26.054 51.029 C 26.049 52.479 27.225 53.655 28.674 53.649 C 32.165 53.649 34.994 56.479 34.994 59.969 L 34.994 59.969 C 34.994 61.415 36.169 62.585 37.614 62.579 C 41.105 62.579 43.934 65.409 43.934 68.899 L 43.934 68.899 C 43.929 67.456 45.101 66.284 46.544 66.289 L 46.544 66.289 C 50.047 66.306 52.894 63.472 52.894 59.969 L 52.894 59.969 C 52.889 58.526 54.061 57.354 55.504 57.359 L 55.504 57.359 C 58.995 57.359 61.824 54.53 61.824 51.039 L 61.824 51.039 C 61.819 49.596 62.991 48.424 64.434 48.429 L 64.434 48.429 C 69.3 48.439 72.35 43.178 69.926 38.96 C 69.644 38.469 69.297 38.018 68.894 37.619 Z"/>
  <path class="cls-2" d="M 38.554 23.269 C 38.674 23.139 38.804 23.019 38.934 22.899"/>
  <path class="cls-3" d="M 21.974 30.909 C 24.438 33.39 28.451 33.39 30.914 30.909 L 32.424 29.409 L 38.554 23.269 C 38.674 23.139 38.804 23.019 38.934 22.899 C 40.351 21.537 42.11 20.583 44.024 20.139 C 44.856 19.938 45.709 19.837 46.564 19.839 C 49.321 19.832 51.98 20.86 54.014 22.719 C 54.274 22.949 54.524 23.209 54.764 23.469 L 68.894 37.619 C 80.546 25.192 74.376 4.811 57.787 0.934 C 50.587 -0.749 43.022 1.275 37.624 6.329 L 37.624 6.329 L 21.974 21.969 C 19.505 24.438 19.505 28.441 21.974 30.909"/>
  <path class="cls-3" d="M 37.624 62.589 C 36.179 62.595 35.004 61.425 35.004 59.979 L 35.004 59.979 C 35.004 56.489 32.175 53.659 28.684 53.659 C 27.237 53.659 26.064 52.486 26.064 51.039 L 26.064 51.039 C 26.064 47.549 23.235 44.719 19.744 44.719 C 18.297 44.719 17.124 43.546 17.124 42.099 L 17.124 42.099 C 17.132 37.226 11.862 34.173 7.638 36.602 C 3.414 39.032 3.405 45.123 7.621 47.566 C 8.585 48.125 9.68 48.419 10.794 48.419 L 10.794 48.419 C 12.236 48.419 13.404 49.588 13.404 51.029 C 13.404 54.524 16.24 57.355 19.734 57.349 L 19.734 57.349 C 21.176 57.349 22.344 58.518 22.344 59.959 C 22.35 63.451 25.182 66.279 28.674 66.279 L 28.674 66.279 C 30.117 66.279 31.289 67.446 31.294 68.889 C 31.294 73.754 36.561 76.795 40.774 74.363 C 44.988 71.93 44.988 65.849 40.774 63.416 C 39.814 62.861 38.724 62.569 37.614 62.569"/>
  <polygon class="cls-3" points="131.334 41.199 109.524 41.199 109.524 59.139 102.744 59.139 102.744 17.139 132.714 17.139 132.714 23.559 109.524 23.559 109.524 34.779 131.334 34.779 131.334 41.199"/>
  <path class="cls-3" d="M 162.734 46.959 C 162.734 56.109 156.134 59.889 149.414 59.889 C 142.694 59.889 136.094 56.109 136.094 46.959 L 136.094 30.399 L 142.394 30.399 L 142.394 46.399 C 142.394 51.949 145.484 53.989 149.394 53.989 C 153.304 53.989 156.394 51.989 156.394 46.399 L 156.394 30.399 L 162.694 30.399 Z"/>
  <path class="cls-3" d="M 189.724 36.099 L 178.724 36.099 L 178.724 48.609 C 178.724 52.479 180.724 53.979 183.284 53.979 C 185.36 53.848 187.36 53.157 189.074 51.979 L 191.564 56.979 C 188.983 58.806 185.906 59.8 182.744 59.829 C 176.234 59.829 172.424 56.319 172.424 48.669 L 172.424 36.099 L 166.694 36.099 L 166.694 30.399 L 172.424 30.399 L 172.424 21.699 L 178.724 21.699 L 178.724 30.399 L 189.724 30.399 Z"/>
  <path class="cls-3" d="M 220.894 46.959 C 220.894 56.109 214.294 59.889 207.574 59.889 C 200.854 59.889 194.254 56.109 194.254 46.959 L 194.254 30.399 L 200.554 30.399 L 200.554 46.399 C 200.554 51.949 203.644 53.989 207.554 53.989 C 211.464 53.989 214.554 51.989 214.554 46.399 L 214.554 30.399 L 220.894 30.399 Z"/>
  <path class="cls-3" d="M 246.514 30.459 L 245.014 36.669 C 243.517 35.99 241.889 35.648 240.244 35.669 C 236.244 35.669 233.404 38.489 233.404 43.379 L 233.404 59.139 L 227.134 59.139 L 227.134 30.399 L 233.344 30.399 L 233.344 33.639 C 235.234 30.909 238.174 29.639 241.684 29.639 C 243.332 29.589 244.973 29.865 246.514 30.449"/>
  <path class="cls-3" d="M 274.964 44.739 C 274.964 45.549 274.904 46.359 274.844 47.079 L 253.604 47.079 C 254.444 52.239 258.074 54.399 262.154 54.399 C 265.179 54.342 268.101 53.288 270.464 51.399 L 273.584 55.869 C 270.279 58.626 266.065 60.052 261.764 59.869 C 253.154 59.869 247.064 53.869 247.064 44.749 C 247.064 35.629 252.894 29.649 261.374 29.649 C 269.374 29.649 274.934 35.769 274.964 44.739 M 253.634 42.309 L 268.544 42.309 C 267.854 37.839 265.244 35.229 261.254 35.229 C 256.784 35.229 254.254 38.109 253.634 42.309"/>
  <path class="cls-3" d="M 307.574 42.639 L 307.574 59.139 L 300.794 59.139 L 300.794 17.139 L 317.084 17.139 C 326.774 17.139 331.964 22.029 331.964 29.889 C 331.964 37.749 326.774 42.639 317.084 42.639 Z M 307.574 23.529 L 307.574 36.249 L 316.894 36.249 C 322.384 36.249 324.894 34.249 324.894 29.889 C 324.894 25.529 322.394 23.539 316.894 23.539 Z"/>
  <path class="cls-3" d="M 360.264 44.739 C 360.264 45.549 360.204 46.359 360.144 47.079 L 338.894 47.079 C 339.734 52.239 343.364 54.399 347.444 54.399 C 350.469 54.342 353.391 53.288 355.754 51.399 L 358.894 55.839 C 355.589 58.596 351.375 60.022 347.074 59.839 C 338.464 59.839 332.374 53.839 332.374 44.719 C 332.374 35.599 338.224 29.599 346.684 29.599 C 354.684 29.599 360.244 35.719 360.274 44.689 M 338.894 42.309 L 353.894 42.309 C 353.204 37.839 350.594 35.229 346.604 35.229 C 342.134 35.229 339.604 38.109 338.984 42.309"/>
  <path class="cls-3" d="M 385.414 30.459 L 383.894 36.669 C 382.397 35.99 380.769 35.648 379.124 35.669 C 375.124 35.669 372.284 38.489 372.284 43.379 L 372.284 59.139 L 366.014 59.139 L 366.014 30.399 L 372.224 30.399 L 372.224 33.639 C 374.114 30.909 377.054 29.639 380.564 29.639 C 382.212 29.589 383.853 29.865 385.394 30.449"/>
  <path class="cls-3" d="M 409.774 36.099 L 399.894 36.099 L 399.894 59.099 L 393.594 59.099 L 393.594 36.099 L 387.894 36.099 L 387.894 30.399 L 393.654 30.399 L 393.654 25.539 C 393.654 19.779 396.564 15.189 403.284 15.189 C 406.1 15.151 408.871 15.899 411.284 17.349 L 409.064 22.629 C 407.428 21.683 405.583 21.158 403.694 21.099 C 401.264 21.099 399.944 22.689 399.944 25.539 L 399.944 30.399 L 409.784 30.399 Z"/>
  <path class="cls-3" d="M 439.074 44.739 C 439.074 45.549 439.014 46.359 438.954 47.079 L 417.724 47.079 C 418.564 52.239 422.184 54.399 426.274 54.399 C 429.296 54.34 432.213 53.286 434.574 51.399 L 437.694 55.869 C 434.389 58.626 430.175 60.052 425.874 59.869 C 417.274 59.869 411.184 53.869 411.184 44.749 C 411.184 35.629 417.034 29.629 425.484 29.629 C 433.484 29.629 439.044 35.749 439.074 44.719 M 417.754 42.289 L 432.654 42.289 C 431.964 37.819 429.354 35.209 425.364 35.209 C 420.894 35.209 418.364 38.089 417.754 42.289"/>
  <path class="cls-3" d="M 467.894 34.239 L 463.894 38.539 C 462.096 36.646 459.606 35.563 456.994 35.539 C 452.164 35.539 448.504 39.319 448.504 44.749 C 448.504 50.179 452.164 53.959 456.994 53.959 C 459.639 53.887 462.158 52.815 464.044 50.959 L 467.894 55.299 C 465.168 58.34 461.237 60.02 457.154 59.889 C 448.004 59.889 442.034 53.379 442.034 44.769 C 442.034 36.159 448.034 29.649 457.154 29.649 C 461.239 29.507 465.174 31.189 467.894 34.239"/>
  <path class="cls-3" d="M 493.694 36.099 L 482.694 36.099 L 482.694 48.609 C 482.694 52.479 484.694 53.979 487.254 53.979 C 489.33 53.848 491.33 53.157 493.044 51.979 L 495.534 56.979 C 492.953 58.806 489.876 59.8 486.714 59.829 C 480.204 59.829 476.394 56.319 476.394 48.669 L 476.394 36.099 L 470.664 36.099 L 470.664 30.399 L 476.394 30.399 L 476.394 21.699 L 482.694 21.699 L 482.694 30.399 L 493.694 30.399 Z"/>
</svg>