<svg width="141" height="56" viewBox="0 0 141 56" fill="none" xmlns="http://www.w3.org/2000/svg">
<path d="M83.7258 39.366L72.4698 16.911H78.7828L85.0968 29.941L91.1368 16.911H97.9998L86.4698 39.366H83.7258ZM103.216 16.911H108.706V39.366H103.216V16.911ZM131.765 34.653H122.431L120.235 39.366H114.471L126 16.911H128.471L140.275 39.366H134.235L131.765 34.654V34.653ZM124.628 30.218H129.569L127.098 25.228L124.628 30.218Z" fill="white"/>
<path d="M27.7257 0C43.0977 0 55.4497 12.475 55.4497 28C55.4497 43.525 43.0977 56 27.7257 56V0Z" fill="white"/>
<path d="M27.7257 28L8.23575 47.96C-2.74525 36.871 -2.74525 19.129 8.23575 8.31702L27.7248 28H27.7257Z" fill="white"/>
</svg>
