<svg width="291" height="46" viewBox="0 0 291 46" fill="none" xmlns="http://www.w3.org/2000/svg">
<path d="M1 29.1828L21.4542 10.3038C25.9191 5.43967 36.7677 -2.82938 44.4425 3.0076C47.8817 5.25727 52.6966 12.3103 44.4425 22.525L21.4542 44.9609" stroke="#003269" stroke-width="2"/>
<path d="M54 29.1828L33.5458 10.3038C29.0809 5.43967 18.2323 -2.82938 10.5575 3.0076C7.11831 5.25727 2.30343 12.3103 10.5575 22.525L33.5458 44.9609" stroke="#003269" stroke-width="2"/>
<path d="M75.6558 14.604C77.3403 14.604 78.797 14.9295 80.0259 15.5806C81.8081 16.5164 82.8986 18.1562 83.2974 20.5H80.8926C80.5996 19.1898 79.9933 18.2376 79.0737 17.6436C78.1541 17.0413 76.9945 16.7402 75.5947 16.7402C73.9346 16.7402 72.5348 17.3628 71.3955 18.6079C70.2643 19.853 69.6987 21.7085 69.6987 24.1743C69.6987 26.3065 70.1667 28.0439 71.1025 29.3867C72.0384 30.7214 73.5643 31.3887 75.6802 31.3887C77.2996 31.3887 78.6383 30.9207 79.6963 29.9849C80.7624 29.0409 81.3076 27.519 81.332 25.4194H75.7168V23.4053H83.5903V33H82.0278L81.4419 30.6929C80.62 31.5962 79.8916 32.2228 79.2568 32.5728C78.1908 33.175 76.8358 33.4761 75.1919 33.4761C73.0679 33.4761 71.2409 32.7884 69.7109 31.4131C68.0426 29.6878 67.2085 27.3197 67.2085 24.3086C67.2085 21.3057 68.0223 18.9172 69.6499 17.1431C71.1961 15.4504 73.1981 14.604 75.6558 14.604ZM92.5137 19.6333C93.4414 19.6333 94.3407 19.853 95.2114 20.2925C96.0822 20.7238 96.7454 21.2853 97.2012 21.9771C97.6406 22.6362 97.9336 23.4053 98.0801 24.2842C98.2103 24.8864 98.2754 25.8467 98.2754 27.165H88.6929C88.7336 28.4915 89.0469 29.5576 89.6328 30.3633C90.2188 31.1608 91.1261 31.5596 92.355 31.5596C93.5024 31.5596 94.418 31.1812 95.1016 30.4243C95.4922 29.9849 95.7689 29.4762 95.9316 28.8984H98.0923C98.0353 29.3786 97.8441 29.9157 97.5186 30.5098C97.2012 31.0957 96.8431 31.5758 96.4443 31.9502C95.777 32.6012 94.951 33.0407 93.9663 33.2686C93.4373 33.3988 92.8392 33.4639 92.1719 33.4639C90.5443 33.4639 89.1649 32.8739 88.0337 31.6938C86.9025 30.5057 86.3369 28.8455 86.3369 26.7134C86.3369 24.6138 86.9066 22.9089 88.0459 21.5986C89.1852 20.2884 90.6745 19.6333 92.5137 19.6333ZM96.0171 25.4194C95.9276 24.4673 95.7201 23.7064 95.3945 23.1367C94.7923 22.0788 93.7873 21.5498 92.3794 21.5498C91.3703 21.5498 90.5239 21.916 89.8403 22.6484C89.1567 23.3727 88.7946 24.2964 88.7539 25.4194H96.0171ZM102.292 28.8984C102.357 29.6309 102.54 30.1924 102.841 30.583C103.394 31.291 104.354 31.645 105.722 31.645C106.535 31.645 107.252 31.4701 107.87 31.1201C108.489 30.762 108.798 30.2127 108.798 29.4722C108.798 28.9106 108.55 28.4834 108.053 28.1904C107.736 28.0114 107.109 27.8039 106.173 27.5679L104.428 27.1284C103.313 26.8517 102.491 26.5425 101.962 26.2007C101.018 25.6066 100.546 24.7847 100.546 23.7349C100.546 22.4979 100.989 21.4969 101.876 20.7319C102.772 19.967 103.972 19.5845 105.478 19.5845C107.447 19.5845 108.867 20.1623 109.738 21.3179C110.283 22.0503 110.548 22.8397 110.531 23.686H108.456C108.415 23.1896 108.24 22.738 107.931 22.3311C107.427 21.7533 106.552 21.4644 105.307 21.4644C104.477 21.4644 103.846 21.623 103.415 21.9404C102.991 22.2578 102.78 22.6769 102.78 23.1978C102.78 23.7674 103.061 24.2231 103.622 24.5649C103.948 24.7684 104.428 24.9474 105.062 25.1021L106.515 25.4561C108.094 25.8385 109.152 26.2088 109.689 26.5669C110.543 27.1284 110.971 28.0114 110.971 29.2158C110.971 30.3796 110.527 31.3846 109.64 32.231C108.761 33.0773 107.418 33.5005 105.612 33.5005C103.667 33.5005 102.287 33.061 101.474 32.1821C100.668 31.2951 100.237 30.2005 100.18 28.8984H102.292ZM115.683 19.9263V28.6055C115.683 29.2728 115.788 29.818 116 30.2412C116.391 31.0225 117.119 31.4131 118.185 31.4131C119.715 31.4131 120.757 30.7295 121.31 29.3623C121.611 28.6299 121.762 27.6248 121.762 26.3472V19.9263H123.959V33H121.884L121.908 31.0713C121.623 31.5677 121.269 31.9868 120.846 32.3286C120.008 33.0122 118.991 33.354 117.794 33.354C115.931 33.354 114.661 32.7314 113.986 31.4863C113.62 30.819 113.437 29.9279 113.437 28.813V19.9263H115.683ZM127.401 19.9263H129.489V21.7817C130.107 21.0168 130.762 20.4674 131.454 20.1338C132.146 19.8001 132.915 19.6333 133.761 19.6333C135.617 19.6333 136.87 20.2803 137.521 21.5742C137.879 22.2822 138.058 23.2954 138.058 24.6138V33H135.824V24.7603C135.824 23.9627 135.706 23.3198 135.47 22.8315C135.08 22.0177 134.372 21.6108 133.346 21.6108C132.825 21.6108 132.398 21.6637 132.064 21.7695C131.462 21.9486 130.933 22.3066 130.478 22.8438C130.111 23.2751 129.871 23.7227 129.757 24.1865C129.652 24.6423 129.599 25.2974 129.599 26.1519V33H127.401V19.9263ZM142.709 26.6157C142.709 28.0155 143.006 29.1873 143.6 30.1313C144.194 31.0754 145.146 31.5474 146.457 31.5474C147.474 31.5474 148.308 31.112 148.959 30.2412C149.618 29.3623 149.948 28.105 149.948 26.4692C149.948 24.8172 149.61 23.5965 148.935 22.8071C148.259 22.0096 147.425 21.6108 146.432 21.6108C145.325 21.6108 144.426 22.034 143.734 22.8804C143.051 23.7267 142.709 24.9718 142.709 26.6157ZM146.017 19.6943C147.018 19.6943 147.856 19.9059 148.532 20.3291C148.922 20.5732 149.366 21.0005 149.862 21.6108V15.0068H151.974V33H149.997V31.1812C149.484 31.9868 148.878 32.5687 148.178 32.9268C147.478 33.2848 146.676 33.4639 145.773 33.4639C144.316 33.4639 143.055 32.8535 141.989 31.6328C140.923 30.404 140.39 28.7723 140.39 26.7378C140.39 24.8335 140.874 23.1855 141.842 21.7939C142.819 20.3942 144.21 19.6943 146.017 19.6943ZM154.257 29.8262L163.546 18.1929H154.489V15.0068H168.234V18.022L158.822 29.8262H168.258V33H154.257V29.8262ZM173.996 19.6943V27.7144C173.996 28.4712 174.085 29.0409 174.264 29.4233C174.582 30.0988 175.204 30.4365 176.132 30.4365C177.32 30.4365 178.134 29.9564 178.573 28.9961C178.801 28.4753 178.915 27.7876 178.915 26.9331V19.6943H182.443V33H179.062V31.1201C179.029 31.1608 178.948 31.2829 178.817 31.4863C178.687 31.6898 178.533 31.8688 178.354 32.0234C177.808 32.5117 177.279 32.8454 176.767 33.0244C176.262 33.2035 175.668 33.293 174.984 33.293C173.015 33.293 171.688 32.585 171.005 31.1689C170.622 30.3877 170.431 29.2362 170.431 27.7144V19.6943H173.996ZM188.522 28.752C188.595 29.3704 188.754 29.8099 188.998 30.0703C189.429 30.5342 190.227 30.7661 191.391 30.7661C192.074 30.7661 192.615 30.6644 193.014 30.4609C193.421 30.2575 193.625 29.9523 193.625 29.5454C193.625 29.1548 193.462 28.8577 193.136 28.6543C192.811 28.4508 191.602 28.1009 189.511 27.6045C188.005 27.2301 186.943 26.7622 186.325 26.2007C185.706 25.6473 185.397 24.8498 185.397 23.8081C185.397 22.5793 185.877 21.5254 186.837 20.6465C187.806 19.7594 189.165 19.3159 190.915 19.3159C192.575 19.3159 193.926 19.6496 194.967 20.3169C196.017 20.9761 196.619 22.1195 196.774 23.7471H193.295C193.246 23.2995 193.12 22.9455 192.917 22.6851C192.534 22.2131 191.883 21.9771 190.963 21.9771C190.207 21.9771 189.665 22.0951 189.34 22.3311C189.022 22.5671 188.864 22.8438 188.864 23.1611C188.864 23.5599 189.035 23.8488 189.376 24.0278C189.718 24.215 190.927 24.5365 193.002 24.9922C194.385 25.3177 195.423 25.8101 196.115 26.4692C196.798 27.1366 197.14 27.9707 197.14 28.9717C197.14 30.29 196.648 31.3683 195.663 32.2065C194.687 33.0366 193.173 33.4517 191.122 33.4517C189.031 33.4517 187.484 33.0122 186.483 32.1333C185.491 31.2463 184.994 30.1191 184.994 28.752H188.522ZM207.064 26.5303C206.845 26.6686 206.621 26.7826 206.393 26.8721C206.173 26.9535 205.868 27.0308 205.478 27.104L204.696 27.2505C203.964 27.3807 203.439 27.5394 203.122 27.7266C202.584 28.0439 202.316 28.5363 202.316 29.2036C202.316 29.7977 202.479 30.229 202.804 30.4976C203.138 30.758 203.541 30.8882 204.013 30.8882C204.761 30.8882 205.449 30.6685 206.076 30.229C206.71 29.7896 207.04 28.988 207.064 27.8242V26.5303ZM204.953 24.9067C205.596 24.8254 206.055 24.7236 206.332 24.6016C206.828 24.39 207.077 24.0604 207.077 23.6128C207.077 23.0675 206.885 22.6932 206.503 22.4897C206.129 22.2782 205.575 22.1724 204.843 22.1724C204.021 22.1724 203.439 22.3758 203.097 22.7827C202.853 23.0838 202.69 23.4907 202.609 24.0034H199.252C199.325 22.8397 199.651 21.8835 200.229 21.1348C201.148 19.9629 202.727 19.377 204.965 19.377C206.422 19.377 207.715 19.6659 208.847 20.2437C209.978 20.8215 210.543 21.9119 210.543 23.5151V29.6187C210.543 30.0418 210.552 30.5545 210.568 31.1567C210.592 31.6125 210.661 31.9217 210.775 32.0845C210.889 32.2472 211.06 32.3815 211.288 32.4873V33H207.504C207.398 32.7314 207.325 32.4792 207.284 32.2432C207.243 32.0072 207.211 31.7386 207.187 31.4375C206.706 31.9583 206.153 32.4019 205.526 32.7681C204.778 33.1994 203.931 33.415 202.987 33.415C201.783 33.415 200.786 33.0732 199.997 32.3896C199.215 31.6979 198.825 30.7214 198.825 29.46C198.825 27.8242 199.455 26.6401 200.717 25.9077C201.409 25.509 202.426 25.2241 203.769 25.0532L204.953 24.9067ZM228.512 19.4014C229.098 19.4014 229.676 19.5153 230.246 19.7432C230.815 19.971 231.332 20.3698 231.796 20.9395C232.17 21.4033 232.423 21.973 232.553 22.6484C232.634 23.096 232.675 23.7511 232.675 24.6138L232.65 33H229.086V24.5283C229.086 24.0238 229.005 23.6087 228.842 23.2832C228.533 22.6647 227.963 22.3555 227.133 22.3555C226.173 22.3555 225.509 22.7542 225.143 23.5518C224.956 23.9749 224.862 24.4836 224.862 25.0776V33H221.359V25.0776C221.359 24.2882 221.278 23.7145 221.115 23.3564C220.822 22.7135 220.248 22.3921 219.394 22.3921C218.401 22.3921 217.733 22.7135 217.392 23.3564C217.204 23.7227 217.111 24.2679 217.111 24.9922V33H213.583V19.7188H216.964V21.6597C217.396 20.9679 217.803 20.4756 218.185 20.1826C218.861 19.6618 219.735 19.4014 220.81 19.4014C221.827 19.4014 222.649 19.6252 223.275 20.0728C223.78 20.4878 224.162 21.0208 224.423 21.6719C224.879 20.8906 225.444 20.3169 226.12 19.9507C226.836 19.5845 227.633 19.4014 228.512 19.4014ZM250.753 19.4014C251.339 19.4014 251.917 19.5153 252.487 19.7432C253.056 19.971 253.573 20.3698 254.037 20.9395C254.411 21.4033 254.664 21.973 254.794 22.6484C254.875 23.096 254.916 23.7511 254.916 24.6138L254.892 33H251.327V24.5283C251.327 24.0238 251.246 23.6087 251.083 23.2832C250.774 22.6647 250.204 22.3555 249.374 22.3555C248.414 22.3555 247.75 22.7542 247.384 23.5518C247.197 23.9749 247.104 24.4836 247.104 25.0776V33H243.6V25.0776C243.6 24.2882 243.519 23.7145 243.356 23.3564C243.063 22.7135 242.489 22.3921 241.635 22.3921C240.642 22.3921 239.975 22.7135 239.633 23.3564C239.446 23.7227 239.352 24.2679 239.352 24.9922V33H235.824V19.7188H239.206V21.6597C239.637 20.9679 240.044 20.4756 240.426 20.1826C241.102 19.6618 241.977 19.4014 243.051 19.4014C244.068 19.4014 244.89 19.6252 245.517 20.0728C246.021 20.4878 246.404 21.0208 246.664 21.6719C247.12 20.8906 247.685 20.3169 248.361 19.9507C249.077 19.5845 249.875 19.4014 250.753 19.4014ZM263.375 22.209C262.57 22.209 261.943 22.4613 261.496 22.9658C261.056 23.4704 260.779 24.154 260.666 25.0166H266.073C266.016 24.097 265.736 23.4012 265.231 22.9292C264.735 22.4491 264.116 22.209 263.375 22.209ZM263.375 19.3403C264.482 19.3403 265.479 19.5479 266.366 19.9629C267.253 20.3779 267.986 21.033 268.563 21.9282C269.084 22.7176 269.422 23.6331 269.577 24.6748C269.666 25.2852 269.703 26.1641 269.687 27.3115H260.58C260.629 28.6462 261.048 29.582 261.837 30.1191C262.318 30.4528 262.895 30.6196 263.571 30.6196C264.287 30.6196 264.869 30.4162 265.316 30.0093C265.561 29.7896 265.776 29.4844 265.963 29.0938H269.516C269.426 29.8831 269.015 30.6847 268.283 31.4985C267.143 32.7925 265.548 33.4395 263.498 33.4395C261.805 33.4395 260.312 32.8942 259.018 31.8037C257.724 30.7132 257.077 28.9391 257.077 26.4814C257.077 24.1784 257.659 22.4124 258.822 21.1836C259.994 19.9548 261.512 19.3403 263.375 19.3403ZM279.416 19.377C280.791 19.377 281.914 19.7391 282.785 20.4634C283.664 21.1795 284.103 22.3717 284.103 24.04V33H280.539V24.9067C280.539 24.2069 280.445 23.6698 280.258 23.2954C279.916 22.6118 279.265 22.27 278.305 22.27C277.125 22.27 276.315 22.7705 275.875 23.7715C275.648 24.3005 275.534 24.9759 275.534 25.7979V33H272.067V19.7188H275.424V21.6597C275.871 20.9761 276.295 20.4837 276.693 20.1826C277.41 19.6455 278.317 19.377 279.416 19.377Z" fill="#003269"/>
</svg>
