<svg width="368" height="200" viewBox="0 0 368 200" fill="none" xmlns="http://www.w3.org/2000/svg">
<rect width="368" height="200" rx="4" fill="#003269"/>
<path fill-rule="evenodd" clip-rule="evenodd" d="M78.1046 79.5796C73.7029 81.6045 69.6843 85.0449 67.3409 87.5979L67.3142 87.6268L45.2885 107.956L44 106.56L65.9682 86.284C68.4302 83.6089 72.6322 80.0059 77.3107 77.8538C81.9865 75.7028 87.3809 74.9062 91.9116 78.3328C93.9357 79.6674 96.3157 82.371 97.0136 86.2222C97.7214 90.1281 96.6697 95.0428 92.102 100.695L92.0668 100.739L67.3045 124.906L65.9777 123.547L90.6594 99.4581C94.9377 94.1453 95.7294 89.7898 95.1443 86.5609C94.5509 83.2865 92.5117 80.9953 90.8433 79.9039L90.8151 79.8855L90.7882 79.8651C87.0707 77.0378 82.5168 77.55 78.1046 79.5796Z" fill="white"/>
<path fill-rule="evenodd" clip-rule="evenodd" d="M68.1781 79.5796C72.5798 81.6045 76.5984 85.0449 78.9419 87.5979L78.9685 87.6268L100.994 107.956L102.283 106.56L80.3145 86.284C77.8526 83.6089 73.6505 80.0059 68.972 77.8538C64.2962 75.7028 58.9018 74.9062 54.3711 78.3328C52.347 79.6674 49.967 82.371 49.2691 86.2222C48.5613 90.1281 49.613 95.0428 54.1807 100.695L54.2159 100.739L78.9782 124.906L80.3051 123.547L55.6233 99.4581C51.345 94.1453 50.5533 89.7898 51.1384 86.5609C51.7318 83.2865 53.7711 80.9953 55.4394 79.9039L55.4677 79.8855L55.4945 79.8651C59.212 77.0378 63.7659 77.55 68.1781 79.5796Z" fill="white"/>
<path d="M126.005 90.8218C127.605 90.8218 128.988 91.131 130.156 91.7494C131.849 92.6384 132.884 94.196 133.263 96.4222H130.979C130.701 95.1777 130.125 94.2733 129.251 93.709C128.378 93.137 127.276 92.851 125.947 92.851C124.37 92.851 123.04 93.4423 121.958 94.625C120.884 95.8077 120.346 97.5701 120.346 99.9123C120.346 101.938 120.791 103.588 121.68 104.863C122.569 106.131 124.018 106.765 126.028 106.765C127.566 106.765 128.838 106.32 129.843 105.432C130.855 104.535 131.373 103.089 131.396 101.095H126.063V99.1818H133.541V108.295H132.057L131.501 106.104C130.72 106.962 130.028 107.557 129.425 107.89C128.413 108.462 127.126 108.748 125.564 108.748C123.547 108.748 121.811 108.094 120.358 106.788C118.773 105.149 117.981 102.9 117.981 100.04C117.981 97.1875 118.754 94.9187 120.3 93.2336C121.769 91.6258 123.67 90.8218 126.005 90.8218Z" fill="white"/>
<path d="M142.017 95.599C142.899 95.599 143.753 95.8077 144.58 96.2251C145.407 96.6348 146.037 97.1682 146.47 97.8252C146.887 98.4513 147.166 99.1818 147.305 100.017C147.428 100.589 147.49 101.501 147.49 102.753H138.388C138.427 104.013 138.724 105.026 139.281 105.791C139.838 106.548 140.699 106.927 141.867 106.927C142.957 106.927 143.826 106.568 144.475 105.849C144.847 105.432 145.109 104.948 145.264 104.4H147.316C147.262 104.856 147.081 105.366 146.771 105.93C146.47 106.487 146.13 106.943 145.751 107.298C145.117 107.917 144.332 108.334 143.397 108.551C142.895 108.674 142.327 108.736 141.693 108.736C140.147 108.736 138.836 108.176 137.762 107.055C136.688 105.926 136.15 104.349 136.15 102.324C136.15 100.33 136.691 98.7103 137.774 97.4658C138.856 96.2212 140.27 95.599 142.017 95.599ZM145.345 101.095C145.26 100.191 145.063 99.4678 144.754 98.9267C144.182 97.9218 143.227 97.4194 141.89 97.4194C140.931 97.4194 140.127 97.7672 139.478 98.4629C138.829 99.1509 138.485 100.028 138.446 101.095H145.345Z" fill="white"/>
<path d="M151.305 104.4C151.367 105.095 151.541 105.629 151.827 106C152.352 106.672 153.264 107.008 154.563 107.008C155.336 107.008 156.016 106.842 156.604 106.51C157.191 106.17 157.485 105.648 157.485 104.945C157.485 104.411 157.249 104.005 156.778 103.727C156.476 103.557 155.881 103.36 154.992 103.136L153.334 102.718C152.275 102.455 151.494 102.162 150.992 101.837C150.095 101.273 149.647 100.492 149.647 99.4949C149.647 98.3199 150.068 97.3691 150.911 96.6425C151.761 95.9159 152.901 95.5526 154.331 95.5526C156.202 95.5526 157.551 96.1014 158.378 97.1991C158.896 97.8948 159.147 98.6446 159.132 99.4485H157.16C157.122 98.977 156.956 98.548 156.662 98.1615C156.183 97.6126 155.352 97.3382 154.169 97.3382C153.38 97.3382 152.781 97.489 152.372 97.7904C151.97 98.0919 151.769 98.49 151.769 98.9847C151.769 99.5258 152.035 99.9587 152.569 100.283C152.878 100.477 153.334 100.647 153.937 100.794L155.317 101.13C156.816 101.493 157.821 101.845 158.332 102.185C159.143 102.718 159.549 103.557 159.549 104.701C159.549 105.806 159.128 106.761 158.285 107.565C157.45 108.369 156.175 108.771 154.459 108.771C152.611 108.771 151.301 108.353 150.528 107.519C149.763 106.676 149.353 105.636 149.299 104.4H151.305Z" fill="white"/>
<path d="M164.025 95.8773V104.121C164.025 104.755 164.125 105.273 164.326 105.675C164.697 106.417 165.389 106.788 166.402 106.788C167.855 106.788 168.844 106.139 169.37 104.84C169.656 104.144 169.799 103.19 169.799 101.976V95.8773H171.886V108.295H169.915L169.938 106.463C169.668 106.935 169.331 107.333 168.929 107.658C168.133 108.307 167.167 108.632 166.031 108.632C164.26 108.632 163.055 108.04 162.413 106.858C162.065 106.224 161.891 105.377 161.891 104.318V95.8773H164.025Z" fill="white"/>
<path d="M175.156 95.8773H177.139V97.6397C177.726 96.9131 178.348 96.3913 179.005 96.0744C179.662 95.7574 180.393 95.599 181.197 95.599C182.959 95.599 184.15 96.2135 184.768 97.4426C185.108 98.1151 185.278 99.0775 185.278 100.33V108.295H183.156V100.469C183.156 99.7113 183.044 99.1007 182.82 98.6369C182.449 97.8639 181.777 97.4774 180.803 97.4774C180.308 97.4774 179.902 97.5276 179.585 97.6281C179.013 97.7982 178.511 98.1383 178.078 98.6485C177.73 99.0581 177.502 99.4833 177.394 99.9239C177.293 100.357 177.243 100.979 177.243 101.791V108.295H175.156V95.8773Z" fill="white"/>
<path d="M189.696 102.231C189.696 103.561 189.978 104.674 190.542 105.571C191.107 106.467 192.011 106.916 193.256 106.916C194.222 106.916 195.014 106.502 195.633 105.675C196.259 104.84 196.572 103.646 196.572 102.092C196.572 100.523 196.251 99.3635 195.609 98.6137C194.968 97.8561 194.175 97.4774 193.232 97.4774C192.181 97.4774 191.327 97.8793 190.67 98.6832C190.021 99.4872 189.696 100.67 189.696 102.231ZM192.838 95.6569C193.789 95.6569 194.585 95.8579 195.227 96.2599C195.598 96.4918 196.019 96.8976 196.491 97.4774V91.2045H198.497V108.295H196.618V106.568C196.131 107.333 195.555 107.886 194.89 108.226C194.226 108.566 193.464 108.736 192.606 108.736C191.223 108.736 190.024 108.156 189.012 106.997C187.999 105.83 187.493 104.28 187.493 102.347C187.493 100.538 187.953 98.9731 188.873 97.6513C189.8 96.3217 191.122 95.6569 192.838 95.6569Z" fill="white"/>
<path d="M200.665 105.281L209.489 94.2308H200.885V91.2045H213.941V94.0684L205.001 105.281H213.964V108.295H200.665V105.281Z" fill="white"/>
<path d="M219.414 95.6569V103.275C219.414 103.994 219.499 104.535 219.669 104.898C219.97 105.54 220.562 105.861 221.443 105.861C222.572 105.861 223.345 105.404 223.762 104.492C223.978 103.998 224.087 103.344 224.087 102.533V95.6569H227.438V108.295H224.226V106.51C224.195 106.548 224.118 106.664 223.994 106.858C223.87 107.051 223.723 107.221 223.553 107.368C223.035 107.832 222.533 108.149 222.046 108.319C221.567 108.489 221.002 108.574 220.353 108.574C218.482 108.574 217.222 107.901 216.573 106.556C216.21 105.814 216.028 104.72 216.028 103.275V95.6569H219.414Z" fill="white"/>
<path d="M233.212 104.26C233.281 104.848 233.432 105.265 233.664 105.513C234.074 105.953 234.831 106.174 235.937 106.174C236.586 106.174 237.1 106.077 237.479 105.884C237.865 105.69 238.059 105.401 238.059 105.014C238.059 104.643 237.904 104.361 237.595 104.168C237.286 103.974 236.138 103.642 234.151 103.17C232.721 102.815 231.712 102.37 231.125 101.837C230.537 101.311 230.244 100.554 230.244 99.5645C230.244 98.3972 230.7 97.3962 231.612 96.5614C232.532 95.7188 233.823 95.2975 235.485 95.2975C237.061 95.2975 238.345 95.6144 239.334 96.2483C240.331 96.8744 240.903 97.9605 241.05 99.5065H237.746C237.699 99.0813 237.579 98.7451 237.386 98.4977C237.023 98.0494 236.404 97.8252 235.531 97.8252C234.812 97.8252 234.298 97.9373 233.989 98.1615C233.687 98.3856 233.537 98.6485 233.537 98.9499C233.537 99.3287 233.699 99.6031 234.024 99.7732C234.348 99.951 235.496 100.256 237.467 100.689C238.781 100.998 239.767 101.466 240.424 102.092C241.073 102.726 241.398 103.518 241.398 104.469C241.398 105.721 240.93 106.746 239.995 107.542C239.067 108.33 237.63 108.724 235.682 108.724C233.695 108.724 232.226 108.307 231.276 107.472C230.332 106.63 229.861 105.559 229.861 104.26H233.212Z" fill="white"/>
<path d="M250.825 102.15C250.616 102.282 250.403 102.39 250.187 102.475C249.978 102.552 249.688 102.626 249.317 102.695L248.575 102.834C247.88 102.958 247.381 103.109 247.079 103.286C246.569 103.588 246.314 104.056 246.314 104.689C246.314 105.254 246.469 105.663 246.778 105.919C247.095 106.166 247.478 106.29 247.926 106.29C248.637 106.29 249.29 106.081 249.885 105.663C250.488 105.246 250.801 104.485 250.825 103.379V102.15ZM248.819 100.608C249.429 100.531 249.866 100.434 250.129 100.318C250.601 100.117 250.836 99.8041 250.836 99.3789C250.836 98.861 250.655 98.5054 250.291 98.3122C249.936 98.1112 249.41 98.0107 248.714 98.0107C247.934 98.0107 247.381 98.204 247.056 98.5905C246.824 98.8765 246.67 99.263 246.593 99.75H243.404C243.473 98.6446 243.783 97.7363 244.331 97.0252C245.205 95.912 246.705 95.3555 248.83 95.3555C250.214 95.3555 251.443 95.6299 252.518 96.1787C253.592 96.7275 254.129 97.7634 254.129 99.2862V105.084C254.129 105.486 254.137 105.973 254.152 106.545C254.176 106.978 254.241 107.271 254.35 107.426C254.458 107.58 254.62 107.708 254.837 107.808V108.295H251.242C251.142 108.04 251.072 107.801 251.033 107.577C250.995 107.352 250.964 107.097 250.941 106.811C250.485 107.306 249.959 107.727 249.364 108.075C248.653 108.485 247.849 108.69 246.952 108.69C245.808 108.69 244.861 108.365 244.111 107.716C243.369 107.059 242.998 106.131 242.998 104.933C242.998 103.379 243.597 102.254 244.795 101.559C245.452 101.18 246.419 100.909 247.694 100.747L248.819 100.608Z" fill="white"/>
<path d="M271.197 95.3787C271.754 95.3787 272.302 95.4869 272.844 95.7033C273.385 95.9198 273.876 96.2985 274.316 96.8396C274.672 97.2802 274.911 97.8213 275.035 98.4629C275.112 98.8881 275.151 99.5103 275.151 100.33L275.128 108.295H271.742V100.249C271.742 99.7693 271.665 99.3751 271.51 99.0659C271.216 98.4784 270.675 98.1847 269.887 98.1847C268.975 98.1847 268.345 98.5634 267.997 99.321C267.819 99.7229 267.73 100.206 267.73 100.77V108.295H264.402V100.77C264.402 100.021 264.325 99.4756 264.171 99.1354C263.892 98.5248 263.347 98.2194 262.536 98.2194C261.593 98.2194 260.959 98.5248 260.634 99.1354C260.456 99.4833 260.367 100.001 260.367 100.689V108.295H257.016V95.6801H260.228V97.5237C260.638 96.8667 261.024 96.399 261.388 96.1207C262.029 95.626 262.86 95.3787 263.881 95.3787C264.847 95.3787 265.628 95.5912 266.223 96.0164C266.702 96.4106 267.065 96.9169 267.313 97.5353C267.746 96.7933 268.283 96.2483 268.924 95.9004C269.605 95.5526 270.362 95.3787 271.197 95.3787Z" fill="white"/>
<path d="M292.323 95.3787C292.88 95.3787 293.429 95.4869 293.97 95.7033C294.511 95.9198 295.002 96.2985 295.442 96.8396C295.798 97.2802 296.037 97.8213 296.161 98.4629C296.238 98.8881 296.277 99.5103 296.277 100.33L296.254 108.295H292.868V100.249C292.868 99.7693 292.791 99.3751 292.636 99.0659C292.342 98.4784 291.801 98.1847 291.013 98.1847C290.101 98.1847 289.471 98.5634 289.123 99.321C288.945 99.7229 288.856 100.206 288.856 100.77V108.295H285.528V100.77C285.528 100.021 285.451 99.4756 285.297 99.1354C285.018 98.5248 284.473 98.2194 283.662 98.2194C282.719 98.2194 282.085 98.5248 281.76 99.1354C281.582 99.4833 281.493 100.001 281.493 100.689V108.295H278.142V95.6801H281.354V97.5237C281.764 96.8667 282.15 96.399 282.514 96.1207C283.155 95.626 283.986 95.3787 285.007 95.3787C285.973 95.3787 286.754 95.5912 287.349 96.0164C287.828 96.4106 288.191 96.9169 288.439 97.5353C288.872 96.7933 289.409 96.2483 290.051 95.9004C290.731 95.5526 291.488 95.3787 292.323 95.3787Z" fill="white"/>
<path d="M304.312 98.0455C303.547 98.0455 302.952 98.2851 302.527 98.7644C302.109 99.2437 301.846 99.893 301.738 100.712H306.875C306.821 99.8389 306.554 99.178 306.075 98.7296C305.603 98.2735 305.016 98.0455 304.312 98.0455ZM304.312 95.3207C305.364 95.3207 306.311 95.5178 307.153 95.912C307.996 96.3063 308.691 96.9285 309.24 97.7788C309.735 98.5286 310.056 99.3983 310.203 100.388C310.288 100.967 310.322 101.802 310.307 102.892H301.657C301.703 104.16 302.102 105.049 302.851 105.559C303.307 105.876 303.856 106.034 304.498 106.034C305.178 106.034 305.731 105.841 306.156 105.455C306.388 105.246 306.593 104.956 306.77 104.585H310.145C310.06 105.335 309.669 106.096 308.974 106.869C307.891 108.098 306.376 108.713 304.428 108.713C302.82 108.713 301.402 108.195 300.173 107.159C298.944 106.123 298.329 104.438 298.329 102.104C298.329 99.9162 298.882 98.2388 299.987 97.0715C301.101 95.9043 302.542 95.3207 304.312 95.3207Z" fill="white"/>
<path d="M319.548 95.3555C320.855 95.3555 321.921 95.6995 322.748 96.3874C323.583 97.0677 324.001 98.2001 324.001 99.7848V108.295H320.615V100.608C320.615 99.9432 320.526 99.433 320.348 99.0775C320.024 98.4281 319.405 98.1035 318.493 98.1035C317.372 98.1035 316.603 98.5789 316.186 99.5297C315.969 100.032 315.861 100.674 315.861 101.454V108.295H312.568V95.6801H315.757V97.5237C316.182 96.8744 316.584 96.4068 316.962 96.1207C317.643 95.6106 318.505 95.3555 319.548 95.3555Z" fill="white"/>
</svg>
