<?xml version="1.0" encoding="UTF-8"?>
<svg width="190px" height="98px" viewBox="0 0 190 98" version="1.1" xmlns="http://www.w3.org/2000/svg" xmlns:xlink="http://www.w3.org/1999/xlink">
  <!-- Generator: Sketch 45.2 (43514) - http://www.bohemiancoding.com/sketch -->
  <title>c/atoms/logo/bcgdv/hero/dark</title>
  <desc>Created with Sketch.</desc>
  <defs></defs>
  <g id="c/atoms" stroke="none" stroke-width="1" fill="none" fill-rule="evenodd">
    <g id="c/atoms/logo/bcgdv/hero/dark" fill="#464646">
      <g id="bcgdv-logo-hero-dark" transform="translate(0.000000, 1.000000)">
        <path d="M86.6957413,14.8520983 C86.6957413,13.9620232 85.961972,13.2412794 85.0563903,13.2412794 C84.6420557,13.2412794 84.2630759,13.3913826 83.9746544,13.6407277 L83.9424008,13.6680192 L78.5703164,18.3274232 L78.5610124,18.3354866 C78.5188347,18.3776644 78.4741758,18.4161206 78.4282765,18.4514755 C78.1491588,18.6691873 77.7949896,18.7994422 77.4110477,18.7994422 C77.1356516,18.7994422 76.8763823,18.732454 76.6481261,18.613984 C76.6102902,18.5953762 76.5749353,18.5749076 76.5389601,18.5519579 L76.3076026,18.4210827 L44.2748204,0.245561508 L44.1848825,0.194700069 C44.1830217,0.192839285 44.1811609,0.191598762 44.1786799,0.190978501 C43.9485629,0.068166734 43.6843315,-6.20253166e-05 43.4039733,-6.20253166e-05 C43.0926021,-6.20253166e-05 42.8010792,0.084913793 42.5535949,0.232536018 L42.5504936,0.226953665 L0.85900008,23.8818645 C0.835430145,23.89489 0.812480471,23.9079155 0.789530798,23.9215612 C0.315651052,24.2044005 -6.2025316e-05,24.7161161 -6.2025316e-05,25.3004024 L-6.2025316e-05,82.9053236 C-6.2025316e-05,83.7953988 0.733707268,84.5173831 1.63928898,84.5173831 C2.03563605,84.5173831 2.39972952,84.3790648 2.68256874,84.1483276 L2.75265828,84.0881622 L8.17250281,79.3872007 L8.17498386,79.390302 C8.46650674,79.1297922 8.85354988,78.9710053 9.27780871,78.9710053 C9.55506558,78.9710053 9.81557539,79.0386138 10.0444519,79.1583242 C10.0729839,79.1725902 10.1015159,79.1880968 10.1275669,79.2048438 C10.132529,79.2067046 10.1362506,79.2091857 10.1399721,79.212287 L10.3806336,79.3487445 L42.5374681,97.5943552 L42.6193426,97.6408748 C42.6193426,97.6414951 42.6199628,97.6414951 42.6212034,97.6414951 C42.8531811,97.7661677 43.1192733,97.8362572 43.4021125,97.8362572 C43.6545589,97.8362572 43.8946001,97.7798134 44.1073498,97.6799513 C44.1098308,97.6787108 44.1116916,97.6787108 44.1123119,97.6780905 L44.3275426,97.5552788 L85.7461211,74.0541928 L85.9960864,73.9127732 C86.419725,73.6212503 86.6957413,73.1386869 86.6957413,72.5928568 L86.6976021,72.5928568 L86.6976021,14.8520983 L86.6957413,14.8520983 Z M76.3076026,66.7276645 L76.3014,66.7276645 C76.3014,67.2716338 76.0266242,67.7529567 75.6060869,68.0444796 C75.5266934,68.0996829 75.4423379,68.1468227 75.354881,68.1865195 L44.3002511,85.8069067 C44.2990106,85.8075269 44.2983903,85.8087675 44.2971498,85.8087675 C44.2357439,85.8497047 44.1706165,85.8863001 44.1042485,85.9179335 C44.1011472,85.9197943 44.0974256,85.921655 44.093704,85.9235158 C43.8784733,86.025859 43.6378119,86.0823028 43.3828844,86.0823028 C43.1000452,86.0823028 42.8345733,86.011593 42.6025955,85.8875407 C42.6001145,85.8875407 42.5982537,85.8863001 42.5976334,85.8844394 C42.5709622,85.8707936 42.5449112,85.8559073 42.5188602,85.8404008 L18.3640187,72.1357241 L18.1928265,72.0371025 C17.9726337,71.9297973 17.7245291,71.8696319 17.4621585,71.8696319 C17.0378997,71.8696319 16.6514768,72.0277986 16.3599539,72.2876882 L16.3593337,72.2864476 L13.1991016,75.0280032 C13.1376957,75.0900294 13.0713277,75.1464732 13.0018584,75.1991954 L12.9993774,75.2010562 C12.7258421,75.4001601 12.3865591,75.5192503 12.0199846,75.5192503 C11.1144029,75.5192503 10.3806336,74.7966457 10.3806336,73.9071908 L10.3806336,31.3746228 C10.3738107,31.318179 10.3713296,31.2604947 10.3713296,31.2021901 C10.3713296,31.1438855 10.3738107,31.0862012 10.3806336,31.0297574 C10.4333558,30.5378901 10.7124734,30.11053 11.1144029,29.8525012 C11.1627833,29.8208679 11.2124042,29.7923358 11.2645061,29.7675254 L42.5560759,12.0125414 L42.5597975,12.0193643 C42.8079021,11.8711218 43.0981844,11.7855257 43.4095557,11.7855257 C43.6923949,11.7855257 43.958487,11.8562356 44.1904648,11.9802878 L44.1917054,11.9790473 L68.2597103,25.6347234 L68.5028528,25.7736619 C68.714362,25.8722835 68.9506816,25.9268665 69.2000267,25.9268665 C69.5610188,25.9268665 69.893479,25.8127384 70.1645332,25.6192168 L70.3952705,25.4188724 L73.568528,22.6667723 L73.568528,22.6673926 C73.8600509,22.4081233 74.2464738,22.2493364 74.6713529,22.2493364 C75.544681,22.2493364 76.2573614,22.919839 76.3076026,23.7658756 C76.3094634,23.7968887 76.3107039,23.8291423 76.3107039,23.8607756 C76.3107039,23.8924089 76.3094634,23.9246625 76.3076026,23.9550554 L76.3076026,30.2010881 L76.3076026,66.7276645 Z" id="Fill-1"></path>
        <path d="M111.674042,18.9102209 C114.406294,18.9102209 116.376864,19.8455752 116.376864,22.2608732 C116.376864,23.695538 115.586651,24.6761713 114.415598,25.0756197 C115.716906,25.4936759 116.655362,26.5102844 116.655362,28.0907106 C116.655362,30.5605917 114.796438,31.6230995 111.915944,31.6230995 L106.636899,31.6230995 L106.636899,18.9102209 L111.674042,18.9102209 Z M108.13359,20.281619 L108.13359,24.4944347 L111.627522,24.4944347 C113.421318,24.4944347 114.805742,24.0769988 114.805742,22.3700392 C114.805742,20.7083588 113.412015,20.281619 111.618218,20.281619 L108.13359,20.281619 Z M108.13359,25.8565288 L108.13359,30.2517015 L111.850817,30.2517015 C113.802159,30.2517015 115.08486,29.752391 115.08486,28.0454315 C115.08486,26.3564596 113.802159,25.8565288 111.850817,25.8565288 L108.13359,25.8565288 Z" id="Fill-4"></path>
        <path d="M130.583208,21.3619903 L129.337723,22.1794949 C128.483003,20.9172629 126.995616,20.1363537 125.276251,20.1363537 C122.358542,20.1363537 120.128081,22.2067864 120.128081,25.2665362 C120.128081,28.3269061 122.358542,30.3973389 125.276251,30.3973389 C126.995616,30.3973389 128.463775,29.6344173 129.337723,28.3628813 L130.545993,29.2349689 C129.467978,30.8240787 127.516636,31.8047121 125.276251,31.8047121 C121.410782,31.8047121 118.557579,29.0805238 118.557579,25.2665362 C118.557579,21.4525485 121.410782,18.7283602 125.276251,18.7283602 C127.544548,18.7283602 129.561018,19.7276014 130.583208,21.3619903" id="Fill-6"></path>
        <path d="M143.702606,20.8625558 L142.59668,21.8977722 C141.676833,20.8079728 140.273801,20.1362297 138.656159,20.1362297 C135.738449,20.1362297 133.507989,22.2066624 133.507989,25.2664121 C133.507989,28.3267821 135.738449,30.3972148 138.591032,30.3972148 C141.341891,30.3972148 143.042648,28.7988011 143.275246,26.1930827 L139.223078,26.1930827 L139.223078,24.8309886 L144.892268,24.8309886 C144.901572,24.9581422 144.910876,25.0852958 144.910876,25.2031454 C144.910876,28.9079671 142.513565,31.7952841 138.591032,31.7952841 C135.17153,31.7952841 131.937487,29.379986 131.937487,25.2664121 C131.937487,21.4437408 134.817981,18.7288564 138.656159,18.7288564 C140.719149,18.7288564 142.513565,19.5277532 143.702606,20.8625558" id="Fill-8"></path>
        <path d="M112.407873,37.6610966 C116.898566,37.6610966 119.861555,40.4460705 119.861555,44.6731523 C119.861555,48.9002341 116.898566,51.685208 112.407873,51.685208 L106.707671,51.685208 L106.707671,37.6610966 L112.407873,37.6610966 Z M109.024967,39.8047202 L109.024967,49.5415844 L112.407873,49.5415844 C115.780855,49.5415844 117.431371,47.4978229 117.431371,44.6731523 C117.431371,41.8180888 115.780855,39.8047202 112.407873,39.8047202 L109.024967,39.8047202 Z" id="Fill-10"></path>
        <path d="M124.750394,38.7729773 C124.750394,39.6041276 124.084233,40.2355538 123.233234,40.2355538 C122.382236,40.2355538 121.736543,39.6041276 121.736543,38.7729773 C121.736543,37.9412067 122.382236,37.2905524 123.233234,37.2905524 C124.084233,37.2905524 124.750394,37.9412067 124.750394,38.7729773 L124.750394,38.7729773 Z M122.167005,51.6855801 L124.319932,51.6855801 L124.319932,42.088895 L122.167005,42.088895 L122.167005,51.6855801 Z" id="Fill-12"></path>
        <path d="M134.18395,43.2407205 L134.18395,42.088895 L136.336878,42.088895 L136.336878,51.0144572 C136.336878,54.0295481 134.348319,55.8828893 131.067136,55.8828893 C129.601459,55.8828893 127.99188,55.4921246 126.956664,54.7707606 L127.735712,52.9974331 C128.729991,53.5885422 129.868171,53.9693828 131.067136,53.9693828 C133.076784,53.9693828 134.18395,52.8876468 134.18395,51.1043951 L134.18395,50.3327899 C133.445839,51.2544984 132.338672,51.735201 130.913932,51.735201 C128.667965,51.735201 126.361833,49.8924043 126.361833,46.7867552 C126.361833,43.6817264 128.667965,41.8383094 130.913932,41.8383094 C132.338672,41.8383094 133.445839,42.3289362 134.18395,43.2407205 M128.565622,46.7867552 C128.565622,48.399435 129.65232,49.7621494 131.467205,49.7621494 C133.199595,49.7621494 134.368788,48.4695245 134.368788,46.7867552 C134.368788,45.1039859 133.199595,43.8119813 131.467205,43.8119813 C129.65232,43.8119813 128.565622,45.1641512 128.565622,46.7867552" id="Fill-14"></path>
        <path d="M141.673421,38.7729773 C141.673421,39.6041276 141.00726,40.2355538 140.156262,40.2355538 C139.305263,40.2355538 138.659571,39.6041276 138.659571,38.7729773 C138.659571,37.9412067 139.305263,37.2905524 140.156262,37.2905524 C141.00726,37.2905524 141.673421,37.9412067 141.673421,38.7729773 L141.673421,38.7729773 Z M139.090032,51.6855801 L141.24296,51.6855801 L141.24296,42.088895 L139.090032,42.088895 L139.090032,51.6855801 Z" id="Fill-16"></path>
        <path d="M150.658094,43.9920432 L146.895588,43.9920432 L146.895588,48.169504 C146.895588,49.4615086 147.592762,49.9626799 148.453685,49.9626799 C149.120466,49.9626799 149.848033,49.6717773 150.432319,49.3114054 L151.283318,50.9842505 C150.493725,51.5052701 149.499446,51.9357316 148.269467,51.9357316 C146.04459,51.9357316 144.742661,50.7634374 144.742661,48.2092008 L144.742661,43.9920432 L142.784495,43.9920432 L142.784495,42.0890811 L144.742661,42.0890811 L144.742661,39.1837764 L146.895588,39.1837764 L146.895588,42.0890811 L150.658094,42.0890811 L150.658094,43.9920432 Z" id="Fill-18"></path>
        <path d="M161.922476,51.685332 L159.780093,51.685332 L159.780093,50.5335065 C159.103388,51.3851255 158.08802,51.9359176 156.693672,51.9359176 C153.946534,51.9359176 151.783062,49.8220666 151.783062,46.8869894 C151.783062,43.9519123 153.946534,41.8380613 156.693672,41.8380613 C158.08802,41.8380613 159.103388,42.3993979 159.780093,43.2510168 L159.780093,42.0886469 L161.922476,42.0886469 L161.922476,51.685332 Z M153.987472,46.8869894 C153.987472,48.5697588 155.104562,49.9622457 156.950461,49.9622457 C158.723788,49.9622457 159.913449,48.6398483 159.913449,46.8869894 C159.913449,45.1341306 158.723788,43.8117332 156.950461,43.8117332 C155.104562,43.8117332 153.987472,45.2042201 153.987472,46.8869894 L153.987472,46.8869894 Z" id="Fill-20"></path>
        <polygon id="Fill-23" points="164.658946 51.6851459 166.811873 51.6851459 166.811873 37.2603457 164.658946 37.2603457"></polygon>
        <polygon id="Fill-24" points="114.253213 71.7476885 111.362175 71.7476885 105.887747 57.7235772 108.358248 57.7235772 112.828473 69.4539617 117.32909 57.7235772 119.728261 57.7235772"></polygon>
        <path d="M128.992548,66.9394218 C128.992548,67.2098558 128.972079,67.4802898 128.951611,67.7209512 L121.693311,67.7209512 C121.980492,69.4440375 123.221015,70.1647813 124.614743,70.1647813 C125.599098,70.1647813 126.644858,69.7845611 127.45492,69.1531349 L128.521149,70.6461042 C127.321564,71.6478264 125.968773,71.9982742 124.482007,71.9982742 C121.539486,71.9982742 119.458509,69.9948297 119.458509,66.949346 C119.458509,63.9441793 121.457612,61.9004178 124.34865,61.9004178 C127.095788,61.9004178 128.982624,63.9441793 128.992548,66.9394218 M121.703856,66.1281198 L126.798683,66.1281198 C126.562984,64.6351505 125.671048,63.7636832 124.307713,63.7636832 C122.780009,63.7636832 121.929011,64.7257087 121.703856,66.1281198" id="Fill-25"></path>
        <path d="M140.263257,65.7172586 L140.263257,71.7474404 L138.110329,71.7474404 L138.110329,66.4082299 C138.110329,64.7955501 137.259331,63.8943102 135.824046,63.8943102 C134.440242,63.8943102 133.281594,64.7856259 133.281594,66.4286985 L133.281594,71.7474404 L131.128666,71.7474404 L131.128666,62.1513756 L133.261125,62.1513756 L133.261125,63.3230494 C134.050098,62.1910723 135.270152,61.9007899 136.274976,61.9007899 C138.612741,61.9007899 140.263257,63.4731527 140.263257,65.7172586" id="Fill-27"></path>
        <path d="M149.534491,64.0543997 L145.771985,64.0543997 L145.771985,68.2318606 C145.771985,69.5238652 146.469159,70.0244162 147.330081,70.0244162 C147.996863,70.0244162 148.724429,69.7341338 149.308715,69.3737619 L150.159714,71.046607 C149.370121,71.5676266 148.375842,71.9980881 147.145864,71.9980881 C144.920986,71.9980881 143.619057,70.8257939 143.619057,68.2715573 L143.619057,64.0543997 L141.660892,64.0543997 L141.660892,62.1514376 L143.619057,62.1514376 L143.619057,59.246133 L145.771985,59.246133 L145.771985,62.1514376 L149.534491,62.1514376 L149.534491,64.0543997 Z" id="Fill-29"></path>
        <path d="M160.337584,67.6806342 C160.337584,70.7360421 158.082314,71.9982742 155.785486,71.9982742 C153.478733,71.9982742 151.234007,70.7360421 151.234007,67.6806342 L151.234007,62.1510034 L153.386314,62.1510034 L153.386314,67.490214 C153.386314,69.3435552 154.442619,70.0246022 155.785486,70.0246022 C157.128972,70.0246022 158.184657,69.3435552 158.184657,67.490214 L158.184657,62.1510034 L160.337584,62.1510034 L160.337584,67.6806342 Z" id="Fill-31"></path>
        <path d="M169.610927,62.1710999 L169.097971,64.2446339 C168.647041,64.0145169 167.990804,63.8941862 167.467924,63.8941862 C166.104589,63.8941862 165.130779,64.8357431 165.130779,66.4688915 L165.130779,71.7479366 L162.987775,71.7479366 L162.987775,62.1512515 L165.11031,62.1512515 L165.11031,63.2329875 C165.756002,62.3212032 166.760826,61.9006659 167.960411,61.9006659 C168.616028,61.9006659 169.11906,61.9806796 169.610927,62.1710999" id="Fill-33"></path>
        <path d="M179.835565,66.9394218 C179.835565,67.2098558 179.815096,67.4802898 179.794628,67.7209512 L172.536328,67.7209512 C172.822889,69.4440375 174.063412,70.1647813 175.45776,70.1647813 C176.442115,70.1647813 177.487875,69.7845611 178.297937,69.1531349 L179.364166,70.6461042 C178.164581,71.6478264 176.81117,71.9982742 175.325024,71.9982742 C172.382503,71.9982742 170.300906,69.9948297 170.300906,66.949346 C170.300906,63.9441793 172.300629,61.9004178 175.191667,61.9004178 C177.938805,61.9004178 179.82502,63.9441793 179.835565,66.9394218 M172.546252,66.1281198 L177.6417,66.1281198 C177.406001,64.6351505 176.514065,63.7636832 175.15073,63.7636832 C173.623026,63.7636832 172.772028,64.7257087 172.546252,66.1281198" id="Fill-35"></path>
        <path d="M188.641541,64.5552608 C188.04733,64.1948889 186.826656,63.7340347 185.606601,63.7340347 C184.438029,63.7340347 183.751399,64.1948889 183.751399,64.875936 C183.751399,65.5470589 184.469042,65.7374792 185.371522,65.8677341 L186.38627,66.0178373 C188.528653,66.3180439 189.800189,67.2099798 189.800189,68.8524322 C189.800189,70.6958492 188.159598,71.9878538 185.329965,71.9878538 C184.315217,71.9878538 182.551814,71.7980538 181.116529,70.7560145 L182.110808,69.1830315 C182.818526,69.7139753 183.751399,70.1649054 185.350434,70.1649054 C186.816732,70.1649054 187.585235,69.7139753 187.585235,68.9926112 C187.585235,68.4517433 187.052431,68.0913714 185.883858,67.9313439 L184.858566,67.801089 C182.68517,67.5101864 181.526522,66.5289328 181.526522,64.9857223 C181.526522,63.0827602 183.085239,61.910466 185.586133,61.910466 C187.124381,61.910466 188.549122,62.2813824 189.56387,62.9221124 L188.641541,64.5552608 Z" id="Fill-37"></path>
      </g>
    </g>
  </g>
</svg>
