<?xml version="1.0" encoding="UTF-8" standalone="no"?>
<svg
  xmlns:dc="http://purl.org/dc/elements/1.1/"
  xmlns:cc="http://creativecommons.org/ns#"
  xmlns:rdf="http://www.w3.org/1999/02/22-rdf-syntax-ns#"
  xmlns:svg="http://www.w3.org/2000/svg"
  xmlns="http://www.w3.org/2000/svg"
  xmlns:sodipodi="http://sodipodi.sourceforge.net/DTD/sodipodi-0.dtd"
  xmlns:inkscape="http://www.inkscape.org/namespaces/inkscape"
  id="svg2"
  version="1.1"
  inkscape:version="0.91 r13725"
  xml:space="preserve"
  width="189.21249"
  height="168.53751"
  viewBox="0 0 189.21249 168.53751"
  sodipodi:docname="logo_cms.svg"><metadata
     id="metadata8"><rdf:RDF><cc:Work
         rdf:about=""><dc:format>image/svg+xml</dc:format><dc:type
  rdf:resource="http://purl.org/dc/dcmitype/StillImage" /><dc:title /></cc:Work></rdf:RDF></metadata><defs
  id="defs6" /><sodipodi:namedview
  pagecolor="#ffffff"
  bordercolor="#666666"
  borderopacity="1"
  objecttolerance="10"
  gridtolerance="10"
  guidetolerance="10"
  inkscape:pageopacity="0"
  inkscape:pageshadow="2"
  inkscape:window-width="1200"
  inkscape:window-height="646"
  id="namedview4"
  showgrid="false"
  inkscape:zoom="1.4002818"
  inkscape:cx="145.97177"
  inkscape:cy="75.69905"
  inkscape:window-x="2469"
  inkscape:window-y="148"
  inkscape:window-maximized="0"
  inkscape:current-layer="g12" /><g
  id="g10"
  inkscape:groupmode="layer"
  inkscape:label="ink_ext_XXXXXX"
  transform="matrix(1.25,0,0,-1.25,0,168.5375)"><g
       id="g12"
       transform="scale(0.1,0.1)"><path
         d="m 1228.5725,802.44695 c -47.6487,31.83192 -110.7953,48.67809 -110.7953,89.29006 0,20.80443 18.8545,49.02775 45.4857,49.02775 2.2605,0 9.8225,0.79522 23.2227,-0.82451 40.6721,-6.79116 53.5356,-37.30909 57.097,-61.20661 l 14.2296,0 -2.732,69.67441 0,6.6627 c -12.5709,2.34502 -47.8764,9.1866 -83.1332,9.1866 -72.0129,0 -112.6574,-32.38485 -112.6574,-86.08964 0,-34.60791 17.0755,-57.71183 40.0021,-75.7728 46.8681,-36.83748 117.946,-52.8071 117.946,-103.40416 0,-31.43349 -31.0287,-40.6445 -52.2184,-40.6445 -37.706,0 -78.9408,22.95269 -104.554,38.95973 l 0,-52.88355 c 12.4635,-4.81528 54.2382,-24.2862 94.3981,-24.2862 71.5299,0 125.6673,26.56618 125.6673,99.14343 0,38.93532 -23.1739,63.79232 -51.9582,83.16729"
         style="fill:#1e2748;fill-opacity:1;fill-rule:nonzero;stroke:none"
         id="path14"
         inkscape:connector-curvature="0" /><path
  d="m 182.61548,796.04935 c 0,62.55313 11.56254,141.20274 82.67129,141.20274 52.19239,0 78.77807,-49.14158 80.73444,-74.64094 l 14.03929,0 -2.88494,83.68117 c -22.29732,7.54574 -53.67877,15.06708 -96.76749,15.06708 -107.74459,0 -139.22037,-73.87824 -139.22037,-165.03035 1.70267,-95.16077 36.5968,-178.68909 139.7928,-178.68909 40.10296,0 81.28574,22.65346 100.09639,32.67107 l 0,47.38361 c -12.13334,-9.49071 -46.48755,-38.47185 -88.56638,-38.47185 -78.27558,0 -88.78919,88.21187 -89.89503,136.82656"
  style="fill:#1e2748;fill-opacity:1;fill-rule:nonzero;stroke:none"
  id="path16"
  inkscape:connector-curvature="0" /><path
  d="m 546.26442,624.46853 0,283.1568 c -0.86516,11.35763 -2.87844,16.59898 -6.44803,19.83194 -6.90499,6.47241 -32.05472,9.89077 -40.39567,11.31372 l 0,19.31154 126.56662,0 96.23409,-272.19111 0.93346,0 93.75737,272.19111 80.32626,0 0,-333.65792 -57.72493,0.0439 0,283.74712 -97.4342,-283.79104 -50.25392,0.0439 -97.22609,276.91856 0,-276.96248 -48.33496,0.0439"
  style="fill:#1e2748;fill-opacity:1;fill-rule:nonzero;stroke:none"
  id="path18"
  inkscape:connector-curvature="0" /><path
  d="m 448.74723,1051.1845 32.84833,0 -96.87483,-291.64252 64.0265,291.64252"
  style="fill:#68605f;fill-opacity:1;fill-rule:nonzero;stroke:none"
  id="path20"
  inkscape:connector-curvature="0" /><path
  d="m 1007.2631,1051.1845 32.8434,0 -96.88951,-291.64252 64.04611,291.64252"
  style="fill:#68605f;fill-opacity:1;fill-rule:nonzero;stroke:none"
  id="path22"
  inkscape:connector-curvature="0" /><path
  d="m 1379.0806,1051.1845 32.8499,0 -96.8911,-291.64252 64.0412,291.64252"
  style="fill:#68605f;fill-opacity:1;fill-rule:nonzero;stroke:none"
  id="path24"
  inkscape:connector-curvature="0" /><path
  d="m 122.17157,492.9923 1155.61083,0 0,7.67379 -1155.61083,0 0,-7.67379 z"
  style="fill:#68605f;fill-opacity:1;fill-rule:nonzero;stroke:none"
  id="path26"
  inkscape:connector-curvature="0" /><path
  d="m 440.83234,385.20868 13.54329,0 0,-82.65177 39.56955,0 0,-11.92356 -53.11284,0 0,94.57533"
  style="fill:#1e2748;fill-opacity:1;fill-rule:nonzero;stroke:none"
  id="path28"
  inkscape:connector-curvature="0" /><path
  d="m 552.50916,323.55161 c -2.71906,0 -5.42512,0.2732 -8.13117,0.2732 -6.91801,0 -23.9821,-1.07981 -23.9821,-13.27658 0,-7.32456 7.03998,-11.22428 12.86515,-11.22428 12.59682,0 19.24812,7.83845 19.24812,18.14879 l 0,6.07887 z m -37.80997,31.30502 c 6.36509,3.77937 13.96286,6.51145 22.76079,6.51145 19.78803,0 27.77285,-9.75091 27.77285,-28.60548 l 0,-28.56644 c 0,-7.87749 0.2732,-11.53001 0.55943,-13.56281 l -11.93658,0 0,8.93779 -0.2667,0 c -2.98577,-4.18593 -9.76392,-10.57703 -21.42076,-10.57703 -14.90282,0 -25.3335,6.51145 -25.3335,21.55412 0,17.36168 18.97491,22.75428 32.11815,22.75428 5.01856,0 8.53773,0 13.55629,-0.25369 0,11.93006 -4.3453,18.00892 -17.08197,18.00892 -7.17821,0 -14.90282,-2.69954 -20.04823,-7.03184 l -0.67977,10.83073"
  style="fill:#1e2748;fill-opacity:1;fill-rule:nonzero;stroke:none"
  id="path30"
  inkscape:connector-curvature="0" /><path
  d="m 663.09803,290.63335 -14.78085,0 -17.88209,57.99805 -0.26832,0 -17.48203,-57.99805 -14.76947,0 -22.22738,69.115 13.96286,0 15.85578,-57.19144 0.26671,0 17.61701,57.19144 15.04267,0 17.33567,-57.19144 0.2667,0 16.80226,57.19144 12.48298,0 -22.2225,-69.115"
  style="fill:#1e2748;fill-opacity:1;fill-rule:nonzero;stroke:none"
  id="path32"
  inkscape:connector-curvature="0" /><path
  d="m 715.34733,290.63335 15.18244,0 0,15.16337 -15.18244,0 0,-15.16337 z"
  style="fill:#1e2748;fill-opacity:1;fill-rule:nonzero;stroke:none"
  id="path34"
  inkscape:connector-curvature="0" /><path
  d="m 789.6598,373.29164 -29.38772,0 0,11.91704 72.36098,0 0,-11.91704 -29.42351,0 0,-82.65829 -13.54975,0 0,82.65829"
  style="fill:#1e2748;fill-opacity:1;fill-rule:nonzero;stroke:none"
  id="path36"
  inkscape:connector-curvature="0" /><path
  d="m 879.38734,323.55161 c -2.711,0 -5.43001,0.2732 -8.14255,0.2732 -6.90015,0 -23.98056,-1.07981 -23.98056,-13.27658 0,-7.32456 7.03185,-11.22428 12.86352,-11.22428 12.60989,0 19.25959,7.83845 19.25959,18.14879 l 0,6.07887 z m -37.797,31.30502 c 6.36504,3.77937 13.97587,6.51145 22.7543,6.51145 19.77662,0 27.76795,-9.75091 27.76795,-28.60548 l 0,-28.56644 c 0,-7.87749 0.28455,-11.53001 0.53993,-13.56281 l -11.89921,0 0,8.93779 -0.28455,0 c -2.99874,-4.18593 -9.76391,-10.57703 -21.40938,-10.57703 -14.90771,0 -25.3335,6.51145 -25.3335,21.55412 0,17.36168 18.95048,22.75428 32.1002,22.75428 5.02999,0 8.53127,0 13.56126,-0.25369 0,11.93006 -4.33719,18.00892 -17.07549,18.00892 -7.18963,0 -14.90771,-2.69954 -20.04175,-7.03184 l -0.67976,10.83073"
  style="fill:#1e2748;fill-opacity:1;fill-rule:nonzero;stroke:none"
  id="path38"
  inkscape:connector-curvature="0" /><path
  d="m 929.52897,326.8301 -22.49563,32.91825 15.86874,0 15.02482,-24.67975 15.32078,24.67975 14.2295,0 -22.21436,-32.91825 24.39353,-36.19675 -15.72245,0 -17.07548,27.08007 -17.06891,-27.08007 -15.16956,0 24.90902,36.19675"
  style="fill:#1e2748;fill-opacity:1;fill-rule:nonzero;stroke:none"
  id="path40"
  inkscape:connector-curvature="0" /></g></g></svg>
