<svg xmlns="http://www.w3.org/2000/svg" viewBox="0 0 180 48"><title>site-branding</title><path d="M64.52,23.65l3.69,1a7.45,7.45,0,0,1-2.8,4.13,8.44,8.44,0,0,1-5,1.44,7.46,7.46,0,0,1-6.27-2.71q-2.11-2.7-2.11-8t2.25-8a7.67,7.67,0,0,1,6.36-2.81,7.58,7.58,0,0,1,4.71,1.51,6.83,6.83,0,0,1,2.46,4.06l-3.69.88a4.27,4.27,0,0,0-1.33-2.33A3.62,3.62,0,0,0,60.36,12a3.47,3.47,0,0,0-3.24,1.87,11.66,11.66,0,0,0-1.07,5.66A10.71,10.71,0,0,0,57.13,25a3.62,3.62,0,0,0,3.34,1.76A4.08,4.08,0,0,0,63,25.91,4.27,4.27,0,0,0,64.52,23.65Z" fill="#9db877"/><path d="M70,19.47a12.24,12.24,0,0,1,2.32-7.91,8.55,8.55,0,0,1,12.74,0,12.22,12.22,0,0,1,2.32,7.91A12.21,12.21,0,0,1,85,27.37a8.53,8.53,0,0,1-12.74,0A12.21,12.21,0,0,1,70,19.47Zm4,0a9.93,9.93,0,0,0,1.16,5.38,4.25,4.25,0,0,0,6.95,0,9.93,9.93,0,0,0,1.16-5.38A10.1,10.1,0,0,0,82,14a4.23,4.23,0,0,0-6.95,0A10.1,10.1,0,0,0,73.94,19.47Z" fill="#9db877"/><path d="M90.8,29.93V9h6.86a9.07,9.07,0,0,1,5.73,1.74,5.49,5.49,0,0,1,2,4.55,5.61,5.61,0,0,1-1.05,3.34,4.94,4.94,0,0,1-2.78,1.83L106,29.93h-4.1L98,21.8H94.27v8.14Zm3.47-11.63h3.58a4.87,4.87,0,0,0,2.86-.76,2.81,2.81,0,0,0,.87-2.26,2.55,2.55,0,0,0-.87-2.13,4.91,4.91,0,0,0-2.86-.67H94.27Z" fill="#9db877"/><path d="M114,29.93V12.5h-5.79V9h15.06V12.5h-5.79V29.93Z" fill="#9db877"/><path d="M144.08,29.93V9h6.37q4.83,0,7.3,2.63t2.47,7.75c0,3.49-.83,6.31-2.49,8.07s-4.12,2.48-7.42,2.48Zm3.47-3.49h2.61c2.14,0,4-.37,4.95-1.48s1.42-3.09,1.42-5.59A7.73,7.73,0,0,0,155,14.15a6.63,6.63,0,0,0-4.95-1.65h-2.55Z" fill="#9db877"/><path d="M162.61,19.47a12.24,12.24,0,0,1,2.32-7.91A8.58,8.58,0,0,1,177.08,11q.31.28.58.59A12.22,12.22,0,0,1,180,19.47a12.21,12.21,0,0,1-2.32,7.89,8.53,8.53,0,0,1-12.74,0A12.21,12.21,0,0,1,162.61,19.47Zm4,0a9.93,9.93,0,0,0,1.16,5.38,4.25,4.25,0,0,0,6.95,0,9.93,9.93,0,0,0,1.16-5.38A10.1,10.1,0,0,0,174.7,14a4.23,4.23,0,0,0-6.95,0A10.1,10.1,0,0,0,166.59,19.47Z" fill="#9db877"/><path d="M136.28,25.28l1.53,4.65h3.95L135.09,9H129.9l-6.67,20.93h3.95l1.53-4.65Zm-6.69-3.49,2.91-8.93,2.91,8.93h-5.81Z" fill="#9db877"/><path d="M10.11,9.72c5.36-4.78,9-5.88,11.89-6.26l-1,0A21,21,0,0,0,.53,29.14C.47,23.74,4.42,14.79,10.11,9.72Z" fill="#9db877"/><path d="M36.5,10.28a2.4,2.4,0,0,1-1.78,2.84c-.9.09-2.08-2.25-2.54-3.22-3.84,1.8-8.35,6.44-10.36,9-2.76,3.54-6.3,7.68-9.12,15.75-.13.38-.25.74-.36,1.09a41.79,41.79,0,0,0,8.29-3.93c5.78-3.46,6.78-1.73,4.09,3.35-2.48,4.68-7.21,8.77-10.51,9.16a21,21,0,0,0,22.29-34Z" fill="#9db877"/><path d="M15.58,34.47a32.78,32.78,0,0,1-3.22,1.26,16.45,16.45,0,0,0-.29,7.75C12.07,43.37,12.05,40.75,15.58,34.47Z" fill="#d1dcbb"/><path d="M32.19,9.89c.17.37.45.93.77,1.49Q34,10.16,35.19,8.9A12.13,12.13,0,0,0,32.19,9.89Z" fill="#d1dcbb"/><path d="M54,41.88V34.63h2l1,3.52q.15.47.25.92t.15.88q.09-.4.2-.83t.27-1l1.07-3.54h1.87v7.25H59.64V35.8c-.06.27-.13.54-.2.8s-.15.53-.23.8l-1.32,4.48h-1L55.61,37.4q-.2-.7-.28-1t-.14-.58v6.08Z" fill="#9db877"/><path d="M64.14,38.27a4.24,4.24,0,0,1,.8-2.74,3,3,0,0,1,4.42,0,4.24,4.24,0,0,1,.8,2.74,4.23,4.23,0,0,1-.8,2.74,3,3,0,0,1-4.41,0A4.23,4.23,0,0,1,64.14,38.27Zm1.38,0a3.44,3.44,0,0,0,.41,1.87,1.47,1.47,0,0,0,2.42,0,3.44,3.44,0,0,0,.41-1.87,3.5,3.5,0,0,0-.41-1.88,1.46,1.46,0,0,0-2.42,0A3.5,3.5,0,0,0,65.52,38.27Z" fill="#9db877"/><path d="M73.43,41.88V34.63h2.63a2.87,2.87,0,0,1,1.81.49,1.71,1.71,0,0,1,.62,1.43,1.52,1.52,0,0,1-.26.89,2,2,0,0,1-.8.64,1.78,1.78,0,0,1,.92.65,1.9,1.9,0,0,1,.31,1.11A1.8,1.8,0,0,1,78,41.38a3.3,3.3,0,0,1-2,.5Zm1.33-4.35h1.11a1.65,1.65,0,0,0,1-.22.77.77,0,0,0,.32-.67.76.76,0,0,0-.32-.68,1.91,1.91,0,0,0-1-.21h-1Zm0,3.23h1.11A1.77,1.77,0,0,0,77,40.5a1,1,0,0,0,.34-.83,1,1,0,0,0-.33-.79,1.63,1.63,0,0,0-1-.26H74.76Z" fill="#9db877"/><path d="M82.34,41.88V34.63h1.37v7.25Z" fill="#9db877"/><path d="M87.6,41.88V34.63H89v6H92v1.24Z" fill="#9db877"/><path d="M95.24,41.88V34.63h4.71v1.18H96.6v1.71H99v1.16H96.6v2h3.49v1.24Z" fill="#9db877"/><path d="M108,40.24l1.24-.55a2.33,2.33,0,0,0,.64.84,1.53,1.53,0,0,0,1.7,0,.81.81,0,0,0,.32-.67.75.75,0,0,0-.23-.56,2.49,2.49,0,0,0-.84-.45l-.24-.09a8.09,8.09,0,0,1-1.48-.66,1.79,1.79,0,0,1-.63-.67,1.93,1.93,0,0,1-.22-.92,1.77,1.77,0,0,1,.65-1.42,2.58,2.58,0,0,1,1.71-.55,2.78,2.78,0,0,1,1.54.4,2.3,2.3,0,0,1,.9,1.18l-1.24.45a1.77,1.77,0,0,0-.54-.71,1.3,1.3,0,0,0-.77-.22,1.07,1.07,0,0,0-.7.21.68.68,0,0,0-.26.56q0,.55,1.25,1l.6.24a3.74,3.74,0,0,1,1.42.9,1.85,1.85,0,0,1,.38,1.21,2,2,0,0,1-.66,1.58,2.65,2.65,0,0,1-1.81.57,3.1,3.1,0,0,1-1.69-.44A2.7,2.7,0,0,1,108,40.24Z" fill="#9db877"/><path d="M116.05,38.27a4.24,4.24,0,0,1,.8-2.74,3,3,0,0,1,4.42,0,4.23,4.23,0,0,1,.8,2.74,4.23,4.23,0,0,1-.8,2.74,3,3,0,0,1-4.41,0A4.23,4.23,0,0,1,116.05,38.27Zm1.38,0a3.44,3.44,0,0,0,.41,1.87,1.47,1.47,0,0,0,2.42,0,3.44,3.44,0,0,0,.41-1.87,3.5,3.5,0,0,0-.41-1.88,1.46,1.46,0,0,0-2.42,0A3.5,3.5,0,0,0,117.43,38.27Z" fill="#9db877"/><path d="M125.38,41.88V34.63h1.39v6h3.06v1.24Z" fill="#9db877"/><path d="M132.81,39.22V34.63h1.36v4.64a1.71,1.71,0,0,0,.33,1.17,1.36,1.36,0,0,0,1.05.36,1.46,1.46,0,0,0,1.1-.35,1.7,1.7,0,0,0,.33-1.18V34.63h1.32v4.8a2.47,2.47,0,0,1-.71,1.9,2.88,2.88,0,0,1-2,.66,2.78,2.78,0,0,1-2.06-.69A2.87,2.87,0,0,1,132.81,39.22Z" fill="#9db877"/><path d="M143.35,41.88v-6h-1.9v-1.2h5.18v1.2h-1.9v6Z" fill="#9db877"/><path d="M149.92,41.88V34.63h1.37v7.25Z" fill="#9db877"/><path d="M154.75,38.27a4.24,4.24,0,0,1,.8-2.74,3,3,0,0,1,4.42,0,4.24,4.24,0,0,1,.8,2.74A4.23,4.23,0,0,1,160,41a3,3,0,0,1-4.41,0A4.23,4.23,0,0,1,154.75,38.27Zm1.38,0a3.44,3.44,0,0,0,.41,1.87,1.47,1.47,0,0,0,2.42,0,3.44,3.44,0,0,0,.41-1.87,3.5,3.5,0,0,0-.41-1.88,1.46,1.46,0,0,0-2.42,0A3.5,3.5,0,0,0,156.14,38.27Z" fill="#9db877"/><path d="M164.07,42V34.75h1.46l2.08,3.64q.24.42.44.86t.37.88q-.05-.32-.08-.69c0-.24,0-.51,0-.79v-3.9h1.27V42h-1.27l-2.26-3.74q-.19-.32-.39-.76t-.43-1a6.54,6.54,0,0,1,.07.65q0,.36,0,.82v4Z" fill="#9db877"/><path d="M172.8,40.24l1.24-.55a2.33,2.33,0,0,0,.64.84,1.53,1.53,0,0,0,1.7,0,.81.81,0,0,0,.32-.67.75.75,0,0,0-.23-.56,2.5,2.5,0,0,0-.84-.45l-.24-.09a8.08,8.08,0,0,1-1.48-.66,1.79,1.79,0,0,1-.63-.67,1.92,1.92,0,0,1-.22-.92,1.77,1.77,0,0,1,.65-1.42,2.58,2.58,0,0,1,1.71-.55,2.77,2.77,0,0,1,1.54.4,2.3,2.3,0,0,1,.9,1.18l-1.24.45a1.77,1.77,0,0,0-.54-.71,1.3,1.3,0,0,0-.77-.22,1.07,1.07,0,0,0-.7.21.68.68,0,0,0-.26.56q0,.55,1.25,1l.6.24a3.73,3.73,0,0,1,1.42.9,1.85,1.85,0,0,1,.38,1.21,2,2,0,0,1-.66,1.58,2.65,2.65,0,0,1-1.81.57,3.1,3.1,0,0,1-1.69-.44A2.7,2.7,0,0,1,172.8,40.24Z" fill="#9db877"/></svg>