<svg width="210" height="92" viewBox="0 0 210 92" class="" xmlns="http://www.w3.org/2000/svg" xmlns:xlink="http://www.w3.org/1999/xlink"><defs><path id="logoa" d="M0 0h210v92H0z"></path></defs><g fill="none" fill-rule="evenodd"><mask id="logob" fill="#fff"><use xlink:href="#logoa"></use></mask><path d="M96.6 51.228l33.6-50.181H96.6L63 51.227h33.6zm17.85 9.408c-8.698 0-15.75 7.021-15.75 15.682 0 8.66 7.052 15.682 15.75 15.682s15.75-7.021 15.75-15.682c0-8.66-7.052-15.682-15.75-15.682zm66.15 3.138V1.047h-28.35v89.908H210V63.774h-29.4zM0 0c25.515 0 46.2 20.595 46.2 46S25.515 92 0 92V0z" fill="#020D7D" fill-rule="nonzero" mask="url(#logob)"></path></g></svg>
