<svg version="1.1" id="Ebene_1" xmlns="http://www.w3.org/2000/svg" xmlns:xlink="http://www.w3.org/1999/xlink" x="0px" y="0px"
     viewBox="0 0 524 178" enable-background="new 0 0 524 178" xml:space="preserve">
<g>
	<path opacity="0.93" fill="#1B143F" d="M59.115,136.353l-15.108-15.108l-14.59,14.59c4.174,5.112,8.886,10.415,13.874,15.198
		c0.211,0.169,0.41,0.353,0.623,0.52L59.115,136.353z"/>
  <path fill="#292D48" d="M49.93,155.993c4.799,4.728,14.411,9.188,14.395,9.188l0,0c0,0,9.128-3.991,14.395-9.225l-14.395-14.395
		L49.93,155.993z"/>
  <polygon opacity="0.65" fill="#38A7D7" points="59.115,14.448 58.234,13.567 51.012,15.472 36.009,21.534 44.019,29.545 	"/>
  <polygon opacity="0.65" fill="#38A7D7" points="69.546,14.437 84.654,29.545 92.727,21.471 77.751,15.36 70.543,13.44 	"/>
  <path opacity="0.93" fill="#1B143F" d="M69.546,136.341l15.042,15.042c0.928-0.723,1.816-1.486,2.713-2.239
		c4.272-4.268,8.307-8.858,11.938-13.303l-14.597-14.596L69.546,136.341z"/>
  <polygon fill="#38A7D7" points="10.51,49.048 10.51,61.118 16.544,55.083 	"/>

  <rect x="33.338" y="44.395" transform="matrix(0.7071 -0.7071 0.7071 0.7071 -26.0544 47.2538)" fill="#38A7D7" width="21.349" height="21.365"/>
  <polygon opacity="0.8" fill="#38A7D7" points="38.798,34.766 27.604,24.54 10.51,31.056 10.51,38.606 22.733,49.862 	"/>

  <rect x="53.656" y="24.077" transform="matrix(0.7071 -0.7071 0.7071 0.7071 -5.737 55.6695)" opacity="0.8" fill="#38A7D7" width="21.349" height="21.365"/>

  <rect x="73.973" y="44.395" transform="matrix(0.7071 -0.7071 0.7071 0.7071 -14.1527 75.9869)" fill="#38A7D7" width="21.349" height="21.365"/>
  <polygon opacity="0.8" fill="#38A7D7" points="104.031,49.468 113.548,38.617 113.548,31.056 98.793,24.491 88.726,34.557 	"/>
  <polygon fill="#38A7D7" points="113.548,60.975 113.548,49.037 107.697,54.888 	"/>
  <path fill="#00297E" d="M22.722,100.927L10.51,112.172v0.173c0,0,5.841,7.87,13.341,17.669l13.979-13.98L22.722,100.927z"/>
  <polygon fill="#3C6B9E" points="38.798,75.4 22.722,60.293 10.51,71.537 10.51,79.241 22.733,90.497 	"/>

  <rect x="53.656" y="64.712" transform="matrix(0.7071 -0.7071 0.7071 0.7071 -34.4701 67.5712)" fill="#3C6B9E" width="21.349" height="21.365"/>

  <rect x="53.656" y="105.347" transform="matrix(0.7071 -0.7071 0.7071 0.7071 -63.2032 79.4728)" fill="#00297E" width="21.349" height="21.365"/>
  <path fill="#00297E" d="M89.863,116.024l12.651,13.985c7.497-9.796,11.034-17.663,11.034-17.663v-0.162l-9.922-11.256
		L89.863,116.024z"/>
  <polygon fill="#3C6B9E" points="89.863,75.389 97.037,82.562 103.799,90.334 113.548,79.252 113.548,71.548 103.626,60.293 	"/>
  <polygon fill="#1856A7" points="10.51,89.683 10.51,101.752 16.544,95.718 	"/>

  <rect x="33.338" y="85.029" transform="matrix(0.7071 -0.7071 0.7071 0.7071 -54.7875 59.1554)" fill="#1856A7" width="21.349" height="21.365"/>

  <rect x="73.973" y="85.029" transform="matrix(0.7071 -0.7071 0.7071 0.7071 -42.8859 87.8886)" fill="#1856A7" width="21.349" height="21.365"/>
  <polygon fill="#1856A7" points="113.548,101.741 113.548,89.672 107.513,95.706 	"/>
</g>
  <g>
	<g>
		<path fill="#3C88B8" d="M208.691,43.877h4.605L224.5,77.032h-3.632l-3.428-10.285h-12.894l-3.427,10.285h-3.634L208.691,43.877z
			 M205.466,63.883h11.103l-5.422-17.192h-0.153L205.466,63.883z"/>
    <path fill="#3C88B8" d="M227.028,78.846h-7.469l-3.428-10.285h-10.278l-3.427,10.285h-7.47l12.432-36.783h7.209L227.028,78.846z
			 M207.955,62.069h6.139l-3.04-9.64L207.955,62.069z"/>
	</g>
    <g>
		<path fill="#3C88B8" d="M229.259,46.741v-2.864h21.95v2.864h-9.314v30.29h-3.376v-30.29H229.259z"/>
      <polygon fill="#3C88B8" points="243.709,78.846 236.705,78.846 236.705,48.555 227.445,48.555 227.445,42.063 253.023,42.063
			253.023,48.555 243.709,48.555 		"/>
	</g>
    <g>
		<path fill="#3C88B8" d="M280.014,77.032h-18.828V43.877h18.265l-0.359,2.864h-14.48v11.718h12.792v2.866h-12.843v12.842h15.452
			V77.032z"/>
      <polygon fill="#3C88B8" points="281.828,78.846 259.372,78.846 259.372,42.063 281.506,42.063 280.694,48.555 266.427,48.555
			266.427,56.645 279.219,56.645 279.219,63.139 266.376,63.139 266.376,72.352 281.828,72.352 		"/>
	</g>
    <g>
		<path fill="#3C88B8" d="M312.248,43.877h3.377v33.155h-3.736L294.39,49.044l0.206,4.81v23.177h-3.377V43.877h3.683l17.499,27.884
			l-0.153-4.911V43.877z"/>
      <polygon fill="#3C88B8" points="317.439,78.846 310.884,78.846 296.409,55.694 296.41,78.846 289.405,78.846 289.405,42.063
			295.905,42.063 310.435,65.215 310.433,42.063 317.439,42.063 		"/>
	</g>
    <g>
		<path fill="#3C88B8" d="M327.7,72.855c2.625,0.942,5.456,1.413,8.492,1.413s5.186-0.437,6.448-1.312
			c1.261-0.877,1.893-2.504,1.893-4.884c0-1.257-0.411-2.299-1.229-3.125c-0.785-0.727-1.501-1.256-2.15-1.586l-1.841-0.893
			c-0.58-0.264-1.288-0.578-2.124-0.942c-0.836-0.363-1.559-0.685-2.174-0.967c-0.614-0.281-1.45-0.694-2.506-1.24
			c-1.059-0.544-1.808-1.006-2.252-1.387c-0.444-0.38-0.94-0.852-1.484-1.413c-0.955-1.025-1.433-2.347-1.433-3.967
			c0-2.744,0.972-4.884,2.917-6.421c1.943-1.536,4.452-2.304,7.521-2.304c3.07,0,5.918,0.427,8.544,1.278l-0.665,2.878
			c-2.116-0.894-4.546-1.344-7.292-1.344s-4.681,0.422-5.806,1.266c-1.127,0.842-1.689,2.289-1.689,4.337
			c0,1.521,0.801,2.778,2.405,3.77c1.295,0.792,3.291,1.76,5.986,2.9c2.694,1.141,4.52,2.025,5.475,2.653
			c2.421,1.587,3.649,3.734,3.683,6.446c0,6.049-4.042,9.073-12.126,9.073c-3.377,0-6.532-0.495-9.466-1.484L327.7,72.855z"/>
      <path fill="#3C88B8" d="M336.295,78.897c-3.559,0-6.939-0.531-10.045-1.579l-1.688-0.57l1.978-6.237l1.773,0.636
			c2.414,0.867,5.064,1.307,7.878,1.307c3.296,0,4.765-0.537,5.414-0.989c0.738-0.513,1.114-1.655,1.114-3.393
			c0-0.777-0.224-1.363-0.704-1.849c-0.602-0.556-1.188-0.993-1.682-1.244l-1.811-0.877c-0.531-0.242-1.232-0.553-2.056-0.911
			c-0.848-0.368-1.582-0.694-2.207-0.981c-0.631-0.289-1.492-0.716-2.582-1.278c-1.192-0.612-2.044-1.144-2.601-1.623
			c-0.485-0.415-1.025-0.93-1.604-1.526c-1.298-1.392-1.944-3.143-1.944-5.23c0-3.313,1.213-5.952,3.605-7.844
			c2.262-1.789,5.171-2.696,8.647-2.696c3.244,0,6.308,0.459,9.104,1.366l1.582,0.514l-1.523,6.601l-1.988-0.84
			c-1.885-0.796-4.101-1.2-6.586-1.2c-3.057,0-4.269,0.565-4.718,0.903c-0.641,0.479-0.964,1.448-0.964,2.885
			c0,0.546,0.16,1.37,1.545,2.226c1.213,0.743,3.146,1.677,5.738,2.772c2.825,1.196,4.709,2.115,5.765,2.808
			c2.944,1.932,4.459,4.602,4.501,7.939C350.235,72.975,347.817,78.897,336.295,78.897z M344.813,63.909
			c1.033,1.171,1.535,2.554,1.535,4.162c0,1.403-0.197,2.62-0.59,3.644c0.696-1.195,0.849-2.524,0.849-3.706
			C346.586,66.351,346.01,65.021,344.813,63.909z"/>
	</g>
    <g>
		<path fill="#3C88B8" d="M365.153,45.541c1.433-0.713,2.762-1.176,3.99-1.392c1.229-0.215,2.815-0.323,4.759-0.323
			s4.331,0.461,7.163,1.38l-0.818,3.002c-3.07-0.806-5.347-1.21-6.83-1.21c-1.485,0-2.755,0.074-3.812,0.223
			s-2.141,0.486-3.25,1.012c-1.108,0.527-1.987,1.268-2.635,2.222c-1.467,2.173-2.2,5.497-2.2,9.974c0,5.497,1.023,9.185,3.07,11.06
			c0.989,0.889,2.012,1.507,3.07,1.852s2.225,0.519,3.505,0.519s2.225,0,2.839,0c1.978,0,3.94-0.651,5.884-1.952l1.176,2.667
			c-2.455,1.672-5.662,2.507-9.617,2.507c-1.536,0-2.866-0.091-3.991-0.274c-1.127-0.181-2.321-0.597-3.583-1.241
			c-1.261-0.646-2.294-1.55-3.095-2.71c-0.802-1.161-1.477-2.783-2.021-4.872c-0.547-2.088-0.819-4.548-0.819-7.382
			c0-2.833,0.34-5.293,1.023-7.382c0.683-2.088,1.528-3.712,2.534-4.871C362.5,47.189,363.72,46.254,365.153,45.541z"/>
      <path fill="#3C88B8" d="M371.447,78.897c-1.628,0-3.068-0.101-4.281-0.298c-1.304-0.21-2.69-0.686-4.118-1.416
			c-1.526-0.784-2.792-1.891-3.761-3.295c-0.934-1.351-1.682-3.132-2.285-5.445c-0.581-2.222-0.877-4.861-0.877-7.84
			c0-3.014,0.374-5.687,1.113-7.946c0.757-2.31,1.728-4.16,2.888-5.496c1.155-1.334,2.575-2.425,4.221-3.244
			c1.58-0.787,3.09-1.31,4.484-1.555c1.345-0.235,3.005-0.35,5.072-0.35c2.153,0,4.68,0.48,7.722,1.47l1.645,0.533l-1.745,6.404
			l-1.739-0.456c-2.907-0.764-5.05-1.151-6.369-1.151c-1.396,0-2.594,0.069-3.56,0.205c-0.872,0.122-1.787,0.41-2.724,0.853
			c-0.818,0.39-1.444,0.914-1.912,1.603c-1.251,1.852-1.886,4.867-1.886,8.955c0,4.874,0.857,8.236,2.482,9.722
			c0.782,0.704,1.597,1.2,2.408,1.465c0.87,0.285,1.859,0.429,2.941,0.429h2.839c1.626,0,3.221-0.539,4.875-1.645l1.797-1.202
			l2.657,6.026l-1.247,0.85C379.336,77.947,375.758,78.897,371.447,78.897z M361.132,69.53c0.344,0.931,0.726,1.699,1.138,2.296
			c0.635,0.918,1.429,1.614,2.431,2.127c0.177,0.091,0.351,0.176,0.526,0.255c-0.633-0.376-1.251-0.833-1.848-1.37
			C362.451,71.991,361.705,70.892,361.132,69.53z"/>
	</g>
    <g>
		<path fill="#3C88B8" d="M411.098,43.877h3.376v33.155h-3.376v-15.76h-15.862v15.76h-3.376V43.877h3.376v14.531h15.862V43.877z"/>
      <polygon fill="#3C88B8" points="416.288,78.846 409.284,78.846 409.284,63.086 397.05,63.086 397.05,78.846 390.046,78.846
			390.046,42.063 397.05,42.063 397.05,56.594 409.284,56.594 409.284,42.063 416.288,42.063 		"/>
	</g>
    <g>
		<path fill="#3C88B8" d="M439.085,77.083c-0.069,0-0.308,0-0.717,0c-0.408,0-0.819,0-1.227,0c-0.41,0-1.04-0.058-1.893-0.177
			c-0.853-0.118-1.57-0.303-2.148-0.556c-0.581-0.252-1.237-0.649-1.97-1.188c-0.734-0.539-1.322-1.179-1.766-1.92
			c-1.125-1.786-1.688-4.094-1.688-6.925v-22.44h3.428v22.377c0.102,5.275,2.764,7.912,7.982,7.912c2.217,0,4.059-0.638,5.526-1.915
			s2.2-3.209,2.2-5.795V43.877h3.326l-0.051,22.507C450.086,73.517,446.418,77.083,439.085,77.083z"/>
      <path fill="#3C88B8" d="M439.085,78.897h-1.944c-0.505,0-1.206-0.064-2.144-0.194c-1.01-0.14-1.893-0.371-2.623-0.69
			c-0.704-0.306-1.464-0.761-2.319-1.389c-0.924-0.677-1.681-1.502-2.248-2.45c-1.284-2.035-1.946-4.691-1.946-7.856V42.063h7.056
			v24.191c0.082,4.264,1.927,6.098,6.168,6.098c1.781,0,3.199-0.48,4.335-1.468c1.06-0.924,1.576-2.372,1.576-4.427V42.063h6.959
			L451.9,66.388C451.9,74.57,447.468,78.897,439.085,78.897z M430.572,71.701c0.102,0.198,0.21,0.39,0.326,0.574
			c0.265,0.441,0.574,0.812,0.95,1.141C431.353,72.915,430.926,72.342,430.572,71.701z"/>
	</g>
    <g>
		<path fill="#3C88B8" d="M459.858,46.741v-2.864h21.95v2.864h-9.313v30.29h-3.376v-30.29H459.858z"/>
      <polygon fill="#3C88B8" points="474.309,78.846 467.305,78.846 467.305,48.555 458.044,48.555 458.044,42.063 483.622,42.063
			483.622,48.555 474.309,48.555 		"/>
	</g>
    <g>
		<path fill="#3C88B8" d="M489.533,46.741v-2.864h21.95v2.864l-18.318,27.374h18.318l-0.972,2.917h-20.978v-2.866l18.214-27.425
			H489.533z"/>
      <polygon fill="#3C88B8" points="511.819,78.846 487.719,78.846 487.719,73.619 504.364,48.555 487.719,48.555 487.719,42.063
			513.297,42.063 513.297,47.292 496.562,72.301 514,72.301 		"/>
	</g>
    <g>
		<path fill="#3C88B8" d="M179.221,138.43h-18.828v-33.155h18.265l-0.359,2.864h-14.48v11.718h12.792v2.866h-12.843v12.842h15.452
			V138.43z"/>
      <polygon fill="#3C88B8" points="181.035,140.244 158.579,140.244 158.579,103.462 180.713,103.462 179.901,109.954
			165.634,109.954 165.634,118.043 178.426,118.043 178.426,124.537 165.583,124.537 165.583,133.751 181.035,133.751 		"/>
	</g>
    <g>
		<path fill="#3C88B8" d="M187.867,105.276h3.838l8.698,13.661l8.647-13.661h3.889l-10.232,15.86l11.205,17.294h-3.685
			l-9.823-15.145l-9.824,15.145h-3.683l11.205-17.294L187.867,105.276z"/>
      <polygon fill="#3C88B8" points="217.246,140.244 209.241,140.244 200.403,126.619 191.563,140.244 183.559,140.244
			195.94,121.134 184.538,103.462 192.7,103.462 200.398,115.552 208.05,103.462 216.267,103.462 204.866,121.134 		"/>
	</g>
    <g>
		<path fill="#3C88B8" d="M232.636,125.434h-3.07h-2.354v12.996h-3.427v-33.155h9.719c1.808,0,3.335,0.111,4.58,0.332
			c1.244,0.221,2.446,0.655,3.607,1.301c2.32,1.361,3.479,4.134,3.479,8.319c0,3.505-0.836,6.074-2.507,7.707
			c-0.716,0.68-1.671,1.216-2.864,1.607c-1.196,0.391-2.304,0.638-3.328,0.74C235.449,125.383,234.171,125.434,232.636,125.434z
			 M230.59,122.518h3.887c2.764,0,4.64-0.434,5.629-1.3c0.989-0.867,1.484-2.795,1.484-5.787c0-2.99-0.622-4.911-1.868-5.761
			c-1.246-0.849-3.522-1.274-6.83-1.274h-5.68v14.121H230.59z"/>
      <path fill="#3C88B8" d="M229.026,140.244h-7.055v-36.783h11.533c1.905,0,3.553,0.12,4.898,0.36c1.437,0.255,2.84,0.76,4.172,1.502
			c2.938,1.722,4.41,5.048,4.41,9.904c0,3.995-1.027,7.025-3.053,9.005c-0.927,0.88-2.122,1.559-3.567,2.032
			c-1.317,0.431-2.565,0.707-3.713,0.822c-1.079,0.108-2.429,0.162-4.016,0.162h-3.61V140.244z M229.026,120.704h5.451
			c3.125,0,4.143-0.595,4.435-0.85c0.143-0.126,0.865-0.935,0.865-4.422c0-3.185-0.753-4.042-1.077-4.263
			c-0.524-0.357-1.977-0.958-5.806-0.958h-3.866V120.704z"/>
	</g>
    <g>
		<path fill="#3C88B8" d="M275.001,138.43h-18.829v-33.155h18.265l-0.357,2.864h-14.481v11.718h12.792v2.866h-12.843v12.842h15.453
			V138.43z"/>
      <polygon fill="#3C88B8" points="276.815,140.244 254.358,140.244 254.358,103.462 276.492,103.462 275.682,109.954
			261.413,109.954 261.413,118.043 274.205,118.043 274.205,124.537 261.362,124.537 261.362,133.751 276.815,133.751 		"/>
	</g>
    <g>
		<path fill="#3C88B8" d="M295.057,125.434h-3.07h-2.354v12.996h-3.427v-33.155h9.719c1.808,0,3.335,0.111,4.58,0.332
			c1.244,0.223,2.446,0.656,3.607,1.302c2.32,1.363,3.479,4.14,3.479,8.33c0,3.133-0.624,5.451-1.868,6.949
			c-1.244,1.499-3.01,2.47-5.295,2.912l8.595,12.408l-2.66,1.791l-9.722-13.866H295.057z M293.01,122.518h3.887
			c2.764,0,4.64-0.434,5.629-1.3c0.989-0.867,1.484-2.795,1.484-5.787c0-2.99-0.622-4.911-1.868-5.761
			c-1.246-0.849-3.522-1.274-6.83-1.274h-5.68v14.121H293.01z"/>
      <path fill="#3C88B8" d="M305.901,141.799l-10.203-14.551h-4.252v12.996h-7.055v-36.783h11.533c1.905,0,3.553,0.12,4.898,0.36
			c1.439,0.257,2.842,0.762,4.172,1.504c2.939,1.726,4.41,5.055,4.41,9.915c0,3.604-0.748,6.256-2.286,8.108
			c-0.996,1.2-2.263,2.126-3.781,2.766l8.224,11.872L305.901,141.799z M291.447,120.704h5.451c3.125,0,4.143-0.595,4.435-0.85
			c0.143-0.126,0.865-0.935,0.865-4.422c0-3.185-0.753-4.042-1.077-4.263c-0.524-0.357-1.977-0.958-5.806-0.958h-3.866V120.704z"/>
	</g>
    <g>
		<path fill="#3C88B8" d="M316.087,108.14v-2.864h21.95v2.864h-9.314v30.29h-3.376v-30.29H316.087z"/>
      <polygon fill="#3C88B8" points="330.537,140.244 323.533,140.244 323.533,109.954 314.273,109.954 314.273,103.462
			339.851,103.462 339.851,109.954 330.537,109.954 		"/>
	</g>
    <g>
		<path fill="#3C88B8" d="M366.841,138.43h-18.828v-33.155h18.267l-0.36,2.864h-14.478v11.718h12.79v2.866H351.39v12.842h15.451
			V138.43z"/>
      <polygon fill="#3C88B8" points="368.655,140.244 346.199,140.244 346.199,103.462 368.336,103.462 367.519,109.954
			353.255,109.954 353.255,118.043 366.046,118.043 366.046,124.537 353.204,124.537 353.204,133.751 368.655,133.751 		"/>
	</g>
    <g>
		<path fill="#3C88B8" d="M381.271,133.826v4.605h-4.351v-4.605H381.271z"/>
      <path fill="#3C88B8" d="M383.085,140.244h-7.979v-8.233h7.979V140.244z M378.734,136.616h0.723v-0.976h-0.723V136.616z"/>
	</g>
    <g>
		<path fill="#3C88B8" d="M393.55,105.276h8.749c2.079,0,3.819,0.102,5.218,0.308s2.779,0.642,4.145,1.308
			c1.363,0.668,2.438,1.583,3.223,2.747c1.74,2.567,2.609,6.57,2.609,12.01c0,3.353-0.444,6.331-1.331,8.93
			c-0.612,1.78-1.79,3.457-3.529,5.03c-0.955,0.89-2.526,1.66-4.708,2.31c-1.227,0.342-2.533,0.513-3.914,0.513
			c-1.38,0-2.602,0-3.658,0h-6.804V105.276z M396.926,135.514h3.428c0.17,0,0.614,0,1.331,0c0.716,0,1.355,0,1.919,0
			c0.561,0,1.304-0.034,2.225-0.102c0.921-0.069,1.593-0.188,2.021-0.36c0.425-0.171,0.981-0.41,1.662-0.719
			c0.682-0.309,1.178-0.694,1.484-1.156c0.308-0.462,0.673-1.035,1.1-1.721c0.427-0.683,0.743-1.49,0.947-2.414
			c0.478-2.5,0.734-5.084,0.768-7.755c0.034-2.67-0.128-4.87-0.486-6.6c-0.359-1.729-1.033-3.064-2.021-4.005
			c-0.991-0.942-2.15-1.559-3.479-1.849c-1.331-0.291-3.155-0.437-5.475-0.437h-5.424V135.514z"/>
      <path fill="#3C88B8" d="M404.012,140.244h-12.276v-36.783h10.563c2.161,0,4.007,0.111,5.482,0.327
			c1.573,0.231,3.148,0.726,4.677,1.471c1.648,0.808,2.97,1.939,3.931,3.363c1.964,2.895,2.919,7.157,2.919,13.024
			c0,3.539-0.48,6.74-1.429,9.515c-0.71,2.068-2.065,4.014-4.028,5.789c-1.154,1.074-2.928,1.964-5.407,2.704
			C407.03,140.049,405.551,140.244,404.012,140.244z M398.74,133.7h4.864c0.527,0,1.226-0.033,2.092-0.098
			c1.022-0.077,1.39-0.198,1.48-0.234c0.404-0.163,0.935-0.391,1.589-0.687c0.349-0.159,0.612-0.343,0.72-0.506
			c0.302-0.452,0.656-1.009,1.071-1.677c0.317-0.507,0.557-1.128,0.716-1.847c0.445-2.336,0.693-4.838,0.726-7.387
			c0.033-2.528-0.119-4.617-0.448-6.209c-0.281-1.352-0.784-2.381-1.497-3.06c-0.751-0.716-1.607-1.171-2.615-1.392
			c-1.2-0.261-2.911-0.394-5.088-0.394h-3.61V133.7z M415.606,119.079c0.023,0.704,0.028,1.447,0.018,2.231
			c-0.026,1.984-0.172,3.946-0.437,5.855c0.327-1.694,0.492-3.539,0.492-5.517C415.68,120.749,415.656,119.893,415.606,119.079z"/>
	</g>
    <g>
		<path fill="#3C88B8" d="M448.294,138.43h-18.828v-33.155h18.267l-0.36,2.864h-14.478v11.718h12.79v2.866h-12.841v12.842h15.451
			V138.43z"/>
      <polygon fill="#3C88B8" points="450.108,140.244 427.652,140.244 427.652,103.462 449.79,103.462 448.973,109.954
			434.709,109.954 434.709,118.043 447.499,118.043 447.499,124.537 434.658,124.537 434.658,133.751 450.108,133.751 		"/>
	</g>
</g>
  <g>
	<g>
		<path fill="#3C88B8" d="M159.384,35.297h11.168c2.654,0,4.875,0.132,6.661,0.393c1.784,0.262,3.549,0.821,5.291,1.671
			c1.74,0.852,3.112,2.021,4.114,3.505c2.219,3.275,3.33,8.386,3.33,15.329c0,4.28-0.567,8.081-1.698,11.399
			c-0.784,2.272-2.286,4.412-4.507,6.42c-1.219,1.135-3.223,2.117-6.008,2.948c-1.567,0.437-3.233,0.655-4.996,0.655
			c-1.764,0-3.321,0-4.67,0h-8.686V35.297z M163.695,73.892h4.375c0.217,0,0.784,0,1.698,0c0.914,0,1.73,0,2.449,0
			s1.665-0.043,2.84-0.13c1.176-0.088,2.035-0.241,2.581-0.459c0.543-0.218,1.25-0.523,2.122-0.917
			c0.87-0.394,1.502-0.886,1.895-1.475c0.391-0.59,0.859-1.322,1.403-2.197c0.544-0.873,0.947-1.901,1.209-3.081
			c0.609-3.19,0.935-6.488,0.979-9.898c0.043-3.408-0.163-6.216-0.621-8.424c-0.456-2.207-1.317-3.91-2.579-5.112
			c-1.263-1.203-2.742-1.99-4.44-2.361c-1.698-0.371-4.028-0.557-6.988-0.557h-6.922V73.892z"/>
    <path fill="#3C88B8" d="M172.74,79.211h-14.952v-45.51h12.764c2.713,0,5.031,0.137,6.892,0.408
			c1.937,0.285,3.875,0.896,5.76,1.817c1.987,0.972,3.581,2.333,4.736,4.046c2.425,3.577,3.604,8.885,3.604,16.222
			c0,4.435-0.599,8.442-1.783,11.913c-0.87,2.525-2.534,4.908-4.948,7.089c-1.395,1.301-3.567,2.384-6.621,3.294
			C176.464,78.972,174.639,79.211,172.74,79.211z M160.98,76.02h11.76c1.61,0,3.146-0.201,4.568-0.597
			c2.508-0.748,4.317-1.618,5.347-2.578c2.027-1.832,3.394-3.77,4.086-5.772c1.069-3.133,1.611-6.796,1.611-10.879
			c0-6.584-1.029-11.441-3.056-14.433c-0.853-1.264-1.997-2.234-3.495-2.966c-1.589-0.775-3.21-1.29-4.821-1.526
			c-1.706-0.248-3.869-0.376-6.429-0.376h-9.572V76.02z M172.217,75.488h-10.118V37.685h8.518c3.105,0,5.502,0.194,7.33,0.594
			c1.978,0.432,3.729,1.362,5.2,2.765c1.497,1.424,2.52,3.424,3.041,5.944c0.478,2.303,0.697,5.254,0.653,8.767
			c-0.044,3.489-0.384,6.913-1.008,10.177c-0.31,1.4-0.785,2.605-1.421,3.627c-0.554,0.889-1.029,1.634-1.427,2.235
			c-0.561,0.84-1.424,1.529-2.567,2.046c-0.899,0.407-1.627,0.72-2.185,0.944c-0.707,0.283-1.706,0.469-3.057,0.57
			C173.98,75.443,172.984,75.488,172.217,75.488z M165.291,72.297h6.926c0.689,0,1.604-0.043,2.721-0.126
			c1.319-0.099,1.886-0.262,2.107-0.35c0.524-0.211,1.21-0.507,2.056-0.889c0.59-0.268,1.002-0.573,1.223-0.906
			c0.383-0.577,0.843-1.297,1.378-2.156c0.445-0.714,0.784-1.584,1.005-2.584c0.58-3.034,0.9-6.271,0.942-9.573
			c0.041-3.282-0.157-6.001-0.588-8.078c-0.387-1.872-1.1-3.312-2.117-4.28c-1.056-1.008-2.26-1.647-3.681-1.959
			c-1.577-0.344-3.814-0.52-6.647-0.52h-5.326V72.297z"/>
	</g>
</g>
</svg>
