<svg width="100%" height="100%" viewBox="0 30 437 106" version="1.1" xmlns="http://www.w3.org/2000/svg" fill-rule="evenodd" clip-rule="evenodd" stroke-miterlimit="2" stroke-linejoin="round"><g id="Layer-1" fill="rgb(37,47,59)"><g transform="matrix(1.22709,0,0,1.22709,14.0487,92.5697)"><path d="M0,-7.981L13.719,-7.981C13.572,-12.006 10.813,-14.319 7.158,-14.319C3.355,-14.319 0.521,-12.456 0,-7.981M24.607,-3.881L24.607,-1.344L-0.074,-1.344C0.672,2.982 4.1,4.919 8.725,4.919C12.898,4.919 16.555,3.205 18.717,1.787L22.818,10.289C19.164,12.525 14.465,14.316 8.574,14.316C-2.984,14.316 -10.664,7.083 -10.664,-3.881C-10.664,-15.512 -3.059,-22.297 7.531,-22.297C17.896,-22.297 24.607,-16.333 24.607,-3.881" fill-rule="nonzero"></path></g><g transform="matrix(1.22709,0,0,1.22709,68.024,79.665)"><path d="M0,12.975L-7.682,23.713L-20.656,23.713L-6.861,5.668L-19.389,-10.738L-6.338,-10.738L0,-1.64L6.264,-10.738L19.312,-10.738L6.785,5.668L20.58,23.713L7.605,23.713L0,12.975Z" fill-rule="nonzero"></path></g><g transform="matrix(1.22709,0,0,1.22709,92.0747,87.6246)"><path d="M0,0.002C0,-11.109 8.129,-18.344 19.164,-18.344C24.012,-18.344 27.889,-17.15 31.617,-14.988L26.994,-5.965C24.906,-7.307 22.742,-8.053 19.686,-8.053C15.213,-8.053 11.26,-5.144 11.26,0.002C11.26,5.147 15.213,8.055 19.686,8.055C22.742,8.055 24.906,7.309 26.994,5.967L31.617,14.99C27.889,17.152 24.012,18.346 19.164,18.346C8.129,18.346 0,11.113 0,0.002" fill-rule="nonzero"></path></g><g transform="matrix(-1.22709,0,0,1.22709,334.626,-31.1106)"><rect x="150.844" y="61.789" width="11.26" height="52.199"></rect></g><g transform="matrix(1.22709,0,0,1.22709,189.322,87.6246)"><path d="M0,0.002C0,-4.92 -3.43,-8.053 -7.979,-8.053C-12.453,-8.053 -15.883,-4.92 -15.883,0.002C-15.883,4.922 -12.453,8.055 -7.979,8.055C-3.43,8.055 0,4.922 0,0.002M-27.441,0.002C-27.441,-12.078 -20.059,-18.344 -11.111,-18.344C-5.52,-18.344 -2.014,-16.031 0.148,-12.527L0.299,-12.527L0.299,-17.225L11.559,-17.225L11.559,17.227L0.299,17.227L0.299,12.529L0.148,12.529C-2.014,16.035 -5.52,18.346 -11.111,18.346C-20.059,18.346 -27.441,12.08 -27.441,0.002" fill-rule="nonzero"></path></g><g transform="matrix(1.22709,0,0,1.22709,211.541,107.39)"><path d="M0,-33.332L11.037,-33.332L11.037,-28.262L11.186,-28.262C13.123,-32.064 16.854,-34.451 21.924,-34.451C27.217,-34.451 30.947,-31.914 32.736,-27.74L32.885,-27.74C35.271,-31.99 39.373,-34.451 44.443,-34.451C51.604,-34.451 56.748,-29.678 56.748,-21.326L56.748,1.119L45.488,1.119L45.488,-17.598C45.488,-21.924 43.848,-24.533 39.896,-24.533C36.465,-24.533 33.779,-22.443 33.779,-15.959L33.779,1.119L22.967,1.119L22.967,-17.598C22.967,-21.924 21.326,-24.533 17.375,-24.533C13.943,-24.533 11.26,-22.443 11.26,-15.959L11.26,1.119L0,1.119L0,-33.332Z" fill-rule="nonzero"></path></g><g transform="matrix(1.22709,0,0,1.22709,300.642,87.6246)"><path d="M0,0.002C0,4.922 3.578,8.055 8.055,8.055C12.602,8.055 16.107,4.922 16.107,0.002C16.107,-4.92 12.602,-8.053 8.055,-8.053C3.578,-8.053 0,-4.92 0,0.002M27.441,0.002C27.441,11.037 19.238,18.346 8.055,18.346C-3.057,18.346 -11.26,11.037 -11.26,0.002C-11.26,-11.035 -3.057,-18.344 8.055,-18.344C19.238,-18.344 27.441,-11.035 27.441,0.002" fill-rule="nonzero"></path></g><g transform="matrix(1.22709,0,0,1.22709,354.85,73.2911)"><path d="M0,13.595C2.92,15.308 8.182,15.964 10.973,16.523C14.223,17.173 17.832,17.759 21.494,18.224C32.164,19.556 45.033,20.523 55.947,19.683C61.566,19.259 67.15,17.361 66.893,10.697C66.787,8.044 65.717,5.325 63.723,3.767C61.354,1.907 58.666,2.501 55.947,2.827C39.992,4.732 24.217,7.159 8.105,7.714C5.682,7.798 3.143,7.964 0.641,8.45C-2.695,9.097 -2.941,11.865 0,13.595M4.865,29.491C11.398,35.536 21.699,40.2 29.473,43.476C39.98,47.894 54.303,51.406 58.74,48.736C60.816,47.671 62.129,45.075 62.35,42.38C62.604,39.251 60.906,34.786 57.307,34.372C44.35,33.294 31.051,30.9 18.363,28.218C14.438,27.39 10.51,26.482 6.561,25.564C3.756,24.913 2.891,27.659 4.865,29.491M55.301,-33.116C65.375,-37.811 70.613,-24.382 64.754,-19.598C55.584,-12.116 33.09,-6.032 15.125,-3.464C9.771,-2.694 -2.965,-0.337 -7.158,-3.954C-8.529,-5.141 -8.805,-6.663 -6.689,-7.55C10.436,-14.682 39.16,-25.593 55.301,-33.116" fill="rgb(1,206,145)" fill-rule="nonzero"></path></g></g></svg>
