<svg xmlns="http://www.w3.org/2000/svg" width="180" height="36.734" viewBox="0 0 180 36.734"><defs><style>.a{fill:#0c2540;}</style></defs><g transform="translate(0 0)"><path class="a" d="M.075.262A.139.139,0,0,1,.149,0C7.825.86,37.434.24,43.058.131c5.9-.114,4.192,4.674-.909,10.186-3.93,4.245-9.973,9.571-14.2,11.692-.726.364.6-1.1,1.094-1.594,3.767-3.748,8.913-12.6,4.657-13.145C29.063,6.68,5.924,3.053.075.262Z" transform="translate(0 0)"/><path class="a" d="M26.483,23.25c6.3-1.312,11.088-3.319,17.162-4.466a2.062,2.062,0,0,1,2.4,2.817.244.244,0,0,1-.192.137c-6.894.844-16.2,2.394-19.51,2.063C23.688,23.535,26.047,23.342,26.483,23.25Z" transform="translate(-12.09 -9.008)"/><path class="a" d="M55.8,17.8c-1.118.887-1.625,2.609-2.725,4.12-3.674,5.043-11.513,8.956-19.881,11.4C23.536,36.142,11.657,38.411,3,43.494c-4.9,2.881,2.74-4.127,15.472-9.277,15.678-6.344,23.872-10.944,26.662-13.775,2.468-2.505.31-3.421-.175-4.136-.106-.157-.233-.384-.052-.406a19.788,19.788,0,0,1,6.511-.313,8.562,8.562,0,0,1,2.136,1.257,5.994,5.994,0,0,0,2.22.838A.063.063,0,0,1,55.8,17.8Z" transform="translate(-0.723 -7.43)"/></g><g transform="translate(62.449 7.347)"><path class="a" d="M141.008,17.309H130.775a3.759,3.759,0,0,0-2.386.606,3.368,3.368,0,0,0-.95,2.236l-.971,6.73h12.2l-.422,2.843h-12.16l-1.9,13.335h-3.716l3.336-23.786a5.869,5.869,0,0,1,1.963-3.783,6.357,6.357,0,0,1,4.2-1.317c5.63,0,8.963.1,11.44.293Z" transform="translate(-120.472 -14.173)"/><path class="a" d="M165.6,50.983h-3.547l2.871-20.358h3.547Z" transform="translate(-140.498 -22.096)"/><path class="a" d="M170.428,14.173h1.537a.859.859,0,0,1,.922,1.065l-.269,2.168a.983.983,0,0,1-1.076.913h-1.5q-1.076,0-.961-1.065l.307-2.13A.951.951,0,0,1,170.428,14.173Z" transform="translate(-143.879 -14.173)"/><path class="a" d="M185.462,30.158l-.3,3.894c3.772-3.316,7.079-4.4,9.923-4.4a5.038,5.038,0,0,1,3.927,1.442,4.982,4.982,0,0,1,.929,4.2l-2.2,15.216H194.16l2.069-14.339a4.3,4.3,0,0,0-.254-2.738,2.208,2.208,0,0,0-1.984-.773,7.877,7.877,0,0,0-3.821,1.087,40.411,40.411,0,0,0-5.045,3.511l-1.858,13.252h-3.589l2.914-20.358Z" transform="translate(-148.987 -21.631)"/><path class="a" d="M241,47.59l.619-.114-.366,2.538a23.8,23.8,0,0,1-7.051,1q-5.406,0-7.347-2.487t-1.1-8.34q.844-5.81,3.315-8.173t7.748-2.362a18.154,18.154,0,0,1,6.587,1l-.318,2.238-.273-.022q-2.281-.208-5.4-.209-3.885,0-5.595,1.589t-2.3,6.229q-.591,4.6.528,6.061t4.792,1.463A40.121,40.121,0,0,0,241,47.59Z" transform="translate(-171.056 -21.631)"/><path class="a" d="M268.918,50.983h-3.547l2.871-20.358h3.547Z" transform="translate(-190.26 -22.096)"/><path class="a" d="M273.731,14.173h1.548a.866.866,0,0,1,.929,1.073l-.271,2.185a.991.991,0,0,1-1.084.92h-1.509q-1.084,0-.968-1.073l.31-2.146A.957.957,0,0,1,273.731,14.173Z" transform="translate(-193.628 -14.173)"/><path class="a" d="M289.652,27.545l-1.689,12.039a2.581,2.581,0,0,0,.3,2.049,2.582,2.582,0,0,0,1.984.585l3.724-.01-.389,2.728a17.228,17.228,0,0,1-4.6.544,4.655,4.655,0,0,1-3.842-1.463,5.127,5.127,0,0,1-.8-4.1l3.031-21.5h3.547l-.837,6.329h6.545l-.4,2.8Z" transform="translate(-199.347 -16.216)"/><path class="a" d="M326.872,47.507l.606-.091-.352,2.474a24.3,24.3,0,0,1-8.4,1.128q-5.279,0-7.22-2.675t-1.14-8.486q.845-5.935,3.272-8.068t7.96-2.132q4.687,0,6.439,1.61t1.2,4.912a6.049,6.049,0,0,1-2.3,4.139,11.3,11.3,0,0,1-5.51,1.546l-7.6.669q-.085,3.22,1.225,4.348a6.489,6.489,0,0,0,4.265,1.129A59.7,59.7,0,0,0,326.872,47.507ZM314.078,39.9l7.3-.711a6.151,6.151,0,0,0,3.061-.857,3.618,3.618,0,0,0,1.246-2.446q.338-2.132-.675-2.7a8.989,8.989,0,0,0-3.885-.564q-3.463,0-4.9,1.4T314.078,39.9Z" transform="translate(-211.816 -21.631)"/></g></svg>