<svg width="303" height="127" viewBox="0 0 303 127" fill="none" xmlns="http://www.w3.org/2000/svg">
  <g clip-path="url(#clip0)">
    <path d="M111.1 43.9H60.4C60.4 40.1 63.4 37.1 67.2 37.1H104.3C108.1 37.1 111.1 40.1 111.1 43.9Z" fill="#60D6FF"/>
    <path d="M16.7 27.3H28.3V40.3C26.7 41.7 24.9 42.7 22.8 43.4C20.7 44.1 18.3 44.5 15.7 44.5C13.2 44.5 11 44.1 9.1 43.4C7.2 42.6 5.5 41.6 4.2 40.2C2.8 38.8 1.8 37.2 1.1 35.2C0.4 33.3 0 31.2 0 28.8C0 26.5 0.4 24.5 1.1 22.5C1.9 20.6 2.9 18.9 4.3 17.5C5.7 16.1 7.3 15 9.2 14.1C11.1 13.2 13.2 12.9 15.5 12.9C18.2 12.9 20.6 13.4 22.7 14.4C24.8 15.4 26.5 16.8 27.8 18.6L23.2 23C22.2 21.9 21.2 20.9 20 20.2C18.8 19.5 17.4 19.1 15.7 19.1C14.3 19.1 13.1 19.4 12 19.9C10.9 20.4 10 21.1 9.3 22C8.6 23 8.1 24 7.7 25.2C7.3 26.4 7.1 27.6 7.1 28.9C7.1 30.3 7.3 31.6 7.8 32.8C8.3 34 8.9 35 9.7 35.8C10.5 36.6 11.5 37.3 12.6 37.7C13.7 38.2 14.9 38.4 16.2 38.4C17.4 38.4 18.5 38.3 19.5 38C20.5 37.7 21.4 37.3 22.2 36.6V32.8H16.9V27.3H16.7Z" fill="#05194A"/>
    <path d="M33.7 13.8H40.5V37.8H54.9V43.8H33.7V13.8Z" fill="#05194A"/>
    <path d="M85.8 31.6C83.6 31.6 81.5 31.2 79.6 30.4C77.7 29.6 76 28.5 74.6 27.1C73.2 25.7 72.1 24 71.3 22.1C70.5 20.2 70.1 18.1 70.1 15.9C70.1 13.6 70.5 11.6 71.3 9.6C72.1 7.7 73.2 6 74.6 4.6C76 3.2 77.6 2.1 79.6 1.3C81.5 0.499998 83.6 0.0999985 85.8 0.0999985C88 0.0999985 90.1 0.499998 92 1.3C93.9 2.1 95.6 3.2 97 4.6C98.4 6 99.5 7.7 100.3 9.6C101.1 11.5 101.5 13.6 101.5 15.9C101.5 18.1 101.1 20.2 100.3 22.1C99.5 24 98.4 25.7 97 27.1C95.6 28.5 94 29.6 92 30.4C90.1 31.2 88.1 31.6 85.8 31.6ZM85.8 25.2C87.1 25.2 88.3 24.9 89.4 24.4C90.5 23.9 91.3 23.2 92.1 22.3C92.8 21.4 93.4 20.4 93.8 19.3C94.2 18.2 94.4 16.9 94.4 15.7C94.4 14.4 94.2 13.2 93.8 12C93.4 10.9 92.8 9.9 92.1 9C91.4 8.1 90.5 7.5 89.4 7C88.3 6.5 87.2 6.3 85.8 6.3C84.5 6.3 83.3 6.5 82.2 7C81.1 7.5 80.2 8.2 79.5 9C78.8 9.9 78.2 10.9 77.8 12C77.4 13.1 77.2 14.4 77.2 15.7C77.2 17 77.4 18.2 77.8 19.3C78.2 20.4 78.8 21.4 79.5 22.3C80.2 23.2 81.1 23.9 82.2 24.4C83.3 25 84.5 25.2 85.8 25.2Z" fill="#60D6FF"/>
    <path d="M116.6 13.8H127.9C129.8 13.8 131.3 14 132.6 14.5C133.9 14.9 134.9 15.5 135.8 16.2C136.6 16.9 137.2 17.8 137.6 18.7C138 19.6 138.1 20.6 138.1 21.7C138.1 22.7 137.9 23.5 137.6 24.2C137.3 24.9 136.8 25.6 136.4 26.1C135.9 26.6 135.4 27 134.9 27.3C134.4 27.6 134 27.8 133.6 27.9C134.2 28.1 134.8 28.3 135.4 28.6C136.6 29.1 137.7 30 138.5 31.1C139.3 32.2 139.7 33.6 139.7 35.2C139.7 36.8 139.4 38.1 138.9 39.2C138.3 40.3 137.6 41.2 136.6 41.9C135.6 42.6 134.4 43.1 132.9 43.4C131.4 43.7 129.8 43.9 128 43.9H116.7V13.8H116.6ZM127.2 25.9C127.7 25.9 128.2 25.8 128.7 25.7C129.2 25.6 129.6 25.4 130 25.1C130.4 24.8 130.7 24.5 130.9 24.1C131.1 23.7 131.3 23.1 131.3 22.5C131.3 21.8 131.2 21.3 130.9 20.9C130.7 20.5 130.3 20.1 130 19.9C129.6 19.6 129.2 19.5 128.7 19.4C128.2 19.3 127.7 19.2 127.2 19.2H123.2V26H127.2V25.9ZM127.6 38.6C128.1 38.6 128.6 38.6 129.2 38.5C129.8 38.4 130.4 38.3 130.9 38C131.4 37.7 131.8 37.3 132.2 36.8C132.5 36.3 132.7 35.6 132.7 34.7C132.7 33.9 132.5 33.2 132.2 32.7C131.9 32.2 131.4 31.8 130.9 31.5C130.4 31.2 129.8 31 129.2 30.9C128.6 30.8 128 30.7 127.5 30.7H123.1V38.5H127.6V38.6Z" fill="#05194A"/>
    <path d="M154.5 13.8H162L173 43.9H165.6L163.3 37H152.7L150.4 43.9H143.3L154.5 13.8ZM161.6 31.7L158 20.4L154.3 31.8H161.6V31.7Z" fill="#05194A"/>
    <path d="M176.7 13.8H183.5V37.8H197.9V43.8H176.7V13.8Z" fill="#05194A"/>
    <path d="M56.8 79.2C56.2 80.1 55.4 80.9 54.5 81.7C53.6 82.5 52.6 83.1 51.5 83.7C50.4 84.3 49.2 84.7 47.9 85.1C46.6 85.4 45.3 85.6 43.9 85.6C41.6 85.6 39.5 85.2 37.6 84.4C35.7 83.6 34.1 82.5 32.7 81.1C31.3 79.7 30.3 78.1 29.5 76.1C28.7 74.2 28.4 72.1 28.4 69.8C28.4 67.6 28.8 65.5 29.5 63.6C30.3 61.7 31.3 60 32.7 58.6C34.1 57.2 35.7 56 37.6 55.2C39.5 54.4 41.6 54 43.9 54C46.7 54 49.1 54.5 51.2 55.5C53.3 56.5 55 58 56.4 59.9L51.8 64.4C50.9 63.1 49.8 62.1 48.6 61.4C47.4 60.6 45.9 60.3 44.2 60.3C42.8 60.3 41.6 60.5 40.5 61C39.4 61.5 38.5 62.2 37.8 63.1C37 64 36.5 65 36.1 66.1C35.7 67.3 35.5 68.5 35.5 69.8C35.5 71.1 35.7 72.4 36.1 73.5C36.5 74.6 37.1 75.6 37.8 76.5C38.6 77.3 39.5 78 40.5 78.5C41.6 79 42.7 79.2 44.1 79.2C45.2 79.2 46.1 79.1 46.9 78.9C47.7 78.7 48.4 78.4 49 78C49.6 77.6 50.2 77.2 50.6 76.7C51.1 76.2 51.5 75.7 52 75.2L56.8 79.2Z" fill="#05194A"/>
    <path d="M60.4 54.7H67.2V84.8H60.4V54.7Z" fill="#60D6FF"/>
    <path d="M82.3 60.7H72.6V54.7H98.9V60.7H89.2V84.8H82.4V60.7H82.3Z" fill="#05194A"/>
    <path d="M104.3 54.7H111.1V84.8H104.3V54.7Z" fill="#60D6FF"/>
    <path d="M115.7 79.2L132.1 60.7H116.4V54.7H140.4V60.3L124.3 78.8H140.7V84.7H115.6V79.2H115.7Z" fill="#05194A"/>
    <path d="M145.9 54.7H166.4V60.6H152.7V66.5H163.4V72.3H152.7V78.8H167.4V84.8H145.9V54.7Z" fill="#05194A"/>
    <path d="M171.9 54.7H178.4L191.4 74.2V54.7H198.1V84.8H192L178.7 64.9V84.8H172V54.7H171.9Z" fill="#05194A"/>
    <path d="M10.9 95.6H31.1V101.6H17.7V108.4H27.9V114.2H17.7V125.6H10.9V95.6Z" fill="#05194A"/>
    <path d="M52.2 126.4C50 126.4 47.9 126 46 125.2C44.1 124.4 42.4 123.3 41 121.9C39.6 120.5 38.5 118.8 37.7 116.9C36.9 115 36.5 112.9 36.5 110.7C36.5 108.4 36.9 106.4 37.7 104.4C38.5 102.5 39.6 100.8 41 99.4C42.4 98 44 96.9 46 96.1C47.9 95.3 50 94.9 52.2 94.9C54.4 94.9 56.5 95.3 58.4 96.1C60.3 96.9 62 98 63.4 99.4C64.8 100.8 65.9 102.5 66.7 104.4C67.5 106.3 67.9 108.4 67.9 110.7C67.9 112.9 67.5 115 66.7 116.9C65.9 118.8 64.8 120.5 63.4 121.9C62 123.3 60.4 124.4 58.4 125.2C56.5 126 54.4 126.4 52.2 126.4ZM52.2 120C53.5 120 54.7 119.7 55.8 119.2C56.9 118.7 57.7 118 58.5 117.1C59.2 116.2 59.8 115.2 60.2 114.1C60.6 113 60.8 111.7 60.8 110.5C60.8 109.2 60.6 108 60.2 106.8C59.8 105.7 59.2 104.7 58.5 103.8C57.8 102.9 56.9 102.3 55.8 101.8C54.7 101.3 53.6 101.1 52.2 101.1C50.9 101.1 49.7 101.3 48.6 101.8C47.5 102.3 46.6 103 45.9 103.8C45.2 104.7 44.6 105.7 44.2 106.8C43.8 107.9 43.6 109.2 43.6 110.5C43.6 111.8 43.8 113 44.2 114.1C44.6 115.2 45.2 116.2 45.9 117.1C46.6 118 47.5 118.7 48.6 119.2C49.6 119.8 50.8 120 52.2 120Z" fill="#05194A"/>
    <path d="M73.2 95.6H80V113.4C80 114.4 80.1 115.3 80.3 116.1C80.5 116.9 80.8 117.6 81.3 118.2C81.8 118.8 82.3 119.2 83.1 119.5C83.8 119.8 84.7 120 85.8 120C86.9 120 87.7 119.8 88.5 119.5C89.2 119.2 89.8 118.7 90.3 118.2C90.8 117.6 91.1 116.9 91.3 116.1C91.5 115.3 91.6 114.4 91.6 113.4V95.6H98.5V114.3C98.5 116.1 98.2 117.8 97.6 119.3C97 120.8 96.2 122.1 95.1 123.2C94 124.3 92.7 125.1 91.1 125.7C89.5 126.3 87.8 126.6 85.9 126.6C84 126.6 82.2 126.3 80.7 125.7C79.1 125.1 77.8 124.3 76.7 123.2C75.6 122.1 74.8 120.8 74.2 119.3C73.6 117.8 73.3 116.1 73.3 114.3V95.6H73.2Z" fill="#60D6FF"/>
    <path d="M103.9 95.6H110.4L123.4 115.1V95.6H130.1V125.7H123.9L110.6 105.8V125.7H103.9V95.6Z" fill="#05194A"/>
    <path d="M135.5 95.6H146.9C149.2 95.6 151.4 95.9 153.3 96.5C155.3 97.1 157 98 158.4 99.2C159.8 100.4 160.9 102 161.7 103.9C162.5 105.8 162.9 108.1 162.9 110.7C162.9 113.2 162.5 115.4 161.7 117.2C160.9 119 159.8 120.6 158.3 121.8C156.9 123 155.2 124 153.2 124.6C151.2 125.2 149.1 125.5 146.8 125.5H135.5V95.6ZM146.5 119.6C149.5 119.6 151.8 118.8 153.4 117.2C155 115.6 155.8 113.5 155.8 110.7C155.8 109.3 155.6 108.1 155.2 106.9C154.8 105.8 154.3 104.8 153.5 104C152.7 103.2 151.8 102.6 150.6 102.2C149.4 101.8 148 101.5 146.4 101.5H142.3V119.5H146.5V119.6Z" fill="#05194A"/>
    <path d="M177.1 95.6H184.6L195.6 125.7H188.2L185.9 118.8H175.3L173 125.7H165.9L177.1 95.6ZM184.3 113.5L180.6 102.1L176.9 113.5H184.3Z" fill="#05194A"/>
    <path d="M205.4 101.6H195.7V95.6H222V101.6H212.3V125.7H205.5V101.6H205.4Z" fill="#05194A"/>
    <path d="M227.3 95.6H234.1V125.7H227.3V95.6Z" fill="#05194A"/>
    <path d="M255.2 126.4C253 126.4 250.9 126 249 125.2C247.1 124.4 245.4 123.3 244 121.9C242.6 120.5 241.5 118.8 240.7 116.9C239.9 115 239.5 112.9 239.5 110.7C239.5 108.4 239.9 106.4 240.7 104.4C241.5 102.5 242.6 100.8 244 99.4C245.4 98 247 96.9 249 96.1C250.9 95.3 253 94.9 255.2 94.9C257.4 94.9 259.5 95.3 261.4 96.1C263.3 96.9 265 98 266.4 99.4C267.8 100.8 268.9 102.5 269.7 104.4C270.5 106.3 270.9 108.4 270.9 110.7C270.9 112.9 270.5 115 269.7 116.9C268.9 118.8 267.8 120.5 266.4 121.9C265 123.3 263.4 124.4 261.4 125.2C259.5 126 257.4 126.4 255.2 126.4ZM255.2 120C256.5 120 257.7 119.7 258.8 119.2C259.9 118.7 260.7 118 261.5 117.1C262.2 116.2 262.8 115.2 263.2 114.1C263.6 113 263.8 111.7 263.8 110.5C263.8 109.2 263.6 108 263.2 106.8C262.8 105.7 262.2 104.7 261.5 103.8C260.8 102.9 259.9 102.3 258.8 101.8C257.7 101.3 256.6 101.1 255.2 101.1C253.9 101.1 252.7 101.3 251.6 101.8C250.5 102.3 249.6 103 248.9 103.8C248.2 104.7 247.6 105.7 247.2 106.8C246.8 107.9 246.6 109.2 246.6 110.5C246.6 111.8 246.8 113 247.2 114.1C247.6 115.2 248.2 116.2 248.9 117.1C249.6 118 250.5 118.7 251.6 119.2C252.7 119.8 253.9 120 255.2 120Z" fill="#05194A"/>
    <path d="M276.2 95.6H282.7L295.7 115.1V95.6H302.4V125.7H296.2L283 105.8V125.7H276.3V95.6H276.2Z" fill="#05194A"/>
  </g>
  <defs>
    <clipPath id="clip0">
      <path d="M0 0H302.5V126.5H0V0Z" fill="white"/>
    </clipPath>
  </defs>
</svg>
