<?xml version="1.0" encoding="utf-8"?>
<svg version="1.1" id="Layer_1" xmlns="http://www.w3.org/2000/svg" xmlns:xlink="http://www.w3.org/1999/xlink" x="0px" y="0px"
     viewBox="0 0 720 360" style="enable-background:new 0 0 720 360;" xml:space="preserve">
<style type="text/css">
	.st0{fill:#D2232D;}
</style>
  <g>
	<path d="M150.6,77.9l-18,17.7c-5.3-5.7-12.8-9.3-22.6-9.3c-17,0-29.2,12.7-29.2,31.2c0,20.4,13.5,31.8,29.2,31.8
		c15.1,0,23.9-6.7,26.8-19.2H111v-19.5h50.9c0.4,2.8,0.5,5.4,0.5,8c0,33.9-24.2,53.8-51.5,53.8c-31.6,0-56.2-21.8-56.2-54.9
		c0-32.2,23.4-55,56.4-55C128,62.5,141.4,68.3,150.6,77.9z"/>
    <path d="M252.2,170.5h-78.6v-106h25.3V147h53.3V170.5z"/>
    <path class="st0" d="M366.9,117.5c0,31.7-23.2,55-55.9,55c-32.7,0-55.9-23.3-55.9-55c0-31.7,23.2-55,55.9-55
		C343.8,62.5,366.9,85.9,366.9,117.5z M281.5,117.5c0,18.2,12.3,30.7,29.5,30.7c17.3,0,29.5-12.6,29.5-30.7
		c0-18.2-12.3-30.7-29.5-30.7C293.8,86.8,281.5,99.3,281.5,117.5z"/>
    <path d="M423.5,64.5c26.8,0,40.7,10.5,40.7,30c0,10.5-6.1,18.6-14.6,22.4c9.4,3.3,16.8,12.4,16.8,23.2c0,19.5-13.4,30.4-40.3,30.4
		h-48.2v-106H423.5z M403.2,85.8v20.9h19.7c9.1,0,15-2.6,15-10.5c0-7.7-5.9-10.4-15-10.4H403.2z M403.2,127.8v21.5h21.7
		c9.8,0,15.4-2.9,15.4-10.8c0-7.7-5.7-10.7-15.4-10.7H403.2z"/>
    <path d="M578.3,170.5h-27l-8-22.3h-42.1l-8,22.3h-26.4l40.7-106h30.2L578.3,170.5z M509.4,125.4h25.7l-12.9-35.7L509.4,125.4z"/>
    <path d="M664.2,170.5h-78.6v-106h25.3V147h53.3V170.5z"/>
    <path d="M172.3,213l-22.2,12.7c-5.5-9-14.2-14-25.2-14c-16.7,0-29.2,12.6-29.2,30.7c0,19.7,13.6,30.7,29.2,30.7
		c10.8,0,19.5-4.9,25.6-13.9l20.7,14.7c-9.7,14.5-25.8,23.5-46.1,23.5c-32.7,0-55.8-22.9-55.8-55c0-32.1,23.1-55,55.8-55
		C145.4,187.5,163.3,197,172.3,213z"/>
    <path d="M207.4,295.5h-25.3v-106h25.3V295.5z"/>
    <path d="M305.5,213h-31.4v82.5h-25.3V213h-31.4v-23.5h88.1V213z"/>
    <path d="M341.2,295.5h-25.3v-106h25.3V295.5z"/>
    <path d="M438.3,209.3l-52.1,63.4h52.1v22.8h-85.7v-19.8l52-63.4h-51.9v-22.8h85.6V209.3z"/>
    <path d="M530.8,295.5h-81.2v-106h80.9v22.8H475v18.3h52.3v22.7H475v19.4h55.9V295.5z"/>
    <path d="M639.5,295.5h-24.3l-48.3-64.7v64.7h-25.3v-106h24.2l48.3,64.7v-64.7h25.4V295.5z"/>
    <path d="M665.3,286.2c0,5.3-4.4,9.6-9.8,9.6c-5.6,0-9.9-4.4-9.9-9.6c0-5.3,4.3-9.7,9.9-9.7C660.9,276.6,665.3,280.9,665.3,286.2z
		 M662.7,286.2c0-4.1-3.3-7.4-7.3-7.4c-4.2,0-7.4,3.3-7.4,7.4c0,4.1,3.2,7.4,7.4,7.4C659.5,293.6,662.7,290.3,662.7,286.2z
		 M659.6,284.6c0,1.4-1,2.5-2.8,2.7l2.8,3.3h-2.5l-2.6-3.3h-0.7v3.3h-2.1v-8.9h4.2C658.3,281.7,659.6,282.9,659.6,284.6z
		 M653.9,283.5v2.2h2.1c0.9,0,1.5-0.3,1.5-1.1c0-0.7-0.6-1.1-1.5-1.1H653.9z"/>
</g>
</svg>
