<svg version="1.1" id="Layer_1" xmlns="http://www.w3.org/2000/svg" xmlns:xlink="http://www.w3.org/1999/xlink" x="0px" y="0px" width="105px" height="28px" viewBox="0 0 105 28" style="enable-background:new 0 0 105 28;" fill="white" xml:space="preserve">
<polygon points="2.8,7.4 7.2,7.4 7.2,12 10,12 10,0 7.2,0 7.2,4.9 2.8,4.9 2.8,0 0,0 0,12 2.8,12 "></polygon>
  <path d="M27.1,9.4h4.8L33,12h3L30.9,0.1l0-0.1h-2.7L23,12h3L27.1,9.4z M29.5,3.8l1.3,3.1h-2.7L29.5,3.8z"></path>
  <path d="M47.6,4.3c0-1.4-0.4-2.5-1.2-3.1c-0.8-0.6-2.1-1-4-1h-4.6v12.3h2.8V8.6h1.7l2.6,3.8l0,0h3.5l-3-4.4
	C46.8,7.5,47.6,6.2,47.6,4.3z M44.2,5.6c-0.3,0.3-0.9,0.4-1.8,0.4h-1.8V2.7h1.9c0.8,0,1.4,0.1,1.7,0.3c0.3,0.2,0.5,0.6,0.5,1.3
	C44.7,4.9,44.5,5.4,44.2,5.6z"></path>
  <polygon points="49.1,2.7 52.5,2.7 52.5,12.5 55.3,12.5 55.3,2.7 58.7,2.7 58.7,0.1 49.1,0.1 "></polygon>
  <path d="M67.9,6C67.9,6,68,6,68,6c0.1,0,0.2-0.1,0.4-0.3c0.6-0.5,0.9-1.2,0.9-2.2c0-0.8-0.3-1.5-0.8-2.2
	c-0.3-0.3-0.8-0.6-1.4-0.8c-0.6-0.2-1.3-0.3-2.1-0.3h-4.7v12.3h5.3c1.6,0,2.8-0.4,3.5-1.2c0.6-0.7,0.9-1.4,0.9-2.3
	c0-0.8-0.2-1.4-0.7-2C69,6.6,68.5,6.2,67.9,6z M63.3,2.6h1.2c0.8,0,1.3,0.1,1.6,0.2c0.3,0.2,0.4,0.5,0.4,1c0,0.5-0.2,0.8-0.5,1
	c-0.3,0.2-0.9,0.2-1.6,0.2h-1.2V2.6z M66.6,9.7C66.3,9.9,65.7,10,65,10h-1.7V7.4h1.5c0.9,0,1.5,0.1,1.9,0.3c0.4,0.2,0.5,0.5,0.5,1
	C67.2,9.2,67,9.5,66.6,9.7z"></path>
  <path d="M90.3,0.1h-2.7l-5.1,12.2l-0.1,0.1h3l1.1-2.6h4.8l1.1,2.6h3L90.3,0.1L90.3,0.1z M87.7,7.3L89,4.1l1.3,3.2H87.7z
	"></path>
  <path d="M16.7,15.5h-2.7L8.9,27.9h3l1.1-2.6h4.8l1.1,2.6h3L16.7,15.5L16.7,15.5z M14.1,22.7l1.3-3.2l1.3,3.2H14.1z"></path>
  <path d="M30.8,21.4c0.1,0,0.1-0.1,0.2-0.1c0.1,0,0.2-0.1,0.4-0.3c0.6-0.5,0.9-1.2,0.9-2.2c0-0.8-0.3-1.5-0.8-2.2
	c-0.3-0.3-0.8-0.6-1.4-0.8c-0.6-0.2-1.3-0.3-2.1-0.3h-4.7v12.3h5.3c1.6,0,2.8-0.4,3.5-1.2c0.6-0.7,0.9-1.4,0.9-2.3
	c0-0.8-0.2-1.5-0.7-2C31.9,22,31.4,21.6,30.8,21.4z M26.2,18h1.2c0.8,0,1.3,0.1,1.6,0.3c0.3,0.2,0.4,0.5,0.4,1c0,0.5-0.2,0.8-0.5,1
	c-0.3,0.2-0.9,0.2-1.6,0.2h-1.2V18z M29.6,25.1c-0.4,0.2-0.9,0.3-1.7,0.3h-1.7v-2.6h1.5c0.9,0,1.5,0.1,1.9,0.3
	c0.4,0.2,0.5,0.5,0.5,1C30.1,24.6,29.9,24.9,29.6,25.1z"></path>
  <path d="M40.4,20.4c-1.1-0.3-1.8-0.5-2.1-0.7c-0.3-0.2-0.4-0.4-0.4-0.8c0-0.3,0.1-0.6,0.3-0.8c0.2-0.2,0.6-0.3,1-0.3
	c1.1,0,2.1,0.4,3.1,1.2l0.1,0.1l1.4-2.1l-0.1-0.1c-0.6-0.5-1.3-0.9-2.1-1.2c-0.8-0.3-1.6-0.4-2.4-0.4c-1.2,0-2.3,0.3-3.1,1
	c-0.8,0.6-1.2,1.6-1.2,2.7c0,1.2,0.3,2.1,1,2.6c0.6,0.5,1.7,1,3.1,1.3c0.9,0.2,1.4,0.4,1.7,0.6c0.3,0.2,0.4,0.5,0.4,0.8
	c0,0.3-0.1,0.6-0.4,0.8c-0.3,0.2-0.6,0.3-1.1,0.3c-1.1,0-2.2-0.6-3.5-1.7l-0.1-0.1l-1.7,2.1l0.1,0.1c1.5,1.4,3.2,2.2,5.1,2.2
	c1.3,0,2.4-0.3,3.2-1c0.8-0.7,1.2-1.6,1.2-2.7c0-1.1-0.3-2-1-2.6C42.4,21.1,41.5,20.7,40.4,20.4z"></path>
  <polygon points="2.8,15.5 0,15.5 0,27.9 6.7,27.9 7.8,25.3 2.8,25.3 "></polygon>
  <polygon points="16,7.6 21.3,7.6 21.3,5.1 16,5.1 16,2.8 21.9,2.8 21.9,0.1 13.2,0.1 13.2,12.5 20.9,12.5 22,9.9
	16,9.9 "></polygon>
  <polygon points="75.2,7.6 80.5,7.6 80.5,5.1 75.2,5.1 75.2,2.8 81.1,2.8 81.1,0.1 72.4,0.1 72.4,12.5 80.2,12.5
	81.3,9.9 75.2,9.9 "></polygon>
  <polygon points="94.8,0.1 94.8,2.7 98.1,2.7 98.1,12.5 100.9,12.5 100.9,2.7 103.8,2.7 104.9,0.1 "></polygon>
</svg>
