<svg class="site-logo" width="752px" viewBox="0 0 752 122" version="1.1" xmlns="http://www.w3.org/2000/svg" xmlns:xlink="http://www.w3.org/1999/xlink"><title>HelloBetter</title> <g id="Page-1" stroke="none" stroke-width="1" fill="none" fill-rule="evenodd"> <g id="Logo_Moss-Transparent" transform="translate(-1.000000, 0.000000)" fill="#037E6C" fill-rule="nonzero"> <path d="M104.73,17.83 C116.174188,29.1853907 122.629078,44.6281928 122.67,60.75 L122.67,121.610006 L61.81,121.610006 C34.3030431,121.621708 10.2170138,103.158174 3.08354211,76.592286 C-4.04992958,50.0263981 7.5475561,21.981127 31.3604842,8.21242071 C55.1734123,-5.55628554 85.2651353,-1.61583955 104.73,17.82 L104.73,17.83 Z M13.1196667,60.75 C13.0721315,73.6927123 18.1814564,86.1214502 27.3183739,95.2883925 C36.4552914,104.455335 48.8672003,109.605407 61.81,109.600004 L110.660073,109.600004 L110.660073,60.75 C110.682365,47.831104 105.553837,35.4362602 96.41,26.31 C87.2943096,17.0957008 74.8714475,11.9107911 61.91,11.9107911 C48.9485525,11.9107911 36.5256904,17.0957008 27.41,26.31 C18.251491,35.4296839 13.1082287,47.825342 13.1196667,60.75 L13.1196667,60.75 Z" id="Shape"></path> <path d="M61.81,60.75 L101.21,60.75 C101.21,82.4658364 83.6058364,100.07 61.89,100.07 C40.1741636,100.07 22.57,82.4658364 22.57,60.75 L61.81,60.75 Z" id="Path"></path> <path d="M212.09,67.65 L178.26,67.65 L178.26,100 C176.58,100.9 173.77,101.46 169.83,101.46 C165.89,101.46 163.09,100.9 161.4,100 L161.4,22.14 C163.09,21.24 165.9,20.68 169.83,20.68 C173.76,20.68 176.57,21.24 178.26,22.14 L178.26,52.93 L212.08,52.93 L212.08,22.14 C213.76,21.24 216.57,20.68 220.51,20.68 C224.45,20.68 227.25,21.24 228.94,22.14 L228.94,100 C227.26,100.9 224.45,101.46 220.51,101.46 C216.57,101.46 213.77,100.9 212.08,100 L212.09,67.65 Z" id="Path"></path> <path d="M257.6,78.33 C258.27,86.2 263.89,90.02 275.02,90.02 C281.030089,90.0823579 286.991428,88.9363389 292.55,86.65 C292.781375,91.2258548 291.361909,95.73266 288.55,99.35 C284.84,101.48 278.55,103.28 270.8,103.28 C251.14,103.28 240.69,91.93 240.69,73.73 C240.69,54.97 251.93,42.83 269.57,42.83 C285.98,42.83 293.5,52.94 293.5,67.78 C293.488965,71.3656581 292.922238,74.9279423 291.82,78.34 L257.6,78.33 Z M278.16,66.53 C279.06,60.69 276.92,54.96 268.83,54.96 C261.83,54.96 257.59,59.45 257.14,66.53 L278.16,66.53 Z" id="Shape"></path> <path d="M318.05,103.27 C306.81,103.27 303.44,95.97 303.44,85.97 L303.44,20.46 C307.26,18.33 312.54,17.2 319.73,17.2 L319.73,83.27 C319.73,87.54 321.19,88.66 324.45,88.66 C326.883314,88.7033762 329.272303,88.0058611 331.3,86.66 C331.75,91.38 330.3,97.45 328.15,100.66 C325.088326,102.444475 321.592902,103.347748 318.05,103.27 Z" id="Path"></path> <path d="M352.44,103.27 C341.2,103.27 337.83,95.97 337.83,85.97 L337.83,20.46 C341.65,18.33 346.93,17.2 354.12,17.2 L354.12,83.27 C354.12,87.54 355.58,88.66 358.84,88.66 C361.273314,88.7033762 363.662303,88.0058611 365.69,86.66 C366.14,91.38 364.69,97.45 362.54,100.66 C359.478326,102.444475 355.982902,103.347748 352.44,103.27 L352.44,103.27 Z" id="Path"></path> <path d="M425.13,72.15 C425.13,92.38 414.46,103.27 397.13,103.27 C379.04,103.27 369.13,92.93 369.13,72.15 C369.13,53.72 380.48,42.82 397.13,42.82 C414.12,42.82 425.13,53 425.13,72.15 Z M397.13,89.9 C404.88,89.9 408.37,83.38 408.37,72.26 C408.37,62.37 404.37,56.19 397.13,56.19 C389.6,56.19 385.89,62.37 385.89,72.26 C385.92,83.38 389.74,89.9 397.16,89.9 L397.13,89.9 Z" id="Shape"></path> <path d="M484.46,59.34 C493.79,61.92 499.74,67.21 499.74,78.22 C499.74,95.75 484.46,102.04 465.02,102.04 C455.712285,102.100852 446.408258,101.650172 437.15,100.69 L437.15,22.14 C445.448529,20.5735595 453.874924,19.7834804 462.32,19.78 C481.65,19.78 495.58,25.78 495.58,41.58 C495.58,50.34 491.2,56.52 484.46,58.43 L484.46,59.34 Z M453.9,53 L465.14,53 C473.46,53 478.4,50 478.4,43.67 C478.4,36.82 472.56,33.89 462.78,33.89 C459.805695,33.8398006 456.8331,34.0640842 453.9,34.56 L453.9,53 Z M453.9,87.16 C457.593891,87.5466103 461.305957,87.7335489 465.02,87.72 C475.92,87.72 482.32,84.57 482.32,77.38 C482.32,70.19 475.8,67.04 465.24,67.04 L453.9,67.04 L453.9,87.16 Z" id="Shape"></path> <path d="M523,78.33 C523.67,86.2 529.29,90.02 540.42,90.02 C546.447572,90.085907 552.426605,88.9363545 558,86.64 C558.230479,91.21574 556.811109,95.7222403 554,99.34 C550.29,101.47 544,103.27 536.25,103.27 C516.59,103.27 506.14,91.92 506.14,73.72 C506.14,54.96 517.38,42.82 535.02,42.82 C551.43,42.82 558.95,52.93 558.95,67.77 C558.938965,71.3556581 558.372238,74.9179423 557.27,78.33 L523,78.33 Z M543.56,66.53 C544.46,60.69 542.32,54.96 534.23,54.96 C527.23,54.96 522.99,59.45 522.54,66.53 L543.56,66.53 Z" id="Shape"></path> <path d="M602.45,45.07 C603.12,46.42 603.45,49.23 603.45,52.07 C603.45,54.91 603.11,57.69 602.45,59.07 L587.51,59.07 L587.51,80.19 C587.51,85.58 589.08,88.39 595.15,88.39 C598.786772,88.4849241 602.361555,87.4355748 605.37,85.39 C605.93,90.11 604.14,96.74 601.89,99.66 C598.63,102.02 594.7,103.37 589.08,103.37 C575.26,103.37 571.21,95.06 571.21,82.7 L571.21,59 L562.56,59 C562.56,54.17 563.35,48.66 564.81,45.07 L571.21,45.07 L571.21,32.93 C575.21,30.01 581.21,28.55 587.5,28.44 L587.5,45.07 L602.45,45.07 Z" id="Path"></path> <path d="M646.05,45.07 C646.72,46.42 647.05,49.23 647.05,52.07 C647.05,54.91 646.71,57.69 646.05,59.07 L631.11,59.07 L631.11,80.19 C631.11,85.58 632.68,88.39 638.75,88.39 C642.386772,88.4849241 645.961555,87.4355748 648.97,85.39 C649.53,90.11 647.74,96.74 645.49,99.66 C642.23,102.02 638.3,103.37 632.68,103.37 C618.86,103.37 614.81,95.06 614.81,82.7 L614.81,59 L606.16,59 C606.16,54.17 606.95,48.66 608.41,45.07 L614.81,45.07 L614.81,32.93 C618.81,30.01 624.81,28.55 631.1,28.44 L631.1,45.07 L646.05,45.07 Z" id="Path"></path> <path d="M668.86,78.33 C669.53,86.2 675.15,90.02 686.28,90.02 C692.290089,90.0823579 698.251428,88.9363389 703.81,86.65 C704.041375,91.2258548 702.621909,95.73266 699.81,99.35 C696.1,101.48 689.81,103.28 682.06,103.28 C662.4,103.28 651.95,91.93 651.95,73.73 C651.95,54.97 663.19,42.83 680.83,42.83 C697.24,42.83 704.76,52.94 704.76,67.78 C704.722098,71.3664919 704.12838,74.9254267 703,78.33 L668.86,78.33 Z M689.42,66.53 C690.32,60.69 688.18,54.96 680.09,54.96 C673.09,54.96 668.85,59.45 668.4,66.53 L689.42,66.53 Z" id="Shape"></path> <path d="M744.6,42.82 C746.412966,42.7498966 748.218228,43.0918023 749.88,43.82 C751.561874,46.9560446 752.376559,50.4840432 752.24,54.04 C752.317661,56.364688 751.978997,58.6845321 751.24,60.89 C748.894127,59.5212214 746.203265,58.8580541 743.49,58.98 C737.76,58.98 733.49,62.91 731.35,68.76 L731.35,100.11 C729.89,100.9 727.19,101.46 723.26,101.46 C719.33,101.46 716.63,100.9 715.06,100.11 L715.06,46.51 C718.06,44.83 722.81,43.93 728.21,43.93 L729.33,54.27 L730.23,54.27 C731.79,48.1 735.38,42.82 744.6,42.82 Z" id="Path"></path> </g> </g> </svg>
