<svg xmlns="http://www.w3.org/2000/svg" xmlns:xlink="http://www.w3.org/1999/xlink" width="129" height="24" viewBox="0 0 129 24">
  <defs>
    <path id="tier-logo-a" d="M98.7123488,11.0113986 L117.395713,11.0113986 C121.103797,11.0113986 122.07942,9.40184549 121.745635,7.4260901 C121.494046,5.98588746 120.350458,4.79971051 117.395713,4.79971051 L98.7123488,4.79971051 L98.7123488,11.0113986 Z M94.2516419,0.00072371992 L117.645873,0.0282250769 C123.669722,0.0282250769 126.457931,2.93685544 127.099055,6.66328931 C127.936019,11.547675 125.620968,15.6417586 118.231962,15.8118328 L128.609306,22.4360413 C129.00027,22.6857246 129.117488,23.2089741 128.870902,23.6041252 C128.717232,23.85019 128.449918,24 128.163307,24 L123.497469,24 C123.336652,24 123.178694,23.9529582 123.044322,23.8646644 L110.702866,15.8118328 L98.7123488,15.8118328 L98.7123488,23.152524 C98.7123488,23.6207708 98.3378239,24 97.8761003,24 L94.2509272,24 C93.7884889,24 93.4139639,23.6207708 93.4139639,23.152524 L93.4139639,0.848199747 C93.4139639,0.380676678 93.7884889,0.00072371992 94.2509272,0.00072371992 L94.2516419,0.00072371992 Z M55.211701,0 L86.1643324,0 C86.626056,0 87.000581,0.379229238 87.000581,0.846752307 L87.000581,3.98045956 C87.000581,4.44870635 86.626056,4.82721187 86.1643324,4.82721187 L86.162903,4.82721187 L59.6731226,4.79971051 L59.6731226,9.88167179 L82.8179088,9.88167179 C83.2803471,9.88167179 83.6548721,10.2616248 83.6548721,10.7291478 L83.6548721,13.2701285 C83.6548721,13.7383752 83.2803471,14.1176045 82.8179088,14.1176045 L59.6731226,14.1176045 L59.6731226,19.2053555 L86.1643324,19.2053555 C86.626056,19.2053555 87.000581,19.5853085 87.000581,20.0521078 L87.000581,23.152524 C87.000581,23.6207708 86.626056,24 86.1643324,24 L55.211701,24 C54.7499774,24 54.3754524,23.6207708 54.3754524,23.152524 L54.3754524,0.846752307 C54.3754524,0.379229238 54.7499774,0 55.211701,0 L55.211701,0 Z M43.7793974,0 L47.4038557,0 C47.866294,0 48.240819,0.379229238 48.240819,0.846752307 L48.240819,23.152524 C48.240819,23.6207708 47.866294,24 47.4038557,24 L43.7793974,24 C43.3169591,24 42.9424341,23.6207708 42.9424341,23.152524 L42.9424341,0.846752307 C42.9424341,0.379229238 43.3169591,0 43.7793974,0 L43.7793974,0 Z M0.836248529,0 L35.9715521,0 C36.4332757,0 36.8078007,0.379229238 36.8078007,0.846752307 L36.8078007,3.95295821 C36.8078007,4.42120499 36.4332757,4.79971051 35.9715521,4.79971051 L21.0527354,4.79971051 L21.0527354,23.152524 C21.0527354,23.6207708 20.6782104,24 20.2164869,24 L16.5913138,24 C16.1295902,24 15.7550652,23.6207708 15.7550652,23.152524 L15.7550652,4.79971051 L0.836248529,4.79971051 C0.374524982,4.79971051 0,4.42120499 0,3.95295821 L0,0.846752307 C0,0.379229238 0.374524982,0 0.836248529,0 L0.836248529,0 Z"/>
  </defs>
  <g fill="none" fill-rule="evenodd">
    <mask id="tier-logo-b" fill="#fff">
      <use xlink:href="#tier-logo-a"/>
    </mask>
    <use fill="#FFF" xlink:href="#tier-logo-a"/>
    <g fill="#69D2AA" fill-rule="nonzero" mask="url(#tier-logo-b)">
      <rect width="129" height="24"/>
    </g>
  </g>
</svg>
