<?xml version="1.0" encoding="utf-8"?>
<!-- Generator: Adobe Illustrator 24.0.2, SVG Export Plug-In . SVG Version: 6.00 Build 0)  -->
<svg version="1.1" id="Layer_1" xmlns="http://www.w3.org/2000/svg" xmlns:xlink="http://www.w3.org/1999/xlink" x="0px" y="0px"
	 viewBox="0 0 1000 1000" style="enable-background:new 0 0 1000 1000;" xml:space="preserve">
<g>
	<polygon points="381.21,359.22 447.38,359.22 447.38,640.78 400.59,687.57 353.81,640.78 381.21,613.37 	"/>
	<polygon points="287.64,359.22 353.81,359.22 353.81,640.78 307.02,687.57 260.24,640.78 287.64,613.37 	"/>
	<polygon points="260.24,640.78 194.07,574.61 194.07,359.22 260.24,359.22 	"/>
	<polygon points="673.03,359.22 606.86,359.22 606.86,640.78 653.65,687.57 700.43,640.78 673.03,613.37 	"/>
	<polygon points="778.52,359.22 712.36,359.22 712.36,640.78 759.15,687.57 805.93,640.78 778.52,613.37 	"/>
	<polygon points="560.85,452.66 514.14,405.94 560.85,359.22 514.07,312.43 467.28,359.22 514,405.94 467.28,452.66 494.69,480.06 
		494.69,640.78 541.47,687.57 588.26,640.78 560.85,613.37 	"/>
</g>
</svg>
