<svg width="482" height="314" fill="none" xmlns="http://www.w3.org/2000/svg"><path d="M233.09 313.391c128.732 0 233.09-6.408 233.09-14.312 0-7.905-104.358-14.313-233.09-14.313S0 291.174 0 299.079c0 7.904 104.358 14.312 233.09 14.312z" fill="#003269"/><path opacity=".1" d="M234.621 302.657c51.944 0 94.054-3.891 94.054-8.69 0-4.799-42.11-8.69-94.054-8.69-51.945 0-94.054 3.891-94.054 8.69 0 4.799 42.109 8.69 94.054 8.69z" fill="#000"/><path d="M377.749 231.56c0 32.308 20.268 58.451 45.315 58.451z" fill="#003269"/><path d="M423.064 290.011c0-32.671 22.618-59.107 50.57-59.107z" fill="#00AAC8"/><path d="M394.17 234.489c0 30.689 12.924 55.521 28.897 55.521z" fill="#00AAC8"/><path d="M423.064 290.011c0-41.746 26.143-75.526 58.45-75.526z" fill="#003269"/><path d="M413.529 290.423s6.427-.198 8.364-1.577c1.937-1.379 9.885-3.026 10.366-.814.48 2.212 9.658 11.001 2.402 11.059-7.255.059-16.858-1.13-18.791-2.307-1.933-1.178-2.341-6.361-2.341-6.361z" fill="#A8A8A8"/><path opacity=".2" d="M434.791 298.321c-7.256.058-16.859-1.13-18.792-2.308-1.472-.896-2.059-4.114-2.255-5.599l-.215.009s.408 5.183 2.341 6.36c1.933 1.178 11.536 2.366 18.791 2.308 2.094-.017 2.818-.762 2.778-1.866-.291.667-1.09 1.083-2.648 1.096z" fill="#000"/><path d="M296.984 230.072H181.462v67.473h115.522v-67.473z" fill="#003269"/><path d="M320.967 230.647h-85.17a10.53 10.53 0 01-10.531-10.531v-39.02a4.183 4.183 0 011.302-3.028l45.132-42.781a9.71 9.71 0 0113.365 0l43.03 40.789a10.901 10.901 0 013.403 7.915v36.125a10.531 10.531 0 01-10.531 10.531z" fill="#003269"/><path opacity=".1" d="M225.266 181.737h105.347v34.224a14.684 14.684 0 01-14.687 14.687h-75.973a14.686 14.686 0 01-14.687-14.687v-34.224z" fill="#000"/><path d="M311.652 148.207h-66.757a5.795 5.795 0 00-5.795 5.794v66.758c0 3.2 2.595 5.794 5.795 5.794h66.757c3.2 0 5.795-2.594 5.795-5.794v-66.758c0-3.2-2.595-5.794-5.795-5.794z" fill="#FAF8F8"/><path opacity=".1" d="M317.446 183.496v43.057H239.1v-43.057l39.173 18.934 39.173-18.934z" fill="#000"/><path d="M278.274 204.864l-50.193-24.26a2.04 2.04 0 00-2.669.848 2.032 2.032 0 00-.254.985v41.741a6.347 6.347 0 001.862 4.496 6.37 6.37 0 004.497 1.863h93.514c1.686 0 3.304-.67 4.496-1.863a6.356 6.356 0 001.863-4.496v-41.026a2.48 2.48 0 00-1.165-2.105 2.486 2.486 0 00-2.402-.132l-49.549 23.949z" fill="#00AAC8"/><path d="M267.76 155.4h-21.91v3.098h21.91V155.4zm41.384 11.287h-65.067v1.771h65.067v-1.771zm0 5.976h-65.067v1.77h65.067v-1.77zm0 5.975h-65.067v1.771h65.067v-1.771z" fill="#0A6EAA"/><path d="M242.308 158.531c5.011 0 9.074-4.07 9.074-9.09 0-5.021-4.063-9.091-9.074-9.091-5.012 0-9.074 4.07-9.074 9.091 0 5.02 4.062 9.09 9.074 9.09z" fill="#fff"/><path d="M242.308 138.801a10.84 10.84 0 00-10.019 6.695 10.845 10.845 0 1020.863 4.15 10.878 10.878 0 00-10.844-10.845zm-2.227 16.627l-5.557-5.558 1.558-1.559 4.005 4.004 8.451-8.451 1.559 1.558-10.016 10.006z" fill="#57B894"/><path d="M129.773.013a3.798 3.798 0 00-2.203.492 5.732 5.732 0 00-1.49 1.967 23.537 23.537 0 01-6.41 7.24c-1.904 1.395-4.326 3.135-4 5.707a7.73 7.73 0 00.928 2.41c1.757 3.546 6.552 6.287 6.08 10.334 1.746-2.922-.589-4.367 1.156-7.29.832-1.391 2.276-2.962 3.531-2.088.42.292.696.817 1.134 1.074 1.044.613 2.154-.559 3.079-1.388 3.186-2.861 7.719-2.112 11.684-1.22 1.873.42 3.929.973 5.036 2.762 1.455 2.353-1.383 4.894-2.1 7.553a1.459 1.459 0 00.306 1.31 1.448 1.448 0 001.25.494c1.19-.117 2.599-.213 2.67-.736 1.497.054 3.331-.116 3.973-1.675a6.556 6.556 0 00.307-1.906c.236-2.619 1.347-5.008 2.083-7.5.737-2.492 1.057-5.413-.186-7.623a8.81 8.81 0 00-1.628-1.978c-7.051-6.824-16.321-7.95-25.2-7.94z" fill="#2F2E41"/><path d="M124.213 33.274s1.533 12.78-4.089 13.802c-5.623 1.022 5.111 18.402 5.111 18.402l25.558 3.067-6.134-20.447s-4.089-1.533-1.533-11.757c2.556-10.223-18.913-3.067-18.913-3.067zM108.62 252.819l2.045 28.114h10.734l-3.067-28.114h-9.712zm78.723-53.161l1.533 23.513 11.757-5.112-4.601-19.424-8.689 1.023z" fill="#A0616A"/><path d="M100.954 145.474s.511 29.648 3.578 39.36c3.067 9.712 2.556 10.223 2.045 11.756-.511 1.534-1.023.512-1.023 3.067 0 2.556-1.022 42.938 0 46.516 1.023 3.578-3.066 9.712 0 10.223 3.067.512 17.38 0 17.891-3.067.511-3.067-4.089-4.089-2.044-6.134 2.044-2.044 5.111-43.96 5.111-43.96l7.156-29.136 13.291-15.335h28.114l8.689 33.737s-3.578 9.712-1.022 9.712 17.891 3.067 17.891-8.178c0-11.246-5.112-44.472-6.134-45.494-1.023-1.022.511-4.6-1.023-6.134-1.533-1.533-19.424-12.268-26.069-14.312-6.645-2.045-15.967-4.479-15.967-4.479l-50.484 21.858z" fill="#003269"/><path d="M200.629 213.97s-7.667-2.556-11.245 5.112c-3.578 7.667-2.045 9.712-2.045 9.712s11.757 4.089 13.801 2.045c.89-.89 3.715-1.199 6.622-1.264 4.429-.1 5.607-6.365 1.425-7.824a4.576 4.576 0 00-.379-.113c-4.089-1.023-8.179-7.668-8.179-7.668z" fill="#fff"/><path d="M135.714 41.709c8.469 0 15.335-6.866 15.335-15.335 0-8.47-6.866-15.335-15.335-15.335-8.47 0-15.335 6.866-15.335 15.335 0 8.469 6.865 15.335 15.335 15.335z" fill="#A0616A"/><path d="M115.778 53.465s25.047 5.112 31.181-3.067c6.134-8.178 8.69 23.003 8.69 23.003l3.067 32.714-4.601 17.891s-24.024 19.424-31.692 20.957c-7.667 1.534-19.424 2.556-19.424 2.556s3.578-56.739 3.578-57.761c0-1.023 9.201-36.293 9.201-36.293z" fill="#fff"/><path d="M123.394 43.879s-5.572-3.193-7.106-.126c-1.533 3.067-15.846 10.734-17.38 10.734-1.533 0 3.067 42.427 1.023 47.539-2.045 5.111-11.757 42.426-6.134 45.493 5.623 3.067 1.533-3.067 7.156 4.6 5.623 7.668 33.226 7.668 34.759 4.601 1.534-3.067-12.268-26.069-9.712-47.538 2.556-21.469 6.645-51.116 3.067-55.206-3.578-4.089-5.673-10.097-5.673-10.097zm18.455 3.452l.712-2.45s21.268 7.05 22.29 11.651c1.022 4.6.511 36.804-3.067 39.36-3.578 2.556-8.69 6.645-5.112 12.779 3.579 6.134 7.668 12.779 10.735 13.29 3.067.511 8.69 4.089 7.156 7.667-1.533 3.578-19.935-3.067-19.935-3.067s-12.268-9.201-11.757-23.513c.511-14.313-1.022-55.717-1.022-55.717z" fill="#0A6EAA"/><path d="M159.739 107.648l-12.268 23.003s-17.891 18.401-7.667 20.446c10.223 2.045 15.846-16.868 15.846-16.868l13.29-18.913-9.201-7.668z" fill="#A0616A"/><path d="M130.519 4.025a3.48 3.48 0 00-1.794.348 4.18 4.18 0 00-1.213 1.39 17.657 17.657 0 01-5.218 5.117c-1.55.986-3.521 2.216-3.256 4.034.144.61.401 1.187.756 1.703a13.402 13.402 0 011.628 8.348l4.262-6.196c.677-.983 1.853-2.094 2.874-1.476.342.207.567.578.923.76.85.432 1.754-.396 2.507-.982 2.594-2.022 6.283-1.492 9.512-.862 1.524.297 3.198.687 4.099 1.952 1.497 2.102-.067 5.139.807 7.567a2.22 2.22 0 00.923-1.473c1.219.038 2.712-.082 3.234-1.184a4.08 4.08 0 00.251-1.348c.191-1.85 1.096-3.539 1.695-5.3.6-1.762.86-3.827-.151-5.388-.37-.53-.817-1-1.325-1.399-5.74-4.823-13.287-5.618-20.514-5.61z" fill="#2F2E41"/><path d="M159.74 54.487l4.762 1.265s11.084 28.383 8.528 47.807c-2.556 19.424-4.089 15.335-4.089 15.335s-4.09-9.201-13.29-7.156l4.089-57.25z" fill="#0A6EAA"/><path d="M109.331 277.217c-1.233 1.675-.986 4.069-2.077 5.839-.947 1.535-2.731 2.339-3.914 3.699a9.899 9.899 0 00-1.007 1.447c-1.098 1.84-1.991 4.197-.909 6.047.87 1.487 2.699 2.069 4.376 2.465 2.12.501 4.323.902 6.467.519 2.144-.383 4.24-1.696 5.005-3.735.15-.513.329-1.017.535-1.511 1.162-2.288 4.808-2.312 5.997-4.587.833-1.591.068-3.515-.697-5.14l-2.336-4.963c-.776-1.647-3.919-.7-5.557-1.095-2.137-.514-4.346-1.081-5.883 1.015zm10.385-115.087l9.064 12.342 35.347-18.262 2.039-1.049-44.163-2.852-2.287 9.821z" fill="#fff"/><path opacity=".2" d="M120.207 162.8l8.572 11.672 35.346-18.262-43.918 6.59z" fill="#000"/><path d="M116.904 176.525l1.639-10.704 47.799-10.65-49.438 21.354z" fill="#fff"/><path d="M92.264 117.872l21.469 33.225s13.29 16.869 17.38 9.201c4.089-7.667-14.313-20.446-14.313-20.446l-13.801-25.558-10.735 3.578z" fill="#A0616A"/><path d="M102.997 55.51l-4.09-1.023s-8.178 2.556-10.222 13.29c-2.045 10.735-.512 53.673 2.044 54.184 2.556.511 12.623-7.476 14.235-5.783 1.611 1.694-3.5-6.996-1.967-11.597 1.534-4.6 0-49.071 0-49.071z" fill="#0A6EAA"/></svg>