<svg width="612" height="753" fill="none" xmlns="http://www.w3.org/2000/svg"><circle cx="305.815" cy="336.852" r="231.539" transform="rotate(-65.942 305.815 336.852)" fill="#0A6EAA" fill-opacity=".3"/><rect x="233.171" y="40.967" width="285.523" height="601.029" rx="35" transform="rotate(4.766 233.171 40.967)" fill="#EAEAEA"/><path d="M503.168 99.64l-43.95 527.141a23.786 23.786 0 01-25.669 21.698l-214.056-17.847a23.746 23.746 0 01-8.921-2.546 23.747 23.747 0 01-11.759-13.886 23.72 23.72 0 01-1.041-9.216l43.949-527.141a23.77 23.77 0 0125.671-21.714l32.033 2.67-.343 4.107a19.572 19.572 0 004.562 14.27 19.583 19.583 0 0013.318 6.866l108.87 9.077c4.165.356 8.332-.64 11.885-2.842.717-.435 1.403-.92 2.054-1.45a19.511 19.511 0 007.194-13.591l.343-4.107 34.14 2.846a23.772 23.772 0 0121.72 25.665z" fill="#003269"/><path fill-rule="evenodd" clip-rule="evenodd" d="M446.897 120.247c7.066 10.829 15.459 18.467 20.63 19.505 12.968 2.601 34.419-39.071 33.535-60.014-.883-20.943-43.247-50.363-61.486-18.53-6.331 11.048-6.462 23.575-3.392 35.333l-41.382 53.144 36.953 17.862 15.142-47.3z" fill="#E9BC92"/><path fill-rule="evenodd" clip-rule="evenodd" d="M428.767 42.453c-.622-1.76-.457-3.763-.245-5.638.22-1.948.465-3.905.914-5.826.898-3.838 2.816-7.825 6.586-9.32 3.024-1.198 6.464-.728 9.31.388 1.895.743 3.649 1.907 5.123 3.33 1.462 1.412 2.411 3.275 3.754 4.796 1.869-3.7 4.395-7.296 7.829-9.568 3.304-2.185 7.04-2.502 10.568-1.358 3.622 1.174 6.59 3.59 8.836 6.702.562.78 1.107 1.576 1.593 2.413.406.7.796 1.496 1.425 2.005.7.568 1.313.3 2.105-.028a14.314 14.314 0 012.868-.833c4.302-.799 8.931.255 11.933 3.431 1.383 1.464 2.502 3.355 2.922 5.418.375 1.84.076 4.326 1.037 5.946.408.688 1.087.366 1.821.24 1.104-.188 2.199-.455 3.305-.622 1.553-.236 3.105-.223 4.61.118 2.202.5 4.887 1.93 4.199 4.797-.258 1.078-.925 2.04-1.468 2.99a273.673 273.673 0 01-2.263 3.892c-.583.979-1.173 1.912-1.851 2.822-.361.485-1.165 1.327-1.195 1.974-.037.808 1.47 1.067 2.024 1.363 1.095.586 2.121 1.324 2.923 2.3.621.757 1.2 1.707 1.094 2.787-.065.664-.399 1.216-.777 1.749-.454.638-.498 1.072-.749 1.817 1.856-.014 7.846.857 7.201 3.86-.215 1-1.199 1.773-1.942 2.344-1.304 1.004-2.758 1.793-4.205 2.517-3.018 1.51-6.236 2.516-9.476 3.14 2.191 2.59 1.15 6.603-2.32 7.615-1.533.447-3.071-.032-4.387-.744-.482-.26-1.1-.793-1.529-.895-.231-.055-.54.014-.838-.106-1.963-.788-3.886-2.282-5.539-3.6-2.945-2.351-5.32-5.432-6.724-9.056-.36-.93-.732-1.544-1.619-1.962-.778-.366-1.64-.521-2.422-.875-2.071-.937-3.433-2.829-5.011-4.413-1.356 2.51-3.453 4.984-5.619 6.785-1.767 1.47-3.687.879-5.523.195-5.873-2.187-11.226-5.502-16.854-8.213 4.85 3.863 10.231 7.09 14.928 11.146 2.123 1.834-.535 2.578-2.129 3.213-2.624 1.047-5.025 2.755-7.095 4.777-.986-4.76-4.588-9.323-9.274-10.273-5.179-1.049-11.436 3.615-10.655 9.52.454 3.428 3.058 5.925 5.089 8.286-3.014 1.115-4.987 3.96-7.448 5.971-1.214.992-2.749 2.034-4.296 1.836-.572-.073-1.157-.338-1.739-.124-.722.264-1.105.765-1.927.895-3.277.52-7.046-1.464-8.144-4.74-.994-2.964 1.058-5.902 3.686-7.149-2.087-2.353-6.172-6.056-3.165-9.627-5.482-3.114-14.795-18.948-3.948-21.987-3.032-4.374-4.08-11.99 1.056-15.774 3.954-2.915 9.599-2.343 13.637-.647" fill="#5A3737"/><path fill-rule="evenodd" clip-rule="evenodd" d="M310.884 280.075L290.228 511.75l-17.899 169.464 29.588 14.302 93.148-374.751-84.181-40.69z" fill="#0C6195"/><path fill-rule="evenodd" clip-rule="evenodd" d="M256.187 707.602l17.169-31.59 32.334 15.629c15.183 27.283 47.396 55.2 47.396 55.2L350.109 753 291.6 724.719l-18.527-12.754-1.489 3.079-15.397-7.442z" fill="#676767"/><path fill-rule="evenodd" clip-rule="evenodd" d="M454.458 314.543l27.432 61.869c10.855 10.817 19.113 21.27 24.775 31.359.973 3.019 1.282 8.183-6.786 2.701-8.067-5.481-16.799-10.884-19.612-8.673-2.812 2.212.323 8.579-4.254 11.114-3.052 1.691-6.748-9.046-11.088-32.212l-35.745-46.282 25.278-19.876z" fill="#E9BC92"/><path fill-rule="evenodd" clip-rule="evenodd" d="M419.953 139.68l19.599 2.58c-4.756 68.341 2.65 140.269 37.147 214.675l-25.903 17.541c-35.905-53.834-72.321-99.773-70.156-153.465.727-18.02 30.178-63.78 39.313-81.331z" fill="#676767"/><mask id="a" maskUnits="userSpaceOnUse" x="195" y="53" width="311" height="597"><path d="M503.056 99.033l-43.95 527.141a23.77 23.77 0 01-8.343 16.159 23.794 23.794 0 01-17.326 5.539l-214.056-17.847a23.73 23.73 0 01-16.184-8.318 23.728 23.728 0 01-5.537-17.331l43.949-527.14A23.769 23.769 0 01267.28 55.52l32.033 2.671-.343 4.107a19.572 19.572 0 004.562 14.27 19.583 19.583 0 0013.318 6.866l108.87 9.077c4.165.356 8.332-.64 11.885-2.842.717-.435 1.403-.92 2.054-1.45a19.51 19.51 0 007.194-13.592l.343-4.106 34.14 2.846a23.771 23.771 0 0121.72 25.665z" fill="#F2F2F2"/></mask><g mask="url(#a)" fill-rule="evenodd" clip-rule="evenodd"><path d="M292.671 268.656c-33.294 66.825-76.453 157.599-80.353 160.883-3.9 3.283-162.788 39.095-162.788 39.095l2.716 33.304s178.721-22.006 191.346-30.345c12.624-8.339 99.69-99.147 148.98-154.649l-99.901-48.288z" fill="#0A6EAA"/><path d="M252.123 195.47s-76.582 73.66-86.402 79.321c-4.8 2.767-28.268 5.229-43.524 5.4-6.123.068-6.851 4.914-5.921 6.953 7.568 16.586 22.354 12.862 36.99 15.14 16.034 2.496 4.25 17.866 16.845 20.017 1.489-8.662 2.838-25.732 11.582-31.68 5.829-3.966 95.787-78.009 95.787-78.009l-25.357-17.142z" fill="#E9BC92"/><path d="M284.016 272.783s68.887 42.794 114.301 55.249c3.751 1.029 7.081-4.474 7.376-9.159 4.585-72.957 13.232-134.37 33.69-176.695-8.513.142-24.458-10.546-24.458-10.546-51.744 28.796-90.028 72.029-130.909 141.151z" fill="#fff"/><path d="M409.415 121.935a64.21 64.21 0 011.595-.214l-.431.776 12.778 6.177c-1.235 4.265-5.158 13.488-10.593 26.265-18.693 43.946-55.27 129.936-61.854 200.839l-113.167-54.702c21.204-38.993 40.524-65.747 59.612-86.623-27.075 11.539-60.906 32.877-99.239 71.786l-25.718-21.729c92.239-114.466 212.038-138.589 234.792-142.236l1.052-.906 1.173.567z" fill="#949494"/></g><path fill="#00AAC8" d="M144.728 108.786l37.696 37.696-37.696 37.696-37.696-37.696z"/><path fill="#00AAC8" fill-opacity=".5" d="M156.184 144.127l37.696 37.696-37.696 37.696-37.696-37.696z"/></svg>