<svg width="400" height="354" fill="none" xmlns="http://www.w3.org/2000/svg"><g clip-path="url(#clip0)"><path d="M162.013 54.06v77.44s27.487 30.5 81.494-4.016c0 0 21.493-16.484 54.576-4.217l-9.676-70.469s-22.364-23.105-72.103 2.825c-.003-.002-28.068 19.228-54.291-1.563z" fill="#5D76B7"/><path d="M208.803 69.64l-.974 5.373-4.834 1.277 3.836 1.627-1.014 4.846 3.729-4.012 3.489 1.657-1.571-4.104 3.203-3.967-4.295 1.41-1.569-4.108zm14.4-9.465l-1.005 5.02-4.615 1.79 3.619 1.112-.489 4.804 3.161-4.49 3.823 1.45-1.891-3.725 3.044-3.778-3.757 1.541-1.89-3.724zm14.809-2.27l-.52 4.451-4.762 2.154 3.767.753-.52 4.452 3.568-3.82 4 1.438-2.257-3.877 3.745-3.833-4.792 1.802-2.229-3.52zm11.452 6.295l-.517 4.453-5.012 1.294 4.16 1.246-.693 4.467 3.745-3.833 4.012 1.615-2.199-3.174 3.728-4.012-4.994 1.47-2.23-3.526zm5.575 12.071l-.52 4.452-5.009 1.296 4.161 1.246-.694 4.466 3.742-3.835 4.012 1.615-2.199-3.173 3.732-4.01-4.998 1.467-2.227-3.524zm-.868 13.126l-.52 4.452-5.009 1.296 4.157 1.244-.69 4.469 3.742-3.835 4.012 1.614-2.199-3.173 3.732-4.01-4.998 1.467-2.227-3.524zm-11.839 14.906l-.49 4.804-5.757 2.942 4.627.502-.356 4.262 3.527-4.344 4.818.663-2.579-3.494 3.362-4.154-4.25 1.935-2.902-3.116zm-14.36 12.112l-1.013 4.846-5.232 2.896 4.452.52-.681 4.643 3.675-4.712 4.26.359-2.199-3.174 3.687-4.536-4.588 2.14-2.361-2.982zm-15.964 3.245l-1.163 5.209-5.479 2.038 3.619 1.112-.692 4.472 3.729-4.012 4.101.547-1.511-3.404 3.673-4.709-4.574 2.313-1.703-3.566zm-11.849-4.676l-1.337 5.223-5.043.941 3.503 1.83-1.073 4.146 3.774-3.485 4.173 1.423-1.379-3.943 3.044-3.779-3.96 1.209-1.702-3.565zm-5.194-13.869l-1.174 5.037-5.786.471 4.276 2.652-1.716 4.904 4.444-3.893 4.233 2.123-1.744-4.089 4.387-4.595-5.552 1.161-1.368-3.771zm4.613-16.959l-1.174 5.037-5.786.471 4.278 2.649-1.718 4.907 4.446-3.896 4.231 2.126-1.748-4.091 4.39-4.593-5.549 1.158-1.37-3.768z" fill="#FFD037"/><path d="M237.764 102.538l-2.708-12.788a1.514 1.514 0 00-1.21-1.181 1.517 1.517 0 00-.593.007l-.931.206-1.129-5.353a3.864 3.864 0 00-1.676-2.446 3.87 3.87 0 00-2.914-.544l-6.267 1.322a3.876 3.876 0 00-3.008 3.078c-.093.5-.087 1.014.018 1.512l1.129 5.353-.935.198a1.52 1.52 0 00-1.174 1.804l2.708 12.787a1.513 1.513 0 00.658.961 1.522 1.522 0 001.145.213l15.711-3.313a1.518 1.518 0 001.187-1.218 1.524 1.524 0 00-.011-.598zm-18.836-15.526a3.882 3.882 0 01.544-2.915 3.86 3.86 0 012.445-1.675l3.526-.745a3.872 3.872 0 014.59 2.99l.927 4.393-11.103 2.34-.929-4.389zm8.971 11.536l.43 2.083a.848.848 0 01-.119.642.862.862 0 01-.538.369.843.843 0 01-.641-.119.848.848 0 01-.369-.538l-.462-2.188a2.068 2.068 0 01-1.476-2.133 2.07 2.07 0 011.772-1.894 2.065 2.065 0 011.397 3.789l.006-.01z" fill="url(#paint0_linear)"/><path d="M226.585 81.09l-5.95 1.256a3.68 3.68 0 00-2.839 4.36l1.185 5.615 1.301-.275-.992-4.701a3.67 3.67 0 01.516-2.769 3.692 3.692 0 012.323-1.592l3.347-.705a3.68 3.68 0 014.361 2.839l.992 4.7 1.301-.275-1.184-5.615a3.685 3.685 0 00-1.593-2.323 3.667 3.667 0 00-2.768-.516z" fill="#F0F5FA"/><path d="M232.901 88.827l-14.919 3.143a1.448 1.448 0 00-1.117 1.712l2.564 12.14a1.446 1.446 0 001.712 1.117l14.929-3.15a1.448 1.448 0 001.117-1.713l-2.56-12.124a1.446 1.446 0 00-1.726-1.125zm-5.094 9.467l.414 1.968a.79.79 0 01-.11.605.796.796 0 01-.506.351.81.81 0 01-.831-.328.805.805 0 01-.125-.288l-.434-2.085a1.962 1.962 0 111.607-.224h-.015z" fill="#F0F5FA"/><ellipse cx="163.5" cy="300" rx="7.5" ry="1" fill="#096399"/><path fill="#F0F5FA" d="M161 50h6v250h-6z"/><path d="M84.298 244.36s-5.267-17.875.99-31.039a28.241 28.241 0 002.283-17.717 47.501 47.501 0 00-2.506-8.314" stroke="#535461" stroke-width="2" stroke-miterlimit="10"/><path d="M88.95 178.972c0 2.193-3.972 8.545-3.972 8.545s-3.973-6.356-3.973-8.545a3.974 3.974 0 016.781-2.809 3.973 3.973 0 011.164 2.809zm6.558 12.136c-1.192 1.839-7.977 5.017-7.977 5.017s.124-7.492 1.315-9.331a3.972 3.972 0 016.662 4.314zm-.286 20.743c-1.958.985-9.418.306-9.418.306s3.889-6.404 5.843-7.389a3.976 3.976 0 015.182 1.831 3.973 3.973 0 01-1.607 5.256v-.004zm-3.75 15.647c-1.764 1.303-9.231 1.89-9.231 1.89s2.748-6.967 4.512-8.27a3.975 3.975 0 015.398.942 3.972 3.972 0 01-.679 5.438zm-12.266-30.944c1.589 1.525 8.894 3.11 8.894 3.11s-1.792-7.273-3.365-8.799a3.984 3.984 0 00-4.441-.974 3.973 3.973 0 00-1.088 6.663zm-4.156 18.348c1.959.985 9.419.305 9.419.305s-3.889-6.403-5.843-7.388a3.966 3.966 0 00-3.101-.332 3.966 3.966 0 00-2.385 2.009 3.975 3.975 0 001.91 5.41v-.004zm-1.592 18.391c1.764 1.303 9.231 1.891 9.231 1.891s-2.748-6.967-4.512-8.27a3.971 3.971 0 00-4.719 6.379z" fill="#0A6EAA"/><path d="M72.449 243.347s8.902-.274 11.583-2.185c2.681-1.91 13.692-4.19 14.356-1.128.663 3.063 13.374 15.238 3.313 15.309-10.062.072-23.35-1.565-26.027-3.178-2.677-1.612-3.225-8.818-3.225-8.818z" fill="#A8A8A8"/><path opacity=".2" d="M101.891 254.287c-10.05.079-23.349-1.565-26.026-3.178-2.038-1.244-2.852-5.696-3.122-7.754h-.298s.564 7.178 3.241 8.81c2.677 1.633 15.977 3.278 26.027 3.178 2.899-.024 3.9-1.056 3.849-2.582-.405.93-1.51 1.506-3.671 1.526z" fill="#000"/><path d="M116.779 254.357a4.638 4.638 0 001.521-2.296c.199-.914-.191-2.006-1.065-2.34-.977-.373-2.022.302-2.812.989-.791.687-1.7 1.466-2.737 1.319a4.157 4.157 0 001.287-3.897 1.629 1.629 0 00-.357-.794c-.545-.58-1.526-.33-2.177.127-2.066 1.454-2.642 4.258-2.654 6.784-.206-.909-.031-1.859-.039-2.78-.008-.922-.263-1.986-1.049-2.471a3.178 3.178 0 00-1.589-.377c-.929-.036-1.962.059-2.598.739-.794.842-.584 2.26.103 3.177.688.918 1.728 1.51 2.69 2.153a5.955 5.955 0 011.922 1.832c.058.103.106.212.143.325h5.82a16.257 16.257 0 003.591-2.49zm152.489-84.169s-16.62 16.62-7.237 41.28c9.383 24.66-16.084 65.67-16.084 65.67s.274-.04.795-.127c34.133-6.026 51.091-45.062 32.112-74.064-7.071-10.784-12.863-23.432-9.586-32.759z" fill="#0A6EAA"/><path opacity=".1" d="M269.269 170.462s-16.621 16.62-7.238 41.28-16.084 65.67-16.084 65.67.274-.04.795-.127c34.118-6.026 51.075-45.078 32.096-74.075-7.055-10.769-12.847-23.437-9.569-32.748z" fill="#000"/><path d="M269.268 170.188s-9.382 20.37 0 36.99c9.383 16.62 1.589 63.258-23.321 69.96" stroke="#535461" stroke-miterlimit="10"/><path d="M298.866 237.403s-18.964-3.019-20.692 13.974c-1.728 16.994-36.465 19.361-36.465 19.361l.651.433c28.68 18.829 56.101 11.993 51.965-13.009-1.533-9.299-1.41-18.634 4.541-20.759z" fill="#0A6EAA"/><path d="M298.866 237.403s-14.721 3.229-13.506 16.616c1.216 13.387-21.863 29.431-43.651 16.719" stroke="#535461" stroke-miterlimit="10"/><path d="M282.182 271.35s-14.935-2.995-18.919-6.967c-3.985-3.973-21.908-10.952-23.898-5.959-1.99 4.993-26.884 21.887-9.97 24.875 16.914 2.987 39.83 3.972 44.807 1.986 4.977-1.986 7.98-13.935 7.98-13.935z" fill="#A8A8A8"/><path opacity=".2" d="M229.395 281.463c16.93 2.988 39.83 3.973 44.807 1.987 3.794-1.518 6.427-8.803 7.468-12.195l.496.103s-2.987 11.949-7.964 13.939c-4.977 1.99-27.881.997-44.807-1.986-4.886-.862-6.284-2.888-5.756-5.45.429 1.66 2.133 2.947 5.756 3.602z" fill="#000"/></g><defs><linearGradient id="paint0_linear" x1="20813.1" y1="1969.77" x2="20660.8" y2="105.037" gradientUnits="userSpaceOnUse"><stop stop-color="gray" stop-opacity=".25"/><stop offset=".54" stop-color="gray" stop-opacity=".12"/><stop offset="1" stop-color="gray" stop-opacity=".1"/></linearGradient><clipPath id="clip0"><path fill="#fff" d="M0 0h400v353.187H0z"/></clipPath></defs></svg>