<svg xmlns="http://www.w3.org/2000/svg" width="105" height="28" fill="#fff"><path d="M2.8 7.4h4.4V12H10V0H7.2v4.9H2.8V0H0v12h2.8zm24.3 2h4.8L33 12h3L30.9.1V0h-2.7L23 12h3l1.1-2.6zm2.4-5.6l1.3 3.1h-2.7l1.4-3.1zm18.1.5c0-1.4-.4-2.5-1.2-3.1-.8-.6-2.1-1-4-1h-4.6v12.3h2.8V8.6h1.7l2.6 3.8h3.5l-3-4.4c1.4-.5 2.2-1.8 2.2-3.7zm-3.4 1.3c-.3.3-.9.4-1.8.4h-1.8V2.7h1.9c.8 0 1.4.1 1.7.3.3.2.5.6.5 1.3 0 .6-.2 1.1-.5 1.3zm4.9-2.9h3.4v9.8h2.8V2.7h3.4V.1h-9.6zM67.9 6h.1c.1 0 .2-.1.4-.3.6-.5.9-1.2.9-2.2 0-.8-.3-1.5-.8-2.2-.3-.3-.8-.6-1.4-.8-.6-.2-1.3-.3-2.1-.3h-4.7v12.3h5.3c1.6 0 2.8-.4 3.5-1.2.6-.7.9-1.4.9-2.3 0-.8-.2-1.4-.7-2-.3-.4-.8-.8-1.4-1zm-4.6-3.4h1.2c.8 0 1.3.1 1.6.2.3.2.4.5.4 1s-.2.8-.5 1c-.3.2-.9.2-1.6.2h-1.2V2.6zm3.3 7.1c-.3.2-.9.3-1.6.3h-1.7V7.4h1.5c.9 0 1.5.1 1.9.3.4.2.5.5.5 1s-.2.8-.6 1zM90.3.1h-2.7l-5.1 12.2-.1.1h3l1.1-2.6h4.8l1.1 2.6h3L90.3.1zm-2.6 7.2L89 4.1l1.3 3.2h-2.6zm-71 8.2H14L8.9 27.9h3l1.1-2.6h4.8l1.1 2.6h3l-5.2-12.4zm-2.6 7.2l1.3-3.2 1.3 3.2h-2.6zm16.7-1.3c.1 0 .1-.1.2-.1s.2-.1.4-.3c.6-.5.9-1.2.9-2.2 0-.8-.3-1.5-.8-2.2-.3-.3-.8-.6-1.4-.8-.6-.2-1.3-.3-2.1-.3h-4.7v12.3h5.3c1.6 0 2.8-.4 3.5-1.2.6-.7.9-1.4.9-2.3 0-.8-.2-1.5-.7-2-.4-.3-.9-.7-1.5-.9zM26.2 18h1.2c.8 0 1.3.1 1.6.3.3.2.4.5.4 1s-.2.8-.5 1c-.3.2-.9.2-1.6.2h-1.2V18zm3.4 7.1c-.4.2-.9.3-1.7.3h-1.7v-2.6h1.5c.9 0 1.5.1 1.9.3.4.2.5.5.5 1s-.2.8-.5 1zm10.8-4.7c-1.1-.3-1.8-.5-2.1-.7-.3-.2-.4-.4-.4-.8 0-.3.1-.6.3-.8.2-.2.6-.3 1-.3 1.1 0 2.1.4 3.1 1.2l.1.1 1.4-2.1-.1-.1c-.6-.5-1.3-.9-2.1-1.2-.8-.3-1.6-.4-2.4-.4-1.2 0-2.3.3-3.1 1-.8.6-1.2 1.6-1.2 2.7 0 1.2.3 2.1 1 2.6.6.5 1.7 1 3.1 1.3.9.2 1.4.4 1.7.6.3.2.4.5.4.8 0 .3-.1.6-.4.8-.3.2-.6.3-1.1.3-1.1 0-2.2-.6-3.5-1.7l-.1-.1-1.7 2.1.1.1c1.5 1.4 3.2 2.2 5.1 2.2 1.3 0 2.4-.3 3.2-1 .8-.7 1.2-1.6 1.2-2.7s-.3-2-1-2.6c-.5-.6-1.4-1-2.5-1.3zM2.8 15.5H0v12.4h6.7l1.1-2.6h-5zM16 7.6h5.3V5.1H16V2.8h5.9V.1h-8.7v12.4h7.7L22 9.9h-6zm59.2 0h5.3V5.1h-5.3V2.8h5.9V.1h-8.7v12.4h7.8l1.1-2.6h-6.1zM94.8.1v2.6h3.3v9.8h2.8V2.7h2.9l1.1-2.6z"/></svg>