<svg xmlns="http://www.w3.org/2000/svg" viewBox="0 0 182 34"><path d="M171.8 29c0-2.7 2.2-4.8 4.8-4.8 2.7 0 4.8 2.2 4.8 4.8s-2.2 4.8-4.8 4.8-4.8-2.1-4.8-4.8" fill="#86bc25"/><path d="M27.6 16.1c0 5.6-1.4 9.8-4.4 12.8s-7.2 4.5-12.6 4.5H0V.1h11.2c5.3 0 9.3 1.3 12.1 4.1 2.9 2.7 4.3 6.7 4.3 11.9m-9.2.3c0-3.1-.6-5.3-1.8-6.8-1.1-1.4-3-2.2-5.4-2.2H8.8V26h2c2.7 0 4.6-.8 5.9-2.4 1.1-1.6 1.7-4 1.7-7.2M56.7 0H65v33.4h-8.3zm35.7 20.9c0 4-1 7.2-3.2 9.5s-5.2 3.4-9 3.4c-3.7 0-6.6-1.1-8.8-3.5-2.2-2.4-3.3-5.5-3.3-9.4 0-4 1-7.2 3.2-9.4 2.2-2.3 5.2-3.4 9-3.4 2.4 0 4.5.5 6.3 1.5 1.9 1 3.2 2.5 4.2 4.4 1.2 2.1 1.6 4.3 1.6 6.9m-15.7 0c0 2.2.3 3.7.8 4.8.5 1.1 1.4 1.6 2.8 1.6s2.2-.5 2.8-1.6c.5-1.1.8-2.8.8-4.8 0-2.2-.3-3.7-.8-4.8-.5-1-1.4-1.6-2.8-1.6-1.2 0-2.2.5-2.8 1.6-.5 1.1-.8 2.6-.8 4.8M95.8 8.5h8.3v24.8h-8.3zm0-8.5h8.3v5.6h-8.3zM121 27c1.1 0 2.5-.3 4-.8v6.3c-1.1.5-2.2.8-3.2 1-1 .2-2.2.3-3.6.3-2.8 0-4.8-.7-6.1-2.2-1.2-1.4-1.9-3.6-1.9-6.5V14.9h-2.9V8.5h2.9V2.3l8.4-1.4v7.8h5.4V15h-5.4v9.6c.2 1.7.9 2.4 2.4 2.4m19.4 0c1.1 0 2.5-.3 4-.8v6.3c-1.1.5-2.2.8-3.2 1-1 .2-2.2.3-3.6.3-2.8 0-4.8-.7-6.1-2.2-1.2-1.4-1.9-3.6-1.9-6.5V14.9h-2.9V8.5h2.9V2.2L138 .9v7.8h5.4V15H138v9.6c.1 1.7.9 2.4 2.4 2.4m26.4-16c-2-2-4.8-2.9-8.4-2.9-3.8 0-6.8 1.1-8.9 3.4-2.1 2.3-3.1 5.5-3.1 9.7 0 4 1.1 7.2 3.3 9.4 2.3 2.2 5.4 3.3 9.4 3.3 2 0 3.6-.1 5-.4 1.3-.3 2.8-.7 4-1.4l-1.2-5.6c-.9.4-1.9.7-2.7.9-1.2.3-2.6.4-4 .4-1.6 0-2.9-.4-3.8-1.1-.9-.8-1.4-1.9-1.4-3.3h14.9v-3.9c-.1-3.7-1.2-6.5-3.1-8.5M155 17.9c.1-1.3.5-2.4 1.1-3 .6-.6 1.4-.9 2.5-.9 1 0 2 .3 2.6 1 .6.7.9 1.6 1 2.9H155zM50.5 11c-2.1-2-4.8-2.9-8.4-2.9-3.8 0-6.8 1.1-8.9 3.4s-3.1 5.5-3.1 9.7c0 4 1.1 7.2 3.3 9.4 2.3 2.2 5.4 3.3 9.4 3.3 2 0 3.6-.1 5-.4 1.3-.3 2.8-.7 4-1.4l-1.2-5.7c-.9.4-1.9.7-2.7.9-1.2.3-2.6.4-4 .4-1.6 0-2.9-.4-3.8-1.1-.9-.8-1.4-1.9-1.4-3.3h14.9v-3.8c-.1-3.7-1.2-6.5-3.1-8.5m-11.9 6.9c.1-1.3.5-2.4 1.1-3s1.4-.9 2.5-.9 2 .3 2.6 1c.6.7.9 1.6 1 2.9h-7.2z" fill="#fff"/></svg>