<svg width="266" height="48" fill="none" xmlns="http://www.w3.org/2000/svg"><path fill-rule="evenodd" clip-rule="evenodd" d="M33.29 3.7c-4.26 1.954-8.155 5.275-10.426 7.74l-.029.033-21.417 19.7L0 29.642 21.354 10c2.4-2.6 6.497-6.1 11.062-8.193 4.562-2.091 9.86-2.881 14.316.475 1.99 1.31 4.325 3.955 5.01 7.722.696 3.827-.343 8.624-4.8 14.121l-.039.048-24.079 23.42-1.46-1.491 23.99-23.334c4.139-5.125 4.891-9.308 4.33-12.392-.57-3.135-2.529-5.328-4.128-6.37l-.03-.02-.03-.023c-3.562-2.7-7.934-2.221-12.206-.263z" fill="#003269"/><path fill-rule="evenodd" clip-rule="evenodd" d="M23.709 3.7c4.225 1.954 8.086 5.275 10.338 7.74l.03.033 21.237 19.7 1.406-1.531L35.545 10c-2.38-2.6-6.443-6.1-10.97-8.193-4.523-2.091-9.777-2.881-14.196.475-1.974 1.31-4.288 3.955-4.968 7.722-.69 3.827.34 8.624 4.76 14.121l.039.048 23.877 23.42 1.448-1.491-23.79-23.334c-4.103-5.125-4.85-9.308-4.293-12.392.565-3.135 2.508-5.328 4.093-6.37l.03-.02.03-.023c3.532-2.7 7.868-2.221 12.104-.263z" fill="#003269"/><path d="M70.63 15.493h2.554v7.695h9.712v-7.695h2.555v18.623h-2.555v-8.71h-9.712v8.71H70.63V15.493zm24.112 4.741c.966 0 1.903.228 2.81.685.906.448 1.597 1.03 2.072 1.75.457.684.762 1.482.915 2.395.135.626.203 1.623.203 2.992h-9.978c.042 1.378.368 2.485.979 3.321.61.829 1.555 1.243 2.834 1.243 1.195 0 2.148-.393 2.86-1.18.407-.456.695-.984.865-1.584h2.249c-.059.499-.258 1.056-.597 1.673-.33.609-.703 1.108-1.119 1.496-.694.677-1.555 1.133-2.58 1.37a7.86 7.86 0 01-1.868.202c-1.695 0-3.132-.612-4.31-1.838-1.177-1.234-1.766-2.958-1.766-5.172 0-2.18.593-3.951 1.78-5.312 1.186-1.36 2.736-2.04 4.651-2.04zm3.648 6.01c-.093-.99-.309-1.78-.648-2.371-.627-1.1-1.673-1.648-3.14-1.648-1.05 0-1.931.38-2.643 1.14-.712.753-1.09 1.712-1.132 2.878h7.564zm6.928 4.259c0 .659.242 1.179.725 1.559.483.38 1.055.57 1.716.57.805 0 1.584-.185 2.338-.557 1.272-.617 1.907-1.627 1.907-3.03v-1.838c-.279.177-.64.325-1.08.443a9.238 9.238 0 01-1.297.254l-1.385.177c-.831.11-1.454.284-1.869.52-.703.397-1.055 1.031-1.055 1.902zm5.542-4.615c.526-.067.877-.287 1.055-.659.102-.203.153-.494.153-.875 0-.777-.28-1.34-.839-1.686-.551-.355-1.343-.532-2.377-.532-1.195 0-2.042.321-2.542.963-.28.355-.462.883-.547 1.585h-2.135c.042-1.674.584-2.835 1.627-3.486 1.05-.66 2.266-.99 3.648-.99 1.601 0 2.902.305 3.902.914.991.608 1.487 1.555 1.487 2.84v7.821c0 .237.047.427.14.57.102.144.309.216.623.216.102 0 .216-.004.343-.013.127-.017.263-.038.407-.063v1.686a6.362 6.362 0 01-.814.19c-.186.026-.44.038-.762.038-.788 0-1.36-.279-1.716-.836-.187-.296-.318-.715-.394-1.255-.466.608-1.136 1.136-2.009 1.584-.873.448-1.834.672-2.885.672-1.263 0-2.297-.38-3.102-1.141-.796-.769-1.195-1.728-1.195-2.878 0-1.259.394-2.235 1.183-2.928.788-.693 1.821-1.12 3.101-1.28l3.648-.457zm7.258-10.395h2.288v18.623h-2.288V15.493zm6.191 1.255h2.313v3.79h2.174v1.864h-2.174v8.861c0 .474.161.79.483.951.178.093.475.14.89.14h.356c.127-.009.275-.022.445-.038v1.8a5.098 5.098 0 01-.827.164 7.593 7.593 0 01-.915.051c-1.068 0-1.792-.27-2.173-.811-.382-.55-.572-1.26-.572-2.13v-8.988h-1.844v-1.864h1.844v-3.79zm6.787-1.318h2.288v6.947c.543-.685 1.03-1.167 1.462-1.445.737-.482 1.657-.723 2.758-.723 1.975 0 3.314.689 4.017 2.066.382.752.572 1.796.572 3.132v8.709h-2.351v-8.557c0-.998-.127-1.729-.382-2.194-.415-.743-1.195-1.115-2.339-1.115-.949 0-1.809.325-2.58.976-.771.65-1.157 1.88-1.157 3.69v7.2h-2.288V15.43zm22.995 5.108h2.529a809.05 809.05 0 00-2.148 5.959 294.49 294.49 0 01-2.084 5.704c-1.322 3.465-2.255 5.578-2.797 6.339-.542.76-1.474 1.14-2.796 1.14a5.75 5.75 0 01-.75-.037 6.023 6.023 0 01-.636-.14v-2.079c.398.11.687.178.865.203.177.026.334.038.47.038.424 0 .733-.072.928-.215a1.81 1.81 0 00.508-.507c.043-.068.195-.414.458-1.04.263-.625.453-1.09.572-1.394l-5.034-13.97h2.593l3.648 11.054 3.674-11.055zm18.431-5.108v3.308h-5.606v15.378h-3.94V18.738h-5.631V15.43h15.177zm6.292 16.137c1.059 0 1.873-.376 2.441-1.128.567-.752.851-1.821.851-3.207s-.284-2.45-.851-3.195c-.568-.752-1.382-1.128-2.441-1.128s-1.877.376-2.453 1.128c-.568.744-.852 1.809-.852 3.195s.284 2.455.852 3.207c.576.752 1.394 1.128 2.453 1.128zm7.093-4.335c0 2.028-.585 3.765-1.754 5.21-1.17 1.437-2.945 2.155-5.326 2.155s-4.157-.718-5.326-2.155c-1.17-1.445-1.754-3.182-1.754-5.21 0-1.994.584-3.723 1.754-5.185 1.169-1.462 2.945-2.193 5.326-2.193s4.156.731 5.326 2.193c1.169 1.462 1.754 3.19 1.754 5.185zm8.555 3.918c.847 0 1.563-.318 2.148-.952.585-.642.877-1.66.877-3.055 0-1.31-.28-2.307-.839-2.992-.551-.684-1.292-1.026-2.225-1.026-1.271 0-2.148.596-2.631 1.787-.254.634-.381 1.416-.381 2.345 0 .803.136 1.517.407 2.143.491 1.166 1.373 1.75 2.644 1.75zm-.903-11.182c.695 0 1.301.106 1.818.317.881.363 1.593 1.031 2.135 2.003v-1.99h3.521v13.108c0 1.783-.301 3.127-.902 4.031-1.034 1.555-3.017 2.333-5.949 2.333-1.771 0-3.216-.347-4.335-1.04-1.118-.693-1.737-1.728-1.855-3.106h3.94c.102.423.267.727.496.913.39.33 1.046.494 1.97.494 1.305 0 2.178-.435 2.619-1.305.288-.558.432-1.496.432-2.815v-.887c-.348.591-.721 1.035-1.119 1.331-.72.55-1.657.824-2.809.824-1.78 0-3.203-.621-4.271-1.864-1.059-1.25-1.589-2.94-1.589-5.07 0-2.054.513-3.778 1.538-5.173 1.026-1.402 2.479-2.104 4.36-2.104zm16.334 2.942c-.839 0-1.491.261-1.958.785-.457.524-.745 1.234-.864 2.13h5.631c-.059-.955-.352-1.678-.877-2.168-.517-.499-1.161-.748-1.932-.748zm0-2.98c1.152 0 2.191.215 3.114.647.924.43 1.687 1.11 2.288 2.04.543.82.894 1.771 1.055 2.853.093.634.132 1.547.115 2.738h-9.483c.051 1.386.487 2.358 1.309 2.916.5.346 1.102.52 1.805.52.746 0 1.352-.212 1.818-.634.254-.228.479-.545.674-.951h3.699c-.093.82-.521 1.652-1.284 2.497-1.186 1.344-2.847 2.016-4.983 2.016-1.763 0-3.318-.566-4.665-1.699-1.347-1.132-2.021-2.975-2.021-5.527 0-2.392.606-4.226 1.818-5.502 1.22-1.276 2.8-1.914 4.741-1.914zm7.601 3.068v-2.574h1.932v-3.853h3.585v3.853h2.25v2.574h-2.25V30.3c0 .566.072.921.216 1.065.144.135.585.203 1.322.203h.343l.369-.026v2.7l-1.716.064c-1.712.059-2.881-.237-3.508-.888-.407-.414-.611-1.052-.611-1.914v-8.506h-1.932zm17.732-3.055c.856 0 1.632.148 2.327.443a4.069 4.069 0 011.728 1.357c.382.515.615 1.048.699 1.597.085.541.127 1.428.127 2.662v8.114h-3.698V25.71c0-.744-.128-1.344-.382-1.8-.33-.643-.957-.964-1.881-.964-.958 0-1.686.321-2.186.964-.492.633-.738 1.542-.738 2.725v7.48h-3.61V15.493h3.61v6.605c.526-.803 1.132-1.36 1.818-1.674a5.154 5.154 0 012.186-.481zm13.741 2.967c-.839 0-1.491.261-1.957.785-.458.524-.746 1.234-.865 2.13h5.631c-.059-.955-.351-1.678-.877-2.168-.517-.499-1.161-.748-1.932-.748zm0-2.98c1.153 0 2.191.215 3.114.647.924.43 1.687 1.11 2.288 2.04.543.82.894 1.771 1.055 2.853.094.634.132 1.547.115 2.738h-9.483c.051 1.386.488 2.358 1.31 2.916.5.346 1.101.52 1.805.52.745 0 1.351-.212 1.817-.634.254-.228.479-.545.674-.951h3.699c-.093.82-.521 1.652-1.284 2.497-1.186 1.344-2.847 2.016-4.983 2.016-1.762 0-3.317-.566-4.665-1.699-1.347-1.132-2.021-2.975-2.021-5.527 0-2.392.606-4.226 1.818-5.502 1.22-1.276 2.801-1.914 4.741-1.914zm16.55.038a.82.82 0 01.165.013c.051 0 .157.004.318.012v3.702a9.783 9.783 0 00-1.042-.063c-1.458 0-2.436.473-2.936 1.42-.28.532-.42 1.352-.42 2.459v6.605h-3.648V20.298h3.457v2.408c.56-.92 1.047-1.55 1.462-1.889.678-.566 1.559-.849 2.644-.849z" fill="#003269"/></svg>