<svg width="44" height="44" fill="none" xmlns="http://www.w3.org/2000/svg"><path d="M22.001 44c12.15 0 22-9.85 22-22s-9.85-22-22-22-22 9.85-22 22 9.85 22 22 22z" fill="#25D366"/><path fill-rule="evenodd" clip-rule="evenodd" d="M22.72 34.24h.006c7.213-.003 13.079-5.87 13.082-13.082a13.003 13.003 0 00-3.828-9.255 12.997 12.997 0 00-9.254-3.836c-7.21 0-13.08 5.868-13.082 13.08a13.059 13.059 0 001.746 6.54l-1.856 6.78 6.935-1.82a13.07 13.07 0 006.252 1.593zm6.149-10.266c.228.11.382.185.448.295.081.136.081.79-.19 1.554-.273.764-1.58 1.46-2.207 1.554-.564.085-1.276.12-2.06-.13a18.766 18.766 0 01-1.863-.688c-3.064-1.323-5.135-4.293-5.526-4.854a3.962 3.962 0 00-.058-.081l-.002-.004c-.173-.23-1.332-1.777-1.332-3.378 0-1.505.74-2.295 1.08-2.658.023-.025.045-.047.064-.069a1.2 1.2 0 01.872-.409c.217 0 .436.002.626.012h.073c.19 0 .428-.002.662.561l.361.876c.282.685.593 1.442.647 1.551.082.164.136.355.027.573l-.046.093c-.081.167-.142.29-.28.452-.055.064-.111.133-.168.201a5.423 5.423 0 01-.323.372c-.163.163-.334.34-.143.667.19.327.847 1.398 1.818 2.264a8.443 8.443 0 002.413 1.525c.09.04.163.07.216.098.327.163.517.136.708-.082.19-.218.817-.955 1.035-1.282.218-.327.436-.272.736-.163.3.109 1.906.9 2.233 1.063l.179.087z" fill="#FDFDFD"/></svg>