<svg width="708" height="598" fill="none" xmlns="http://www.w3.org/2000/svg"><path d="M701.889 389.406A265.023 265.023 0 00559.246 245.19 265.025 265.025 0 00212.19 386.719a265.025 265.025 0 00-1.113 202.84l245.406-100.076 245.406-100.077z" fill="#EFEFEF"/><path fill="#00AAC8" fill-opacity=".4" d="M668.014 221l25.014 25.014-25.014 25.014L643 246.014z"/><path stroke="#0A6EAA" stroke-width="3" d="M467.554 460.394l-341 135.499"/><path fill="#00AAC8" fill-opacity=".4" d="M676.338 250.134l25.014 25.014-25.014 25.014-25.014-25.014z"/><path fill-rule="evenodd" clip-rule="evenodd" d="M257.657 149.781c-6.544 3.944-12.973 5.85-15.992 5.072-7.568-1.951-8.263-29.637-2.408-40.551 5.856-10.915 35.959-15.672 37.477 5.953.526 7.505-2.625 14.204-7.282 19.669l8.35 38.915h-24.253l4.108-29.058z" fill="#E2B183"/><path fill-rule="evenodd" clip-rule="evenodd" d="M253.081 101.722c3.196-.524 11.802-.884 13.389-.884 1.015 0 2.114.232 2.715-.7.492-.762.311-2.052.458-2.937.171-1.028.413-2.043.658-3.055.697-2.88 1.751-5.621 3.225-8.194 2.767-4.827 6.821-8.608 11.938-10.809 5.652-2.429 12.047-2.985 18.125-2.493 6.505.528 12.394 2.675 18.535 4.696 5.853 1.926 11.983 2.683 18.105 1.743 6.167-.947 10.827-4.29 16.03-7.463 5.325-3.248 11.411-5.372 17.707-4.884 5.877.456 11.294 2.883 16.153 6.124 4.547 3.033 8.298 6.682 10.417 11.818 2.278 5.524 2.276 11.588-1.471 16.47-5.431 7.077-15.514 8.907-23.902 8.725a45.673 45.673 0 01-14.198-2.601c-6.109-2.149-11.388-5.791-17.104-8.746-2.682-1.387-5.454-2.526-8.36-3.346-2.82-.796-5.597-1.162-8.151.542-2.701 1.802-5.121 3.572-8.211 4.7-2.964 1.083-6.104 1.688-9.262 1.664-6.144-.048-12.202-1.962-18.169-3.245-4.867-1.045-10.074-2.087-15.035-1.082-2.071.42-5.095 1.285-5.843 3.437 12.586 2.281 17.529 17.845 13.981 29.271-1.915 6.167-13.426 13.376-17.902 10.134-2.835-2.054-1.114-4.75 0-6.53 2.134-3.409 2.864-7.788-1.084-10.161-3.405-2.047-6.985 2.814-7.053 2.808-.936-.073-9.023-4.647-14.594-11.321-5.497.326-6.331-3.298-5.018-6.262 1.312-2.964 9.504-6.694 13.921-7.419z" fill="#04314B"/><path fill-rule="evenodd" clip-rule="evenodd" d="M279.835 278.462l-81.326 135.997-60.971 114.973h-13.133l102.158-250.97h53.272z" fill="#E2B183"/><path fill-rule="evenodd" clip-rule="evenodd" d="M142.721 522.818c1.07-.476 2.344 0 2.746 1.099.803 2.194 1.937 5.633 1.937 7.546 0 2.961-.986 8.642-.986 8.642h-61.73s-2.406-7.957 2.778-8.591c5.184-.634 8.613-1.146 8.613-1.146l28.78-12.833a1 1 0 011.332.532l1.881 4.565s4.8 2.24 7.8 2.24c1.886 0 4.882-1.179 6.849-2.054z" fill="#676767"/><path fill-rule="evenodd" clip-rule="evenodd" d="M154.471 511.021l-25.326-7.663s16.644-49.769 40.799-109.538 51.884-115.358 51.884-115.358h71.53s-30.828 70.317-65.364 127.784c-34.536 57.467-73.523 104.775-73.523 104.775z" fill="#022C5A"/><path fill-rule="evenodd" clip-rule="evenodd" d="M285.179 278.462c7.676 47.79 22.48 108.848 23.877 110.732.932 1.256 34.463 12.495 100.593 33.716l-2.836 11.583c-78.861-11.381-120.414-20.211-124.659-26.489-6.368-9.418-38.162-83.822-50.476-129.542h53.501z" fill="#E2B183"/><path fill-rule="evenodd" clip-rule="evenodd" d="M386.403 412.897l-4.996 18.656c-58.984 5.174-95.124 1.436-108.421-11.217-13.298-12.652-28.453-59.943-45.466-141.874h68.208c10.779 67.09 16.805 102.043 18.079 104.86 1.273 2.816 25.472 12.675 72.596 29.575z" fill="#003269"/><path fill-rule="evenodd" clip-rule="evenodd" d="M404.63 420.66c-.283-1.136.407-2.307 1.559-2.513 2.3-.409 5.882-.93 7.766-.598 2.916.515 8.338 2.473 8.338 2.473l-10.72 60.807s-8.251.989-7.976-4.228a365.7 365.7 0 00.368-8.684l-7.638-30.579a1 1 0 01.755-1.219l4.821-1.06s3.039-4.339 3.56-7.294c.327-1.858-.312-5.015-.833-7.105z" fill="#676767"/><path fill-rule="evenodd" clip-rule="evenodd" d="M140.88 174.126l12.882 41.359 17.535-10.779-19.315-32.06c-1.052-15.049-2.611-22.148-4.675-21.298-1.741.717-2.022 2.383-2.281 3.918-.201 1.195-.389 2.311-1.244 2.836-1.951 1.199-7.104-2.879-11.829-6.958-4.725-4.079-4.909-.773-4.513 1.219 2.856 6.832 7.336 14.086 13.44 21.763zm196.526 161.162c-3.208-6.508-14.13-69.941-14.13-69.941l-22.871.09s21.183 68.4 22.871 72.585c2.193 5.437-1.532 13.336-4.058 18.692-.391.829-.753 1.597-1.06 2.285 3.505 1.569 5.189-.327 6.964-2.326 2.005-2.259 4.126-4.648 9.121-2.324 1.929.898 3.755 1.96 5.539 2.997 6.162 3.582 11.822 6.874 19.523 2.121 1.221-.753 2.558-3.59-.674-5.807-8.053-5.523-19.657-15.19-21.225-18.372z" fill="#E2B183"/><path fill-rule="evenodd" clip-rule="evenodd" d="M268.116 192.671s-34.127 47.76-53.917 40.779c-19.791-6.982-48.411-52.799-48.411-52.799s-24.637 11.922-30.453 20.705c51.862 116.527 135.382 86.008 152.677 7.085l-19.896-15.77z" fill="#00AAC8"/><path fill-rule="evenodd" clip-rule="evenodd" d="M258.279 169.352l-9.464-1.624c-16.294 40.714-44.741 77.707-85.342 110.981l30.68 37.283c40.596-47.377 65.62-96.257 64.126-146.64z" fill="#00AAC8"/><path fill-rule="evenodd" clip-rule="evenodd" d="M299.535 288.315h-84.274s29.286-71.226 29.286-121.012l25.422-3.788c19.979 32.14 25.621 71.71 29.566 124.8z" fill="#DDE3E9"/><path fill-rule="evenodd" clip-rule="evenodd" d="M270.507 163.533l.02-.018s58.098 56.922 67.314 160.927h-41.076c.334-4.582.542-9.107.636-13.569h-55.163s10.409-97.317 11.384-129.43l6.143-17.559s6.094-.267 9.073-.369h1.659l.01.018z" fill="#00AAC8"/><path fill-rule="evenodd" clip-rule="evenodd" d="M297.391 311.305c.441-19.432-1.283-37.677-4.158-54.188-1.504 19.592-4.646 43.167-11.21 54.188h15.368z" fill="#000" fill-opacity=".1"/><path fill-rule="evenodd" clip-rule="evenodd" d="M285.185 277.368l-27.24-12.667v12.667h27.24z" fill="#fff" fill-opacity=".2"/><path d="M100.929 134.077a1 1 0 01-1.577 1.23l1.577-1.23zm-2.643-12.851l-.958-.284.958.284zm25.963-20.246l-.042-1 .042 1zm13.396 4.463a1 1 0 11-1.577 1.23l1.577-1.23zm-38.293 29.864c-2.955-3.789-3.619-8.987-2.024-14.365l1.917.569c-1.456 4.91-.786 9.399 1.684 12.566l-1.577 1.23zm-2.024-14.365c1.593-5.373 5.322-10.563 10.33-14.468l1.229 1.577c-4.73 3.689-8.185 8.545-9.642 13.46l-1.917-.569zm10.33-14.468c5.007-3.905 10.95-6.258 16.549-6.494l.084 1.999c-5.122.215-10.673 2.383-15.404 6.072l-1.229-1.577zm16.549-6.494c5.604-.236 10.483 1.675 13.438 5.463l-1.577 1.23c-2.469-3.166-6.66-4.91-11.777-4.694l-.084-1.999z" fill="#0A6EAA" mask="url(#a)"/><path d="M68.185 132.409a1 1 0 01-1.71 1.039l1.71-1.039zm58.259-63.808l.065-.998-.065.998zm25.773 12.774a1 1 0 11-1.709 1.038l1.709-1.038zm-85.742 52.073c-4.94-8.135-4.997-18.65-.366-29.163l1.83.806c-4.437 10.073-4.275 19.875.246 27.318l-1.71 1.039zm-.366-29.163c4.63-10.51 13.592-20.24 24.882-27.097l1.038 1.71c-10.997 6.678-19.65 16.116-24.09 26.193l-1.83-.806zm24.882-27.097c11.29-6.857 24.057-10.322 35.518-9.585l-.129 1.996c-10.989-.707-23.354 2.62-34.35 9.298l-1.039-1.71zm35.518-9.585c11.464.738 20.768 5.637 25.708 13.772l-1.709 1.038c-4.521-7.443-13.143-12.107-24.128-12.814l.129-1.996z" fill="#0A6EAA" mask="url(#b)"/><path d="M29.542 122.35a1 1 0 01-1.72 1.019l1.72-1.019zm-.976-42.468l.912.41-.912-.41zm90.537-53.58l-.079.997.079-.997zm38.478 20.274a1 1 0 11-1.721 1.019l1.721-1.019zM27.821 123.37c-7.28-12.303-7.269-28.117-.167-43.897l1.824.82c-6.903 15.34-6.808 30.446.064 42.058l-1.72 1.019zm-.167-43.897c7.1-15.777 20.728-30.31 37.856-40.446l1.019 1.721c-16.83 9.96-30.146 24.201-37.051 39.546l-1.824-.821zM65.51 39.026c17.128-10.136 36.426-15.09 53.672-13.72l-.158 1.993c-16.774-1.331-35.665 3.488-52.495 13.449l-1.019-1.722zm53.672-13.72c17.251 1.368 31.119 8.968 38.399 21.27l-1.721 1.019c-6.872-11.613-20.067-18.965-36.836-20.296l.158-1.994z" fill="#0A6EAA" mask="url(#c)"/><path d="M119.082 132.19l11.56-8.243a2.054 2.054 0 012.863.479l19.227 26.923a2.05 2.05 0 01-.478 2.86l-11.561 8.242a2.052 2.052 0 01-2.862-.478l-19.227-26.923a2.048 2.048 0 01.478-2.86z" fill="#3A3768"/><path opacity=".1" d="M119.082 132.19l11.56-8.243a2.054 2.054 0 012.863.479l19.227 26.923a2.05 2.05 0 01-.478 2.86l-11.561 8.242a2.052 2.052 0 01-2.862-.478l-19.227-26.923a2.048 2.048 0 01.478-2.86z" fill="#000"/><path d="M119.837 130.673l11.561-8.242a2.052 2.052 0 012.862.478l19.227 26.924a2.048 2.048 0 01-.478 2.86l-11.56 8.242a2.053 2.053 0 01-2.863-.478l-19.227-26.924a2.05 2.05 0 01.478-2.86z" fill="#3A3768"/><path d="M120.881 131.163l1.702-1.221.146.204a1.191 1.191 0 001.629.284l5.44-3.881a1.195 1.195 0 00.276-1.668l-.146-.203 1.629-1.139a1.443 1.443 0 011.614-.055c.162.101.302.233.413.388l18.795 26.322a1.46 1.46 0 01-.334 2.026l-10.7 7.624a1.46 1.46 0 01-1.085.25 1.43 1.43 0 01-.531-.202 1.432 1.432 0 01-.412-.39l-18.795-26.313a1.464 1.464 0 01-.243-1.088 1.448 1.448 0 01.602-.938z" fill="#06D0F3"/><path fill-rule="evenodd" clip-rule="evenodd" d="M579.453 194.447c-6.899 1.984-13.2 2.147-15.751.707-6.398-3.609-.305-28.877 7.663-37.346 7.969-8.47 36.457-5.459 32.582 14.514-1.345 6.932-5.834 12.238-11.389 16.059l-1.872 37.309-22.02-5.9 10.787-25.343z" fill="#E2B183"/><path fill-rule="evenodd" clip-rule="evenodd" d="M579.887 161.08c2.983 2.62 4.499 6.563 6.234 11.701a6.668 6.668 0 012.334.204c3.367.902 5.412 4.188 4.568 7.339-.429 1.599-1.519 2.857-2.93 3.589a90.613 90.613 0 003.244 7.105c7.829-1.997 15.877-11.83 12.102-24.358-.428-5.756-3.838-9.683-8.406-12.306-3.565-2.627-7.653-3.911-11.393-3.911-6.99-1.284-13.623-.969-15.665-.273-1.624 6.061-.851 8.196 9.912 10.91z" fill="#A37F00"/><path d="M577.266 189.41l-13.349 5.873c-5.833-4.422-6.35-8.926-1.454-17.647l12.25.76c-1.981 9.236-1.806 3.867 2.553 11.014z" fill="#949494"/><path d="M587.195 172.147a.644.644 0 01-.085.063l-17.836 10.954a.66.66 0 01-.279.094.801.801 0 01-.313-.03 1.038 1.038 0 01-.685-.698.842.842 0 01-.027-.317.69.69 0 01.096-.282.616.616 0 01.203-.203l17.835-10.954a.729.729 0 01.565-.072c.203.052.393.178.531.352a.95.95 0 01.214.586.671.671 0 01-.219.507zm-12.299 17.513a5.206 5.206 0 01-.821-.193 2.303 2.303 0 01-.583-.269c-.136-.095-.202-.19-.192-.274.011-.084.098-.155.252-.206l16.695-5.511c.115-.038.266-.064.444-.077.179-.012.381-.01.595.006a5.718 5.718 0 011.262.241c.187.061.349.129.476.2.128.07.219.143.269.213.049.07.056.136.02.194-.037.059-.116.108-.232.146l-16.694 5.512c-.156.052-.377.08-.639.084a5.269 5.269 0 01-.852-.066z" fill="#949494"/><path fill-rule="evenodd" clip-rule="evenodd" d="M580.156 301.695l-46.622 117.813-31.269 99.601h-12.347l47.803-217.414h42.435z" fill="#E2B183"/><path fill-rule="evenodd" clip-rule="evenodd" d="M589.544 301.695c.496 41.4 7.737 97.139 8.893 99.72 1.157 2.58 79.864 65.635 79.864 65.635l-8.504 9.087s-92.867-54.062-97.165-61.273c-4.297-7.21-18.288-73.562-29.521-113.169h46.433z" fill="#E2B183"/><path fill-rule="evenodd" clip-rule="evenodd" d="M676.902 465.457c.331-1.122 1.516-1.792 2.616-1.389 1.901.697 4.611 1.801 5.823 2.817 1.969 1.649 5.194 5.467 5.194 5.467l-34.437 40.976s-6.631-2.834-4.16-6.629c2.47-3.794 4.043-6.355 4.043-6.355l7.488-26.119a1 1 0 011.265-.677l3.953 1.251s4.166-1.938 5.84-3.93c.999-1.188 1.85-3.633 2.375-5.412zM504.59 513.494c1.072-.468 2.345.008 2.742 1.108.688 1.903 1.583 4.686 1.583 6.266 0 2.566-.856 7.487-.856 7.487h-53.575s-2.088-6.893 2.411-7.442c4.5-.55 7.476-.993 7.476-.993l24.854-11.063a1 1 0 011.331.532l1.581 3.829s4.165 1.94 6.77 1.94c1.555 0 3.98-.921 5.683-1.664z" fill="#003269"/><path fill-rule="evenodd" clip-rule="evenodd" d="M548.81 508.85l-58.707-6.361 43.509-200.794h52.581L548.81 508.85z" fill="#009BB6"/><path fill-rule="evenodd" clip-rule="evenodd" d="M666.158 452.391l-38.508 45.508s-60.84-66.342-70.939-86.576c-10.1-20.235-18.159-109.628-18.159-109.628h59.198s4.401 78.644 5.934 82.304c1.532 3.66 62.474 68.392 62.474 68.392z" fill="#00AAC8"/><path fill-rule="evenodd" clip-rule="evenodd" d="M473.695 296.793l33.697-16.615 3.725 17.443-31.705 7.023c-10.085 8.328-15.479 11.59-16.181 9.786-.591-1.521.287-2.692 1.097-3.771.63-.84 1.219-1.625 1.037-2.475-.414-1.941-6.062-2.74-11.453-3.269-5.391-.53-3.425-2.619-1.936-3.56 6.002-2.288 13.242-3.808 21.719-4.562zm149.686 66.14c-1.762-6.036-1.555-61.799-1.555-61.799l-19.562-3.37s7.816 61.547 8.629 65.372c1.057 4.969-3.316 11.147-6.281 15.335-.458.648-.883 1.249-1.249 1.79 2.76 1.867 4.484.503 6.302-.936 2.053-1.624 4.226-3.343 8.145-.607 1.514 1.057 2.915 2.238 4.284 3.391 4.727 3.985 9.07 7.646 16.367 4.752 1.157-.459 2.727-2.677.298-5.056-6.052-5.925-14.517-15.921-15.378-18.872z" fill="#E2B183"/><path fill-rule="evenodd" clip-rule="evenodd" d="M580.713 209.442l-7.845-2.812c-34.576 20.593-55.672 68.148-97.104 88.005l6.922 12.519c65.211 3.364 91.724-54.504 98.027-97.712z" fill="#003269"/><path fill-rule="evenodd" clip-rule="evenodd" d="M598.079 317.151l-71.573-12.62c-3.27-.577-1.822-5.183-.93-7.479 10.298-26.497 36.817-52.34 43.709-91.427l21.214.408c12.242 30.43 12.194 65.231 7.58 111.118z" fill="#DDE3E9"/><path fill-rule="evenodd" clip-rule="evenodd" d="M602.668 338.183c1.857 8.281 3.824 15.567 5.885 21.261l15.35 2.706c11.052-53.02-1.931-97.606-14.488-125.324 3.804.394 7.471-.577 10.295-4.061 9.943-12.263 8.537-20.228.907-24.11-4.196-2.135-8.529-1.947-13.716-1.722-4.245.184-9.061.393-14.841-.625l-.006-.001a10.17 10.17 0 00-1.552-.161l-6.919-.818s-44.41 89.212-37.486 122.88l56.571 9.975z" fill="#003269"/><path fill-rule="evenodd" clip-rule="evenodd" d="M602.668 338.183c-2.436-10.864-4.681-23.44-6.695-36.374-3.919 13.162-8.88 26.2-14.449 32.646l21.144 3.728z" fill="#000" fill-opacity=".1"/></svg>