<svg width="493" height="223" fill="none" xmlns="http://www.w3.org/2000/svg"><path d="M241.219 185.439c7.345 7.867 7.725 19.428 7.725 19.428s-11.529-1.192-18.874-9.058c-7.345-7.866-7.725-19.428-7.725-19.428s11.529 1.192 18.874 9.058z" fill="#0A6EAA"/><path d="M264.344 197.718c-7.882 7.33-19.467 7.709-19.467 7.709s1.195-11.506 9.076-18.837c7.882-7.331 19.467-7.71 19.467-7.71s-1.195 11.507-9.076 18.838z" fill="#3393D4"/><path d="M262.384 221.065h-28.989a2.959 2.959 0 01-2.666-1.665l-6.312-12.949a2.953 2.953 0 01.153-2.864 2.962 2.962 0 012.513-1.39h41.613a2.972 2.972 0 012.514 1.39 2.963 2.963 0 01.152 2.864l-6.311 12.949a2.968 2.968 0 01-2.667 1.665z" fill="#3F3D56"/><path d="M392.574 63.147c13.331 0 24.138-10.786 24.138-24.09 0-13.306-10.807-24.092-24.138-24.092-13.331 0-24.138 10.786-24.138 24.091 0 13.305 10.807 24.09 24.138 24.09z" fill="#FFB8B8"/><path d="M374.56 51.102s4.548 34.215-2.448 38.056c-6.997 3.84 41.629 4.19 41.629 4.19s-10.845-29.677-5.947-38.755l-33.234-3.491z" fill="#FFB8B8"/><path d="M449.246 93.52l-4.044 18.379-8.551 38.884-.256 2.129-2.951 24.652-1.963 16.377-1.316 11.001a876.166 876.166 0 01-13.803 6.939s-.499-2.496-1.303-5.69c-5.616 1.68-16.008 4.468-24.815 5.025 3.207 3.568 4.681 6.919 2.682 9.392-6.033 7.457-30.941-8.163-39.652-13.988a23.462 23.462 0 00-.23 4.213l-6.667-5.117.66-11.775 1.113-19.921 1.398-24.983a26.263 26.263 0 01-1.106-3.286c-2.042-7.247-4.52-21.717-6.42-33.852a1181.89 1181.89 0 01-2.922-19.774l-.049-.347 36.905-16.276c2.622 6.071 14.869 7.896 14.869 7.896 10.146-.698 18.099-6.038 18.099-6.038l40.322 16.16z" fill="#fff"/><path d="M419.162 204.9s-1.562.534-4.103 1.29c-5.616 1.681-16.008 4.469-24.815 5.026-7.582.485-13.99-.681-15.161-5.618-.503-2.123.21-3.87 1.762-5.304 4.635-4.289 16.741-5.825 26.342-6.353a176.9 176.9 0 017.307-.242c3.545-.046 5.869.026 5.869.026l.055.216 2.744 10.959z" fill="#FFB8B8"/><path d="M372.493 16.269l-4.514-1.804s9.437-10.369 22.566-9.467L386.853.941s9.026-3.607 17.232 5.86c4.313 4.977 9.304 10.827 12.416 17.417h4.833l-2.017 4.433 7.06 4.433-7.247-.796c.432 2.427.498 4.906.197 7.353a9.511 9.511 0 01-3.491 6.224s-5.597-11.564-5.597-13.367v4.508s-4.513-4.057-4.513-6.762l-2.462 3.156-1.231-4.96-15.18 4.96 2.461-4.057-9.436 1.352 3.692-4.96s-10.667 5.861-11.077 10.82c-.411 4.96-3.533 9.659-3.533 9.659s-8.366-23.183 3.533-29.945z" fill="#2F2E41"/><path d="M475.484 178.014c-2.459 2.66-8.551 6.666-15.937 11.004a399.063 399.063 0 01-8.655 4.924c-7.12 3.941-14.574 7.846-20.726 11.001-8.002 4.105-13.802 6.938-13.802 6.938s-.499-2.496-1.303-5.69c-1.077-4.275-2.699-9.802-4.389-12.249a8.527 8.527 0 00-.177-.243c-.493-.645-.988-1.022-1.477-1.022l24.427-15.112 10.557-6.533-7.606-18.119-9.538-22.73 5.757-18.283 5.787-18.379h10.845s3.591 7.823 8.183 18.732a702.928 702.928 0 012.117 5.088c9.447 22.933 21.225 54.956 15.937 60.673z" fill="#fff"/><path d="M392.925 220.608c-6.033 7.457-30.94-8.163-39.651-13.988a139.033 139.033 0 01-3.027-2.071l7.97-10.608 2.524-3.358a175.183 175.183 0 005.964 3.358c2.879 1.688 6.493 3.892 10.14 6.353 5.032 3.397 10.119 7.273 13.399 10.922 3.207 3.568 4.68 6.919 2.681 9.392z" fill="#FFB8B8"/><path d="M366.339 193.725a15.785 15.785 0 00-2.659.216c-7.547 1.294-9.772 8.112-10.406 12.679a23.553 23.553 0 00-.229 4.213l-6.667-5.118-2.429-1.864c-5.846-2.034-11.055-5.648-15.572-9.91a78.163 78.163 0 01-10.487-12.413 109.215 109.215 0 01-8.114-13.89 10.19 10.19 0 01-.142-8.665l8.256-18.362 12.066-26.838c.089-.639.186-1.263.292-1.874 2.393-13.694 8.804-19.774 8.804-19.774h4.897l3.276 19.774 4.07 24.567-2.852 9.285-6.591 21.441 6.299 6.828 18.188 19.705z" fill="#fff"/><path d="M371.881 134.262l4.187 4.875c1.556-.296 3.18-.643 4.853-1.034l-1.202-3.841 2.94 3.424c17.724-4.351 39.693-12.81 39.693-12.81s-23.718 1.736-41.427-2.125c-7.835-1.709-15.897 2.168-19.112 9.501-1.869 4.262-1.576 7.955 5.053 7.955a43.875 43.875 0 006.68-.627l-1.665-5.318z" fill="#0A6EAA"/><path d="M467.326 216.612v1.988a4.36 4.36 0 01-.299 1.596 4.398 4.398 0 01-.318.655 4.416 4.416 0 01-3.791 2.149H316.34a4.406 4.406 0 01-4.11-2.804 4.379 4.379 0 01-.298-1.596v-1.988a4.4 4.4 0 014.408-4.4h8.449v-.927a.186.186 0 01.113-.17.194.194 0 01.071-.013h4.408c.024 0 .048.004.071.013.022.01.042.023.059.04a.186.186 0 01.054.13v.927h2.754v-.927a.186.186 0 01.113-.17.194.194 0 01.071-.013h4.408c.024 0 .048.004.07.013.023.01.043.023.06.04a.186.186 0 01.054.13v.927h2.757v-.927a.186.186 0 01.114-.17.185.185 0 01.07-.013h4.408c.024 0 .048.004.071.013.022.01.042.023.059.04a.186.186 0 01.054.13v.927h2.754v-.927a.186.186 0 01.113-.17.194.194 0 01.071-.013h4.408c.024 0 .048.004.071.013.022.01.042.023.059.04a.186.186 0 01.054.13v.927h2.754v-.927a.186.186 0 01.113-.17.194.194 0 01.071-.013h4.408c.024 0 .048.004.071.013.022.01.042.023.059.04a.186.186 0 01.054.13v.927h2.757v-.927a.186.186 0 01.114-.17.185.185 0 01.07-.013h4.408c.024 0 .048.004.071.013.022.01.042.023.059.04a.186.186 0 01.054.13v.927h2.754v-.927a.186.186 0 01.114-.17.185.185 0 01.07-.013h34.531c.024 0 .048.004.071.013.022.01.042.023.059.04a.186.186 0 01.054.13v.927h2.757v-.927a.186.186 0 01.114-.17.185.185 0 01.07-.013h4.408a.185.185 0 01.184.183v.927h2.754v-.927a.186.186 0 01.114-.17.185.185 0 01.07-.013h4.408a.19.19 0 01.071.013c.022.01.042.023.059.04a.162.162 0 01.04.06c.01.022.014.046.014.07v.927h2.754v-.927a.186.186 0 01.114-.17.185.185 0 01.07-.013h4.408c.024 0 .048.004.071.013.022.01.042.023.059.04a.186.186 0 01.054.13v.927h2.757v-.927a.186.186 0 01.114-.17.185.185 0 01.07-.013h4.409a.182.182 0 01.18.183v.927h2.757v-.927a.186.186 0 01.114-.17.185.185 0 01.07-.013h4.408c.025 0 .049.004.071.013a.173.173 0 01.099.1c.01.022.014.046.014.07v.927h2.754v-.927a.186.186 0 01.114-.17.185.185 0 01.07-.013h4.408a.19.19 0 01.071.013c.022.01.042.023.059.04a.162.162 0 01.04.06c.01.022.014.046.014.07v.927h12.858a4.418 4.418 0 013.117 1.288 4.403 4.403 0 011.291 3.112z" fill="#003269"/><path d="M455.523 132.867h-54.634v-1.124h-24.773v1.124h-54.859a3.706 3.706 0 00-2.613 1.08 3.692 3.692 0 00-1.082 2.608v74.665c0 .978.389 1.916 1.082 2.608a3.697 3.697 0 002.613 1.08h134.266c.98 0 1.92-.388 2.614-1.08a3.685 3.685 0 001.082-2.608v-74.665a3.692 3.692 0 00-3.696-3.688z" fill="#003269"/><path d="M385.871 170.072c4.532 0 8.206-3.667 8.206-8.19s-3.674-8.19-8.206-8.19-8.206 3.667-8.206 8.19 3.674 8.19 8.206 8.19z" fill="#fff"/><path d="M144.921 96.687c6.598 0 11.947-5.338 11.947-11.923s-5.349-11.924-11.947-11.924c-6.598 0-11.946 5.339-11.946 11.924 0 6.585 5.348 11.923 11.946 11.923z" fill="#2F2E41"/><path d="M148.25 73.169a11.963 11.963 0 0110.258 5.812 11.922 11.922 0 011.686 5.85 11.92 11.92 0 01-1.427 5.92 11.897 11.897 0 00.717-13.888 11.953 11.953 0 00-12.957-5.116 11.949 11.949 0 00-7.604 5.905 11.914 11.914 0 019.327-4.483z" fill="#2F2E41"/><path d="M122.598 84.739c19.381 0 35.093-15.682 35.093-35.026 0-19.343-15.712-35.025-35.093-35.025-19.382 0-35.094 15.682-35.094 35.026 0 19.343 15.712 35.025 35.094 35.025z" fill="#2F2E41"/><path d="M95.054 27.982a35.112 35.112 0 0123.574-11.65 35.132 35.132 0 0125.061 7.977c-.287-.272-.571-.546-.869-.81a35.134 35.134 0 00-25.375-8.789 35.12 35.12 0 00-24.169 11.694 34.984 34.984 0 00-8.805 25.326 35 35 0 0011.717 24.122c.298.264.605.514.909.766a34.989 34.989 0 01-10.873-23.906 34.978 34.978 0 018.83-24.73z" fill="#2F2E41"/><path d="M122.3 84.442c12.483 0 22.603-10.1 22.603-22.559 0-12.459-10.12-22.558-22.603-22.558-12.483 0-22.602 10.1-22.602 22.558 0 12.459 10.119 22.559 22.602 22.559z" fill="#A0616A"/><path d="M106.24 69.007s2.974 27.307-1.784 30.276c-4.758 2.968 27.361 7.123 27.361 7.123s-4.758-29.682 7.138-37.4H106.24z" fill="#A0616A"/><path d="M134.791 94.533s8.857-4.127-3.899-2.657c-12.756 1.47-23.761-4.17-23.761-4.17s-3.865-3.858-4.46.297c-.595 4.156 1.785 11.873-11.301 13.06-13.086 1.188-24.982-2.374-29.74 6.531-4.759 8.904-2.38 47.491-2.38 47.491s8.923 32.057 16.06 36.806c7.138 4.749 69.592-1.781 69.592-1.781l17.844-32.057v-37.399s-2.379-13.06-19.033-9.499c0 0-10.707-2.374-10.112-7.717.595-5.343 1.19-8.905 1.19-8.905z" fill="#fff"/><path d="M77.672 214.577c.367-1.598.613-2.502.613-2.502l-.19-1.301-1.96-13.281-.824-5.602c7.136-2.968 8.922-16.623 8.922-16.623l.27-.16 1.217-.728v-.003l4.372-2.618.089-.052 1.766 1.173 3.588 2.388a42.259 42.259 0 0033.221 7.597 36.551 36.551 0 007.819-2.254l8.653-2.879.269-.089.266.04 5.074.766.092.017.42.062-1.175 8.108-1.703 11.784c4.5 2.378 8.501 6.847 12 12.354a71.38 71.38 0 012.252 3.803 93.303 93.303 0 012.708 5.291c.105.216.207.436.309.655.331.711.659 1.429.978 2.15H76.096a225.98 225.98 0 01.364-2.15 125.776 125.776 0 011.211-5.946z" fill="#2F2E41"/><path d="M74.122 100.47s6.543 11.873 4.164 26.714c-2.38 14.841 7.137 51.647 7.137 51.647l7.138-1.781s-4.758-30.869-3.569-37.993c1.19-7.124 1.19-35.025-4.758-38.587-5.948-3.562-10.112 0-10.112 0zm69.174 12.338l2.5 65.726 4.758 2.968s6.841-72.127 3.272-72.127h-7.262a3.269 3.269 0 00-3.268 3.433z" fill="#0A6EAA"/><path d="M88.694 177.347a2.971 2.971 0 002.974-2.968 2.971 2.971 0 00-2.974-2.968 2.971 2.971 0 00-2.974 2.968 2.971 2.971 0 002.974 2.968zm59.479 2.968a2.97 2.97 0 002.974-2.968 2.97 2.97 0 00-2.974-2.968 2.971 2.971 0 00-2.974 2.968 2.971 2.971 0 002.974 2.968z" fill="#3393D4"/><path d="M102.969 33.685v22.558h5.234l6.662-7.123-.892 7.123h23.138l-1.428-7.123 2.855 7.123h3.688V33.685h-39.257z" fill="#2F2E41"/><path d="M99.4 60.399c.985 0 1.784-1.462 1.784-3.265 0-1.803-.799-3.265-1.784-3.265-.986 0-1.785 1.462-1.785 3.265 0 1.803.8 3.265 1.785 3.265zm45.799 0c.986 0 1.785-1.462 1.785-3.265 0-1.803-.799-3.265-1.785-3.265-.985 0-1.784 1.462-1.784 3.265 0 1.803.799 3.265 1.784 3.265zm12.194 116.651s-27.063-5.046-28.848 3.859c-1.784 8.904 30.038 5.046 30.038 5.046l-1.19-8.905z" fill="#A0616A"/><path d="M156.8 115.905s64.833 51.647 52.937 64.113c-11.896 12.467-57.101 8.905-57.101 8.905l2.974-14.841 26.172-2.968-13.086-13.06-11.896 1.187v-43.336z" fill="#fff"/><path d="M61.037 201.983l8.327 6.53s5.948 18.403 14.87 13.061c8.922-5.343-8.327-24.34-8.327-24.34l-10.112-3.562-4.758 8.311z" fill="#A0616A"/><path d="M69.363 106.406l-8.305 2.495S3.34 151.523.961 163.396c-2.38 11.873 11.3 18.403 11.3 18.403l51.749 24.34 5.353-14.248-24.387-12.466s1.784-3.562-5.353-4.156c-7.138-.594-8.327-8.311-8.327-8.311s14.275-21.965 22.007-17.216c7.733 4.75 10.112 8.311 10.112 8.311l5.948-51.647z" fill="#fff"/><path d="M187.813 216.612v1.988a4.38 4.38 0 01-.617 2.251 4.41 4.41 0 01-3.792 2.149H36.827a4.407 4.407 0 01-4.11-2.804 4.367 4.367 0 01-.298-1.596v-1.988a4.39 4.39 0 011.29-3.112 4.414 4.414 0 013.118-1.288h8.449v-.927a.182.182 0 01.053-.13.2.2 0 01.06-.04.188.188 0 01.07-.013h4.409c.024 0 .048.004.07.013a.2.2 0 01.06.04.191.191 0 01.054.13v.927h2.754v-.927a.182.182 0 01.053-.13.198.198 0 01.06-.04.188.188 0 01.07-.013h4.409c.024 0 .048.004.07.013a.178.178 0 01.1.1.186.186 0 01.014.07v.927h2.757v-.927c0-.024.005-.048.014-.07a.176.176 0 01.04-.06.2.2 0 01.06-.04.188.188 0 01.07-.013h4.408c.024 0 .048.004.07.013a.178.178 0 01.1.1.18.18 0 01.014.07v.927h2.754v-.927a.18.18 0 01.054-.13.2.2 0 01.06-.04.188.188 0 01.07-.013h4.408c.024 0 .048.004.07.013a.2.2 0 01.06.04.191.191 0 01.054.13v.927h2.754v-.927a.182.182 0 01.054-.13.198.198 0 01.06-.04.188.188 0 01.07-.013h4.408c.024 0 .048.004.07.013a.2.2 0 01.06.04.182.182 0 01.054.13v.927h2.757v-.927a.18.18 0 01.054-.13.2.2 0 01.06-.04.188.188 0 01.07-.013h4.408c.024 0 .048.004.07.013a.178.178 0 01.1.1c.01.022.014.046.014.07v.927h2.754v-.927c0-.024.005-.048.014-.07a.176.176 0 01.04-.06.2.2 0 01.06-.04.188.188 0 01.07-.013h34.531c.024 0 .048.004.07.013.023.01.043.023.06.04a.186.186 0 01.054.13v.927h2.757v-.927a.186.186 0 01.114-.17.185.185 0 01.07-.013h4.408c.049 0 .095.02.13.054.034.034.054.08.054.129v.927h2.754v-.927a.186.186 0 01.113-.17.194.194 0 01.071-.013h4.408c.024 0 .048.004.071.013.022.01.042.023.059.04a.186.186 0 01.054.13v.927h2.754v-.927a.186.186 0 01.113-.17.194.194 0 01.071-.013h4.408c.024 0 .048.004.071.013.022.01.042.023.059.04a.186.186 0 01.054.13v.927h2.757v-.927a.186.186 0 01.114-.17.185.185 0 01.07-.013h4.408c.049 0 .095.02.128.054a.185.185 0 01.053.129v.927h2.757v-.927a.186.186 0 01.114-.17.185.185 0 01.07-.013h4.408c.024 0 .048.004.071.013.022.01.042.023.059.04a.186.186 0 01.054.13v.927h2.754v-.927a.186.186 0 01.113-.17.194.194 0 01.071-.013h4.408c.024 0 .048.004.071.013.022.01.042.023.059.04a.186.186 0 01.054.13v.927h12.857a4.423 4.423 0 013.118 1.288 4.4 4.4 0 011.291 3.112z" fill="#003269"/><path d="M176.01 132.865h-54.634v-1.124H96.603v1.124h-54.86c-.98 0-1.92.388-2.612 1.08a3.685 3.685 0 00-1.083 2.608v74.665c0 .978.39 1.916 1.083 2.608a3.698 3.698 0 002.613 1.08H176.01c.98 0 1.92-.388 2.613-1.08a3.686 3.686 0 001.083-2.608v-74.665c0-.978-.39-1.916-1.083-2.608a3.697 3.697 0 00-2.613-1.08z" fill="#003269"/><path d="M106.36 170.071c4.533 0 8.207-3.667 8.207-8.19 0-4.524-3.674-8.191-8.207-8.191-4.532 0-8.206 3.667-8.206 8.191 0 4.523 3.674 8.19 8.206 8.19z" fill="#fff"/><path d="M492.111 220.555H6.734v1.02H492.11v-1.02z" fill="#3F3D56"/></svg>