<svg width="335" height="243" fill="none" xmlns="http://www.w3.org/2000/svg"><path d="M293.874 118.363h-2.982v118.328h2.982V118.363z" fill="#003269"/><path d="M321.395 133.443c.19 41.376-28.788 75.053-28.788 75.053s-29.286-33.407-29.476-74.783c-.19-41.376 28.788-75.053 28.788-75.053s29.286 33.407 29.476 74.783zm-87.146 40.595h-1.534v60.859h1.534v-60.859z" fill="#003269"/><path d="M248.517 182.783c.097 21.28-14.807 38.601-14.807 38.601s-15.062-17.182-15.16-38.463c-.098-21.28 14.807-38.601 14.807-38.601s15.062 17.182 15.16 38.463zM264.48 243c22.949 0 41.554-2.865 41.554-6.399s-18.605-6.398-41.554-6.398c-22.95 0-41.554 2.864-41.554 6.398S241.53 243 264.48 243z" fill="#003269"/><path d="M267.907 87.473c-3.521-5.976-10.486-6.255-10.486-6.255s-6.787-.871-11.141 8.23c-4.058 8.483-9.659 16.673-.901 18.659l1.581-4.946.98 5.314c1.247.09 2.498.112 3.747.065 9.378-.305 18.31.088 18.022-3.292-.382-4.494 1.585-12.026-1.802-17.775z" fill="#2F2E41"/><path d="M255.229 98.726s4.549 6.399 1.819 11.579c-2.729 5.18 6.37 10.664 6.37 10.664l6.673-14.625s-7.886-5.18-5.763-10.055l-9.099 2.437z" fill="#FBBEBE"/><path d="M258.262 101.469c4.355 0 7.886-3.547 7.886-7.923 0-4.375-3.531-7.922-7.886-7.922-4.356 0-7.887 3.547-7.887 7.922 0 4.376 3.531 7.923 7.887 7.923zm-27.292 1.235l6.59-8.541s2.321-8.954 5.682-8.5c3.361.454-1.328 10.737-1.328 10.737l-6.548 9.455-4.396-3.151zm33.358 113.635l2.123 11.274 4.55 1.219-1.213-13.407-5.46.914zm45.8-12.188l8.19 11.274 3.336 1.523 2.73-4.57-8.189-10.664-6.067 2.437z" fill="#FBBEBE"/><path d="M262.578 116.133l-5.06-6.691s-9.802 1.816-10.712 2.73c-.91.914 2.426 17.672 2.426 17.672s.607 4.571 3.337 7.008l2.729 1.828 22.446-4.57.844-10.033a26.446 26.446 0 00-1.339-10.799 26.35 26.35 0 00-5.572-9.333l-3.905.536-5.194 11.652z" fill="#00AAC8"/><path d="M247.949 112.742l-1.516-.609-6.977-.61s-2.426-.609-1.819-1.828c.606-1.218 1.213-1.523 0-1.828-1.214-.305-1.517-.609-1.214-1.523.304-.914 2.123-2.743 2.123-2.743l-5.156-4.265s-.279.198-.73.565c-2.56 2.082-10.661 9.595-4.73 17.107 6.977 8.836 15.166 14.016 21.839 12.188l-1.82-16.454z" fill="#00AAC8"/><path d="M254.622 137.118v4.266s-2.73 5.18-1.82 10.055c.91 4.875 1.213 7.312 1.213 7.312a41.751 41.751 0 002.124 12.188c2.123 6.094-4.853 46.009 3.943 46.619 8.796.609 13.649 1.219 16.379-1.828 2.729-3.047-4.55-55.455-4.55-55.455s24.872 52.103 30.028 49.97c5.156-2.133 18.199-7.008 16.682-9.75-1.516-2.742-39.734-63.682-39.734-63.682l-1.213-2.742-23.052 3.047zm14.559 88.362s-4.853-.305-4.853 1.219c0 1.523-2.426 6.703-2.426 6.703s-1.82 6.094 3.033 5.485c4.853-.61 7.886-6.094 7.886-6.094l-1.213-5.79-2.427-1.523zm50.653-10.664s-4.246-2.743-3.943-.915c.304 1.829.607 6.704 2.73 7.008 2.123.305 8.493 2.133 8.796 2.743.303.609 7.583 3.047 7.583-.914 0-3.961-4.55-7.008-4.55-7.008l-5.156-3.961s-3.336-.305-3.943 1.828c-.607 2.133-1.517 1.219-1.517 1.219zm-61.56-128.508c2.781 0 5.036-2.265 5.036-5.06 0-2.793-2.255-5.058-5.036-5.058-2.782 0-5.036 2.265-5.036 5.059s2.254 5.059 5.036 5.059z" fill="#2F2E41"/><path d="M252.707 79.917A5.077 5.077 0 01254 76.534a5.029 5.029 0 013.214-1.647 5.026 5.026 0 00-4.092 1.453 5.073 5.073 0 000 7.155 5.026 5.026 0 004.092 1.453A5.03 5.03 0 01254 83.301a5.077 5.077 0 01-1.293-3.384z" fill="#2F2E41"/><path d="M266.35 86.897l-6.881-3.621-9.502 1.481L248 93.48l4.895-.19 1.367-3.204v3.152l2.258-.087 1.311-5.102.819 5.431 8.028-.165-.328-6.418z" fill="#2F2E41"/><path d="M265.938 137.824l-10.612.288s-9.055 1.77-8.547-1.901c.508-3.672 9.342-2.388 9.342-2.388l9.67-1.482.147 5.483z" fill="#FBBEBE"/><path d="M274.335 103.39a2.249 2.249 0 011.536.318c.458.286.799.727.962 1.244 2.077 6.577 8.478 28.585 2.119 31.604-7.49 3.556-12.956 3.4-12.956 3.4l-2.926-7.236 2.664-2.511 2.843-18.365 1.362-7.786 4.396-.668z" fill="#00AAC8"/><path opacity=".4" d="M272.366 115.637l-1.213 12.188-10.616 4.57 11.829-2.742v-14.016z" fill="#000"/><path d="M215.114 75.401a14.209 14.209 0 018.296 6.054l.993 1.544.049.064 17.406 5.116a1.274 1.274 0 01.868 1.558l-1.351 4.978a1.272 1.272 0 01-1.566.892l-17.41-4.889-1.749.665a15.558 15.558 0 01-10.046.343l4.51-16.325z" fill="#3F3D56"/><path d="M233.444 89.835c.165-.566-.558-1.276-1.614-1.586-1.056-.311-2.046-.104-2.211.462-.165.566.558 1.276 1.614 1.587 1.056.31 2.046.103 2.211-.463z" fill="#575A89"/><path d="M177.661 49.4l.007.005 34.931 27.221-3.973 12.675c-72.657 52.577-120.731 50.314-147.809 31.317-13.693-9.606-22.35-23.674-26.251-37.834-3.919-14.217-2.966-28.213 2.116-37.683 13.793-25.705 44.124-43.31 82.697-33.363 15.963 4.117 29.62 11.837 39.639 21.43A243.013 243.013 0 00177.661 49.4z" stroke="#0A6EAA" stroke-width="5"/><path d="M232.555 90.357a.732.732 0 00.731-.734.732.732 0 00-.731-.734.733.733 0 000 1.468z" fill="#3F3D56"/><path d="M216.569 84.829c1.452-4.497.987-8.677-1.037-9.336-2.024-.66-4.842 2.451-6.293 6.948-1.452 4.496-.987 8.676 1.037 9.335 2.024.66 4.842-2.451 6.293-6.947z" fill="#3C99E2"/><path opacity=".4" d="M216.028 84.67c1.399-4.333 1.018-8.371-.822-9.25.111.014.22.038.326.073 2.024.66 2.489 4.839 1.037 9.336-1.451 4.496-4.269 7.607-6.293 6.947a1.821 1.821 0 01-.215-.086c1.991.255 4.592-2.76 5.967-7.02z" fill="#000"/><path d="M193.498 72.73h-.552v-.556h-.108v.555h-.553v.109h.553v.555h.108v-.555h.552v-.108zm-3.943 14.32h-.552v-.555h-.108v.555h-.553v.109h.553v.555h.108v-.555h.552v-.109zm-50.956 2.438h-.553v-.555h-.108v.555h-.553v.108h.553v.555h.108v-.555h.553v-.108zM45.283 60.907h-.514v-.516h-.1v.516h-.515v.1h.515v.518h.1v-.517h.514v-.1zm-23.318 58.522h-.514v-.517h-.1v.517h-.515v.1h.514v.517h.1v-.517h.515v-.1z" fill="#F2F2F2"/><path d="M76.225 79.816a34.547 34.547 0 01-5.561-23.189 34.422 34.422 0 0110.77-21.242 33.893 33.893 0 0121.899-9.033 33.86 33.86 0 0122.448 7.54 34.371 34.371 0 0112.151 20.471 34.57 34.57 0 01-4.015 23.512 34.107 34.107 0 01-18.242 15.193 33.777 33.777 0 01-23.656-.465 11.126 11.126 0 01-2.673 4.708 11 11 0 01-4.565 2.869c-1.734.561-3.578.68-5.368.346a10.97 10.97 0 01-4.89-2.26 11.095 11.095 0 01-3.246-4.327 11.188 11.188 0 01.967-10.474 11.044 11.044 0 013.981-3.649z" fill="#0A6EAA"/><path d="M104.157 41.116c7.811 0 13.185 4.354 13.185 10.613 0 4.145-2 7.013-5.853 9.295-3.624 2.114-4.853 3.663-4.853 6.342a1.657 1.657 0 01-1.016 1.528c-.2.083-.414.126-.63.126h-3.993c-.426 0-.836-.166-1.143-.464a1.657 1.657 0 01-.501-1.132l-.007-.204c-.354-4.313 1.145-6.992 4.915-9.21 3.52-2.115 4.999-3.455 4.999-6.05 0-2.596-2.499-4.501-5.603-4.501-2.359 0-4.225 1.154-5.082 3.038a3.69 3.69 0 01-1.372 1.55 3.664 3.664 0 01-1.988.561c-2.706 0-4.493-2.891-3.228-5.295 2.002-3.802 6.225-6.197 12.17-6.197zm-5.478 35.88c0-2.408 2-4.313 4.458-4.313 2.478 0 4.478 1.884 4.478 4.313 0 2.428-2 4.312-4.478 4.312-2.479 0-4.458-1.884-4.458-4.312z" fill="#fff"/></svg>