<svg width="505" height="481" viewBox="0 0 505 481" fill="none" xmlns="http://www.w3.org/2000/svg">
<g clip-path="url(#clip0)">
<path opacity="0.18" d="M23.39 141.37C-25.73 263.6 17.11 335.37 21.22 353.98C27.44 382.23 66.97 508.81 214.96 475.3C245.55 468.37 291.43 446.07 322.72 443.89C349.15 442.04 375.14 450.22 401.47 453.16C427.8 456.1 457.64 452.27 474.77 432.07C489.82 414.31 491.01 388.63 487.63 365.59C484.25 342.55 477.07 319.82 478.12 296.59C479.12 275.43 486.81 255.26 492.48 234.85C500.94 204.4 504.89 171.97 497.76 141.19C490.63 110.41 471.19 81.4401 442.49 68.1901C386.88 42.5301 317.88 81.2401 261.29 57.6801C230.29 44.7801 69.55 26.4801 23.39 141.37Z" fill="#0A6EAA"/>
<path d="M234.1 270.83C234.13 270.013 233.899 269.207 233.44 268.53C233.199 268.203 232.851 267.971 232.457 267.872C232.063 267.774 231.647 267.815 231.28 267.99C230.89 268.22 230.63 268.65 230.22 268.86C229.81 269.07 229.13 268.78 229.27 268.34C227.4 268.63 226.09 270.26 224.49 271.26C223.22 272.04 221.74 272.44 220.49 273.2C219.24 273.96 218.07 275.31 218.23 276.79C218.347 277.254 218.4 277.732 218.39 278.21C218.297 278.539 218.17 278.858 218.01 279.16C217.845 279.71 217.793 280.287 217.857 280.858C217.92 281.428 218.098 281.98 218.38 282.48C218.88 283.48 219.57 284.48 219.98 285.48C220.27 286.572 220.637 287.641 221.08 288.68C221.64 289.68 222.87 290.42 223.89 289.93C223.04 288.63 223.57 286.93 224.18 285.46C225.18 283.16 226.33 280.78 228.46 279.46C229.322 279.059 230.107 278.511 230.78 277.84C231.203 277.223 231.59 276.582 231.94 275.92C233.05 274.24 234.14 273.07 234.1 270.83Z" fill="#3F3D56"/>
<path d="M214.93 286.26C214.666 285.864 214.326 285.525 213.93 285.26C212.7 284.55 211.19 285.48 210.11 286.4C208.628 287.673 207.22 289.029 205.89 290.46C205.406 290.913 205.056 291.491 204.88 292.13C204.811 292.745 204.911 293.368 205.17 293.93C206.641 297.874 209.067 301.393 212.23 304.17C212.702 304.657 213.314 304.985 213.98 305.11C214.633 305.11 215.271 304.923 215.82 304.57L223.65 300.57C225.07 299.84 226.76 298.74 226.14 296.87C225.73 295.66 224.44 295.25 223.47 294.56C220.24 292.217 217.364 289.422 214.93 286.26Z" fill="#0A6EAA"/>
<path d="M214.93 286.35C214.666 285.954 214.326 285.614 213.93 285.35C212.7 284.64 211.19 285.56 210.11 286.48C208.625 287.75 207.213 289.102 205.88 290.53C205.378 290.987 205.014 291.576 204.83 292.23C204.762 292.848 204.862 293.474 205.12 294.04C206.594 297.98 209.019 301.494 212.18 304.27C212.652 304.759 213.263 305.091 213.93 305.22C214.583 305.212 215.22 305.021 215.77 304.67L223.6 300.67C225.02 299.94 226.71 298.84 226.09 296.97C225.68 295.77 224.39 295.36 223.42 294.66C220.205 292.313 217.346 289.514 214.93 286.35Z" fill="url(#paint0_linear)"/>
<path d="M233.49 305.24C234.44 309.19 234.15 313.31 233.85 317.36C232.96 329.66 232.04 342.1 228.19 353.81C227.19 356.92 225.81 360.13 223.19 362.03C218.86 365.12 212.35 363.42 208.92 359.36C205.49 355.3 204.65 349.6 205.1 344.3C205.55 339 207.1 333.87 208.03 328.63C209.52 319.81 208.03 305.95 214.1 298.63C220.58 290.75 231.49 296.84 233.49 305.24Z" fill="#0A6EAA"/>
<path d="M233.49 305.24C234.44 309.19 234.15 313.31 233.85 317.36C232.96 329.66 232.04 342.1 228.19 353.81C227.19 356.92 225.81 360.13 223.19 362.03C218.86 365.12 212.35 363.42 208.92 359.36C205.49 355.3 204.65 349.6 205.1 344.3C205.55 339 207.1 333.87 208.03 328.63C209.52 319.81 208.03 305.95 214.1 298.63C220.58 290.75 231.49 296.84 233.49 305.24Z" fill="url(#paint1_linear)"/>
<path d="M227.43 355.85C227.211 357.008 227.051 358.176 226.95 359.35C225.302 366.849 222.788 374.131 219.46 381.05C217.91 384.29 216.16 387.48 215.22 390.95C213.91 395.74 214.22 400.83 214.85 405.76C215.72 412.55 217.62 417.15 219.07 423.84C217.89 424.66 207.66 430.99 206.22 431.17C203.32 429.23 211.22 423.33 211.13 422.32C210.71 417.14 210.13 415.85 208.58 411.39C207.28 407.54 205.96 403.69 204.88 399.78C203.667 395.928 203.07 391.908 203.11 387.87C203.324 385.094 203.789 382.342 204.5 379.65L207.71 365.73L194.71 375.73C194.103 376.135 193.589 376.663 193.2 377.28C192.812 378.198 192.708 379.212 192.9 380.19C193.761 388.507 195.875 396.646 199.17 404.33L191.88 411.65C190.668 413.053 189.134 414.14 187.41 414.82C186.21 413.66 186.78 411.61 187.73 410.24C188.68 408.87 191.61 406.85 191.73 405.19C191.79 404.46 189.01 400.36 188.83 399.66C186.73 391.22 185.48 386.89 184.57 378.24C184.285 376.18 184.285 374.09 184.57 372.03C185.42 367.32 188.8 363.52 192.05 360.03C196.95 354.7 200.68 350.43 204.85 345.6C206.85 348.05 209.43 352.48 218.95 354.93C222.73 355.86 225.16 355.33 227.43 355.85Z" fill="#3F3D56"/>
<path d="M428.73 161.4C428.725 173.129 424.063 184.376 415.77 192.669C407.476 200.963 396.229 205.625 384.5 205.63H293.02C291.012 205.635 289.007 205.492 287.02 205.2C284.621 205.49 282.207 205.633 279.79 205.63H150.95C142.699 205.735 134.509 204.2 126.856 201.114C119.203 198.029 112.238 193.455 106.367 187.657C100.495 181.859 95.8329 174.953 92.651 167.34C89.4691 159.726 87.8306 151.557 87.8306 143.305C87.8306 135.053 89.4691 126.884 92.651 119.27C95.8329 111.657 100.495 104.751 106.367 98.9528C112.238 93.155 119.203 88.5808 126.856 85.4956C134.509 82.4104 142.699 80.8755 150.95 80.98H176.33C178.768 61.864 187.916 44.2355 202.144 31.2383C216.372 18.2412 234.755 10.7206 254.013 10.018C273.27 9.3153 292.152 15.4762 307.289 27.4019C322.427 39.3275 332.836 56.2425 336.66 75.13H344.54C349.905 75.1287 355.217 76.184 360.173 78.2357C365.13 80.2874 369.634 83.2953 373.428 87.0876C377.222 90.88 380.233 95.3825 382.287 100.338C384.341 105.294 385.399 110.606 385.4 115.97C385.4 116.38 385.4 116.79 385.4 117.18C396.974 117.41 407.995 122.171 416.097 130.439C424.199 138.708 428.735 149.824 428.73 161.4Z" fill="url(#paint2_linear)"/>
<path d="M418.78 151.45C418.775 163.179 414.113 174.426 405.82 182.72C397.526 191.013 386.279 195.675 374.55 195.68H283.08C281.072 195.685 279.067 195.541 277.08 195.25C274.684 195.539 272.273 195.683 269.86 195.68H141C132.749 195.785 124.559 194.25 116.906 191.164C109.253 188.079 102.288 183.505 96.4167 177.707C90.545 171.909 85.883 165.003 82.701 157.39C79.5191 149.776 77.8806 141.607 77.8806 133.355C77.8806 125.103 79.5191 116.934 82.701 109.32C85.883 101.707 90.545 94.8006 96.4167 89.0028C102.288 83.205 109.253 78.6309 116.906 75.5456C124.559 72.4604 132.749 70.9255 141 71.03H166.38C168.804 51.9042 177.947 34.2626 192.176 21.2546C206.406 8.24672 224.795 0.719339 244.061 0.0163747C263.327 -0.68659 282.216 5.48062 297.355 17.417C312.494 29.3533 322.898 46.2818 326.71 65.18H334.59C345.422 65.1774 355.812 69.4773 363.475 77.1341C371.137 84.7909 375.445 95.1777 375.45 106.01C375.45 106.43 375.45 106.84 375.45 107.23C387.023 107.463 398.043 112.225 406.145 120.492C414.246 128.76 418.782 139.875 418.78 151.45Z" fill="#0A6EAA"/>
<path d="M418.78 151.45C418.775 163.179 414.113 174.426 405.819 182.72C397.526 191.013 386.279 195.675 374.55 195.68H283.08C281.072 195.685 279.067 195.541 277.08 195.25C274.684 195.539 272.273 195.683 269.86 195.68H144.73C132.828 188.834 123.519 178.249 118.25 165.57C112.98 152.891 112.045 138.826 115.589 125.561C119.134 112.295 126.959 100.571 137.851 92.2099C148.742 83.8484 162.089 79.3172 175.82 79.32H201.21C203.712 59.6924 213.284 41.6504 228.135 28.5747C242.985 15.499 262.093 8.28701 281.88 8.29004H282.88C294.055 13.7841 303.82 21.769 311.424 31.6301C319.028 41.4912 324.268 52.9656 326.74 65.17H334.62C345.452 65.1674 355.842 69.4673 363.505 77.1241C371.167 84.7809 375.475 95.1677 375.48 106C375.48 106.42 375.48 106.83 375.48 107.22C387.049 107.461 398.063 112.227 406.159 120.496C414.254 128.765 418.785 139.878 418.78 151.45Z" fill="url(#paint3_linear)"/>
<path d="M65.0899 364.83H60.1799V174.63C60.1879 169.889 62.0756 165.344 65.4292 161.992C68.7828 158.64 73.3286 156.755 78.0699 156.75H109.07V161.66H78.0699C74.6221 161.66 71.3155 163.03 68.8775 165.468C66.4396 167.906 65.0699 171.212 65.0699 174.66L65.0899 364.83Z" fill="#0A6EAA"/>
<path d="M467.51 364.83H462.61V174.63C462.61 171.182 461.24 167.876 458.802 165.438C456.365 163 453.058 161.63 449.61 161.63H418.61V156.72H449.61C454.351 156.725 458.895 158.611 462.247 161.963C465.599 165.315 467.485 169.86 467.49 174.6L467.51 364.83Z" fill="#0A6EAA"/>
<path d="M485.18 274.18H438.87C428.15 274.18 419.46 282.87 419.46 293.59V391.86C419.46 402.58 428.15 411.27 438.87 411.27H485.18C495.9 411.27 504.59 402.58 504.59 391.86V293.59C504.59 282.87 495.9 274.18 485.18 274.18Z" fill="#0A6EAA"/>
<path d="M498.76 293.37V379.99C498.76 381.626 498.438 383.247 497.811 384.758C497.185 386.27 496.268 387.644 495.111 388.801C493.953 389.958 492.58 390.875 491.068 391.502C489.556 392.128 487.936 392.45 486.3 392.45H437.45C435.813 392.451 434.192 392.13 432.679 391.504C431.166 390.879 429.791 389.961 428.633 388.804C427.475 387.647 426.556 386.273 425.929 384.761C425.303 383.248 424.98 381.627 424.98 379.99V293.37C424.98 290.062 426.293 286.889 428.632 284.549C430.97 282.209 434.142 280.893 437.45 280.89H486.3C487.938 280.891 489.559 281.215 491.071 281.843C492.584 282.471 493.958 283.391 495.115 284.549C496.272 285.708 497.189 287.084 497.815 288.597C498.44 290.111 498.761 291.732 498.76 293.37Z" fill="white"/>
<path d="M472.89 398.19H453.18C450.888 398.19 449.03 400.046 449.03 402.335C449.03 404.624 450.888 406.48 453.18 406.48H472.89C475.182 406.48 477.04 404.624 477.04 402.335C477.04 400.046 475.182 398.19 472.89 398.19Z" fill="white"/>
<path d="M171.08 311.22H30.49C23.0618 311.22 17.04 317.242 17.04 324.67V393.95C17.04 401.378 23.0618 407.4 30.49 407.4H171.08C178.508 407.4 184.53 401.378 184.53 393.95V324.67C184.53 317.242 178.508 311.22 171.08 311.22Z" fill="#0A6EAA"/>
<path d="M166.96 315.93H34.9999C28.2013 315.93 22.6899 321.441 22.6899 328.24V389.84C22.6899 396.639 28.2013 402.15 34.9999 402.15H166.96C173.759 402.15 179.27 396.639 179.27 389.84V328.24C179.27 321.441 173.759 315.93 166.96 315.93Z" fill="white"/>
<path d="M184.52 413.72C184.523 414.551 184.361 415.374 184.044 416.142C183.728 416.91 183.262 417.607 182.675 418.195C182.087 418.782 181.39 419.248 180.622 419.564C179.854 419.881 179.031 420.043 178.2 420.04H23.36C21.6839 420.04 20.0764 419.374 18.8911 418.189C17.7059 417.004 17.04 415.396 17.04 413.72C17.04 412.044 17.7059 410.436 18.8911 409.251C20.0764 408.066 21.6839 407.4 23.36 407.4H178.2C179.875 407.405 181.479 408.073 182.663 409.257C183.847 410.441 184.515 412.045 184.52 413.72Z" fill="#0A6EAA"/>
<path d="M183.33 410.04C183.138 410.32 182.921 410.581 182.68 410.82C182.093 411.41 181.395 411.878 180.626 412.198C179.857 412.517 179.033 412.681 178.2 412.68H23.36C22.3549 412.681 21.3641 412.442 20.47 411.983C19.576 411.524 18.8045 410.858 18.22 410.04C18.7992 409.217 19.5695 408.547 20.4648 408.087C21.3601 407.627 22.3536 407.391 23.36 407.4H178.2C179.204 407.398 180.194 407.637 181.086 408.096C181.979 408.555 182.748 409.222 183.33 410.04Z" fill="url(#paint4_linear)"/>
<path d="M367.59 344.07H287.43C286.08 344.07 284.03 342.97 284.03 341.62C284.03 340.27 286.08 339.16 287.43 339.16H367.59C372.263 339.157 376.744 337.3 380.05 333.997C383.355 330.693 385.215 326.213 385.22 321.54V248.86C385.217 245.524 383.891 242.326 381.533 239.968C379.174 237.609 375.976 236.283 372.64 236.28H316.14C312.031 236.275 308.091 234.64 305.186 231.734C302.28 228.829 300.645 224.889 300.64 220.78V202.32C300.619 201.984 300.666 201.648 300.78 201.332C300.894 201.015 301.071 200.725 301.301 200.48C301.531 200.235 301.809 200.039 302.118 199.906C302.426 199.772 302.759 199.703 303.095 199.703C303.431 199.703 303.764 199.772 304.073 199.906C304.381 200.039 304.659 200.235 304.889 200.48C305.119 200.725 305.297 201.015 305.41 201.332C305.524 201.648 305.571 201.984 305.55 202.32V220.78C305.553 223.588 306.669 226.28 308.655 228.265C310.64 230.251 313.332 231.367 316.14 231.37H372.64C377.277 231.375 381.723 233.22 385.001 236.499C388.28 239.777 390.125 244.223 390.13 248.86V321.54C390.122 327.515 387.744 333.242 383.519 337.466C379.293 341.69 373.565 344.065 367.59 344.07Z" fill="#0A6EAA"/>
<path opacity="0.18" d="M486.62 310.3H439.09C437.256 310.3 435.77 311.784 435.77 313.615C435.77 315.446 437.256 316.93 439.09 316.93H486.62C488.454 316.93 489.94 315.446 489.94 313.615C489.94 311.784 488.454 310.3 486.62 310.3Z" fill="#0A6EAA"/>
<path opacity="0.18" d="M486.62 323.38H439.09C437.256 323.38 435.77 324.864 435.77 326.695C435.77 328.526 437.256 330.01 439.09 330.01H486.62C488.454 330.01 489.94 328.526 489.94 326.695C489.94 324.864 488.454 323.38 486.62 323.38Z" fill="#0A6EAA"/>
<path opacity="0.18" d="M486.62 336.46H439.09C437.256 336.46 435.77 337.944 435.77 339.775C435.77 341.606 437.256 343.09 439.09 343.09H486.62C488.454 343.09 489.94 341.606 489.94 339.775C489.94 337.944 488.454 336.46 486.62 336.46Z" fill="#0A6EAA"/>
<path opacity="0.18" d="M486.62 349.54H439.09C437.256 349.54 435.77 351.024 435.77 352.855C435.77 354.686 437.256 356.17 439.09 356.17H486.62C488.454 356.17 489.94 354.686 489.94 352.855C489.94 351.024 488.454 349.54 486.62 349.54Z" fill="#0A6EAA"/>
<path opacity="0.18" d="M92.7599 336H45.2299C43.3963 336 41.9099 337.484 41.9099 339.315C41.9099 341.146 43.3963 342.63 45.2299 342.63H92.7599C94.5935 342.63 96.0799 341.146 96.0799 339.315C96.0799 337.484 94.5935 336 92.7599 336Z" fill="#0A6EAA"/>
<path opacity="0.18" d="M92.7599 349.08H45.2299C43.3963 349.08 41.9099 350.564 41.9099 352.395C41.9099 354.226 43.3963 355.71 45.2299 355.71H92.7599C94.5935 355.71 96.0799 354.226 96.0799 352.395C96.0799 350.564 94.5935 349.08 92.7599 349.08Z" fill="#0A6EAA"/>
<path opacity="0.18" d="M92.7599 362.17H45.2299C43.3963 362.17 41.9099 363.654 41.9099 365.485C41.9099 367.316 43.3963 368.8 45.2299 368.8H92.7599C94.5935 368.8 96.0799 367.316 96.0799 365.485C96.0799 363.654 94.5935 362.17 92.7599 362.17Z" fill="#0A6EAA"/>
<path opacity="0.18" d="M92.7599 375.25H45.2299C43.3963 375.25 41.9099 376.734 41.9099 378.565C41.9099 380.396 43.3963 381.88 45.2299 381.88H92.7599C94.5935 381.88 96.0799 380.396 96.0799 378.565C96.0799 376.734 94.5935 375.25 92.7599 375.25Z" fill="#0A6EAA"/>
<path opacity="0.18" d="M174.46 318.49L22.6899 372.58V328.25C22.6899 324.983 23.9879 321.849 26.2984 319.538C28.6088 317.228 31.7425 315.93 35.0099 315.93H166.95C169.668 315.924 172.311 316.824 174.46 318.49Z" fill="#0A6EAA"/>
<path opacity="0.18" d="M179.27 365.19V389.83C179.269 391.447 178.949 393.047 178.329 394.54C177.709 396.033 176.802 397.389 175.657 398.532C174.513 399.674 173.156 400.579 171.662 401.197C170.168 401.814 168.567 402.131 166.95 402.13H87.0701L179.27 365.19Z" fill="#0A6EAA"/>
<path d="M352.63 275.29H267.21C261.185 275.29 256.3 280.175 256.3 286.2V391.52C256.3 397.545 261.185 402.43 267.21 402.43H352.63C358.655 402.43 363.54 397.545 363.54 391.52V286.2C363.54 280.175 358.655 275.29 352.63 275.29Z" fill="#0A6EAA"/>
<path d="M358.51 289.86V385.13C358.511 386.425 358.257 387.708 357.762 388.905C357.267 390.102 356.541 391.189 355.625 392.105C354.709 393.021 353.622 393.747 352.425 394.242C351.228 394.737 349.945 394.991 348.65 394.99H271.41C270.114 394.991 268.831 394.737 267.634 394.242C266.436 393.747 265.348 393.021 264.431 392.106C263.515 391.19 262.788 390.103 262.292 388.906C261.795 387.709 261.54 386.426 261.54 385.13V289.86C261.543 287.244 262.584 284.736 264.434 282.887C266.285 281.039 268.794 280 271.41 280H348.65C349.945 280 351.227 280.255 352.423 280.751C353.62 281.246 354.707 281.972 355.622 282.888C356.538 283.804 357.264 284.89 357.759 286.087C358.255 287.283 358.51 288.565 358.51 289.86Z" fill="white"/>
<path opacity="0.18" d="M274.72 325.04L288.73 318.77L305.68 333.14L323 310.3L340.32 334.62V351.43H275.4L274.72 325.04Z" fill="#0A6EAA"/>
<path d="M314.9 396.81H307.02C306.103 396.81 305.36 397.551 305.36 398.465C305.36 399.379 306.103 400.12 307.02 400.12H314.9C315.817 400.12 316.56 399.379 316.56 398.465C316.56 397.551 315.817 396.81 314.9 396.81Z" fill="url(#paint5_linear)"/>
<path d="M345.66 352.06H274.42V304.77H275.4V351.08H345.66V352.06Z" fill="#0A6EAA"/>
<path d="M291.13 316.47H285.46V351.43H291.13V316.47Z" fill="#0A6EAA"/>
<path d="M326.5 307.89H320.83V351.44H326.5V307.89Z" fill="#0A6EAA"/>
<path d="M308.54 330.2H302.87V351.43H308.54V330.2Z" fill="#0A6EAA"/>
<path d="M342.44 330.2H336.77V351.43H342.44V330.2Z" fill="#0A6EAA"/>
<path opacity="0.18" d="M358.51 289.86V298.53L261.51 351.42V289.86C261.513 287.244 262.554 284.736 264.404 282.887C266.255 281.039 268.764 280 271.38 280H348.62C349.917 279.996 351.203 280.248 352.402 280.742C353.602 281.236 354.693 281.961 355.611 282.877C356.53 283.793 357.259 284.882 357.757 286.08C358.254 287.278 358.51 288.563 358.51 289.86Z" fill="#0A6EAA"/>
<path opacity="0.18" d="M498.76 328.77V379.99C498.76 381.626 498.438 383.247 497.811 384.758C497.185 386.27 496.268 387.644 495.111 388.801C493.953 389.958 492.58 390.875 491.068 391.502C489.556 392.128 487.936 392.45 486.3 392.45H437.45C435.813 392.451 434.192 392.13 432.679 391.504C431.166 390.879 429.791 389.961 428.633 388.804C427.475 387.647 426.556 386.273 425.929 384.761C425.303 383.248 424.98 381.627 424.98 379.99V369.13L498.73 323.88L498.76 328.77Z" fill="#0A6EAA"/>
<path d="M214.96 475.3L211.03 476.11V195.48H214.96V475.3Z" fill="#0A6EAA"/>
<path d="M214.96 475.3L211.03 476.11V195.48H214.96V475.3Z" fill="url(#paint6_linear)"/>
<path d="M211.88 307.38C211.643 307.091 211.35 306.853 211.018 306.681C210.686 306.509 210.323 306.407 209.95 306.38C208.81 306.46 208.24 307.8 208.08 308.94C207.885 310.203 207.885 311.487 208.08 312.75C208.67 316.36 210.77 319.52 212.83 322.56C215.447 326.598 218.323 330.463 221.44 334.13C222.787 335.784 224.458 337.145 226.35 338.13C227.303 338.617 228.361 338.86 229.43 338.84C230.5 338.819 231.547 338.534 232.48 338.01C234.72 336.57 235.4 333.66 235.9 331.01L237.4 322.96C237.62 322.264 237.62 321.516 237.4 320.82C237.108 320.293 236.68 319.855 236.16 319.55C235.539 319.046 234.805 318.703 234.02 318.55C231.87 318.32 230.31 320.55 229.76 322.66C229.21 324.77 229.03 327.1 227.52 328.66L218.88 318.65C217.932 317.76 217.312 316.576 217.12 315.29C217.215 314.354 217.389 313.427 217.64 312.52C217.77 311.59 217.43 310.44 216.52 310.21C216.338 310.69 216.039 311.116 215.65 311.45C214.3 310.32 213.21 308.64 211.88 307.38Z" fill="url(#paint7_linear)"/>
<path d="M228.88 308.89L227.93 321.59C227.8 322.062 227.856 322.566 228.087 322.998C228.318 323.429 228.705 323.756 229.17 323.91L237.6 328.69C239.77 325.18 239.95 320.83 239.9 316.69C239.939 313.669 239.657 310.652 239.06 307.69C238.767 306.282 238.247 304.931 237.52 303.69C236.745 302.438 235.682 301.389 234.42 300.63C233.55 300.11 228.42 296.63 227.54 297.37C226.54 298.27 229.73 302.75 229.46 304.03C229.16 305.636 228.967 307.259 228.88 308.89Z" fill="#0A6EAA"/>
<path d="M228.88 308.89L227.93 321.59C227.8 322.062 227.856 322.566 228.087 322.998C228.318 323.429 228.705 323.756 229.17 323.91L237.6 328.69C239.77 325.18 239.95 320.83 239.9 316.69C239.939 313.669 239.657 310.652 239.06 307.69C238.767 306.282 238.247 304.931 237.52 303.69C236.745 302.438 235.682 301.389 234.42 300.63C233.55 300.11 228.42 296.63 227.54 297.37C226.54 298.27 229.73 302.75 229.46 304.03C229.16 305.636 228.967 307.259 228.88 308.89Z" fill="url(#paint8_linear)"/>
<path d="M215.88 264.76C215.844 266.842 215.071 268.843 213.7 270.41C212.871 271.101 212.096 271.853 211.38 272.66C210.18 274.29 210.31 276.5 210.48 278.52C210.7 281.13 210.93 283.74 211.15 286.36C209.737 287.152 208.398 288.069 207.15 289.1C206.278 287.447 205.52 285.736 204.88 283.98C204.273 282.744 203.862 281.422 203.66 280.06C203.603 279.204 203.647 278.345 203.79 277.5C204.588 272.284 206.805 267.389 210.2 263.35C210.093 263.218 210.027 263.059 210.01 262.89C209.851 261.666 209.909 260.424 210.18 259.22C210.187 259.101 210.225 258.986 210.29 258.886C210.355 258.786 210.444 258.705 210.55 258.65C210.81 258.56 211.07 258.8 211.21 259.04C211.627 259.774 211.879 260.589 211.95 261.43C212.967 260.418 214.06 259.485 215.22 258.64C215.673 260.648 215.895 262.701 215.88 264.76Z" fill="url(#paint9_linear)"/>
<path d="M223.05 298.7C223.361 299.079 223.789 299.344 224.266 299.454C224.744 299.565 225.244 299.514 225.69 299.31C226.679 298.902 227.591 298.331 228.39 297.62C228.585 297.491 228.751 297.325 228.88 297.13C228.976 296.919 229.027 296.691 229.03 296.46C229.13 295.16 229.2 293.85 229.23 292.54C229.26 291.23 229.18 289.42 228.07 288.47C227.935 288.334 227.766 288.237 227.58 288.19C227.362 288.165 227.14 288.186 226.93 288.25C226.068 288.418 225.248 288.758 224.52 289.25C223.16 290.25 222.84 292.25 222.78 293.82C222.73 295.13 222.35 297.52 223.05 298.7Z" fill="url(#paint10_linear)"/>
<path d="M233.63 280.13C233.63 280.13 233.91 287.87 232.71 290.35C231.51 292.83 226.44 292.84 224.51 290.81C222.58 288.78 220.51 283.08 221.56 278.19C222.61 273.3 231.88 269.76 233.63 280.13Z" fill="url(#paint11_linear)"/>
<path d="M227.22 274.77C226.575 275.156 226.012 275.666 225.564 276.27C225.116 276.874 224.792 277.56 224.61 278.29C224.247 279.751 224.082 281.255 224.12 282.76L224.07 285.04C223.573 284.349 222.899 283.803 222.12 283.46C221.77 284.563 221.87 285.761 222.4 286.79C222.605 287.098 222.764 287.435 222.87 287.79C222.928 287.974 222.923 288.172 222.856 288.353C222.789 288.534 222.664 288.688 222.5 288.79C221.95 289.05 221.42 288.4 221.15 287.85C220.08 285.66 218.97 283.28 219.41 280.85C219.599 279.97 219.905 279.119 220.32 278.32C221.2 276.167 222.657 274.298 224.53 272.92C225.287 272.417 226.149 272.093 227.05 271.971C227.95 271.85 228.867 271.935 229.73 272.22C232.7 273.35 228.17 274.26 227.22 274.77Z" fill="#3F3D56"/>
</g>
<defs>
<linearGradient id="paint0_linear" x1="220.89" y1="303.26" x2="193.66" y2="267.32" gradientUnits="userSpaceOnUse">
<stop stop-opacity="0"/>
<stop offset="0.99"/>
</linearGradient>
<linearGradient id="paint1_linear" x1="7310.48" y1="22895" x2="9122.69" y2="22974.4" gradientUnits="userSpaceOnUse">
<stop stop-opacity="0"/>
<stop offset="0.99"/>
</linearGradient>
<linearGradient id="paint2_linear" x1="41588.9" y1="21271.6" x2="157532" y2="21271.6" gradientUnits="userSpaceOnUse">
<stop stop-opacity="0"/>
<stop offset="0.99"/>
</linearGradient>
<linearGradient id="paint3_linear" x1="88220.8" y1="-8636.02" x2="91151.2" y2="78124" gradientUnits="userSpaceOnUse">
<stop stop-opacity="0"/>
<stop offset="0.99"/>
</linearGradient>
<linearGradient id="paint4_linear" x1="100.78" y1="402.79" x2="100.78" y2="439.64" gradientUnits="userSpaceOnUse">
<stop stop-opacity="0"/>
<stop offset="0.41" stop-opacity="0.41"/>
<stop offset="0.99"/>
</linearGradient>
<linearGradient id="paint5_linear" x1="3784.53" y1="1696.45" x2="3785.62" y2="1764.35" gradientUnits="userSpaceOnUse">
<stop stop-opacity="0"/>
<stop offset="0.41" stop-opacity="0.41"/>
<stop offset="0.99"/>
</linearGradient>
<linearGradient id="paint6_linear" x1="1034.17" y1="66081.8" x2="-2718.56" y2="64583.2" gradientUnits="userSpaceOnUse">
<stop stop-opacity="0"/>
<stop offset="0.99"/>
</linearGradient>
<linearGradient id="paint7_linear" x1="207.95" y1="322.63" x2="237.55" y2="322.63" gradientUnits="userSpaceOnUse">
<stop stop-color="#ECC4D7"/>
<stop offset="0.42" stop-color="#EFD4D1"/>
<stop offset="1" stop-color="#F2EAC9"/>
</linearGradient>
<linearGradient id="paint8_linear" x1="3600.34" y1="10682.2" x2="2501.16" y2="7294.44" gradientUnits="userSpaceOnUse">
<stop stop-opacity="0"/>
<stop offset="0.99"/>
</linearGradient>
<linearGradient id="paint9_linear" x1="3102.2" y1="8629.48" x2="3252.19" y2="8629.48" gradientUnits="userSpaceOnUse">
<stop stop-color="#ECC4D7"/>
<stop offset="0.42" stop-color="#EFD4D1"/>
<stop offset="1" stop-color="#F2EAC9"/>
</linearGradient>
<linearGradient id="paint10_linear" x1="1911.22" y1="3627.41" x2="1954.86" y2="3627.41" gradientUnits="userSpaceOnUse">
<stop stop-color="#ECC4D7"/>
<stop offset="0.42" stop-color="#EFD4D1"/>
<stop offset="1" stop-color="#F2EAC9"/>
</linearGradient>
<linearGradient id="paint11_linear" x1="3371.23" y1="5623.39" x2="3524.39" y2="5623.39" gradientUnits="userSpaceOnUse">
<stop stop-color="#ECC4D7"/>
<stop offset="0.42" stop-color="#EFD4D1"/>
<stop offset="1" stop-color="#F2EAC9"/>
</linearGradient>
<clipPath id="clip0">
<rect width="504.59" height="480.9" fill="white"/>
</clipPath>
</defs>
</svg>
