<svg width="291" height="46" fill="none" xmlns="http://www.w3.org/2000/svg"><path d="M1 29.183l20.454-18.88C25.92 5.44 36.768-2.828 44.443 3.009c3.439 2.25 8.254 9.302 0 19.517L21.454 44.961" stroke="#fff" stroke-width="2"/><path d="M54 29.183l-20.454-18.88C29.08 5.44 18.232-2.828 10.557 3.009c-3.439 2.25-8.254 9.302 0 19.517l22.989 22.436" stroke="#fff" stroke-width="2"/><path d="M67.965 15.068h2.454v7.41h9.326v-7.41H82.2V33h-2.454v-8.386H70.42V33h-2.454V15.068zm23.157 4.565c.928 0 1.827.22 2.698.66.87.43 1.534.992 1.99 1.684.439.66.732 1.428.879 2.307.13.602.195 1.563.195 2.881H87.3c.041 1.326.354 2.393.94 3.198.586.798 1.493 1.197 2.722 1.197 1.148 0 2.063-.379 2.747-1.136.39-.44.667-.948.83-1.526h2.16c-.056.48-.248 1.018-.573 1.612-.317.586-.675 1.066-1.074 1.44-.668.651-1.494 1.09-2.478 1.319a7.528 7.528 0 01-1.795.195c-1.627 0-3.007-.59-4.138-1.77-1.131-1.188-1.697-2.848-1.697-4.98 0-2.1.57-3.805 1.71-5.115 1.139-1.31 2.628-1.966 4.467-1.966zm3.504 5.786c-.09-.952-.297-1.713-.623-2.282-.602-1.058-1.607-1.587-3.015-1.587-1.01 0-1.856.366-2.54 1.098-.683.725-1.045 1.648-1.086 2.771h7.264zm6.652 4.102c0 .635.232 1.135.696 1.502.464.366 1.013.549 1.648.549a5.01 5.01 0 002.246-.537c1.221-.594 1.831-1.567 1.831-2.918v-1.77c-.268.171-.614.313-1.037.427a8.904 8.904 0 01-1.245.245l-1.331.17c-.798.106-1.396.273-1.794.5-.676.383-1.014.994-1.014 1.832zm5.323-4.443c.504-.066.842-.277 1.013-.635.097-.195.146-.476.146-.842 0-.75-.268-1.29-.805-1.624-.529-.342-1.29-.513-2.283-.513-1.148 0-1.961.31-2.442.928-.268.342-.443.85-.524 1.526h-2.051c.04-1.611.561-2.73 1.562-3.357 1.009-.635 2.177-.952 3.504-.952 1.538 0 2.787.293 3.747.879.952.586 1.428 1.497 1.428 2.734v7.532c0 .228.045.41.135.55.097.138.297.207.598.207.098 0 .207-.004.329-.012.123-.017.253-.037.391-.061v1.623a6.117 6.117 0 01-.781.183 5.693 5.693 0 01-.733.037c-.756 0-1.306-.269-1.647-.806-.18-.285-.306-.688-.379-1.208-.448.585-1.09 1.094-1.929 1.525-.838.432-1.762.648-2.771.648-1.212 0-2.205-.367-2.978-1.1-.765-.74-1.148-1.663-1.148-2.77 0-1.213.379-2.153 1.136-2.82.756-.667 1.749-1.078 2.978-1.233l3.504-.44zm6.97-10.01h2.197V33h-2.197V15.068zm5.945 1.208h2.221v3.65h2.088v1.795h-2.088v8.532c0 .456.155.761.464.916.171.09.456.134.855.134h.341c.123-.008.265-.02.428-.036V33a4.917 4.917 0 01-.794.159 7.329 7.329 0 01-.879.049c-1.025 0-1.721-.26-2.087-.782-.366-.529-.549-1.212-.549-2.05V21.72h-1.77v-1.795h1.77v-3.65zm6.518-1.27h2.197v6.69c.521-.659.989-1.123 1.404-1.391.708-.464 1.591-.696 2.649-.696 1.896 0 3.182.663 3.858 1.99.366.724.549 1.729.549 3.015V33h-2.258v-8.24c0-.96-.122-1.664-.367-2.112-.398-.716-1.147-1.074-2.246-1.074-.911 0-1.737.313-2.478.94-.74.627-1.111 1.81-1.111 3.552V33h-2.197V15.007zm22.083 4.92h2.429c-.309.839-.997 2.75-2.063 5.738a288.345 288.345 0 01-2.002 5.493c-1.27 3.336-2.165 5.37-2.686 6.103-.52.733-1.416 1.099-2.685 1.099-.309 0-.549-.012-.72-.037a5.773 5.773 0 01-.611-.134v-2.002c.383.106.659.17.83.195.171.025.322.037.452.037.407 0 .704-.07.891-.208.195-.13.358-.293.488-.488.041-.065.188-.399.44-1 .252-.603.435-1.05.549-1.344l-4.834-13.452h2.49l3.504 10.645 3.528-10.645zm17.7-4.92v3.187h-5.383V33h-3.785V18.193h-5.407v-3.186h14.575zm6.042 15.54c1.018 0 1.799-.362 2.344-1.086.545-.724.818-1.754.818-3.088 0-1.335-.273-2.36-.818-3.077-.545-.724-1.326-1.086-2.344-1.086-1.017 0-1.802.362-2.356 1.086-.545.717-.817 1.742-.817 3.077 0 1.334.272 2.364.817 3.088.554.724 1.339 1.086 2.356 1.086zm6.812-4.174c0 1.953-.562 3.625-1.685 5.017-1.123 1.383-2.828 2.075-5.114 2.075-2.287 0-3.992-.692-5.115-2.075-1.123-1.392-1.685-3.064-1.685-5.017 0-1.921.562-3.585 1.685-4.993 1.123-1.408 2.828-2.112 5.115-2.112 2.286 0 3.991.704 5.114 2.112 1.123 1.408 1.685 3.072 1.685 4.993zm8.215 3.772c.814 0 1.502-.306 2.063-.916.562-.619.843-1.6.843-2.942 0-1.261-.269-2.222-.806-2.88-.529-.66-1.241-.99-2.136-.99-1.221 0-2.063.574-2.527 1.722-.244.61-.366 1.363-.366 2.258 0 .773.13 1.46.39 2.063.472 1.123 1.319 1.685 2.539 1.685zm-.866-10.767c.667 0 1.249.102 1.745.305.846.35 1.53.993 2.051 1.929v-1.917h3.381v12.622c0 1.717-.289 3.011-.866 3.882-.993 1.498-2.898 2.246-5.713 2.246-1.701 0-3.089-.333-4.163-1-1.074-.668-1.668-1.665-1.782-2.991h3.784c.098.406.256.7.476.878.374.318 1.005.477 1.892.477 1.253 0 2.092-.42 2.515-1.258.277-.537.415-1.44.415-2.71v-.854c-.334.57-.692.997-1.074 1.282-.692.529-1.591.793-2.698.793-1.709 0-3.076-.598-4.102-1.794-1.017-1.205-1.526-2.832-1.526-4.883 0-1.978.493-3.638 1.478-4.98.984-1.352 2.38-2.027 4.187-2.027zm15.686 2.832c-.806 0-1.433.252-1.88.757-.44.504-.716 1.188-.83 2.05h5.407c-.057-.919-.337-1.615-.842-2.087-.496-.48-1.115-.72-1.855-.72zm0-2.869c1.106 0 2.103.208 2.99.623.887.415 1.62 1.07 2.198 1.965.52.79.858 1.705 1.013 2.747.089.61.126 1.49.11 2.636h-9.107c.049 1.335.468 2.271 1.257 2.808.481.334 1.058.5 1.734.5.716 0 1.298-.203 1.745-.61.245-.22.46-.525.647-.915h3.553c-.09.79-.501 1.59-1.233 2.404-1.14 1.294-2.735 1.942-4.785 1.942-1.693 0-3.186-.546-4.48-1.636-1.294-1.09-1.941-2.865-1.941-5.323 0-2.303.582-4.069 1.745-5.297 1.172-1.23 2.69-1.844 4.554-1.844zm7.299 2.954v-2.478h1.856v-3.71h3.442v3.71h2.161v2.478h-2.161v7.032c0 .545.069.887.208 1.025.138.13.561.195 1.269.195h.33l.354-.024v2.6l-1.648.061c-1.644.057-2.767-.228-3.369-.854-.391-.4-.586-1.014-.586-1.844v-8.19h-1.856zm17.029-2.942c.822 0 1.567.143 2.234.428.676.285 1.229.72 1.66 1.306.366.496.59 1.01.672 1.538.081.52.122 1.375.122 2.564V33h-3.553v-8.093c0-.716-.122-1.294-.366-1.734-.317-.618-.919-.927-1.806-.927-.92 0-1.62.309-2.1.927-.472.61-.708 1.486-.708 2.625V33h-3.467V15.068h3.467v6.36c.505-.773 1.086-1.31 1.746-1.612a4.935 4.935 0 012.099-.463zm13.196 2.857c-.806 0-1.432.252-1.88.757-.439.504-.716 1.188-.83 2.05h5.408c-.057-.919-.338-1.615-.843-2.087-.496-.48-1.114-.72-1.855-.72zm0-2.869c1.107 0 2.104.208 2.991.623.887.415 1.619 1.07 2.197 1.965.521.79.859 1.705 1.013 2.747.09.61.126 1.49.11 2.636h-9.106c.048 1.335.468 2.271 1.257 2.808.48.334 1.058.5 1.733.5.716 0 1.298-.203 1.746-.61.244-.22.46-.525.647-.915h3.552c-.089.79-.5 1.59-1.233 2.404-1.139 1.294-2.734 1.942-4.785 1.942-1.693 0-3.186-.546-4.48-1.636-1.294-1.09-1.941-2.865-1.941-5.323 0-2.303.582-4.069 1.746-5.297 1.172-1.23 2.689-1.844 4.553-1.844zm15.894.037a.82.82 0 01.158.012c.049 0 .151.004.305.012v3.565a9.366 9.366 0 00-1.001-.061c-1.399 0-2.339.455-2.819 1.367-.269.513-.403 1.302-.403 2.368V33h-3.504V19.694h3.321v2.32c.537-.887 1.005-1.494 1.403-1.82.652-.544 1.498-.817 2.54-.817z" fill="#fff"/></svg>