<svg width="505" height="481" fill="none" xmlns="http://www.w3.org/2000/svg"><g clip-path="url(#clip0)"><path opacity=".18" d="M23.39 141.37c-49.12 122.23-6.28 194-2.17 212.61 6.22 28.25 45.75 154.83 193.74 121.32 30.59-6.93 76.47-29.23 107.76-31.41 26.43-1.85 52.42 6.33 78.75 9.27 26.33 2.94 56.17-.89 73.3-21.09 15.05-17.76 16.24-43.44 12.86-66.48-3.38-23.04-10.56-45.77-9.51-69 1-21.16 8.69-41.33 14.36-61.74 8.46-30.45 12.41-62.88 5.28-93.66-7.13-30.78-26.57-59.75-55.27-73-55.61-25.66-124.61 13.05-181.2-10.51-31-12.9-191.74-31.2-237.9 83.69z" fill="#0A6EAA"/><path d="M234.1 270.83a3.848 3.848 0 00-.66-2.3 1.75 1.75 0 00-2.16-.54c-.39.23-.65.66-1.06.87-.41.21-1.09-.08-.95-.52-1.87.29-3.18 1.92-4.78 2.92-1.27.78-2.75 1.18-4 1.94s-2.42 2.11-2.26 3.59c.117.464.17.942.16 1.42-.093.329-.22.648-.38.95a4.256 4.256 0 00.37 3.32c.5 1 1.19 2 1.6 3 .29 1.092.657 2.161 1.1 3.2.56 1 1.79 1.74 2.81 1.25-.85-1.3-.32-3 .29-4.47 1-2.3 2.15-4.68 4.28-6a8.16 8.16 0 002.32-1.62c.423-.617.81-1.258 1.16-1.92 1.11-1.68 2.2-2.85 2.16-5.09z" fill="#3F3D56"/><path d="M214.93 286.26a3.62 3.62 0 00-1-1c-1.23-.71-2.74.22-3.82 1.14a52.178 52.178 0 00-4.22 4.06 3.596 3.596 0 00-1.01 1.67 3.397 3.397 0 00.29 1.8 25.474 25.474 0 007.06 10.24 3.28 3.28 0 001.75.94 3.4 3.4 0 001.84-.54l7.83-4c1.42-.73 3.11-1.83 2.49-3.7-.41-1.21-1.7-1.62-2.67-2.31a41.606 41.606 0 01-8.54-8.3z" fill="#0A6EAA"/><path d="M214.93 286.35a3.606 3.606 0 00-1-1c-1.23-.71-2.74.21-3.82 1.13a52.183 52.183 0 00-4.23 4.05 3.628 3.628 0 00-1.05 1.7 3.455 3.455 0 00.29 1.81 25.51 25.51 0 007.06 10.23 3.305 3.305 0 001.75.95 3.5 3.5 0 001.84-.55l7.83-4c1.42-.73 3.11-1.83 2.49-3.7-.41-1.2-1.7-1.61-2.67-2.31a41.383 41.383 0 01-8.49-8.31z" fill="url(#paint0_linear)"/><path d="M233.49 305.24c.95 3.95.66 8.07.36 12.12-.89 12.3-1.81 24.74-5.66 36.45-1 3.11-2.38 6.32-5 8.22-4.33 3.09-10.84 1.39-14.27-2.67-3.43-4.06-4.27-9.76-3.82-15.06.45-5.3 2-10.43 2.93-15.67 1.49-8.82 0-22.68 6.07-30 6.48-7.88 17.39-1.79 19.39 6.61z" fill="#0A6EAA"/><path d="M233.49 305.24c.95 3.95.66 8.07.36 12.12-.89 12.3-1.81 24.74-5.66 36.45-1 3.11-2.38 6.32-5 8.22-4.33 3.09-10.84 1.39-14.27-2.67-3.43-4.06-4.27-9.76-3.82-15.06.45-5.3 2-10.43 2.93-15.67 1.49-8.82 0-22.68 6.07-30 6.48-7.88 17.39-1.79 19.39 6.61z" fill="url(#paint1_linear)"/><path d="M227.43 355.85a34.958 34.958 0 00-.48 3.5 99.17 99.17 0 01-7.49 21.7c-1.55 3.24-3.3 6.43-4.24 9.9-1.31 4.79-1 9.88-.37 14.81.87 6.79 2.77 11.39 4.22 18.08-1.18.82-11.41 7.15-12.85 7.33-2.9-1.94 5-7.84 4.91-8.85-.42-5.18-1-6.47-2.55-10.93-1.3-3.85-2.62-7.7-3.7-11.61a38.388 38.388 0 01-1.77-11.91 46.056 46.056 0 011.39-8.22l3.21-13.92-13 10a5.19 5.19 0 00-1.51 1.55 5.002 5.002 0 00-.3 2.91 82.918 82.918 0 006.27 24.14l-7.29 7.32a11.465 11.465 0 01-4.47 3.17c-1.2-1.16-.63-3.21.32-4.58s3.88-3.39 4-5.05c.06-.73-2.72-4.83-2.9-5.53-2.1-8.44-3.35-12.77-4.26-21.42a22.659 22.659 0 010-6.21c.85-4.71 4.23-8.51 7.48-12 4.9-5.33 8.63-9.6 12.8-14.43 2 2.45 4.58 6.88 14.1 9.33 3.78.93 6.21.4 8.48.92z" fill="#3F3D56"/><path d="M428.73 161.4a44.248 44.248 0 01-44.23 44.23h-91.48a40.566 40.566 0 01-6-.43c-2.399.29-4.813.433-7.23.43H150.95a62.316 62.316 0 01-44.583-17.973 62.333 62.333 0 01-13.716-68.387 62.336 62.336 0 0158.299-38.29h25.38a81.302 81.302 0 0177.683-70.962A81.299 81.299 0 01336.66 75.13h7.88a40.844 40.844 0 0128.888 11.958A40.855 40.855 0 01385.4 115.97v1.21a44.208 44.208 0 0143.33 44.22z" fill="url(#paint2_linear)"/><path d="M418.78 151.45a44.252 44.252 0 01-44.23 44.23h-91.47a40.702 40.702 0 01-6-.43 59.672 59.672 0 01-7.22.43H141a62.32 62.32 0 01-58.299-38.29A62.332 62.332 0 01141 71.03h25.38a81.289 81.289 0 01160.33-5.85h7.88a40.853 40.853 0 0140.86 40.83v1.22a44.225 44.225 0 0130.695 13.262 44.224 44.224 0 0112.635 30.958z" fill="#0A6EAA"/><path d="M418.78 151.45a44.25 44.25 0 01-44.23 44.23h-91.47a40.702 40.702 0 01-6-.43 59.672 59.672 0 01-7.22.43H144.73a62.33 62.33 0 0131.09-116.36h25.39a81.309 81.309 0 0180.67-71.03h1a81.39 81.39 0 0143.86 56.88h7.88A40.853 40.853 0 01375.48 106v1.22a44.221 44.221 0 0143.3 44.23z" fill="url(#paint3_linear)"/><path d="M65.09 364.83h-4.91v-190.2a17.912 17.912 0 0117.89-17.88h31v4.91h-31a13 13 0 00-13 13l.02 190.17zm402.42 0h-4.9v-190.2a13 13 0 00-13-13h-31v-4.91h31a17.897 17.897 0 0117.88 17.88l.02 190.23z" fill="#0A6EAA"/><path d="M485.18 274.18h-46.31c-10.72 0-19.41 8.69-19.41 19.41v98.27c0 10.72 8.69 19.41 19.41 19.41h46.31c10.72 0 19.41-8.69 19.41-19.41v-98.27c0-10.72-8.69-19.41-19.41-19.41z" fill="#0A6EAA"/><path d="M498.76 293.37v86.62c0 1.636-.322 3.257-.949 4.768a12.454 12.454 0 01-11.511 7.692h-48.85a12.458 12.458 0 01-8.817-3.646 12.466 12.466 0 01-3.653-8.814v-86.62a12.477 12.477 0 0112.47-12.48h48.85a12.48 12.48 0 0111.515 7.707c.625 1.514.946 3.135.945 4.773zm-25.87 104.82h-19.71a4.148 4.148 0 00-4.15 4.145 4.148 4.148 0 004.15 4.145h19.71a4.148 4.148 0 004.15-4.145 4.148 4.148 0 00-4.15-4.145z" fill="#fff"/><path d="M171.08 311.22H30.49c-7.428 0-13.45 6.022-13.45 13.45v69.28c0 7.428 6.022 13.45 13.45 13.45h140.59c7.428 0 13.45-6.022 13.45-13.45v-69.28c0-7.428-6.022-13.45-13.45-13.45z" fill="#0A6EAA"/><path d="M166.96 315.93H35c-6.799 0-12.31 5.511-12.31 12.31v61.6c0 6.799 5.511 12.31 12.31 12.31h131.96c6.799 0 12.31-5.511 12.31-12.31v-61.6c0-6.799-5.511-12.31-12.31-12.31z" fill="#fff"/><path d="M184.52 413.72a6.288 6.288 0 01-1.845 4.475 6.3 6.3 0 01-4.475 1.845H23.36a6.321 6.321 0 010-12.64H178.2a6.338 6.338 0 016.32 6.32z" fill="#0A6EAA"/><path d="M183.33 410.04a5.39 5.39 0 01-.65.78 6.31 6.31 0 01-4.48 1.86H23.36a6.314 6.314 0 01-5.14-2.64 6.221 6.221 0 015.14-2.64H178.2a6.282 6.282 0 015.13 2.64z" fill="url(#paint4_linear)"/><path d="M367.59 344.07h-80.16c-1.35 0-3.4-1.1-3.4-2.45s2.05-2.46 3.4-2.46h80.16a17.642 17.642 0 0017.63-17.62v-72.68a12.59 12.59 0 00-12.58-12.58h-56.5a15.516 15.516 0 01-10.954-4.546 15.516 15.516 0 01-4.546-10.954v-18.46a2.458 2.458 0 011.478-2.414 2.45 2.45 0 011.955 0 2.456 2.456 0 011.477 2.414v18.46a10.598 10.598 0 0010.59 10.59h56.5a17.506 17.506 0 0112.361 5.129 17.506 17.506 0 015.129 12.361v72.68a22.563 22.563 0 01-22.54 22.53z" fill="#0A6EAA"/><path opacity=".18" d="M486.62 310.3h-47.53a3.317 3.317 0 00-3.32 3.315 3.317 3.317 0 003.32 3.315h47.53a3.317 3.317 0 003.32-3.315 3.317 3.317 0 00-3.32-3.315zm0 13.08h-47.53a3.317 3.317 0 00-3.32 3.315 3.317 3.317 0 003.32 3.315h47.53a3.317 3.317 0 003.32-3.315 3.317 3.317 0 00-3.32-3.315zm0 13.08h-47.53a3.317 3.317 0 00-3.32 3.315 3.317 3.317 0 003.32 3.315h47.53a3.317 3.317 0 003.32-3.315 3.317 3.317 0 00-3.32-3.315zm0 13.08h-47.53a3.317 3.317 0 00-3.32 3.315 3.317 3.317 0 003.32 3.315h47.53a3.317 3.317 0 003.32-3.315 3.317 3.317 0 00-3.32-3.315zM92.76 336H45.23a3.317 3.317 0 00-3.32 3.315 3.317 3.317 0 003.32 3.315h47.53a3.317 3.317 0 003.32-3.315A3.317 3.317 0 0092.76 336zm0 13.08H45.23a3.317 3.317 0 00-3.32 3.315 3.317 3.317 0 003.32 3.315h47.53a3.317 3.317 0 003.32-3.315 3.317 3.317 0 00-3.32-3.315zm0 13.09H45.23a3.317 3.317 0 00-3.32 3.315 3.317 3.317 0 003.32 3.315h47.53a3.317 3.317 0 003.32-3.315 3.317 3.317 0 00-3.32-3.315zm0 13.08H45.23a3.317 3.317 0 00-3.32 3.315 3.317 3.317 0 003.32 3.315h47.53a3.317 3.317 0 003.32-3.315 3.317 3.317 0 00-3.32-3.315z" fill="#0A6EAA"/><path opacity=".18" d="M174.46 318.49L22.69 372.58v-44.33a12.323 12.323 0 0112.32-12.32h131.94a12.213 12.213 0 017.51 2.56zm4.81 46.7v24.64a12.3 12.3 0 01-3.613 8.702 12.318 12.318 0 01-8.707 3.598H87.07l92.2-36.94z" fill="#0A6EAA"/><path d="M352.63 275.29h-85.42c-6.025 0-10.91 4.885-10.91 10.91v105.32c0 6.025 4.885 10.91 10.91 10.91h85.42c6.025 0 10.91-4.885 10.91-10.91V286.2c0-6.025-4.885-10.91-10.91-10.91z" fill="#0A6EAA"/><path d="M358.51 289.86v95.27a9.86 9.86 0 01-2.885 6.975 9.846 9.846 0 01-6.975 2.885h-77.24a9.86 9.86 0 01-9.87-9.86v-95.27a9.875 9.875 0 012.894-6.973A9.875 9.875 0 01271.41 280h77.24c1.295 0 2.577.255 3.773.751a9.842 9.842 0 015.336 5.336 9.848 9.848 0 01.751 3.773z" fill="#fff"/><path opacity=".18" d="M274.72 325.04l14.01-6.27 16.95 14.37L323 310.3l17.32 24.32v16.81H275.4l-.68-26.39z" fill="#0A6EAA"/><path d="M314.9 396.81h-7.88c-.917 0-1.66.741-1.66 1.655s.743 1.655 1.66 1.655h7.88c.917 0 1.66-.741 1.66-1.655s-.743-1.655-1.66-1.655z" fill="url(#paint5_linear)"/><path d="M345.66 352.06h-71.24v-47.29h.98v46.31h70.26v.98z" fill="#0A6EAA"/><path d="M291.13 316.47h-5.67v34.96h5.67v-34.96zm35.37-8.58h-5.67v43.55h5.67v-43.55zm-17.96 22.31h-5.67v21.23h5.67V330.2zm33.9 0h-5.67v21.23h5.67V330.2z" fill="#0A6EAA"/><path opacity=".18" d="M358.51 289.86v8.67l-97 52.89v-61.56a9.875 9.875 0 012.894-6.973A9.875 9.875 0 01271.38 280h77.24a9.85 9.85 0 016.991 2.877 9.866 9.866 0 012.899 6.983zm140.25 38.91v51.22c0 1.636-.322 3.257-.949 4.768a12.454 12.454 0 01-11.511 7.692h-48.85a12.458 12.458 0 01-8.817-3.646 12.466 12.466 0 01-3.653-8.814v-10.86l73.75-45.25.03 4.89z" fill="#0A6EAA"/><path d="M214.96 475.3l-3.93.81V195.48h3.93V475.3z" fill="#0A6EAA"/><path d="M214.96 475.3l-3.93.81V195.48h3.93V475.3z" fill="url(#paint6_linear)"/><path d="M211.88 307.38a2.752 2.752 0 00-1.93-1c-1.14.08-1.71 1.42-1.87 2.56a12.48 12.48 0 000 3.81c.59 3.61 2.69 6.77 4.75 9.81a111.475 111.475 0 008.61 11.57 15.655 15.655 0 004.91 4 6.486 6.486 0 006.13-.12c2.24-1.44 2.92-4.35 3.42-7l1.5-8.05c.22-.696.22-1.444 0-2.14a3.36 3.36 0 00-1.24-1.27 4.873 4.873 0 00-2.14-1c-2.15-.23-3.71 2-4.26 4.11-.55 2.11-.73 4.44-2.24 6l-8.64-10.01a5.78 5.78 0 01-1.76-3.36c.095-.936.269-1.863.52-2.77.13-.93-.21-2.08-1.12-2.31-.182.48-.481.906-.87 1.24-1.35-1.13-2.44-2.81-3.77-4.07z" fill="url(#paint7_linear)"/><path d="M228.88 308.89l-.95 12.7a1.91 1.91 0 001.24 2.32l8.43 4.78c2.17-3.51 2.35-7.86 2.3-12a42.76 42.76 0 00-.84-9 13.256 13.256 0 00-1.54-4 9.257 9.257 0 00-3.1-3.06c-.87-.52-6-4-6.88-3.26-1 .9 2.19 5.38 1.92 6.66a37.275 37.275 0 00-.58 4.86z" fill="#0A6EAA"/><path d="M228.88 308.89l-.95 12.7a1.91 1.91 0 001.24 2.32l8.43 4.78c2.17-3.51 2.35-7.86 2.3-12a42.76 42.76 0 00-.84-9 13.256 13.256 0 00-1.54-4 9.257 9.257 0 00-3.1-3.06c-.87-.52-6-4-6.88-3.26-1 .9 2.19 5.38 1.92 6.66a37.275 37.275 0 00-.58 4.86z" fill="url(#paint8_linear)"/><path d="M215.88 264.76a8.812 8.812 0 01-2.18 5.65 21.53 21.53 0 00-2.32 2.25c-1.2 1.63-1.07 3.84-.9 5.86.22 2.61.45 5.22.67 7.84a27.035 27.035 0 00-4 2.74 41.239 41.239 0 01-2.27-5.12 13.326 13.326 0 01-1.22-3.92 10.972 10.972 0 01.13-2.56 28.746 28.746 0 016.41-14.15.867.867 0 01-.19-.46 10.533 10.533 0 01.17-3.67.687.687 0 01.37-.57c.26-.09.52.15.66.39a5.83 5.83 0 01.74 2.39 28.055 28.055 0 013.27-2.79c.453 2.008.675 4.061.66 6.12z" fill="url(#paint9_linear)"/><path d="M223.05 298.7a2.218 2.218 0 002.64.61 9.523 9.523 0 002.7-1.69c.195-.129.361-.295.49-.49a1.67 1.67 0 00.15-.67c.1-1.3.17-2.61.2-3.92s-.05-3.12-1.16-4.07a1.054 1.054 0 00-.49-.28 1.606 1.606 0 00-.65.06 6.538 6.538 0 00-2.41 1c-1.36 1-1.68 3-1.74 4.57-.05 1.31-.43 3.7.27 4.88z" fill="url(#paint10_linear)"/><path d="M233.63 280.13s.28 7.74-.92 10.22c-1.2 2.48-6.27 2.49-8.2.46-1.93-2.03-4-7.73-2.95-12.62 1.05-4.89 10.32-8.43 12.07 1.94z" fill="url(#paint11_linear)"/><path d="M227.22 274.77a5.719 5.719 0 00-2.61 3.52 16.784 16.784 0 00-.49 4.47l-.05 2.28a4.772 4.772 0 00-1.95-1.58 4.38 4.38 0 00.28 3.33c.205.308.364.645.47 1a.869.869 0 01-.37 1c-.55.26-1.08-.39-1.35-.94-1.07-2.19-2.18-4.57-1.74-7 .189-.88.495-1.731.91-2.53a12.643 12.643 0 014.21-5.4 6 6 0 015.2-.7c2.97 1.13-1.56 2.04-2.51 2.55z" fill="#3F3D56"/></g><defs><linearGradient id="paint0_linear" x1="220.89" y1="303.26" x2="193.66" y2="267.32" gradientUnits="userSpaceOnUse"><stop stop-opacity="0"/><stop offset=".99"/></linearGradient><linearGradient id="paint1_linear" x1="7310.48" y1="22895" x2="9122.69" y2="22974.4" gradientUnits="userSpaceOnUse"><stop stop-opacity="0"/><stop offset=".99"/></linearGradient><linearGradient id="paint2_linear" x1="41588.9" y1="21271.6" x2="157532" y2="21271.6" gradientUnits="userSpaceOnUse"><stop stop-opacity="0"/><stop offset=".99"/></linearGradient><linearGradient id="paint3_linear" x1="88220.8" y1="-8636.02" x2="91151.2" y2="78124" gradientUnits="userSpaceOnUse"><stop stop-opacity="0"/><stop offset=".99"/></linearGradient><linearGradient id="paint4_linear" x1="100.78" y1="402.79" x2="100.78" y2="439.64" gradientUnits="userSpaceOnUse"><stop stop-opacity="0"/><stop offset=".41" stop-opacity=".41"/><stop offset=".99"/></linearGradient><linearGradient id="paint5_linear" x1="3784.53" y1="1696.45" x2="3785.62" y2="1764.35" gradientUnits="userSpaceOnUse"><stop stop-opacity="0"/><stop offset=".41" stop-opacity=".41"/><stop offset=".99"/></linearGradient><linearGradient id="paint6_linear" x1="1034.17" y1="66081.8" x2="-2718.56" y2="64583.2" gradientUnits="userSpaceOnUse"><stop stop-opacity="0"/><stop offset=".99"/></linearGradient><linearGradient id="paint7_linear" x1="207.95" y1="322.63" x2="237.55" y2="322.63" gradientUnits="userSpaceOnUse"><stop stop-color="#ECC4D7"/><stop offset=".42" stop-color="#EFD4D1"/><stop offset="1" stop-color="#F2EAC9"/></linearGradient><linearGradient id="paint8_linear" x1="3600.34" y1="10682.2" x2="2501.16" y2="7294.44" gradientUnits="userSpaceOnUse"><stop stop-opacity="0"/><stop offset=".99"/></linearGradient><linearGradient id="paint9_linear" x1="3102.2" y1="8629.48" x2="3252.19" y2="8629.48" gradientUnits="userSpaceOnUse"><stop stop-color="#ECC4D7"/><stop offset=".42" stop-color="#EFD4D1"/><stop offset="1" stop-color="#F2EAC9"/></linearGradient><linearGradient id="paint10_linear" x1="1911.22" y1="3627.41" x2="1954.86" y2="3627.41" gradientUnits="userSpaceOnUse"><stop stop-color="#ECC4D7"/><stop offset=".42" stop-color="#EFD4D1"/><stop offset="1" stop-color="#F2EAC9"/></linearGradient><linearGradient id="paint11_linear" x1="3371.23" y1="5623.39" x2="3524.39" y2="5623.39" gradientUnits="userSpaceOnUse"><stop stop-color="#ECC4D7"/><stop offset=".42" stop-color="#EFD4D1"/><stop offset="1" stop-color="#F2EAC9"/></linearGradient><clipPath id="clip0"><path fill="#fff" d="M0 0h504.59v480.9H0z"/></clipPath></defs></svg>