<svg width="303" height="127" fill="none" xmlns="http://www.w3.org/2000/svg"><g clip-path="url(#clip0)"><path d="M111.1 43.9H60.4c0-3.8 3-6.8 6.8-6.8h37.1c3.8 0 6.8 3 6.8 6.8z" fill="#60D6FF"/><path d="M16.7 27.3h11.6v13c-1.6 1.4-3.4 2.4-5.5 3.1-2.1.7-4.5 1.1-7.1 1.1-2.5 0-4.7-.4-6.6-1.1-1.9-.8-3.6-1.8-4.9-3.2-1.4-1.4-2.4-3-3.1-5-.7-1.9-1.1-4-1.1-6.4 0-2.3.4-4.3 1.1-6.3.8-1.9 1.8-3.6 3.2-5 1.4-1.4 3-2.5 4.9-3.4 1.9-.9 4-1.2 6.3-1.2 2.7 0 5.1.5 7.2 1.5 2.1 1 3.8 2.4 5.1 4.2L23.2 23c-1-1.1-2-2.1-3.2-2.8-1.2-.7-2.6-1.1-4.3-1.1-1.4 0-2.6.3-3.7.8s-2 1.2-2.7 2.1c-.7 1-1.2 2-1.6 3.2-.4 1.2-.6 2.4-.6 3.7 0 1.4.2 2.7.7 3.9.5 1.2 1.1 2.2 1.9 3 .8.8 1.8 1.5 2.9 1.9 1.1.5 2.3.7 3.6.7 1.2 0 2.3-.1 3.3-.4 1-.3 1.9-.7 2.7-1.4v-3.8h-5.3v-5.5h-.2zm17-13.5h6.8v24h14.4v6H33.7v-30z" fill="#05194A"/><path d="M85.8 31.6c-2.2 0-4.3-.4-6.2-1.2-1.9-.8-3.6-1.9-5-3.3s-2.5-3.1-3.3-5c-.8-1.9-1.2-4-1.2-6.2 0-2.3.4-4.3 1.2-6.3.8-1.9 1.9-3.6 3.3-5s3-2.5 5-3.3c1.9-.8 4-1.2 6.2-1.2s4.3.4 6.2 1.2c1.9.8 3.6 1.9 5 3.3s2.5 3.1 3.3 5c.8 1.9 1.2 4 1.2 6.3 0 2.2-.4 4.3-1.2 6.2-.8 1.9-1.9 3.6-3.3 5s-3 2.5-5 3.3c-1.9.8-3.9 1.2-6.2 1.2zm0-6.4c1.3 0 2.5-.3 3.6-.8s1.9-1.2 2.7-2.1c.7-.9 1.3-1.9 1.7-3 .4-1.1.6-2.4.6-3.6 0-1.3-.2-2.5-.6-3.7-.4-1.1-1-2.1-1.7-3-.7-.9-1.6-1.5-2.7-2s-2.2-.7-3.6-.7c-1.3 0-2.5.2-3.6.7-1.1.5-2 1.2-2.7 2-.7.9-1.3 1.9-1.7 3-.4 1.1-.6 2.4-.6 3.7 0 1.3.2 2.5.6 3.6.4 1.1 1 2.1 1.7 3 .7.9 1.6 1.6 2.7 2.1 1.1.6 2.3.8 3.6.8z" fill="#60D6FF"/><path d="M116.6 13.8h11.3c1.9 0 3.4.2 4.7.7 1.3.4 2.3 1 3.2 1.7.8.7 1.4 1.6 1.8 2.5.4.9.5 1.9.5 3 0 1-.2 1.8-.5 2.5s-.8 1.4-1.2 1.9c-.5.5-1 .9-1.5 1.2-.5.3-.9.5-1.3.6.6.2 1.2.4 1.8.7 1.2.5 2.3 1.4 3.1 2.5.8 1.1 1.2 2.5 1.2 4.1 0 1.6-.3 2.9-.8 4-.6 1.1-1.3 2-2.3 2.7-1 .7-2.2 1.2-3.7 1.5-1.5.3-3.1.5-4.9.5h-11.3V13.8h-.1zm10.6 12.1c.5 0 1-.1 1.5-.2s.9-.3 1.3-.6.7-.6.9-1c.2-.4.4-1 .4-1.6 0-.7-.1-1.2-.4-1.6-.2-.4-.6-.8-.9-1-.4-.3-.8-.4-1.3-.5-.5-.1-1-.2-1.5-.2h-4V26h4v-.1zm.4 12.7c.5 0 1 0 1.6-.1.6-.1 1.2-.2 1.7-.5s.9-.7 1.3-1.2c.3-.5.5-1.2.5-2.1 0-.8-.2-1.5-.5-2s-.8-.9-1.3-1.2c-.5-.3-1.1-.5-1.7-.6-.6-.1-1.2-.2-1.7-.2h-4.4v7.8h4.5v.1zm26.9-24.8h7.5l11 30.1h-7.4l-2.3-6.9h-10.6l-2.3 6.9h-7.1l11.2-30.1zm7.1 17.9L158 20.4l-3.7 11.4h7.3v-.1zm15.1-17.9h6.8v24h14.4v6h-21.2v-30zM56.8 79.2c-.6.9-1.4 1.7-2.3 2.5-.9.8-1.9 1.4-3 2-1.1.6-2.3 1-3.6 1.4-1.3.3-2.6.5-4 .5-2.3 0-4.4-.4-6.3-1.2-1.9-.8-3.5-1.9-4.9-3.3-1.4-1.4-2.4-3-3.2-5-.8-1.9-1.1-4-1.1-6.3 0-2.2.4-4.3 1.1-6.2.8-1.9 1.8-3.6 3.2-5 1.4-1.4 3-2.6 4.9-3.4 1.9-.8 4-1.2 6.3-1.2 2.8 0 5.2.5 7.3 1.5 2.1 1 3.8 2.5 5.2 4.4l-4.6 4.5c-.9-1.3-2-2.3-3.2-3-1.2-.8-2.7-1.1-4.4-1.1-1.4 0-2.6.2-3.7.7-1.1.5-2 1.2-2.7 2.1-.8.9-1.3 1.9-1.7 3-.4 1.2-.6 2.4-.6 3.7 0 1.3.2 2.6.6 3.7.4 1.1 1 2.1 1.7 3 .8.8 1.7 1.5 2.7 2 1.1.5 2.2.7 3.6.7 1.1 0 2-.1 2.8-.3.8-.2 1.5-.5 2.1-.9.6-.4 1.2-.8 1.6-1.3.5-.5.9-1 1.4-1.5l4.8 4z" fill="#05194A"/><path d="M60.4 54.7h6.8v30.1h-6.8V54.7z" fill="#60D6FF"/><path d="M82.3 60.7h-9.7v-6h26.3v6h-9.7v24.1h-6.8V60.7h-.1z" fill="#05194A"/><path d="M104.3 54.7h6.8v30.1h-6.8V54.7z" fill="#60D6FF"/><path d="M115.7 79.2l16.4-18.5h-15.7v-6h24v5.6l-16.1 18.5h16.4v5.9h-25.1v-5.5h.1zm30.2-24.5h20.5v5.9h-13.7v5.9h10.7v5.8h-10.7v6.5h14.7v6h-21.5V54.7zm26 0h6.5l13 19.5V54.7h6.7v30.1H192l-13.3-19.9v19.9H172V54.7h-.1zm-161 40.9h20.2v6H17.7v6.8h10.2v5.8H17.7v11.4h-6.8v-30zm41.3 30.8c-2.2 0-4.3-.4-6.2-1.2-1.9-.8-3.6-1.9-5-3.3s-2.5-3.1-3.3-5c-.8-1.9-1.2-4-1.2-6.2 0-2.3.4-4.3 1.2-6.3.8-1.9 1.9-3.6 3.3-5s3-2.5 5-3.3c1.9-.8 4-1.2 6.2-1.2s4.3.4 6.2 1.2c1.9.8 3.6 1.9 5 3.3s2.5 3.1 3.3 5c.8 1.9 1.2 4 1.2 6.3 0 2.2-.4 4.3-1.2 6.2-.8 1.9-1.9 3.6-3.3 5s-3 2.5-5 3.3c-1.9.8-4 1.2-6.2 1.2zm0-6.4c1.3 0 2.5-.3 3.6-.8s1.9-1.2 2.7-2.1c.7-.9 1.3-1.9 1.7-3 .4-1.1.6-2.4.6-3.6 0-1.3-.2-2.5-.6-3.7-.4-1.1-1-2.1-1.7-3-.7-.9-1.6-1.5-2.7-2s-2.2-.7-3.6-.7c-1.3 0-2.5.2-3.6.7-1.1.5-2 1.2-2.7 2-.7.9-1.3 1.9-1.7 3-.4 1.1-.6 2.4-.6 3.7 0 1.3.2 2.5.6 3.6.4 1.1 1 2.1 1.7 3 .7.9 1.6 1.6 2.7 2.1 1 .6 2.2.8 3.6.8z" fill="#05194A"/><path d="M73.2 95.6H80v17.8c0 1 .1 1.9.3 2.7.2.8.5 1.5 1 2.1.5.6 1 1 1.8 1.3.7.3 1.6.5 2.7.5s1.9-.2 2.7-.5c.7-.3 1.3-.8 1.8-1.3.5-.6.8-1.3 1-2.1.2-.8.3-1.7.3-2.7V95.6h6.9v18.7c0 1.8-.3 3.5-.9 5-.6 1.5-1.4 2.8-2.5 3.9s-2.4 1.9-4 2.5c-1.6.6-3.3.9-5.2.9-1.9 0-3.7-.3-5.2-.9-1.6-.6-2.9-1.4-4-2.5s-1.9-2.4-2.5-3.9c-.6-1.5-.9-3.2-.9-5V95.6h-.1z" fill="#60D6FF"/><path d="M103.9 95.6h6.5l13 19.5V95.6h6.7v30.1h-6.2l-13.3-19.9v19.9h-6.7V95.6zm31.6 0h11.4c2.3 0 4.5.3 6.4.9 2 .6 3.7 1.5 5.1 2.7 1.4 1.2 2.5 2.8 3.3 4.7.8 1.9 1.2 4.2 1.2 6.8 0 2.5-.4 4.7-1.2 6.5-.8 1.8-1.9 3.4-3.4 4.6-1.4 1.2-3.1 2.2-5.1 2.8-2 .6-4.1.9-6.4.9h-11.3V95.6zm11 24c3 0 5.3-.8 6.9-2.4 1.6-1.6 2.4-3.7 2.4-6.5 0-1.4-.2-2.6-.6-3.8-.4-1.1-.9-2.1-1.7-2.9-.8-.8-1.7-1.4-2.9-1.8-1.2-.4-2.6-.7-4.2-.7h-4.1v18h4.2v.1zm30.6-24h7.5l11 30.1h-7.4l-2.3-6.9h-10.6l-2.3 6.9h-7.1l11.2-30.1zm7.2 17.9l-3.7-11.4-3.7 11.4h7.4zm21.1-11.9h-9.7v-6H222v6h-9.7v24.1h-6.8v-24.1h-.1zm21.9-6h6.8v30.1h-6.8V95.6zm27.9 30.8c-2.2 0-4.3-.4-6.2-1.2-1.9-.8-3.6-1.9-5-3.3s-2.5-3.1-3.3-5c-.8-1.9-1.2-4-1.2-6.2 0-2.3.4-4.3 1.2-6.3.8-1.9 1.9-3.6 3.3-5s3-2.5 5-3.3c1.9-.8 4-1.2 6.2-1.2s4.3.4 6.2 1.2c1.9.8 3.6 1.9 5 3.3s2.5 3.1 3.3 5c.8 1.9 1.2 4 1.2 6.3 0 2.2-.4 4.3-1.2 6.2-.8 1.9-1.9 3.6-3.3 5s-3 2.5-5 3.3c-1.9.8-4 1.2-6.2 1.2zm0-6.4c1.3 0 2.5-.3 3.6-.8s1.9-1.2 2.7-2.1c.7-.9 1.3-1.9 1.7-3 .4-1.1.6-2.4.6-3.6 0-1.3-.2-2.5-.6-3.7-.4-1.1-1-2.1-1.7-3-.7-.9-1.6-1.5-2.7-2s-2.2-.7-3.6-.7c-1.3 0-2.5.2-3.6.7-1.1.5-2 1.2-2.7 2-.7.9-1.3 1.9-1.7 3-.4 1.1-.6 2.4-.6 3.7 0 1.3.2 2.5.6 3.6.4 1.1 1 2.1 1.7 3 .7.9 1.6 1.6 2.7 2.1 1.1.6 2.3.8 3.6.8zm21-24.4h6.5l13 19.5V95.6h6.7v30.1h-6.2L283 105.8v19.9h-6.7V95.6h-.1z" fill="#05194A"/></g><defs><clipPath id="clip0"><path d="M0 0h302.5v126.5H0V0z" fill="#fff"/></clipPath></defs></svg>