<svg width="288" height="218" fill="none" xmlns="http://www.w3.org/2000/svg"><path d="M217.838 6.626H82.74v173.742h135.098V6.626z" fill="#E6E8EC"/><path d="M183.415 38.076h-68.972v.775h68.972v-.775zm0 5.424h-68.972v.776h68.972V43.5zm0 5.426h-68.972v.775h68.972v-.775z" fill="#3F3D56"/><path d="M183.415 78.476h-68.972v.775h68.972v-.775zm0 5.425h-68.972v.775h68.972v-.775z" fill="#0A6EAA"/><path d="M183.415 89.326h-68.972v.775h68.972v-.775zm0 13.714h-68.972v.775h68.972v-.775zm0 5.425h-68.972v.775h68.972v-.775zm0 5.424h-68.972v.775h68.972v-.775zm0 13.714h-68.972v.775h68.972v-.775z" fill="#3F3D56"/><path d="M183.415 133.028h-68.972v.775h68.972v-.775z" fill="#0A6EAA"/><path d="M183.415 138.453h-68.972v.775h68.972v-.775zm0 13.714h-68.972v.775h68.972v-.775zm0 5.424h-68.972v.775h68.972v-.775zm0 5.425h-68.972v.775h68.972v-.775z" fill="#3F3D56"/><path d="M227.373 192.952H82.255V0h145.118v192.952zm-144.472-.647h143.825V.646H82.901v191.659z" fill="#3F3D56"/><path d="M195.215 15.029a4.193 4.193 0 012.1-3.635 4.197 4.197 0 00-4.205-.006 4.21 4.21 0 00-2.104 3.64 4.205 4.205 0 004.208 4.202 4.197 4.197 0 002.101-.566 4.192 4.192 0 01-2.1-3.635z" fill="#3F3D56"/><path d="M200.709 15.029a4.193 4.193 0 012.1-3.635 4.197 4.197 0 00-4.204-.006 4.205 4.205 0 00-2.105 3.64 4.205 4.205 0 004.208 4.202 4.197 4.197 0 002.101-.566 4.2 4.2 0 01-2.1-3.635z" fill="#0A6EAA"/><path d="M206.203 19.23a4.202 4.202 0 100-8.403 4.202 4.202 0 000 8.403z" fill="#3F3D56"/><path d="M109.566 51.874a34.933 34.933 0 01-19.664 31.409 34.96 34.96 0 01-30.594-.055c-.821-.4-1.623-.834-2.405-1.3a34.912 34.912 0 012.004-61.208 34.331 34.331 0 016.658-2.553 34.94 34.94 0 019.095-1.199c.413 0 .824.007 1.234.026.301.006.602.02.902.039a34.711 34.711 0 019.984 2.097 31.64 31.64 0 012.579 1.08 34.897 34.897 0 0120.207 31.664z" fill="#0A6EAA"/><path d="M88.284 16.18c-3.176-7.494-11.26-8.909-11.26-8.909S69.24 5.195 62.74 15.084c-6.059 9.218-13.872 17.854-3.963 21.533l2.617-5.497.314 6.326c1.441.3 2.897.522 4.362.662 10.991 1.117 21.352 2.974 21.544-.998.255-5.28 3.726-13.72.67-20.93z" fill="#2F2E41"/><path d="M60.058 77.249l-.259 2.075-.491 3.904a32.914 32.914 0 01-2.405-1.3 32.175 32.175 0 01-2.317-1.496l.078-2.013.087-2.234 3.587.721 1.72.343zm36.111 2.12a34.926 34.926 0 01-4.997 3.264l-1.693-5.866-.223-.772-.556-1.93.598-.094 6.121-.966.197 1.664.553 4.7zM77.03 31.63a9.548 9.548 0 100-19.094 9.548 9.548 0 100 19.095z" fill="#FFB8B8"/><path d="M70.488 25.796s.707 12.023-1.415 12.73c-2.121.707 10.963 0 10.963 0s-1.768-7.426 0-9.547c1.768-2.122-9.548-3.183-9.548-3.183z" fill="#FFB8B8"/><path d="M80.212 36.581s-9.194-.707-10.962 0c-1.768.708-6.719 4.244-6.719 4.244l2.476 22.277 20.156 4.244 3.182-4.597 3.183-6.719-1.415-8.487-.353-4.95-9.548-6.012z" fill="#fff"/><path d="M60.764 42.24s-4.597 1.06-4.951 4.596c-.354 3.536-.354 12.377 0 13.791.354 1.415 0 2.122-.354 2.475-.353.354-1.06-.353-.353.708.707 1.06.707 1.06.353 2.121-.353 1.061-1.414-.353-.707 1.415s1.061 2.122.707 2.475c-.353.354-1.414 8.487-1.414 8.487l6.011 1.06 6.012-20.862-5.304-16.267zm27.581 0a3.769 3.769 0 013.183 2.12c1.06 2.123 3.89 15.914 3.536 16.974-.353 1.061-1.06-.353-.353 1.768.707 2.122 0 1.769.353 3.183.354 1.415-1.414 0 0 1.415 1.415 1.414 2.122 1.768 1.415 2.475-.708.707-1.769-.707-.708.707s1.061 3.536 1.061 3.536l-8.487 1.768-2.475-19.802 2.475-14.145z" fill="#fff"/><path d="M89.479 76.767l.423 6.516a34.96 34.96 0 01-30.594-.055 32.914 32.914 0 01-2.405-1.3c.272-.998.547-1.994.828-2.97.2-.695.403-1.379.607-2.052 1.587-5.194 3.297-9.612 4.9-11.328 0 0 0-3.888.708-4.244.34-.267.6-.622.75-1.028a13.78 13.78 0 00.666-1.8l-1.17-2.721-5.236-12.191a1.49 1.49 0 01.701-1.917l1.736-.87a1.49 1.49 0 012 .68l7.98 16.311 8.84 5.66 6.199-2.757.164-.075s4.6-7.071 3.184-10.607c-.604-1.51-1.27-3.526-1.842-5.346-.333-1.073-.63-2.078-.863-2.867a.636.636 0 01.963-.708l1.206.805c.273.184.489.44.623.74a1.6 1.6 0 01.123.369l2.618 12.666-3.536 7.424v7.072l.246 3.797.13 1.988.05.808zm-2.99-63.31l-8.102-4.244-11.188 1.736-2.315 10.224 5.762-.221 1.61-3.757v3.695l2.659-.103 1.543-5.98.965 6.366 9.452-.193-.386-7.523z" fill="#2F2E41"/><path d="M67.305 23.94c.586 0 1.06-.832 1.06-1.857s-.474-1.856-1.06-1.856c-.586 0-1.06.83-1.06 1.856 0 1.025.474 1.857 1.06 1.857z" fill="#FFB8B8"/><path d="M278.79 109.748c0 15.492-10.465 28.603-24.886 32.991a35.534 35.534 0 01-6.529 1.344c-1.351.151-2.71.227-4.07.227-.506 0-1.009-.01-1.509-.035h-.006a35.967 35.967 0 01-14.595-3.725 35.551 35.551 0 01-8.714-6.106 34.017 34.017 0 01-10.662-24.696c0-14.648 9.355-27.167 22.563-32.198a35.271 35.271 0 014.853-1.465 36.569 36.569 0 0118.396.592c.454.128.904.272 1.348.425.003 0 .006.004.009.004 1.067.358 2.116.77 3.141 1.235.352.154.704.317 1.049.49.69.332 1.366.69 2.03 1.072a35.244 35.244 0 0111.158 10.007 33.949 33.949 0 015.422 11.661 33.635 33.635 0 011.002 8.177z" fill="#0A6EAA"/><path d="M281.591 53.679l4.858-1.475.419-4.167s-11.815-4.347-15.592 3.342c-1.334 2.715-3.015 4.345-4.632 5.318a8.74 8.74 0 01-7.431.624c-8.188-2.913-10.116 5.37-10.116 5.37s.708 1.18 5.755 1.47c2.512.143 4.567 1.984 5.999 3.798 3.064 3.883 9.359 2.76 10.905-1.9l.073-.228c2.415-7.704 13.407-1.57 13.407-1.57l.702-6.978-4.347-3.604z" fill="#2F2E41"/><path d="M248.492 72.537c3.286 0 5.949-2.595 5.949-5.795 0-3.2-2.663-5.795-5.949-5.795s-5.95 2.594-5.95 5.795c0 3.2 2.664 5.795 5.95 5.795z" fill="#2F2E41"/><path d="M245.517 97.648c8.762 0 15.866-6.918 15.866-15.453s-7.104-15.453-15.866-15.453c-8.763 0-15.866 6.918-15.866 15.453s7.103 15.453 15.866 15.453z" fill="#2F2E41"/><path d="M245.021 98.453c6.024 0 10.908-4.757 10.908-10.624 0-5.868-4.884-10.624-10.908-10.624-6.024 0-10.908 4.756-10.908 10.624 0 5.867 4.884 10.624 10.908 10.624z" fill="#A0616A"/><path d="M240.724 95.877l1.983 10.303 9.917-1.288s-1.653-8.049-.662-10.302l-11.238 1.287zm19.502-22.536s-7.933-5.794-11.238-3.54c-3.305 2.253 8.925 9.657 10.247 9.013 1.322-.643.991-5.473.991-5.473z" fill="#A0616A"/><path d="M267.829 117.124c.001.054-.002.107-.007.16v.003c-.204 4.602-8.901 18.686-13.918 25.452a35.452 35.452 0 01-6.529 1.344c-1.351.151-2.71.227-4.071.227-.506 0-1.008-.01-1.508-.035h-.006a297.174 297.174 0 01-14.109-4.865c-1.886-.713-3.443-1.334-4.422-1.776a6.222 6.222 0 01-1.045-.547c-1.653-1.29 1.984-2.256 3.637-2.576 1.653-.323-.66-3.863-.66-3.863-5.951-6.119 1.32-11.268 1.32-11.268s2.974-6.118 2.974-7.728a.583.583 0 01.128-.327c1.245-1.715 11.112-4.822 11.112-4.822v-5.153l1.022-.166 10.054-1.632.822-.135 1.652 2.577 7.275.966s6.279 8.372 6.279 14.164z" fill="#003269"/><path d="M236.427 117.124s-4.356 11.764-8.335 21.297l-.411.989c-.164.384-.325.765-.486 1.14a35.551 35.551 0 01-8.714-6.106c1.787-5.662 4.623-14.657 5.717-18.283 1.206-3.997 3.995-4.73 5.415-4.836.287-.026.577-.024.864.007l5.95 5.792zm24.13-13.198l.991-.966s12.561-13.2 12.23-16.419c0 0-6.61-8.048-14.874-5.795 0 0-3.636-8.692 1.983-8.37 5.619.322 26.443-.966 26.113 8.37-.331 9.336-20.163 37.989-20.163 37.989l-6.28-14.809z" fill="#003269"/><path d="M247.375 144.083a36.662 36.662 0 01-4.071.227c-.506 0-1.008-.01-1.508-.035h-.006a35.967 35.967 0 01-14.595-3.725 35.41 35.41 0 01-4.176-2.442l.239-.474v-.003l.28-.544 4.554 1.334 19.283 5.662z" fill="#fff"/><path d="M255.879 82.936c1.141-3.565-2.573-7.94-8.295-9.772-5.723-1.832-11.287-.427-12.429 3.138-1.141 3.566 2.573 7.941 8.295 9.773 5.723 1.832 11.287.427 12.429-3.139z" fill="#2F2E41"/><path d="M0 183.094c0 1.794.136 3.585.407 5.359a34.946 34.946 0 0015.572 23.975 34.955 34.955 0 0031.826 3.109 30.954 30.954 0 001.884-.818c.967-.449 1.91-.943 2.828-1.483a34.25 34.25 0 003.933-2.676l.007-.003a35.007 35.007 0 0011.318-15.685v-.004a34.952 34.952 0 00-14.065-41.189 29.198 29.198 0 00-.931-.568 19.48 19.48 0 00-.986-.569 34.61 34.61 0 00-14.57-4.276 34.205 34.205 0 00-2.317-.078c-.039 0-.078 0-.117.003A34.906 34.906 0 000 183.094z" fill="#0A6EAA"/><path d="M70.882 195.081s10.194-10.534 12.913-4.078c2.719 6.457-10.195 9.855-10.195 9.855l-2.718-5.777z" fill="#FFB8B8"/><path d="M13.07 210.327c.382.307.77.606 1.164.895.569.421 1.15.822 1.745 1.206a34.955 34.955 0 0031.826 3.109 30.954 30.954 0 001.884-.817l-.895-1.287a10.053 10.053 0 00-2.162-1.542c-6.125-3.325-17.66-3.222-25.465-2.676a133.5 133.5 0 00-4.697.411l-.572.061a92.517 92.517 0 00-2.786.346l-.042.294z" fill="#2F2E41"/><path d="M43.024 163.206c5.394 0 9.766-4.372 9.766-9.765 0-5.393-4.372-9.766-9.766-9.766-5.393 0-9.765 4.373-9.765 9.766s4.372 9.765 9.765 9.765z" fill="#FFB8B8"/><path d="M36.56 156.682l-7.136 7.476-2.039 11.553 18.01 3.059-1.359-10.535s.34-5.097 1.7-6.116c1.359-1.02-9.176-5.437-9.176-5.437z" fill="#FFB8B8"/><path d="M15.49 211.054a18.303 18.303 0 011.814-.481 27.147 27.147 0 014.683-.598 22.851 22.851 0 0110.834 2.097c4.951 2.376 10.827 3.022 14.867 3.145.294.01.579.016.85.02.388-.165.77-.337 1.15-.518a33.161 33.161 0 002.829-1.483l-.013-1.196-.213-23.658v-.004l-.1-11.308-6.455-7.476-1.658-1.868-.789.708-4.69 4.221-6.835-6.332-2.34-2.165-11.225 37.785-1.448 4.874-.853 2.87-.133.44v.003l-.274.924z" fill="#fff"/><path d="M41.57 178.12a34.2 34.2 0 00.427 5.068c1.164 7.43 2.162 19.783 4.635 28.703a41.476 41.476 0 001.057 3.326l.116.32a30.79 30.79 0 001.884-.818 33.146 33.146 0 002.828-1.483 34.25 34.25 0 002.747-1.784l-.103-.407v-.004l-1.61-6.444s1.035-5.394 1.862-11.429v-.003c.95-6.907 1.63-14.644.178-16.095l-11.386-10.417-.004.003c-.354.565-.66 1.16-.911 1.778-.776 1.839-1.758 5.084-1.72 9.686zM6.144 202.874a34.898 34.898 0 008.09 8.348c.569.421 1.15.822 1.745 1.206.44-.611.882-1.231 1.325-1.855a166.827 166.827 0 002.02-2.88c.052-.071.1-.142.149-.213.517-.747 1.028-1.497 1.525-2.243 3.672-5.485 6.717-10.75 7.066-13.895.42-3.765 1.27-9.589 2.133-15.151a1116.85 1116.85 0 011.567-9.868c.543-3.342.918-5.578.918-5.578s-17.808-1.781-20.303-.033h-.004a.582.582 0 00-.28.388c-.272 1.894 1.182 19.496 1.783 26.606v.003c.155 1.823.256 2.955.256 2.955s-1.018 1.36-2.512 3.542c-1.522 2.227-3.542 5.307-5.478 8.668z" fill="#00AAC8"/><path d="M54.57 186.586l1.7 13.253 14.952-6.457 4.758 9.855-24.468 9.175s-4.417-23.447 3.059-25.826z" fill="#00AAC8"/><path d="M52.781 155.228s1.327-1.433 1.193-3.227a10.23 10.23 0 01.193-3.05s-.415-2.936-1.028-4.638c-.614-1.702-.097-2.294-2.733-3.223-2.636-.929-.958-4.29-8.73-1.611a2.131 2.131 0 01-2.313.473c-1.435-.526-2.3 1.446-2.3 1.446s-.894-.735-1.397.029c-.502.763-2.931-.977-3.822 4.577-.89 5.555 2.167 10.508 2.167 10.508s.43-8.888 5.477-9.05c5.048-.161 10.756-2.073 11.464 1.67.37 2.096.984 4.142 1.829 6.096z" fill="#2F2E41"/><path d="M12.527 209.884c.178.149.36.298.543.443.382.307.77.606 1.164.895a34.647 34.647 0 0011.008 5.42c.802-2.055-1.118-4.612-3.254-6.667-.272-.262-.55-.517-.821-.76a36.84 36.84 0 00-1.914-1.577c-1.057-.814-1.823-1.315-1.823-1.315l-.678.494-4.225 3.067z" fill="#FFB8B8"/><path d="M.407 188.453a34.946 34.946 0 0013.827 22.769l1.532-1.092v-.003l.704-.501 2.783-1.988.22-.158 2.136-1.526-.61-.717-2.8-3.294-6.577-7.737-1.567-1.842 3.823-4.655v-.003l3.992-4.858-3.397-21.748a3.612 3.612 0 00-2.094-.388h-.004c-.769.133-1.554.663-1.98 2.085-.773 2.576-7.011 18.229-9.988 25.656z" fill="#00AAC8"/></svg>