<svg width="25" height="25" fill="none" xmlns="http://www.w3.org/2000/svg"><path fill-rule="evenodd" clip-rule="evenodd" d="M12.005.005c-6.628 0-12 5.372-12 12 0 6.627 5.372 12 12 12 6.627 0 12-5.373 12-12 0-6.628-5.373-12-12-12zm-.334 10.169l-.025-.415c-.076-1.077.587-2.06 1.636-2.44.386-.136 1.041-.153 1.47-.035.167.051.486.22.713.373l.41.28.454-.144a4.68 4.68 0 00.739-.288c.142-.077.268-.119.268-.094 0 .144-.31.636-.57.907-.353.381-.252.415.461.161.428-.144.437-.144.353.017-.05.085-.31.381-.588.653-.47.466-.495.516-.495.906 0 .602-.285 1.856-.57 2.543-.53 1.287-1.663 2.618-2.796 3.287-1.595.941-3.718 1.178-5.506.627-.596-.186-1.62-.66-1.62-.745 0-.026.31-.06.688-.068a4.726 4.726 0 002.25-.627l.453-.271-.52-.178c-.74-.255-1.402-.84-1.57-1.39-.05-.178-.034-.186.436-.186l.487-.009-.411-.195c-.487-.245-.932-.66-1.15-1.084-.16-.306-.36-1.077-.302-1.136.017-.025.193.026.394.093.58.212.655.161.32-.195-.63-.644-.823-1.601-.521-2.508l.143-.407.554.551c1.133 1.11 2.467 1.771 3.995 1.966l.42.05z" fill="#fff" opacity=".9"/></svg>