<svg width="369" height="386" fill="none" xmlns="http://www.w3.org/2000/svg"><path d="M267.599 89.2a126.147 126.147 0 10-178.4 178.399l89.2-89.2 89.2-89.2z" fill="#fff"/><mask id="a" fill="#fff"><path d="M279.078 118.339a126.144 126.144 0 00-137.474-27.345 126.144 126.144 0 00-77.873 116.545 126.15 126.15 0 0036.948 89.2l89.199-89.2 89.2-89.2z"/></mask><path d="M279.078 118.339a126.144 126.144 0 00-137.474-27.345 126.144 126.144 0 00-77.873 116.545 126.15 126.15 0 0036.948 89.2l89.199-89.2 89.2-89.2z" stroke="#00AAC8" stroke-width="6" mask="url(#a)"/><path d="M126 158c0-5.523 4.477-10 10-10h172c5.523 0 10 4.477 10 10v70c0 5.523-4.477 10-10 10H136c-5.523 0-10-4.477-10-10v-70z" fill="#003269"/><path d="M222 202.402l-90.718-44.034a3.662 3.662 0 00-3.557.197 3.701 3.701 0 00-1.725 3.131v75.762a11.575 11.575 0 003.366 8.161 11.479 11.479 0 008.127 3.381h169.014c3.048 0 5.971-1.216 8.127-3.381a11.567 11.567 0 003.366-8.161v-74.464c0-.763-.193-1.515-.561-2.183a4.501 4.501 0 00-1.544-1.638 4.473 4.473 0 00-4.341-.24L222 202.402z" fill="#00AAC8"/><path fill="#00AAC8" fill-opacity=".4" d="M86.643 76l.542 24.752-24.752.543-.542-24.752z"/><path fill="#00AAC8" fill-opacity=".4" d="M76.753 94.758l.542 24.752-24.752.542-.542-24.752z"/></svg>