<svg width="694" height="468" fill="none" xmlns="http://www.w3.org/2000/svg"><path opacity=".1" d="M417 44.645c25.912-24.356 59.195-39.68 94.767-43.63 35.572-3.95 71.477 3.69 102.233 21.753-63.141 22.29-132.809 23.11-197 21.877zM111.095 413.659l63.66-110.172a2.022 2.022 0 011.758-1.02 2.03 2.03 0 011.759 1.02l63.659 110.172a2.022 2.022 0 01-1.755 3.066h-18.99a2.04 2.04 0 00-2.031 2.03v23.513a2.033 2.033 0 01-2.026 2.03h-24.778a2.032 2.032 0 01-2.031-2.03v-11.364a2.027 2.027 0 00-2.026-2.024h-23.556a2.03 2.03 0 00-2.032 2.024v11.364a2.03 2.03 0 01-2.031 2.03h-24.772a2.03 2.03 0 01-2.031-2.03v-23.537a2.03 2.03 0 00-2.032-2.03h-18.99a2.036 2.036 0 01-1.754-1.016 2.034 2.034 0 01-.001-2.026zm88.775 12.192a2.02 2.02 0 001.436.613h8.918a2.032 2.032 0 002.032-2.03 2.028 2.028 0 00-2.032-2.03h-8.936a2.034 2.034 0 00-1.877 1.253 2.03 2.03 0 00.441 2.212l.018-.018zm-58.48 0a2.02 2.02 0 001.436.613h8.912a2.032 2.032 0 002.032-2.03 2.028 2.028 0 00-2.032-2.03h-8.948a2.034 2.034 0 00-1.877 1.253 2.03 2.03 0 00.44 2.212l.037-.018zm340.946-9.99l63.66-110.172a2.034 2.034 0 013.517 0l54.987 95.16a167.89 167.89 0 01-23.01 23.739h-8.961a2.032 2.032 0 00-2.032 2.03 2.028 2.028 0 002.032 2.03h3.781a98.449 98.449 0 01-14.731 9.156v-4.692a2.03 2.03 0 00-2.031-2.029h-23.557a2.03 2.03 0 00-2.025 2.029v11.358a2.038 2.038 0 01-2.032 2.03h-24.777a1.993 1.993 0 01-1.615-.816 1.954 1.954 0 01-.411-1.226v-23.519a2.03 2.03 0 00-2.031-2.03h-18.99a2.037 2.037 0 01-1.773-1.009 2.028 2.028 0 01-.001-2.039zm42.074 9.322a2.032 2.032 0 00-1.437-.613h-8.936a2.03 2.03 0 100 4.06h8.943a2.031 2.031 0 001.436-3.465l-.006.018zm39.986-40.77a2.03 2.03 0 002.032-2.03v-15.417a2.028 2.028 0 00-2.032-2.03H531.1a2.033 2.033 0 00-2.026 2.03v15.417a2.03 2.03 0 002.026 2.03h33.296z" fill="#70DDFF"/><path opacity=".2" d="M252.942 216.716h78.777v-17.024a4.076 4.076 0 014.076-4.072h23.133v-18.134a2.564 2.564 0 012.565-2.564h29.799a2.568 2.568 0 012.565 2.564v18.128h27.196a4.073 4.073 0 014.075 4.072v17.024h75.119a.827.827 0 01.823.828v226.005a.83.83 0 01-.823.828h-49.923a.829.829 0 01-.829-.828v-30.405a.836.836 0 00-.829-.828h-21.089a.832.832 0 00-.828.828v30.405a.83.83 0 01-.823.828h-98.663a.832.832 0 01-.828-.828v-30.405a.827.827 0 00-.823-.828h-21.089a.83.83 0 00-.828.828v30.405a.837.837 0 01-.829.828h-49.924a.832.832 0 01-.828-.828V217.544a.832.832 0 01.828-.828zM458.431 401.75a.825.825 0 00.823.821h30.836a.825.825 0 00.828-.821v-10.506a.83.83 0 00-.828-.828h-30.836a.83.83 0 00-.823.828v10.506zm0-27.193a.84.84 0 00.239.586.835.835 0 00.584.242h30.836a.825.825 0 00.767-.51.825.825 0 00.061-.318V364.04a.825.825 0 00-.51-.767.825.825 0 00-.318-.061h-30.836a.832.832 0 00-.584.243.825.825 0 00-.239.585v10.517zm0-27.185a.828.828 0 00.823.827h30.836a.826.826 0 00.828-.827v-10.524c0-.22-.087-.43-.243-.585a.825.825 0 00-.585-.243h-30.836a.83.83 0 00-.823.828v10.524zm0-27.192a.838.838 0 00.239.585.819.819 0 00.584.242h30.836a.825.825 0 00.767-.51.824.824 0 00.061-.317v-10.5a.824.824 0 00-.51-.766.825.825 0 00-.318-.061h-30.836a.814.814 0 00-.584.242.836.836 0 00-.239.585v10.5zm0-27.186a.828.828 0 00.823.828h30.836a.83.83 0 00.828-.828V282.47a.818.818 0 00-.512-.761.816.816 0 00-.316-.061h-30.836a.826.826 0 00-.823.822v10.524zm0-27.186a.822.822 0 00.823.821h30.836a.815.815 0 00.765-.505.821.821 0 00.063-.316v-10.524a.825.825 0 00-.243-.585.825.825 0 00-.585-.243h-30.836a.83.83 0 00-.823.828v10.524zm0-27.192a.834.834 0 00.239.585.819.819 0 00.584.243h30.836a.826.826 0 00.828-.828v-10.499a.825.825 0 00-.51-.767.825.825 0 00-.318-.061h-30.836a.814.814 0 00-.584.243.832.832 0 00-.239.585v10.499zm-73.105 163.127a.814.814 0 00.243.584.823.823 0 00.585.238h30.836a.83.83 0 00.828-.822v-10.499a.837.837 0 00-.828-.828h-30.836a.828.828 0 00-.828.828v10.499zm0-27.192a.825.825 0 00.51.767.825.825 0 00.318.061h30.836a.822.822 0 00.765-.511.819.819 0 00.063-.317V364.04a.822.822 0 00-.511-.765.841.841 0 00-.317-.063h-30.836a.825.825 0 00-.767.51.825.825 0 00-.061.318v10.511zm0-27.186a.829.829 0 00.828.828h30.836a.832.832 0 00.828-.828v-10.517a.832.832 0 00-.828-.828h-30.836a.829.829 0 00-.828.828v10.517zm0-27.192a.825.825 0 00.51.767.825.825 0 00.318.061h30.836a.822.822 0 00.765-.511.819.819 0 00.063-.317V309.68a.818.818 0 00-.242-.585.822.822 0 00-.586-.242h-30.836a.825.825 0 00-.767.51.824.824 0 00-.061.317v10.493zm0-27.186a.829.829 0 00.828.828h30.836a.832.832 0 00.828-.828V282.47a.825.825 0 00-.828-.822h-30.836a.816.816 0 00-.585.239.822.822 0 00-.243.583v10.517zm0-27.185a.813.813 0 00.243.583.825.825 0 00.585.238h30.836a.83.83 0 00.828-.821v-10.518a.832.832 0 00-.828-.828h-30.836a.829.829 0 00-.828.828v10.518zm0-27.192a.82.82 0 00.828.827h30.836a.822.822 0 00.765-.511.818.818 0 00.063-.316v-10.493a.819.819 0 00-.242-.586.822.822 0 00-.586-.242h-30.836a.825.825 0 00-.767.51.825.825 0 00-.061.318v10.493zm-49.955 163.127a.832.832 0 00.243.584.833.833 0 00.586.238h30.835a.828.828 0 00.829-.822v-10.493a.834.834 0 00-.829-.828H336.2a.83.83 0 00-.829.828v10.493zm0-27.192a.812.812 0 00.511.767.825.825 0 00.318.061h30.835a.827.827 0 00.829-.828V364.04a.822.822 0 00-.511-.765.846.846 0 00-.318-.063H336.2a.825.825 0 00-.767.51.808.808 0 00-.062.318v10.505zm0-27.186a.831.831 0 00.829.828h30.835a.833.833 0 00.829-.828v-10.511a.836.836 0 00-.829-.828H336.2a.825.825 0 00-.829.828v10.511zm0-27.192a.812.812 0 00.511.767.825.825 0 00.318.061h30.835a.827.827 0 00.829-.828V309.68a.818.818 0 00-.243-.585.819.819 0 00-.586-.242H336.2a.825.825 0 00-.767.51.807.807 0 00-.062.317v10.487zm0-27.186a.83.83 0 00.829.828h30.835a.833.833 0 00.829-.828V282.47a.83.83 0 00-.829-.822H336.2a.82.82 0 00-.829.822v10.511zm0-27.186a.832.832 0 00.243.584.833.833 0 00.586.238h30.835a.828.828 0 00.829-.822v-10.511a.836.836 0 00-.829-.828H336.2a.825.825 0 00-.829.828v10.511zm0-27.192a.817.817 0 00.829.828h30.835a.827.827 0 00.829-.828v-10.486a.819.819 0 00-.243-.586.819.819 0 00-.586-.242H336.2a.825.825 0 00-.767.51.808.808 0 00-.062.318v10.486zm-73.106 163.128a.83.83 0 00.829.822h30.836a.816.816 0 00.585-.239.822.822 0 00.243-.583v-10.487a.828.828 0 00-.828-.828h-30.842a.837.837 0 00-.829.828l.006 10.487zm0-27.192a.827.827 0 00.829.828h30.836a.825.825 0 00.767-.51.825.825 0 00.061-.318V364.04a.825.825 0 00-.51-.767.825.825 0 00-.318-.061h-30.842a.825.825 0 00-.829.828l.006 10.499zm0-27.186a.837.837 0 00.829.828h30.836a.83.83 0 00.828-.828v-10.505a.826.826 0 00-.828-.828h-30.842a.836.836 0 00-.829.828l.006 10.505zm0-27.192a.831.831 0 00.829.828h30.836a.825.825 0 00.767-.51.825.825 0 00.061-.318V309.68a.824.824 0 00-.51-.766.825.825 0 00-.318-.061h-30.842a.829.829 0 00-.829.827l.006 10.481zm0-27.186a.837.837 0 00.829.828h30.836a.83.83 0 00.828-.828V282.47a.818.818 0 00-.512-.761.816.816 0 00-.316-.061h-30.842a.83.83 0 00-.829.822l.006 10.505zm0-27.186a.822.822 0 00.237.591.812.812 0 00.586.249h30.842a.815.815 0 00.765-.505.821.821 0 00.063-.316v-10.524a.828.828 0 00-.828-.828h-30.842a.837.837 0 00-.829.828l.006 10.505zm0-27.192a.831.831 0 00.829.828h30.836a.825.825 0 00.767-.51.825.825 0 00.061-.318v-10.48a.825.825 0 00-.51-.767.825.825 0 00-.318-.061h-30.842a.829.829 0 00-.829.828l.006 10.48z" fill="#fff"/><path opacity=".1" d="M477.293 155.463a17.745 17.745 0 0110.292 1.117 15.192 15.192 0 0012.417-.031 17.33 17.33 0 0114.534.288 9.061 9.061 0 004.186 1.043c5.892 0 10.796-5.931 11.815-13.756a11.285 11.285 0 01-2.946-3.17c-3.456-5.563-8.808-9.138-14.817-9.138-6.008 0-11.293 3.532-14.73 9.033a11.369 11.369 0 01-9.79 5.373h-.153c-4.738 0-8.801 3.759-10.808 9.241z" fill="#70DDFF"/><path opacity=".1" d="M459.371 130.902l9.525 6.035-5.781-10.505a9.42 9.42 0 015.763-2.055h.153a11.1 11.1 0 001.977-.147l3.216 2.048-1.387-2.514a11.476 11.476 0 005.646-4.293l5.782 3.68-3.64-6.648c3.382-4.054 7.936-6.537 12.945-6.537 6.008 0 11.36 3.569 14.816 9.131a11.078 11.078 0 009.82 5.28h.326c6.634 0 12.011 7.513 12.011 16.785 0 9.273-5.377 16.785-12.011 16.785a8.973 8.973 0 01-4.186-1.049 17.348 17.348 0 00-14.534-.282 15.166 15.166 0 01-12.362 0 17.325 17.325 0 00-14.411.276 9.003 9.003 0 01-4.137 1.025c-6.634 0-12.011-7.519-12.011-16.785a21.297 21.297 0 012.48-10.23zM194.346 267.365a12.478 12.478 0 017.206.779 10.608 10.608 0 008.654 0 12.132 12.132 0 0110.176.203 6.314 6.314 0 002.928.729c4.124 0 7.555-4.151 8.267-9.628a8.022 8.022 0 01-2.062-2.22c-2.418-3.894-6.138-6.396-10.367-6.396-4.228 0-7.911 2.453-10.329 6.323a7.94 7.94 0 01-6.85 3.759h-.11c-3.253-.012-6.095 2.619-7.513 6.451z" fill="#70DDFF"/><path opacity=".1" d="M181.813 250.194l6.666 4.225-4.045-7.359a6.598 6.598 0 014.032-1.435h.105c.462.006.924-.029 1.381-.104l2.264 1.429-.969-1.754a8.095 8.095 0 003.952-2.999l4.057 2.551-2.553-4.642c2.363-2.84 5.524-4.581 9.059-4.581 4.204 0 7.979 2.502 10.373 6.396a7.751 7.751 0 006.856 3.68h.202c4.64 0 8.409 5.255 8.409 11.744 0 6.488-3.769 11.75-8.409 11.75a6.32 6.32 0 01-2.928-.73 12.113 12.113 0 00-10.176-.196 10.674 10.674 0 01-8.654 0 12.118 12.118 0 00-10.084.196 6.354 6.354 0 01-2.897.711c-4.646 0-8.409-5.255-8.409-11.75a14.923 14.923 0 011.768-7.132zm376.73-22.077a12.486 12.486 0 00-7.206.778 10.579 10.579 0 01-8.648 0 12.132 12.132 0 00-10.176.203 6.342 6.342 0 01-2.928.73c-4.124 0-7.561-4.152-8.273-9.629a7.908 7.908 0 002.062-2.22c2.406-3.906 6.168-6.42 10.385-6.42s7.905 2.453 10.324 6.322a7.974 7.974 0 006.862 3.772h.104c3.265 0 6.113 2.631 7.494 6.464z" fill="#70DDFF"/><path opacity=".1" d="M571.113 210.945l-6.666 4.207 4.051-7.359a6.61 6.61 0 00-4.032-1.435h-.111a8.092 8.092 0 01-1.381-.104l-2.258 1.429.969-1.754a8.105 8.105 0 01-3.958-2.999l-4.045 2.563 2.559-4.642c-2.369-2.839-5.554-4.581-9.065-4.581-4.204 0-7.979 2.502-10.373 6.396a7.736 7.736 0 01-6.855 3.68h-.221c-4.647 0-8.409 5.255-8.409 11.744 0 6.488 3.762 11.75 8.409 11.75a6.354 6.354 0 002.927-.73 12.117 12.117 0 0110.177-.196 10.66 10.66 0 008.648 0 12.132 12.132 0 0110.09.196 6.335 6.335 0 002.897.711c4.64 0 8.408-5.255 8.408-11.75a14.922 14.922 0 00-1.761-7.126z" fill="#70DDFF"/><path d="M570.781 447.131c-8.31 5.274-20.284-.061-28.65 5.133-2.161 1.337-3.904 3.305-6.138 4.52-2.682 1.465-5.837 1.729-8.887 1.839-25.545.988-51.52-6.132-76.426-.38-6.967 1.607-13.779 4.22-20.918 4.6-12.33.668-24.145-5.342-36.488-5.673-18.72-.503-37.114 12.014-55.178 7.077-5.941-1.625-11.391-5.09-17.523-5.673-6.831-.613-13.398 2.361-20.039 4.097-23.55 6.133-48.076-3.802-72.425-4.544-15.878-.485-31.602 2.974-47.468 3.771-11.281.565-22.587-.227-33.856-1.012-4.296-.3-8.795-.668-12.392-3.023-3.596-2.355-5.806-7.414-3.584-11.094l439.972.362z" fill="#3F3D56"/><path opacity=".1" d="M571 447.408c-9.293 5.944-22.684-.069-32.039 5.785-2.416 1.507-4.365 3.725-6.863 5.094-3 1.652-6.528 1.949-9.939 2.073-28.566 1.113-57.612-6.911-85.464-.428-7.79 1.811-15.409 4.755-23.391 5.183-13.789.754-27.001-6.02-40.803-6.393-20.934-.567-41.504 13.54-61.703 7.976-6.644-1.831-12.739-5.736-19.596-6.393-7.639-.691-14.983 2.661-22.409 4.617-26.335 6.912-53.762-4.285-80.989-5.122-17.756-.546-35.341 3.353-53.083 4.251-12.615.636-25.258-.256-37.859-1.14-4.804-.339-9.835-.754-13.857-3.408-4.022-2.654-6.493-8.356-4.009-12.503l492.004.408z" fill="#000"/><path d="M571 444.408c-9.293 5.944-22.684-.069-32.039 5.785-2.416 1.507-4.365 3.725-6.863 5.094-3 1.652-6.528 1.949-9.939 2.073-28.566 1.113-57.612-6.911-85.464-.428-7.79 1.811-15.409 4.755-23.391 5.183-13.789.754-27.001-6.02-40.803-6.393-20.934-.567-41.504 13.54-61.703 7.976-6.644-1.831-12.739-5.736-19.596-6.393-7.639-.691-14.983 2.661-22.409 4.617-26.335 6.912-53.762-4.285-80.989-5.122-17.756-.546-35.341 3.353-53.083 4.251-12.615.636-25.258-.256-37.859-1.14-4.804-.339-9.835-.754-13.857-3.408-4.022-2.654-6.493-8.356-4.009-12.503l492.004.408z" fill="#3F3D56"/><g opacity=".1"><path opacity=".1" d="M629.906 368.511a14.984 14.984 0 001.982 7.592 15.53 15.53 0 000 15.184 13.952 13.952 0 00-1.497 3.68 278.716 278.716 0 0018.468-27.597 14.705 14.705 0 00-1.94-6.476 14.982 14.982 0 001.983-7.592 15.615 15.615 0 00-.896-5.28 13.07 13.07 0 00-1.087-2.312c-1.731-2.938-4.456-4.833-7.512-4.833-3.057 0-5.788 1.895-7.519 4.833a13.68 13.68 0 00-1.062 2.238 15.705 15.705 0 00-.92 5.354 14.981 14.981 0 001.982 7.592 14.98 14.98 0 00-1.982 7.617z" fill="#3F3D56"/><path opacity=".1" d="M639.407 350.573c-5.244 0-9.495-5.563-9.495-12.425 0-6.862 4.251-12.425 9.495-12.425 5.244 0 9.495 5.563 9.495 12.425 0 6.862-4.251 12.425-9.495 12.425z" fill="#3F3D56"/><path opacity=".1" d="M639.407 335.388c-5.244 0-9.495-5.562-9.495-12.424 0-6.862 4.251-12.425 9.495-12.425 5.244 0 9.495 5.563 9.495 12.425 0 6.862-4.251 12.424-9.495 12.424z" fill="#3F3D56"/><path opacity=".1" d="M594.111 247.128a45.224 45.224 0 009.74 28.106 45.43 45.43 0 006.294 62.739 45.506 45.506 0 0020.712 9.975c1.092.221 2.203.393 3.327.527 3.464.415 6.965.433 10.434.056a41.435 41.435 0 003.418-.509 45.013 45.013 0 0014.117-5.158 452.715 452.715 0 0021.365-51.385 45.225 45.225 0 00-8.157-16.221 45.455 45.455 0 007.365-42.689l-34.542 11.584 32.394-16.815a45.603 45.603 0 00-5.186-8.292 45.446 45.446 0 008.257-16.592 45.43 45.43 0 00-5.581-35.853 45.501 45.501 0 00-30.064-20.352 45.534 45.534 0 00-35.394 8.113 45.48 45.48 0 00-12.362 13.814l33.395 24.531-36.212-18.766a45.487 45.487 0 00.872 36.017l27.006-.202-24.956 4.096a45.54 45.54 0 003.541 5.201 45.23 45.23 0 00-9.783 28.075z" fill="#70DDFF"/><path opacity=".1" d="M594.111 303.364a45.442 45.442 0 0010.36 28.876 45.52 45.52 0 0029.682 16.26c3.465.414 6.965.432 10.434.055a41.037 41.037 0 003.419-.509 45.015 45.015 0 0014.116-5.157 452.584 452.584 0 0021.396-51.41 45.225 45.225 0 00-8.157-16.221 45.254 45.254 0 009.741-28.13c0-5.103-87.352 20.372-81.251 28.106a45.217 45.217 0 00-9.74 28.13z" fill="#000"/></g><g opacity=".1"><path opacity=".1" d="M82.088 356.687a482.088 482.088 0 005.635 16.822c.542-1.623.816-3.324.81-5.035 0-5.476-2.7-10.125-6.445-11.787z" fill="#3F3D56"/><path opacity=".1" d="M63 258.835c0 10.763 2.173 27.768 6.138 47.221a518.309 518.309 0 0012.98 50.631 482.087 482.087 0 005.635 16.822 337.433 337.433 0 007.077 18.159 45.672 45.672 0 0017.741-11.801 45.607 45.607 0 002.458-59.197 45.662 45.662 0 009.094-20.46 45.632 45.632 0 00-1.729-22.321l-34.543 11.609 32.395-16.852a45.745 45.745 0 00-5.186-8.31 45.593 45.593 0 00-1.209-57.791 45.653 45.653 0 00-16.664-12.274 78.228 78.228 0 00-29.921 39.206l5.984 4.452-6.42-3.33a77.78 77.78 0 00-3.738 20.428h1.805l-1.842.3C63 256.486 63 257.651 63 258.835z" fill="#70DDFF"/><path opacity=".1" d="M69.107 306.056a518.309 518.309 0 0012.981 50.631 482.088 482.088 0 005.635 16.822 337.433 337.433 0 007.076 18.159 45.667 45.667 0 0028.192-30.36 45.608 45.608 0 00-7.993-40.638 45.422 45.422 0 009.735-28.161c0-3.066-31.744 4.968-55.626 13.547z" fill="#000"/></g><path opacity=".1" d="M.077 239.622v-.311a84.019 84.019 0 014.04-22.073c.133-.404.266-.815.406-1.212a84.536 84.536 0 0132.345-42.363 84.213 84.213 0 0157.691-13.95 84.165 84.165 0 0152.554 27.561 118.705 118.705 0 016.708-23.504 378.425 378.425 0 0066.767 2.485 269.523 269.523 0 01-42.331 15.353l.518 1.922a272.2 272.2 0 0047.32-17.692l4.584-2.22-5.082.331a378.602 378.602 0 01-70.993-2.034 119.517 119.517 0 0120.913-33.185c38.19-3.843 76.082-11.848 111.466-27.718l-.816-1.81c-34.442 15.46-71.352 23.405-108.613 27.315a119.267 119.267 0 0145.519-30.348 119.412 119.412 0 01105.944 11.246 119.188 119.188 0 0138.115 39.226 163.504 163.504 0 0140.632-92.04 382.965 382.965 0 0062.879 19.024 380.755 380.755 0 0098.289 7.812 269.593 269.593 0 01-42.33 15.354l.517 1.921a272.057 272.057 0 0047.307-17.692l4.585-2.22-5.083.331a378.105 378.105 0 01-164.784-26.074 171.086 171.086 0 016.078-6.309c65.3 1.326 136.42.663 200.805-22.748a164.11 164.11 0 0157.198 59.728A163.86 163.86 0 01694 163.73c0 30.786-8.473 73.122-23.222 115.597a490.85 490.85 0 01-23.163 55.662c-4.505 9.144-9.288 18.03-14.311 26.539a301.238 301.238 0 01-19.964 29.818 218.473 218.473 0 01-3.948 5.036 182.034 182.034 0 01-24.868 25.757 130.71 130.71 0 01-5.566 4.393 106.014 106.014 0 01-15.924 9.94c-9.733 4.87-19.779 7.726-30.056 8.137-.823.033-1.652.053-2.475.053V445H84.639v-.338h-.332a22.597 22.597 0 01-7.537-1.325c-15.765-5.586-30.282-28.017-42.35-56.364a381.948 381.948 0 01-7.65-19.621 478.784 478.784 0 01-6.091-18.176 559.898 559.898 0 01-14.033-54.707C2.393 273.45.01 255.075.01 243.446c-.02-1.299-.02-2.558.066-3.824z" fill="#fff"/><path d="M369.061 153.66c-12.118 0-21.942-9.815-21.942-21.924 0-12.108 9.824-21.924 21.942-21.924s21.942 9.816 21.942 21.924c0 12.109-9.824 21.924-21.942 21.924z" fill="#3F3D56"/><path d="M381.79 302.285c-2.264 15.877.498 32.067 4.8 47.515.804 2.876 1.67 5.777 3.173 8.359 1.504 2.582 3.597 4.802 5.365 7.23 3.682 5.066 5.843 11.039 7.862 16.951a477.713 477.713 0 0114.006 49.87 3.41 3.41 0 010 2.128c-.534 1.227-2.154 1.386-3.486 1.38l-17.222-.092c-.614-1.177.521-2.453 1.227-3.581 2.455-3.815.098-8.77-2.068-12.762a137.186 137.186 0 01-12.141-30.663c-1.178-4.496-2.135-9.089-4.05-13.327-2.314-5.139-5.942-9.56-8.888-14.368-3.425-5.587-5.923-11.652-8.402-17.742-3.462-8.451-6.954-17.006-8.317-26.033-1.283-8.475-.65-17.11.184-25.64a1.61 1.61 0 01.468-1.401 1.623 1.623 0 011.41-.439l23.109-1.19c4.763-.245 5.892-1.288 5.168 3.385-.504 3.49-1.694 6.887-2.198 10.42z" fill="#0A6EAA"/><path d="M377.249 263.686c4.695 6.746 9.617 14.51 8.058 22.586-1.184 6.133-5.861 10.886-10.274 15.332-17.64 17.699-34.985 37.36-40.988 61.614-1.546 6.268-2.295 12.701-3.627 19.011-2.418 11.468-6.751 22.434-11.048 33.331l-11.514 29.038a17.41 17.41 0 01-16.633-11.039c1.51-.116 3.48-1.576 4.364-2.802 4.91-6.789 5.917-15.522 7.175-23.801 1.393-9.15 3.253-18.226 5.119-27.296l8.249-40.132c.951-4.63 1.902-9.266 3.142-13.829 4.8-17.674 13.896-34.343 15.301-52.618.209-2.686.338-5.636 2.161-7.629 1.915-2.103 5.057-2.453 7.899-2.619 11.496-.736 21.414-1.858 32.616.853z" fill="#0A6EAA"/><path d="M408.262 431.799a18.334 18.334 0 013.818-.49 7.926 7.926 0 016.236 3.403 15.48 15.48 0 011.675 3.68l1.664 4.771c.491 1.398.969 3.011.239 4.293a4.553 4.553 0 01-2.234 1.723c-4.026 1.791-8.593 1.889-12.951 2.318-4.259.417-8.482 1.166-12.686 1.951-1.449.276-2.891.551-4.358.699-3.277.331-6.579 0-9.857-.295l-3.382-.325a12.186 12.186 0 01-3.326-.613 4.201 4.201 0 01-2.456-2.202c-.834-2.066.958-4.513 3.149-4.943.89-.171 1.841-.091 2.713-.208a12.84 12.84 0 002.971-.889c4.296-1.699 8.697-3.416 12.502-6.09 1.056-.742 2.16-1.778 2.044-3.066a6.293 6.293 0 00-.546-1.589 5.797 5.797 0 01-.05-4.102c.209-.565.614-1.159 1.185-1.227 1.62-.196 1.424 2.165 1.663 3.066.326 1.227.915 1.337 2.069 1.227 3.314-.301 6.628-.466 9.918-1.092zm-96.895 16.479a10.815 10.815 0 01-2.345 6.592 5.119 5.119 0 01-1.669 1.343 6.7 6.7 0 01-3.069.485 24.609 24.609 0 01-8.525-1.723 24.192 24.192 0 00-2.946-1.11 32.982 32.982 0 00-3.83-.552c-5.076-.73-9.532-3.723-14.436-5.238a30.308 30.308 0 01-4.296-1.41c-1.94-.914-3.511-2.453-5.052-3.943a12.132 12.132 0 01-2.32-2.779c-.902-1.674-.957-3.679-.994-5.574a1.593 1.593 0 01.147-.865c.14-.193.332-.344.553-.435 1.491-.736 3.259-.368 4.91-.08 5.966 1.061 12.073.865 18.13.669a2.638 2.638 0 002.787-1.589l2.302-3.679c.656-1.055 1.7-2.263 2.89-1.901.952.288 1.338 1.453 1.302 2.453-.037.999-.344 1.993-.154 2.968a4.05 4.05 0 001.964 2.551c.967.525 1.999.921 3.069 1.177 3.388.957 7.328 2.043 9.949 4.532 1.927 1.767 1.749 5.722 1.633 8.108z" fill="#F2F2F2"/><path d="M312.558 204.972a14.22 14.22 0 01-3.352-3.643 14.85 14.85 0 01-1.43-5.035l-.963-6.083c-.534-3.355-1.16-6.905-3.401-9.463-2.24-2.557-6.702-3.471-8.979-.944-.994 1.098-1.387 2.606-1.633 4.072a29.633 29.633 0 007.255 24.53c2.756 3.018 6.138 5.415 9.053 8.267 2.541 2.453 4.745 5.268 7.089 7.936a97.82 97.82 0 0019.315 16.864c-.086-4.562-.669-9.456 0-13.988.498-3.275 1.842-5.041-1.331-7.181-7.366-5.005-14.798-9.53-21.623-15.332zm61.892-44.878c.239 3.262 1.596 6.598 4.296 8.481a336.13 336.13 0 00-22.629 8.843c1.436-1.38 1.872-3.495 1.939-5.482.19-5.195-1.608-10.303-4.235-14.78a3.58 3.58 0 01-.693-1.95c.085-1.447 1.804-2.116 3.216-2.453a79.074 79.074 0 0114.681-2.128c2.117-.068 4.628-.736 4.149 1.956-.454 2.514-.914 4.968-.724 7.513z" fill="#FBBEBE"/><path d="M359.658 161.841c-9.908 0-17.94-8.025-17.94-17.925s8.032-17.926 17.94-17.926c9.908 0 17.94 8.026 17.94 17.926 0 9.9-8.032 17.925-17.94 17.925z" fill="#FBBEBE"/><path d="M341.896 192.333a21.671 21.671 0 012.277-3.815c3.253-4.667 6.592-9.327 10.765-13.191a67.063 67.063 0 0110.219-7.5 23.181 23.181 0 016.396-3.066c1.351-.3 2.724-.486 4.106-.559l4.658-.38a3.835 3.835 0 011.228.037c1.264.319 1.841 1.889 1.571 3.158-.27 1.27-1.227 2.3-2.074 3.263-.209 9.499 4.02 18.87 4.591 28.357 1 16.589-9.133 32.019-9.943 48.62a5.235 5.235 0 00.233 2.226c.135.343.337.656.491.993.479 1.043.46 2.226.546 3.373a17.136 17.136 0 005.051 10.806 7.52 7.52 0 01-2.847 2.171c-1.958.852-4.297.926-6.378 1.521-5.425 1.582-10.986 3.176-16.626 2.839a14.64 14.64 0 01-1.283-4.826c-.798-.497-1.719.564-1.842 1.496-.122.932.056 2.018-.613 2.692-.669.675-1.516.571-2.333.466-3.443-.435-6.751-1.594-10.127-2.373-3.375-.779-6.984-1.153-10.268-.037-.663-.84-.381-2.085.16-3.005.54-.92 1.307-1.729 1.614-2.753.154-.59.22-1.2.196-1.809 0-5.244-1.08-10.542-.055-15.688.301-1.508.779-2.98 1.086-4.495.614-2.937.522-5.967.442-8.966-.08-2.999.283-6.243.344-9.285a29.72 29.72 0 01.245-3.759c.209-1.306.614-2.582.725-3.9.331-3.349-1.019-6.673-.817-10.033.338-5.103 6.273-7.875 8.262-12.578z" fill="#fff"/><path d="M382.386 189.929c4.345 11.517 6.469 23.733 8.593 35.863l4.91 28.493c1.393 8.052 2.792 16.153 2.737 24.321 0 2.294-.147 4.631.454 6.845.786 2.906 2.738 5.329 4.217 7.972a26.218 26.218 0 012.823 17.742c-.503 2.545-1.878 5.433-4.462 5.727-2.124.234-3.959-1.453-5.199-3.195-2.847-3.992-4.259-8.812-5.523-13.559a306.34 306.34 0 01-8.513-47.276 45.932 45.932 0 00-.854-6.01 42.616 42.616 0 00-2.074-5.986c-1.878-4.652-3.758-9.305-5.641-13.958-4.339-10.75-8.703-21.55-14.662-31.497 5.892-1.692 12.023-3.679 17.915-5.353 1.701-.503 3.523-.203 5.279-.129z" fill="#FBBEBE"/><path d="M372.173 198.68c4.124-.889 8.39-.613 12.6-.718a2.714 2.714 0 001.694-.441c.854-.73.491-2.097.062-3.134l-2.038-4.906a7.132 7.132 0 00-1.633-2.711c-1.037-.919-2.498-1.146-3.872-1.312-4.475-.515-9.078-.687-13.417.521-4.34 1.208-8.421 3.956-10.361 8.022-.81 1.692-1.184 3.827-.11 5.366 1.595 2.287 5.174 4.845 7.844 3.594 3.197-1.515 5.646-3.521 9.231-4.281z" fill="#DFEAF1"/><path d="M350.243 116.074a18.13 18.13 0 0110.004 2.882 21.956 21.956 0 0121.543-5.041 12.536 12.536 0 0115.336-10.019 12.529 12.529 0 018.968 15.965 12.54 12.54 0 01-9.819 8.551 21.908 21.908 0 01-7.303 23.243 21.96 21.96 0 01-24.286 2.152 21.94 21.94 0 01-10.527-13.074 19.7 19.7 0 01-3.935.399c-8.654 0-15.675-5.612-15.675-12.529 0-6.918 7.052-12.529 15.694-12.529z" fill="#3F3D56"/><path opacity=".1" d="M347.119 134.864a19.05 19.05 0 003.934-.399 21.815 21.815 0 002.872 6.311 19.777 19.777 0 01-3.682.356c-8.09 0-14.731-4.907-15.584-11.186 2.879 2.992 7.39 4.918 12.46 4.918zm25.078 15.663a21.987 21.987 0 0017.643-8.912 21.937 21.937 0 003.336-19.47 12.542 12.542 0 007.431-4.284 12.523 12.523 0 002.733-10.299 12.522 12.522 0 01-1.031 18.014 12.544 12.544 0 01-6.003 2.836 21.91 21.91 0 01-1.601 16.652 21.942 21.942 0 01-12.889 10.676 21.959 21.959 0 01-16.674-1.515 21.925 21.925 0 01-10.75-12.824 21.893 21.893 0 0017.805 9.126z" fill="#000"/><path d="M292.155 187.491a.207.207 0 01.046-.289.207.207 0 01.289.05l1.732 2.426a.206.206 0 01-.046.289.206.206 0 01-.288-.05l-1.733-2.426zm9.7-10.303a.117.117 0 01.19-.135l.513.719a.116.116 0 01-.027.162.117.117 0 01-.163-.027l-.513-.719zm1.192 1.693a.128.128 0 01.03-.179.128.128 0 01.18.03l.98 1.373a.127.127 0 01-.03.179.129.129 0 01-.18-.03l-.98-1.373zm1.523 2.13a.122.122 0 11.199-.142l.999 1.397a.123.123 0 01-.2.143l-.998-1.398z" fill="#3A3768"/><path d="M289.18 182.283l8.714-6.212a1.547 1.547 0 012.157.36l14.492 20.293a1.545 1.545 0 01-.361 2.155l-8.713 6.212a1.548 1.548 0 01-2.158-.36l-14.491-20.293a1.543 1.543 0 01.36-2.155z" fill="#3A3768"/><path opacity=".1" d="M289.18 182.283l8.714-6.212a1.547 1.547 0 012.157.36l14.492 20.293a1.545 1.545 0 01-.361 2.155l-8.713 6.212a1.548 1.548 0 01-2.158-.36l-14.491-20.293a1.543 1.543 0 01.36-2.155z" fill="#000"/><path d="M289.749 181.14l8.713-6.213a1.548 1.548 0 012.158.361l14.492 20.292c.496.695.334 1.66-.361 2.156l-8.713 6.212a1.548 1.548 0 01-2.158-.36l-14.492-20.293a1.544 1.544 0 01.361-2.155z" fill="#3A3768"/><path d="M290.536 181.509l1.282-.92.111.153a.897.897 0 001.227.215l4.1-2.926a.897.897 0 00.209-1.257l-.11-.153 1.227-.859a1.099 1.099 0 011.217-.041c.122.076.228.176.311.293l14.166 19.839a1.096 1.096 0 01-.252 1.527l-8.064 5.746a1.092 1.092 0 01-1.529-.257l-14.165-19.833a1.082 1.082 0 01-.028-1.219c.078-.121.179-.226.298-.308z" fill="#70DDFF"/><path d="M294.27 178.952l1.249-.891a.197.197 0 01.228.32l-1.249.89a.197.197 0 01-.274-.045.197.197 0 01.046-.274zm-.432.809a.221.221 0 110-.442.221.221 0 010 .442z" fill="#E6E8EC"/><path d="M299.55 153.532l.322.73a73.005 73.005 0 014.478-1.802l-.273-.751a72.716 72.716 0 00-4.527 1.823zm-8.633 4.543l.424.677a66.959 66.959 0 014.187-2.389l-.374-.709a71.207 71.207 0 00-4.237 2.421zm-7.923 5.682l.511.615a71.273 71.273 0 013.818-2.945l-.466-.648a70.826 70.826 0 00-3.863 2.978zm-7.058 6.705l.588.54a72.43 72.43 0 013.376-3.434l-.551-.578a69.86 69.86 0 00-3.413 3.472zm-6.077 7.614l.659.453a70.524 70.524 0 012.875-3.868l-.627-.494a70.278 70.278 0 00-2.907 3.909zm-4.983 8.37l.713.359a69.924 69.924 0 012.322-4.222l-.69-.409a69.87 69.87 0 00-2.345 4.272zm-3.8 8.966l.755.262a69.446 69.446 0 011.725-4.498l-.736-.313a72.326 72.326 0 00-1.744 4.549zm-2.211 7.826l.874-.234c.205-.914.432-1.826.674-2.725l-.772-.206c-.282 1.045-.54 2.1-.776 3.165zm22.534-77.848l.468 1.059a107.153 107.153 0 016.502-2.616l-.397-1.09a105.677 105.677 0 00-6.573 2.647zm-12.534 6.596l.614.984a97.71 97.71 0 016.079-3.47l-.542-1.029a103.467 103.467 0 00-6.151 3.515zm-11.505 8.251l.741.892a104.8 104.8 0 015.544-4.276l-.676-.941a102.369 102.369 0 00-5.609 4.325zm-10.249 9.736l.853.784a104.87 104.87 0 014.904-4.987l-.801-.84a101.618 101.618 0 00-4.956 5.043zm-8.823 11.054l.956.658a103.835 103.835 0 014.174-5.616l-.909-.717a101.087 101.087 0 00-4.221 5.675zm-7.235 12.154l1.034.522a102.015 102.015 0 013.371-6.132l-1.001-.593a101.582 101.582 0 00-3.404 6.203zm-5.518 13.019l1.096.38a100.28 100.28 0 012.505-6.531l-1.069-.455a104.323 104.323 0 00-2.532 6.606zm-3.21 11.363l1.269-.339a95.99 95.99 0 01.978-3.957l-1.121-.3c-.409 1.518-.784 3.05-1.126 4.596zm39.92-111.832l.696 1.578a159.025 159.025 0 019.677-3.895l-.591-1.621a157.07 157.07 0 00-9.782 3.938zm-18.656 9.818l.914 1.464a144.978 144.978 0 019.049-5.164l-.808-1.531a154.025 154.025 0 00-9.155 5.23zm-17.124 12.28l1.104 1.328a155.69 155.69 0 018.251-6.364l-1.007-1.4a152.982 152.982 0 00-8.348 6.436zm-15.254 14.491l1.271 1.166a156.22 156.22 0 017.297-7.421l-1.192-1.25a152.238 152.238 0 00-7.376 7.505zm-13.131 16.453l1.422.979a154.128 154.128 0 016.213-8.358l-1.353-1.067a150.063 150.063 0 00-6.282 8.446zm-10.769 18.089l1.539.777c1.561-3.09 3.253-6.16 5.018-9.126l-1.49-.883a151.513 151.513 0 00-5.067 9.232zm-8.213 19.378l1.631.565c1.124-3.268 2.38-6.54 3.729-9.72l-1.591-.677a155.841 155.841 0 00-3.769 9.832zm-4.778 16.912l1.889-.506c.443-1.975.934-3.947 1.456-5.888l-1.669-.447a156.15 156.15 0 00-1.676 6.841z" fill="#fff"/><path d="M503.352 242.609l36.559 19.568-.422.788-36.559-19.567.422-.789z" fill="#3F3D56"/><path d="M530.535 373.456s0 40.472 9.289 51.088c0 0 1.99 5.308 2.653 7.298a28.003 28.003 0 001.327 3.317v2.654s17.914-1.99 19.905-6.635l-3.318-3.98s-.663-.664 0-2.654c.664-1.991-1.327-1.991-1.327-1.991l-4.644-10.615.664-43.79-3.318-60.376-28.529-1.327 7.298 67.011z" fill="#0A6EAA"/><path d="M545.131 433.832s-4.644 13.933 0 14.597c4.645.663 45.117 1.327 44.453-3.981-.663-5.308-13.933-4.644-13.933-4.644l-13.933-8.626-16.587 2.654z" fill="#2F2E41"/><path d="M503.996 307.772s-1.327 8.625 3.981 17.914c5.307 9.288 1.99 40.472 1.99 40.472l-47.107 41.135s9.289 15.924 12.606 15.26c3.318-.663 55.732-43.126 55.732-43.126l20.568-69.001-47.77-2.654z" fill="#0A6EAA"/><path d="M463.508 405.535s-14.255 3.537-12.329 7.814c1.926 4.278 23.032 38.818 27.16 35.416 4.128-3.402-3.536-14.255-3.536-14.255l-.174-16.386-11.121-12.589z" fill="#2F2E41"/><path d="M514.611 184.366a15.18 15.18 0 003.402 9.597 15.228 15.228 0 0014.811 5.372 14.795 14.795 0 003.921-1.349 15.259 15.259 0 10-17.664-24.411 15.262 15.262 0 00-4.47 10.791z" fill="#DEB6BC"/><path d="M517.865 189.749l.675 19.637 12.84 5.073s1.259-20.106 3.036-21.221c1.778-1.115-16.551-3.489-16.551-3.489z" fill="#DEB6BC"/><path d="M534.516 216.875s-17.914-17.913-22.559-17.25c-4.644.663-4.644 2.654-4.644 3.981s1.327 1.99 0 2.654c-1.327.663-2.654 0-2.654 1.99 0 1.991-11.942 21.895-7.961 43.79 3.98 21.894 8.625 32.51 6.634 44.453-1.99 11.942-.663 14.596-.663 14.596s49.761 3.981 50.424-.663c.664-4.645-1.99-1.991 1.327-5.308 3.317-3.318 1.99-3.318 1.99-5.308 0-1.99-14.596-82.935-21.894-82.935z" fill="#003269"/><path d="M525.227 307.108s7.962 19.241 13.933 14.597c5.971-4.645-2.654-20.568-2.654-20.568l-11.279 5.971z" fill="#fff"/><path d="M505.986 218.202s-15.588 1.785-9.784 30.417c5.803 28.633 28.362 61.807 28.362 61.807l15.26-7.299-19.905-39.145 4.645-24.548s2.653-23.222-18.578-21.232z" fill="#003269"/><path opacity=".2" d="M519.587 264.314l21.895 36.491-1.99 1.991-19.905-38.482zm-11.589 17.005l17.561 28.775h-5.972l-11.589-28.775zm39.668 52.292l.882.336-17.46 45.777-.882-.336 17.46-45.777z" fill="#000"/><path d="M534.422 220.518a.943.943 0 11-.002-1.886.943.943 0 01.002 1.886z" fill="#fff"/><path d="M542.444 246.002a.47.47 0 01-.45-.333l-8.023-25.955a.455.455 0 01-.019-.183.458.458 0 01.168-.32.465.465 0 01.345-.107.475.475 0 01.407.331l8.023 25.956a.46.46 0 01.014.218.461.461 0 01-.252.342.477.477 0 01-.213.051zm-9.512-49.948l3.813 3.628c3.928-1.977 7.721-7.302 8.792-11.667l-5.004-2.097c-.326 4.452-3.486 7.411-7.601 10.136z" fill="#fff"/><path d="M531.981 187.819c.015 0 .03-.001.045-.004l8.868-1.266a.32.32 0 00.263-.235.322.322 0 00-.117-.332.31.31 0 00-.235-.061l-8.868 1.267a.32.32 0 00-.272.336.32.32 0 00.316.295zm1.267 8.235a.322.322 0 00.274-.157.312.312 0 00.002-.315l-2.938-5.231a.322.322 0 00-.191-.151.32.32 0 00-.4.344.306.306 0 00.039.117l2.938 5.231a.32.32 0 00.276.162z" fill="#fff"/><path d="M522.965 193.535c1.235-.654 2.67-.788 4.007-1.194 4.784-1.453 7.989-6.861 6.966-11.755a5.987 5.987 0 01-.251-1.937c.178-1.449 1.661-2.384 3.084-2.717 1.422-.332 2.935-.283 4.294-.817 2.099-.825 3.493-2.982 3.795-5.216.302-2.235-.361-4.514-1.439-6.494l-.514 1.478a5.482 5.482 0 01-1.678-2.51 3.454 3.454 0 00-2.635 2.118c-.825.487-.943-1.51-1.854-1.805-.381-.123-.774.111-1.137.281-1.835.856-3.967.124-5.936-.351a22.354 22.354 0 00-10.374-.012c-2.266.541-4.509 1.482-6.13 3.155-1.332 1.373-2.162 3.15-2.868 4.928-1.74 4.377-2.889 9.113-2.314 13.788a19.513 19.513 0 004.599 10.34c1.313 1.513 5.597 6.791 7.947 5.891 2.951-1.13-1.04-5.332 2.438-7.171z" fill="#2F2E41"/></svg>