<svg width="817" height="591" viewBox="0 0 817 591" fill="none" xmlns="http://www.w3.org/2000/svg">
<path d="M716.703 287.872H709.43V575.655H716.703V287.872Z" fill="#003269"/>
<path d="M783.82 324.546C784.283 425.177 713.611 507.083 713.611 507.083C713.611 507.083 642.188 425.833 641.725 325.202C641.262 224.572 711.935 142.666 711.935 142.666C711.935 142.666 783.357 223.916 783.82 324.546Z" fill="#003269"/>
<path d="M571.288 423.278H567.547V571.292H571.288V423.278Z" fill="#003269"/>
<path d="M606.084 444.545C606.322 496.302 569.974 538.428 569.974 538.428C569.974 538.428 533.239 496.64 533.001 444.883C532.763 393.126 569.111 351 569.111 351C569.111 351 605.846 392.789 606.084 444.545Z" fill="#003269"/>
<path d="M645.015 591C700.984 591 746.357 584.033 746.357 575.438C746.357 566.843 700.984 559.876 645.015 559.876C589.045 559.876 543.673 566.843 543.673 575.438C543.673 584.033 589.045 591 645.015 591Z" fill="#003269"/>
<path d="M653.373 212.742C644.787 198.208 627.801 197.531 627.801 197.531C627.801 197.531 611.248 195.411 600.63 217.545C590.733 238.177 577.074 258.097 598.431 262.927L602.289 250.898L604.678 263.822C607.719 264.041 610.769 264.094 613.816 263.979C636.688 263.239 658.47 264.195 657.768 255.973C656.836 245.043 661.634 226.726 653.373 212.742Z" fill="#2F2E41"/>
<path d="M622.453 240.112C622.453 240.112 633.549 255.674 626.891 268.272C620.234 280.87 642.426 294.209 642.426 294.209L658.699 258.638C658.699 258.638 639.467 246.04 644.645 234.184L622.453 240.112Z" fill="#FBBEBE"/>
<path d="M629.85 246.781C640.472 246.781 649.083 238.155 649.083 227.514C649.083 216.873 640.472 208.247 629.85 208.247C619.228 208.247 610.617 216.873 610.617 227.514C610.617 238.155 619.228 246.781 629.85 246.781Z" fill="#FBBEBE"/>
<path d="M563.29 249.787L579.363 229.013C579.363 229.013 585.022 207.237 593.219 208.341C601.416 209.445 589.982 234.455 589.982 234.455L574.011 257.451L563.29 249.787Z" fill="#FBBEBE"/>
<path d="M644.645 526.158L649.823 553.577L660.919 556.541L657.96 523.935L644.645 526.158Z" fill="#FBBEBE"/>
<path d="M756.343 496.516L776.316 523.935L784.453 527.64L791.11 516.524L771.137 490.587L756.343 496.516Z" fill="#FBBEBE"/>
<path d="M640.377 282.446L628.037 266.173C628.037 266.173 604.13 270.589 601.911 272.813C599.692 275.036 607.829 315.794 607.829 315.794C607.829 315.794 609.308 326.909 615.966 332.838L622.623 337.284L677.363 326.168L679.421 301.769C680.171 292.881 679.059 283.935 676.157 275.503C673.255 267.071 668.626 259.34 662.568 252.804L653.044 254.109L640.377 282.446Z" fill="#00AAC8"/>
<path d="M604.7 274.2L601.001 272.718L583.988 271.236C583.988 271.236 578.07 269.754 579.549 266.79C581.029 263.826 582.508 263.085 579.549 262.344C576.59 261.603 575.851 260.861 576.59 258.638C577.33 256.415 581.768 251.969 581.768 251.969L569.193 241.594C569.193 241.594 568.512 242.076 567.412 242.969C561.169 248.033 541.413 266.304 555.878 284.575C572.892 306.066 592.864 318.663 609.138 314.217L604.7 274.2Z" fill="#00AAC8"/>
<path d="M620.974 333.484V343.859C620.974 343.859 614.316 356.457 616.535 368.314C618.754 380.171 619.494 386.099 619.494 386.099C619.736 396.183 621.481 406.174 624.672 415.741C629.85 430.562 612.837 527.64 634.289 529.122C655.741 530.604 667.576 532.086 674.234 524.676C680.891 517.265 663.138 389.804 663.138 389.804C663.138 389.804 723.795 516.524 736.37 511.337C748.946 506.15 780.754 494.293 777.055 487.623C773.356 480.954 680.151 332.743 680.151 332.743L677.193 326.074L620.974 333.484Z" fill="#2F2E41"/>
<path d="M656.48 548.39C656.48 548.39 644.645 547.649 644.645 551.354C644.645 555.059 638.727 567.657 638.727 567.657C638.727 567.657 634.289 582.478 646.124 580.996C657.96 579.514 665.357 566.175 665.357 566.175L662.398 552.095L656.48 548.39Z" fill="#2F2E41"/>
<path d="M780.014 522.453C780.014 522.453 769.658 515.783 770.397 520.229C771.137 524.676 771.877 536.533 777.055 537.274C782.233 538.015 797.767 542.461 798.507 543.943C799.247 545.425 817 551.354 817 541.72C817 532.086 805.904 524.676 805.904 524.676L793.329 515.042C793.329 515.042 785.192 514.301 783.712 519.488C782.233 524.676 780.014 522.453 780.014 522.453Z" fill="#2F2E41"/>
<path d="M629.879 209.909C636.663 209.909 642.162 204.4 642.162 197.605C642.162 190.809 636.663 185.301 629.879 185.301C623.096 185.301 617.597 190.809 617.597 197.605C617.597 204.4 623.096 209.909 629.879 209.909Z" fill="#2F2E41"/>
<path d="M616.304 194.367C616.305 191.328 617.428 188.397 619.457 186.138C621.486 183.879 624.277 182.452 627.294 182.132C626.864 182.086 626.433 182.063 626.001 182.063C622.743 182.063 619.619 183.359 617.316 185.666C615.013 187.974 613.719 191.104 613.719 194.367C613.719 197.63 615.013 200.76 617.316 203.067C619.619 205.375 622.743 206.671 626.001 206.671C626.433 206.671 626.864 206.648 627.294 206.602C624.277 206.282 621.486 204.855 619.457 202.596C617.428 200.337 616.305 197.406 616.304 194.367Z" fill="#2F2E41"/>
<path d="M649.577 211.341L632.795 202.535L609.62 206.138L604.825 227.352L616.761 226.892L620.096 219.099V226.764L625.603 226.552L628.799 214.143L630.797 227.352L650.376 226.952L649.577 211.341Z" fill="#2F2E41"/>
<path d="M648.572 335.201L622.691 335.902C622.691 335.902 600.608 340.207 601.847 331.278C603.086 322.348 624.63 325.471 624.63 325.471L648.212 321.867L648.572 335.201Z" fill="#FBBEBE"/>
<path d="M669.049 251.454C670.35 251.256 671.678 251.531 672.795 252.227C673.912 252.924 674.744 253.997 675.141 255.254C680.208 271.249 695.817 324.774 680.309 332.118C662.042 340.767 648.712 340.387 648.712 340.387L641.577 322.788L648.072 316.682L655.007 272.015L658.33 253.08L669.049 251.454Z" fill="#00AAC8"/>
<path opacity="0.4" d="M664.248 281.24L661.289 310.882L635.398 321.998L664.248 315.329V281.24Z" fill="black"/>
<path d="M524.622 183.383C532.961 185.596 540.175 190.847 544.855 198.107L547.274 201.861L547.396 202.016L589.845 214.46C590.623 214.688 591.281 215.213 591.677 215.922C592.072 216.63 592.175 217.467 591.961 218.25L588.666 230.355C588.558 230.75 588.374 231.119 588.124 231.441C587.874 231.764 587.562 232.034 587.207 232.236C586.852 232.437 586.461 232.567 586.056 232.616C585.651 232.666 585.241 232.635 584.848 232.525L542.388 220.636L542.387 220.637L538.123 222.252C530.27 225.226 521.657 225.519 513.622 223.086L524.622 183.383Z" fill="#3F3D56"/>
<path d="M569.325 218.489C569.727 217.112 567.964 215.384 565.388 214.629C562.812 213.874 560.398 214.378 559.996 215.754C559.594 217.13 561.356 218.859 563.932 219.614C566.509 220.369 568.923 219.865 569.325 218.489Z" fill="#575A89"/>
<path d="M435.505 117.331L435.511 117.336L522.663 185.065L512.069 218.779L369.723 248.182L369.675 248.193L369.626 248.205C355.077 251.819 338.847 254.364 321.436 257.093C315.24 258.065 308.894 259.059 302.422 260.134C277.854 264.214 251.648 269.424 225.562 278.868C166.552 300.232 125.236 306.063 97.2663 301.574C83.3274 299.338 72.7773 294.55 64.9721 287.912C57.1724 281.279 51.9751 272.68 48.923 262.592C42.7878 242.312 45.3641 216.134 52.96 188.604C60.5365 161.144 73.0117 132.674 86.2887 107.999C120.678 44.089 196.297 0.457479 292.043 25.0825C331.536 35.2399 365.403 54.3055 390.308 78.0881C404.7 91.9281 419.785 105.026 435.505 117.331Z" stroke="#0A6EAA" stroke-width="5"/>
<path d="M567.157 219.758C568.141 219.758 568.939 218.959 568.939 217.973C568.939 216.987 568.141 216.188 567.157 216.188C566.173 216.188 565.375 216.987 565.375 217.973C565.375 218.959 566.173 219.758 567.157 219.758Z" fill="#3F3D56"/>
<path d="M528.17 206.311C531.71 195.375 530.578 185.21 525.641 183.606C520.705 182.003 513.833 189.568 510.294 200.504C506.754 211.44 507.886 221.606 512.823 223.209C517.759 224.813 524.631 217.247 528.17 206.311Z" fill="#3C99E2"/>
<path opacity="0.4" d="M526.851 205.925C530.262 195.387 529.334 185.566 524.846 183.43C525.116 183.464 525.382 183.523 525.641 183.606C530.578 185.21 531.71 195.375 528.17 206.311C524.631 217.247 517.759 224.813 512.823 223.209C512.644 223.151 512.469 223.08 512.299 222.999C517.155 223.618 523.498 216.285 526.851 205.925Z" fill="black"/>
<path d="M471.905 176.885H470.557V175.535H470.294V176.885H468.946V177.149H470.294V178.499H470.557V177.149H471.905V176.885Z" fill="#F2F2F2"/>
<path d="M462.289 211.715H460.941V210.365H460.678V211.715H459.33V211.979H460.678V213.329H460.941V211.979H462.289V211.715Z" fill="#F2F2F2"/>
<path d="M338.015 217.643H336.668V216.293H336.404V217.643H335.056V217.907H336.404V219.257H336.668V217.907H338.015V217.643Z" fill="#F2F2F2"/>
<path d="M222.423 153.787L220.744 154.046C221.27 157.411 221.684 160.849 221.987 164.25L223.681 164.102C223.378 160.656 222.956 157.188 222.423 153.787Z" fill="#00AAC8"/>
<path d="M217.83 133.527L216.202 134.023C217.186 137.284 218.067 140.626 218.814 143.953L220.478 143.575C219.716 140.211 218.821 136.832 217.83 133.527Z" fill="#00AAC8"/>
<path d="M210.499 114.096L208.953 114.808C210.373 117.913 211.705 121.099 212.911 124.286L214.501 123.685C213.281 120.462 211.942 117.231 210.499 114.096Z" fill="#00AAC8"/>
<path d="M200.587 95.881L199.152 96.7925C200.979 99.6678 202.732 102.647 204.359 105.633L205.854 104.818C204.212 101.795 202.436 98.7859 200.587 95.881Z" fill="#00AAC8"/>
<path d="M201.737 79.1852L200.443 80.2894C202.647 82.8831 204.792 85.5953 206.819 88.3372L208.18 87.322C206.138 84.5504 203.971 81.8085 201.737 79.1852Z" fill="#00AAC8"/>
<path d="M187.253 64.3197L186.122 65.5869C188.666 67.8619 191.159 70.2555 193.534 72.6936L194.754 71.5005C192.35 69.0328 189.827 66.6169 187.253 64.3197Z" fill="#00AAC8"/>
<path d="M170.891 51.5588L169.936 52.9668C172.762 54.8713 175.558 56.9018 178.243 58.9989L179.294 57.6576C176.572 55.5382 173.746 53.4855 170.891 51.5588Z" fill="#00AAC8"/>
<path d="M156 42.6958V44.6225C157.768 45.5488 159.521 46.5196 161.237 47.5126L162.088 46.0379C160.091 44.8819 158.061 43.7678 156 42.6958Z" fill="#00AAC8"/>
<path d="M231.498 166.32L233.199 166.289C233.23 168.009 233.232 169.738 233.206 171.429L231.505 171.402C231.531 169.731 231.529 168.021 231.498 166.32Z" fill="#00AAC8"/>
<path d="M140.897 287.091L139.218 287.35C139.743 290.715 140.158 294.153 140.461 297.555L142.155 297.406C141.852 293.961 141.43 290.493 140.897 287.091Z" fill="#00AAC8"/>
<path d="M136.304 266.831L134.676 267.327C135.66 270.588 136.54 273.93 137.288 277.257L138.952 276.879C138.19 273.515 137.295 270.136 136.304 266.831Z" fill="#00AAC8"/>
<path d="M128.973 247.4L127.427 248.112C128.847 251.217 130.179 254.403 131.385 257.59L132.975 256.989C131.754 253.766 130.416 250.535 128.973 247.4Z" fill="#00AAC8"/>
<path d="M119.061 229.185L117.626 230.097C119.453 232.972 121.206 235.951 122.833 238.938L124.328 238.122C122.685 235.099 120.91 232.09 119.061 229.185Z" fill="#00AAC8"/>
<path d="M106.737 212.489L105.443 213.594C107.647 216.187 109.792 218.899 111.819 221.641L113.18 220.626C111.138 217.855 108.971 215.113 106.737 212.489Z" fill="#00AAC8"/>
<path d="M92.2533 197.624L91.1215 198.891C93.6661 201.166 96.159 203.56 98.5335 205.998L99.7541 204.805C97.35 202.337 94.8275 199.921 92.2533 197.624Z" fill="#00AAC8"/>
<path d="M75.8906 184.863L74.9364 186.271C77.7621 188.175 80.5583 190.206 83.2435 192.303L84.2939 190.962C81.5717 188.842 78.7459 186.79 75.8906 184.863Z" fill="#00AAC8"/>
<path d="M61 176V177.927C62.7679 178.853 64.5211 179.824 66.2372 180.817L67.0879 179.342C65.0906 178.186 63.0613 177.072 61 176Z" fill="#00AAC8"/>
<path d="M409.897 224.091L408.218 224.35C408.743 227.715 409.158 231.153 409.461 234.555L411.155 234.406C410.852 230.961 410.43 227.493 409.897 224.091Z" fill="#00AAC8"/>
<path d="M405.304 203.831L403.676 204.327C404.66 207.588 405.54 210.93 406.288 214.257L407.952 213.879C407.19 210.515 406.295 207.136 405.304 203.831Z" fill="#00AAC8"/>
<path d="M397.973 184.4L396.427 185.112C397.847 188.217 399.179 191.403 400.385 194.59L401.975 193.99C400.755 190.766 399.416 187.535 397.973 184.4Z" fill="#00AAC8"/>
<path d="M388.061 166.185L386.626 167.097C388.453 169.972 390.206 172.951 391.833 175.938L393.328 175.122C391.686 172.099 389.91 169.09 388.061 166.185Z" fill="#00AAC8"/>
<path d="M375.737 149.489L374.443 150.594C376.647 153.187 378.792 155.899 380.819 158.641L382.18 157.626C380.138 154.855 377.971 152.113 375.737 149.489Z" fill="#00AAC8"/>
<path d="M361.253 134.624L360.121 135.891C362.666 138.166 365.159 140.56 367.534 142.998L368.754 141.805C366.35 139.337 363.827 136.921 361.253 134.624Z" fill="#00AAC8"/>
<path d="M344.891 121.863L343.936 123.271C346.762 125.175 349.558 127.206 352.243 129.303L353.294 127.962C350.572 125.842 347.746 123.79 344.891 121.863Z" fill="#00AAC8"/>
<path d="M330 113V114.927C331.768 115.853 333.521 116.824 335.237 117.817L336.088 116.342C334.091 115.186 332.061 114.072 330 113Z" fill="#00AAC8"/>
<path d="M110.437 148.133H109.183V146.876H108.938V148.133H107.684V148.377H108.938V149.634H109.183V148.377H110.437V148.133Z" fill="#F2F2F2"/>
<path d="M53.5685 290.462H52.3139V289.206H52.069V290.462H50.8152V290.707H52.069V291.964H52.3139V290.707H53.5685V290.462Z" fill="#F2F2F2"/>
<path d="M185.898 194.121C174.817 177.557 170.005 157.548 172.336 137.723C174.667 117.897 183.986 99.5679 198.604 86.059C213.221 72.5502 232.169 64.7561 252.011 64.0902C271.853 63.4243 291.275 69.9307 306.756 82.4295C322.236 94.9282 332.75 112.592 336.39 132.217C340.031 151.842 336.556 172.129 326.598 189.399C316.639 206.67 300.855 219.779 282.109 226.351C263.362 232.923 242.895 232.522 224.417 225.221C223.219 229.52 220.98 233.454 217.899 236.67C214.818 239.885 210.993 242.283 206.765 243.647C202.537 245.012 198.039 245.301 193.672 244.488C189.306 243.676 185.208 241.787 181.746 238.992C178.284 236.196 175.565 232.581 173.832 228.47C172.1 224.358 171.409 219.879 171.82 215.433C172.232 210.988 173.733 206.714 176.19 202.994C178.647 199.275 181.982 196.226 185.898 194.121Z" fill="#0A6EAA"/>
<path d="M254.019 99.9981C273.069 99.9981 286.174 110.588 286.174 125.81C286.174 135.891 281.298 142.866 271.9 148.415C263.061 153.557 260.064 157.325 260.064 163.842C260.064 164.37 259.961 164.893 259.759 165.381C259.557 165.869 259.262 166.312 258.889 166.686C258.516 167.059 258.074 167.355 257.587 167.558C257.1 167.76 256.578 167.864 256.051 167.864H246.313C245.273 167.864 244.273 167.459 243.525 166.735C242.777 166.011 242.339 165.024 242.302 163.982L242.285 163.485C241.421 152.997 245.079 146.481 254.273 141.084C262.858 135.942 266.465 132.684 266.465 126.371C266.465 120.057 260.369 115.424 252.8 115.424C247.047 115.424 242.495 118.231 240.406 122.813C239.672 124.364 238.511 125.672 237.058 126.582C235.606 127.492 233.924 127.967 232.211 127.949C225.613 127.949 221.254 120.916 224.34 115.071C229.221 105.824 239.52 99.9981 254.019 99.9981ZM240.659 187.261C240.659 181.406 245.536 176.773 251.53 176.773C257.575 176.773 262.452 181.355 262.452 187.261C262.452 193.167 257.575 197.749 251.53 197.749C245.485 197.749 240.659 193.167 240.659 187.261Z" fill="white"/>
</svg>
