<svg width="368" height="200" fill="none" xmlns="http://www.w3.org/2000/svg"><rect width="368" height="200" rx="4" fill="#003269"/><path fill-rule="evenodd" clip-rule="evenodd" d="M78.105 79.58c-4.402 2.025-8.42 5.465-10.764 8.018l-.027.029-22.025 20.329L44 106.56l21.968-20.276c2.462-2.675 6.664-6.278 11.343-8.43 4.675-2.151 10.07-2.948 14.6.479 2.025 1.334 4.405 4.038 5.103 7.89.707 3.905-.344 8.82-4.912 14.472l-.035.044-24.762 24.167-1.327-1.359 24.681-24.089c4.279-5.313 5.07-9.668 4.485-12.897-.593-3.275-2.632-5.566-4.3-6.657l-.029-.019-.027-.02c-3.717-2.827-8.271-2.315-12.683-.285z" fill="#fff"/><path fill-rule="evenodd" clip-rule="evenodd" d="M68.178 79.58c4.402 2.025 8.42 5.465 10.764 8.018l.027.029 22.025 20.329 1.289-1.396-21.969-20.276c-2.461-2.675-6.663-6.278-11.342-8.43-4.676-2.151-10.07-2.948-14.6.479-2.025 1.334-4.405 4.038-5.103 7.89-.708 3.905.344 8.82 4.912 14.472l.035.044 24.762 24.167 1.327-1.359-24.682-24.089c-4.278-5.313-5.07-9.668-4.485-12.897.594-3.275 2.633-5.566 4.301-6.657l.029-.019.026-.02c3.718-2.827 8.272-2.315 12.684-.285z" fill="#fff"/><path d="M126.005 90.822c1.6 0 2.983.309 4.151.927 1.693.89 2.728 2.447 3.107 4.673h-2.284c-.278-1.244-.854-2.149-1.728-2.713-.873-.572-1.975-.858-3.304-.858-1.577 0-2.907.591-3.989 1.774-1.074 1.183-1.612 2.945-1.612 5.287 0 2.026.445 3.676 1.334 4.951.889 1.268 2.338 1.902 4.348 1.902 1.538 0 2.81-.445 3.815-1.333 1.012-.897 1.53-2.343 1.553-4.337h-5.333v-1.913h7.478v9.113h-1.484l-.556-2.191c-.781.858-1.473 1.453-2.076 1.786-1.012.572-2.299.858-3.861.858-2.017 0-3.753-.654-5.206-1.96-1.585-1.639-2.377-3.888-2.377-6.748 0-2.853.773-5.121 2.319-6.806 1.469-1.608 3.37-2.412 5.705-2.412zm16.012 4.777c.882 0 1.736.209 2.563.626.827.41 1.457.943 1.89 1.6.417.626.696 1.357.835 2.192.123.572.185 1.484.185 2.736h-9.102c.039 1.26.336 2.273.893 3.038.557.757 1.418 1.136 2.586 1.136 1.09 0 1.959-.359 2.608-1.078a3.63 3.63 0 00.789-1.449h2.052c-.054.456-.235.966-.545 1.53-.301.557-.641 1.013-1.02 1.368-.634.619-1.419 1.036-2.354 1.253a7.18 7.18 0 01-1.704.185c-1.546 0-2.857-.56-3.931-1.681-1.074-1.129-1.612-2.706-1.612-4.731 0-1.994.541-3.614 1.624-4.858 1.082-1.245 2.496-1.867 4.243-1.867zm3.328 5.496c-.085-.904-.282-1.627-.591-2.168-.572-1.005-1.527-1.508-2.864-1.508-.959 0-1.763.348-2.412 1.044-.649.688-.993 1.565-1.032 2.632h6.899zm5.96 3.305c.062.695.236 1.229.522 1.6.525.672 1.437 1.008 2.736 1.008.773 0 1.453-.166 2.041-.498.587-.34.881-.862.881-1.565 0-.534-.236-.94-.707-1.218-.302-.17-.897-.367-1.786-.591l-1.658-.418c-1.059-.263-1.84-.556-2.342-.881-.897-.564-1.345-1.345-1.345-2.342 0-1.175.421-2.126 1.264-2.853.85-.726 1.99-1.09 3.42-1.09 1.871 0 3.22.55 4.047 1.647.518.696.769 1.446.754 2.25h-1.972a2.407 2.407 0 00-.498-1.287c-.479-.55-1.31-.824-2.493-.824-.789 0-1.388.151-1.797.452-.402.302-.603.7-.603 1.195 0 .54.266.974.8 1.298.309.194.765.364 1.368.511l1.38.336c1.499.363 2.504.715 3.015 1.055.811.533 1.217 1.372 1.217 2.516 0 1.105-.421 2.06-1.264 2.864-.835.804-2.11 1.206-3.826 1.206-1.848 0-3.158-.418-3.931-1.252-.765-.843-1.175-1.883-1.229-3.119h2.006zm12.72-8.523v8.244c0 .634.1 1.152.301 1.554.371.742 1.063 1.113 2.076 1.113 1.453 0 2.442-.649 2.968-1.948.286-.696.429-1.65.429-2.864v-6.099h2.087v12.418h-1.971l.023-1.832c-.27.472-.607.87-1.009 1.195-.796.649-1.762.974-2.898.974-1.771 0-2.976-.592-3.618-1.774-.348-.634-.522-1.481-.522-2.54v-8.44h2.134zm11.131 0h1.983v1.763c.587-.727 1.209-1.249 1.866-1.566.657-.317 1.388-.475 2.192-.475 1.762 0 2.953.614 3.571 1.844.34.672.51 1.635.51 2.887v7.965h-2.122v-7.826c0-.758-.112-1.368-.336-1.832-.371-.773-1.043-1.16-2.017-1.16-.495 0-.901.05-1.218.151-.572.17-1.074.51-1.507 1.02-.348.41-.576.835-.684 1.276-.101.433-.151 1.055-.151 1.867v6.504h-2.087V95.877zm14.54 6.354c0 1.33.282 2.443.846 3.34.565.896 1.469 1.345 2.714 1.345.966 0 1.758-.414 2.377-1.241.626-.835.939-2.029.939-3.583 0-1.569-.321-2.728-.963-3.478-.641-.758-1.434-1.137-2.377-1.137-1.051 0-1.905.402-2.562 1.206-.649.804-.974 1.987-.974 3.548zm3.142-6.574c.951 0 1.747.2 2.389.603.371.232.792.638 1.264 1.217v-6.273h2.006v17.091h-1.879v-1.727c-.487.765-1.063 1.318-1.728 1.658-.664.34-1.426.51-2.284.51-1.383 0-2.582-.58-3.594-1.739-1.013-1.167-1.519-2.717-1.519-4.65 0-1.809.46-3.374 1.38-4.696.927-1.33 2.249-1.994 3.965-1.994zm7.827 9.624l8.824-11.05h-8.604v-3.026h13.056v2.863l-8.94 11.213h8.963v3.014h-13.299v-3.014zm18.749-9.624v7.618c0 .719.085 1.26.255 1.623.301.642.893.963 1.774.963 1.129 0 1.902-.457 2.319-1.369.216-.494.325-1.148.325-1.959v-6.876h3.351v12.638h-3.212v-1.785a5.699 5.699 0 00-.232.348 2.347 2.347 0 01-.441.51c-.518.464-1.02.781-1.507.951-.479.17-1.044.255-1.693.255-1.871 0-3.131-.673-3.78-2.018-.363-.742-.545-1.836-.545-3.281v-7.618h3.386zm13.798 8.603c.069.588.22 1.005.452 1.253.41.44 1.167.661 2.273.661.649 0 1.163-.097 1.542-.29.386-.194.58-.483.58-.87a.937.937 0 00-.464-.846c-.309-.194-1.457-.526-3.444-.998-1.43-.355-2.439-.8-3.026-1.333-.588-.526-.881-1.283-.881-2.273 0-1.167.456-2.168 1.368-3.003.92-.842 2.211-1.264 3.873-1.264 1.576 0 2.86.317 3.849.951.997.626 1.569 1.712 1.716 3.258h-3.304c-.047-.425-.167-.76-.36-1.008-.363-.449-.982-.673-1.855-.673-.719 0-1.233.112-1.542.337-.302.224-.452.486-.452.788 0 .379.162.653.487.823.324.178 1.472.483 3.443.916 1.314.309 2.3.777 2.957 1.403.649.634.974 1.426.974 2.377 0 1.252-.468 2.277-1.403 3.073-.928.788-2.365 1.182-4.313 1.182-1.987 0-3.456-.417-4.406-1.252-.944-.842-1.415-1.913-1.415-3.212h3.351zm17.613-2.11a3.8 3.8 0 01-.638.325 5.569 5.569 0 01-.87.22l-.742.139c-.695.124-1.194.275-1.496.452-.51.302-.765.77-.765 1.403 0 .565.155.974.464 1.23.317.247.7.371 1.148.371.711 0 1.364-.209 1.959-.627.603-.417.916-1.178.94-2.284v-1.229zm-2.006-1.542c.61-.077 1.047-.174 1.31-.29.472-.201.707-.514.707-.94 0-.517-.181-.873-.545-1.066-.355-.2-.881-.301-1.577-.301-.78 0-1.333.193-1.658.58-.232.285-.386.672-.463 1.159h-3.189c.069-1.105.379-2.014.927-2.725.874-1.113 2.374-1.67 4.499-1.67 1.384 0 2.613.275 3.688.824 1.074.549 1.611 1.584 1.611 3.107v5.798c0 .402.008.889.023 1.461.024.433.089.726.198.881.108.154.27.282.487.382v.487h-3.595c-.1-.255-.17-.494-.209-.718a8.925 8.925 0 01-.092-.766 6.79 6.79 0 01-1.577 1.264c-.711.41-1.515.615-2.412.615-1.144 0-2.091-.325-2.841-.974-.742-.657-1.113-1.585-1.113-2.783 0-1.554.599-2.679 1.797-3.374.657-.379 1.624-.65 2.899-.812l1.125-.139zm22.378-5.229c.557 0 1.105.108 1.647.324.541.217 1.032.596 1.472 1.137.356.44.595.981.719 1.623.077.425.116 1.047.116 1.867l-.023 7.965h-3.386v-8.046c0-.48-.077-.874-.232-1.183-.294-.588-.835-.881-1.623-.881-.912 0-1.542.378-1.89 1.136-.178.402-.267.885-.267 1.449v7.525h-3.328v-7.525c0-.749-.077-1.294-.231-1.635-.279-.61-.824-.916-1.635-.916-.943 0-1.577.306-1.902.916-.178.348-.267.866-.267 1.554v7.606h-3.351V95.68h3.212v1.844c.41-.657.796-1.125 1.16-1.403.641-.495 1.472-.742 2.493-.742.966 0 1.747.212 2.342.637.479.395.842.9 1.09 1.52.433-.743.97-1.288 1.611-1.636.681-.347 1.438-.521 2.273-.521zm21.126 0a4.4 4.4 0 011.647.324c.541.217 1.032.596 1.472 1.137.356.44.595.981.719 1.623.077.425.116 1.047.116 1.867l-.023 7.965h-3.386v-8.046c0-.48-.077-.874-.232-1.183-.294-.588-.835-.881-1.623-.881-.912 0-1.542.378-1.89 1.136-.178.402-.267.885-.267 1.449v7.525h-3.328v-7.525c0-.749-.077-1.294-.231-1.635-.279-.61-.824-.916-1.635-.916-.943 0-1.577.306-1.902.916-.178.348-.267.866-.267 1.554v7.606h-3.351V95.68h3.212v1.844c.41-.657.796-1.125 1.16-1.403.641-.495 1.472-.742 2.493-.742.966 0 1.747.212 2.342.637.479.395.842.9 1.09 1.52.433-.743.97-1.288 1.612-1.636.68-.347 1.437-.521 2.272-.521zm11.989 2.667c-.765 0-1.36.24-1.785.718-.418.48-.681 1.129-.789 1.948h5.137c-.054-.873-.321-1.534-.8-1.982-.472-.457-1.059-.684-1.763-.684zm0-2.725c1.052 0 1.999.197 2.841.591.843.394 1.538 1.016 2.087 1.867.495.75.816 1.62.963 2.609.085.579.119 1.414.104 2.504h-8.65c.046 1.268.445 2.157 1.194 2.667.456.317 1.005.475 1.647.475.68 0 1.233-.193 1.658-.579.232-.209.437-.499.614-.87h3.375c-.085.75-.476 1.511-1.171 2.284-1.083 1.229-2.598 1.844-4.546 1.844-1.608 0-3.026-.518-4.255-1.554s-1.844-2.721-1.844-5.055c0-2.188.553-3.865 1.658-5.032 1.114-1.168 2.555-1.751 4.325-1.751zm15.236.035c1.307 0 2.373.344 3.2 1.031.835.68 1.253 1.813 1.253 3.398v8.51h-3.386v-7.687c0-.665-.089-1.175-.267-1.53-.324-.65-.943-.975-1.855-.975-1.121 0-1.89.476-2.307 1.427-.217.502-.325 1.144-.325 1.924v6.841h-3.293V95.68h3.189v1.844c.425-.65.827-1.117 1.205-1.403.681-.51 1.543-.765 2.586-.765z" fill="#fff"/></svg>