<svg xmlns="http://www.w3.org/2000/svg" viewBox="0 0 1440 849"><linearGradient id="a" gradientUnits="userSpaceOnUse" x1="51.543" y1="308.995" x2="1689.543" y2="-134.505" gradientTransform="matrix(1 0 0 -1 0 743.987)"><stop offset="0" stop-color="#0470dc"/><stop offset="1" stop-color="#13f1fc"/></linearGradient><path d="M460 746.7C169.5 765.5 35 687.2-.5 660.2V547.7h1441v214.5c-236.5 176-544.9-49.5-777.5-30.5-140.5 11.5-133.5 10.5-203 15z" opacity=".2" fill="url(#a)"/><linearGradient id="b" gradientUnits="userSpaceOnUse" x1="217.747" y1="-90.286" x2="1429.402" y2="1007.725" gradientTransform="matrix(1 0 0 -1 0 743.987)"><stop offset="0" stop-color="#0470dc"/><stop offset="1" stop-color="#13f1fc"/></linearGradient><path d="M1440 0H0v665.4c423-32.5 397.5 169.5 814.5 100.1 225.3-37.5 412 64 625.5-7.2V0z" opacity=".2" fill="url(#b)"/><linearGradient id="c" gradientUnits="userSpaceOnUse" x1="58.649" y1="882.863" x2="1789.169" y2="-343.858" gradientTransform="matrix(1 0 0 -1 0 743.987)"><stop offset="0" stop-color="#0a6eaa"/><stop offset=".583" stop-color="#00aac8"/></linearGradient><path d="M0 0h1440v753c-324-138.1-378 71.7-811-40.1-220.1-56.8-335-110.1-629-53V0z" fill="url(#c)"/></svg>