<svg width="397" height="244" fill="none" xmlns="http://www.w3.org/2000/svg"><path d="M138.038 126.65c.335.782.69 1.572 1.055 2.349l-.781.366a79.235 79.235 0 01-1.067-2.374l.793-.341zm139.301-62.535a77.88 77.88 0 011.407 3.18l-.797.331a77.373 77.373 0 00-2.16-4.735l.773-.384c.264.531.523 1.067.777 1.608zm-3.279-6.238l-.745.436a76.38 76.38 0 00-2.78-4.398l.713-.485a77.905 77.905 0 012.812 4.447zm6.541 14.342a76.838 76.838 0 011.515 5.04l-.834.218a76.503 76.503 0 00-1.498-4.982l.817-.276zm-12.463-23.034l-.678.534a75.638 75.638 0 00-3.357-3.976l.639-.579a76.137 76.137 0 013.396 4.021zM283.28 82.39c.328 1.715.599 3.465.808 5.2l-.857.104a76.073 76.073 0 00-.798-5.142l.847-.162zm-22.203-41.002l-.597.622a76.088 76.088 0 00-3.869-3.472l.555-.661a77.197 77.197 0 013.911 3.51zm23.459 51.454c.088 1.75.116 3.522.083 5.268l-.863-.016c.032-1.726.005-3.48-.082-5.209l.862-.043zm-31.516-58.2l-.507.698a76.504 76.504 0 00-4.31-2.91l.458-.731a77.3 77.3 0 014.359 2.943zm31.32 68.728a77.444 77.444 0 01-.639 5.228l-.852-.135c.268-1.705.481-3.444.632-5.168l.859.075zm-40.229-74.31l-.407.76a76.834 76.834 0 00-4.668-2.296l.354-.787a77.359 77.359 0 014.721 2.323zm38.595 84.708a78.096 78.096 0 01-1.345 5.09l-.826-.249a77.625 77.625 0 001.33-5.033l.841.192zM234.52 24.741l-.299.809a77.154 77.154 0 00-4.939-1.642l.244-.828a77.774 77.774 0 014.994 1.661zm45.152 99.102a77.554 77.554 0 01-2.024 4.858l-.784-.359a76.649 76.649 0 002.001-4.803l.807.304zM224.428 21.764l-.187.842a76.52 76.52 0 00-5.118-.955l.13-.852a77.08 77.08 0 015.175.966zm50.871 111.645a76.97 76.97 0 01-2.665 4.535l-.728-.462a76.7 76.7 0 002.635-4.485l.758.412zm-61.278-113.22l-.07.86a75.956 75.956 0 00-5.203-.246l.011-.863a76.44 76.44 0 015.262.25zm55.646 122.097a76.781 76.781 0 01-3.259 4.127l-.658-.557a76.354 76.354 0 003.222-4.081l.695.511zM203.492 20.053l.049.862a75.97 75.97 0 00-5.19.472l-.108-.856a76.425 76.425 0 015.249-.478zm59.384 130.252a77.246 77.246 0 01-3.797 3.644l-.576-.643a75.533 75.533 0 003.755-3.603l.618.602zM193.047 21.369l.166.847c-1.695.333-3.4.73-5.067 1.18l-.224-.833a76.958 76.958 0 015.125-1.194zm61.992 135.952a76.825 76.825 0 01-4.263 3.086l-.482-.716a75.61 75.61 0 004.215-3.051l.53.681zM182.891 24.106l.281.815a77.051 77.051 0 00-4.859 1.862l-.335-.795a77.441 77.441 0 014.913-1.883zm63.421 139.087a78.668 78.668 0 01-4.643 2.476l-.38-.775a76.34 76.34 0 004.591-2.448l.432.747zM173.591 28.971a77.18 77.18 0 00-4.564 2.498l-.44-.742a78.22 78.22 0 014.615-2.527l.389.77zm-8.947 5.303a76.228 76.228 0 00-4.179 3.1l-.537-.675a76.539 76.539 0 014.227-3.135l.489.71zm-8.135 6.48a76.264 76.264 0 00-3.709 3.64l-.625-.594a76.518 76.518 0 013.752-3.682l.582.636zm-7.159 7.529a76.14 76.14 0 00-3.175 4.118l-.701-.503a77.007 77.007 0 013.211-4.165l.665.55zm-6.062 8.445a76.623 76.623 0 00-2.584 4.515l-.763-.403a77.546 77.546 0 012.613-4.566l.734.454zm-4.855 9.197a77.228 77.228 0 00-1.947 4.826l-.81-.296a77.624 77.624 0 011.968-4.88l.789.35zm-3.561 9.774a77.502 77.502 0 00-1.273 5.047l-.843-.182a77.244 77.244 0 011.288-5.104l.828.239zm-2.199 10.17a76.507 76.507 0 00-.573 5.175l-.861-.065c.133-1.74.328-3.502.58-5.234l.854.124zm-.79 10.379c-.012 1.73.036 3.481.143 5.206l-.862.054a77.063 77.063 0 01-.144-5.267l.863.007zm.644 10.391a75.45 75.45 0 00.857 5.133l-.846.171a77.166 77.166 0 01-.867-5.191l.856-.113zm2.066 10.194a76.289 76.289 0 001.555 4.966l-.815.285a77.817 77.817 0 01-1.572-5.022l.832-.229zm101.832 50.243l.325.799c-.807.329-1.623.646-2.426.942l-.299-.81a76.839 76.839 0 002.4-.931z" fill="#E6E6E6"/><path d="M88.29 15.535c-4.355-7.36-12.972-7.702-12.972-7.702s-8.397-1.074-13.783 10.134c-5.02 10.448-11.95 20.534-1.115 22.98l1.957-6.09 1.212 6.543a42.37 42.37 0 004.635.08c11.602-.375 22.652.11 22.296-4.054-.473-5.535 1.961-14.81-2.23-21.89z" fill="#003269"/><path d="M53.463 176.81v11.633l-6.004-.751v-9.756l6.004-1.126zm41.653 7.505l2.252 9.006 5.253-1.876-3.752-8.631-3.753 1.501zM54.59 52.23l.75 20.638 4.878 1.5 1.501-19.887-7.13-2.252z" fill="#FFB8B8"/><path d="M56.09 71.367l-.75 1.5-6.755 6.38S43.707 83.374 45.583 86l4.879-2.251v-1.501l11.257-7.88-5.629-3.002z" fill="#FFB8B8"/><path d="M83.483 77.37v8.631L54.59 81.498l3.378-6.379 25.516 2.252zm13.134-27.017s2.626 7.13 3.001 7.88c.376.75 4.879 18.012 4.879 18.012l11.257 18.012s8.255 9.756 3.002 10.131c-5.254.375-9.006-8.255-9.006-8.255L98.493 81.498 87.986 53.73l8.63-3.377zM75.04 34.405c6.01 0 10.882-4.872 10.882-10.882S81.05 12.641 75.04 12.641s-10.882 4.872-10.882 10.882S69.03 34.405 75.04 34.405z" fill="#FFB8B8"/><path d="M71.85 30.84s0 7.88-4.127 9.006c-4.128 1.126 3.377 9.381 3.377 9.381l15.01-7.505s-6.38-2.251-4.503-10.882H71.85z" fill="#FFB8B8"/><path d="M69.412 38.908l-7.959 2.627a12.597 12.597 0 00-7.837 10.612 8.99 8.99 0 00.598 4.21c2.252 5.253 4.878 6.38 4.878 6.38s.376 2.25 0 2.626c-.375.375-1.125.75-.75 1.876s.75.75.375 1.876-1.876 3.753-1.876 3.753 1.5.75.375 1.5c-1.126.751-1.5 2.252-1.5 2.252s25.516 1.126 28.142 3.753l4.503-18.387s10.507-4.128 10.132-8.256c-.375-4.127-2.627-7.88-5.253-9.006-2.627-1.125-9.001-4.13-9.001-4.13s-.84 2.79-8.524 2.118a8.39 8.39 0 01-6.303-3.804z" fill="#fff"/><path d="M84.233 83.374s-24.766-1.5-28.518-6.754L45.208 86.752l1.126 6.379-.376 83.304s-.375 4.128.751 4.128 7.13.75 7.505 0c.375-.751-1.126-2.252 1.5-3.002 2.628-.751 2.628 1.876 2.628-.751 0-2.626-.376-13.884-1.126-15.76-.75-1.876 8.63-45.029 8.63-45.029s24.767 66.793 26.643 68.294c1.876 1.501 2.251 3.753 3.377 3.377 1.126-.375 6.379-1.876 6.754-2.251.376-.375-.375-3.377 0-4.503.376-1.126 1.501.375 0-1.876-1.501-2.252-1.876-3.753-1.876-4.878 0-1.126-13.884-73.548-13.884-73.548s3.002-6.755-1.5-10.507l-1.127-6.755zM54.214 185.441s-3.752-3.752-5.253-3.752h-3.753s-3.377 7.129-4.503 7.504c-1.125.376-8.63 9.382-1.876 9.382 6.754 0 9.381-2.252 9.381-2.252l6.004-3.002v-7.88z" fill="#003269"/><path d="M96.745 190.833l-.879 7.742s7.505 3.002 7.505 3.377 12.008 6.004 12.758 1.126c.751-4.879-6.003-9.006-6.003-9.006s-7.201-8.526-8.479-8.203c-1.278.323-1.278 2.574-1.278 2.574l-3.624 2.39z" fill="#003269"/><path d="M174.105 149.482H69.036v-46.813l52.534 23.614 52.535-23.614v46.813z" fill="#fff"/><path d="M69.036 102.669h105.069l-52.431 27.047-52.638-27.047z" fill="#003269"/><path d="M121.675 134.085a4.369 4.369 0 100-8.738 4.369 4.369 0 000 8.738z" fill="#E6E6E6"/><path d="M76.373 14.1a6.23 6.23 0 100-12.46 6.23 6.23 0 000 12.46z" fill="#003269"/><path d="M69.486 6.23A6.23 6.23 0 0175.061.035a6.23 6.23 0 100 12.39 6.23 6.23 0 01-5.575-6.195z" fill="#003269"/><path d="M86.365 14.826l-8.513-4.46-11.757 1.825-2.432 10.742 6.055-.233 1.691-3.946v3.881l2.794-.107 1.622-6.283 1.013 6.688 9.932-.202-.405-7.905z" fill="#003269"/><path d="M397 136.847H215.757v88.182H397v-88.182z" fill="#fff"/><path d="M397 136.847H215.757v11.257H397v-11.257z" fill="#fff"/><path d="M242.024 197.261c9.119 0 16.511-7.392 16.511-16.511 0-9.118-7.392-16.51-16.511-16.51s-16.511 7.392-16.511 16.51c0 9.119 7.392 16.511 16.511 16.511zm133.587-25.704h-90.059v2.627h90.059v-2.627zm0 7.88h-90.059v2.627h90.059v-2.627zm-35.648 7.88h-54.411v2.627h54.411v-2.627z" fill="#E6E6E6"/><path d="M333.595 58.582s-2.451 8.054-1.05 10.505c1.401 2.451-2.451 7.704-8.754 5.253-6.303-2.452-6.653-5.253-6.653-5.253s2.451-3.852 3.151-11.906l13.306 1.401zm32.041 78.962s12.606 6.303 7.003 14.707c-3.257 4.885-9.471 14.384-14.104 21.482a71.652 71.652 0 00-8.825 19.24l-.882 3.049-3.502 4.202-7.353-8.404s10.855-19.96 10.855-23.812c0-3.851 8.754-16.107 8.754-16.107l-8.754-5.603s9.804-11.205 16.808-8.754zm-40.969 21.71s-.351 9.805-.701 13.657c-.289 3.178 2.521 12.075 1.547 21.974a92.982 92.982 0 00.212 19.242l1.393 12.709-10.505 1.051-3.502-28.714s-2.101-20.309-1.05-26.963l-.351-14.006s7.704-2.801 12.957 1.05z" fill="#A0616A"/><path d="M343.4 118.46s24.512 15.758 24.862 20.66c0 0-14.007-1.401-14.357 10.855 0 0-8.404-3.151-10.505-3.852-2.101-.7-13.306-8.054-13.306-8.054s-4.552 3.502-4.552 9.105c0 5.602.35 15.407 0 16.107-.35.701-8.404-9.454-15.057-.7l-4.552-24.161s-1.401-14.707 1.4-15.758l19.61-7.353 16.457 3.151z" fill="#003269"/><path d="M328.518 62.96c5.802 0 10.505-4.704 10.505-10.506 0-5.801-4.703-10.505-10.505-10.505-5.802 0-10.505 4.704-10.505 10.505 0 5.802 4.703 10.505 10.505 10.505z" fill="#A0616A"/><path d="M331.144 70.838s-11.849 3.13-13.453-2.812c0 0-14.56 2.812-17.011 12.266-2.451 9.455 5.953 32.215 5.953 32.916 0 .7-7.003 4.902-3.852 7.003 3.151 2.101 5.953-.35 4.552 2.451-1.401 2.802-3.852 3.502-1.751 4.202 2.101.701 14.707-10.155 24.512-7.353 9.804 2.801 14.707.7 14.707.7l4.396-37.997a8.774 8.774 0 00-3.121-7.79c-2.194-1.806-5.106-3.757-7.928-4.286-5.603-1.05-5.836-1.626-5.836-1.626l-1.168 2.326z" fill="#D0CDE1"/><path d="M342.349 132.117s-3.151 17.858-7.353 15.407c-4.202-2.451 1.051-15.407 1.051-15.407h6.302zm-14.628 2.311s5.461 17.292.602 17.061c-4.859-.231-6.191-14.148-6.191-14.148l5.589-2.913z" fill="#A0616A"/><path d="M347.077 195.321s2.451-2.801 3.851 1.051c1.401 3.852 5.253 8.754 5.253 8.754s8.404 9.454 2.451 9.804c-5.953.351-14.357-8.403-14.357-8.403l-9.804-9.105s3.249-7.914 4.776-7.984c1.527-.07 1.176 9.385 7.83 5.883zm-22.761 29.064s2.468.72 2.284-2.266c0 0 8.921 4.717 6.47 8.219l-.074.105a33.064 33.064 0 01-13.669 11.227c-2.693 1.192-5.089 1.986-5.516 1.274-1.051-1.751-1.051-5.253-.35-6.654.7-1.4 4.202-3.851 3.151-5.952-1.05-2.101.35-7.704 2.101-7.704s5.603 1.751 5.603 1.751zm13.37-180.832s-3.38-7.322-9.857-5.632c-6.477 1.69-10.138 4.224-10.419 6.758-.282 2.535.141 6.337.141 6.337s.704-5.21 5.209-4.084c4.506 1.127 11.546.282 11.546.282l1.127 10.138s1.267-1.83 2.675-.704c1.408 1.126 4.084-10.842-.422-13.095z" fill="#003269"/><path d="M306.632 79.942s8.404 22.761 7.704 25.562c-.7 2.802 0 3.152 1.051 3.852 1.05.7 3.851 8.054 3.851 8.054s1.751 4.202 3.152 5.252c1.401 1.051 1.401 3.852 1.401 3.852s3.501 3.502 2.801 4.202c-.7.7-.701 1.751.7 2.801 1.401 1.051 2.801 2.451 2.101 2.802-.7.35-5.602 4.202-7.003 3.851-1.401-.35.7-1.75-1.051-2.451-1.75-.7-2.801-1.751-2.101-2.101.701-.35 2.802-.35.701-1.05-2.101-.701-9.455-5.253-11.906-10.855-2.451-5.603-14.195-39.5-7.098-44.262 0 0 2.896-3.71 5.697.491zm38.869-3.852l.142.06a8.818 8.818 0 015.239 6.34c.764 3.66 1.516 8.953.922 13.91-1.051 8.754-1.751 12.606-3.152 15.407-1.4 2.801-1.751 1.751-1.4 3.852.35 2.101 2.101.35.35 3.151-1.751 2.802-2.802 2.101-2.101 3.502.7 1.401 1.751 1.401.35 3.152-1.401 1.75-1.401 2.451-1.751 3.151-.35.7-1.401 5.953-1.401 5.953s-5.602-1.751-8.754-1.051c0 0 2.802-4.902 2.101-5.952-.7-1.051-1.751-1.401-.7-2.452 1.05-1.05 2.801-.7 1.05-1.75-1.75-1.051 1.401-11.906 1.401-11.906l7.704-35.367z" fill="#D0CDE1"/><path d="M251.03 189.109c0 6.802-4.044 9.177-9.032 9.177a14.018 14.018 0 01-1.032-.035c-4.502-.319-8-2.816-8-9.142 0-6.546 8.364-14.806 8.995-15.42h.001l.036-.036s9.032 8.653 9.032 15.456z" fill="#fff"/><path d="M241.668 197.246l3.304-4.616-3.312 5.122-.009.53c-.231-.005-.46-.015-.686-.031l.356-6.806-.003-.052.006-.01.034-.643-3.32-5.136 3.33 4.654.008.136.269-5.142-2.842-5.306 2.877 4.403.28-10.66.001-.036v.036l-.047 8.406 2.83-3.333-2.841 4.056-.075 4.604 2.642-4.418-2.653 5.096-.042 2.559 3.836-6.149-3.85 7.043-.093 5.693z" fill="#F2F2F2"/><path d="M18.035 171.225c-.069-.113-1.7-2.836-2.265-8.49-.519-5.188-.185-13.932 4.35-26.129 8.59-23.107-1.98-41.75-2.088-41.937l.521-.302c.028.047 2.755 4.8 4.367 12.37a53.962 53.962 0 01-2.235 30.079c-8.577 23.067-2.2 33.987-2.135 34.095l-.515.314zm-3.359-77.912a3.918 3.918 0 100-7.836 3.918 3.918 0 000 7.836z" fill="#fff"/><path d="M27.032 107.779a3.918 3.918 0 100-7.836 3.918 3.918 0 000 7.836zm-8.438 9.644a3.918 3.918 0 100-7.836 3.918 3.918 0 000 7.836zm10.246 8.137a3.918 3.918 0 100-7.836 3.918 3.918 0 000 7.836zm-13.26 12.658a3.918 3.918 0 100-7.836 3.918 3.918 0 000 7.836zm4.822 33.151s-3.918-9.644 7.836-16.877l-7.836 16.877zm-4.818-.175S13.8 160.939 0 161.027l15.584 10.167zm205.801-26.092a2.627 2.627 0 100-5.253 2.627 2.627 0 000 5.253zm7.505 0a2.627 2.627 0 100-5.253 2.627 2.627 0 000 5.253zm7.505 0a2.627 2.627 0 100-5.253 2.627 2.627 0 000 5.253z" fill="#fff"/></svg>