<svg width="468" height="372" fill="none" xmlns="http://www.w3.org/2000/svg"><path fill="#D2D1D1" fill-opacity=".28" d="M281.608 0l185.608 185.608-185.608 185.609L96 185.608z"/><rect y="49" width="273" height="281.964" rx="8" fill="#D9D9D9"/><rect x="202.916" y="84.042" width="57.045" height="66.009" rx="8" fill="#fff"/><path fill-rule="evenodd" clip-rule="evenodd" d="M231.439 122.343c7.201 0 13.038-5.837 13.038-13.038 0-7.201-5.837-13.04-13.038-13.04-7.202 0-13.039 5.839-13.039 13.04 0 7.201 5.837 13.038 13.039 13.038z" fill="#DDE3E9"/><rect x="211.065" y="125.603" width="40.746" height="4.89" rx="2.445" fill="#DDE3E9"/><rect x="217.585" y="133.752" width="27.707" height="4.89" rx="2.445" fill="#DDE3E9"/><path d="M0 57a8 8 0 018-8h257a8 8 0 018 8v14.003H0V57z" fill="#BEBEBE"/><path fill-rule="evenodd" clip-rule="evenodd" d="M10.594 63.669a3.26 3.26 0 100-6.52 3.26 3.26 0 000 6.52zm9.779 0a3.26 3.26 0 100-6.52 3.26 3.26 0 000 6.52zm9.779 0a3.26 3.26 0 100-6.52 3.26 3.26 0 000 6.52z" fill="#F2F2F2"/><rect x="202.916" y="156.57" width="57.045" height="158.096" rx="8" fill="#fff"/><rect x="217.585" y="171.239" width="27.707" height="21.188" rx="4" fill="#DDE3E9"/><rect x="217.585" y="198.946" width="27.707" height="20.373" rx="4" fill="#AFB9C5"/><rect x="217.585" y="225.839" width="27.707" height="20.373" rx="4" fill="#DDE3E9"/><rect x="217.585" y="279.624" width="27.707" height="20.373" rx="4" fill="#DDE3E9"/><rect x="217.585" y="252.731" width="27.707" height="20.373" rx="4" fill="#C5CFD6"/><rect x="13.039" y="84.857" width="183.358" height="38.301" rx="4" fill="#fff"/><g clip-path="url(#clip0)" fill="#DDE3E9"><rect x="20.373" y="96.347" width="136.093" height="5.745" rx="2.873"/><rect x="20.373" y="105.923" width="91.35" height="5.745" rx="2.873"/></g><path fill-rule="evenodd" clip-rule="evenodd" d="M176.802 109.712a5.704 5.704 0 100-11.409 5.704 5.704 0 000 11.409z" fill="#DDE3E9"/><path fill-rule="evenodd" clip-rule="evenodd" d="M176.802 106.453a2.445 2.445 0 10-.001-4.89 2.445 2.445 0 00.001 4.89z" fill="#F2F2F2"/><rect x="13.039" y="129.678" width="183.358" height="31.782" rx="4" fill="#fff"/><g clip-path="url(#clip1)" fill="#DDE3E9"><rect x="20.373" y="139.212" width="136.093" height="4.767" rx="2.384"/><rect x="20.373" y="147.158" width="91.35" height="4.767" rx="2.384"/></g><path fill-rule="evenodd" clip-rule="evenodd" d="M176.801 151.273a5.705 5.705 0 10.001-11.409 5.705 5.705 0 00-.001 11.409z" fill="#DDE3E9"/><rect x="13.039" y="167.979" width="183.358" height="31.782" rx="4" fill="#fff"/><g clip-path="url(#clip2)" fill="#DDE3E9"><rect x="20.373" y="177.514" width="136.093" height="4.767" rx="2.384"/><rect x="20.373" y="185.459" width="91.35" height="4.767" rx="2.384"/></g><path fill-rule="evenodd" clip-rule="evenodd" d="M176.801 189.575a5.705 5.705 0 100-11.41 5.705 5.705 0 000 11.41z" fill="#DDE3E9"/><rect x="13.039" y="282.884" width="183.358" height="31.782" rx="4" fill="#fff"/><g clip-path="url(#clip3)" fill="#DDE3E9"><rect x="20.373" y="292.418" width="136.093" height="4.767" rx="2.384"/><rect x="20.373" y="300.364" width="91.35" height="4.767" rx="2.384"/></g><path fill-rule="evenodd" clip-rule="evenodd" d="M176.801 304.479a5.705 5.705 0 10.001-11.409 5.705 5.705 0 00-.001 11.409z" fill="#DDE3E9"/><rect x="13.039" y="244.582" width="183.358" height="31.782" rx="4" fill="#fff"/><g clip-path="url(#clip4)" fill="#DDE3E9"><rect x="20.373" y="254.117" width="136.093" height="4.767" rx="2.384"/><rect x="20.373" y="262.062" width="91.35" height="4.767" rx="2.384"/></g><path fill-rule="evenodd" clip-rule="evenodd" d="M176.801 266.178a5.705 5.705 0 10.001-11.409 5.705 5.705 0 00-.001 11.409z" fill="#DDE3E9"/><rect x="13.039" y="206.281" width="183.358" height="31.782" rx="4" fill="#fff"/><g clip-path="url(#clip5)" fill="#DDE3E9"><rect x="20.373" y="215.815" width="136.093" height="4.767" rx="2.384"/><rect x="20.373" y="223.761" width="91.35" height="4.767" rx="2.384"/></g><path fill-rule="evenodd" clip-rule="evenodd" d="M176.801 227.876a5.705 5.705 0 10.001-11.409 5.705 5.705 0 00-.001 11.409z" fill="#DDE3E9"/><path opacity=".4" d="M412.027 277.205a31.204 31.204 0 10-20.566-58.922l10.283 29.461 10.283 29.461z" fill="#fff"/><circle opacity=".4" cx="318.5" cy="33.5" r="15.5" fill="#fff"/><defs><clipPath id="clip0"><path fill="#fff" d="M20.373 96.347h136.093v15.321H20.373z"/></clipPath><clipPath id="clip1"><path fill="#fff" d="M20.373 139.212h136.093v12.713H20.373z"/></clipPath><clipPath id="clip2"><path fill="#fff" d="M20.373 177.514h136.093v12.713H20.373z"/></clipPath><clipPath id="clip3"><path fill="#fff" d="M20.373 292.418h136.093v12.713H20.373z"/></clipPath><clipPath id="clip4"><path fill="#fff" d="M20.373 254.117h136.093v12.713H20.373z"/></clipPath><clipPath id="clip5"><path fill="#fff" d="M20.373 215.815h136.093v12.713H20.373z"/></clipPath></defs></svg>