<svg width="458" height="253" fill="none" xmlns="http://www.w3.org/2000/svg"><path d="M226.199 252.369c124.927 0 226.199-7.084 226.199-15.824 0-8.739-101.272-15.823-226.199-15.823C101.273 220.722 0 227.806 0 236.545c0 8.74 101.273 15.824 226.199 15.824z" fill="#003269"/><path d="M375.385 187.213c0 25.644 16.088 46.395 35.97 46.395l-35.97-46.395z" fill="#3F3D56"/><path d="M411.354 233.608c0-25.932 17.953-46.916 40.14-46.916l-40.14 46.916z" fill="#0A6EAA"/><path d="M388.417 189.538c0 24.359 10.259 44.07 22.938 44.07l-22.938-44.07z" fill="#0A6EAA"/><path d="M411.354 233.608c0-33.136 20.751-59.949 46.395-59.949l-46.395 59.949z" fill="#3F3D56"/><path d="M403.787 233.935s5.101-.157 6.639-1.251c1.537-1.095 7.846-2.402 8.228-.647.381 1.756 7.666 8.732 1.907 8.779-5.759.046-13.382-.897-14.916-1.832-1.535-.935-1.858-5.049-1.858-5.049z" fill="#A8A8A8"/><path opacity=".2" d="M420.663 240.205c-5.759.046-13.381-.897-14.915-1.832-1.169-.712-1.635-3.266-1.79-4.444l-.171.006s.323 4.115 1.858 5.049c1.534.935 9.157 1.878 14.916 1.832 1.662-.014 2.236-.605 2.205-1.481-.231.529-.865.86-2.103.87z" fill="#000"/><path d="M314.705 39.485s5.19 10.9 3.114 16.09c-2.076 5.19 7.785 10.9 7.785 10.9l12.976-7.267v-9.343l-2.076-4.152s-8.305-4.671-7.266-11.938c1.038-7.266-14.533 5.71-14.533 5.71z" fill="#FFB9B9"/><path opacity=".1" d="M314.705 39.485s5.19 10.9 3.114 16.09c-2.076 5.19 7.785 10.9 7.785 10.9l12.976-7.267v-9.343l-2.076-4.152s-8.305-4.671-7.266-11.938c1.038-7.266-14.533 5.71-14.533 5.71z" fill="#000"/><path d="M304.843 85.16s-1.038 11.419-1.038 12.976c0 1.557-1.557 6.747-1.557 6.747s-5.709 26.471-9.343 29.066c-3.633 2.595-5.709 18.685 0 17.647 5.71-1.038 7.267-15.052 7.267-15.052l11.817-22.314 1.678-26.994-8.824-2.076z" fill="#FFB9B9"/><path d="M308.995 62.322h-4.152s-4.152 24.914 0 25.952c4.152 1.038 11.938 1.038 11.938 1.038l-7.786-26.99z" fill="#0A6EAA"/><path d="M332.352 222.704l2.076 9.861 4.152-3.114-2.076-8.823-4.152 1.556v.52z" fill="#FFB9B9"/><path d="M313.667 117.34l-3.114 2.076s-1.557 18.166 2.076 32.18 6.228 30.623 6.228 30.623 6.229 41.523 7.786 42.561c1.557 1.038 11.418 1.557 11.937-.519.519-2.076-3.633-41.004-3.633-41.004s-3.114-32.699-.519-36.851c0 0 8.305 35.813 10.9 39.446 0 0 3.633 39.447 5.709 40.485 2.076 1.038 11.938 1.557 12.457-.519.519-2.076-3.114-46.713-4.671-50.346-1.557-3.634-2.076-57.613-5.71-57.094-3.633.519-39.446-1.038-39.446-1.038z" fill="#2F2E41"/><path d="M319.895 44.156c6.593 0 11.938-5.345 11.938-11.938 0-6.593-5.345-11.938-11.938-11.938-6.593 0-11.938 5.345-11.938 11.938 0 6.593 5.345 11.938 11.938 11.938z" fill="#FFB9B9"/><path d="M324.567 58.69l-2.595-4.672s-3.114-4.153-4.671-3.114c-1.557 1.038-1.557 4.67-1.557 4.67s-11.938 4.153-10.9 9.862c1.038 5.71 7.786 15.571 7.786 15.571s1.038 8.305 0 10.381c-1.039 2.076-3.115 3.633-1.558 5.71 1.558 2.076 2.077 2.595 1.558 5.19-.52 2.595-1.558 3.633-.52 4.671 1.039 1.038-.519 11.938-1.557 12.457-1.038.519 33.219 5.709 35.814 4.152 2.595-1.557 9.861-1.557 9.342-3.114-.519-1.557-2.595-10.9-2.595-12.457 0-1.557 0-8.304-.519-8.823-.519-.52.519-8.305.519-8.305l-2.595-21.8 8.304-12.975s-2.076-7.267-11.937-8.305c-9.862-1.038-12.59-3.633-12.59-3.633s-.905 4.671-2.981 5.71c-2.076 1.038-6.748 8.823-6.748 8.823z" fill="#0A6EAA"/><path d="M362.456 72.703l3.114 23.356-6.747 33.738s-2.595 19.204-7.785 18.685c-5.191-.519 0-20.761 0-20.761l4.152-31.662s-6.748-16.09-5.191-18.166c1.558-2.076 12.457-5.19 12.457-5.19z" fill="#FFB9B9"/><path d="M337.023 227.894s-6.747-3.633-8.304-3.114c-1.557.519-3.114 7.785-3.114 7.785s-11.938 8.824-4.153 10.9c7.786 2.076 10.9-2.595 10.9-2.595s7.786-4.152 7.786-5.191c0-1.038-1.038-7.785-1.038-7.785h-2.077zm15.571-2.595s-3.114 17.128-1.038 18.166c2.076 1.038 10.9 2.595 11.938 0 1.038-2.595 1.038-8.824.519-10.9-.519-2.076-2.076-7.266-2.076-7.266h-9.343z" fill="#fff"/><path d="M317.813 13.336a2.768 2.768 0 00-1.43-.043c-.595.194-.987.745-1.441 1.176-1.19 1.13-2.891 1.484-4.443 2.02-1.551.535-3.184 1.482-3.572 3.077a16.75 16.75 0 00-.169 1.937c-.231 1.881-1.666 3.575-1.41 5.453.168 1.227 1.043 2.268 1.222 3.493.2 1.366-.49 2.788-.105 4.114.377 1.3 1.654 2.091 2.829 2.76.505-3.2 1.11-6.383 1.818-9.548a3.44 3.44 0 01.647-1.578c1.043-1.182 3.09-.509 4.444-1.316.515-.307.897-.814 1.437-1.072 1.565-.748 3.257.91 4.991.925.766.006 1.605-.297 2.251.112.286.209.513.488.659.81.618 1.16.957 2.463 1.678 3.562.721 1.099 2.011 1.995 3.289 1.688-.195-.991.581-1.883.891-2.844.535-1.653-.339-3.448-.128-5.172.197-1.62 1.252-3.52.095-4.67a3.282 3.282 0 00-1.369-.688c-4.097-1.3-7.881-3.479-12.184-4.196z" fill="#2F2E41"/><path d="M353.632 54.018l5.191 2.076s6.747 21.8 5.19 21.8c-1.557 0-15.571 3.632-15.571 2.075s1.038-25.951 5.19-25.951zm-82.193-44.28H110.767v52.746h6.086v13.795l13.795-13.795h140.791V9.738zm0 142.008H110.767v52.746h6.086v13.795l13.795-13.795h140.791v-52.746z" fill="#0A6EAA"/><path d="M131.054 91.697h160.672v52.746h-6.086v13.795l-13.795-13.795H131.054V91.697z" fill="#fff"/><path opacity=".3" d="M252.775 18.461H129.43v4.869h123.345v-4.869zm-61.673 9.332H129.43v4.87h61.672v-4.87zM136.328 53.76a6.897 6.897 0 100-13.794 6.897 6.897 0 000 13.794z" fill="#fff"/><path d="M269.004 99.609H145.66v4.869h123.344v-4.87zm-61.672 9.332H145.66v4.869h61.672v-4.869zm-54.775 25.967a6.897 6.897 0 10.001-13.795 6.897 6.897 0 00-.001 13.795z" fill="#00AAC8"/><path opacity=".3" d="M252.775 160.47H129.43v4.869h123.345v-4.869zm-61.673 9.332H129.43v4.869h61.672v-4.869zm-54.774 25.967a6.897 6.897 0 100-13.795 6.897 6.897 0 000 13.795z" fill="#fff"/><path d="M54.873 105.84c.107.561.217 1.125.317 1.683a149.807 149.807 0 012.026 16.175l19.973-32.55.281.4a59.394 59.394 0 00-2.018-14.853 123.129 123.129 0 00-1.684-5.646L54.873 105.84z" fill="#6C63FF"/><path d="M64.64 216.279c.067.912.18 1.82.338 2.721 0 0 7.402 5.033 7.995-.592.384-3.666-.486-5.321-1.143-6.029l-.01-.011a2.278 2.278 0 01-.624-1.544v-6.628l-6.514 2.072.296 5.626c-.438 1.169-.444 2.916-.337 4.385z" fill="#FFB9B9"/><path opacity=".05" d="M64.64 216.279c.067.912.18 1.82.338 2.721 0 0 7.402 5.033 7.994-.592.385-3.666-.485-5.321-1.143-6.029a1.765 1.765 0 00-1.818-.189c-1.184-.527-2.487.352-3.564 1.489a10.49 10.49 0 00-1.807 2.6z" fill="#000"/><path d="M70.011 212.782s3.257-1.776 3.85 6.218c.591 7.994.888 7.106.888 7.106s2.96 7.106-3.257 6.217c-6.218-.888-9.179-1.48-8.883-5.033.179-2.142.68-5.251 1.05-7.384a10.859 10.859 0 012.786-5.636c1.08-1.137 2.382-2.014 3.566-1.488z" fill="#fff"/><path d="M104.794 222.945l3.395 1.637s10.604 1.628 7.241-4.411a24.46 24.46 0 01-2.212-5.713 38.04 38.04 0 01-1.174-8.472l-8.972 1.252c2.926 3.896 2.555 10.216 2.102 13.526-.183 1.334-.38 2.181-.38 2.181z" fill="#FFB9B9"/><path opacity=".05" d="M104.795 222.945l3.394 1.637s10.605 1.628 7.241-4.411a24.501 24.501 0 01-2.211-5.713c-2.06.396-3.628 3.362-3.628 3.362-1.661 5.767-3.155 4.326-4.416 2.944-.183 1.334-.38 2.181-.38 2.181z" fill="#000"/><path d="M109.787 218.379s2.644-5.001 5.577-2.889c2.933 2.112 1.478 5.129 10.977 8.084 9.5 2.954 3.222 9.224-2.591 8.745-5.812-.479-18.204-2.737-18.204-2.737s-3.222-9.224-1.727-9.433c1.496-.208 3.559 6.598 5.968-1.77z" fill="#fff"/><path opacity=".3" d="M123.359 231.201c3.774.311 7.742-2.223 7.463-4.847 1.803 2.964-2.761 6.32-7.072 5.965-5.813-.479-18.205-2.737-18.205-2.737s-.152-.434-.373-1.115c.36.066 12.462 2.262 18.187 2.734zm-60.734-4.081c.341 2.663 3.295 3.223 8.867 4.019 2.833.405 3.758-.851 3.928-2.338.185 1.904-.356 4.033-3.928 3.522-6.218-.888-9.179-1.48-8.883-5.033l.016-.17z" fill="#fff"/><path d="M49.082 111.553l-.983 14.742s-.786 14.939 5.308 16.119c6.093 1.179 0-19.067 0-19.067V109.98l-4.325 1.573z" fill="#FBBEBE"/><path d="M54.193 57.89l-.787 1.768s.197 12.384 0 13.367c-.196.983-2.752 8.65-2.752 9.435 0 .787-1.965 23.589-2.358 24.965-.394 1.376-2.163 5.7-.59 6.29 1.572.59 4.52-1.769 5.7 0 1.18 1.769 2.163 0 2.163-.59s.393-11.794 2.752-14.939c2.358-3.145 4.52-10.222 4.914-11.598.393-1.376.983-21.229 1.18-21.622.196-.393-.787-5.7-.787-5.7l-9.435-1.377z" fill="#fff"/><path d="M65.396 78.726s-2.358 9.238-3.931 11.007c-1.573 1.77-9.435 14.94-7.077 32.434 2.36 17.495 6.487 40.297 6.487 40.297s.59 8.059-.196 10.221c-.787 2.163 3.538 36.562 3.538 36.562s6.094 4.718 9.435-1.179c0 0-.786-12.777 0-13.957.787-1.179 0-22.409 0-22.409s.59-52.876 3.735-50.714c3.145 2.162 12.777 38.92 12.777 38.92s4.128 14.153 3.931 15.333c-.196 1.179 3.538 15.922 3.538 15.922s3.539 20.443 4.915 20.836c1.376.393 9.828.59 10.614-1.573l-2.358-18.477s-2.359-21.033-3.539-23.981c-1.179-2.949-3.145-44.818-8.845-57.202 0 0-2.163-19.853-3.735-22.802 0 0-.922-4.05.216-7.832 0 0-27.342.166-29.505-1.406z" fill="#003269"/><path d="M77.093 41.87c9.12 0 16.512-9.374 16.512-20.935C93.605 9.373 86.212 0 77.093 0c-9.12 0-16.512 9.373-16.512 20.934 0 11.562 7.393 20.935 16.512 20.935z" fill="#2F2E41"/><path d="M111.001 45.506l-2.556 5.504-30.271 8.845S57.14 65.95 54.979 56.12c-2.163-9.828 8.256-10.811 8.256-10.811s3.931-2.752 8.845-5.504c1.644-.922 2.188-2.414 2.184-3.992a8.263 8.263 0 00-.132-1.4 11.84 11.84 0 00-.393-1.576 18.064 18.064 0 00-1.659-3.647s12.974-5.11 12.777-2.359c-.083.992.024 1.99.315 2.941.268.833.63 1.633 1.079 2.385.22.379.466.772.739 1.189.354.54.757 1.116 1.209 1.741 2.555 3.539 11.008 3.539 11.008 3.539 6.683-.787 11.794 6.88 11.794 6.88zm31.254 31.451s14.153 10.418 16.905 10.221c2.752-.197 18.871-1.18 15.136 2.556-3.735 3.734-20.64 1.376-20.64 1.376l-15.529-9.829 4.128-4.325z" fill="#FBBEBE"/><path opacity=".1" d="M85.171 29.772a11.211 11.211 0 01-11.432 3.065 18.066 18.066 0 00-1.659-3.647s12.974-5.11 12.777-2.359c-.083.992.024 1.99.314 2.941z" fill="#000"/><path d="M76.995 31.942c6.188 0 11.204-5.016 11.204-11.204 0-6.188-5.016-11.204-11.204-11.204-6.188 0-11.205 5.016-11.205 11.204 0 6.188 5.017 11.204 11.205 11.204z" fill="#FBBEBE"/><path d="M63.038 53.368s48.749-11.008 48.946-9.435c.196 1.573 2.162 4.718 2.162 4.718l-11.401 12.973s1.376 6.29-1.376 7.666c-2.752 1.376-3.145 11.794-5.7 11.991-2.556.197-32.434-.197-32.63-1.769-.197-1.573.785-2.555 0-2.949-.787-.393-1.967-.393-.984-2.358.983-1.966.983-10.222.983-10.222L53.8 59.659s-1.267-3.663 1.038-4.289c2.304-.626 8.201-2.002 8.201-2.002z" fill="#fff"/><path d="M112.377 48.258h1.769s5.307 3.538 6.683 6.683c1.376 3.145 6.29 7.273 7.47 8.452 1.179 1.18 17.298 12.384 17.101 13.957-.197 1.572-4.718 3.145-4.914 4.914-.197 1.769 1.966 2.555.59 2.555s-9.829-4.914-12.974-6.683c-3.145-1.77-9.632-6.88-10.418-8.256-.786-1.376-6.094-3.735-6.683-4.718-.59-.982-9.829-5.503-9.829-5.503l11.205-11.401z" fill="#fff"/><path d="M78.567 20.64c6.46 0 11.696-3.213 11.696-7.175 0-3.963-5.237-7.175-11.696-7.175-6.46 0-11.696 3.212-11.696 7.175 0 3.962 5.236 7.175 11.696 7.175z" fill="#2F2E41"/></svg>