<svg width="215" height="250" fill="none" xmlns="http://www.w3.org/2000/svg"><path d="M163.176 234.756c-.479.01-.943.173-1.323.466-1.129-2.982-2.875-4.898-4.837-4.898-1.963 0-3.709 1.916-4.837 4.898a2.249 2.249 0 00-1.324-.466c-2.229 0-4.037 3.77-4.037 8.421h20.395c0-4.651-1.807-8.421-4.037-8.421z" fill="#00AAC8"/><path d="M208.215 242.237H0v.94h208.215v-.94z" fill="#3F3D56"/><path d="M185.543 243.177h-28.855v-.47c0-6.727 2.634-11.996 5.995-11.996a3.351 3.351 0 011.582.41c1.685-4.125 4.163-6.476 6.851-6.476 2.688 0 5.166 2.351 6.851 6.476a3.347 3.347 0 011.581-.41c3.362 0 5.995 5.269 5.995 11.996v.47zm-27.91-.94h26.966c-.117-5.785-2.383-10.586-5.051-10.586a2.613 2.613 0 00-1.536.548l-.498.361-.217-.575c-1.539-4.067-3.792-6.4-6.181-6.4-2.389 0-4.642 2.333-6.181 6.4l-.218.575-.498-.361a2.609 2.609 0 00-1.536-.548c-2.668 0-4.933 4.801-5.05 10.586zM77.002 73.844c.09-.14-.142-.444-.515-.68-.373-.237-.747-.315-.836-.175-.088.14.142.445.515.68.374.237.748.315.837.175z" fill="#3F3D56"/><path d="M75.692 71.24a1.4 1.4 0 011.932-.433l17.735 11.231a1.4 1.4 0 01.434 1.931l-20.1-12.728z" fill="#00AAC8"/><path d="M74.016 71.835l.558-.881a.956.956 0 011.32-.297l20.193 12.788a1.133 1.133 0 01.351 1.563l-.464.732-21.958-13.905z" fill="#3F3D56"/><path d="M77.022 72.319l-.214.337 1.35.856.215-.338-1.352-.855zm1.858 1.176l-.214.338 1.351.856.214-.338-1.351-.856z" fill="#D0CDE1"/><path d="M105.646 32.455c6.962 0 12.606-5.644 12.606-12.606s-5.644-12.606-12.606-12.606c-6.963 0-12.606 5.644-12.606 12.606s5.643 12.606 12.606 12.606z" fill="#FFB8B8"/><path d="M106.415 28.766s6.149 9.685 4.612 12.452c-1.538 2.767-6.303 10.3-6.303 10.3s21.215-15.68 18.448-19.063c0 0-6.303-5.38-6.611-8.763l-10.146 5.074zm9.839 185.086l.615 9.685 9.839-1.691-.615-9.378-9.839 1.384zm-43.814 5.389l-1.845 6.149 10.915 1.999 1.538-5.688-10.608-2.46z" fill="#FFB8B8"/><path d="M117.253 83.418l.999 6.841s12.607 25.059-1.076 37.357l-18.448 45.505s-1.998 23.675-7.84 31.977l-5.38 18.909-15.989-4.151 12.914-41.047s-.154-17.218 1.69-21.061l8.149-36.589 1.46-39.125s21.523-1.537 23.521 1.384z" fill="#003269"/><path d="M74.78 56.14l.115.26a27.12 27.12 0 011.612-.65l-.097-.267c-.549.2-1.097.421-1.63.657zm-3.103 1.632l.151.242c.49-.303.998-.593 1.51-.86l-.134-.253c-.517.271-1.03.565-1.527.871zm-2.849 2.042l.183.22c.446-.368.91-.724 1.378-1.06l-.166-.231c-.474.34-.945.7-1.395 1.071zm-2.538 2.41l.211.192a26.32 26.32 0 011.221-1.234l-.198-.207c-.423.4-.838.82-1.233 1.249zm-2.184 2.736l.237.161c.329-.472.68-.94 1.04-1.39l-.224-.176c-.365.454-.72.926-1.053 1.405zm-1.791 3.008l.256.128a26.07 26.07 0 01.843-1.518l-.248-.145c-.3.5-.586 1.016-.851 1.535zm-1.366 3.222l.272.093c.19-.543.401-1.087.629-1.616l-.266-.111a25.93 25.93 0 00-.635 1.635zm-.793 2.813l.315-.085c.076-.329.159-.656.247-.98l-.278-.072c-.103.376-.198.754-.284 1.137zm8.101-27.977l.166.378a38.91 38.91 0 012.341-.944l-.14-.388c-.799.292-1.594.612-2.367.954zm-4.507 2.371l.22.35a35.44 35.44 0 012.191-1.249l-.194-.367a37.73 37.73 0 00-2.217 1.266zm-4.136 2.964l.266.319a37.99 37.99 0 012-1.538l-.241-.336a37.258 37.258 0 00-2.025 1.556zM55.93 54.86l.306.28a37.986 37.986 0 011.772-1.793l-.287-.3a37.175 37.175 0 00-1.791 1.813zm-3.172 3.973l.343.234c.478-.685.988-1.365 1.512-2.018l-.326-.256a36.562 36.562 0 00-1.529 2.04zm-2.601 4.368l.372.185c.381-.745.793-1.487 1.224-2.203l-.36-.211a36.811 36.811 0 00-1.236 2.229zm-1.984 4.679l.395.135c.275-.79.582-1.58.913-2.347l-.385-.162a37.738 37.738 0 00-.923 2.374zm-1.152 4.083l.458-.123c.11-.477.23-.953.358-1.421l-.403-.106c-.15.545-.287 1.095-.413 1.65zm14.358-40.201l.248.562a57.915 57.915 0 013.484-1.405l-.21-.577c-1.188.433-2.372.91-3.522 1.42zm-6.707 3.528l.327.522a52.775 52.775 0 013.26-1.86l-.287-.546a56.107 56.107 0 00-3.3 1.883zm-6.156 4.412l.395.474a56.658 56.658 0 012.978-2.29l-.36-.5a55.54 55.54 0 00-3.013 2.316zm-5.484 5.208l.456.416a56.603 56.603 0 012.637-2.669l-.427-.446a55.44 55.44 0 00-2.666 2.699zm-4.721 5.913l.51.348a55.935 55.935 0 012.25-3.004l-.485-.38c-.79.98-1.556 2.002-2.275 3.036zm-3.871 6.501l.553.276a54.722 54.722 0 011.821-3.28l-.535-.314a54.727 54.727 0 00-1.84 3.318zm-2.953 6.964l.587.2c.41-1.174.867-2.35 1.359-3.492l-.573-.241a56.15 56.15 0 00-1.373 3.533zm-1.714 6.077l.681-.184c.163-.709.343-1.417.534-2.115l-.601-.157a56.04 56.04 0 00-.614 2.456z" fill="#0A6EAA"/><path d="M114.87 126.07l6.918 46.735s3.69 17.987 3.997 24.905c.307 6.918 1.537 15.834 1.537 15.834l-12.452 1.999-12.299-60.264 12.299-29.209z" fill="#003269"/><path d="M128.552 216.926l-9.839.615s-3.663-4.151-3.445-1.998c.217 2.152-2.089 11.222-2.089 11.222l-7.687 7.994s-15.22 0-12.913 7.38c2.306 7.379 20.292 1.229 20.292 1.229l6.918-2.306v3.075s11.838 1.691 12.145-1.384c.308-3.074 0-6.918-.461-7.225-.461-.307-2.921-18.602-2.921-18.602zm-45.472 7.589s-7.032-.563-8.017-1.407c-.985-.844-2.532-4.36-4.642-2.11-2.11 2.251-9.705 9.565-9.705 9.565l-7.314 3.516s-9.565-2.531-12.8 3.376c-3.235 5.908 15.894 12.097 20.817 10.128l6.19-1.266-.282 2.953s8.72 1.97 9.986-.562 2.25-5.486 1.688-6.33c-.562-.844 4.08-17.863 4.08-17.863z" fill="#2F2E41"/><path d="M135.009 48.136l-10.891 24.095-4.728 10.46-1.753 3.878-25.366-.307 2.614-17.68c-3.69-9.53 5.073-13.374 5.073-13.374l7.379-7.864v1.253s7.225-8.609 10.454-13.528c3.228-4.92 7.686-3.075 7.686-3.075 7.687-.769 9.532 16.142 9.532 16.142z" fill="#0A6EAA"/><path opacity=".2" d="M124.119 72.23l-4.729 10.46c-1.519-2.84-2.675-6.058-2.675-7.958 0-5.227 5.227-2.46 5.227-2.46s-4.228-23.137-4.228-30.055c0-4.595 3.831 15.798 6.405 30.014z" fill="#000"/><path d="M119.943 73.963l-22.906-.46S80.28 74.885 82.74 81.65c2.46 6.764 15.834 0 15.834 0l26.75 4.15-5.381-11.837z" fill="#FFB8B8"/><path d="M124.248 33.224s-7.994.615-7.994 7.533 7.225 31.515 7.225 31.515-5.227-2.767-5.227 2.46 8.763 20.446 9.686 10.3c0 0 13.221 6.457 12.452-5.688-.769-12.145-9.07-37.818-9.07-37.818s-.923-8.763-7.072-8.302z" fill="#0A6EAA"/><path d="M106.065 18.478c-.883-.854-.867-2.295-1.578-3.297-1.117-1.572-3.443-1.467-5.353-1.195a14.757 14.757 0 00-3.736.867 3.68 3.68 0 00-2.161 2.475c-.15.62-.48-1.138-.815-3.415a11.089 11.089 0 016.144-11.608c2.16-1.05 4.423-1.977 6.811-2.237 2.387-.26 4.935.211 6.808 1.715.856.688 1.552 1.57 2.47 2.173 1.612 1.058 3.653 1.11 5.569 1.333 2.181.188 4.297.838 6.209 1.904a8.392 8.392 0 013.94 5.011c.607 2.472-.383 5.393-2.813 6.465a2.94 2.94 0 00-1.098.806c-1.995 2.439 1.226 3.773 1.693 5.896.389 1.771-1.314 3.375-3.061 3.863a7.3 7.3 0 01-8.378-4.003c-.599-1.39-.736-2.927-.899-4.431-.186-1.722-4.703-4.842-1.654-2.495a4.259 4.259 0 011.353 1.71c.927 2.221-.998 3.481-2.031 5.067a5.64 5.64 0 00-.032 5.963 6.5 6.5 0 01-2.988-7.738c.277-.753.696-1.45.948-2.212.393-1.19.046-3.501-1.71-3.033-1.253.335-2.324 1.688-3.638.416z" fill="#ABA469"/><path d="M208.796 180.383a5.64 5.64 0 100-11.281 5.64 5.64 0 000 11.281z" fill="#003269" fill-opacity=".3"/><path d="M194.697 202.473a9.4 9.4 0 100-18.8 9.4 9.4 0 100 18.8z" fill="#00AAC8"/><path d="M197.705 198.713h-.94v43.711h.94v-43.711z" fill="#3F3D56"/><path d="M197.517 199.653a9.871 9.871 0 119.87-9.87 9.882 9.882 0 01-9.87 9.87zm0-18.8a8.926 8.926 0 00-8.251 5.513 8.932 8.932 0 0011.668 11.667 8.926 8.926 0 002.894-14.562 8.937 8.937 0 00-6.311-2.618z" fill="#3F3D56"/><path d="M205.507 182.733a6.114 6.114 0 01-5.645-3.772 6.103 6.103 0 011.324-6.659 6.116 6.116 0 016.659-1.324 6.105 6.105 0 011.98 9.963 6.114 6.114 0 01-4.318 1.792zm0-11.281a5.172 5.172 0 00-3.656 8.826 5.166 5.166 0 005.634 1.121 5.166 5.166 0 001.676-8.431 5.181 5.181 0 00-3.654-1.516z" fill="#3F3D56"/></svg>