<svg width="575" height="440" fill="none" xmlns="http://www.w3.org/2000/svg"><path d="M0 386a193.004 193.004 0 00136.472-56.528 193.003 193.003 0 000-272.944A193.002 193.002 0 000 0v386z" fill="#D2D1D1" fill-opacity=".28"/><path d="M110.833 125.248l-.525-.524c-1.366-1.258-3.153-1.991-5.15-1.991-.63 0-1.156.104-1.786.209-1.366.315-2.522.944-3.468 1.887l-.21.21-4.204 4.193-1.051 1.048c-1.681 1.677-4.414 1.677-6.2 0-1.682-1.677-1.682-4.403 0-6.185l10.824-10.587c-2.732-2.831-6.62-4.508-10.825-4.508C79.832 109 73 115.814 73 124.2c0 4.193 1.682 7.967 4.52 10.797 1.68-1.677 4.413-1.677 6.2 0a4.372 4.372 0 011.26 3.04c0 .42.106.839.421 1.049.315.419.84.734 1.471.734 1.156 0 2.207.419 3.048 1.258a4.369 4.369 0 011.261 3.04c0 .943.84 1.782 1.787 1.782a4.21 4.21 0 013.047 1.258 4.368 4.368 0 011.261 3.04c0 .943.841 1.782 1.787 1.782 1.156 0 2.207.419 3.048 1.258a4.372 4.372 0 011.261 3.04c0-1.049.841-1.782 1.786-1.782 1.156 0 2.207-.42 3.048-1.258a4.37 4.37 0 001.261-3.04c0-1.049.841-1.782 1.787-1.782 1.156 0 2.207-.42 3.047-1.258a4.37 4.37 0 001.261-3.04c0-1.049.841-1.783 1.787-1.783a4.217 4.217 0 003.048-1.257c1.681-1.678 1.681-4.403 0-6.185l-9.564-9.645z" fill="#fff"/><path d="M88.238 130.385c1.681 1.677 4.414 1.677 6.2 0l1.051-1.048 4.204-4.194.21-.209c.946-.944 2.207-1.573 3.468-1.887.525-.105 1.156-.21 1.787-.21 1.996 0 3.783.734 5.149 1.992l.526.524 9.773 9.749c2.733-2.725 4.519-6.604 4.519-10.797 0-8.387-6.831-15.2-15.238-15.2-4.204 0-7.987 1.677-10.825 4.507L88.238 124.2c-1.682 1.677-1.682 4.508 0 6.185zm10.826 21.804c-.946 0-1.787-.838-1.787-1.782 0-1.153-.42-2.201-1.261-3.04a4.396 4.396 0 00-3.048-1.258c-.946 0-1.786-.838-1.786-1.782 0-1.153-.42-2.201-1.261-3.04a4.396 4.396 0 00-3.048-1.258 1.84 1.84 0 01-1.471-.733c-.21-.315-.42-.629-.42-1.049a4.194 4.194 0 00-1.262-3.04c-1.681-1.677-4.414-1.677-6.2 0-1.682 1.678-1.682 4.403 0 6.185a4.392 4.392 0 003.047 1.258c.946 0 1.787.839 1.787 1.782 0 1.153.42 2.202 1.261 3.04a4.392 4.392 0 003.048 1.258c.946 0 1.786.839 1.786 1.782 0 1.153.42 2.202 1.261 3.04a4.392 4.392 0 003.048 1.258c.946 0 1.787.839 1.787 1.782 0 1.153.42 2.202 1.26 3.04 1.682 1.678 4.415 1.678 6.201 0a4.367 4.367 0 001.261-3.04c0-1.153-.42-2.201-1.261-3.04-.735-.943-1.786-1.363-2.942-1.363z" fill="#1D3767"/><path d="M163.697 137.409h-15.028v12.369h-4.729V120.95h20.703v4.403h-15.974v7.653h15.028v4.403zm21.649 3.983c0 6.29-4.519 8.91-9.143 8.91-4.624 0-9.143-2.62-9.143-8.91V130.07h4.309v11.007c0 3.774 2.102 5.242 4.834 5.242 2.733 0 4.835-1.363 4.835-5.242V130.07h4.308v11.322zm18.598-7.443h-7.566v8.596c0 2.621 1.366 3.669 3.153 3.669 1.366 0 2.837-.629 3.993-1.363l1.682 3.46c-1.577 1.048-3.574 1.991-6.096 1.991-4.519 0-7.146-2.411-7.146-7.652v-8.701h-3.994v-3.879h3.994v-5.975h4.309v5.975h7.566v3.879h.105zm21.545 7.443c0 6.29-4.519 8.91-9.143 8.91-4.624 0-9.143-2.62-9.143-8.91V130.07h4.309v11.007c0 3.774 2.102 5.242 4.834 5.242 2.733 0 4.834-1.363 4.834-5.242V130.07h4.309v11.322zm17.656-11.322l-1.051 4.298c-.945-.524-2.207-.733-3.257-.733-2.733 0-4.73 1.991-4.73 5.346v10.902h-4.308V130.07h4.308v2.202c1.262-1.887 3.363-2.726 5.78-2.726 1.262 0 2.313.105 3.258.524zm19.655 9.854c0 .524 0 1.153-.105 1.573h-14.608c.63 3.564 3.048 5.031 5.885 5.031 1.997 0 4.099-.733 5.78-2.096l2.102 3.04c-2.417 2.097-5.15 2.83-8.197 2.83-5.991 0-10.089-4.088-10.089-10.378 0-6.185 3.993-10.378 9.879-10.378 5.464 0 9.353 4.193 9.353 10.378zm-14.713-1.677h10.299c-.526-3.04-2.312-4.822-5.045-4.822-3.152-.105-4.834 1.887-5.254 4.822zm37.2.21v11.321h-4.624V120.95h11.245c6.725 0 10.299 3.355 10.299 8.806 0 5.451-3.574 8.806-10.299 8.806h-6.621v-.105zm0-13.209v8.701h6.41c3.784 0 5.57-1.363 5.57-4.403 0-2.935-1.786-4.402-5.57-4.402h-6.41v.104zm36.362 14.676c0 .524 0 1.153-.105 1.573h-14.607c.63 3.564 3.047 5.031 5.885 5.031 1.996 0 4.098-.733 5.78-2.096l2.102 3.04c-2.418 2.097-5.15 2.83-8.198 2.83-5.99 0-10.088-4.088-10.088-10.378 0-6.185 3.993-10.378 9.878-10.378 5.465 0 9.353 4.193 9.353 10.378zm-14.712-1.677h10.299c-.526-3.04-2.312-4.822-5.045-4.822-3.153-.105-4.834 1.887-5.254 4.822zm32.052-8.177l-1.051 4.298c-.946-.524-2.207-.733-3.258-.733-2.733 0-4.729 1.991-4.729 5.346v10.902h-4.309V130.07h4.309v2.202c1.261-1.887 3.363-2.726 5.78-2.726 1.261 0 2.207.105 3.258.524zm16.815 3.879h-6.831v15.829h-4.309v-15.829h-3.993v-3.879h3.993v-3.354c0-3.984 1.997-7.128 6.621-7.128 2.312 0 4.099.628 5.57 1.467l-1.577 3.669c-1.05-.629-2.417-1.048-3.678-1.048-1.681 0-2.627 1.048-2.627 3.04v3.354h6.831v3.879zm20.181 5.975c0 .524 0 1.153-.106 1.573h-14.607c.63 3.564 3.047 5.031 5.885 5.031 1.997 0 4.098-.733 5.78-2.096l2.102 3.04c-2.417 2.097-5.15 2.83-8.197 2.83-5.991 0-10.089-4.088-10.089-10.378 0-6.185 3.993-10.378 9.878-10.378 5.57 0 9.354 4.193 9.354 10.378zm-14.713-1.677h10.299c-.526-3.04-2.312-4.822-5.045-4.822-3.047-.105-4.834 1.887-5.254 4.822zm34.575-5.556l-2.732 2.935c-1.366-1.258-2.838-1.992-4.729-1.992-3.363 0-5.886 2.621-5.886 6.29 0 3.774 2.523 6.29 5.886 6.29 1.891 0 3.573-.839 4.834-2.097l2.627 2.935c-1.786 2.097-4.414 3.145-7.356 3.145-6.306 0-10.404-4.507-10.404-10.378 0-5.975 4.098-10.378 10.404-10.378 2.942.105 5.57 1.153 7.356 3.25zm17.758 1.258h-7.567v8.596c0 2.621 1.367 3.669 3.153 3.669 1.366 0 2.838-.629 3.994-1.363l1.681 3.46c-1.576 1.048-3.573 1.991-6.095 1.991-4.519 0-7.146-2.411-7.146-7.652v-8.701h-3.889v-3.879h3.994v-5.975h4.308v5.975h7.567v3.879z" fill="#fff"/><path fill-rule="evenodd" clip-rule="evenodd" d="M50 57c-8.836 0-16 7.163-16 16v123c0 8.837 7.164 16 16 16h387c8.837 0 16-7.163 16-16V73c0-8.837-7.163-16-16-16H50zm-.23 9.81a4 4 0 00-4 4v127.844a4 4 0 004 4h387.46a4 4 0 004-4V70.811a4 4 0 00-4-4H49.77z" fill="#DFDFDF"/><path fill-rule="evenodd" clip-rule="evenodd" d="M449.621 159.537c-7.22 4.352-14.314 6.455-17.644 5.596-8.35-2.152-9.117-32.699-2.657-44.742 6.461-12.042 39.676-17.291 41.35 6.569.581 8.281-2.896 15.671-8.034 21.702l9.212 42.936h-26.759l4.532-32.061z" fill="#B28B67"/><path fill-rule="evenodd" clip-rule="evenodd" d="M448.283 129.595c-2.314-3.446-4.536-6.075-7.427-7.601-11.764.186-13.141-1.923-13.141-9.031 1.9-1.36 8.604-3.649 16.112-4.293 3.83-1.096 8.367-.89 12.738.938 5.396 1.531 9.964 4.828 11.982 11 7.301 12.6 1.76 25.716-5.708 30.196a101.356 101.356 0 01-5.271-6.822 6.691 6.691 0 00-5.477-11.428c-.166 4.619-.85 20.247-2.647 25.676-2.119 6.4-14.482 7.971-18.794 7.971-3.725 0-3.598-3.527-3.507-6.054.013-.364.026-.708.026-1.017 0-.645.839-.644 1.788-.642 1.232.003 2.648.006 2.648-1.408 0-1.541-2.129-2.723-4.035-3.781-1.189-.66-2.29-1.271-2.733-1.891-1.398-1.957-1.869-4.596.24-4.596 1.152 0 2.734.665 4.636 1.464 2.872 1.207 6.476 2.721 10.442 2.721 6.551 0 8.109-21.137 8.128-21.402z" fill="#191847"/><path fill-rule="evenodd" clip-rule="evenodd" d="M475.867 279.868l-41.436 104.875-27.791 88.662h-10.974l42.487-193.537h37.714z" fill="#997659"/><path fill-rule="evenodd" clip-rule="evenodd" d="M484.211 279.868c.441 36.854 6.876 86.471 7.904 88.768 1.028 2.298 70.98 58.428 70.98 58.428l-7.558 8.088S473 387.028 469.18 380.609c-3.819-6.419-16.254-65.484-26.237-100.741h41.268z" fill="#B28B67"/><path fill-rule="evenodd" clip-rule="evenodd" d="M561.782 425.875c.339-1.121 1.523-1.791 2.62-1.383 1.672.623 3.919 1.56 4.95 2.424 1.749 1.468 4.616 4.867 4.616 4.867l-30.606 36.475s-5.894-2.522-3.698-5.9c2.195-3.377 3.593-5.657 3.593-5.657l6.624-23.141a1 1 0 011.264-.678l3.405 1.08s3.703-1.726 5.19-3.499c.846-1.007 1.572-3.03 2.042-4.588z" fill="#E4E4E4"/><path fill-rule="evenodd" clip-rule="evenodd" d="M448.008 464.273l-52.176-5.663 38.669-178.742h46.732l-33.225 184.405z" fill="#022C5B"/><path fill-rule="evenodd" clip-rule="evenodd" d="M552.303 414.015l-34.225 40.51s-54.072-59.057-63.048-77.069c-8.976-18.012-16.138-97.588-16.138-97.588h52.612s3.912 70.008 5.274 73.265c1.362 3.258 55.525 60.882 55.525 60.882z" fill="#003269"/><path fill-rule="evenodd" clip-rule="evenodd" d="M401.283 186.743l29.302 16.049-10.821 11.614-21.291-19.495c-11.217-3.091-16.346-5.353-15.389-6.784.808-1.207 2.11-1.165 3.31-1.127.934.031 1.806.059 2.333-.507 1.204-1.293-1.093-5.811-3.456-10.006-2.364-4.195.163-3.83 1.609-3.226 4.729 3.201 9.53 7.695 14.403 13.482zm-29.463 22.519l12.872 7.071-.733 12.916s-8.337-6.016-15.508-8.016c-9.145-2.55-12.845-4.497-17.314-10.191-2.391-3.046-4.42-9.171-2.144-11.165.873-.765 4.126 1.042 7.445 2.887 2.529 1.405 5.097 2.832 6.679 3.158 2.129.438 1.88-2.322 1.681-4.528-.143-1.583-.26-2.88.546-2.505 3.767.064 6.476 10.373 6.476 10.373z" fill="#D2A179"/><path fill-rule="evenodd" clip-rule="evenodd" d="M444.856 199.216c-10.264-.108-23.95-2.276-38.554-11.546l-5.735 12.79c10.073 9.997 24.237 18.211 36.622 17.863 9.76-.274 14.748-12.079 7.667-19.107z" fill="#066182"/><path fill-rule="evenodd" clip-rule="evenodd" d="M376.219 210.114s37.801 13.451 54.825 9.587c1.01-3.422 2.062-6.85 3.113-10.274 4.498-14.661 8.968-29.229 10.015-42.684h23.424c2.569 0 20.027 33.467 20.043 55.209.006 7.467 2.622 13.908 5.376 20.69 4.57 11.253 9.52 23.443 3.558 42.803-5.313-1.046-14.279.123-24.036 1.395-18.261 2.381-39.295 5.124-44.346-5.616-3.769-8.015-4.892-16.787-4.398-26.005-15.536-.339-34.394-5.463-56.396-16.956-.72-8.407 8.822-28.149 8.822-28.149z" fill="#0A6EAA"/><path stroke="#BDBCBC" stroke-width="2" d="M132.547 291.414l36.038 36.038-36.038 36.039-36.038-36.039z"/><path stroke="#C9C8C8" stroke-width="2" d="M124.674 271.59l20.89 20.89-20.89 20.892-20.89-20.891z"/></svg>