<svg width="271" height="208" fill="none" xmlns="http://www.w3.org/2000/svg"><g clip-path="url(#clip0)"><path opacity=".1" d="M253.923 117.746c-9.986 14.978-7.458 35.797-2.431 52.287 1.693 5.52 3.606 11.353 2.469 17.454-1.39 7.462-7.059 13.208-12.87 16.425-10.59 5.868-22.882 5.385-32.002-1.251-7.881-5.737-13.238-15.526-21.281-20.981-13.443-9.096-31.395-4.229-46.896 3.589-10.967 5.525-23.008 12.571-33.402 8.151-7.313-3.111-12.053-11.489-14.408-20.534-1.137-4.368-1.882-9.126-4.305-12.495-1.45-2.001-3.386-3.376-5.39-4.492-18.31-10.307-42.466-2.689-60.18-14.279-11.954-7.813-19.067-23.522-21.722-40.198-2.655-16.676-1.347-34.413.428-51.867C3.193 37.152 5 23.884 11.938 13.94 19.278 3.424 31.183-1.054 41.683.207c10.5 1.262 19.734 7.507 27.77 15.048 10.043 9.405 19.194 21.333 31.946 24.598 8.684 2.23 18.043.137 27.17-.965 15.259-1.82 30.381-.807 45.401.396 14.382 1.153 28.856 2.505 42.362 7.42 9.558 3.478 17.011 10.404 25.971 15.01 5.84 3.002 12.345 3.528 17.818 7.475 6.742 4.86 12.701 13.671 10.358 24.56-2.228 10.367-11.258 16.039-16.556 23.997z" fill="#227AA6"/><path d="M77.289 100.582h-4.892v60.545h4.892v-60.545z" fill="#D6D6E3"/><path d="M235.829 107.433V51.748a5.858 5.858 0 011.715-4.138 5.849 5.849 0 014.136-1.713 5.85 5.85 0 015.84 5.85v67.394a5.858 5.858 0 01-1.714 4.14 5.847 5.847 0 01-4.137 1.714h-36.237a5.847 5.847 0 01-4.137-1.714 5.858 5.858 0 010-8.279 5.848 5.848 0 014.137-1.715h24.546a5.85 5.85 0 005.851-5.854z" fill="#AEBEE1"/><path d="M235.829 107.433V51.748a5.858 5.858 0 011.715-4.138 5.849 5.849 0 014.136-1.713 5.85 5.85 0 015.84 5.85v67.394a5.858 5.858 0 01-1.714 4.14 5.847 5.847 0 01-4.137 1.714h-36.237a5.847 5.847 0 01-4.137-1.714 5.858 5.858 0 010-8.279 5.848 5.848 0 014.137-1.715h24.546a5.85 5.85 0 005.851-5.854z" fill="#535461"/><path d="M199.581 118.16a5.822 5.822 0 011.787-3.899 5.72 5.72 0 013.955-1.591h24.124a5.724 5.724 0 004.066-1.699 5.821 5.821 0 001.684-4.101V51.694a5.825 5.825 0 011.587-4.004 5.727 5.727 0 013.888-1.793v72.263h-41.091z" fill="#D6D6E3"/><path d="M17.559 108.617V53.63c0-1.53-.615-2.999-1.71-4.082a5.888 5.888 0 00-8.265-.005A5.745 5.745 0 005.87 53.63v66.548a5.72 5.72 0 00.442 2.216 5.773 5.773 0 001.267 1.88 5.902 5.902 0 004.142 1.698h36.237c1.551 0 3.04-.609 4.137-1.693a5.747 5.747 0 001.714-4.088 5.744 5.744 0 00-1.714-4.087 5.888 5.888 0 00-4.137-1.693H23.413a5.905 5.905 0 01-4.144-1.697 5.773 5.773 0 01-1.268-1.88 5.722 5.722 0 01-.442-2.217z" fill="#AEBEE1"/><path d="M17.559 108.617V53.63c0-1.53-.615-2.999-1.71-4.082a5.888 5.888 0 00-8.265-.005A5.745 5.745 0 005.87 53.63v66.548a5.72 5.72 0 00.442 2.216 5.773 5.773 0 001.267 1.88 5.902 5.902 0 004.142 1.698h36.237c1.551 0 3.04-.609 4.137-1.693a5.747 5.747 0 001.714-4.088 5.744 5.744 0 00-1.714-4.087 5.888 5.888 0 00-4.137-1.693H23.413a5.905 5.905 0 01-4.144-1.697 5.773 5.773 0 01-1.268-1.88 5.722 5.722 0 01-.442-2.217z" fill="#535461"/><path d="M53.809 120.113a5.825 5.825 0 00-1.787-3.9 5.726 5.726 0 00-3.956-1.59H23.94a5.738 5.738 0 01-4.069-1.698 5.807 5.807 0 01-1.247-1.882 5.847 5.847 0 01-.438-2.221v-55.18c0-1.488-.568-2.92-1.586-3.998a5.73 5.73 0 00-3.882-1.794v72.263h41.09zm131.097-19.531h-5.87v61.521h5.87v-61.521z" fill="#D6D6E3"/><path opacity=".1" d="M77.289 100.582h-4.892v4.883h4.892v-4.883zm107.617 0h-5.87v4.883h5.87v-4.883zm-93.92-37.108c-.078.964-.176 1.94-.294 2.93h-.685v-2.93h.978z" fill="#000"/><path d="M113.487 93.898c.017.99-.696 1.802-1.579 1.802H95.24v-1.741h13.869c.599 0 .972-.725.671-1.305l-12.576-25.62a1.116 1.116 0 00-.975-.631h-6.222v-2.929h7.856a.778.778 0 01.683.44l14.417 27.894c.333.647.512 1.362.524 2.09z" fill="#535461"/><path d="M83.368 89.46l-.21.38-1.956-1.412 6.053-50.343h1.558s.064.231.169.673c1.043 4.35 6.167 28.991-5.614 50.702z" fill="#535461"/><path opacity=".1" d="M89.029 38.758L83.382 89.46l-.21.38-1.97-1.412 6.092-50.343h1.568s.062.24.167.673z" fill="#000"/><path d="M85.137 37.627l-6.21 51.709 3.972.474 6.21-51.708-3.972-.475z" fill="#D6D6E3"/><path d="M65.549 94.233a.465.465 0 01-.165.346.605.605 0 01-.394.144h-.837a.601.601 0 01-.395-.143.461.461 0 01-.164-.347.211.211 0 010-.057.474.474 0 01.184-.306.606.606 0 01.369-.124h.836a.613.613 0 01.342.106.492.492 0 01.198.267.405.405 0 01.026.114zm1.956 0c0 .13-.06.254-.164.346a.606.606 0 01-.395.144h-.838a.603.603 0 01-.395-.143.461.461 0 01-.164-.347.453.453 0 01.164-.344.555.555 0 01.18-.106.615.615 0 01.212-.037h.838c.108 0 .214.027.305.078a.52.52 0 01.208.209.451.451 0 01.05.2z" fill="#E3EDF9"/><path d="M69.462 94.235c0 .129-.06.253-.165.344a.607.607 0 01-.394.144h-.838a.604.604 0 01-.395-.143.459.459 0 01-.164-.345.413.413 0 01.049-.203.523.523 0 01.206-.206.63.63 0 01.3-.08h.838c.074 0 .147.013.215.037s.13.06.182.106a.444.444 0 01.163.346h.003z" fill="#E3EDF9"/><path d="M71.419 94.233c0 .13-.06.254-.165.346a.606.606 0 01-.395.144h-.837a.62.62 0 01-.29-.071.522.522 0 01-.207-.193.438.438 0 01.038-.506l.066-.063a.556.556 0 01.18-.107.616.616 0 01.213-.037h.837a.64.64 0 01.222.043c.07.027.132.066.184.115a.444.444 0 01.154.33z" fill="#E3EDF9"/><path opacity=".1" d="M65.532 93.746c.012.062.017.126.017.19a.978.978 0 01-.165.555c-.105.147-.246.23-.394.232h-.837c-.148 0-.29-.083-.395-.23a.974.974 0 01-.164-.558.545.545 0 010-.092l1.938-.097zm1.928 0c.03.088.045.18.046.275a.803.803 0 01-.165.495.513.513 0 01-.395.207h-.838a.51.51 0 01-.395-.206.801.801 0 01-.164-.496.82.82 0 01.023-.192l1.888-.082z" fill="#000"/><path opacity=".1" d="M69.377 93.746a.713.713 0 01.085.337c0 .17-.06.332-.165.451a.53.53 0 01-.394.189h-.838a.526.526 0 01-.395-.187.689.689 0 01-.164-.453.68.68 0 01.049-.266l1.822-.07z" fill="#000"/><path opacity=".1" d="M71.419 94.141a.59.59 0 01-.165.41.553.553 0 01-.395.172h-.837a.543.543 0 01-.29-.085.573.573 0 01-.207-.228.6.6 0 01.038-.602l1.702-.062c.1.106.154.248.154.395z" fill="#000"/><path d="M75.33 95.7H61.635v-.588a.98.98 0 01.299-.7c.192-.188.454-.298.73-.307l10.983-.358c.219-.007.436.028.64.102.204.074.39.185.547.329.157.143.282.314.367.504.086.19.13.393.13.6l-.002.418z" fill="#D6D6E3"/><path d="M142.838 93.898c-.017.99.696 1.802 1.579 1.802h16.681v-1.741h-13.889c-.599 0-.973-.725-.672-1.305l12.58-25.62a1.115 1.115 0 01.975-.631h6.226v-2.929h-7.853a.778.778 0 00-.671.438l-14.421 27.894a4.739 4.739 0 00-.535 2.092z" fill="#535461"/><path d="M173.721 89.46l.23.38 2.15-1.412-6.654-50.343h-1.713s-.07.231-.185.673c-1.15 4.35-6.794 28.991 6.172 50.702z" fill="#535461"/><path opacity=".1" d="M167.296 38.758l6.353 50.702.237.38 2.215-1.412-6.85-50.343h-1.764s-.072.24-.191.673z" fill="#000"/><path d="M171.354 37.622l-3.972.474 6.211 51.709 3.972-.474-6.211-51.709z" fill="#D6D6E3"/><path d="M190.776 94.233c.001.13.06.254.165.346a.605.605 0 00.394.144h.837a.6.6 0 00.395-.143.46.46 0 00.164-.347.184.184 0 000-.057.474.474 0 00-.184-.306.602.602 0 00-.368-.124h-.837a.612.612 0 00-.342.106.488.488 0 00-.197.267.384.384 0 00-.027.114z" fill="#E3EDF9"/><path d="M188.821 94.233c.001.13.06.254.164.346a.607.607 0 00.395.144h.837a.627.627 0 00.214-.037.573.573 0 00.182-.106.488.488 0 00.121-.16.438.438 0 00-.121-.53.549.549 0 00-.18-.107.614.614 0 00-.213-.037h-.853a.622.622 0 00-.305.078.526.526 0 00-.209.209.446.446 0 00-.032.2z" fill="#E3EDF9"/><path d="M186.863 94.235a.46.46 0 00.165.344.607.607 0 00.395.144h.837a.604.604 0 00.396-.143.46.46 0 00.164-.345.426.426 0 00-.049-.203.527.527 0 00-.207-.206.632.632 0 00-.301-.08h-.837a.627.627 0 00-.215.037.569.569 0 00-.182.106.487.487 0 00-.121.158.438.438 0 00-.042.188h-.003z" fill="#E3EDF9"/><path d="M184.906 94.233c.001.13.06.254.165.346a.607.607 0 00.395.144h.838a.623.623 0 00.29-.071.531.531 0 00.206-.193.446.446 0 00.062-.258.452.452 0 00-.1-.248l-.066-.063a.554.554 0 00-.179-.107.618.618 0 00-.213-.037h-.838a.639.639 0 00-.222.043.575.575 0 00-.184.115.448.448 0 00-.154.33z" fill="#E3EDF9"/><path opacity=".1" d="M190.793 93.746a.989.989 0 00-.017.19c.001.208.06.407.165.555.105.147.246.23.394.232h.837c.148 0 .291-.083.395-.23a.973.973 0 00.164-.558.472.472 0 000-.092l-1.938-.097z" fill="#000"/><path opacity=".1" d="M188.865 93.746a.872.872 0 00-.045.275c.001.186.06.364.165.495a.51.51 0 00.394.207h.838a.465.465 0 00.214-.053.57.57 0 00.182-.153.752.752 0 00.121-.227.862.862 0 00.019-.462l-1.888-.082z" fill="#000"/><path opacity=".1" d="M186.948 93.746a.718.718 0 00-.085.337c.001.17.06.332.165.451a.53.53 0 00.395.189h.837a.526.526 0 00.396-.187.689.689 0 00.164-.453.702.702 0 00-.049-.266l-1.823-.07z" fill="#000"/><path opacity=".1" d="M184.906 94.141c.001.154.06.302.165.41a.55.55 0 00.395.172h.838c.102 0 .202-.03.29-.085a.583.583 0 00.268-.535.597.597 0 00-.1-.295l-1.702-.062a.577.577 0 00-.154.395z" fill="#000"/><path d="M180.996 95.7h13.694v-.588a.98.98 0 00-.3-.7 1.095 1.095 0 00-.73-.307l-10.983-.358a1.717 1.717 0 00-.64.102c-.204.074-.39.185-.547.329a1.53 1.53 0 00-.367.504 1.45 1.45 0 00-.13.6l.003.418z" fill="#D6D6E3"/><path d="M238.099 103.056c6.38-10.797 4.068-32.576 4.325-32.993.23-.367-.649-10.623-6.513-13.129a110.604 110.604 0 01-2.102-4.453c-.102.096-.215.18-.337.251a24.93 24.93 0 01-.136-.38c-.074-.219-.143-.442-.213-.666.165.053.332.095.501.127a2.09 2.09 0 001.339-.118c.143-.077.273-.177.384-.296.462-.306.716-.858.932-1.38l1.707-4.078c.768-1.84 1.543-3.692 1.952-5.642a15.86 15.86 0 00-.68-8.791c-.404-1.071-.963-2.142-1.911-2.782-1.9-1.286-4.544-.397-6.715-1.15-.714-.249-1.358-.668-2.072-.922-1.54-.552-3.28-.257-4.762.43-1.483.688-2.683 1.78-3.98 2.76-.639.488-1.66.993-2.412 1.655-.73.569-1.291 1.256-1.184 2.16.122 1.036 1.215 1.657 2.232 1.9.169.038.343.068.515.099a9.927 9.927 0 00-2.558 9.45 9.939 9.939 0 006.809 7.05c.519.972.968 1.98 1.344 3.016.049.142.098.284.146.428-1.676.474-2.987.869-3.249 1.087-.794.657.868 6.407.868 6.407a28.26 28.26 0 00-1.292 1.799 38.726 38.726 0 00-6.128 16.713 78.103 78.103 0 01-1.093 6.537l-19.821-3.965-.042.488-.473-.116-1.488-.367-.058.334-.227-.108c-3.686-1.724-9.898-3.926-14.105-1.655-4.439 2.384 5.142 5.552 11.29 7.237-2.038.1-3.988.588-5.531 1.73-4.459 3.334 8.15 5.07 14.105 5.685l.24.025v.126l2.063.19.484.045.047.734s2.954.483 6.901 1.068c-4.506 1.123-10.073 1.901-13.939 2.356-4.099.48-7.589 3.328-8.69 7.299a6.477 6.477 0 00-.1 3.509c1.151 4.01-.254 33.504-.572 39.856l-7.288 4.185s-11.339 1.38-3.786 4.032c.681.232 1.376.416 2.083.552-.996.64-.91 1.476 2.024 2.502 7.559 2.644 25.129-.116 25.129-.116s-.384-3.107-1.009-5.689l.193.016s-1.814-6.735.938-10.132c2.752-3.396-.462-29.248-.462-29.248s4.818-1.99 19.219-2.119c11.616 2.974 17.277-7.674 17.197-13.179-.025-.124-.031-.251-.039-.364z" fill="url(#paint0_linear)"/><path d="M194.69 86.469l-1.217 5.325s-1.093-.267-2.733-.722c-5.555-1.556-17.27-5.292-12.574-8.034 4.048-2.367 10.01-.066 13.55 1.73a33.378 33.378 0 012.974 1.701z" fill="#F8B9BF"/><path opacity=".1" d="M194.603 88.052l-.928 3.741s-1.159-.259-2.899-.702l1.047-6.133a36.208 36.208 0 012.867 1.488l-.087 1.606z" fill="#000"/><path d="M194.398 91.793l-2.643-.812.821-6.023 2.114.648-.292 6.187z" fill="#D9DFE8"/><path opacity=".1" d="M194.49 91.793l-.779-.367.294-6.468.685.323-.2 6.512z" fill="#000"/><path d="M228.083 66.058s-6.624-3.736-9.568 6.98c-2.944 10.717-3.222 15.653-3.222 15.653l-20.918-4.082-.664 7.457s22.366 7.049 25.179 6.536c2.813-.512 11.942-15.452 11.942-15.452s8.299-11.578-2.749-17.092z" fill="#227AA6"/><g opacity=".1"><path opacity=".1" d="M195.104 86.632l-1.228 4.952s-1.103-.248-2.759-.671c-5.606-1.447-17.431-4.922-12.691-7.473 4.086-2.2 10.104-.06 13.676 1.61a34.446 34.446 0 012.729 1.422c.185.105.273.16.273.16z" fill="#000"/><path opacity=".1" d="M194.758 88.03l-.883 3.576s-1.104-.247-2.759-.671l.996-5.863a34.446 34.446 0 012.729 1.422l-.083 1.535z" fill="#000"/><path opacity=".1" d="M194.763 91.944l-3.427-.844 1.065-6.262 2.74.674-.378 6.432z" fill="#000"/><path opacity=".1" d="M194.762 91.944l-1.479-.363.557-6.388 1.3.319-.378 6.432z" fill="#000"/><path opacity=".1" d="M227.825 66.284s-6.58-3.792-9.505 7.084c-2.924 10.876-3.2 15.886-3.2 15.886l-20.781-4.144-.659 7.569s22.218 7.153 25.013 6.633c2.794-.52 11.863-15.682 11.863-15.682s8.244-11.75-2.731-17.346z" fill="#0A6EAA"/></g><path d="M186.169 149.922l-8.652 5.043s-11.21 1.389-3.742 4.038c7.467 2.648 24.828-.117 24.828-.117s-.965-7.894-2.31-8.996c-1.345-1.102-10.124.032-10.124.032z" fill="#68739D"/><path d="M218.969 95.825s-4.162 2.187-11.555 4.077c-4.333 1.094-9.756 1.87-13.505 2.313a9.723 9.723 0 00-5.21 2.236 9.8 9.8 0 00-3.091 4.773 6.282 6.282 0 00-.095 3.391c1.232 4.329-.607 39.518-.607 39.518l12.703 1.181s-1.733-6.483.897-9.751-.44-28.142-.44-28.142 4.602-1.914 18.354-2.04c12.741 3.281 17.99-10.739 16.024-14.669-1.967-3.93-13.475-2.887-13.475-2.887z" fill="#00AAC8"/><g opacity=".1" fill="#000"><path opacity=".1" d="M185.97 150.279l-8.484 4.872s-10.991 1.343-3.669 3.901c7.322 2.559 24.345-.112 24.345-.112s-.946-7.627-2.265-8.692c-1.319-1.064-9.927.031-9.927.031z"/><path opacity=".1" d="M219.036 95.612s-4.221 2.2-11.72 4.102c-4.395 1.1-9.896 1.882-13.698 2.327a9.89 9.89 0 00-5.285 2.25 9.85 9.85 0 00-3.136 4.802 6.267 6.267 0 00-.096 3.411c1.25 4.355-.615 39.758-.615 39.758l12.884 1.189s-1.757-6.523.91-9.811c2.668-3.288-.446-28.313-.446-28.313s4.668-1.926 18.617-2.052c12.923 3.301 18.248-10.805 16.253-14.758-1.994-3.954-13.668-2.905-13.668-2.905z"/></g><path d="M190.082 152.851l-8.653 5.041s-11.205 1.377-3.743 4.036c7.463 2.658 24.83-.117 24.83-.117s-.965-7.89-2.31-8.991c-1.345-1.102-10.124.031-10.124.031z" fill="#68739D"/><path d="M220.339 116.314c-13.755.126-18.358 2.04-18.358 2.04s3.072 24.883.441 28.139c-2.631 3.257-.898 9.751-.898 9.751l-12.704-1.181.057-1.159c.305-6.115 1.646-34.498.544-38.356a6.28 6.28 0 01.095-3.38 9.8 9.8 0 013.087-4.78 9.721 9.721 0 015.213-2.244c3.746-.44 9.171-1.206 13.505-2.314l.212-.054c7.264-1.876 11.344-4.022 11.344-4.022s11.511-1.04 13.477 2.89c.278.623.415 1.3.403 1.982.098 5.302-5.316 15.551-16.418 12.688z" fill="#00AAC8"/><path d="M200.56 92.984l-.466 4.669s-1.118-.074-2.781-.235c-5.681-.548-17.73-2.087-13.47-5.047 3.663-2.543 9.847-1.433 13.579-.403 1.36.378 2.406.744 2.871.918.171.06.267.099.267.099zm34.241-33.518s-1.719 1.33-3.819 2.79c-2.304.515-4.979.941-6.907 1.218.689-2.17.275-4.613-.502-6.754a25.344 25.344 0 00-3.447-6.262l11.622-3.585c-.912 2.282-.5 4.885.274 7.148a23.477 23.477 0 002.779 5.445z" fill="#F8B9BF"/><path opacity=".1" d="M200.56 94.198l-.316 3.455s-1.053-.076-2.619-.242l.102-5.618c1.282.39 2.266.767 2.704.947l.129 1.458z" fill="#000"/><path d="M201.538 97.653l-3.913-.285.129-5.575 3.13.227.654 5.633z" fill="#D9DFE8"/><path opacity=".1" d="M234.802 59.34s-1.648 1.372-3.661 2.877c-2.209.532-4.772.972-6.62 1.257.661-2.239.264-4.758-.481-6.966 2.721-.84 6.614-1.926 8.101-2.8a24.923 24.923 0 002.661 5.632z" fill="#000"/><path d="M232.683 53.709s1.859 4.624 3.031 6.713c1.171 2.09-13.61 4.029-13.61 4.029s-1.534-5.821-.801-6.49c.733-.667 10.143-2.9 11.38-4.252z" fill="#D9DFE8"/><path opacity=".1" d="M236.758 103.606a13.77 13.77 0 01-2.402 3.087c-6.817 6.43-17.992-.272-23.035-3.936 7.322-1.867 11.435-4.004 11.435-4.004s11.602-1.034 13.585 2.877c.284.62.426 1.295.417 1.976z" fill="#000"/><path d="M234.955 105.699c-7.738 7.364-21.084-2.387-24.681-5.26-.584-.466-.909-.754-.909-.754 1.421-1.334 2.669-4.16 3.658-7.617a67.007 67.007 0 001.99-10.091 37.493 37.493 0 015.893-16.141c.418-.631.821-1.221 1.24-1.737 2.921-3.723 7.831-6.088 7.831-6.088 10.361-3.035 11.754 12.366 11.478 12.81-.277.445 2.494 26.315-6.5 34.878z" fill="#0A6EAA"/><path opacity=".1" d="M236.004 85.26s-6.674 16.205-9.343 17.129c-1.527.527-9.688-.472-16.386-1.424a25.43 25.43 0 01-.91-.75c1.423-1.326 2.674-4.135 3.664-7.572l8.627.409s-.48-4.949.787-16.046 8.292-8.347 8.292-8.347c11.621 3.87 5.269 16.602 5.269 16.602zm-34.466 12.393l-1.546-.126-.411-5.734 1.358.109.599 5.75z" fill="#000"/><path d="M230.545 67.682s-7.22-2.748-8.522 8.348c-1.303 11.095-.809 16.047-.809 16.047l-21.633-1.001.488 7.518s23.544 3.741 26.287 2.818c2.743-.922 9.602-17.13 9.602-17.13s6.521-12.732-5.413-16.6z" fill="#0A6EAA"/><path opacity=".1" d="M230.762 51.235c-.311-1.756 1.45-1.733 2.083-3.385l-11.74 3.816a27.187 27.187 0 012.175 3.602 9.385 9.385 0 001.867.375c2.799.277 3.673-2.59 5.615-4.408z" fill="#000"/><path d="M235.012 45.483c.491-5.29-3.412-9.973-8.717-10.462-5.304-.489-10.001 3.403-10.492 8.692-.49 5.29 3.413 9.974 8.717 10.463 5.305.489 10.002-3.403 10.492-8.693z" fill="#F8B9BF"/><path opacity=".1" d="M216.226 36.138c.116 1 1.15 1.608 2.112 1.834.962.225 2.005.236 2.848.76 1.347.845 1.711 2.723 1.541 4.336-.094.912-.229 2.029.504 2.559.23.143.487.236.754.274a6.95 6.95 0 002.323.082c.452-.06.918-.164 1.347-.035.706.208 1.123.966 1.261 1.699.137.732.062 1.495.172 2.234a4.67 4.67 0 001.22 2.453 4.532 4.532 0 002.369 1.318c.423.105.868.064 1.266-.115.512-.275.773-.86.994-1.406l1.617-3.941c.727-1.776 1.46-3.568 1.848-5.45.576-2.837.353-5.78-.644-8.493-.382-1.032-.91-2.067-1.808-2.687-1.797-1.243-4.31-.384-6.353-1.098-.676-.239-1.285-.645-1.958-.89-1.458-.529-3.104-.249-4.508.418s-2.538 1.718-3.772 2.676c-1.07.848-3.335 1.746-3.133 3.472z" fill="#000"/><path d="M216.225 36.138c.116 1 1.151 1.608 2.113 1.834.962.225 2.004.236 2.848.76 1.347.845 1.71 2.723 1.541 4.336-.095.912-.229 2.029.504 2.559.23.143.487.236.754.274a6.945 6.945 0 002.322.082c.453-.06.919-.164 1.348-.035.706.208 1.123.966 1.261 1.699.137.732.062 1.495.172 2.234a4.67 4.67 0 001.22 2.453 4.532 4.532 0 002.369 1.318 1.94 1.94 0 001.266-.115c.512-.275.773-.86.994-1.406l1.617-3.941c.727-1.776 1.46-3.568 1.848-5.45.576-2.837.353-5.78-.644-8.493-.382-1.032-.91-2.067-1.808-2.687-1.797-1.243-4.31-.384-6.353-1.098-.676-.239-1.285-.645-1.959-.89-1.457-.529-3.103-.249-4.507.418-1.404.667-2.538 1.718-3.772 2.676-1.067.848-3.333 1.746-3.134 3.472z" fill="#B96B6B"/><path opacity=".1" d="M224.04 73.24s-3.695 14.51-7.373 15.853c-3.678 1.343-2.053 1.724-2.053 1.724" fill="#000"/><path d="M224.04 125.972h-3.914v26.366h3.914v-26.366z" fill="#D6D6E3"/><path opacity=".1" d="M224.04 125.972h-3.914v1.953h3.914v-1.953z" fill="#000"/><path d="M212.3 126.203v.514a1.166 1.166 0 00.37.854 1.282 1.282 0 00.895.354h17.037a1.277 1.277 0 00.894-.354 1.183 1.183 0 00.371-.854v-.514a1.183 1.183 0 00-.371-.854 1.277 1.277 0 00-.894-.354h-17.037a1.305 1.305 0 00-.895.354 1.166 1.166 0 00-.37.854zm24.88 24.182h-30.194c-.848 0-1.535.844-1.535 1.885v.137c0 1.04.687 1.884 1.535 1.884h30.194c.848 0 1.535-.844 1.535-1.884v-.137c0-1.041-.687-1.885-1.535-1.885z" fill="#D6D6E3"/><path d="M236.758 158.197a1.955 1.955 0 001.957-1.953 1.955 1.955 0 00-1.957-1.953c-1.08 0-1.956.874-1.956 1.953 0 1.079.876 1.953 1.956 1.953zm-29.35 0a1.955 1.955 0 001.957-1.953 1.955 1.955 0 00-1.957-1.953 1.955 1.955 0 00-1.957 1.953c0 1.079.876 1.953 1.957 1.953zm14.675 0a1.955 1.955 0 001.957-1.953 1.955 1.955 0 00-1.957-1.953 1.955 1.955 0 00-1.957 1.953c0 1.079.876 1.953 1.957 1.953z" fill="#535461"/><path d="M247.143 93.746h-26.64a2.344 2.344 0 00-2.333 2.356v.172c0 1.3 1.044 2.355 2.333 2.355h26.64a2.345 2.345 0 002.334-2.355v-.172a2.345 2.345 0 00-2.334-2.356z" fill="#D6D6E3"/><path opacity=".1" d="M224.04 150.385s-1.538 2.197-3.914 0h3.914zm25.437-53.709v.314c0 .435-.21.852-.583 1.16-.374.306-.88.48-1.408.48H220.16a2.224 2.224 0 01-1.407-.48c-.374-.308-.583-.725-.583-1.16v-.314h31.307z" fill="#000"/><path d="M197.625 100.582h-5.87v68.357h5.87v-68.357z" fill="#D6D6E3"/><path opacity=".1" d="M197.625 100.582h-5.87v4.883h5.87v-4.883z" fill="#000"/><path d="M33.264 127.925H29.35v26.366h3.914v-26.366z" fill="#D6D6E3"/><path opacity=".1" d="M33.264 127.925H29.35v1.953h3.914v-1.953z" fill="#000"/><path d="M41.09 127.574v.688c0 .429-.133.84-.37 1.143-.237.303-.56.473-.895.473H22.788c-.335 0-.657-.17-.894-.473a1.868 1.868 0 01-.37-1.143v-.688c.002-.427.137-.834.374-1.134.236-.3.557-.468.89-.468h17.037c.167 0 .331.042.484.123.154.081.293.2.41.35a1.7 1.7 0 01.275.524c.063.196.096.406.096.618v-.013z" fill="#D6D6E3"/><path opacity=".1" d="M41.09 126.948H21.523c.124-.309.278-.557.452-.726.174-.169.363-.254.554-.25h17.555c.192-.004.381.081.555.25.174.169.328.417.451.726z" fill="#000"/><path d="M46.404 152.338H16.21c-.848 0-1.535.844-1.535 1.885v.137c0 1.04.687 1.884 1.535 1.884h30.194c.848 0 1.535-.844 1.535-1.884v-.137c0-1.041-.687-1.885-1.535-1.885z" fill="#D6D6E3"/><path d="M16.632 160.15c1.08 0 1.956-.874 1.956-1.953a1.955 1.955 0 00-1.956-1.953c-1.08 0-1.957.875-1.957 1.953 0 1.079.876 1.953 1.957 1.953zm29.35 0c1.08 0 1.957-.874 1.957-1.953a1.955 1.955 0 00-1.957-1.953c-1.08 0-1.957.875-1.957 1.953 0 1.079.876 1.953 1.957 1.953zm-14.675 0c1.08 0 1.957-.874 1.957-1.953a1.955 1.955 0 00-1.957-1.953c-1.08 0-1.957.875-1.957 1.953 0 1.079.876 1.953 1.957 1.953z" fill="#535461"/><path opacity=".1" d="M29.35 152.338s1.537 2.197 3.914 0H29.35z" fill="#000"/><path d="M72.04 158.256L65 153.8c-.036-6.276-.136-35.413 1.18-39.311a6.356 6.356 0 00.056-3.467c-.915-3.961-4.25-6.919-8.292-7.57-3.812-.616-9.297-1.625-13.713-2.928 3.936-.404 6.887-.753 6.887-.753l.077-.723 2.535-.121v-.108l.241-.013c5.92-.35 18.492-1.512 14.22-4.992-1.465-1.194-3.377-1.757-5.393-1.947 6.166-1.396 15.805-4.101 11.508-6.644-4.084-2.414-10.336-.517-14.068 1.025l-.23.096-.042-.332-1.49.297-.474.093-.022-.484-20.913 3.206a70.285 70.285 0 00-.854-7.096c.468-3.095 2.646-7.609 1.879-10.03-.892-2.813-4.555-3.734-6.095-6.274a28.61 28.61 0 00-1.2-1.828 19.305 19.305 0 00-2.95-3.164c.066-1.634.434-3.24 1.086-4.742a22.891 22.891 0 011.462-2.914 9.86 9.86 0 005.914-4.195 9.725 9.725 0 001.411-7.076c1.325.563 2.934.621 3.763-.479l-.394-.15c.039-.042.078-.083.11-.13-.805-.305-1.661-.652-2.293-1.207a2.667 2.667 0 01-.402-.59c-.382-.77-.338-1.694-.703-2.475a2.864 2.864 0 00-.718-.93 4.949 4.949 0 00-2.344-1.33c-1-.288-2.052-.434-3.011-.824a10.19 10.19 0 00-4.958-3.133 10.257 10.257 0 00-5.877.109l-.346.118a4.455 4.455 0 00-.625-3.337A4.518 4.518 0 0017.12 25.5a4.549 4.549 0 00-3.374.56 4.486 4.486 0 00-2.012 2.745 4.458 4.458 0 011.208-2.678c-.072.06-.147.118-.216.181a4.487 4.487 0 00-1.422 3.131 4.458 4.458 0 001.225 3.211l.08.077c.32.389.704.721 1.134.985a4.521 4.521 0 01-2.017-1.418 4.47 4.47 0 01-.964-2.258v.275a4.46 4.46 0 001.519 3.101 4.53 4.53 0 003.287 1.116l.125-.014-.066.091a10.034 10.034 0 00.914 12.494c.184.418.428.807.726 1.155.104.119.216.23.335.335a4.31 4.31 0 002.898 1.325c.184.218.381.428.59.63a16.271 16.271 0 01-.715 2.265 23.943 23.943 0 01-2.194 4.198c-5.984 1.688-6.51 11.771-6.294 12.153.257.457-.892 16.291 3.54 35.419-.183 5.468 3.03 14.509 14.44 12.126 14.267.756 18.946 2.925 18.946 2.925s-1.355 24.623.579 28.207c1.21 2.246.352 5.545-.554 7.874a8.616 8.616 0 00-.798 1.825c-.277.58-.48.932-.48.932h.195c-.732 2.521-1.25 5.564-1.25 5.564s17.296 3.483 24.903 1.204c2.953-.885 3.075-1.704 2.117-2.381a15.507 15.507 0 002.088-.453c7.613-2.279-3.573-4.146-3.573-4.146z" fill="url(#paint1_linear)"/><path d="M35.22 41.014c0 1.931-.602 3.82-1.73 5.425a10.18 10.18 0 01-4.611 3.597 10.77 10.77 0 01-5.935.556 10.449 10.449 0 01-5.26-2.673 9.626 9.626 0 01-2.811-5 9.318 9.318 0 01.584-5.642 9.89 9.89 0 013.784-4.383 10.656 10.656 0 015.707-1.645c1.349 0 2.685.252 3.93.743 1.247.49 2.38 1.21 3.334 2.117a9.747 9.747 0 012.226 3.168 9.347 9.347 0 01.782 3.737z" fill="#FD868A"/><path d="M56.744 87.64l1.05 5.13s1.168-.206 2.897-.563c5.906-1.225 18.386-4.25 13.553-7.07-4.157-2.425-10.524-.519-14.321 1.03a34.032 34.032 0 00-2.909 1.332 7.13 7.13 0 00-.27.14z" fill="#F8B9BF"/><path opacity=".1" d="M57.743 88.957l.601 3.813s.933-.213 2.313-.583l-.613-6.253a24.812 24.812 0 00-2.322 1.379l.02 1.644z" fill="#000"/><path d="M56.847 92.77l3.81-.675-.863-6.16-3.05.54.103 6.295z" fill="#D9DFE8"/><path opacity=".1" d="M56.86 92.77l1.84-.306-.336-6.53-1.62.267.115 6.569z" fill="#000"/><path d="M25.673 65.945s6.753-3.42 9.207 7.326c2.454 10.747 2.49 15.646 2.49 15.646l21.004-3.154.326 7.418s-22.575 6.031-25.35 5.402c-2.774-.63-11.199-15.823-11.199-15.823s-7.718-11.817 3.522-16.816z" fill="#227AA6"/><g opacity=".1" fill="#000"><path opacity=".1" d="M57.111 87.669l1.007 5.013s1.12-.201 2.779-.55c5.664-1.197 17.632-4.152 12.997-6.909-3.987-2.369-10.092-.506-13.734 1.007a32.33 32.33 0 00-3.049 1.439z"/><path opacity=".1" d="M57.393 89.083l.723 3.599s1.12-.201 2.778-.55l-.736-5.902a32.33 32.33 0 00-2.79 1.301l.025 1.552z"/><path opacity=".1" d="M57.22 92.993l3.46-.691-.783-6.303-2.77.553.093 6.44z"/><path opacity=".1" d="M57.22 92.993l1.493-.3-.273-6.402-1.313.261.093 6.44z"/><path opacity=".1" d="M25.884 66.174s6.735-3.5 9.182 7.497c2.447 10.996 2.483 16.01 2.483 16.01l20.946-3.228.326 7.59s-22.514 6.172-25.28 5.528c-2.768-.644-11.17-16.191-11.17-16.191s-7.697-12.092 3.513-17.206z"/></g><path d="M63.207 151.275l8.11 5.634s10.725 1.966 3.43 4.376c-7.295 2.411-23.873-1.275-23.873-1.275s1.26-8.166 2.6-9.248c1.341-1.083 9.733.513 9.733.513z" fill="#0A6EAA"/><path d="M32.952 96.007s4.14 2.367 11.583 4.578c4.363 1.297 9.853 2.299 13.645 2.908a9.981 9.981 0 015.207 2.467 9.742 9.742 0 012.93 4.904 6.143 6.143 0 01-.053 3.374c-1.447 4.264-1.153 39.439-1.153 39.439l-12.986.614s2.055-6.391-.477-9.765c-2.53-3.374 1.708-28.044 1.708-28.044s-4.599-2.113-18.599-2.848c-13.121 2.73-17.837-11.506-15.658-15.339 2.18-3.833 13.853-2.288 13.853-2.288z" fill="#003269"/><g opacity=".1"><path opacity=".1" d="M63.43 151.657l8.26 5.228s10.922 1.824 3.492 4.06c-7.43 2.237-24.314-1.183-24.314-1.183s1.282-7.576 2.648-8.581c1.366-1.004 9.913.476 9.913.476z" fill="#000"/><path opacity=".1" d="M32.805 95.584s4.12 2.386 11.527 4.614c4.343 1.307 9.805 2.317 13.58 2.93a9.896 9.896 0 015.181 2.486 9.847 9.847 0 012.916 4.943 6.265 6.265 0 01-.052 3.4c-1.44 4.297-1.148 39.747-1.148 39.747l-12.923.619s2.044-6.44-.475-9.841c-2.518-3.4 1.7-28.263 1.7-28.263s-4.577-2.13-18.51-2.87c-13.058 2.751-17.751-11.596-15.583-15.46 2.169-3.862 13.787-2.305 13.787-2.305z" fill="#003269"/></g><path d="M59.294 154.13l8.11 5.165s10.724 1.802 3.43 4.012c-7.296 2.209-23.874-1.169-23.874-1.169s1.26-7.486 2.6-8.478c1.342-.992 9.734.47 9.734.47z" fill="#0A6EAA"/><path d="M30.513 116.37c13.718.738 18.225 2.861 18.225 2.861s-1.301 24.089.543 27.594c1.97 3.719-1.76 10.396-1.76 10.396l12.724-.617v-1.163c-.038-6.139-.13-34.644 1.132-38.465a6.323 6.323 0 00.052-3.39 9.85 9.85 0 00-2.871-4.927 9.7 9.7 0 00-5.102-2.479c-3.718-.609-9.094-1.615-13.37-2.918l-.21-.066c-7.162-2.194-11.136-4.534-11.136-4.534s-8.473-.593-10.595 3.259c-.271.499-1.442 1.481-1.49 2.273-.319 5.305 2.672 14.554 13.858 12.176z" fill="#003269"/><path d="M50.874 93.65l.243 4.98s1.123-.03 2.799-.13c5.715-.335 17.854-1.445 13.73-4.774-3.547-2.862-9.794-1.95-13.578-1.02a33.92 33.92 0 00-2.919.85c-.18.06-.275.095-.275.095zM18.589 58.827s1.605 1.457 3.595 3.069c2.22.637 4.815 1.203 6.669 1.578-.576-2.297-.065-4.79.783-6.986a26.716 26.716 0 013.628-6.344l-11.155-4.247c.79 2.41.267 5.1-.58 7.403a24.87 24.87 0 01-2.94 5.527z" fill="#F8B9BF"/><path opacity=".1" d="M50.874 95.093l.164 3.536s1.055-.03 2.627-.127l.144-5.732c-1.304.34-2.305.679-2.74.84l-.195 1.483z" fill="#000"/><path d="M49.895 98.629l3.738-.15.176-5.71-2.991.122-.922 5.738z" fill="#D9DFE8"/><path d="M16.556 105.389c7.584 7.672 21.725-1.446 25.528-4.146.618-.44.963-.711.963-.711-1.404-1.391-3.651-2.678-4.513-6.163a73.826 73.826 0 01-1.669-10.801c-.233-2.884 2.829-8.374 1.944-11.113-.885-2.739-4.528-3.638-6.058-6.117-.402-.645-.8-1.251-1.194-1.782-2.825-3.826-7.749-6.403-7.749-6.403-10.49-3.485-11.313 11.093-11.052 11.547.262.454-.938 16.524 3.8 35.689z" fill="#227AA6"/><path opacity=".1" d="M17.073 84.356s5.956 16.874 8.583 17.938c1.505.609 9.712-.048 16.45-.721.603-.449.941-.726.941-.726-1.373-1.421-2.49-4.35-3.33-7.909l-8.646.031s.7-5.027-.075-16.446c-.774-11.42-7.92-8.909-7.92-8.909-11.788 3.438-6.003 16.742-6.003 16.742zm32.822 14.273l2.022-.065.913-5.794-1.779.057-1.156 5.802z" fill="#000"/><path d="M23.01 66.635s7.077-2.495 7.852 8.91c.776 11.404.082 16.448.082 16.448l20.908-.078-.803 7.67s-22.862 2.793-25.475 1.734c-2.613-1.058-8.51-17.937-8.51-17.937s-5.74-13.309 5.946-16.747z" fill="#227AA6"/><path opacity=".1" d="M23.33 50.206c.358-1.666-1.29-1.72-1.807-3.333l10.762 4.166a26.08 26.08 0 00-2.161 3.364 8.45 8.45 0 01-1.75.277c-2.615.14-3.314-2.646-5.045-4.474z" fill="#000"/><path d="M29.146 53.96c5.321-.255 9.428-4.763 9.172-10.069-.256-5.306-4.776-9.4-10.097-9.145-5.32.254-9.427 4.762-9.172 10.068.256 5.306 4.777 9.4 10.098 9.146z" fill="#F8B9BF"/><path opacity=".1" d="M23.48 74.216s2.988 14.337 6.515 15.801c3.528 1.464 1.929 1.776 1.929 1.776m4.275-9.831s-2.712.758-5.87-2.864l5.87 2.864z" fill="#000"/><path d="M17.121 35.155a4.398 4.398 0 004.403-4.395 4.399 4.399 0 00-4.403-4.394 4.399 4.399 0 00-4.402 4.395 4.398 4.398 0 004.402 4.394z" fill="#FD868A"/><path d="M14.155 33.383c-.688-.819-1.072-1.898-1.072-3.02s.384-2.202 1.072-3.02c-.064.058-.128.116-.188.18-.766.801-1.214 1.91-1.247 3.08-.032 1.17.354 2.307 1.074 3.16.72.854 1.714 1.354 2.765 1.39 1.05.036 2.071-.394 2.837-1.196.062-.064.116-.133.17-.199-.775.715-1.766 1.075-2.771 1.005-1.006-.07-1.95-.563-2.64-1.38z" fill="#FA595F"/><path d="M16.378 34.612a4.451 4.451 0 01-3.082-.995 4.323 4.323 0 01-1.556-2.802v.271a4.316 4.316 0 001.483 2.983c.434.377.94.667 1.487.851a4.47 4.47 0 003.366-.207 4.4 4.4 0 001.367-1.027 4.32 4.32 0 00.864-1.464 4.28 4.28 0 00.23-1.678c0-.093-.02-.18-.03-.272a4.304 4.304 0 01-1.191 2.976 4.434 4.434 0 01-2.938 1.364z" fill="#FD868A"/><path opacity=".1" d="M32.294 34.696c1.046.515 2.242.657 3.364.982 1.121.324 2.265.917 2.758 1.974.362.777.32 1.697.698 2.466.544 1.119 1.8 1.633 2.955 2.072-.993 1.328-3.123.968-4.514.065-1.39-.904-2.587-2.238-4.204-2.587a3.956 3.956 0 00-4.152 1.843c-.443.774-.6 1.677-.818 2.539-.561 2.27-1.682 4.53-3.645 5.819-1.962 1.289-4.886 1.28-6.424-.484-.897-1.03-1.197-2.43-1.464-3.767a7.638 7.638 0 01-.215-1.904c.09-1.605 1.16-2.972 2.242-4.163 1.276-1.399 2.632-2.74 3.989-4.075 1.172-1.152 2.523-3.103 4.289-3.24 2.035-.163 3.473 1.647 5.14 2.46z" fill="#000"/><path d="M32.294 34.696c1.046.515 2.242.657 3.364.982 1.121.324 2.265.917 2.758 1.974.362.777.32 1.697.698 2.466.544 1.119 1.8 1.633 2.955 2.072-.993 1.328-3.123.968-4.514.065-1.39-.904-2.587-2.238-4.204-2.587a3.956 3.956 0 00-4.152 1.843c-.443.774-.6 1.677-.818 2.539-.561 2.27-1.682 4.53-3.645 5.819-1.962 1.289-4.886 1.28-6.424-.484-.897-1.03-1.197-2.43-1.464-3.767a7.638 7.638 0 01-.215-1.904c.09-1.605 1.16-2.972 2.242-4.163 1.276-1.399 2.632-2.74 3.989-4.075 1.172-1.152 2.523-3.103 4.289-3.24 2.035-.163 3.473 1.647 5.14 2.46z" fill="#FD868A"/><path d="M32.887 95.7H6.247a2.345 2.345 0 00-2.334 2.355v.172c0 1.3 1.045 2.355 2.334 2.355h26.64a2.345 2.345 0 002.333-2.355v-.172c0-1.301-1.044-2.356-2.333-2.356z" fill="#D6D6E3"/><path opacity=".1" d="M3.913 97.653v.47c0 .653.21 1.278.583 1.74.374.46.88.719 1.408.719H33.23c.528 0 1.034-.259 1.407-.72.374-.46.583-1.086.583-1.738v-.471H3.913z" fill="#000"/><path d="M64.57 100.582h-4.89v68.357h4.891v-68.357z" fill="#D6D6E3"/><path opacity=".1" d="M64.57 100.582h-4.89v4.883h4.891v-4.883z" fill="#000"/><path d="M199.581 95.7H56.744v8.788H199.58V95.7z" fill="#D6D6E3"/></g><defs><linearGradient id="paint0_linear" x1="203.341" y1="166.996" x2="216.097" y2="24.939" gradientUnits="userSpaceOnUse"><stop stop-color="gray" stop-opacity=".25"/><stop offset=".54" stop-color="gray" stop-opacity=".12"/><stop offset="1" stop-color="gray" stop-opacity=".1"/></linearGradient><linearGradient id="paint1_linear" x1="22253.8" y1="99637.6" x2="22253.8" y2="27727.5" gradientUnits="userSpaceOnUse"><stop stop-color="gray" stop-opacity=".25"/><stop offset=".54" stop-color="gray" stop-opacity=".12"/><stop offset="1" stop-color="gray" stop-opacity=".1"/></linearGradient><clipPath id="clip0"><path fill="#fff" d="M0 0h271v208H0z"/></clipPath></defs></svg>