<svg width="296" height="257" fill="none" xmlns="http://www.w3.org/2000/svg"><path opacity=".1" d="M143.5 257c81.561 0 151.86-18.201 151.86-24 0-5.799-70.299-21-151.86-21S0 227.201 0 233c0 5.799 61.939 24 143.5 24z" fill="#0A6EAA"/><path d="M233.005 11.97h-161.7v207.953h161.7V11.969z" fill="#E6E8EC"/><path d="M193.356 74.208h-82.554v.928h82.554v-.928zm0 6.493h-82.554v.928h82.554v-.928zm0 6.494h-82.554v.927h82.554v-.927z" fill="#3F3D56"/><path d="M193.356 104.61h-82.554v.928h82.554v-.928zm0 6.493h-82.554v.928h82.554v-.928z" fill="#24BCBA"/><path d="M193.356 117.596h-82.554v.928h82.554v-.928zm0 16.415h-82.554v.927h82.554v-.927zm0 6.493h-82.554v.928h82.554v-.928zm0 6.492h-82.554v.928h82.554v-.928zm0 16.414h-82.554v.928h82.554v-.928z" fill="#3F3D56"/><path d="M193.356 169.904h-82.554v.927h82.554v-.927z" fill="#24BCBA"/><path d="M193.356 176.397h-82.554v.927h82.554v-.927zm0 16.414h-82.554v.928h82.554v-.928zm0 6.492h-82.554v.928h82.554v-.928zm0 6.494h-82.554v.927h82.554v-.927z" fill="#3F3D56"/><path d="M239.013 230.946H65.32V0h173.693v230.946zm-172.92-.774H238.24V.774H66.094v229.398z" fill="#3F3D56"/><path d="M84.766 99.642a23.908 23.908 0 01-12.585 21.046 23.927 23.927 0 01-21.802.407 23.127 23.127 0 01-1.645-.889 23.89 23.89 0 01-7.73-33.802 23.886 23.886 0 019.1-8.078 23.484 23.484 0 014.556-1.746c.695-.189 1.4-.345 2.119-.47a23.905 23.905 0 015.566-.307 23.751 23.751 0 018.595 2.174 23.877 23.877 0 0113.826 21.665z" fill="#0A6EAA"/><path d="M70.205 75.22c-2.173-5.127-7.704-6.096-7.704-6.096s-5.326-1.42-9.774 5.346c-4.145 6.307-9.491 12.216-2.712 14.733l1.791-3.761.215 4.329c.986.205 1.982.356 2.985.453 7.52.763 14.609 2.034 14.74-.684.175-3.613 2.55-9.388.459-14.32z" fill="#2F2E41"/><path d="M50.892 117.004l-.177 1.419-.336 2.672a23.127 23.127 0 01-1.645-.889 22.465 22.465 0 01-1.586-1.024l.053-1.378.06-1.528 2.454.493 1.177.235zm24.708 1.45a23.912 23.912 0 01-3.42 2.234l-1.158-4.014-.153-.528-.38-1.321.409-.064 4.188-.661.135 1.139.378 3.215zM62.505 85.791a6.533 6.533 0 100-13.065 6.533 6.533 0 000 13.065z" fill="#FFB8B8"/><path d="M58.029 81.8s.484 8.225-.968 8.71c-1.452.483 7.5 0 7.5 0s-1.21-5.082 0-6.533c1.21-1.452-6.532-2.178-6.532-2.178z" fill="#FFB8B8"/><path d="M64.682 89.179s-6.29-.484-7.5 0c-1.21.483-4.597 2.903-4.597 2.903l1.694 15.243 13.79 2.903 2.178-3.145 2.178-4.597-.968-5.807-.242-3.387-6.533-4.113z" fill="#fff"/><path d="M51.375 93.05s-3.145.726-3.387 3.145c-.242 2.42-.242 8.468 0 9.436s0 1.452-.242 1.694-.726-.242-.242.484c.484.725.484.725.242 1.451-.242.726-.968-.242-.484.968s.726 1.452.484 1.694-.968 5.806-.968 5.806l4.114.726 4.113-14.275-3.63-11.13zm18.872 0a2.578 2.578 0 012.177 1.451c.726 1.452 2.662 10.888 2.42 11.614-.242.726-.726-.242-.242 1.21.484 1.451 0 1.209.242 2.177s-.968 0 0 .968 1.452 1.21.968 1.694-1.21-.484-.484.484c.726.967.726 2.419.726 2.419l-5.807 1.21-1.694-13.549 1.694-9.678z" fill="#fff"/><path d="M71.022 116.674l.29 4.458a23.927 23.927 0 01-20.933-.037 23.147 23.147 0 01-1.645-.889 105.792 105.792 0 01.982-3.437c1.086-3.554 2.255-6.577 3.352-7.751 0 0 0-2.66.485-2.903.232-.183.41-.426.513-.703.18-.4.332-.812.455-1.232l-.8-1.862-3.583-8.342a1.018 1.018 0 01.48-1.31l1.188-.596a1.02 1.02 0 011.368.465l5.46 11.16 6.048 3.873 4.242-1.887.113-.051s3.146-4.838 2.178-7.257c-.414-1.033-.87-2.413-1.26-3.658a137.6 137.6 0 01-.591-1.962.435.435 0 01.659-.484l.825.55c.187.126.335.302.427.507.038.08.066.165.084.252l1.79 8.667-2.418 5.079v4.839l.168 2.598.088 1.36.035.553zm-2.045-43.317l-5.544-2.904-7.654 1.188-1.584 6.995 3.942-.151 1.102-2.57v2.527l1.819-.07 1.056-4.091.66 4.355 6.467-.132-.264-5.147z" fill="#2F2E41"/><path d="M55.85 80.529c.402 0 .727-.569.727-1.27 0-.702-.325-1.27-.726-1.27-.401 0-.726.568-.726 1.27 0 .701.325 1.27.726 1.27z" fill="#FFB8B8"/><path d="M255.527 158.486c0 9.719-6.566 17.945-15.613 20.698a22.276 22.276 0 01-4.097.844c-.847.094-1.7.142-2.553.142-.318 0-.633-.006-.947-.022h-.004a22.551 22.551 0 01-9.156-2.337 22.312 22.312 0 01-5.468-3.831A21.345 21.345 0 01211 158.486c0-9.19 5.869-17.045 14.156-20.201a22.245 22.245 0 013.045-.92 22.94 22.94 0 0112.387.639l.006.002c.669.225 1.327.484 1.97.775.221.096.442.199.659.307.433.209.857.433 1.273.673a22.12 22.12 0 017.001 6.278 21.304 21.304 0 013.402 7.317c.419 1.677.629 3.4.628 5.13z" fill="#0A6EAA"/><path d="M257.285 123.308l3.048-.926.262-2.614s-7.412-2.727-9.782 2.097c-.837 1.703-1.892 2.726-2.906 3.337-.7.405-1.481.65-2.287.717a5.474 5.474 0 01-2.375-.326c-5.137-1.828-6.347 3.369-6.347 3.369s.444.74 3.611.922c1.576.09 2.865 1.246 3.763 2.383 1.923 2.436 5.872 1.732 6.842-1.192l.046-.143c1.515-4.833 8.412-.985 8.412-.985l.44-4.378-2.727-2.261z" fill="#2F2E41"/><path d="M236.518 135.139c2.061 0 3.732-1.627 3.732-3.635s-1.671-3.636-3.732-3.636c-2.062 0-3.733 1.628-3.733 3.636s1.671 3.635 3.733 3.635z" fill="#2F2E41"/><path d="M234.651 150.894c5.497 0 9.954-4.34 9.954-9.695s-4.457-9.695-9.954-9.695c-5.498 0-9.954 4.34-9.954 9.695s4.456 9.695 9.954 9.695z" fill="#2F2E41"/><path d="M234.34 151.399c3.78 0 6.844-2.984 6.844-6.665 0-3.682-3.064-6.666-6.844-6.666-3.779 0-6.843 2.984-6.843 6.666 0 3.681 3.064 6.665 6.843 6.665z" fill="#A0616A"/><path d="M231.644 149.783l1.244 6.464 6.222-.808s-1.037-5.05-.415-6.464l-7.051.808zm12.237-14.139s-4.977-3.635-7.051-2.222c-2.073 1.414 5.6 6.06 6.429 5.656.83-.404.622-3.434.622-3.434z" fill="#A0616A"/><path d="M248.65 163.113a.844.844 0 01-.004.101v.002c-.128 2.887-5.585 11.723-8.733 15.968a22.249 22.249 0 01-4.096.844c-.847.094-1.7.142-2.554.142-.317 0-.632-.006-.946-.022h-.004a187.874 187.874 0 01-8.852-3.052c-1.183-.448-2.16-.837-2.774-1.115a3.861 3.861 0 01-.656-.343c-1.037-.809 1.245-1.415 2.282-1.616 1.037-.203-.414-2.424-.414-2.424-3.734-3.839.828-7.069.828-7.069s1.866-3.839 1.866-4.849a.368.368 0 01.08-.205c.781-1.076 6.972-3.025 6.972-3.025v-3.233l.641-.104 6.308-1.024.516-.085 1.036 1.617 4.565.606s3.939 5.253 3.939 8.886z" fill="#003269"/><path d="M228.949 163.113s-2.733 7.381-5.229 13.362l-.258.621-.305.715a22.325 22.325 0 01-5.467-3.831c1.121-3.552 2.9-9.196 3.587-11.471.756-2.507 2.506-2.967 3.397-3.034.18-.016.362-.015.542.005l3.733 3.633zm15.139-8.28l.622-.606s7.88-8.281 7.673-10.301c0 0-4.148-5.05-9.332-3.636 0 0-2.282-5.454 1.244-5.252 3.525.202 16.59-.606 16.383 5.252-.208 5.858-12.65 23.834-12.65 23.834l-3.94-9.291z" fill="#003269"/><path d="M235.817 180.028c-.848.094-1.701.142-2.555.142-.317 0-.632-.006-.946-.022h-.003a22.551 22.551 0 01-11.777-3.869l.15-.298v-.001l.175-.342 2.857.837 12.099 3.553z" fill="#fff"/><path d="M241.153 141.664c.716-2.237-1.614-4.982-5.204-6.131-3.59-1.15-7.081-.268-7.798 1.969-.716 2.237 1.615 4.982 5.204 6.131 3.591 1.15 7.082.268 7.798-1.969z" fill="#2F2E41"/><path d="M64 224.74c0 1.196.09 2.389.271 3.571a23.287 23.287 0 0010.377 15.976A23.283 23.283 0 0085 247.889a23.28 23.28 0 0011.343-1.73c.259-.11.513-.225.767-.345a23.217 23.217 0 004.505-2.772l.005-.002a23.337 23.337 0 007.542-10.451v-.003a23.296 23.296 0 00-9.373-27.447c-.205-.128-.412-.258-.62-.378a12.47 12.47 0 00-.657-.379 23.07 23.07 0 00-9.709-2.85 23.228 23.228 0 00-1.544-.052c-.026 0-.052 0-.078.002A23.257 23.257 0 0064 224.74z" fill="#0A6EAA"/><path d="M111.232 232.728s6.794-7.02 8.605-2.718c1.812 4.303-6.793 6.567-6.793 6.567l-1.812-3.849z" fill="#FFB8B8"/><path d="M72.71 242.887a22.558 22.558 0 001.938 1.4 23.296 23.296 0 0021.696 1.872c.259-.11.513-.225.767-.345l-.597-.857a6.71 6.71 0 00-1.44-1.028c-4.082-2.215-11.768-2.147-16.97-1.783a88.906 88.906 0 00-3.129.274l-.381.041c-1.16.129-1.856.23-1.856.23l-.028.196z" fill="#2F2E41"/><path d="M92.67 211.488a6.508 6.508 0 10-.001-13.015 6.508 6.508 0 000 13.015z" fill="#FFB8B8"/><path d="M88.363 207.14l-4.755 4.982-1.359 7.699 12.001 2.038-.905-7.02s.226-3.397 1.132-4.076c.906-.679-6.114-3.623-6.114-3.623z" fill="#FFB8B8"/><path d="M74.321 243.372c.397-.128.8-.235 1.209-.321a18.114 18.114 0 013.12-.398 15.22 15.22 0 017.22 1.397c3.299 1.583 7.214 2.014 9.906 2.096.196.006.386.01.567.013.258-.11.512-.225.766-.345a22.283 22.283 0 001.885-.988l-.009-.797-.142-15.765v-.003l-.067-7.535-4.3-4.982-1.105-1.244-.526.471-3.125 2.813-4.555-4.219-1.56-1.443-7.479 25.178-.965 3.248-.568 1.913-.089.293v.002l-.183.616z" fill="#fff"/><path d="M91.7 221.426c.012 1.131.107 2.26.285 3.377.776 4.951 1.441 13.182 3.089 19.126.215.785.45 1.526.704 2.217l.077.213a20.509 20.509 0 001.256-.545 23.029 23.029 0 003.715-2.177l-.069-.271v-.003l-1.072-4.294s.689-3.594 1.24-7.616v-.002c.633-4.602 1.086-9.758.119-10.725l-7.588-6.941-.002.002c-.236.376-.44.773-.607 1.184-.517 1.226-1.172 3.388-1.146 6.455zm-23.606 16.495a23.255 23.255 0 006.553 6.366 223.477 223.477 0 002.23-3.155c.034-.047.066-.095.099-.142.344-.498.684-.998 1.016-1.495 2.447-3.655 4.475-7.163 4.708-9.259.28-2.508.846-6.389 1.421-10.096.37-2.408.746-4.742 1.045-6.575.362-2.227.612-3.717.612-3.717s-11.867-1.187-13.53-.022h-.002a.38.38 0 00-.187.258c-.181 1.262.788 12.992 1.189 17.729v.002c.103 1.215.17 1.97.17 1.97s-.679.906-1.674 2.36a90.408 90.408 0 00-3.65 5.776z" fill="#00AAC8"/><path d="M100.365 227.067l1.132 8.831 9.963-4.302 3.17 6.567-16.303 6.114s-2.944-15.625 2.038-17.21z" fill="#00AAC8"/><path d="M99.171 206.172s.885-.955.795-2.151a6.825 6.825 0 01.129-2.032s-.276-1.957-.685-3.091c-.409-1.134-.064-1.528-1.82-2.147-1.758-.62-.64-2.859-5.819-1.074a1.415 1.415 0 01-1.54.315c-.957-.35-1.533.964-1.533.964s-.596-.49-.931.019c-.335.509-1.953-.651-2.547 3.05-.593 3.702 1.444 7.002 1.444 7.002s.286-5.922 3.65-6.03c3.363-.108 7.167-1.382 7.639 1.112a18.2 18.2 0 001.218 4.063z" fill="#2F2E41"/><path d="M72.348 242.592c.118.099.239.199.362.295a22.555 22.555 0 001.938 1.4 23.079 23.079 0 006.172 2.808c.534-1.369-.745-3.073-2.168-4.442a20.94 20.94 0 00-.547-.507 24.705 24.705 0 00-1.228-1.014l-.047-.037a21.945 21.945 0 00-1.215-.876l-.452.329-2.815 2.044z" fill="#FFB8B8"/><path d="M64.27 228.311a23.288 23.288 0 009.214 15.173l1.02-.728v-.002l.47-.334 1.855-1.325.146-.105 1.424-1.017-.407-.478-1.866-2.195-4.382-5.155-1.045-1.228 2.548-3.102v-.002l2.66-3.237-2.264-14.492a2.41 2.41 0 00-1.395-.258h-.002c-.513.088-1.036.442-1.32 1.389-.515 1.717-4.672 12.147-6.656 17.096z" fill="#00AAC8"/><path d="M99.306 33.9l-.206-.205a2.947 2.947 0 00-2.02-.781c-.246 0-.453.04-.7.082a2.76 2.76 0 00-1.36.74l-.082.082-1.648 1.644-.413.411c-.659.658-1.73.658-2.43 0-.66-.657-.66-1.726 0-2.425l4.244-4.151c-1.072-1.11-2.597-1.768-4.245-1.768-3.297 0-5.975 2.672-5.975 5.96 0 1.645.66 3.124 1.772 4.234.66-.657 1.73-.657 2.431 0 .33.33.495.781.495 1.192 0 .165.04.33.164.411.124.165.33.288.577.288.454 0 .866.165 1.195.493.33.33.495.781.495 1.192 0 .37.33.7.7.7.454 0 .866.164 1.196.492.33.33.494.782.494 1.193 0 .37.33.698.7.698.454 0 .866.165 1.196.494.33.329.494.78.494 1.192 0-.411.33-.7.7-.7.454 0 .866-.163 1.196-.492.33-.33.494-.781.494-1.192 0-.411.33-.7.7-.7.454 0 .866-.164 1.196-.492.33-.33.494-.781.494-1.193 0-.41.33-.698.701-.698.453 0 .865-.165 1.195-.494.659-.657.659-1.726 0-2.425l-3.75-3.782z" fill="#24BCBA"/><path d="M90.446 35.915c.659.657 1.73.657 2.431 0l.412-.411 1.648-1.645c.042-.04.083-.082.083-.082.37-.37.865-.617 1.36-.74.206-.041.453-.082.7-.082.783 0 1.484.288 2.02.78l.206.206 3.832 3.823a6.023 6.023 0 001.772-4.234c0-3.288-2.678-5.96-5.975-5.96a5.957 5.957 0 00-4.245 1.768l-4.244 4.151a1.734 1.734 0 000 2.426zm4.244 8.55c-.37 0-.7-.33-.7-.7 0-.451-.165-.862-.495-1.191a1.723 1.723 0 00-1.195-.493c-.37 0-.7-.33-.7-.7a1.64 1.64 0 00-.495-1.191 1.723 1.723 0 00-1.195-.494.721.721 0 01-.577-.287c-.082-.124-.165-.247-.165-.411 0-.453-.164-.864-.494-1.193-.66-.657-1.73-.657-2.431 0-.66.658-.66 1.727 0 2.426.33.328.782.493 1.195.493.37 0 .7.329.7.699 0 .452.165.863.495 1.192.33.329.783.493 1.195.493.37 0 .7.329.7.699 0 .452.165.863.495 1.192.33.329.783.493 1.195.493.37 0 .7.33.7.7 0 .451.165.862.495 1.191.66.658 1.73.658 2.431 0 .33-.329.495-.78.495-1.192 0-.452-.165-.863-.495-1.192-.288-.37-.7-.534-1.153-.534zm25.345-5.796h-5.893v4.85h-1.854V32.215h8.118v1.726h-6.264v3.001h5.893v1.727zm8.489 1.561c0 2.467-1.772 3.495-3.585 3.495s-3.585-1.028-3.585-3.494v-4.44h1.689v4.316c0 1.48.824 2.056 1.896 2.056 1.071 0 1.895-.535 1.895-2.056v-4.316h1.69v4.44zm7.294-2.918h-2.968v3.37c0 1.029.536 1.44 1.237 1.44.535 0 1.112-.247 1.566-.535l.659 1.357c-.618.41-1.401.78-2.39.78-1.772 0-2.802-.945-2.802-3v-3.412h-1.566v-1.52h1.566v-2.344h1.689v2.343h2.967v1.521h.042zm8.448 2.918c0 2.467-1.772 3.495-3.586 3.495-1.813 0-3.585-1.028-3.585-3.494v-4.44h1.69v4.316c0 1.48.824 2.056 1.895 2.056 1.072 0 1.896-.535 1.896-2.056v-4.316h1.69v4.44zm6.923-4.439l-.412 1.686c-.371-.206-.866-.288-1.278-.288-1.071 0-1.854.78-1.854 2.096v4.275h-1.69v-7.769h1.69v.864c.494-.74 1.318-1.07 2.266-1.07.495 0 .907.042 1.278.206zm7.707 3.864c0 .206 0 .452-.041.617h-5.729c.248 1.397 1.196 1.973 2.308 1.973.783 0 1.607-.288 2.267-.822l.824 1.192c-.948.822-2.019 1.11-3.214 1.11-2.349 0-3.957-1.603-3.957-4.07 0-2.425 1.566-4.07 3.874-4.07 2.143 0 3.668 1.645 3.668 4.07zm-5.77-.657h4.039c-.206-1.193-.907-1.891-1.978-1.891-1.236-.041-1.896.74-2.061 1.89zm14.588.082v4.44H165.9V32.214h4.41c2.637 0 4.038 1.315 4.038 3.453 0 2.137-1.401 3.453-4.038 3.453h-2.596v-.041zm0-5.18v3.412h2.513c1.484 0 2.184-.534 2.184-1.726 0-1.151-.7-1.727-2.184-1.727h-2.513v.041zm14.258 5.755c0 .206 0 .452-.041.617h-5.728c.247 1.397 1.195 1.973 2.308 1.973a3.66 3.66 0 002.266-.822l.825 1.192c-.948.822-2.02 1.11-3.215 1.11-2.349 0-3.956-1.603-3.956-4.07 0-2.425 1.566-4.07 3.874-4.07 2.143 0 3.667 1.645 3.667 4.07zm-5.769-.657h4.039c-.206-1.193-.907-1.891-1.978-1.891-1.237-.041-1.896.74-2.061 1.89zm12.569-3.207l-.412 1.686c-.371-.206-.866-.288-1.278-.288-1.071 0-1.854.78-1.854 2.096v4.275h-1.69v-7.769h1.69v.864c.494-.74 1.318-1.07 2.266-1.07.495 0 .866.042 1.278.206zm6.593 1.521h-2.678v6.207h-1.69v-6.207h-1.566v-1.52h1.566v-1.316c0-1.562.783-2.795 2.596-2.795a4.28 4.28 0 012.184.575l-.618 1.439a2.935 2.935 0 00-1.442-.411c-.659 0-1.03.41-1.03 1.192v1.315h2.678v1.521zm7.914 2.343c0 .206 0 .452-.042.617h-5.728c.248 1.397 1.195 1.973 2.308 1.973.783 0 1.607-.288 2.267-.822l.824 1.192c-.948.822-2.02 1.11-3.215 1.11-2.349 0-3.956-1.603-3.956-4.07 0-2.425 1.566-4.07 3.874-4.07 2.184 0 3.668 1.645 3.668 4.07zm-5.77-.657h4.039c-.206-1.193-.907-1.891-1.978-1.891-1.195-.041-1.896.74-2.061 1.89zm13.558-2.179l-1.072 1.15c-.535-.492-1.112-.78-1.854-.78-1.319 0-2.308 1.028-2.308 2.466 0 1.48.989 2.467 2.308 2.467.742 0 1.401-.33 1.896-.823l1.03 1.151c-.701.822-1.731 1.234-2.885 1.234-2.472 0-4.079-1.768-4.079-4.07 0-2.343 1.607-4.07 4.079-4.07 1.154.042 2.184.453 2.885 1.275zm6.963.493h-2.967v3.37c0 1.029.536 1.44 1.236 1.44.536 0 1.113-.247 1.566-.535l.66 1.357c-.618.41-1.401.78-2.39.78-1.772 0-2.803-.945-2.803-3v-3.412h-1.524v-1.52h1.566v-2.344h1.689v2.343h2.967v1.521z" fill="#1D3767"/></svg>