<svg width="291" height="46" fill="none" xmlns="http://www.w3.org/2000/svg"><path d="M1 29.183l20.454-18.88C25.92 5.44 36.768-2.828 44.443 3.009c3.439 2.25 8.254 9.302 0 19.517L21.454 44.961" stroke="#003269" stroke-width="2"/><path d="M54 29.183l-20.454-18.88C29.08 5.44 18.232-2.828 10.557 3.009c-3.439 2.25-8.254 9.302 0 19.517l22.989 22.436" stroke="#003269" stroke-width="2"/><path d="M75.656 14.604c1.684 0 3.141.326 4.37.977 1.782.935 2.873 2.575 3.271 4.919h-2.404c-.293-1.31-.9-2.262-1.82-2.856-.919-.603-2.078-.904-3.478-.904-1.66 0-3.06.623-4.2 1.868-1.13 1.245-1.696 3.1-1.696 5.566 0 2.133.468 3.87 1.404 5.213.935 1.334 2.461 2.002 4.577 2.002 1.62 0 2.958-.468 4.016-1.404 1.066-.944 1.612-2.466 1.636-4.566h-5.615v-2.014h7.873V33h-1.562l-.586-2.307c-.822.903-1.55 1.53-2.185 1.88-1.066.602-2.421.903-4.065.903-2.124 0-3.951-.688-5.481-2.063-1.668-1.725-2.502-4.093-2.502-7.104 0-3.003.813-5.392 2.44-7.166 1.547-1.693 3.55-2.539 6.007-2.539zm16.858 5.03c.927 0 1.827.219 2.697.659.871.43 1.534.992 1.99 1.684.44.66.733 1.428.88 2.307.13.602.194 1.563.194 2.881h-9.582c.04 1.326.354 2.393.94 3.198.586.798 1.493 1.197 2.722 1.197 1.147 0 2.063-.379 2.747-1.136.39-.44.667-.948.83-1.526h2.16c-.057.48-.248 1.018-.573 1.612-.318.586-.676 1.066-1.075 1.44-.667.651-1.493 1.09-2.478 1.319a7.528 7.528 0 01-1.794.195c-1.628 0-3.007-.59-4.138-1.77-1.132-1.188-1.697-2.848-1.697-4.98 0-2.1.57-3.805 1.709-5.115 1.14-1.31 2.628-1.966 4.468-1.966zm3.503 5.785c-.09-.952-.297-1.713-.623-2.282-.602-1.058-1.607-1.587-3.015-1.587-1.009 0-1.855.366-2.539 1.098-.683.725-1.045 1.648-1.086 2.771h7.263zm6.275 3.48c.065.732.248 1.293.549 1.684.553.708 1.513 1.062 2.881 1.062.813 0 1.53-.175 2.148-.525.619-.358.928-.907.928-1.648 0-.561-.248-.989-.745-1.282-.317-.179-.944-.386-1.88-.622l-1.745-.44c-1.115-.276-1.937-.585-2.466-.927-.944-.594-1.416-1.416-1.416-2.466 0-1.237.443-2.238 1.33-3.003.896-.765 2.096-1.148 3.602-1.148 1.969 0 3.389.578 4.26 1.734.545.732.81 1.522.793 2.368h-2.075a2.546 2.546 0 00-.525-1.355c-.504-.578-1.379-.867-2.624-.867-.83 0-1.461.159-1.892.476-.424.318-.635.737-.635 1.258 0 .57.281 1.025.842 1.367.326.203.806.382 1.44.537l1.453.354c1.579.383 2.637.753 3.174 1.11.854.562 1.282 1.445 1.282 2.65 0 1.164-.444 2.169-1.331 3.015-.879.846-2.222 1.27-4.028 1.27-1.945 0-3.325-.44-4.138-1.319-.806-.887-1.237-1.982-1.294-3.284h2.112zm13.391-8.973v8.68c0 .667.105 1.212.317 1.635.391.782 1.119 1.172 2.185 1.172 1.53 0 2.572-.683 3.125-2.05.301-.733.452-1.738.452-3.016v-6.42h2.197V33h-2.075l.024-1.929a4.438 4.438 0 01-1.062 1.258c-.838.683-1.855 1.025-3.052 1.025-1.863 0-3.133-.623-3.808-1.868-.366-.667-.549-1.558-.549-2.673v-8.887h2.246zm11.718 0h2.088v1.856c.618-.765 1.273-1.315 1.965-1.648.692-.334 1.461-.5 2.307-.5 1.856 0 3.109.646 3.76 1.94.358.708.537 1.721.537 3.04V33h-2.234v-8.24c0-.797-.118-1.44-.354-1.929-.39-.813-1.098-1.22-2.124-1.22-.521 0-.948.053-1.282.159-.602.179-1.131.537-1.586 1.074-.367.431-.607.879-.721 1.342-.105.456-.158 1.111-.158 1.966V33h-2.198V19.926zm15.308 6.69c0 1.4.297 2.571.891 3.515.594.944 1.546 1.416 2.857 1.416 1.017 0 1.851-.435 2.502-1.306.659-.879.989-2.136.989-3.772 0-1.652-.338-2.873-1.013-3.662-.676-.797-1.51-1.196-2.503-1.196-1.107 0-2.006.423-2.698 1.27-.683.846-1.025 2.09-1.025 3.735zm3.308-6.922c1.001 0 1.839.212 2.515.635.39.244.834.671 1.33 1.282v-6.604h2.112V33h-1.977v-1.819c-.513.806-1.119 1.388-1.819 1.746-.7.358-1.502.537-2.405.537-1.457 0-2.718-.61-3.784-1.831-1.066-1.229-1.599-2.86-1.599-4.895 0-1.904.484-3.552 1.452-4.944.977-1.4 2.368-2.1 4.175-2.1zm8.24 10.132l9.289-11.633h-9.057v-3.186h13.745v3.015l-9.412 11.804h9.436V33h-14.001v-3.174zm19.739-10.132v8.02c0 .757.089 1.327.268 1.71.318.675.94 1.012 1.868 1.012 1.188 0 2.002-.48 2.441-1.44.228-.52.342-1.208.342-2.063v-7.239h3.528V33h-3.381v-1.88c-.033.04-.114.163-.245.366a2.44 2.44 0 01-.463.537c-.546.489-1.075.822-1.587 1.001-.505.18-1.099.269-1.783.269-1.969 0-3.296-.708-3.979-2.124-.383-.781-.574-1.933-.574-3.455v-8.02h3.565zm14.526 9.058c.073.618.232 1.058.476 1.318.431.464 1.229.696 2.393.696.683 0 1.224-.102 1.623-.305.407-.203.611-.509.611-.916a.987.987 0 00-.489-.89c-.325-.204-1.534-.554-3.625-1.05-1.506-.375-2.568-.843-3.186-1.404-.619-.554-.928-1.351-.928-2.393 0-1.229.48-2.283 1.44-3.162.969-.887 2.328-1.33 4.078-1.33 1.66 0 3.011.334 4.052 1 1.05.66 1.652 1.803 1.807 3.431h-3.479c-.049-.448-.175-.802-.378-1.062-.383-.472-1.034-.708-1.954-.708-.756 0-1.298.118-1.623.354-.318.236-.476.513-.476.83 0 .399.171.688.512.867.342.187 1.551.509 3.626.964 1.383.326 2.421.818 3.113 1.477.683.668 1.025 1.502 1.025 2.503 0 1.318-.492 2.396-1.477 3.234-.976.83-2.49 1.246-4.541 1.246-2.091 0-3.638-.44-4.639-1.319-.992-.887-1.489-2.014-1.489-3.381h3.528zm18.542-2.222a3.982 3.982 0 01-.671.342c-.22.081-.525.159-.915.232l-.782.146c-.732.13-1.257.29-1.574.477-.538.317-.806.81-.806 1.477 0 .594.163 1.025.488 1.294.334.26.737.39 1.209.39.748 0 1.436-.22 2.063-.659.634-.44.964-1.241.988-2.405V26.53zm-2.111-1.623c.643-.082 1.102-.183 1.379-.305.496-.212.745-.542.745-.99 0-.544-.192-.919-.574-1.122-.374-.212-.928-.318-1.66-.318-.822 0-1.404.204-1.746.61-.244.302-.407.709-.488 1.221h-3.357c.073-1.163.399-2.12.977-2.868.919-1.172 2.498-1.758 4.736-1.758 1.457 0 2.75.289 3.882.867 1.131.578 1.696 1.668 1.696 3.271v6.104c0 .423.009.936.025 1.538.024.456.093.765.207.927.114.163.285.297.513.403V33h-3.784a3.885 3.885 0 01-.22-.757 8.877 8.877 0 01-.097-.806 7.163 7.163 0 01-1.661 1.331c-.748.431-1.595.647-2.539.647-1.204 0-2.201-.342-2.99-1.025-.782-.692-1.172-1.669-1.172-2.93 0-1.636.63-2.82 1.892-3.552.692-.399 1.709-.684 3.052-.855l1.184-.146zm23.559-5.506c.586 0 1.164.114 1.734.342.569.228 1.086.627 1.55 1.197.374.463.627 1.033.757 1.708.081.448.122 1.103.122 1.966L232.65 33h-3.564v-8.472c0-.504-.081-.92-.244-1.245-.309-.618-.879-.928-1.709-.928-.96 0-1.624.4-1.99 1.197-.187.423-.281.932-.281 1.526V33h-3.503v-7.922c0-.79-.081-1.363-.244-1.722-.293-.643-.867-.964-1.721-.964-.993 0-1.661.322-2.002.964-.188.367-.281.912-.281 1.636V33h-3.528V19.719h3.381v1.94c.432-.691.839-1.183 1.221-1.476.676-.521 1.55-.782 2.625-.782 1.017 0 1.839.224 2.465.672.505.415.887.948 1.148 1.599.456-.781 1.021-1.355 1.697-1.721.716-.367 1.513-.55 2.392-.55zm22.241 0c.586 0 1.164.114 1.734.342.569.228 1.086.627 1.55 1.197.374.463.627 1.033.757 1.708.081.448.122 1.103.122 1.966L254.892 33h-3.565v-8.472c0-.504-.081-.92-.244-1.245-.309-.618-.879-.928-1.709-.928-.96 0-1.624.4-1.99 1.197-.187.423-.28.932-.28 1.526V33H243.6v-7.922c0-.79-.081-1.363-.244-1.722-.293-.643-.867-.964-1.721-.964-.993 0-1.66.322-2.002.964-.187.367-.281.912-.281 1.636V33h-3.528V19.719h3.382v1.94c.431-.691.838-1.183 1.22-1.476.676-.521 1.551-.782 2.625-.782 1.017 0 1.839.224 2.466.672.504.415.887.948 1.147 1.599.456-.781 1.021-1.355 1.697-1.721.716-.367 1.514-.55 2.392-.55zm12.622 2.808c-.805 0-1.432.252-1.879.757-.44.504-.717 1.188-.83 2.05h5.407c-.057-.919-.337-1.615-.842-2.087-.496-.48-1.115-.72-1.856-.72zm0-2.869c1.107 0 2.104.208 2.991.623.887.415 1.62 1.07 2.197 1.965.521.79.859 1.705 1.014 2.747.089.61.126 1.49.11 2.636h-9.107c.049 1.335.468 2.271 1.257 2.808.481.334 1.058.5 1.734.5.716 0 1.298-.203 1.745-.61.245-.22.46-.525.647-.915h3.553c-.09.79-.501 1.59-1.233 2.404-1.14 1.294-2.735 1.942-4.785 1.942-1.693 0-3.186-.546-4.48-1.636-1.294-1.09-1.941-2.865-1.941-5.323 0-2.303.582-4.069 1.745-5.297 1.172-1.23 2.69-1.844 4.553-1.844zm16.041.037c1.375 0 2.498.362 3.369 1.086.879.716 1.318 1.909 1.318 3.577V33h-3.564v-8.093c0-.7-.094-1.237-.281-1.612-.342-.683-.993-1.025-1.953-1.025-1.18 0-1.99.5-2.43 1.502-.227.529-.341 1.204-.341 2.026V33h-3.467V19.719h3.357v1.94c.447-.683.871-1.175 1.269-1.476.717-.538 1.624-.806 2.723-.806z" fill="#003269"/></svg>