<svg width="249" height="221" fill="none" xmlns="http://www.w3.org/2000/svg"><g clip-path="url(#clip0)"><path opacity=".1" d="M111.552 85.506c-9.732-3.155-20.022-5.8-30.537-5.527-15.46.402-30.324 7.619-37.656 18.285-6.196 9.038-7.023 19.66-9.729 29.711-3.332 12.382-9.659 24.133-16.41 35.624-3.627 6.172-7.453 12.474-8.083 19.256-.865 9.416 4.83 18.83 13.81 25.139 8.98 6.31 20.93 9.673 32.936 10.458 6.388.416 13.064.095 18.752-2.21 6.016-2.429 10.416-6.874 16.456-9.276 5.6-2.224 12.125-2.51 18.405-2.183a102.27 102.27 0 0123.995 4.118c8.754 2.624 16.888 6.399 25.623 9.06 8.735 2.661 18.499 4.167 27.449 2.027 8.404-2.008 15.069-6.958 21.08-11.972a229.364 229.364 0 0026.93-26.448c5.429-6.313 10.486-12.979 12.911-20.355 4.631-14.104-1.574-30.073-15.458-39.786-11.501-8.05-26.975-11.604-42.127-13.763-13.819-1.989-29.807-2.186-42.508-7.252-12.113-4.845-23.133-10.787-35.839-14.906z" fill="#227AA6"/><path d="M121.286 93.875c-.345.033-.696.016-1.038.07a4.718 4.718 0 00-1.616.65c-2.452 1.399-4.766 3.32-5.782 5.954a.815.815 0 00-.076.527.896.896 0 00.286.372l.954.869c.12.126.264.226.423.297.257.067.528.059.781-.024 2.622-.602 5.408-1.296 7.248-3.26.873-.931 1.678-2.213 2.963-2.248.539 0 1.043.207 1.574.27.531.061 1.169-.165 1.296-.683a1.444 1.444 0 00-.086-.764l-.792-2.642c-.216-.724-2.39-.761-3.115-.632-1.105.192-1.848 1.136-3.02 1.244zm9.334 14.884c-.038.904.035 1.819-.114 2.715a7.914 7.914 0 01-.671 2.038 13.352 13.352 0 01-1.832 2.89c-.681.81-1.498 1.571-2.508 1.89-1.01.318-2.252.089-2.883-.764-.514-.694-.539-1.62-.501-2.486.092-2.129.426-4.288 1.379-6.194.41-.809.93-1.581 1.348-2.399.873-1.697 1.371-3.711 2.877-4.882a9.461 9.461 0 002.991.823c.401.043 1.549.07 1.684.586.091.348-.663 1.322-.809 1.665a11.366 11.366 0 00-.961 4.118z" fill="#003269"/><path d="M119.939 69.837c.323.826.733 1.636.808 2.515.054.54 0 1.08 0 1.62.046.74.169 1.472.367 2.186l1.5 6.153c.224.92.448 1.865.332 2.804-.078.626-.305 1.233-.302 1.862.029.477.105.95.226 1.412a8.695 8.695 0 01-.226 4.29.65.65 0 00-.046.333c.038.175.208.283.361.367a15.37 15.37 0 005.2 1.735 51.067 51.067 0 003.422-12.239c.383-2.548.569-5.128 1.059-7.656a.625.625 0 01.175-.39c.183-.153.461-.056.676.047a60.256 60.256 0 017.924 4.588 9.917 9.917 0 001.826-3.9 9.92 9.92 0 00.004-4.307 17.018 17.018 0 00-1.348-3.53 19.902 19.902 0 00-2.29-3.852c-1.999-2.51-4.93-4.112-7.948-5.2-1.835-.664-3.723-1.155-5.609-1.657-1.056-.284-2.827-1.207-3.853-.489-1.078.748-1.795 2.602-2.236 3.779-.546 1.46-.843 3-.879 4.558a12.904 12.904 0 00.857 4.971z" fill="#3F3D56"/><path d="M141.598 77.256c-.563.615-.089 1.598-.197 2.429a3.34 3.34 0 01-.396 1.066l-2.578 5.071a9.437 9.437 0 00-.96 2.429c-.353 1.83.372 3.886-.555 5.503-.299.52-.762.969-.886 1.557-.092.43 0 .877-.046 1.312-.062.51-.334.969-.485 1.46a10.27 10.27 0 00-.25 1.436 8.45 8.45 0 01-3.029 5.246 4.813 4.813 0 01-3.341 1.139c-1.201-.103-2.395-.92-2.64-2.102-.084-.403-.067-.851-.318-1.177-.356-.467-1.105-.486-1.447-.964l1.326-2.186c.412-.677.832-1.384.9-2.175.081-.969-.386-1.935-.219-2.893.143-.823.733-1.509.911-2.324.221-1.012-.221-2.034-.461-3.044-.587-2.486.07-5.076.725-7.557.87-3.281 1.762-6.614 3.524-9.516 3.516 1.898 6.749 3.72 10.422 5.29z" fill="#3F3D56"/><path d="M141.631 25.85c.21.571.097 1.205.056 1.813-.094 1.35.191 2.699.127 4.067-.065 1.368-.485 2.674-.776 4.005-.827 3.797-.628 7.754-1.377 11.567-.924 4.723-3.287 9.122-3.753 13.915-.148 1.522-.129 3.152-.962 4.437a69.534 69.534 0 01-13.935-8.2c.949-7.046 1.886-14.127 1.76-21.236a9.12 9.12 0 01.177-2.559 7.887 7.887 0 01.96-1.991c1.042-1.698 2.19-3.328 3.335-4.955.733-1.042 1.525-2.135 2.694-2.623 1.17-.489 2.555-.27 3.829-.038 1.534.28 3.066.561 4.596.842.957.175 2.859-.16 3.269.955z" fill="#0A6EAA"/><path d="M104.737 52.85c-.628-.63-1.314-1.2-2.048-1.702.957-1.166.768-2.853 1.003-4.345.192-.97.483-1.917.87-2.826.097-.256.234-.54.501-.607a.89.89 0 01.48.075c.808.286 2.495.27 3.122.794.757.637.065 1.97-.221 2.766-.202.534-3.305 6.25-3.707 5.846z" fill="#BE6F72"/><path d="M107.084 103.251a5.6 5.6 0 01.779 2.159c.065.767-.216 1.606-.868 2.011-.652.404-1.586.27-2.362.027a12.306 12.306 0 01-7.45-6.747c-.245-.567-.458-1.169-.892-1.606a4.94 4.94 0 00-1.064-.715c-1.059-.6-2.08-1.387-2.57-2.505-.49-1.117-.27-2.61.746-3.273a2.752 2.752 0 012.112-.27c.702.2 1.375.493 2 .871 1.045.57 2.322 1.061 3.232 1.82.809.666 1.533 1.567 2.223 2.353a33.3 33.3 0 012.218 2.833c.221.289 2.082 2.78 1.896 3.042zm-19.748-5.665a18.719 18.719 0 01-.714 4.008c-.219.734-.507 1.498-1.113 1.965a4.061 4.061 0 01-1.7.623 1.617 1.617 0 01-.65.041c-.371-.079-.635-.4-.864-.705-.9-1.193-1.776-2.453-2.156-3.9-.539-2.097 0-4.345.935-6.304a6.453 6.453 0 011.442-2.102 5.516 5.516 0 012.645-1.19c.995-.2 2.215-.627 2.288.585a56.397 56.397 0 01-.113 6.98z" fill="#003269"/><path d="M102.243 46.86c1.859.963 3.923 2.188 4.311 4.247.24 1.258-.221 2.545-.145 3.825.067 1.125.539 2.213.479 3.335a15.91 15.91 0 01-.269 1.58c-.159.995-.065 2.01-.105 3.016-.089 2.267-.846 4.448-1.213 6.685a19.607 19.607 0 00-.18 4.834c.089 1.042.269 2.078.269 3.125 0 .754-.062 1.507-.186 2.251a22.472 22.472 0 01-2.155 6.712c-1.296 2.556-1.113 5.854-.975 8.717.06.395.009.798-.146 1.166-.339.618-1.185.707-1.886.648a10.233 10.233 0 01-6.736-3.417 1.73 1.73 0 01-.49-.91c-.06-.577.404-1.052.738-1.53 1.137-1.619.849-3.813.984-5.802a12.7 12.7 0 011.02-4.197c.335-.769.752-1.527.828-2.364.07-.78-.167-1.552-.401-2.297l-.809-2.569c-1.253-3.992-2.514-8.007-4.41-11.734a5.87 5.87 0 00-2.493 3.508c-.705 2.542.3 5.382-.662 7.827a7.03 7.03 0 00-.396 1.05 4.23 4.23 0 00-.065.941c.025 2.631.185 5.259.48 7.873.014.396.125.782.323 1.125.159.23.39.4.56.618.472.613.383 1.471.27 2.235l-.54 3.61a.98.98 0 01-.174.51.964.964 0 01-.458.25 12.752 12.752 0 01-5.297.485c-.526-.062-1.002-.416-1.442-.712-.046-.54.625-.9.65-1.436a1.24 1.24 0 00-.413-.826c-1.002-1.134-2.198-2.337-2.187-3.851 0-.397.094-.794.08-1.19-.035-1.018-.735-1.89-.98-2.87-.302-1.211.1-2.469.253-3.707.21-1.668-.038-3.358-.27-5.023l-.902-6.11a16.385 16.385 0 00-.56-2.801c-.34-.902-.739-1.78-1.194-2.63-.862-1.753-1.57-3.578-2.277-5.397a4.927 4.927 0 01-.417-1.562c-.04-.926.436-1.8 1.029-2.513a7.84 7.84 0 014.31-2.618c.282-.078.579-.09.866-.035.241.08.468.2.67.354a16.1 16.1 0 0014.245 1.692c.27.205.768.116 1.078-.03.865-.397 1.57-1.058 2.33-1.62 1.415-1.073 3.322-2.093 5.06-2.469zm-55.845 69.307c.143.414.358.799.635 1.137.976 1.274 2.337 2.291 2.964 3.778.132.318.23.653.35.977.37.977.97 1.85 1.752 2.542.596.496 1.244.926 1.932 1.282 1.19.651 2.478 1.239 3.83 1.204.273-.006.544-.039.81-.097a4.388 4.388 0 001.203-.443c.87-.48 1.617-1.419 1.445-2.399a2.203 2.203 0 00-.175-.54 5.675 5.675 0 00-.494-.78c-.455-.631-.924-1.279-1.59-1.684-.748-.459-1.691-.572-2.365-1.139a3.72 3.72 0 01-.681-.826 10.42 10.42 0 01-1.348-3.057c-.204-.81-.342-1.698-.932-2.292-.59-.593-1.4-.728-2.188-.863a3.849 3.849 0 00-.808-.079c-.385.014-.784.125-1.145-.056s-.482-.437-.919-.402c-.347.047-.675.19-.945.413-1.024.758-1.703 2.107-1.331 3.324z" fill="#3F3D56"/><path d="M55.97 117.396c.175.914.445 1.889 1.15 2.485.45.389 1.079.632 1.302 1.179.224.548-.064 1.237-.436 1.739a6.416 6.416 0 01-1.735 1.595c-.572.353-1.253.623-1.908.466-.539-.126-.965-.515-1.366-.89-.921-.856-1.864-1.744-2.382-2.891-.539-1.209-.566-2.609-1.153-3.8-.342-.693-.87-1.3-1.078-2.045a1.272 1.272 0 010-.831 1.17 1.17 0 011.057-.629c.433.014.861.106 1.263.27a27.82 27.82 0 003.726 1.044c.504.094.809.092 1.078.58.249.548.412 1.13.482 1.728zm3.126 7.734c-.2.306-.341.647-.418 1.004a2.25 2.25 0 00-.03.848 4.39 4.39 0 001.205-.443c.87-.48 1.617-1.42 1.444-2.399a2.203 2.203 0 00-.175-.54.752.752 0 00-.717.224 5.946 5.946 0 00-1.309 1.306z" fill="#FBBEBE"/><path d="M49.44 104.625a1.328 1.328 0 00-.099.809c.124.54.676.85 1.175 1.096l4.74 2.321c.328.152.648.323.958.51.809.497 1.444 1.198 2.134 1.841.69.642 1.458 1.244 2.371 1.471.912.2 1.865.075 2.694-.354a5.561 5.561 0 001.234-.839c.322-.283.62-.593.89-.926.231-.245.397-.545.482-.872.089-.494-.157-.979-.442-1.387a6.423 6.423 0 00-.539-.669c-1.797-1.989-4.742-3.02-7.275-3.425-1.007-.162-1.964-.54-2.934-.847-.97-.308-1.996-.54-3.004-.397-1.007.143-1.999.723-2.384 1.668z" fill="#3F3D56"/><path opacity=".1" d="M49.44 104.625a1.328 1.328 0 00-.099.809c.124.54.676.85 1.175 1.096l4.74 2.321c.328.152.648.323.958.51.809.497 1.444 1.198 2.134 1.841.69.642 1.458 1.244 2.371 1.471.912.2 1.865.075 2.694-.354a5.561 5.561 0 001.234-.839c.322-.283.62-.593.89-.926.231-.245.397-.545.482-.872.089-.494-.157-.979-.442-1.387a6.423 6.423 0 00-.539-.669c-1.797-1.989-4.742-3.02-7.275-3.425-1.007-.162-1.964-.54-2.934-.847-.97-.308-1.996-.54-3.004-.397-1.007.143-1.999.723-2.384 1.668z" fill="#000"/><path d="M61.3 106.106c.365.41.665.874.89 1.374.202.328.274.72.202 1.098a1.604 1.604 0 01-.494.648l-.471.437a1.853 1.853 0 01-.49.367 1.954 1.954 0 01-.809.122c-.633 0-1.315 0-1.83-.381-.702-.507-.829-1.557-.508-2.364.32-.807.991-1.417 1.667-1.962.55-.445 1.458.254 1.843.661zm2.878 2.791c-.087.448-.045.911.121 1.336.119.405.234.809.35 1.222v.017a7.62 7.62 0 00.89-.926c.231-.245.397-.545.482-.872.089-.494-.156-.98-.442-1.387a6.32 6.32 0 00-.539-.669c-.127.164-.237.326-.329.431a2.392 2.392 0 00-.533.848z" fill="#FBBEBE"/><path d="M51.798 88.783c-.558 2.348-.32 4.803-.024 7.2.226 1.825.48 3.714-.06 5.471-.2.655-.514 1.322-.393 1.999.229 1.277 1.765 1.768 3.036 2.008.367.094.748.117 1.124.068a2.667 2.667 0 001.024-.54 11.205 11.205 0 003.941-5.25c.483-1.408.636-2.906.785-4.387.247-2.494.498-5.017.134-7.495-.108-.729-.27-1.45-.337-2.183a15.803 15.803 0 01.21-3.82 61.69 61.69 0 012.102-9.213 12.377 12.377 0 01-7.458-1.35c.442.238-.064 4.025-.118 4.556a30.966 30.966 0 01-.854 4.696c-.752 2.88-2.43 5.379-3.112 8.24z" fill="#3F3D56"/><path opacity=".1" d="M51.798 88.783c-.558 2.348-.32 4.803-.024 7.2.226 1.825.48 3.714-.06 5.471-.2.655-.514 1.322-.393 1.999.229 1.277 1.765 1.768 3.036 2.008.367.094.748.117 1.124.068a2.667 2.667 0 001.024-.54 11.205 11.205 0 003.941-5.25c.483-1.408.636-2.906.785-4.387.247-2.494.498-5.017.134-7.495-.108-.729-.27-1.45-.337-2.183a15.803 15.803 0 01.21-3.82 61.69 61.69 0 012.102-9.213 12.377 12.377 0 01-7.458-1.35c.442.238-.064 4.025-.118 4.556a30.966 30.966 0 01-.854 4.696c-.752 2.88-2.43 5.379-3.112 8.24z" fill="#000"/><path d="M65.786 75.024c1.078 3.128.84 6.545.375 9.821-.466 3.276-1.153 6.553-.951 9.853.078 1.296.288 2.626-.09 3.865a8.464 8.464 0 01-.826 1.725l-8.598 14.892a2.672 2.672 0 01-2.155 1.349c-.919.065-1.822-.237-2.678-.575a4.824 4.824 0 01-1.56-.866 1.853 1.853 0 01-.658-1.582c.386-2.585.965-5.233 1.393-7.826a13.56 13.56 0 011.87-4.958c.666-1.08 1.484-2.048 2.058-3.17 1.65-3.218 1.078-7.142-.194-10.526-1.271-3.385-3.165-6.526-4.176-9.986a11.46 11.46 0 01-.509-2.969 7.926 7.926 0 012.252-5.63c.212-.24.48-.425.78-.539a2.18 2.18 0 011.06.019c4.788.931 11.026 2.483 12.607 7.103z" fill="#3F3D56"/><path d="M143.066 28.327c.156 1.182-.27 2.377-.876 3.4-2.293 3.832-7.579 5.527-11.666 3.743-1.684-.736-3.109-1.95-4.505-3.15-.469-.404-.956-.828-1.194-1.4-.417-1.012.087-2.218.908-2.942.822-.723 1.886-1.079 2.945-1.4 3.495-1.09 13.555-4.529 14.388 1.749z" fill="#FBBEBE"/><path d="M141.02 24.575c3.182 2.564 7.814 5.007 11.419 6.907 1.226.647 2.586 1.376 3.028 2.698.237.708.159 1.477.081 2.222-.151 1.433-.307 2.887-.86 4.218-.649 1.557-1.797 2.842-2.718 4.256-1.617 2.477-2.565 5.397-4.561 7.586 1.347 4.483 2.82 8.96 3.3 13.613a.63.63 0 01-.04.38.657.657 0 01-.211.192l-3.351 2.202a3.773 3.773 0 00-.968.81c-.592.772-.514 1.857-.881 2.755a3.573 3.573 0 01-2.074 1.89 6.378 6.378 0 01-2.853.302 6.627 6.627 0 01-3.406-1.201c-.854-.648-1.463-1.557-2.05-2.453a9.575 9.575 0 01-1.078-1.968c-.358-.993-.38-2.075-.366-3.133.008-2.013.201-4.021.573-6 .157-.785.351-1.56.475-2.35.247-1.593.199-3.217.382-4.817a32.58 32.58 0 011.199-5.31c.3-1.072.534-2.163.701-3.265.315-1.937.943-3.808 1.57-5.667l1.078-3.187c.229-.689.461-1.374.733-2.046.507-1.255 1.159-2.478 1.331-3.816.191-1.46-1.382-3.193-.851-4.564.043-.151.277-.35.398-.254z" fill="#3F3D56"/><path d="M154.606 33.428c.747.337 1.159 1.141 1.426 1.918.601 1.752.746 3.629.42 5.452a9.92 9.92 0 00-.216 1.392 9.36 9.36 0 00.159 1.62c.27 2.064 0 4.161.089 6.245.092 2.342.601 4.817-.38 6.947-.652 1.414-1.886 2.466-3.103 3.422a62.088 62.088 0 01-14.865 8.593c.919-1.107.935-2.772.324-4.075-.612-1.304-1.749-2.284-2.964-3.045a19.092 19.092 0 004.459-1.595c2.823-1.435 5.243-3.538 7.633-5.619.352-.254.627-.601.792-1.004.242-.81-.426-1.579-.889-2.288-1.404-2.16-1.078-4.98-.491-7.479.655-2.739 1.617-5.467 3.371-7.67 1.094-1.376 2.522-2.434 4.235-2.814z" fill="#3F3D56"/><path d="M137.898 69.084a3.69 3.69 0 01-.927 1.02c-.808.54-1.918.335-2.821-.048a8.22 8.22 0 01-2.29-1.46 3.581 3.581 0 00-1.016-.756c-.706-.27-1.692-.068-2.088-.718a.383.383 0 01-.065-.232c.025-.235.332-.3.569-.313a7.048 7.048 0 003.117-.964 2.997 2.997 0 01-.765-.81.631.631 0 01-.129-.382.685.685 0 01.234-.384 5.995 5.995 0 016.596-1.1c.211.085.397.224.539.404.099.166.166.349.196.54.175.755.808 1.889.579 2.653-.253.877-1.209 1.808-1.729 2.55z" fill="#FBBEBE"/><path d="M119.527 65.68c3.352-3.877 4.85-8.98 6.24-13.917l.994-3.508 2.398-8.45c.353-1.247.706-2.494.941-3.765.401-2.194.439-4.437.414-6.666a7.216 7.216 0 00-.622-2.677c-.234-.583-.347-1.204-.539-1.806a9.006 9.006 0 00-1.08-2.372 2.478 2.478 0 00-.488-.583 2.828 2.828 0 00-1.102-.448 9.681 9.681 0 00-2.638-.402c-.894.032-1.815.343-2.392 1.023-.439.52-.641 1.195-.989 1.78-.162.24-.308.49-.439.748-.148.393-.23.807-.242 1.226-.141 1.7-.26 3.402-.359 5.106-.046.774-.086 1.554-.056 2.332.024.604.089 1.206.153 1.808l.639 5.894c.148 1.385.043 2.68.167 4.067.302 3.35-.418 6.699-1.156 9.986-.353 1.562-.717 3.147-1.471 4.56-.666 1.253-1.663 2.524-1.398 3.92.091.485.336.939.374 1.43a2.9 2.9 0 00.089.904 1.082 1.082 0 001.15.54 2.667 2.667 0 001.412-.73z" fill="#3F3D56"/><path d="M119.936 50.16c.102.775.024 1.56.062 2.34a15.83 15.83 0 00.538 2.969c.27 1.08.615 2.288 1.566 2.887.238.124.466.268.681.43a.668.668 0 01.221.723l-.741-.124a.75.75 0 01.086 1.12.752.752 0 01-1.12-.04c.028.242.005.489-.067.722a.594.594 0 01-.539.405.872.872 0 01-.386-.162l-1.934-1.2a3.57 3.57 0 01-1.393-1.35l-.846-1.277a3.018 3.018 0 01-.439-.81c-.315-1.079.566-2.277.108-3.295-.138-.25-.3-.487-.483-.707-.978-1.35-.916-3.184-.808-4.857.035-.565.137-1.234.647-1.48.404-.197.889-.021 1.263.224.375.246.706.57 1.132.716.269.092.566.102.835.2.377.132.728.647.981.952a3.17 3.17 0 01.636 1.614z" fill="#FBBEBE"/><path d="M96.326 25.906a4.798 4.798 0 01-.949 1.42 1.834 1.834 0 01-1.562.54c-.598-.12-1.038-.613-1.434-1.08-1.034-1.218-2.082-2.45-2.777-3.892-1.062-2.194-1.232-4.699-1.385-7.13-.038-.626-.07-1.29.229-1.838.38-.7 1.185-1.028 1.929-1.306l4.109-1.539c.251-.12.53-.17.808-.148.644.108.88.885 1.056 1.514a9.451 9.451 0 001.536 3.13c.921 1.231 2.988 2.888 1.808 4.424-1.426 1.84-2.33 3.827-3.368 5.905z" fill="#BE6F72"/><path d="M101.583 18.884c1.799 1.694 2.408 4.334 2.322 6.803-.086 2.47-.77 4.877-1.161 7.317-.391 2.44-.469 5.044.59 7.287.364.769.859 1.481 1.113 2.293.212.803.284 1.637.213 2.464a7.054 7.054 0 01-.491 2.548c-.574 1.274-1.754 2.16-2.883 2.969-2.303 1.668-4.653 3.363-7.358 4.234-1.832.591-3.772.786-5.69.89a18.071 18.071 0 01-3.896-.11 10.575 10.575 0 01-5.914-3.136 3.32 3.32 0 01-.67-.925 3.852 3.852 0 01-.235-1.404 62.471 62.471 0 01.032-5.316 23.41 23.41 0 01.692-5.007c.515-1.889 1.407-3.66 2.083-5.5 2.355-6.399 2.118-13.68 5.389-19.655.706-1.29 1.886-2.648 3.34-2.443.28.017.544.138.739.34.167.246.26.534.27.831.347 2.904.84 5.884 2.206 8.504.539 1.029 1.347 2.594 2.59 2.87 1.241.274 1.974-.913 2.64-1.755a21.515 21.515 0 014.079-4.1z" fill="#E3E8F4"/><path d="M110.197 14.514c.367.199.709.44 1.021.718.808.767 1.104 1.94 1.099 3.053-.005 1.111-.269 2.207-.431 3.308-.434 2.969-.065 6.008.108 9.014a4.4 4.4 0 01-.086 1.452c-.133.454-.405.853-.58 1.293-.514 1.3-.126 2.785-.428 4.15-.323 1.455-1.431 2.778-1.223 4.254.083.578.361 1.11.479 1.681.119.573.016 1.263-.477 1.571-.493.308-1.209.084-1.797.254a5.551 5.551 0 00-.695.313c-.908.41-1.991.27-2.885-.178a8.751 8.751 0 01-2.331-1.852c-1.027-1.052-2.02-2.205-2.47-3.605-.658-2.03-.073-4.24.641-6.253.714-2.014 1.565-4.049 1.438-6.189-.07-1.198-.447-2.35-.673-3.527a22.57 22.57 0 01-.299-4.939c.035-1.209.116-2.456.636-3.549a4.879 4.879 0 013.858-2.645c1.886-.205 3.502.759 5.095 1.676z" fill="#3F3D56"/><path opacity=".1" d="M105.101 40.6c.019.864.173 1.72.458 2.535.482-1.101.539-2.337.603-3.535.27-4.127 1.183-8.019 2.156-12.016-.709.54-1.107 1.89-1.447 2.7a23.835 23.835 0 00-1.77 10.317z" fill="#000"/><path d="M86.94 11.848c-1.3.342-2.426 1.114-3.684 1.619-1.307.54-2.713.77-4.085 1.101-3.173.772-6.36 2.205-8.276 4.858-1.412 1.951-1.997 4.361-2.964 6.572-.808 1.854-1.886 3.592-2.481 5.521-.78 2.518-.69 5.217-.499 7.846.156 2.159.394 4.342 1.372 6.256.511 1.004 1.217 1.902 1.73 2.906.614 1.207.937 2.537 1.449 3.779.512 1.241 1.263 2.483 2.452 3.13l1.966-1.152c2.934-1.72 5.868-3.441 8.711-5.309 2.479-1.619 4.979-3.479 6.3-6.14 1.169-2.35 1.284-5.098.983-7.707-.302-2.61-.992-5.163-1.347-7.765a31.32 31.32 0 01.202-9.853c.269-1.468.986-2.985 1.134-4.448.164-1.562-1.84-1.511-2.964-1.214z" fill="#3F3D56"/><path d="M74.78 54.75c1.507 1.428 3.673 1.844 5.556 2.7 1.4.65 2.66 1.567 3.71 2.698.58.637 1.14 1.503.849 2.313-.245.697-.997 1.053-1.687 1.312-.856.324-1.813.61-2.667.283-.501-.191-.905-.575-1.366-.847-1.129-.672-2.552-.675-3.71-1.296-1.633-.874-2.447-2.798-3.982-3.837-.84-.567-2.002-1.031-2.088-2.043a2.472 2.472 0 01.226-1.061c.31-.826.838-3.662 2.018-3.587 1.285.084 2.185 2.683 3.142 3.366z" fill="#FBBEBE"/><path d="M66.889 42.101c.493 1.776 1.638 3.29 2.826 4.699.854 1.012 1.792 2.113 1.821 3.438.027 1.252-.808 2.405-1.886 3.044-1.077.64-2.346.845-3.594.926a9.053 9.053 0 01-2.98-.208c-2.462-.669-4.17-2.82-6.108-4.482-1.15-.985-2.443-1.844-3.324-3.077-.881-1.233-1.253-3.004-.386-4.248a6.141 6.141 0 011.078-1.08 18.037 18.037 0 003.715-4.466c.4-.677.782-1.411 1.453-1.819.962-.586 2.196-.318 3.284-.032 1.183.31 4.516.917 4.747 2.429.095.62-.673 1.587-.79 2.253a5.978 5.978 0 00.144 2.623z" fill="#FBBEBE"/><path d="M72.98 45.486c.353.64.643 1.314.867 2.01.822 2.861-.646 5.808-1.347 8.701-.894 3.706-.515 7.581-.558 11.395-.018 1.743-.204 3.662-1.457 4.871-.324.308-.712.567-.93.955a3.96 3.96 0 00-.299.894 4.606 4.606 0 01-2.667 2.985 4.589 4.589 0 01-3.993-.238c-1.021-.57-1.908-1.557-3.077-1.587a8.912 8.912 0 00-1.097.122c-1.163.116-2.303-.316-3.394-.74a2.215 2.215 0 01-.717-.383c-.197-.18-.323-.424-.504-.618-.665-.718-1.802-.594-2.762-.794a3.865 3.865 0 01-2.928-2.933c-.194-.928-.03-1.89.132-2.826l.722-4.172c.303-1.53.513-3.078.628-4.634a19.46 19.46 0 00-.448-5.238c-.318-1.404-.792-2.778-.964-4.208-.3-2.563.373-5.146 1.886-7.235.374-.516.865-1.031 1.5-1.08.515-.046.997.23 1.445.494a558.067 558.067 0 0011.736 6.766c1.078.607 2.18 1.217 3.381 1.517.361.091.879.054.93-.313a.682.682 0 00-.105-.397c-.674-1.298-1.65-2.413-2.425-3.649-.776-1.236-1.374-2.699-1.145-4.135.312-1.986 2.155-3.3 3.661-1.743 1.69 1.768 2.821 4.04 3.929 6.213z" fill="#00AAC8"/><path d="M60.916 70.674c3.16.202 6.39.418 9.316 1.632.94.39 1.938.891 2.926.65a3.91 3.91 0 001.347-.722 30.823 30.823 0 003.444-2.942c-.108-.591-.908-.672-1.506-.667a8.99 8.99 0 01-4.193-1.009 7.06 7.06 0 00-1.347-.629c-1.28-.353-2.584.321-3.869.65-1.902.486-3.907.203-5.85-.083l-5.242-.775c-.488-.07-1.038-.126-1.425.176-.26.245-.438.565-.51.915-.64 2.159-.334 2.34 1.8 2.474l5.108.33z" fill="#FBBEBE"/><path opacity=".1" d="M132.508 33.203c4.761 0 8.621-3.866 8.621-8.636s-3.86-8.636-8.621-8.636c-4.762 0-8.622 3.867-8.622 8.636 0 4.77 3.86 8.636 8.622 8.636z" fill="#000"/><path d="M132.445 32.828c4.762 0 8.622-3.866 8.622-8.636s-3.86-8.636-8.622-8.636c-4.761 0-8.622 3.867-8.622 8.636 0 4.77 3.861 8.636 8.622 8.636z" fill="#FBBEBE"/><path d="M139.722 13.227c.69.426 1.412.885 1.789 1.603.203.487.358.994.461 1.511.472 1.62 1.727 3.026 1.803 4.712.083 1.85-1.302 3.455-2.87 4.424a2.12 2.12 0 01-1.234.415c-.455-.03-.849-.315-1.266-.499-1.77-.788-3.751.21-5.626.67a10.08 10.08 0 01-5.873-.346c-1.011-.378-1.991-.945-2.625-1.822-.633-.877-.859-2.105-.32-3.047.269-.48.716-.915.687-1.462-.016-.33-.21-.627-.27-.95-.086-.516.184-1.018.458-1.458a21.077 21.077 0 014.662-5.281c.538-.443 1.161-.875 1.867-.907 1.417-.062 2.635.996 4.092 1.001 1.655.006 2.843.556 4.265 1.436z" fill="#3F3D56"/><path opacity=".1" d="M100.707 22.368c4.91 0 8.891-3.988 8.891-8.906 0-4.92-3.981-8.906-8.891-8.906s-8.891 3.987-8.891 8.906c0 4.918 3.98 8.906 8.891 8.906z" fill="#000"/><path d="M100.864 22.15c4.91 0 8.891-3.988 8.891-8.907 0-4.919-3.981-8.906-8.891-8.906s-8.891 3.987-8.891 8.906c0 4.919 3.98 8.906 8.891 8.906z" fill="#BE6F72"/><path d="M105.613 18.274c1.256.704 2.805.631 4.206.31a5.647 5.647 0 002.209-.934 2.667 2.667 0 001.113-2.051c0-.904-.593-1.719-.666-2.623-.088-1.139.653-2.192.731-3.336.078-1.144-.485-2.175-1.035-3.157-.946-1.687-1.929-3.396-3.368-4.686-1.439-1.29-3.432-2.113-5.318-1.678-.927.213-1.787.712-2.732.81-.84.078-1.67-.176-2.509-.284-.838-.108-1.778-.04-2.379.54-.328.324-.539.78-.924 1.017-.261.12-.531.221-.808.3-.973.391-1.417 1.49-1.762 2.477l-2.312 6.637c.773.54 1.706.785 2.552 1.2.846.416 1.667 1.08 1.84 2.009.132.704-.119 1.514.29 2.102.375.54 1.138.631 1.784.54.647-.092 1.296-.316 1.943-.216 1.616.245 2.217 1.238 3.713 0 1.495-1.239 2.042.24 3.432 1.023z" fill="#3F3D56"/><path opacity=".1" d="M63.079 41.424c4.464 0 8.083-3.625 8.083-8.096 0-4.472-3.619-8.097-8.083-8.097s-8.083 3.625-8.083 8.097c0 4.471 3.619 8.096 8.083 8.096z" fill="#000"/><path d="M63.391 40.984c4.465 0 8.083-3.625 8.083-8.096 0-4.472-3.618-8.097-8.083-8.097-4.464 0-8.082 3.625-8.082 8.097 0 4.471 3.618 8.096 8.082 8.096z" fill="#FBBEBE"/><path d="M69.58 24.972a21.305 21.305 0 00-6.393-3.368c-1.477-.48-3.083-.81-4.58-.367-2.032.58-4.75 1.447-6.009 3.15-.62.836-1.247 1.697-1.547 2.698-.598 2.014.254 4.16.197 6.259-.067 2.448-1.363 4.682-2.778 6.68-1.414 1.996-1.7 4.857-2.535 7.162-.285.79-.377 1.89.358 2.286.647.359 1.428-.09 2.026-.521l3.597-2.604c.28-.23.602-.403.949-.508.74-.172 1.465.292 2.085.732l7.544 5.343a2.321 2.321 0 00.035-1.964c.709.218 1.223.81 1.846 1.23.622.421 1.568.559 2.02-.03.453-.588.11-1.378-.393-1.853-.504-.475-1.166-.759-1.66-1.247-.978-.975-1.077-2.513-1.694-3.744-.442-.863-1.156-1.587-1.469-2.507-.509-1.503.157-3.122.809-4.569.778-1.716 1.66-3.549 3.316-4.445.558-.302 1.175-.48 1.746-.755 1.423-.683 3.198-2.295 3.893-3.738.61-1.282-.328-2.521-1.363-3.32z" fill="#3F3D56"/><path opacity=".1" d="M57.345 51.728c.773.494 1.646.81 2.406 1.325.76.516 1.425 1.298 1.447 2.216.021.877-.539 1.646-1.078 2.343l-6.563 8.628 3.346.888c-.539.744-.676 1.694-.956 2.569-.28.874-.809 1.784-1.703 2.013-.808.208-1.654-.218-2.49-.17-.616.038-1.198.33-1.815.354-.795.03-1.533-.389-2.196-.832-1.477-.99-2.942-2.41-2.932-4.19a6.35 6.35 0 01.359-1.766c.967-3.16 1.97-6.396 3.974-9.025 1.077-1.403 2.395-2.588 3.712-3.765.3-.302.653-.546 1.04-.72.863-.324 1.803.075 2.695.335.892.259 2.015.296 2.53-.467" fill="#000"/><path d="M57.063 51.196c.773.492 1.646.81 2.406 1.326.76.515 1.425 1.298 1.45 2.212.023.915-.54 1.65-1.078 2.346l-6.566 8.62 3.346.888c-.539.745-.676 1.692-.957 2.569-.28.877-.808 1.784-1.702 2.013-.809.208-1.655-.218-2.49-.17-.617.035-1.199.33-1.816.351-.795.03-1.533-.388-2.196-.831-1.476-.988-2.942-2.41-2.928-4.189a6.22 6.22 0 01.355-1.765c.968-3.163 1.97-6.399 3.974-9.025 1.078-1.406 2.398-2.59 3.713-3.778.301-.3.653-.544 1.04-.72.862-.324 1.803.075 2.694.337.892.262 2.016.297 2.53-.467" fill="#00AAC8"/><path opacity=".1" d="M124.562 22.106c.633.877 1.616 1.446 2.624 1.821 1.879.7 3.925.82 5.873.346 1.886-.459 3.856-1.457 5.626-.67.418.187.808.47 1.264.503a2.152 2.152 0 001.236-.419c1.092-.674 2.094-1.657 2.573-2.815 0 .06 0 .12.017.181.083 1.849-1.302 3.455-2.87 4.424a2.12 2.12 0 01-1.234.415c-.455-.03-.849-.316-1.266-.499-1.77-.788-3.751.21-5.626.67a10.08 10.08 0 01-5.873-.346c-1.011-.378-1.991-.945-2.625-1.822-.633-.877-.859-2.105-.32-3.047l.04-.067c.087.477.279.93.561 1.325zm.358-4.51c.022.416-.229.764-.469 1.117a1.798 1.798 0 01-.078-.27c-.081-.482.151-.952.407-1.376.073.168.121.347.14.53zM93.001 4.1l-2.311 6.633c.773.54 1.705.788 2.551 1.201.846.413 1.668 1.08 1.84 2.008.132.704-.118 1.514.291 2.105.375.54 1.137.629 1.784.54.646-.09 1.296-.316 1.942-.216 1.617.246 2.218 1.239 3.713.014 1.495-1.226 2.037.229 3.427 1.011 1.256.708 2.805.635 4.206.31a5.651 5.651 0 002.209-.93 3.58 3.58 0 00.27-.246 3.008 3.008 0 01-.906 1.123 5.647 5.647 0 01-2.209.934c-1.401.32-2.964.394-4.206-.31-1.39-.783-1.961-2.211-3.427-1.013-1.465 1.198-2.101.232-3.712 0-.647-.1-1.294.124-1.943.216-.65.092-1.41 0-1.784-.54-.41-.588-.159-1.398-.29-2.102-.173-.928-.995-1.595-1.84-2.008-.847-.413-1.779-.664-2.552-1.2l2.322-6.653c.27-.732.566-1.523 1.105-2.043A9.063 9.063 0 0093 4.099zM63.13 50.241c.595.27 1.346.31 1.724-.194.423-.54.11-1.377-.394-1.854-.504-.478-1.166-.759-1.66-1.247-.977-.972-1.077-2.51-1.694-3.74-.442-.867-1.156-1.59-1.468-2.51-.51-1.501.156-3.123.808-4.567.778-1.716 1.66-3.549 3.317-4.445.557-.302 1.174-.48 1.745-.756 1.423-.682 3.199-2.296 3.894-3.74.584-1.217-.24-2.4-1.22-3.2.476.31.942.636 1.395.984 1.037.81 1.972 2.038 1.347 3.314-.695 1.444-2.47 3.055-3.893 3.738-.572.27-1.189.453-1.746.756-1.657.896-2.538 2.728-3.317 4.445-.655 1.446-1.32 3.066-.808 4.569.312.92 1.026 1.643 1.468 2.507.625 1.23.717 2.769 1.695 3.743.493.489 1.156.77 1.66 1.247.503.478.808 1.304.393 1.854-.415.55-1.401.437-2.02.03-.418-.283-.798-.656-1.227-.934zm-16.341-2.394l3.597-2.601c.28-.231.601-.405.948-.51.741-.17 1.466.294 2.085.734l7.544 5.343a2.327 2.327 0 00.035-1.967c.693.216 1.197.793 1.797 1.198a2.016 2.016 0 00-.269-.1 2.324 2.324 0 01-.035 1.965l-7.544-5.344c-.62-.44-1.347-.904-2.085-.731a2.738 2.738 0 00-.949.507l-3.597 2.605c-.598.431-1.379.88-2.026.52a1.184 1.184 0 01-.563-1.041c.382-.136.74-.331 1.062-.578z" fill="#000"/><path d="M136.651 65.473s-15.438 1.239-18.51-.953l14.124-2.18 4.386 3.133z" fill="#E3E8F4"/><path opacity=".1" d="M136.651 65.473s-15.438 1.239-18.51-.953l14.124-2.18 4.386 3.133z" fill="#000"/><path d="M136.651 65.473l-4.325-2.742s-12.9 3.714-16.435 2.18l3.597-5.054 12.782 2.496 4.381 3.12z" fill="#E3E8F4"/><path d="M117.467 29.115a7.59 7.59 0 00-1.134 1.994c-.124.38-.186.777-.291 1.163a8.954 8.954 0 01-1.347 2.675c-1.329 1.935-2.988 3.802-3.322 6.126-.162 1.147.016 2.313.242 3.45.123.748.336 1.48.636 2.177.342.74.851 1.39 1.242 2.105.357.702.658 1.431.9 2.18.461-.46.733-1.079 1.102-1.618.369-.54.919-1.026 1.568-1.034.749 0 1.366.62 2.107.718a.6.6 0 00.345-.033c.269-.127.291-.49.269-.782-.213-2.038-1.377-4.048-.827-6.024.507-1.827 2.317-2.969 3.268-4.607.69-1.19.895-2.593 1.078-3.96.229-1.632.461-3.278.358-4.922-.051-.828-.708-6.064-1.91-5.516-.418.189-.781.99-1.043 1.35l-1.077 1.53-2.164 3.028z" fill="#3F3D56"/><path d="M85.22 62.89l-8.668 7.069-11.151-1.998 7.509-5.904 12.31.833z" fill="#E3E8F4"/><path opacity=".1" d="M85.532 62.45l-8.667 7.069-11.152-1.998 7.509-5.904 12.31.833z" fill="#000"/><path d="M85.471 62.075l-8.668 7.066-11.154-1.995 7.512-5.907 12.31.836z" fill="#E3E8F4"/><path opacity=".1" d="M85.722 61.258l-8.67 7.068L65.9 66.329l7.511-5.905 12.31.834z" fill="#000"/><path d="M85.656 60.883L76.99 67.95l-11.152-1.997 7.51-5.905 12.31.834z" fill="#E3E8F4"/><path d="M199.671 157.459a1.398 1.398 0 012.002 1.147l.483 6.264-2.862.518-1.509-4.528 1.886-3.401z" fill="#3F3D56"/><path d="M99.564 115.474l-43.79 22.26a3.055 3.055 0 00.022 5.449l94.313 47.409a11.431 11.431 0 0010.758-.269l39.725-22.438a3.058 3.058 0 001.535-2.754 3.055 3.055 0 00-1.716-2.644l-98.155-47.043a3.044 3.044 0 00-2.692.03z" fill="#3F3D56"/><path d="M55.48 133.861l-1.37 1.02-.108 4.885a2.034 2.034 0 001.099 1.851l95.924 49.307a1.431 1.431 0 001.398-.049 1.433 1.433 0 00.685-1.222v-7.095l-97.627-48.697z" fill="#3F3D56"/><path d="M99.565 109.812l-43.79 22.257a3.047 3.047 0 00-1.667 2.728 3.06 3.06 0 001.68 2.721l94.322 47.41a11.44 11.44 0 0010.758-.27l39.724-22.441a3.051 3.051 0 00-.18-5.397l-98.155-47.041a3.046 3.046 0 00-2.692.033z" fill="#E3E8F4"/><path d="M108.628 113.852l-48.249 24.54 82.927 41.535 49.758-25.299-84.436-40.776zm65.024 58.523c2.811 0 5.089-1.352 5.089-3.019 0-1.668-2.278-3.02-5.089-3.02-2.811 0-5.09 1.352-5.09 3.02 0 1.667 2.279 3.019 5.09 3.019zm-92.824-50.216a.472.472 0 10-.001-.944.472.472 0 000 .944zm-1.412 3.776a.566.566 0 10-.001-1.133.566.566 0 00.001 1.133z" fill="#3F3D56"/><path d="M81.49 124.423l5.654-2.642" stroke="#3F3D56" stroke-miterlimit="10"/><path d="M131.587 136.708l-15.965 9.232a4.863 4.863 0 00-1.775 6.636 4.844 4.844 0 006.625 1.778l15.964-9.232a4.862 4.862 0 001.775-6.636 4.843 4.843 0 00-6.624-1.778zm14.279 7.287l-15.964 9.233a4.862 4.862 0 00-1.775 6.636 4.846 4.846 0 006.625 1.778l15.964-9.233a4.862 4.862 0 001.775-6.636 4.846 4.846 0 00-6.625-1.778zm-27.213-15.653l-15.964 9.233a4.861 4.861 0 00-1.775 6.636 4.844 4.844 0 006.624 1.778l15.965-9.233a4.862 4.862 0 001.775-6.636 4.846 4.846 0 00-6.625-1.778z" fill="#00AAC8"/></g><defs><clipPath id="clip0"><path fill="#fff" d="M0 0h249v221H0z"/></clipPath></defs></svg>