<svg width="486" height="437" fill="none" xmlns="http://www.w3.org/2000/svg"><path fill-rule="evenodd" clip-rule="evenodd" d="M326.065 75.244c-6.476 3.903-12.839 5.79-15.825 5.02-7.49-1.931-8.178-29.329-2.383-40.13 5.794-10.801 35.585-15.509 37.086 5.892.521 7.427-2.597 14.055-7.205 19.464L346 104h-24l4.065-28.756z" fill="#EDB37C"/><path fill-rule="evenodd" clip-rule="evenodd" d="M317.336 28.37c3.28-1 8.04-1.34 10.043-1.11-1.139-2.73-1.591-5.77-1.223-8.73.359-2.878 1.644-5.328 2.833-7.895.548-1.183 1.169-2.36 2.095-3.265.943-.922 2.138-1.53 3.39-1.82 1.281-.298 2.621-.273 3.904-.003.568.119 1.077.379 1.634.523.57.148.847-.21 1.261-.568.997-.864 2.459-1.29 3.721-1.443 1.416-.172 2.884.042 4.235.507 1.314.453 2.576 1.19 3.526 2.26.423.478.807 1.02 1.057 1.62.102.246.119.392.365.482.227.084.492.086.727.166 2.265.767 4.203 2.518 5.257 4.766.616 1.31.907 3.62.828 6.208-.08 2.588-2.417 9.34-4.603 11.803-1.95 2.198-4.818 3.65-7.585 4.284 1.837 2.1 3.059 4.723 3.964 7.392a36.2 36.2 0 011.814 8.978c.213 2.916.233 5.998-.451 8.852-.639 2.668-2.006 4.857-4.289 6.245-1.045.636-2.17 1.114-3.302 1.551-1.115.43-2.233.849-3.401 1.09-2.211.457-4.758.379-6.461-1.38-.614-.635-1.289-1.432-1.737-2.207-.161-.279-.258-.461-.062-.733.234-.327.613-.577.914-.832 1.717-1.455 2.779-3.398 3.047-5.706.272-2.342-.357-5.366-2.634-6.388-2.812-1.262-5.907.187-8.406 1.537-1.062-3.748-3.242-7.123-6.661-8.842-3.781-1.902-8.121-2.124-12.007-3.756-1.013-.425-2.045-.908-2.79-1.774-.312-.362-.677-.832-.802-1.311-.163-.629.243-1.157.556-1.647 1.662-2.6 7.964-7.854 11.243-8.854z" fill="#191847"/><path fill-rule="evenodd" clip-rule="evenodd" d="M159 344c87.813 0 159-68.053 159-152S246.813 40 159 40 0 108.053 0 192s71.187 152 159 152z" fill="#D2D1D1" fill-opacity=".4"/><path fill-rule="evenodd" clip-rule="evenodd" d="M355 198l-74.306 124.227-55.709 105.023h-11.999L306.326 198H355z" fill="#EDB37C"/><path fill-rule="evenodd" clip-rule="evenodd" d="M229.55 421.284c1.072-.471 2.346.006 2.745 1.107.728 2.007 1.705 5.018 1.705 6.715 0 2.705-.901 7.894-.901 7.894h-56.402s-2.199-7.268 2.538-7.848c4.737-.579 7.87-1.046 7.87-1.046l26.215-11.687a1 1 0 011.332.532l1.685 4.088s4.385 2.046 7.126 2.046c1.669 0 4.291-1.011 6.087-1.801z" fill="#E4E4E4"/><path fill-rule="evenodd" clip-rule="evenodd" d="M240.457 410.433l-23.14-7s15.207-45.462 37.278-100.059C276.665 248.778 302 198 302 198h65.356s-28.167 64.232-59.722 116.725c-31.555 52.494-67.177 95.708-67.177 95.708z" fill="#003269"/><path fill-rule="evenodd" clip-rule="evenodd" d="M359.884 198c7.013 43.654 20.539 99.427 21.816 101.149.851 1.147 31.488 11.413 91.91 30.798l-2.592 10.581c-72.054-10.396-110.02-18.462-113.899-24.197C351.302 307.728 322.252 239.763 311 198h48.884z" fill="#EDB37C"/><path fill-rule="evenodd" clip-rule="evenodd" d="M452.371 320.8l-4.566 17.042c-53.892 4.727-86.913 1.311-99.063-10.246-12.149-11.557-25.996-54.756-41.541-129.596h62.321c9.849 61.284 15.355 93.212 16.518 95.785 1.163 2.572 23.274 11.578 66.331 27.015z" fill="#032D5B"/><path fill-rule="evenodd" clip-rule="evenodd" d="M469.069 328.074c-.278-1.137.413-2.309 1.566-2.511 2.104-.368 5.238-.807 6.909-.513 2.664.47 7.618 2.259 7.618 2.259l-9.794 55.545s-7.54.903-7.288-3.863c.252-4.765.336-7.932.336-7.932l-6.957-27.846a1 1 0 01.756-1.219l4.318-.95s2.776-3.963 3.252-6.663c.29-1.643-.25-4.401-.716-6.307z" fill="#E4E4E4"/><path fill-rule="evenodd" clip-rule="evenodd" d="M228.765 146.704L265 162.617l-11.57 14.822-27.137-20.806c-13.555-2.49-19.842-4.629-18.859-6.417.828-1.507 2.369-1.592 3.788-1.671 1.106-.061 2.138-.118 2.702-.84 1.287-1.649-1.89-6.744-5.112-11.45-3.222-4.706-.202-4.536 1.565-3.973 5.912 3.29 12.041 8.097 18.388 14.422zM391 171.066L411.492 167c13.897 36.63 22.182 56.702 24.856 60.218 1.96 2.578 14.049 9.219 22.232 12.766 3.285 1.423 2.579 4.199 1.616 5.087-6.076 5.601-11.725 3.638-17.874 1.501-1.781-.619-3.603-1.252-5.489-1.721-4.883-1.212-6.369 1.299-7.773 3.672-1.244 2.101-2.423 4.093-5.839 3.298.155-.67.346-1.421.552-2.232 1.332-5.24 3.296-12.969.382-17.459-1.495-2.304-12.547-22.659-33.155-61.064z" fill="#EDB37C"/><path fill-rule="evenodd" clip-rule="evenodd" d="M335.305 90.332l-8.647-1.483c-18.835 18.27-26.52 62.163-39.072 67.974-11.867 5.493-28.69.177-48.686-7l-6.124 13.682c18.169 19.656 56.875 36.262 72.564 26.782 25.083-15.157 30.874-69.293 29.965-99.955z" fill="#0A6EAA"/><path fill-rule="evenodd" clip-rule="evenodd" d="M373 199h-76.511c-3.497 0-2.838-5.048-2.332-7.596 5.832-29.4 28.602-61.092 28.602-102.943L344.828 85c18.255 29.358 24.567 65.505 28.172 114z" fill="#DDE3E9"/><path fill-rule="evenodd" clip-rule="evenodd" d="M346 85h.252c49.501 30.504 79.417 77.791 89.748 141.859L419.963 230c-10.624-12.377-23.734-32.632-39.332-60.767 4.786 16.948 8.279 34.33 9.369 50.767h-68.872c-13.333-33.695 16.386-135 16.386-135H346z" fill="#0A6EAA"/><path d="M152.911 211.667c0-5.925 1.318-10.807 3.953-14.647 2.746-3.95 6.699-8.229 11.861-12.837 3.953-3.511 6.863-6.528 8.73-9.052 1.977-2.633 2.966-5.595 2.966-8.887 0-4.608-1.867-8.338-5.601-11.191-3.734-2.853-8.731-4.279-14.991-4.279-11.86 0-20.81 4.224-26.85 12.672L117 153.078c4.722-6.473 10.817-11.41 18.285-14.812 7.468-3.511 16.253-5.266 26.356-5.266 12.3 0 22.074 2.688 29.322 8.064 7.358 5.267 11.037 12.563 11.037 21.889 0 4.498-.769 8.448-2.306 11.849-1.428 3.401-3.185 6.309-5.272 8.722-2.086 2.304-4.832 4.993-8.236 8.065-4.173 3.73-7.303 7.021-9.389 9.874-1.977 2.853-2.966 6.254-2.966 10.204h-20.92zM163.453 251c-3.843 0-7.028-1.207-9.554-3.621-2.416-2.523-3.624-5.595-3.624-9.216 0-3.62 1.208-6.638 3.624-9.051 2.526-2.414 5.711-3.621 9.554-3.621 3.734 0 6.809 1.207 9.225 3.621 2.526 2.413 3.789 5.431 3.789 9.051 0 3.621-1.263 6.693-3.789 9.216-2.416 2.414-5.491 3.621-9.225 3.621z" fill="#D7D7D7"/></svg>