<svg width="548" height="361" fill="none" xmlns="http://www.w3.org/2000/svg"><path d="M443.143 360.786a193 193 0 00-193-334.286l96.5 167.143 96.5 167.143z" fill="#D2D1D1" fill-opacity=".28"/><path d="M76.833 123.248l-.525-.524c-1.367-1.258-3.153-1.992-5.15-1.992-.63 0-1.156.105-1.786.21-1.367.315-2.523.944-3.469 1.887l-.21.21-4.203 4.193-1.051 1.048c-1.682 1.677-4.414 1.677-6.2 0-1.682-1.677-1.682-4.403 0-6.185l10.824-10.587C62.33 108.677 58.442 107 54.238 107 45.831 107 39 113.814 39 122.2c0 4.193 1.681 7.967 4.519 10.797 1.681-1.677 4.414-1.677 6.2 0a4.372 4.372 0 011.261 3.04c0 .42.106.839.42 1.049.316.419.842.733 1.472.733 1.156 0 2.207.42 3.048 1.258a4.372 4.372 0 011.26 3.04c0 .944.842 1.783 1.788 1.783 1.155 0 2.206.419 3.047 1.257a4.372 4.372 0 011.261 3.04c0 .944.841 1.783 1.787 1.783a4.21 4.21 0 013.047 1.258 4.369 4.369 0 011.262 3.04c0-1.049.84-1.783 1.786-1.783a4.216 4.216 0 003.048-1.257 4.372 4.372 0 001.26-3.041c0-1.048.842-1.782 1.788-1.782a4.213 4.213 0 003.047-1.258 4.369 4.369 0 001.261-3.04c0-1.048.841-1.782 1.787-1.782a4.213 4.213 0 003.047-1.258c1.682-1.677 1.682-4.402 0-6.184l-9.563-9.645z" fill="#fff"/><path d="M54.238 128.385c1.681 1.677 4.413 1.677 6.2 0l1.051-1.049 4.204-4.193.21-.209c.946-.944 2.207-1.573 3.468-1.887.525-.105 1.156-.21 1.787-.21 1.996 0 3.783.734 5.149 1.992l.525.524 9.774 9.749c2.732-2.726 4.519-6.604 4.519-10.797 0-8.387-6.831-15.201-15.238-15.201-4.204 0-7.987 1.678-10.825 4.508L54.238 122.2c-1.682 1.677-1.682 4.507 0 6.185zm10.825 21.804c-.946 0-1.786-.838-1.786-1.782 0-1.153-.42-2.201-1.261-3.04a4.396 4.396 0 00-3.048-1.258c-.946 0-1.787-.838-1.787-1.782 0-1.153-.42-2.201-1.26-3.04a4.396 4.396 0 00-3.048-1.258 1.84 1.84 0 01-1.472-.734c-.21-.314-.42-.628-.42-1.048 0-1.153-.42-2.201-1.261-3.04-1.682-1.677-4.414-1.677-6.2 0-1.682 1.677-1.682 4.403 0 6.185a4.392 4.392 0 003.047 1.258c.946 0 1.787.839 1.787 1.782 0 1.153.42 2.201 1.26 3.04a4.392 4.392 0 003.048 1.258c.946 0 1.787.839 1.787 1.782 0 1.153.42 2.202 1.261 3.04a4.392 4.392 0 003.048 1.258c.946 0 1.786.839 1.786 1.782 0 1.153.42 2.202 1.261 3.04 1.682 1.677 4.414 1.677 6.2 0a4.37 4.37 0 001.262-3.04c0-1.153-.42-2.201-1.261-3.04-.736-.943-1.787-1.363-2.943-1.363z" fill="#1D3767"/><path d="M129.697 135.408h-15.028v12.37h-4.73V118.95h20.704v4.403h-15.974v7.653h15.028v4.402zm21.649 3.984c0 6.289-4.519 8.91-9.143 8.91-4.624 0-9.143-2.621-9.143-8.91V128.07h4.309v11.007c0 3.774 2.102 5.242 4.834 5.242 2.732 0 4.834-1.363 4.834-5.242V128.07h4.309v11.322zm18.598-7.443h-7.566v8.596c0 2.621 1.366 3.669 3.152 3.669 1.367 0 2.838-.629 3.994-1.363l1.681 3.459c-1.576 1.049-3.573 1.992-6.095 1.992-4.519 0-7.146-2.411-7.146-7.652v-8.701h-3.994v-3.879h3.994v-5.975h4.308v5.975h7.567v3.879h.105zm21.545 7.443c0 6.289-4.519 8.91-9.143 8.91-4.624 0-9.143-2.621-9.143-8.91V128.07h4.309v11.007c0 3.774 2.102 5.242 4.834 5.242 2.732 0 4.834-1.363 4.834-5.242V128.07h4.309v11.322zm17.656-11.322l-1.051 4.298c-.945-.524-2.207-.734-3.257-.734-2.733 0-4.73 1.992-4.73 5.347v10.902h-4.308V128.07h4.308v2.202c1.261-1.887 3.363-2.726 5.78-2.726 1.262 0 2.312.105 3.258.524zm19.655 9.854c0 .524 0 1.153-.105 1.573h-14.608c.63 3.564 3.048 5.031 5.885 5.031 1.997 0 4.099-.733 5.78-2.096l2.102 3.04c-2.417 2.096-5.15 2.83-8.197 2.83-5.991 0-10.089-4.088-10.089-10.378 0-6.185 3.993-10.378 9.879-10.378 5.464 0 9.353 4.193 9.353 10.378zm-14.713-1.677h10.299c-.526-3.04-2.312-4.822-5.045-4.822-3.152-.105-4.834 1.887-5.254 4.822zm37.2.21v11.321h-4.624V118.95h11.244c6.726 0 10.299 3.355 10.299 8.806 0 5.451-3.573 8.806-10.299 8.806h-6.62v-.105zm0-13.209v8.701h6.41c3.784 0 5.57-1.363 5.57-4.403 0-2.935-1.786-4.403-5.57-4.403h-6.41v.105zm36.362 14.676c0 .524 0 1.153-.105 1.573h-14.608c.631 3.564 3.048 5.031 5.886 5.031 1.996 0 4.098-.733 5.78-2.096l2.102 3.04c-2.418 2.096-5.15 2.83-8.198 2.83-5.99 0-10.089-4.088-10.089-10.378 0-6.185 3.994-10.378 9.879-10.378 5.465 0 9.353 4.193 9.353 10.378zm-14.713-1.677h10.299c-.525-3.04-2.312-4.822-5.044-4.822-3.153-.105-4.834 1.887-5.255 4.822zm32.053-8.177l-1.051 4.298c-.946-.524-2.207-.734-3.258-.734-2.733 0-4.729 1.992-4.729 5.347v10.902h-4.309V128.07h4.309v2.202c1.261-1.887 3.363-2.726 5.78-2.726 1.261 0 2.207.105 3.258.524zm16.815 3.879h-6.831v15.829h-4.309v-15.829h-3.993v-3.879h3.993v-3.354c0-3.984 1.997-7.129 6.621-7.129 2.312 0 4.099.629 5.57 1.468l-1.577 3.669c-1.05-.629-2.417-1.048-3.678-1.048-1.681 0-2.627 1.048-2.627 3.04v3.354h6.831v3.879zm20.181 5.975c0 .524 0 1.153-.106 1.573h-14.607c.63 3.564 3.047 5.031 5.885 5.031 1.997 0 4.098-.733 5.78-2.096l2.102 3.04c-2.417 2.096-5.15 2.83-8.197 2.83-5.991 0-10.089-4.088-10.089-10.378 0-6.185 3.993-10.378 9.878-10.378 5.57 0 9.354 4.193 9.354 10.378zm-14.713-1.677h10.299c-.526-3.04-2.312-4.822-5.045-4.822-3.047-.105-4.834 1.887-5.254 4.822zm34.575-5.556l-2.732 2.935c-1.367-1.258-2.838-1.992-4.73-1.992-3.362 0-5.885 2.621-5.885 6.29 0 3.774 2.523 6.29 5.885 6.29 1.892 0 3.574-.839 4.835-2.097l2.627 2.935c-1.787 2.097-4.414 3.145-7.356 3.145-6.306 0-10.405-4.507-10.405-10.378 0-5.975 4.099-10.378 10.405-10.378 2.942.105 5.569 1.153 7.356 3.25zm17.758 1.258h-7.567v8.596c0 2.621 1.367 3.669 3.153 3.669 1.366 0 2.838-.629 3.994-1.363l1.681 3.459c-1.576 1.049-3.573 1.992-6.095 1.992-4.519 0-7.146-2.411-7.146-7.652v-8.701h-3.889v-3.879h3.994v-5.975h4.308v5.975h7.567v3.879z" fill="#fff"/><path fill-rule="evenodd" clip-rule="evenodd" d="M16 55C7.163 55 0 62.163 0 71v123c0 8.837 7.163 16 16 16h387c8.837 0 16-7.163 16-16V71c0-8.837-7.163-16-16-16H16zm-.23 9.81a4 4 0 00-4 4v127.844a4 4 0 004 4h387.46a4 4 0 004-4V68.811a4 4 0 00-4-4H15.77z" fill="#DFDFDF"/><path stroke="#BDBCBC" stroke-width="2" d="M510.453 235.239l-36.039 36.038 36.039 36.039 36.038-36.039z"/><path stroke="#C9C8C8" stroke-width="2" d="M518.325 215.414l-20.89 20.89 20.89 20.891 20.89-20.89z"/></svg>