<?xml version="1.0" encoding="UTF-8"?>
<svg xmlns:xlink="http://www.w3.org/1999/xlink" width="564px" height="223px" viewBox="0 0 564 223" version="1.1" xmlns="http://www.w3.org/2000/svg">
  <title>Ioniq_White</title>
  <desc>Created with Sketch.</desc>
  <defs>
    <radialGradient cx="50%" cy="50%" fx="50%" fy="50%" r="49.6040963%" id="radialGradient-1">
      <stop stop-color="#FFFFFF" offset="0%"></stop>
      <stop stop-color="#FFFFFF" stop-opacity="0.4" offset="69.2171664%"></stop>
      <stop stop-color="#FFFFFF" stop-opacity="0" offset="100%"></stop>
    </radialGradient>
  </defs>
  <g id="Ioniq_White" stroke="none" stroke-width="1" fill="none" fill-rule="evenodd">
    <g id="IONIQ_Logo_black" transform="translate(22.000000, 24.000000)" fill-rule="nonzero">
      <rect class="logo__letter logo__letter--i1" fill="#FFFFFF" x="0.0899470899" y="29.23" width="24.1058201" height="118.08"></rect>
      <polygon class="logo__letter logo__letter--n" fill="#FFFFFF" points="281.89418 99.52 213.624339 27.07 205.798942 27.07 205.798942 147.31 229.814815 147.31 229.814815 76.48 297.904762 149.47 305.910053 149.47 305.910053 29.23 281.89418 29.23"></polygon>
      <rect class="logo__letter logo__letter--i2" fill="#FFFFFF" x="337.301587" y="29.23" width="24.1058201" height="118.08"></rect>
      <path
        class="logo__letter logo__letter--q"
        d="M484.904762,88 C484.904762,99.25 481.306878,108.61 474.021164,115.9 C466.915344,123.28 458.010582,126.79 447.126984,126.79 C436.063492,126.79 426.978836,123.19 419.873016,116.08 C412.857143,108.79 409.259259,99.43 409.259259,88 C409.259259,76.75 412.857143,67.39 419.962963,60.1 C427.068783,52.72 436.153439,49.21 447.037037,49.21 C457.920635,49.21 466.825397,52.81 473.931217,60.1 C481.306878,67.39 484.904762,76.75 484.904762,88 L484.904762,88 Z M499.566138,121.93 C506.312169,112.12 509.640212,100.78 509.640212,88 C509.640212,70.63 503.613757,56.14 491.291005,44.53 C478.968254,32.74 464.216931,26.8 446.94709,26.8 C429.677249,26.8 414.835979,32.74 402.783069,44.53 C390.640212,56.14 384.613757,70.63 384.613757,88 C384.613757,105.37 390.640212,119.86 402.783069,131.65 C414.925926,143.26 429.677249,149.2 446.94709,149.2 C460.259259,149.2 472.042328,145.69 482.386243,138.76 L493,149.38 L510,132.37 L499.566138,121.93 Z"
        id="Shape" fill="#FFFFFF"></path>
      <path
        class="logo__letter logo__letter--o-shadow"
        d="M115.228889,32.2 C130.581164,32.2 143.142116,37.3508121 153.165503,47.7812065 C163.442646,58.3403712 168.517778,71.6037123 168.517778,87.7 C168.517778,103.796288 163.442646,117.188399 153.165503,127.618794 C143.142116,138.049188 130.581164,143.2 115.228889,143.2 C99.6228571,143.2 86.8081481,138.049188 76.7847619,127.876334 C67.0151323,117.44594 61.94,104.053828 61.94,87.7 C61.94,71.6037123 67.0151323,58.2116009 77.0385185,47.7812065 C87.0619048,37.3508121 99.8766138,32.2 115.228889,32.2 M52.3169784,25.8235294 C35.2234532,42.5176471 26.74,63.3529412 26.74,88.3294118 C26.74,113.305882 35.2234532,134.141176 52.3169784,151.094118 C69.4105036,167.788235 90.1759712,176.2 114.486763,176.2 C138.797554,176.2 159.68964,167.658824 176.909784,150.964706 C194.256547,134.011765 202.74,113.176471 202.74,88.2 C202.74,63.2235294 194.256547,42.3882353 176.909784,25.6941176 C159.563022,8.74117647 138.797554,0.2 114.360144,0.2 C90.1759712,0.329411765 69.4105036,8.74117647 52.3169784,25.8235294"
        id="Shape" fill="url(#radialGradient-1)"></path>
      <path
        class="logo__letter logo__letter--o"
        d="M114.862434,49.39 C125.746032,49.39 134.650794,52.99 141.756614,60.28 C149.042328,67.66 152.640212,76.93 152.640212,88.18 C152.640212,99.43 149.042328,108.79 141.756614,116.08 C134.650794,123.37 125.746032,126.97 114.862434,126.97 C103.798942,126.97 94.7142857,123.37 87.6084656,116.26 C80.6825397,108.97 77.0846561,99.61 77.0846561,88.18 C77.0846561,76.93 80.6825397,67.57 87.7883598,60.28 C94.8941799,52.99 103.978836,49.39 114.862434,49.39 M70.4285714,44.8 C58.2857143,56.41 52.2592593,70.9 52.2592593,88.27 C52.2592593,105.64 58.2857143,120.13 70.4285714,131.92 C82.5714286,143.53 97.3227513,149.38 114.592593,149.38 C131.862434,149.38 146.703704,143.44 158.936508,131.83 C171.259259,120.04 177.285714,105.55 177.285714,88.18 C177.285714,70.81 171.259259,56.32 158.936508,44.71 C146.613757,32.92 131.862434,26.98 114.502646,26.98 C97.3227513,27.07 82.5714286,32.92 70.4285714,44.8"
        id="Shape" fill="#FFFFFF"></path>
    </g>
  </g>
</svg>
