<svg width="276" height="263" fill="none" xmlns="http://www.w3.org/2000/svg"><path d="M44 252a125.997 125.997 0 0089.095-36.905 125.997 125.997 0 000-178.19A125.998 125.998 0 0044 0v252z" fill="#D2D1D1" fill-opacity=".28"/><path d="M135.853 66.95l-.192-.192a2.754 2.754 0 00-1.886-.73c-.231 0-.423.039-.654.077a2.58 2.58 0 00-1.27.691l-.077.077-1.539 1.535-.385.384c-.616.614-1.616.614-2.27 0-.616-.614-.616-1.612 0-2.265l3.963-3.877c-1-1.036-2.424-1.65-3.963-1.65-3.079 0-5.58 2.495-5.58 5.566 0 1.535.616 2.917 1.655 3.953.615-.614 1.616-.614 2.27 0a1.6 1.6 0 01.462 1.113c0 .154.038.307.154.384a.673.673 0 00.538.269c.424 0 .808.153 1.116.46a1.6 1.6 0 01.462 1.114c0 .345.308.652.654.652.424 0 .808.154 1.116.46a1.6 1.6 0 01.462 1.114c0 .345.308.652.654.652.423 0 .808.154 1.116.461a1.6 1.6 0 01.462 1.113c0-.384.308-.652.654-.652.423 0 .808-.154 1.116-.461a1.6 1.6 0 00.462-1.113c0-.384.308-.653.654-.653.423 0 .808-.153 1.116-.46a1.6 1.6 0 00.462-1.113c0-.384.307-.653.654-.653.423 0 .808-.154 1.116-.46.615-.615.615-1.613 0-2.265l-3.502-3.531z" fill="#24BCBA"/><path d="M127.579 68.83c.616.614 1.617.614 2.271 0l.385-.384 1.539-1.535.077-.077c.346-.345.808-.575 1.27-.69.192-.039.423-.077.654-.077a2.75 2.75 0 011.885.729l.193.192 3.578 3.57a5.624 5.624 0 001.655-3.954c0-3.07-2.501-5.566-5.58-5.566a5.561 5.561 0 00-3.963 1.65l-3.964 3.878a1.62 1.62 0 000 2.264zm3.964 7.984a.674.674 0 01-.654-.652c0-.423-.154-.806-.462-1.114a1.609 1.609 0 00-1.116-.46.674.674 0 01-.654-.653c0-.422-.154-.806-.462-1.113a1.606 1.606 0 00-1.115-.46.673.673 0 01-.539-.27c-.077-.114-.154-.23-.154-.383 0-.422-.154-.806-.462-1.113-.616-.614-1.616-.614-2.27 0-.616.614-.616 1.612 0 2.265.308.307.731.46 1.116.46.346 0 .654.307.654.653 0 .422.154.806.462 1.113.307.307.731.46 1.116.46.346 0 .654.308.654.653 0 .422.154.806.461 1.113.308.307.732.46 1.116.46.347 0 .655.308.655.653 0 .422.153.806.461 1.113.616.614 1.617.614 2.271 0 .308-.307.461-.729.461-1.113 0-.422-.153-.806-.461-1.113-.27-.345-.654-.499-1.078-.499zm23.666-5.412h-5.502v4.53h-1.732V65.375h7.581v1.612h-5.849v2.802h5.502v1.612zm7.927 1.458c0 2.304-1.654 3.263-3.347 3.263-1.694 0-3.348-.96-3.348-3.262v-4.146h1.577v4.03c0 1.382.77 1.92 1.771 1.92 1 0 1.77-.5 1.77-1.92v-4.03h1.577v4.146zm6.81-2.725h-2.77v3.148c0 .96.5 1.343 1.154 1.343.501 0 1.039-.23 1.463-.499l.615 1.267c-.577.384-1.308.73-2.232.73-1.654 0-2.616-.884-2.616-2.803v-3.186h-1.463v-1.42h1.463v-2.188h1.577v2.188h2.771v1.42h.038zm7.889 2.725c0 2.304-1.655 3.263-3.348 3.263-1.693 0-3.347-.96-3.347-3.262v-4.146h1.577v4.03c0 1.382.77 1.92 1.77 1.92 1.001 0 1.77-.5 1.77-1.92v-4.03h1.578v4.146zm6.465-4.145l-.385 1.574c-.346-.192-.808-.269-1.193-.269-1 0-1.731.73-1.731 1.958v3.992h-1.578v-7.255h1.578v.806c.461-.69 1.231-.998 2.116-.998.462 0 .847.039 1.193.192zm7.197 3.608c0 .192 0 .422-.039.576h-5.349c.231 1.305 1.116 1.842 2.155 1.842.732 0 1.501-.268 2.117-.767l.769 1.113c-.885.767-1.885 1.036-3.001 1.036-2.193 0-3.694-1.497-3.694-3.8 0-2.264 1.462-3.8 3.617-3.8 2.001 0 3.425 1.536 3.425 3.8zm-5.388-.614h3.772c-.193-1.113-.847-1.766-1.847-1.766-1.155-.038-1.771.691-1.925 1.766zm13.622.077v4.145h-1.694V65.376h4.118c2.463 0 3.771 1.228 3.771 3.224 0 1.996-1.308 3.224-3.771 3.224h-2.424v-.038zm0-4.837v3.186h2.347c1.385 0 2.039-.499 2.039-1.612 0-1.075-.654-1.612-2.039-1.612h-2.347v.038zm13.314 5.374c0 .192 0 .422-.038.576h-5.349c.231 1.305 1.116 1.842 2.155 1.842.731 0 1.501-.268 2.116-.767l.77 1.113c-.885.767-1.886 1.036-3.002 1.036-2.193 0-3.694-1.497-3.694-3.8 0-2.264 1.463-3.8 3.617-3.8 2.001 0 3.425 1.536 3.425 3.8zm-5.387-.614h3.771c-.192-1.113-.847-1.766-1.847-1.766-1.154-.038-1.77.691-1.924 1.766zm11.736-2.994l-.385 1.574c-.346-.192-.808-.269-1.193-.269-1 0-1.731.73-1.731 1.958v3.992h-1.578v-7.255h1.578v.806c.461-.69 1.231-.998 2.116-.998.462 0 .808.039 1.193.192zm6.157 1.42h-2.501v5.796h-1.578v-5.796h-1.462v-1.42h1.462v-1.228c0-1.459.731-2.61 2.424-2.61a4 4 0 012.04.537l-.578 1.344a2.737 2.737 0 00-1.346-.384c-.616 0-.962.384-.962 1.113v1.228h2.501v1.42zm7.389 2.188c0 .192 0 .422-.038.576h-5.349c.231 1.305 1.116 1.842 2.155 1.842.731 0 1.501-.268 2.116-.767l.77 1.113c-.885.767-1.886 1.036-3.001 1.036-2.194 0-3.695-1.497-3.695-3.8 0-2.264 1.463-3.8 3.618-3.8 2.039 0 3.424 1.536 3.424 3.8zm-5.387-.614h3.771c-.192-1.113-.846-1.766-1.847-1.766-1.116-.038-1.77.691-1.924 1.766zm12.66-2.034l-1 1.075c-.501-.461-1.039-.73-1.732-.73-1.231 0-2.155.96-2.155 2.303 0 1.382.924 2.303 2.155 2.303.693 0 1.308-.307 1.77-.767l.962 1.074c-.654.768-1.616 1.152-2.693 1.152-2.309 0-3.81-1.65-3.81-3.8 0-2.188 1.501-3.8 3.81-3.8 1.077.038 2.039.422 2.693 1.19zm6.502.46h-2.77v3.148c0 .96.5 1.343 1.154 1.343.5 0 1.039-.23 1.462-.499l.616 1.267c-.577.384-1.308.73-2.232.73-1.654 0-2.617-.884-2.617-2.803v-3.186h-1.423v-1.42h1.462v-2.188h1.578v2.188h2.77v1.42z" fill="#1D3767"/><path fill-rule="evenodd" clip-rule="evenodd" d="M110 18c-8.837 0-16 7.163-16 16v73c0 8.837 7.163 16 16 16h150c8.837 0 16-7.163 16-16V34c0-8.837-7.163-16-16-16H110zm0 14a4 4 0 00-4 4v69a4 4 0 004 4h150a4 4 0 004-4V36a4 4 0 00-4-4H110z" fill="#DFDFDF"/><path fill-rule="evenodd" clip-rule="evenodd" d="M77.884 62.014c4.485 2.704 8.891 4.01 10.96 3.477 5.187-1.337 5.664-20.313 1.65-27.794-4.013-7.48-24.645-10.74-25.685 4.08-.361 5.145 1.799 9.736 4.99 13.482L64.077 81.93h16.622l-2.815-19.916z" fill="#B28B67"/><path fill-rule="evenodd" clip-rule="evenodd" d="M78.715 43.415c1.438-2.141 2.818-3.774 4.614-4.722 7.307.115 8.163-1.195 8.163-5.61-1.18-.845-5.345-2.267-10.009-2.667-2.38-.68-5.198-.553-7.913.583-3.351.95-6.19 2.999-7.443 6.833-4.535 7.827-1.093 15.974 3.546 18.757a62.953 62.953 0 003.274-4.238 4.156 4.156 0 013.402-7.099c.104 2.87.529 12.578 1.645 15.95 1.316 3.976 8.996 4.952 11.675 4.952 2.314 0 2.235-2.191 2.178-3.761-.008-.226-.016-.44-.016-.631 0-.401-.521-.4-1.11-.4-.766.002-1.646.004-1.646-.874 0-.957 1.323-1.692 2.507-2.349.738-.41 1.423-.79 1.698-1.175.868-1.215 1.16-2.854-.15-2.854-.715 0-1.698.413-2.88.91-1.784.749-4.022 1.69-6.486 1.69-4.07 0-5.037-13.13-5.049-13.295z" fill="#191847"/><path fill-rule="evenodd" clip-rule="evenodd" d="M61.58 136.763l25.74 65.146 17.263 55.077h6.817L85.008 136.763H61.58z" fill="#997659"/><path fill-rule="evenodd" clip-rule="evenodd" d="M56.397 136.763c-.274 22.893-4.271 53.714-4.91 55.141-.638 1.427-44.092 36.295-44.092 36.295l4.696 5.024s51.27-29.894 53.643-33.881c2.373-3.987 10.097-40.678 16.299-62.579H56.397z" fill="#B28B67"/><path fill-rule="evenodd" clip-rule="evenodd" d="M8.465 228.245c-.386-1.106-1.565-1.785-2.65-1.345-.879.357-1.815.795-2.306 1.207-1.087.912-2.868 3.023-2.868 3.023l19.012 22.659s3.661-1.567 2.298-3.665c-1.364-2.099-2.233-3.515-2.233-3.515l-4.007-14a1 1 0 00-1.264-.678l-1.744.553s-2.3-1.072-3.224-2.173c-.39-.466-.74-1.281-1.014-2.066zm95.738 26.005c-1.095-.415-2.373.051-2.734 1.166-.291.902-.557 1.901-.557 2.543 0 1.418.472 4.139.472 4.139h29.578s1.153-3.811-1.331-4.115c-2.484-.304-4.127-.549-4.127-.549l-13.301-5.929a.998.998 0 00-1.331.532l-.697 1.691s-2.3 1.073-3.738 1.073c-.608 0-1.457-.256-2.234-.551z" fill="#E4E4E4"/><path fill-rule="evenodd" clip-rule="evenodd" d="M78.886 251.313l32.411-3.518-24.02-111.032h-29.03l20.639 114.55z" fill="#022C5B"/><path fill-rule="evenodd" clip-rule="evenodd" d="M14.1 220.093l21.26 25.164s33.588-36.685 39.164-47.874c5.576-11.189 10.025-60.62 10.025-60.62H51.867s-2.43 43.487-3.276 45.511c-.846 2.024-34.492 37.819-34.492 37.819z" fill="#003269"/><path fill-rule="evenodd" clip-rule="evenodd" d="M107.912 78.914l-18.203 9.97 6.722 7.214 13.226-12.11c6.968-1.92 10.154-3.325 9.559-4.214-.501-.75-1.31-.724-2.055-.7-.581.019-1.123.036-1.45-.315-.748-.803.679-3.61 2.147-6.216 1.468-2.606-.102-2.379-.999-2.004-2.938 1.989-5.921 4.78-8.947 8.375zm18.301 13.989l-7.995 4.392.455 8.024s5.178-3.738 9.633-4.98c5.681-1.584 7.979-2.793 10.755-6.33 1.485-1.893 2.746-5.697 1.332-6.936-.542-.475-2.563.647-4.624 1.793-1.571.873-3.167 1.76-4.149 1.962-1.323.272-1.168-1.443-1.045-2.813.089-.983.162-1.789-.339-1.556-2.34.04-4.023 6.444-4.023 6.444z" fill="#D2A179"/><path fill-rule="evenodd" clip-rule="evenodd" d="M80.844 86.663c6.376-.068 14.878-1.414 23.95-7.173l3.562 7.945c-6.257 6.21-15.056 11.313-22.749 11.096-6.063-.17-9.161-7.503-4.763-11.868z" fill="#066182"/><path fill-rule="evenodd" clip-rule="evenodd" d="M123.48 93.432s-23.48 8.355-34.056 5.955a635.18 635.18 0 00-1.934-6.382c-2.794-9.107-5.57-18.156-6.221-26.514H66.718c-1.596 0-12.44 20.789-12.45 34.295-.004 4.638-1.629 8.639-3.34 12.852-2.838 6.99-5.913 14.563-2.21 26.589 3.3-.65 8.87.076 14.93.867 11.345 1.479 24.41 3.182 27.548-3.489 2.342-4.979 3.039-10.428 2.732-16.154 9.651-.211 21.365-3.394 35.033-10.533.447-5.223-5.481-17.486-5.481-17.486z" fill="#0A6EAA"/></svg>