<svg width="151" height="25" viewBox="0 0 151 25" fill="none" xmlns="http://www.w3.org/2000/svg">
<path d="M2.16064 3.93652C2.1932 3.02507 2.35189 2.35775 2.63672 1.93457C3.14941 1.18587 4.13818 0.811523 5.60303 0.811523C5.74137 0.811523 5.88379 0.815592 6.03027 0.82373C6.17676 0.831868 6.34359 0.844076 6.53076 0.860352V2.8623C6.3029 2.84603 6.13607 2.83789 6.03027 2.83789C5.93262 2.82975 5.83903 2.82568 5.74951 2.82568C5.08219 2.82568 4.68343 3.00065 4.55322 3.35059C4.42301 3.69238 4.35791 4.57129 4.35791 5.9873H6.53076V7.7207H4.3335V19H2.16064V7.7207H0.341797V5.9873H2.16064V3.93652ZM8.64258 3.55811V1.06787H10.8398V3.55811H8.64258ZM8.64258 5.9873H10.8398V19H8.64258V5.9873ZM15.4175 14.8984C15.4826 15.6309 15.6657 16.1924 15.9668 16.583C16.5202 17.291 17.4805 17.645 18.8477 17.645C19.6615 17.645 20.3776 17.4701 20.9961 17.1201C21.6146 16.762 21.9238 16.2127 21.9238 15.4722C21.9238 14.9106 21.6756 14.4834 21.1792 14.1904C20.8618 14.0114 20.2352 13.8039 19.2993 13.5679L17.5537 13.1284C16.4388 12.8517 15.6169 12.5425 15.0879 12.2007C14.1439 11.6066 13.6719 10.7847 13.6719 9.73486C13.6719 8.49788 14.1154 7.49691 15.0024 6.73193C15.8976 5.96696 17.098 5.58447 18.6035 5.58447C20.5729 5.58447 21.993 6.16227 22.8638 7.31787C23.409 8.05029 23.6735 8.83968 23.6572 9.68604H21.582C21.5413 9.18962 21.3664 8.73796 21.0571 8.33105C20.5526 7.75326 19.6777 7.46436 18.4326 7.46436C17.6025 7.46436 16.9718 7.62305 16.5405 7.94043C16.1174 8.25781 15.9058 8.67692 15.9058 9.19775C15.9058 9.76742 16.1865 10.2231 16.748 10.5649C17.0736 10.7684 17.5537 10.9474 18.1885 11.1021L19.6411 11.4561C21.2199 11.8385 22.2778 12.2088 22.8149 12.5669C23.6694 13.1284 24.0967 14.0114 24.0967 15.2158C24.0967 16.3796 23.6532 17.3846 22.7661 18.231C21.8872 19.0773 20.5444 19.5005 18.7378 19.5005C16.7928 19.5005 15.4134 19.061 14.5996 18.1821C13.7939 17.2951 13.3626 16.2005 13.3057 14.8984H15.4175ZM31.6528 5.54785C33.1258 5.54785 34.3221 5.90592 35.2417 6.62207C36.1694 7.33822 36.7269 8.57113 36.9141 10.3208H34.7778C34.6476 9.51514 34.3506 8.84782 33.8867 8.31885C33.4229 7.78174 32.6782 7.51318 31.6528 7.51318C30.2531 7.51318 29.2521 8.19678 28.6499 9.56396C28.2593 10.451 28.064 11.5456 28.064 12.8477C28.064 14.1579 28.3407 15.2606 28.894 16.1558C29.4474 17.0509 30.3182 17.4985 31.5063 17.4985C32.4178 17.4985 33.138 17.2218 33.667 16.6685C34.2041 16.1069 34.5744 15.342 34.7778 14.3735H36.9141C36.6699 16.1069 36.0596 17.3765 35.083 18.1821C34.1064 18.9797 32.8573 19.3784 31.3354 19.3784C29.6265 19.3784 28.2633 18.7559 27.2461 17.5107C26.2288 16.2575 25.7202 14.695 25.7202 12.8232C25.7202 10.5283 26.2777 8.74202 27.3926 7.46436C28.5075 6.18669 29.9276 5.54785 31.6528 5.54785ZM39.1113 1.00684H41.3086V7.69629C41.8294 7.03711 42.2974 6.57324 42.7124 6.30469C43.4204 5.84082 44.3034 5.60889 45.3613 5.60889C47.2575 5.60889 48.5433 6.27214 49.2188 7.59863C49.585 8.32292 49.7681 9.32796 49.7681 10.6138V19H47.5098V10.7603C47.5098 9.79997 47.3877 9.09603 47.1436 8.64844C46.7448 7.93229 45.9961 7.57422 44.8975 7.57422C43.986 7.57422 43.16 7.88753 42.4194 8.51416C41.6789 9.14079 41.3086 10.3249 41.3086 12.0664V19H39.1113V1.00684ZM58.4717 5.6333C59.3994 5.6333 60.2987 5.85303 61.1694 6.29248C62.0402 6.7238 62.7035 7.28532 63.1592 7.97705C63.5986 8.63623 63.8916 9.40527 64.0381 10.2842C64.1683 10.8864 64.2334 11.8467 64.2334 13.165H54.6509C54.6916 14.4915 55.0049 15.5576 55.5908 16.3633C56.1768 17.1608 57.0841 17.5596 58.313 17.5596C59.4604 17.5596 60.376 17.1812 61.0596 16.4243C61.4502 15.9849 61.7269 15.4762 61.8896 14.8984H64.0503C63.9933 15.3786 63.8021 15.9157 63.4766 16.5098C63.1592 17.0957 62.8011 17.5758 62.4023 17.9502C61.735 18.6012 60.909 19.0407 59.9243 19.2686C59.3953 19.3988 58.7972 19.4639 58.1299 19.4639C56.5023 19.4639 55.1229 18.8739 53.9917 17.6938C52.8605 16.5057 52.2949 14.8455 52.2949 12.7134C52.2949 10.6138 52.8646 8.90885 54.0039 7.59863C55.1432 6.28841 56.6325 5.6333 58.4717 5.6333ZM61.9751 11.4194C61.8856 10.4673 61.6781 9.70638 61.3525 9.13672C60.7503 8.07878 59.7453 7.5498 58.3374 7.5498C57.3283 7.5498 56.4819 7.91602 55.7983 8.64844C55.1147 9.37272 54.7526 10.2964 54.7119 11.4194H61.9751ZM67.0044 5.92627H69.0918V8.18457C69.2627 7.74512 69.6818 7.21208 70.3491 6.58545C71.0164 5.95068 71.7855 5.6333 72.6562 5.6333C72.6969 5.6333 72.7661 5.63737 72.8638 5.64551C72.9614 5.65365 73.1283 5.66992 73.3643 5.69434V8.01367C73.234 7.98926 73.112 7.97298 72.998 7.96484C72.8923 7.95671 72.7743 7.95264 72.644 7.95264C71.5373 7.95264 70.6868 8.31071 70.0928 9.02686C69.4987 9.73486 69.2017 10.5527 69.2017 11.4805V19H67.0044V5.92627ZM80.481 12.2007H85.0464L82.8003 5.12061L80.481 12.2007ZM80.7129 1.00684H84.9609L91.333 19H87.2559L86.0962 15.3013H79.4678L78.2227 19H74.292L80.7129 1.00684ZM102.515 12.3472C102.515 11.3218 102.279 10.4144 101.807 9.625C101.343 8.83561 100.586 8.44092 99.5361 8.44092C98.2747 8.44092 97.408 9.03906 96.936 10.2354C96.6919 10.8701 96.5698 11.6758 96.5698 12.6523C96.5698 14.1986 96.9808 15.285 97.8027 15.9116C98.291 16.2778 98.8688 16.4609 99.5361 16.4609C100.505 16.4609 101.241 16.0866 101.746 15.3379C102.258 14.5892 102.515 13.5923 102.515 12.3472ZM100.537 5.40137C102.091 5.40137 103.406 5.9751 104.48 7.12256C105.562 8.27002 106.104 9.95459 106.104 12.1763C106.104 14.52 105.575 16.3063 104.517 17.5352C103.467 18.764 102.112 19.3784 100.452 19.3784C99.3937 19.3784 98.5148 19.1139 97.8149 18.585C97.4325 18.292 97.0581 17.8647 96.6919 17.3032V24.2368H93.2495V5.69434H96.582V7.65967C96.9564 7.08187 97.3551 6.62614 97.7783 6.29248C98.5514 5.6984 99.471 5.40137 100.537 5.40137ZM117.798 12.3472C117.798 11.3218 117.562 10.4144 117.09 9.625C116.626 8.83561 115.869 8.44092 114.819 8.44092C113.558 8.44092 112.691 9.03906 112.219 10.2354C111.975 10.8701 111.853 11.6758 111.853 12.6523C111.853 14.1986 112.264 15.285 113.086 15.9116C113.574 16.2778 114.152 16.4609 114.819 16.4609C115.788 16.4609 116.524 16.0866 117.029 15.3379C117.542 14.5892 117.798 13.5923 117.798 12.3472ZM115.82 5.40137C117.375 5.40137 118.689 5.9751 119.763 7.12256C120.846 8.27002 121.387 9.95459 121.387 12.1763C121.387 14.52 120.858 16.3063 119.8 17.5352C118.75 18.764 117.395 19.3784 115.735 19.3784C114.677 19.3784 113.798 19.1139 113.098 18.585C112.716 18.292 112.341 17.8647 111.975 17.3032V24.2368H108.533V5.69434H111.865V7.65967C112.24 7.08187 112.638 6.62614 113.062 6.29248C113.835 5.6984 114.754 5.40137 115.82 5.40137ZM129.163 8.20898C128.357 8.20898 127.73 8.46126 127.283 8.96582C126.843 9.47038 126.567 10.154 126.453 11.0166H131.86C131.803 10.097 131.523 9.4012 131.018 8.9292C130.522 8.44906 129.903 8.20898 129.163 8.20898ZM129.163 5.34033C130.269 5.34033 131.266 5.54785 132.153 5.96289C133.04 6.37793 133.773 7.03304 134.351 7.92822C134.871 8.71761 135.209 9.63314 135.364 10.6748C135.453 11.2852 135.49 12.1641 135.474 13.3115H126.367C126.416 14.6462 126.835 15.582 127.625 16.1191C128.105 16.4528 128.682 16.6196 129.358 16.6196C130.074 16.6196 130.656 16.4162 131.104 16.0093C131.348 15.7896 131.563 15.4844 131.75 15.0938H135.303C135.213 15.8831 134.802 16.6847 134.07 17.4985C132.931 18.7925 131.335 19.4395 129.285 19.4395C127.592 19.4395 126.099 18.8942 124.805 17.8037C123.511 16.7132 122.864 14.9391 122.864 12.4814C122.864 10.1784 123.446 8.41243 124.609 7.18359C125.781 5.95475 127.299 5.34033 129.163 5.34033ZM141.382 19H137.903V1.00684H141.382V19ZM143.42 8.29443V5.81641H145.276V2.10547H148.718V5.81641H150.879V8.29443H148.718V15.3257C148.718 15.8709 148.787 16.2127 148.926 16.3511C149.064 16.4813 149.487 16.5464 150.195 16.5464C150.301 16.5464 150.411 16.5464 150.525 16.5464C150.647 16.5382 150.765 16.5301 150.879 16.522V19.1221L149.231 19.1831C147.587 19.2401 146.464 18.9552 145.862 18.3286C145.471 17.9299 145.276 17.3154 145.276 16.4854V8.29443H143.42Z" fill="white"/>
</svg>
