<svg data-name="Layer 1" viewBox="0 0 496 76" xmlns="http://www.w3.org/2000/svg"><path d="M54.764 23.469c-.24-.26-.49-.52-.75-.75a11.002 11.002 0 00-7.45-2.88 10.712 10.712 0 00-2.54.3 10.897 10.897 0 00-5.13 2.76c-.13.12-.26.24-.38.37l-6.13 6.14-1.49 1.5c-3.441 3.441-9.316 1.867-10.576-2.834a6.323 6.323 0 011.636-6.106l15.67-15.64C25.461-5.598 4.947.114.699 16.612a22.13 22.13 0 005.625 21.007c3.44-3.441 9.314-1.868 10.575 2.831.143.535.216 1.086.215 1.639a2.62 2.62 0 002.61 2.62 6.33 6.33 0 016.33 6.32 2.61 2.61 0 002.62 2.62 6.32 6.32 0 016.32 6.32 2.61 2.61 0 002.62 2.61 6.32 6.32 0 016.32 6.32 2.602 2.602 0 012.61-2.61 6.319 6.319 0 006.35-6.32 2.602 2.602 0 012.61-2.61 6.32 6.32 0 006.32-6.32 2.602 2.602 0 012.61-2.61c4.866.01 7.916-5.251 5.492-9.469a6.308 6.308 0 00-1.032-1.341z" fill="#15bebb"/><path d="M38.554 23.269c.12-.13.25-.25.38-.37" fill="none" stroke="#3676e1" stroke-linecap="round" stroke-linejoin="round" stroke-width="0"/><path d="M21.974 30.909a6.3 6.3 0 008.94 0l1.51-1.5 6.13-6.14c.12-.13.25-.25.38-.37a10.901 10.901 0 015.09-2.76 10.712 10.712 0 012.54-.3 11.002 11.002 0 017.45 2.88c.26.23.51.49.75.75l14.13 14.15C80.546 25.192 74.376 4.811 57.787.934a22.13 22.13 0 00-20.163 5.395l-15.65 15.64a6.321 6.321 0 000 8.94m15.65 31.68a2.61 2.61 0 01-2.62-2.61 6.32 6.32 0 00-6.32-6.32 2.62 2.62 0 01-2.62-2.62 6.32 6.32 0 00-6.32-6.32 2.62 2.62 0 01-2.62-2.62c.008-4.873-5.262-7.926-9.486-5.497-4.224 2.43-4.233 8.521-.017 10.964a6.326 6.326 0 003.173.853 2.61 2.61 0 012.61 2.61 6.32 6.32 0 006.33 6.32 2.61 2.61 0 012.61 2.61 6.33 6.33 0 006.33 6.32 2.62 2.62 0 012.62 2.61c0 4.865 5.267 7.906 9.48 5.474 4.214-2.433 4.214-8.514 0-10.947a6.313 6.313 0 00-3.16-.847m93.72-21.37h-21.81v17.94h-6.78v-42h29.97v6.42h-23.19v11.22h21.81v6.42zm31.4 5.76c0 9.15-6.6 12.93-13.32 12.93-6.72 0-13.32-3.78-13.32-12.93v-16.56h6.3v16c0 5.55 3.09 7.59 7 7.59s7-2 7-7.59v-16h6.3zm26.99-10.86h-11v12.51c0 3.87 2 5.37 4.56 5.37a11.498 11.498 0 005.79-2l2.49 5a15.51 15.51 0 01-8.82 2.85c-6.51 0-10.32-3.51-10.32-11.16v-12.57h-5.73v-5.7h5.73v-8.7h6.3v8.7h11zm31.17 10.86c0 9.15-6.6 12.93-13.32 12.93-6.72 0-13.32-3.78-13.32-12.93v-16.56h6.3v16c0 5.55 3.09 7.59 7 7.59s7-2 7-7.59v-16h6.34zm25.62-16.5l-1.5 6.21a11.2 11.2 0 00-4.77-1c-4 0-6.84 2.82-6.84 7.71v15.76h-6.27v-28.74h6.21v3.24c1.89-2.73 4.83-4 8.34-4 1.648-.05 3.289.226 4.83.81m28.45 14.29c0 .81-.06 1.62-.12 2.34h-21.24c.84 5.16 4.47 7.32 8.55 7.32a13.722 13.722 0 008.31-3l3.12 4.47a17.303 17.303 0 01-11.82 4c-8.61 0-14.7-6-14.7-15.12s5.83-15.1 14.31-15.1c8 0 13.56 6.12 13.59 15.09m-21.33-2.43h14.91c-.69-4.47-3.3-7.08-7.29-7.08-4.47 0-7 2.88-7.62 7.08m53.94.33v16.5h-6.78v-42h16.29c9.69 0 14.88 4.89 14.88 12.75s-5.19 12.75-14.88 12.75zm0-19.11v12.72h9.32c5.49 0 8-2 8-6.36s-2.5-6.35-8-6.35zm52.69 21.21c0 .81-.06 1.62-.12 2.34h-21.25c.84 5.16 4.47 7.32 8.55 7.32a13.722 13.722 0 008.31-3l3.14 4.44a17.303 17.303 0 01-11.82 4c-8.61 0-14.7-6-14.7-15.12s5.85-15.12 14.31-15.12c8 0 13.56 6.12 13.59 15.09m-21.38-2.38h15c-.69-4.47-3.3-7.08-7.29-7.08-4.47 0-7 2.88-7.62 7.08m46.43-11.85l-1.52 6.21a11.2 11.2 0 00-4.77-1c-4 0-6.84 2.82-6.84 7.71v15.76h-6.27v-28.74h6.21v3.24c1.89-2.73 4.83-4 8.34-4 1.648-.05 3.289.226 4.83.81m24.38 5.65h-9.88v23h-6.3v-23h-5.7v-5.7h5.76v-4.86c0-5.76 2.91-10.35 9.63-10.35 2.816-.038 5.587.71 8 2.16l-2.22 5.28a11.44 11.44 0 00-5.37-1.53c-2.43 0-3.75 1.59-3.75 4.44v4.86h9.84zm29.3 8.64c0 .81-.06 1.62-.12 2.34h-21.23c.84 5.16 4.46 7.32 8.55 7.32a13.721 13.721 0 008.3-3l3.12 4.47a17.303 17.303 0 01-11.82 4c-8.6 0-14.69-6-14.69-15.12s5.85-15.12 14.3-15.12c8 0 13.56 6.12 13.59 15.09m-21.32-2.43h14.9c-.69-4.47-3.3-7.08-7.29-7.08-4.47 0-7 2.88-7.61 7.08m50.14-8.05l-4 4.3a9.639 9.639 0 00-6.9-3c-4.83 0-8.49 3.78-8.49 9.21 0 5.43 3.66 9.21 8.49 9.21a10.456 10.456 0 007.05-3l3.85 4.34a13.827 13.827 0 01-10.74 4.59c-9.15 0-15.12-6.51-15.12-15.12s6-15.12 15.12-15.12a13.75 13.75 0 0110.74 4.59m25.8 1.86h-11v12.51c0 3.87 2 5.37 4.56 5.37a11.498 11.498 0 005.79-2l2.49 5a15.51 15.51 0 01-8.82 2.85c-6.51 0-10.32-3.51-10.32-11.16v-12.57h-5.73v-5.7h5.73v-8.7h6.3v8.7h11z" fill="#003269"/></svg>