<svg width="24" height="24" fill="none" xmlns="http://www.w3.org/2000/svg"><path fill-rule="evenodd" clip-rule="evenodd" d="M12 0C5.373 0 0 5.373 0 12s5.373 12 12 12 12-5.373 12-12S18.627 0 12 0zM5.76 9.939h2.72v8.17H5.76V9.94zm2.9-2.528C8.641 6.611 8.068 6 7.138 6 6.209 6 5.6 6.61 5.6 7.411c0 .785.59 1.413 1.503 1.413h.018c.948 0 1.538-.628 1.538-1.413zm6.497 2.336c1.79 0 3.13 1.168 3.13 3.678v4.685h-2.719v-4.372c0-1.098-.393-1.847-1.378-1.847-.751 0-1.199.505-1.395.993-.072.175-.09.418-.09.663v4.563h-2.72s.036-7.404 0-8.17h2.72v1.157c.361-.557 1.008-1.35 2.452-1.35z" fill="#fff" opacity=".9"/></svg>