<svg width="694" height="468" viewBox="0 0 694 468" fill="none" xmlns="http://www.w3.org/2000/svg">
<path opacity="0.1" d="M417 44.6446C442.912 20.2889 476.195 4.96589 511.767 1.01564C547.339 -2.9346 583.244 4.70499 614 22.7678C550.859 45.0577 481.191 45.8771 417 44.6446Z" fill="#70DDFF"/>
<path opacity="0.1" d="M111.095 413.659L174.755 303.487C174.932 303.177 175.188 302.919 175.497 302.74C175.805 302.561 176.156 302.467 176.513 302.467C176.87 302.467 177.221 302.561 177.53 302.74C177.838 302.919 178.094 303.177 178.272 303.487L241.931 413.659C242.117 413.968 242.217 414.32 242.221 414.68C242.225 415.04 242.132 415.394 241.954 415.707C241.775 416.019 241.516 416.278 241.203 416.457C240.891 416.636 240.536 416.729 240.176 416.725H221.186C220.648 416.727 220.132 416.941 219.751 417.322C219.371 417.702 219.156 418.217 219.155 418.755V442.268C219.155 442.805 218.941 443.32 218.562 443.701C218.182 444.081 217.667 444.296 217.129 444.298H192.351C191.813 444.298 191.296 444.084 190.915 443.703C190.534 443.322 190.32 442.806 190.32 442.268V430.904C190.32 430.367 190.106 429.853 189.727 429.473C189.347 429.093 188.832 428.88 188.294 428.88H164.738C164.2 428.88 163.684 429.093 163.304 429.473C162.923 429.852 162.708 430.367 162.706 430.904V442.268C162.706 442.806 162.492 443.322 162.111 443.703C161.73 444.084 161.214 444.298 160.675 444.298H135.903C135.364 444.298 134.848 444.084 134.467 443.703C134.086 443.322 133.872 442.806 133.872 442.268V418.731C133.872 418.192 133.658 417.676 133.277 417.295C132.896 416.915 132.379 416.701 131.84 416.701H112.85C112.494 416.7 112.145 416.605 111.837 416.427C111.529 416.249 111.274 415.993 111.096 415.685C110.918 415.377 110.825 415.028 110.824 414.672C110.824 414.317 110.917 413.967 111.095 413.659ZM199.87 425.851C200.057 426.043 200.28 426.196 200.527 426.301C200.773 426.407 201.038 426.462 201.306 426.464H210.224C210.763 426.464 211.28 426.25 211.661 425.869C212.042 425.489 212.256 424.972 212.256 424.434C212.256 423.896 212.042 423.379 211.661 422.999C211.28 422.618 210.763 422.404 210.224 422.404H201.288C200.886 422.404 200.493 422.523 200.159 422.747C199.825 422.97 199.565 423.287 199.411 423.657C199.258 424.028 199.217 424.436 199.296 424.83C199.374 425.224 199.568 425.585 199.852 425.869L199.87 425.851ZM141.39 425.851C141.577 426.043 141.8 426.196 142.047 426.301C142.293 426.407 142.558 426.462 142.826 426.464H151.738C152.277 426.464 152.794 426.25 153.175 425.869C153.556 425.489 153.77 424.972 153.77 424.434C153.77 423.896 153.556 423.379 153.175 422.999C152.794 422.618 152.277 422.404 151.738 422.404H142.79C142.388 422.404 141.995 422.523 141.661 422.747C141.327 422.97 141.067 423.287 140.913 423.657C140.76 424.028 140.719 424.436 140.798 424.83C140.876 425.224 141.069 425.585 141.353 425.869L141.39 425.851Z" fill="#70DDFF"/>
<path opacity="0.1" d="M482.336 415.861L545.996 305.689C546.174 305.381 546.431 305.125 546.739 304.947C547.048 304.769 547.398 304.676 547.754 304.676C548.111 304.676 548.461 304.769 548.769 304.947C549.078 305.125 549.334 305.381 549.513 305.689L604.5 400.849C597.63 409.499 589.923 417.451 581.49 424.588H572.529C571.99 424.588 571.473 424.802 571.092 425.183C570.711 425.563 570.497 426.08 570.497 426.618C570.497 427.156 570.711 427.673 571.092 428.053C571.473 428.434 571.99 428.648 572.529 428.648H576.31C571.679 432.127 566.75 435.191 561.579 437.804V433.112C561.579 432.574 561.365 432.058 560.984 431.677C560.603 431.296 560.087 431.083 559.548 431.083H535.991C535.454 431.084 534.938 431.299 534.559 431.679C534.179 432.06 533.966 432.575 533.966 433.112V444.47C533.967 444.765 533.902 445.056 533.776 445.323C533.613 445.674 533.353 445.971 533.027 446.18C532.701 446.388 532.322 446.5 531.934 446.5H507.157C506.842 446.501 506.532 446.428 506.251 446.286C505.971 446.144 505.728 445.938 505.542 445.684C505.27 445.334 505.125 444.902 505.131 444.458V420.939C505.131 420.401 504.917 419.885 504.536 419.504C504.155 419.123 503.638 418.909 503.1 418.909H484.11C483.751 418.912 483.399 418.82 483.087 418.643C482.776 418.466 482.517 418.209 482.337 417.9C482.157 417.59 482.062 417.239 482.062 416.881C482.062 416.523 482.156 416.171 482.336 415.861ZM524.41 425.183C524.223 424.991 524 424.838 523.753 424.732C523.506 424.627 523.241 424.572 522.973 424.57H514.037C513.498 424.57 512.981 424.784 512.6 425.164C512.219 425.545 512.005 426.061 512.005 426.6C512.005 427.138 512.219 427.654 512.6 428.035C512.981 428.416 513.498 428.63 514.037 428.63H522.98C523.381 428.629 523.774 428.51 524.108 428.287C524.442 428.064 524.702 427.747 524.856 427.376C525.01 427.006 525.05 426.597 524.971 426.204C524.893 425.81 524.7 425.448 524.416 425.165L524.41 425.183ZM564.396 384.413C564.935 384.413 565.452 384.199 565.833 383.819C566.214 383.438 566.428 382.922 566.428 382.383V366.966C566.428 366.428 566.214 365.911 565.833 365.531C565.452 365.15 564.935 364.936 564.396 364.936H531.1C530.562 364.938 530.047 365.152 529.667 365.533C529.287 365.913 529.074 366.429 529.074 366.966V382.383C529.074 382.921 529.287 383.436 529.667 383.817C530.047 384.197 530.562 384.412 531.1 384.413H564.396Z" fill="#70DDFF"/>
<path opacity="0.2" d="M252.942 216.716H331.719V199.692C331.719 198.612 332.149 197.576 332.913 196.813C333.677 196.049 334.714 195.62 335.795 195.62H358.928V177.486C358.928 176.806 359.198 176.154 359.679 175.673C360.16 175.192 360.813 174.922 361.493 174.922H391.292C391.972 174.922 392.624 175.192 393.106 175.673C393.587 176.154 393.857 176.806 393.857 177.486V195.614H421.053C422.134 195.614 423.171 196.043 423.935 196.806C424.699 197.57 425.128 198.606 425.128 199.686V216.71H500.247C500.466 216.712 500.675 216.799 500.829 216.955C500.983 217.11 501.07 217.319 501.07 217.538V443.543C501.07 443.762 500.983 443.972 500.829 444.127C500.675 444.282 500.466 444.37 500.247 444.371H450.324C450.104 444.371 449.893 444.284 449.738 444.129C449.582 443.973 449.495 443.763 449.495 443.543V413.138C449.493 412.919 449.406 412.709 449.251 412.554C449.096 412.399 448.886 412.311 448.666 412.31H427.577C427.358 412.311 427.148 412.399 426.993 412.554C426.838 412.709 426.75 412.919 426.749 413.138V443.543C426.749 443.762 426.662 443.972 426.508 444.127C426.354 444.282 426.145 444.37 425.926 444.371H327.263C327.044 444.37 326.834 444.282 326.679 444.127C326.524 443.972 326.436 443.762 326.435 443.543V413.138C326.435 412.919 326.348 412.71 326.194 412.555C326.04 412.399 325.831 412.311 325.612 412.31H304.523C304.304 412.31 304.093 412.397 303.937 412.552C303.782 412.708 303.695 412.918 303.695 413.138V443.543C303.693 443.762 303.605 443.972 303.45 444.127C303.295 444.282 303.085 444.37 302.866 444.371H252.942C252.723 444.37 252.513 444.282 252.358 444.127C252.203 443.972 252.115 443.762 252.114 443.543V217.544C252.115 217.325 252.203 217.115 252.358 216.96C252.513 216.805 252.723 216.718 252.942 216.716ZM458.431 401.75C458.431 401.967 458.518 402.176 458.672 402.331C458.827 402.485 459.036 402.571 459.254 402.571H490.09C490.198 402.572 490.306 402.551 490.406 402.511C490.507 402.47 490.598 402.409 490.675 402.333C490.752 402.256 490.813 402.166 490.855 402.065C490.897 401.965 490.918 401.858 490.918 401.75V391.244C490.918 391.025 490.831 390.814 490.675 390.659C490.52 390.504 490.309 390.416 490.09 390.416H459.254C459.035 390.418 458.826 390.506 458.672 390.661C458.518 390.816 458.431 391.026 458.431 391.244V401.75ZM458.431 374.557C458.431 374.666 458.451 374.773 458.492 374.874C458.533 374.974 458.594 375.066 458.67 375.143C458.747 375.219 458.838 375.281 458.938 375.322C459.038 375.364 459.145 375.385 459.254 375.385H490.09C490.199 375.386 490.307 375.365 490.408 375.324C490.508 375.283 490.6 375.222 490.677 375.145C490.754 375.068 490.815 374.976 490.857 374.875C490.898 374.774 490.919 374.666 490.918 374.557V364.04C490.919 363.931 490.898 363.823 490.857 363.722C490.815 363.621 490.754 363.53 490.677 363.453C490.6 363.376 490.508 363.315 490.408 363.273C490.307 363.232 490.199 363.211 490.09 363.212H459.254C459.145 363.212 459.038 363.234 458.938 363.275C458.838 363.317 458.747 363.378 458.67 363.455C458.594 363.532 458.533 363.623 458.492 363.724C458.451 363.824 458.431 363.932 458.431 364.04V374.557ZM458.431 347.372C458.431 347.59 458.518 347.8 458.672 347.955C458.826 348.11 459.035 348.198 459.254 348.199H490.09C490.198 348.199 490.306 348.178 490.407 348.136C490.507 348.095 490.599 348.034 490.675 347.957C490.752 347.88 490.813 347.789 490.855 347.688C490.897 347.588 490.918 347.48 490.918 347.372V336.848C490.918 336.628 490.831 336.418 490.675 336.263C490.52 336.107 490.309 336.02 490.09 336.02H459.254C459.035 336.022 458.826 336.11 458.672 336.265C458.518 336.42 458.431 336.629 458.431 336.848V347.372ZM458.431 320.18C458.431 320.288 458.451 320.395 458.492 320.496C458.533 320.596 458.594 320.688 458.67 320.765C458.747 320.842 458.838 320.903 458.938 320.944C459.038 320.986 459.145 321.007 459.254 321.007H490.09C490.199 321.008 490.307 320.987 490.408 320.946C490.508 320.905 490.6 320.844 490.677 320.767C490.754 320.69 490.815 320.598 490.857 320.497C490.898 320.396 490.919 320.288 490.918 320.18V309.68C490.919 309.572 490.898 309.464 490.857 309.363C490.815 309.262 490.754 309.17 490.677 309.093C490.6 309.016 490.508 308.955 490.408 308.914C490.307 308.873 490.199 308.852 490.09 308.853H459.254C459.145 308.853 459.038 308.874 458.938 308.916C458.838 308.957 458.747 309.018 458.67 309.095C458.594 309.172 458.533 309.264 458.492 309.364C458.451 309.465 458.431 309.572 458.431 309.68V320.18ZM458.431 292.994C458.431 293.212 458.518 293.422 458.672 293.577C458.826 293.732 459.035 293.82 459.254 293.822H490.09C490.309 293.822 490.52 293.734 490.675 293.579C490.831 293.424 490.918 293.213 490.918 292.994V282.47C490.918 282.362 490.897 282.254 490.855 282.154C490.813 282.054 490.752 281.963 490.675 281.887C490.598 281.81 490.507 281.75 490.406 281.709C490.306 281.668 490.198 281.647 490.09 281.648H459.254C459.036 281.648 458.827 281.735 458.672 281.889C458.518 282.043 458.431 282.252 458.431 282.47V292.994ZM458.431 265.808C458.431 266.026 458.518 266.235 458.672 266.389C458.827 266.543 459.036 266.629 459.254 266.629H490.09C490.198 266.63 490.306 266.61 490.406 266.569C490.507 266.528 490.598 266.467 490.675 266.391C490.752 266.315 490.813 266.224 490.855 266.124C490.897 266.023 490.918 265.916 490.918 265.808V255.284C490.918 255.065 490.831 254.854 490.675 254.699C490.52 254.543 490.309 254.456 490.09 254.456H459.254C459.035 254.458 458.826 254.546 458.672 254.701C458.518 254.856 458.431 255.066 458.431 255.284V265.808ZM458.431 238.616C458.431 238.724 458.451 238.832 458.492 238.932C458.533 239.032 458.594 239.124 458.67 239.201C458.747 239.278 458.838 239.339 458.938 239.38C459.038 239.422 459.145 239.444 459.254 239.444H490.09C490.199 239.444 490.307 239.424 490.408 239.382C490.508 239.341 490.6 239.28 490.677 239.203C490.754 239.126 490.815 239.034 490.857 238.933C490.898 238.833 490.919 238.725 490.918 238.616V228.117C490.919 228.008 490.898 227.9 490.857 227.799C490.815 227.698 490.754 227.606 490.677 227.529C490.6 227.452 490.508 227.391 490.408 227.35C490.307 227.309 490.199 227.288 490.09 227.289H459.254C459.145 227.289 459.038 227.31 458.938 227.352C458.838 227.394 458.747 227.455 458.67 227.532C458.594 227.609 458.533 227.7 458.492 227.8C458.451 227.901 458.431 228.008 458.431 228.117V238.616ZM385.326 401.743C385.326 401.852 385.347 401.959 385.389 402.059C385.431 402.159 385.492 402.25 385.569 402.327C385.646 402.403 385.737 402.463 385.838 402.504C385.938 402.545 386.046 402.566 386.154 402.565H416.99C417.209 402.565 417.418 402.479 417.574 402.325C417.729 402.171 417.817 401.962 417.818 401.743V391.244C417.817 391.025 417.729 390.816 417.574 390.661C417.419 390.506 417.209 390.418 416.99 390.416H386.154C385.935 390.416 385.724 390.504 385.568 390.659C385.413 390.814 385.326 391.025 385.326 391.244V401.743ZM385.326 374.551C385.325 374.66 385.346 374.768 385.387 374.869C385.428 374.97 385.489 375.062 385.567 375.139C385.644 375.216 385.735 375.277 385.836 375.318C385.937 375.359 386.045 375.38 386.154 375.379H416.99C417.099 375.379 417.206 375.358 417.307 375.316C417.408 375.275 417.499 375.214 417.576 375.137C417.653 375.06 417.714 374.969 417.755 374.868C417.797 374.768 417.818 374.66 417.818 374.551V364.04C417.818 363.931 417.797 363.824 417.755 363.723C417.714 363.623 417.653 363.531 417.576 363.455C417.499 363.378 417.408 363.317 417.307 363.275C417.206 363.234 417.099 363.212 416.99 363.212H386.154C386.045 363.211 385.937 363.232 385.836 363.273C385.735 363.315 385.644 363.376 385.567 363.453C385.489 363.53 385.428 363.621 385.387 363.722C385.346 363.823 385.325 363.931 385.326 364.04V374.551ZM385.326 347.365C385.326 347.585 385.413 347.796 385.568 347.951C385.724 348.106 385.935 348.193 386.154 348.193H416.99C417.209 348.192 417.419 348.104 417.574 347.949C417.729 347.794 417.817 347.585 417.818 347.365V336.848C417.817 336.629 417.729 336.419 417.574 336.264C417.419 336.109 417.209 336.022 416.99 336.02H386.154C385.935 336.02 385.724 336.107 385.568 336.263C385.413 336.418 385.326 336.628 385.326 336.848V347.365ZM385.326 320.173C385.325 320.282 385.346 320.39 385.387 320.491C385.428 320.592 385.489 320.684 385.567 320.761C385.644 320.838 385.735 320.899 385.836 320.94C385.937 320.981 386.045 321.002 386.154 321.001H416.99C417.099 321.001 417.206 320.98 417.307 320.938C417.408 320.897 417.499 320.836 417.576 320.759C417.653 320.682 417.714 320.591 417.755 320.49C417.797 320.39 417.818 320.282 417.818 320.173V309.68C417.818 309.572 417.797 309.464 417.755 309.364C417.714 309.263 417.653 309.172 417.576 309.095C417.499 309.018 417.408 308.957 417.307 308.916C417.206 308.874 417.099 308.853 416.99 308.853H386.154C386.045 308.852 385.937 308.873 385.836 308.914C385.735 308.955 385.644 309.016 385.567 309.093C385.489 309.17 385.428 309.262 385.387 309.363C385.346 309.464 385.325 309.572 385.326 309.68V320.173ZM385.326 292.987C385.326 293.207 385.413 293.418 385.568 293.573C385.724 293.728 385.935 293.815 386.154 293.815H416.99C417.209 293.814 417.419 293.726 417.574 293.571C417.729 293.416 417.817 293.207 417.818 292.987V282.47C417.817 282.252 417.729 282.043 417.574 281.889C417.418 281.735 417.209 281.648 416.99 281.648H386.154C386.046 281.647 385.938 281.668 385.838 281.709C385.737 281.75 385.646 281.81 385.569 281.887C385.492 281.963 385.431 282.054 385.389 282.154C385.347 282.254 385.326 282.362 385.326 282.47V292.987ZM385.326 265.802C385.326 265.91 385.347 266.017 385.389 266.117C385.431 266.218 385.492 266.308 385.569 266.385C385.646 266.461 385.737 266.522 385.838 266.563C385.938 266.603 386.046 266.624 386.154 266.623H416.99C417.209 266.623 417.418 266.537 417.574 266.383C417.729 266.229 417.817 266.02 417.818 265.802V255.284C417.817 255.065 417.729 254.855 417.574 254.7C417.419 254.546 417.209 254.458 416.99 254.456H386.154C385.935 254.456 385.724 254.543 385.568 254.699C385.413 254.854 385.326 255.065 385.326 255.284V265.802ZM385.326 238.61C385.325 238.718 385.346 238.827 385.387 238.927C385.428 239.028 385.489 239.12 385.567 239.197C385.644 239.274 385.735 239.335 385.836 239.376C385.937 239.417 386.045 239.438 386.154 239.437H416.99C417.099 239.437 417.206 239.416 417.307 239.374C417.408 239.333 417.499 239.272 417.576 239.195C417.653 239.118 417.714 239.027 417.755 238.926C417.797 238.826 417.818 238.718 417.818 238.61V228.117C417.818 228.008 417.797 227.9 417.755 227.8C417.714 227.699 417.653 227.608 417.576 227.531C417.499 227.454 417.408 227.393 417.307 227.352C417.206 227.31 417.099 227.289 416.99 227.289H386.154C386.045 227.288 385.937 227.309 385.836 227.35C385.735 227.391 385.644 227.452 385.567 227.529C385.489 227.606 385.428 227.698 385.387 227.799C385.346 227.9 385.325 228.008 385.326 228.117V238.61ZM335.371 401.737C335.371 401.846 335.393 401.953 335.434 402.053C335.476 402.153 335.537 402.244 335.614 402.321C335.691 402.397 335.783 402.457 335.883 402.498C335.984 402.539 336.091 402.56 336.2 402.559H367.035C367.254 402.559 367.464 402.473 367.619 402.319C367.774 402.165 367.862 401.956 367.864 401.737V391.244C367.862 391.025 367.775 390.816 367.62 390.661C367.465 390.506 367.255 390.418 367.035 390.416H336.2C335.98 390.416 335.769 390.504 335.614 390.659C335.459 390.814 335.371 391.025 335.371 391.244V401.737ZM335.371 374.545C335.37 374.654 335.391 374.762 335.433 374.863C335.474 374.964 335.535 375.055 335.612 375.132C335.689 375.209 335.781 375.27 335.882 375.312C335.983 375.353 336.091 375.374 336.2 375.373H367.035C367.144 375.373 367.252 375.352 367.353 375.31C367.453 375.268 367.544 375.208 367.621 375.131C367.698 375.054 367.759 374.962 367.801 374.862C367.843 374.762 367.864 374.654 367.864 374.545V364.04C367.864 363.931 367.843 363.824 367.801 363.723C367.759 363.623 367.698 363.531 367.621 363.455C367.544 363.378 367.453 363.317 367.353 363.275C367.252 363.234 367.144 363.212 367.035 363.212H336.2C336.091 363.211 335.983 363.232 335.882 363.273C335.781 363.315 335.689 363.376 335.612 363.453C335.535 363.53 335.474 363.621 335.433 363.722C335.391 363.823 335.37 363.931 335.371 364.04V374.545ZM335.371 347.359C335.371 347.579 335.459 347.789 335.614 347.945C335.769 348.1 335.98 348.187 336.2 348.187H367.035C367.255 348.186 367.465 348.098 367.62 347.943C367.775 347.788 367.862 347.578 367.864 347.359V336.848C367.862 336.629 367.775 336.419 367.62 336.264C367.465 336.109 367.255 336.022 367.035 336.02H336.2C335.98 336.02 335.769 336.107 335.614 336.263C335.459 336.418 335.371 336.628 335.371 336.848V347.359ZM335.371 320.167C335.37 320.276 335.391 320.384 335.433 320.485C335.474 320.586 335.535 320.677 335.612 320.754C335.689 320.832 335.781 320.893 335.882 320.934C335.983 320.975 336.091 320.996 336.2 320.995H367.035C367.144 320.995 367.252 320.974 367.353 320.932C367.453 320.891 367.544 320.83 367.621 320.753C367.698 320.676 367.759 320.585 367.801 320.484C367.843 320.384 367.864 320.276 367.864 320.167V309.68C367.864 309.572 367.843 309.464 367.801 309.364C367.759 309.263 367.698 309.172 367.621 309.095C367.544 309.018 367.453 308.957 367.353 308.916C367.252 308.874 367.144 308.853 367.035 308.853H336.2C336.091 308.852 335.983 308.873 335.882 308.914C335.781 308.955 335.689 309.016 335.612 309.093C335.535 309.17 335.474 309.262 335.433 309.363C335.391 309.464 335.37 309.572 335.371 309.68V320.167ZM335.371 292.981C335.371 293.201 335.459 293.412 335.614 293.567C335.769 293.722 335.98 293.809 336.2 293.809H367.035C367.255 293.808 367.465 293.72 367.62 293.565C367.775 293.41 367.862 293.2 367.864 292.981V282.47C367.862 282.252 367.774 282.043 367.619 281.889C367.464 281.735 367.254 281.648 367.035 281.648H336.2C336.091 281.647 335.984 281.668 335.883 281.709C335.783 281.75 335.691 281.81 335.614 281.887C335.537 281.963 335.476 282.054 335.434 282.154C335.393 282.254 335.371 282.362 335.371 282.47V292.981ZM335.371 265.795C335.371 265.904 335.393 266.011 335.434 266.111C335.476 266.211 335.537 266.302 335.614 266.379C335.691 266.455 335.783 266.515 335.883 266.556C335.984 266.597 336.091 266.618 336.2 266.617H367.035C367.254 266.617 367.464 266.531 367.619 266.377C367.774 266.223 367.862 266.014 367.864 265.795V255.284C367.862 255.065 367.775 254.855 367.62 254.7C367.465 254.546 367.255 254.458 367.035 254.456H336.2C335.98 254.456 335.769 254.543 335.614 254.699C335.459 254.854 335.371 255.065 335.371 255.284V265.795ZM335.371 238.603C335.37 238.712 335.391 238.82 335.433 238.921C335.474 239.022 335.535 239.114 335.612 239.191C335.689 239.268 335.781 239.329 335.882 239.37C335.983 239.411 336.091 239.432 336.2 239.431H367.035C367.144 239.431 367.252 239.41 367.353 239.368C367.453 239.327 367.544 239.266 367.621 239.189C367.698 239.112 367.759 239.021 367.801 238.92C367.843 238.82 367.864 238.712 367.864 238.603V228.117C367.864 228.008 367.843 227.9 367.801 227.8C367.759 227.699 367.698 227.608 367.621 227.531C367.544 227.454 367.453 227.393 367.353 227.352C367.252 227.31 367.144 227.289 367.035 227.289H336.2C336.091 227.288 335.983 227.309 335.882 227.35C335.781 227.391 335.689 227.452 335.612 227.529C335.535 227.606 335.474 227.698 335.433 227.799C335.391 227.9 335.37 228.008 335.371 228.117V238.603ZM262.265 401.731C262.267 401.95 262.355 402.159 262.51 402.313C262.665 402.467 262.875 402.553 263.094 402.553H293.93C294.038 402.554 294.146 402.533 294.246 402.492C294.347 402.451 294.438 402.391 294.515 402.314C294.592 402.238 294.653 402.147 294.695 402.047C294.737 401.947 294.758 401.84 294.758 401.731V391.244C294.758 391.025 294.671 390.814 294.516 390.659C294.36 390.504 294.149 390.416 293.93 390.416H263.088C262.869 390.418 262.659 390.506 262.504 390.661C262.349 390.816 262.261 391.025 262.259 391.244L262.265 401.731ZM262.265 374.539C262.265 374.759 262.353 374.969 262.508 375.124C262.664 375.28 262.874 375.367 263.094 375.367H293.93C294.039 375.368 294.147 375.347 294.248 375.306C294.349 375.264 294.44 375.203 294.517 375.126C294.595 375.049 294.656 374.958 294.697 374.857C294.738 374.756 294.759 374.648 294.758 374.539V364.04C294.759 363.931 294.738 363.823 294.697 363.722C294.656 363.621 294.595 363.53 294.517 363.453C294.44 363.376 294.349 363.315 294.248 363.273C294.147 363.232 294.039 363.211 293.93 363.212H263.088C262.868 363.212 262.657 363.299 262.502 363.455C262.347 363.61 262.259 363.82 262.259 364.04L262.265 374.539ZM262.265 347.353C262.267 347.572 262.355 347.782 262.51 347.937C262.665 348.092 262.875 348.179 263.094 348.181H293.93C294.149 348.181 294.36 348.094 294.516 347.939C294.671 347.783 294.758 347.573 294.758 347.353V336.848C294.758 336.628 294.671 336.418 294.516 336.263C294.36 336.107 294.149 336.02 293.93 336.02H263.088C262.869 336.022 262.659 336.109 262.504 336.264C262.349 336.419 262.261 336.629 262.259 336.848L262.265 347.353ZM262.265 320.161C262.265 320.381 262.353 320.591 262.508 320.747C262.664 320.902 262.874 320.989 263.094 320.989H293.93C294.039 320.99 294.147 320.969 294.248 320.928C294.349 320.886 294.44 320.825 294.517 320.748C294.595 320.671 294.656 320.58 294.697 320.479C294.738 320.378 294.759 320.27 294.758 320.161V309.68C294.759 309.572 294.738 309.464 294.697 309.363C294.656 309.262 294.595 309.17 294.517 309.093C294.44 309.016 294.349 308.955 294.248 308.914C294.147 308.873 294.039 308.852 293.93 308.853H263.088C262.868 308.853 262.657 308.94 262.502 309.095C262.347 309.25 262.259 309.461 262.259 309.68L262.265 320.161ZM262.265 292.975C262.267 293.194 262.355 293.404 262.51 293.559C262.665 293.714 262.875 293.801 263.094 293.803H293.93C294.149 293.803 294.36 293.716 294.516 293.561C294.671 293.405 294.758 293.195 294.758 292.975V282.47C294.758 282.362 294.737 282.254 294.695 282.154C294.653 282.054 294.592 281.963 294.515 281.887C294.438 281.81 294.347 281.75 294.246 281.709C294.146 281.668 294.038 281.647 293.93 281.648H263.088C262.869 281.648 262.659 281.735 262.504 281.889C262.349 282.043 262.261 282.252 262.259 282.47L262.265 292.975ZM262.265 265.789C262.264 265.899 262.284 266.007 262.324 266.108C262.365 266.21 262.425 266.302 262.502 266.38C262.578 266.459 262.669 266.521 262.77 266.564C262.87 266.606 262.979 266.629 263.088 266.629H293.93C294.038 266.63 294.146 266.61 294.246 266.569C294.347 266.528 294.438 266.467 294.515 266.391C294.592 266.315 294.653 266.224 294.695 266.124C294.737 266.023 294.758 265.916 294.758 265.808V255.284C294.758 255.065 294.671 254.854 294.516 254.699C294.36 254.543 294.149 254.456 293.93 254.456H263.088C262.869 254.458 262.659 254.546 262.504 254.7C262.349 254.855 262.261 255.065 262.259 255.284L262.265 265.789ZM262.265 238.597C262.265 238.817 262.353 239.027 262.508 239.183C262.664 239.338 262.874 239.425 263.094 239.425H293.93C294.039 239.426 294.147 239.405 294.248 239.364C294.349 239.322 294.44 239.262 294.517 239.184C294.595 239.107 294.656 239.016 294.697 238.915C294.738 238.814 294.759 238.706 294.758 238.597V228.117C294.759 228.008 294.738 227.9 294.697 227.799C294.656 227.698 294.595 227.606 294.517 227.529C294.44 227.452 294.349 227.391 294.248 227.35C294.147 227.309 294.039 227.288 293.93 227.289H263.088C262.868 227.289 262.657 227.376 262.502 227.531C262.347 227.686 262.259 227.897 262.259 228.117L262.265 238.597Z" fill="white"/>
<path opacity="0.1" d="M477.293 155.463C480.758 154.804 484.342 155.193 487.585 156.58C489.54 157.45 491.657 157.897 493.797 157.892C495.937 157.887 498.052 157.429 500.002 156.549C502.301 155.542 504.791 155.046 507.301 155.096C509.81 155.146 512.279 155.74 514.536 156.837C515.827 157.517 517.263 157.874 518.722 157.88C524.614 157.88 529.518 151.949 530.537 144.124C529.359 143.267 528.359 142.19 527.591 140.954C524.135 135.391 518.783 131.816 512.774 131.816C506.766 131.816 501.481 135.348 498.044 140.849C497.013 142.511 495.571 143.879 493.856 144.821C492.14 145.762 490.211 146.244 488.254 146.222H488.101C483.363 146.222 479.3 149.981 477.293 155.463Z" fill="#70DDFF"/>
<path opacity="0.1" d="M459.371 130.902L468.896 136.937L463.115 126.432C464.753 125.125 466.781 124.402 468.878 124.377H469.031C469.693 124.387 470.354 124.338 471.008 124.23L474.224 126.278L472.837 123.764C475.125 122.965 477.102 121.462 478.483 119.471L484.265 123.151L480.625 116.503C484.007 112.449 488.561 109.966 493.57 109.966C499.578 109.966 504.93 113.535 508.386 119.097C509.409 120.766 510.858 122.134 512.583 123.062C514.308 123.989 516.248 124.443 518.206 124.377H518.532C525.166 124.377 530.543 131.89 530.543 141.162C530.543 150.435 525.166 157.947 518.532 157.947C517.072 157.943 515.635 157.583 514.346 156.898C512.088 155.802 509.619 155.209 507.11 155.16C504.6 155.112 502.11 155.608 499.812 156.616C497.867 157.484 495.761 157.932 493.631 157.932C491.501 157.932 489.395 157.484 487.45 156.616C485.169 155.625 482.701 155.137 480.215 155.185C477.728 155.232 475.28 155.815 473.039 156.892C471.762 157.56 470.344 157.911 468.902 157.917C462.268 157.917 456.891 150.398 456.891 141.132C456.849 137.568 457.701 134.051 459.371 130.902Z" fill="#70DDFF"/>
<path opacity="0.1" d="M194.346 267.365C196.772 266.906 199.28 267.177 201.552 268.144C202.913 268.752 204.387 269.067 205.879 269.067C207.37 269.067 208.844 268.752 210.206 268.144C211.815 267.439 213.559 267.092 215.316 267.127C217.073 267.162 218.802 267.578 220.382 268.347C221.284 268.823 222.289 269.073 223.31 269.076C227.434 269.076 230.865 264.925 231.577 259.448C230.755 258.846 230.055 258.092 229.515 257.228C227.097 253.334 223.377 250.832 219.148 250.832C214.92 250.832 211.237 253.285 208.819 257.155C208.098 258.318 207.089 259.276 205.889 259.934C204.688 260.593 203.338 260.93 201.969 260.914H201.859C198.606 260.902 195.764 263.533 194.346 267.365Z" fill="#70DDFF"/>
<path opacity="0.1" d="M181.813 250.194L188.479 254.419L184.434 247.06C185.581 246.147 187 245.642 188.466 245.625H188.571C189.033 245.631 189.495 245.596 189.952 245.521L192.216 246.95L191.247 245.196C192.846 244.634 194.228 243.586 195.199 242.197L199.256 244.748L196.703 240.106C199.066 237.266 202.227 235.525 205.762 235.525C209.966 235.525 213.741 238.027 216.135 241.921C216.851 243.084 217.863 244.037 219.067 244.684C220.271 245.33 221.625 245.646 222.991 245.601H223.193C227.833 245.601 231.602 250.856 231.602 257.345C231.602 263.833 227.833 269.095 223.193 269.095C222.173 269.092 221.168 268.841 220.265 268.365C218.685 267.596 216.956 267.18 215.199 267.146C213.442 267.112 211.698 267.461 210.089 268.169C208.727 268.773 207.253 269.086 205.762 269.086C204.271 269.086 202.797 268.773 201.435 268.169C199.839 267.476 198.112 267.135 196.372 267.169C194.632 267.203 192.919 267.611 191.351 268.365C190.455 268.829 189.462 269.072 188.454 269.076C183.808 269.076 180.045 263.821 180.045 257.326C180.031 254.839 180.638 252.387 181.813 250.194Z" fill="#70DDFF"/>
<path opacity="0.1" d="M558.543 228.117C556.117 227.658 553.609 227.929 551.337 228.895C549.977 229.504 548.504 229.819 547.013 229.819C545.523 229.819 544.05 229.504 542.689 228.895C541.08 228.19 539.336 227.843 537.579 227.878C535.822 227.913 534.093 228.329 532.513 229.098C531.61 229.573 530.606 229.824 529.585 229.828C525.461 229.828 522.024 225.676 521.312 220.199C522.136 219.599 522.836 218.845 523.374 217.979C525.78 214.073 529.542 211.559 533.759 211.559C537.976 211.559 541.664 214.012 544.083 217.881C544.805 219.046 545.817 220.005 547.019 220.666C548.221 221.327 549.573 221.667 550.945 221.653H551.049C554.314 221.653 557.162 224.284 558.543 228.117Z" fill="#70DDFF"/>
<path opacity="0.1" d="M571.113 210.945L564.447 215.152L568.498 207.793C567.351 206.881 565.932 206.376 564.466 206.358H564.355C563.893 206.363 563.431 206.328 562.974 206.254L560.716 207.683L561.685 205.929C560.084 205.368 558.7 204.319 557.727 202.93L553.682 205.493L556.241 200.851C553.872 198.012 550.687 196.27 547.176 196.27C542.972 196.27 539.197 198.772 536.803 202.666C536.088 203.83 535.076 204.783 533.872 205.43C532.668 206.076 531.314 206.392 529.948 206.346H529.727C525.08 206.346 521.318 211.601 521.318 218.09C521.318 224.578 525.08 229.84 529.727 229.84C530.747 229.835 531.751 229.585 532.654 229.11C534.235 228.341 535.963 227.925 537.721 227.891C539.478 227.857 541.222 228.206 542.831 228.914C544.192 229.518 545.665 229.83 547.155 229.83C548.644 229.83 550.117 229.518 551.479 228.914C553.076 228.221 554.804 227.88 556.545 227.914C558.286 227.948 560 228.356 561.569 229.11C562.464 229.574 563.457 229.818 564.466 229.821C569.106 229.821 572.874 224.566 572.874 218.071C572.89 215.587 572.284 213.137 571.113 210.945Z" fill="#70DDFF"/>
<path d="M570.781 447.131C562.471 452.405 550.497 447.07 542.131 452.264C539.97 453.601 538.227 455.569 535.993 456.784C533.311 458.249 530.156 458.513 527.106 458.623C501.561 459.611 475.586 452.491 450.68 458.243C443.713 459.85 436.901 462.463 429.762 462.843C417.432 463.511 405.617 457.501 393.274 457.17C374.554 456.667 356.16 469.184 338.096 464.247C332.155 462.622 326.705 459.157 320.573 458.574C313.742 457.961 307.175 460.935 300.534 462.671C276.984 468.804 252.458 458.869 228.109 458.127C212.231 457.642 196.507 461.101 180.641 461.898C169.36 462.463 158.054 461.671 146.785 460.886C142.489 460.586 137.99 460.218 134.393 457.863C130.797 455.508 128.587 450.449 130.809 446.769L570.781 447.131Z" fill="#3F3D56"/>
<path opacity="0.1" d="M571 447.408C561.707 453.352 548.316 447.339 538.961 453.193C536.545 454.7 534.596 456.918 532.098 458.287C529.098 459.939 525.57 460.236 522.159 460.36C493.593 461.473 464.547 453.449 436.695 459.932C428.905 461.743 421.286 464.687 413.304 465.115C399.515 465.869 386.303 459.095 372.501 458.722C351.567 458.155 330.997 472.262 310.798 466.698C304.154 464.867 298.059 460.962 291.202 460.305C283.563 459.614 276.219 462.966 268.793 464.922C242.458 471.834 215.031 460.637 187.804 459.8C170.048 459.254 152.463 463.153 134.721 464.051C122.106 464.687 109.463 463.795 96.8621 462.911C92.0576 462.572 87.0267 462.157 83.0046 459.503C78.9826 456.849 76.5117 451.147 78.9963 447L571 447.408Z" fill="black"/>
<path d="M571 444.408C561.707 450.352 548.316 444.339 538.961 450.193C536.545 451.7 534.596 453.918 532.098 455.287C529.098 456.939 525.57 457.236 522.159 457.36C493.593 458.473 464.547 450.449 436.695 456.932C428.905 458.743 421.286 461.687 413.304 462.115C399.515 462.869 386.303 456.095 372.501 455.722C351.567 455.155 330.997 469.262 310.798 463.698C304.154 461.867 298.059 457.962 291.202 457.305C283.563 456.614 276.219 459.966 268.793 461.922C242.458 468.834 215.031 457.637 187.804 456.8C170.048 456.254 152.463 460.153 134.721 461.051C122.106 461.687 109.463 460.795 96.8621 459.911C92.0576 459.572 87.0267 459.157 83.0046 456.503C78.9826 453.849 76.5117 448.147 78.9963 444L571 444.408Z" fill="#3F3D56"/>
<g opacity="0.1">
<path opacity="0.1" d="M629.906 368.511C629.88 371.172 630.565 373.793 631.888 376.103C630.588 378.423 629.906 381.037 629.906 383.695C629.906 386.354 630.588 388.968 631.888 391.287C631.216 392.436 630.712 393.675 630.391 394.967C637.09 386.143 643.257 376.928 648.859 367.37C648.724 365.09 648.06 362.873 646.919 360.894C648.243 358.584 648.927 355.964 648.902 353.302C648.91 351.503 648.606 349.717 648.006 348.022C647.72 347.218 647.356 346.443 646.919 345.71C645.188 342.772 642.463 340.877 639.407 340.877C636.35 340.877 633.619 342.772 631.888 345.71C631.467 346.422 631.112 347.171 630.826 347.948C630.211 349.666 629.899 351.477 629.906 353.302C629.88 355.964 630.565 358.584 631.888 360.894C630.56 363.211 629.876 365.841 629.906 368.511Z" fill="#3F3D56"/>
<path opacity="0.1" d="M639.407 350.573C634.163 350.573 629.912 345.01 629.912 338.148C629.912 331.286 634.163 325.723 639.407 325.723C644.651 325.723 648.902 331.286 648.902 338.148C648.902 345.01 644.651 350.573 639.407 350.573Z" fill="#3F3D56"/>
<path opacity="0.1" d="M639.407 335.388C634.163 335.388 629.912 329.826 629.912 322.964C629.912 316.102 634.163 310.539 639.407 310.539C644.651 310.539 648.902 316.102 648.902 322.964C648.902 329.826 644.651 335.388 639.407 335.388Z" fill="#3F3D56"/>
<path opacity="0.1" d="M594.111 247.128C594.095 257.325 597.527 267.229 603.851 275.234C599.035 281.352 595.872 288.604 594.665 296.294C593.458 303.984 594.248 311.855 596.958 319.153C599.669 326.451 604.209 332.931 610.145 337.973C616.08 343.015 623.212 346.45 630.857 347.948C631.949 348.169 633.06 348.341 634.184 348.475C637.648 348.89 641.149 348.908 644.618 348.531C645.771 348.408 646.911 348.238 648.036 348.022C652.998 347.106 657.77 345.362 662.153 342.864C670.322 326.189 677.457 309.029 683.518 291.479C681.924 285.577 679.149 280.059 675.361 275.258C680.043 269.315 683.169 262.299 684.455 254.846C685.741 247.392 685.147 239.735 682.726 232.569L648.184 244.153L680.578 227.338C679.152 224.396 677.413 221.617 675.392 219.046C679.255 214.141 682.066 208.492 683.649 202.454C685.232 196.415 685.554 190.115 684.593 183.947C683.633 177.778 681.412 171.874 678.068 166.601C674.723 161.328 670.328 156.8 665.156 153.298C659.984 149.797 654.145 147.397 648.004 146.249C641.863 145.101 635.551 145.228 629.462 146.624C623.372 148.02 617.636 150.654 612.61 154.362C607.584 158.07 603.376 162.772 600.248 168.176L633.643 192.707L597.431 173.941C595.116 179.688 593.999 185.846 594.149 192.039C594.299 198.232 595.712 204.33 598.303 209.958L625.309 209.756L600.353 213.852C601.412 215.665 602.595 217.403 603.894 219.053C597.562 227.043 594.115 236.936 594.111 247.128Z" fill="#70DDFF"/>
<path opacity="0.1" d="M594.111 303.364C594.112 313.898 597.774 324.104 604.471 332.24C611.167 340.376 620.483 345.937 630.826 347.973C631.919 348.193 633.03 348.365 634.153 348.5C637.618 348.914 641.118 348.932 644.587 348.555C645.741 348.432 646.88 348.263 648.006 348.046C652.967 347.13 657.739 345.387 662.122 342.889C670.303 326.207 677.448 309.038 683.518 291.479C681.924 285.577 679.149 280.059 675.361 275.258C681.688 267.246 685.121 257.333 685.102 247.128C685.102 242.025 597.75 267.5 603.851 275.234C597.522 283.244 594.089 293.158 594.111 303.364Z" fill="black"/>
</g>
<g opacity="0.1">
<path opacity="0.1" d="M82.0881 356.687C83.868 362.366 85.7707 368.002 87.7225 373.509C88.265 371.886 88.5386 370.185 88.5327 368.474C88.5327 362.998 85.8321 358.349 82.0881 356.687Z" fill="#3F3D56"/>
<path opacity="0.1" d="M63 258.835C63 269.598 65.1727 286.603 69.1377 306.056C72.6104 323.14 76.943 340.039 82.1189 356.687C83.8988 362.366 85.8014 368.002 87.7532 373.509C89.9934 379.764 92.3565 385.848 94.8299 391.668C101.592 389.187 107.672 385.144 112.571 379.867C117.471 374.591 121.052 368.231 123.021 361.308C124.991 354.384 125.294 347.093 123.905 340.031C122.516 332.968 119.474 326.334 115.029 320.67C119.712 314.709 122.837 307.678 124.123 300.21C125.409 292.741 124.815 285.071 122.394 277.889L87.8514 289.498L120.246 272.646C118.82 269.698 117.081 266.913 115.06 264.336C119.375 258.839 122.368 252.425 123.811 245.59C125.253 238.754 125.105 231.679 123.378 224.909C121.651 218.139 118.392 211.857 113.851 206.545C109.31 201.233 103.609 197.033 97.1868 194.271C83.244 203.775 72.7487 217.527 67.2656 233.477L73.2499 237.929L66.8299 234.599C64.6764 241.211 63.4193 248.081 63.0921 255.027H64.8965L63.0552 255.327C63 256.486 63 257.651 63 258.835Z" fill="#70DDFF"/>
<path opacity="0.1" d="M69.1069 306.056C72.5796 323.14 76.9122 340.039 82.0881 356.687C83.868 362.366 85.7707 368.002 87.7225 373.509C89.9628 379.764 92.3258 385.848 94.7993 391.668C101.562 389.187 107.641 385.144 112.54 379.867C117.44 374.591 121.021 368.231 122.991 361.308C124.96 354.384 125.263 347.093 123.874 340.031C122.485 332.968 119.444 326.334 114.998 320.67C121.318 312.643 124.747 302.722 124.733 292.509C124.733 289.443 92.9886 297.477 69.1069 306.056Z" fill="black"/>
</g>
<path opacity="0.1" d="M0.0771484 239.622C0.0771484 239.523 0.0771484 239.417 0.0771484 239.311C0.430908 231.806 1.78986 224.383 4.1178 217.238C4.25049 216.834 4.38318 216.423 4.52252 216.026C10.4498 198.792 21.7953 183.933 36.8676 173.663C53.7623 162.167 74.2703 157.208 94.5593 159.713C114.848 162.218 133.53 172.015 147.113 187.274C148.534 179.23 150.782 171.354 153.821 163.77C175.959 166.565 198.302 167.397 220.588 166.255C206.931 172.544 192.772 177.68 178.257 181.608L178.775 183.53C195.064 179.112 210.905 173.189 226.095 165.838L230.679 163.618L225.597 163.949C201.921 165.497 178.152 164.816 154.604 161.915C159.698 149.779 166.765 138.567 175.517 128.73C213.707 124.887 251.599 116.882 286.983 101.012L286.167 99.2027C251.725 114.662 214.815 122.607 177.554 126.517C190.166 113.013 205.75 102.624 223.073 96.1686C240.397 89.7133 258.986 87.3689 277.372 89.3207C295.759 91.2725 313.439 97.4669 329.017 107.415C344.595 117.363 357.643 130.792 367.132 146.641C370.662 112.461 384.878 80.2577 407.764 54.6006C428.139 62.731 449.176 69.0959 470.643 73.6249C502.928 80.478 535.969 83.1043 568.932 81.4374C555.276 87.7263 541.116 92.862 526.602 96.7907L527.119 98.7124C543.404 94.2941 559.241 88.3711 574.426 81.02L579.011 78.8001L573.928 79.1314C517.741 82.8171 461.439 73.9082 409.144 53.0567C411.113 50.9053 413.139 48.8025 415.222 46.7483C480.522 48.0736 551.642 47.411 616.027 24C639.885 38.707 659.577 59.2692 673.225 83.7284C686.874 108.188 694.026 135.729 694 163.73C694 194.516 685.527 236.852 670.778 279.327C664.205 298.337 656.47 316.926 647.615 334.989C643.11 344.133 638.327 353.019 633.304 361.528C627.248 371.854 620.582 381.812 613.34 391.346C612.039 393.056 610.723 394.735 609.392 396.382C601.97 405.763 593.641 414.39 584.524 422.139C582.68 423.676 580.824 425.141 578.958 426.532C573.955 430.309 568.626 433.636 563.034 436.472C553.301 441.342 543.255 444.198 532.978 444.609C532.155 444.642 531.326 444.662 530.503 444.662V445H84.6388V444.662H84.3071C81.7374 444.652 79.1882 444.204 76.7697 443.337C61.0052 437.751 46.4882 415.32 34.4193 386.973C31.7654 380.684 29.191 374.111 26.7693 367.352C24.6329 361.388 22.6027 355.312 20.6785 349.176C15.0833 331.187 10.3997 312.928 6.64569 294.469C2.3927 273.45 0.0108643 255.075 0.0108643 243.446C-0.0090332 242.147 -0.00909424 240.888 0.0771484 239.622Z" fill="white"/>
<path d="M369.061 153.66C356.943 153.66 347.119 143.845 347.119 131.736C347.119 119.628 356.943 109.812 369.061 109.812C381.179 109.812 391.003 119.628 391.003 131.736C391.003 143.845 381.179 153.66 369.061 153.66Z" fill="#3F3D56"/>
<path d="M381.79 302.285C379.526 318.162 382.288 334.352 386.59 349.8C387.394 352.676 388.26 355.577 389.763 358.159C391.267 360.741 393.36 362.961 395.128 365.389C398.81 370.455 400.971 376.428 402.99 382.34C408.557 398.698 413.233 415.346 416.996 432.21C417.223 432.902 417.223 433.647 416.996 434.338C416.462 435.565 414.842 435.724 413.51 435.718L396.288 435.626C395.674 434.449 396.809 433.173 397.515 432.045C399.97 428.23 397.613 423.275 395.447 419.283C390.181 409.586 386.105 399.291 383.306 388.62C382.128 384.124 381.171 379.531 379.256 375.293C376.942 370.154 373.314 365.733 370.368 360.925C366.943 355.338 364.445 349.273 361.966 343.183C358.504 334.732 355.012 326.177 353.649 317.15C352.366 308.675 352.999 300.04 353.833 291.51C353.795 291.256 353.817 290.996 353.898 290.753C353.979 290.509 354.117 290.289 354.301 290.109C354.484 289.929 354.708 289.796 354.953 289.719C355.198 289.643 355.458 289.626 355.711 289.67L378.82 288.48C383.583 288.235 384.712 287.192 383.988 291.865C383.484 295.355 382.294 298.752 381.79 302.285Z" fill="#0A6EAA"/>
<path d="M377.249 263.686C381.944 270.432 386.866 278.196 385.307 286.272C384.123 292.405 379.446 297.158 375.033 301.604C357.393 319.303 340.048 338.964 334.045 363.218C332.499 369.486 331.75 375.919 330.418 382.229C328 393.697 323.667 404.663 319.37 415.56L307.856 444.598C304.285 444.686 300.773 443.674 297.798 441.699C294.822 439.724 292.527 436.882 291.223 433.559C292.733 433.443 294.703 431.983 295.587 430.757C300.497 423.968 301.504 415.235 302.762 406.956C304.155 397.806 306.015 388.73 307.881 379.66L316.13 339.528C317.081 334.898 318.032 330.262 319.272 325.699C324.072 308.025 333.168 291.356 334.573 273.081C334.782 270.395 334.911 267.445 336.734 265.452C338.649 263.349 341.791 262.999 344.633 262.833C356.129 262.097 366.047 260.975 377.249 263.686Z" fill="#0A6EAA"/>
<path d="M408.262 431.799C409.514 431.502 410.794 431.338 412.08 431.309C413.313 431.352 414.518 431.683 415.601 432.274C416.683 432.864 417.613 433.7 418.316 434.712C419.033 435.86 419.596 437.098 419.991 438.392L421.655 443.163C422.146 444.561 422.624 446.174 421.894 447.456C421.351 448.252 420.568 448.856 419.66 449.179C415.634 450.97 411.067 451.068 406.709 451.497C402.45 451.914 398.227 452.663 394.023 453.448C392.574 453.724 391.132 453.999 389.665 454.147C386.388 454.478 383.086 454.147 379.808 453.852L376.426 453.527C375.294 453.478 374.174 453.272 373.1 452.914C372.563 452.732 372.068 452.443 371.646 452.065C371.224 451.686 370.883 451.226 370.644 450.712C369.81 448.646 371.602 446.199 373.793 445.769C374.683 445.598 375.634 445.678 376.506 445.561C377.529 445.386 378.526 445.087 379.477 444.672C383.773 442.973 388.174 441.256 391.979 438.582C393.035 437.84 394.139 436.804 394.023 435.516C393.913 434.964 393.729 434.43 393.477 433.927C392.961 432.611 392.943 431.153 393.427 429.825C393.636 429.26 394.041 428.666 394.612 428.598C396.232 428.402 396.036 430.763 396.275 431.664C396.601 432.891 397.19 433.001 398.344 432.891C401.658 432.59 404.972 432.425 408.262 431.799Z" fill="#F2F2F2"/>
<path d="M311.367 448.278C311.337 450.674 310.513 452.993 309.022 454.87C308.567 455.43 307.998 455.888 307.353 456.213C306.382 456.613 305.331 456.779 304.284 456.698C301.362 456.634 298.475 456.051 295.759 454.975C294.802 454.541 293.818 454.171 292.813 453.865C291.548 453.606 290.269 453.422 288.983 453.313C283.907 452.583 279.451 449.59 274.547 448.075C273.082 447.713 271.646 447.241 270.251 446.665C268.311 445.751 266.74 444.212 265.199 442.722C264.291 441.917 263.509 440.98 262.879 439.943C261.977 438.269 261.922 436.264 261.885 434.369C261.852 434.073 261.903 433.773 262.032 433.504C262.172 433.311 262.364 433.16 262.585 433.069C264.076 432.333 265.844 432.701 267.495 432.989C273.461 434.05 279.568 433.854 285.625 433.658C286.2 433.736 286.785 433.624 287.289 433.336C287.793 433.049 288.187 432.604 288.412 432.069L290.714 428.39C291.37 427.335 292.414 426.127 293.604 426.489C294.556 426.777 294.942 427.942 294.906 428.942C294.869 429.941 294.562 430.935 294.752 431.91C294.888 432.446 295.132 432.95 295.47 433.388C295.808 433.827 296.232 434.192 296.716 434.461C297.683 434.986 298.715 435.382 299.785 435.638C303.173 436.595 307.113 437.681 309.734 440.17C311.661 441.937 311.483 445.892 311.367 448.278Z" fill="#F2F2F2"/>
<path d="M312.558 204.972C311.236 203.963 310.102 202.73 309.206 201.329C308.435 199.749 307.951 198.044 307.776 196.294L306.813 190.211C306.279 186.856 305.653 183.306 303.412 180.748C301.172 178.191 296.71 177.277 294.433 179.804C293.439 180.902 293.046 182.41 292.8 183.876C292.1 188.246 292.388 192.718 293.644 196.963C294.899 201.208 297.09 205.118 300.055 208.406C302.811 211.424 306.193 213.821 309.108 216.673C311.649 219.126 313.853 221.941 316.197 224.609C321.867 231.053 328.361 236.723 335.512 241.473C335.426 236.911 334.843 232.017 335.512 227.485C336.01 224.21 337.354 222.444 334.181 220.304C326.815 215.299 319.383 210.774 312.558 204.972Z" fill="#FBBEBE"/>
<path d="M374.45 160.094C374.689 163.356 376.046 166.692 378.746 168.575C371.099 171.249 363.555 174.197 356.117 177.418C357.553 176.038 357.989 173.923 358.056 171.936C358.246 166.741 356.448 161.633 353.821 157.156C353.403 156.588 353.162 155.91 353.128 155.206C353.213 153.759 354.932 153.09 356.344 152.753C361.16 151.585 366.075 150.873 371.025 150.625C373.142 150.557 375.653 149.889 375.174 152.581C374.72 155.095 374.26 157.549 374.45 160.094Z" fill="#FBBEBE"/>
<path d="M359.658 161.841C349.75 161.841 341.718 153.816 341.718 143.916C341.718 134.016 349.75 125.99 359.658 125.99C369.566 125.99 377.598 134.016 377.598 143.916C377.598 153.816 369.566 161.841 359.658 161.841Z" fill="#FBBEBE"/>
<path d="M341.896 192.333C342.522 190.987 343.285 189.709 344.173 188.518C347.426 183.851 350.765 179.191 354.938 175.327C358.1 172.51 361.521 169.999 365.157 167.827C367.119 166.483 369.276 165.449 371.553 164.761C372.904 164.461 374.277 164.275 375.659 164.202L380.317 163.822C380.726 163.768 381.14 163.781 381.545 163.859C382.809 164.178 383.386 165.748 383.116 167.017C382.846 168.287 381.889 169.317 381.042 170.28C380.833 179.779 385.062 189.15 385.633 198.637C386.633 215.226 376.5 230.656 375.69 247.257C375.606 248.007 375.686 248.766 375.923 249.483C376.058 249.826 376.26 250.139 376.414 250.476C376.893 251.519 376.874 252.702 376.96 253.849C377.295 257.939 379.087 261.773 382.011 264.655C381.251 265.597 380.274 266.342 379.164 266.826C377.206 267.678 374.867 267.752 372.786 268.347C367.361 269.929 361.8 271.523 356.16 271.186C355.459 269.662 355.025 268.03 354.877 266.36C354.079 265.863 353.158 266.924 353.035 267.856C352.913 268.788 353.091 269.874 352.422 270.548C351.753 271.223 350.906 271.119 350.089 271.014C346.646 270.579 343.338 269.42 339.962 268.641C336.587 267.862 332.978 267.488 329.694 268.604C329.031 267.764 329.313 266.519 329.854 265.599C330.394 264.679 331.161 263.87 331.468 262.846C331.622 262.256 331.688 261.646 331.664 261.037C331.664 255.793 330.584 250.495 331.609 245.349C331.91 243.841 332.388 242.369 332.695 240.854C333.309 237.917 333.217 234.887 333.137 231.888C333.057 228.889 333.42 225.645 333.481 222.603C333.483 221.346 333.565 220.091 333.726 218.844C333.935 217.538 334.34 216.262 334.451 214.944C334.782 211.595 333.432 208.271 333.634 204.911C333.972 199.808 339.907 197.036 341.896 192.333Z" fill="white"/>
<path d="M382.386 189.929C386.731 201.446 388.855 213.662 390.979 225.792L395.889 254.285C397.282 262.337 398.681 270.438 398.626 278.606C398.626 280.9 398.479 283.237 399.08 285.451C399.866 288.357 401.818 290.78 403.297 293.423C406.298 298.821 407.298 305.103 406.12 311.165C405.617 313.71 404.242 316.598 401.658 316.892C399.534 317.126 397.699 315.439 396.459 313.697C393.612 309.705 392.2 304.885 390.936 300.138C386.865 284.626 384.019 268.819 382.423 252.862C382.271 250.842 381.986 248.834 381.569 246.852C381.027 244.808 380.334 242.807 379.495 240.866C377.617 236.214 375.737 231.561 373.854 226.908C369.515 216.158 365.151 205.358 359.192 195.411C365.084 193.719 371.215 191.732 377.107 190.058C378.808 189.555 380.63 189.855 382.386 189.929Z" fill="#FBBEBE"/>
<path d="M372.173 198.68C376.297 197.791 380.563 198.067 384.773 197.962C385.371 198.006 385.967 197.851 386.467 197.521C387.321 196.791 386.958 195.424 386.529 194.387L384.491 189.481C384.157 188.467 383.599 187.541 382.858 186.77C381.821 185.851 380.36 185.624 378.986 185.458C374.511 184.943 369.908 184.771 365.569 185.979C361.229 187.187 357.148 189.935 355.208 194.001C354.398 195.693 354.024 197.828 355.098 199.367C356.693 201.654 360.272 204.212 362.942 202.961C366.139 201.446 368.588 199.44 372.173 198.68Z" fill="#DFEAF1"/>
<path d="M350.243 116.074C353.788 116.036 357.266 117.038 360.247 118.956C363.069 116.284 366.551 114.409 370.336 113.524C374.122 112.638 378.075 112.773 381.79 113.915C382.185 111.654 383.193 109.545 384.705 107.817C386.218 106.09 388.176 104.81 390.366 104.119C392.556 103.428 394.894 103.351 397.126 103.896C399.357 104.442 401.395 105.59 403.018 107.214C404.64 108.838 405.786 110.877 406.328 113.107C406.871 115.337 406.79 117.673 406.094 119.861C405.398 122.048 404.115 124.002 402.383 125.51C400.652 127.018 398.539 128.022 396.275 128.412C397.085 131.176 397.342 134.071 397.032 136.933C396.721 139.796 395.85 142.569 394.467 145.095C393.084 147.621 391.217 149.85 388.972 151.655C386.727 153.459 384.148 154.805 381.382 155.614C378.617 156.423 375.719 156.679 372.854 156.369C369.99 156.059 367.214 155.189 364.686 153.807C362.158 152.425 359.927 150.559 358.121 148.316C356.315 146.073 354.968 143.496 354.159 140.733C352.864 140.998 351.546 141.131 350.224 141.132C341.57 141.132 334.549 135.52 334.549 128.603C334.549 121.685 341.601 116.074 350.243 116.074Z" fill="#3F3D56"/>
<path opacity="0.1" d="M347.119 134.864C348.44 134.868 349.759 134.734 351.053 134.465C351.668 136.708 352.637 138.839 353.925 140.776C352.712 141.009 351.479 141.129 350.243 141.132C342.153 141.132 335.512 136.225 334.659 129.946C337.538 132.938 342.049 134.864 347.119 134.864Z" fill="black"/>
<path opacity="0.1" d="M372.197 150.527C375.63 150.522 379.015 149.713 382.079 148.165C385.143 146.618 387.801 144.374 389.84 141.615C391.88 138.856 393.244 135.657 393.823 132.276C394.403 128.895 394.181 125.425 393.176 122.145C396.08 121.634 398.711 120.118 400.607 117.861C402.503 115.604 403.542 112.752 403.542 109.806C403.544 109.053 403.476 108.302 403.34 107.562C404.871 109.214 405.927 111.248 406.399 113.45C406.871 115.652 406.74 117.94 406.02 120.074C405.3 122.208 404.018 124.108 402.309 125.576C400.599 127.043 398.526 128.023 396.306 128.412C397.996 133.956 397.42 139.943 394.705 145.064C391.989 150.185 387.355 154.023 381.816 155.74C376.276 157.457 370.281 156.912 365.142 154.225C360.003 151.538 356.138 146.928 354.392 141.401C356.421 144.227 359.094 146.528 362.19 148.115C365.287 149.702 368.717 150.529 372.197 150.527Z" fill="black"/>
<path d="M292.155 187.491C292.088 187.397 292.109 187.268 292.201 187.202C292.294 187.136 292.423 187.158 292.49 187.252L294.222 189.678C294.289 189.772 294.269 189.901 294.176 189.967C294.084 190.033 293.955 190.011 293.888 189.917L292.155 187.491Z" fill="#3A3768"/>
<path d="M301.855 177.188C301.818 177.136 301.83 177.063 301.882 177.026C301.935 176.988 302.007 177.001 302.045 177.053L302.558 177.772C302.596 177.824 302.583 177.897 302.531 177.934C302.479 177.972 302.406 177.959 302.368 177.907L301.855 177.188Z" fill="#3A3768"/>
<path d="M303.047 178.881C303.006 178.824 303.019 178.743 303.077 178.702C303.135 178.66 303.216 178.674 303.257 178.732L304.237 180.105C304.279 180.163 304.265 180.243 304.207 180.284C304.149 180.326 304.069 180.312 304.027 180.254L303.047 178.881Z" fill="#3A3768"/>
<path d="M304.57 181.011C304.53 180.956 304.543 180.879 304.598 180.84C304.653 180.801 304.73 180.813 304.769 180.869L305.768 182.266C305.807 182.321 305.794 182.398 305.739 182.437C305.684 182.477 305.607 182.464 305.568 182.409L304.57 181.011Z" fill="#3A3768"/>
<path d="M289.18 182.283L297.894 176.071C298.589 175.575 299.555 175.736 300.051 176.431L314.543 196.724C315.039 197.418 314.877 198.383 314.182 198.879L305.469 205.091C304.774 205.587 303.808 205.426 303.311 204.731L288.82 184.438C288.323 183.744 288.485 182.779 289.18 182.283Z" fill="#3A3768"/>
<path opacity="0.1" d="M289.18 182.283L297.894 176.071C298.589 175.575 299.555 175.736 300.051 176.431L314.543 196.724C315.039 197.418 314.877 198.383 314.182 198.879L305.469 205.091C304.774 205.587 303.808 205.426 303.311 204.731L288.82 184.438C288.323 183.744 288.485 182.779 289.18 182.283Z" fill="black"/>
<path d="M289.749 181.14L298.462 174.927C299.158 174.431 300.123 174.593 300.62 175.288L315.112 195.58C315.608 196.275 315.446 197.24 314.751 197.736L306.038 203.948C305.342 204.444 304.376 204.283 303.88 203.588L289.388 183.295C288.892 182.6 289.054 181.635 289.749 181.14Z" fill="#3A3768"/>
<path d="M290.536 181.509L291.818 180.589L291.929 180.742C292.066 180.93 292.27 181.058 292.499 181.098C292.728 181.138 292.964 181.087 293.156 180.957L297.256 178.031C297.451 177.892 297.582 177.682 297.621 177.446C297.66 177.21 297.604 176.969 297.465 176.774L297.355 176.621L298.582 175.762C298.699 175.678 298.831 175.618 298.971 175.585C299.111 175.552 299.257 175.547 299.399 175.571C299.541 175.594 299.677 175.645 299.799 175.721C299.921 175.797 300.027 175.897 300.11 176.014L314.276 195.853C314.445 196.089 314.513 196.382 314.465 196.668C314.418 196.954 314.26 197.21 314.024 197.38L305.96 203.126C305.842 203.21 305.71 203.27 305.57 203.302C305.429 203.335 305.284 203.339 305.142 203.315C305 203.291 304.864 203.239 304.742 203.163C304.62 203.086 304.514 202.986 304.431 202.869L290.266 183.036C290.182 182.918 290.123 182.785 290.092 182.644C290.06 182.503 290.057 182.358 290.082 182.216C290.107 182.074 290.16 181.938 290.238 181.817C290.316 181.696 290.417 181.591 290.536 181.509Z" fill="#70DDFF"/>
<path d="M294.27 178.952L295.519 178.061C295.607 177.998 295.73 178.019 295.793 178.107C295.856 178.195 295.836 178.318 295.747 178.381L294.498 179.271C294.41 179.334 294.287 179.314 294.224 179.226C294.161 179.137 294.182 179.015 294.27 178.952Z" fill="#E6E8EC"/>
<path d="M293.838 179.761C293.716 179.761 293.617 179.662 293.617 179.54C293.617 179.418 293.716 179.319 293.838 179.319C293.96 179.319 294.059 179.418 294.059 179.54C294.059 179.662 293.96 179.761 293.838 179.761Z" fill="#E6E8EC"/>
<path d="M299.55 153.532L299.872 154.262C301.334 153.615 302.844 153.01 304.35 152.46L304.077 151.709C302.55 152.265 301.028 152.878 299.55 153.532Z" fill="white"/>
<path d="M290.917 158.075L291.341 158.752C292.7 157.91 294.109 157.106 295.528 156.363L295.154 155.654C293.72 156.408 292.296 157.224 290.917 158.075Z" fill="white"/>
<path d="M282.994 163.757L283.505 164.372C284.74 163.351 286.024 162.36 287.323 161.427L286.857 160.779C285.543 161.724 284.24 162.723 282.994 163.757Z" fill="white"/>
<path d="M275.936 170.462L276.524 171.002C277.606 169.825 278.744 168.668 279.9 167.568L279.349 166.99C278.177 168.101 277.028 169.271 275.936 170.462Z" fill="white"/>
<path d="M269.859 178.076L270.518 178.529C271.426 177.214 272.395 175.913 273.393 174.661L272.766 174.167C271.758 175.429 270.778 176.745 269.859 178.076Z" fill="white"/>
<path d="M264.876 186.446L265.589 186.805C266.311 185.376 267.094 183.955 267.911 182.583L267.221 182.174C266.394 183.563 265.605 185 264.876 186.446Z" fill="white"/>
<path d="M261.076 195.412L261.831 195.674C262.351 194.162 262.932 192.648 263.556 191.176L262.82 190.863C262.19 192.354 261.603 193.884 261.076 195.412Z" fill="white"/>
<path d="M258.865 203.238L259.739 203.004C259.944 202.09 260.171 201.178 260.413 200.279L259.641 200.073C259.359 201.118 259.101 202.173 258.865 203.238Z" fill="white"/>
<path d="M281.399 125.39L281.867 126.449C283.99 125.511 286.182 124.632 288.369 123.833L287.972 122.743C285.756 123.551 283.546 124.439 281.399 125.39Z" fill="white"/>
<path d="M268.865 131.986L269.479 132.97C271.453 131.747 273.499 130.579 275.558 129.5L275.016 128.471C272.934 129.566 270.866 130.751 268.865 131.986Z" fill="white"/>
<path d="M257.36 140.237L258.101 141.129C259.895 139.647 261.759 138.209 263.645 136.853L262.969 135.912C261.061 137.284 259.169 138.735 257.36 140.237Z" fill="white"/>
<path d="M247.111 149.973L247.964 150.757C249.536 149.047 251.188 147.368 252.868 145.77L252.067 144.93C250.365 146.544 248.697 148.243 247.111 149.973Z" fill="white"/>
<path d="M238.288 161.027L239.244 161.685C240.563 159.777 241.97 157.887 243.418 156.069L242.509 155.352C241.044 157.185 239.621 159.095 238.288 161.027Z" fill="white"/>
<path d="M231.053 173.181L232.087 173.703C233.136 171.627 234.272 169.564 235.458 167.571L234.457 166.978C233.256 168.996 232.111 171.082 231.053 173.181Z" fill="white"/>
<path d="M225.535 186.2L226.631 186.58C227.386 184.385 228.229 182.186 229.136 180.049L228.067 179.594C227.152 181.76 226.299 183.981 225.535 186.2Z" fill="white"/>
<path d="M222.325 197.563L223.594 197.224C223.891 195.897 224.221 194.572 224.572 193.267L223.451 192.967C223.042 194.485 222.667 196.017 222.325 197.563Z" fill="white"/>
<path d="M262.245 85.7312L262.941 87.3086C266.101 85.9113 269.363 84.6032 272.618 83.4136L272.027 81.7926C268.729 82.9939 265.44 84.3169 262.245 85.7312Z" fill="white"/>
<path d="M243.589 95.5488L244.503 97.0131C247.441 95.1937 250.486 93.4544 253.552 91.8494L252.744 90.3177C249.646 91.9469 246.568 93.7104 243.589 95.5488Z" fill="white"/>
<path d="M226.465 107.829L227.569 109.157C230.239 106.951 233.013 104.811 235.82 102.793L234.813 101.393C231.974 103.434 229.159 105.594 226.465 107.829Z" fill="white"/>
<path d="M211.211 122.32L212.482 123.486C214.82 120.942 217.28 118.443 219.779 116.065L218.587 114.815C216.055 117.217 213.572 119.746 211.211 122.32Z" fill="white"/>
<path d="M198.08 138.773L199.502 139.752C201.465 136.912 203.56 134.099 205.715 131.394L204.362 130.327C202.182 133.054 200.064 135.897 198.08 138.773Z" fill="white"/>
<path d="M187.311 156.862L188.85 157.639C190.411 154.549 192.103 151.479 193.868 148.513L192.378 147.63C190.591 150.633 188.886 153.738 187.311 156.862Z" fill="white"/>
<path d="M179.098 176.24L180.729 176.805C181.853 173.537 183.109 170.265 184.458 167.085L182.867 166.408C181.506 169.63 180.236 172.937 179.098 176.24Z" fill="white"/>
<path d="M174.32 193.152L176.209 192.646C176.652 190.671 177.143 188.699 177.665 186.758L175.996 186.311C175.388 188.571 174.829 190.851 174.32 193.152Z" fill="white"/>
</svg>
