<svg width="86" height="274" fill="none" xmlns="http://www.w3.org/2000/svg"><path d="M25.472 41.676h-.732v6.768h.732v-6.768zM71.206 58.14h-.732v6.769h.732v-6.77zm-5.122 169.764h-.732v6.769h.732v-6.769zm10.611-55.978h-.732v6.769h.732v-6.769z" fill="#F2F2F2"/><path d="M29.19 22.639s5.349 15.222 2.057 17.564c-3.29 2.342 11.109 21.468 11.109 21.468l17.28-4.684-9.463-16.003s-1.234-16.003-1.234-18.345c0-2.342-19.749 0-19.749 0z" fill="#A0616A"/><path opacity=".1" d="M29.19 22.639s5.349 15.222 2.057 17.564c-3.29 2.342 11.109 21.468 11.109 21.468l17.28-4.684-9.463-16.003s-1.234-16.003-1.234-18.345c0-2.342-19.749 0-19.749 0z" fill="#000"/><path d="M20.213 131.148s-1.561 19.516 0 29.665c1.561 10.148 3.903 38.251 3.903 38.251s0 53.084 8.587 53.865c8.587.78 14.832 1.561 15.613-1.562.78-3.122-3.903-4.684-1.561-6.245s3.122-7.026 0-13.271c-3.123-6.245 0-69.477 0-69.477l14.832 39.813s1.561 32.787 3.123 37.471c1.56 4.684-1.562 13.271 3.903 14.051 5.464.781 11.71-3.903 14.832-5.464 3.123-1.562-4.684-1.562-3.122-2.342 1.56-.781 6.245-3.123 4.683-3.903-1.56-.781-3.122-38.252-3.122-38.252s-4.294-80.016-9.758-83.138c-5.465-3.123-8.978 2.255-8.978 2.255l-42.935 8.283z" fill="#003269"/><path d="M34.265 249.806v6.245s-7.026 16.976 0 16.976 12.49 1.76 12.49-.582v-21.078l-12.49-1.561zm46.057-.011v6.245s7.026 16.976 0 16.976-12.49 1.759-12.49-.582v-21.078l12.49-1.561z" fill="#2F2E41"/><path d="M40.119 33.958c7.76 0 14.052-6.291 14.052-14.052 0-7.76-6.291-14.051-14.052-14.051-7.76 0-14.052 6.291-14.052 14.051s6.291 14.052 14.052 14.052z" fill="#A0616A"/><path d="M35.826 46.058s3.903 11.71 10.148 9.368l6.245-2.342 10.93 74.942s-8.588 12.49-21.078 4.683c-12.49-7.806-6.245-86.651-6.245-86.651z" fill="#00AAC8"/><path d="M46.755 43.716l3.513-7.416s20.687 9.758 23.81 12.88c3.122 3.123 3.122 7.807 3.122 7.807l-5.465 19.516S73.297 119.44 73.297 121s5.464 10.148 1.561 7.026c-3.903-3.123-4.684-6.246-7.806-1.562-3.123 4.684-10.149 10.149-10.149 10.149L46.755 43.716z" fill="#003269"/><path d="M74.077 99.922l-2.342 21.858s-14.051 12.491-10.929 13.271c3.123.781 4.684-2.342 4.684-2.342s5.465 5.465 8.587 2.342c3.123-3.122 10.93-32.787 10.93-32.787l-10.93-2.342z" fill="#A0616A"/><path d="M40.42.048c-3.116-.112-6.45-.167-9.076 1.512a13.286 13.286 0 00-3.136 3.07c-2.558 3.234-4.768 7.302-3.818 11.315l1.103-.43a7.22 7.22 0 01-.697 3.095c.156-.451.676.28.537.736l-1.216 3.988c1.999-.732 4.485.751 4.789 2.858.139-4.633.62-9.945 4.377-12.657 1.895-1.368 4.293-1.785 6.601-2.156 2.129-.342 4.36-.668 6.4.032 2.038.701 3.775 2.786 3.312 4.892.94-.324 1.992.332 2.457 1.21.464.88.489 1.917.503 2.911 1.002.709 2.142-.698 2.55-1.855.96-2.716 1.812-5.608 1.295-8.442-.516-2.834-2.826-5.542-5.706-5.551a2 2 0 00.52-1.409l-2.374-.2a2.624 2.624 0 001.568-.827C49.456 3.19 41.96.103 40.419.048z" fill="#2F2E41"/><path d="M39.138 41.346s-6.722-6.22-9.141-5.84c-2.42.381-5.722 5.84-5.722 5.84S4.458 47.585 5.283 53.823c.826 6.239 9.909 36.652 9.909 36.652s7.431 36.651.826 40.55c-6.606 3.899 31.377 14.037 32.203 9.358.825-4.679 2.477-51.468 0-58.486-2.478-7.019-9.083-40.55-9.083-40.55zm27.914 12.518h9.652s6.741 29.665 7.522 32.788c.78 3.122 2.342 17.954 1.561 17.954-.78 0-16.393-3.122-16.393-.78l-2.342-49.962z" fill="#003269"/><path d="M66.725 127.323H29.772c-3.606-16.588-3.908-32.616 0-47.929h36.953c-5.964 15.038-6.336 30.955 0 47.929z" fill="#F2F2F2"/><path d="M14.748 106.948l10.93 4.684s21.076 3.123 21.076-5.464c0-8.588-21.077-3.904-21.077-3.904l-7.026-2.246-3.903 6.93z" fill="#A0616A"/><path d="M17.09 49.18l-9.367 2.343L.697 92.897s-2.342 10.929 1.561 11.709c3.903.781 14.832 7.026 14.832 7.026s1.562-11.71 4.684-11.71l-7.806-6.245 4.684-27.322L17.09 49.18z" fill="#003269"/></svg>