<svg width="296" height="192" fill="none" xmlns="http://www.w3.org/2000/svg"><path opacity=".1" d="M143.5 192c81.561 0 151.86-18.201 151.86-24 0-5.799-70.299-21-151.86-21S0 162.201 0 168c0 5.799 61.939 24 143.5 24z" fill="#0A6EAA"/><path d="M265.731 94.878l-.716 9.789a2.186 2.186 0 01-2.921 1.89 2.17 2.17 0 01-1.271-1.217 2.194 2.194 0 01-.164-.884l.228-9.578 8.429-27.027-1.02-16.558 7.979-.285-.57 19.086-9.974 24.784z" fill="#A0616A"/><path d="M277.923 54.372c-3.558-.82-6.604.136-8.967 3.462l-1.83-13.836a3.637 3.637 0 017.084-1.461l3.713 11.835z" fill="#0A6EAA"/><path d="M278.343 38.133c-8.222-3.496-16.669-1.281-26.671.256-.093-1.861-1.221-4.127-.039-5.426 1.436-1.578 1.303-3.236.44-4.904-2.21-4.264.956-8.802 4.151-12.575a7.086 7.086 0 015.908-2.478l5.92.422c2.95.211 3.665 2.23 4.501 5.066 1.414 1.922 2.17 3.839 1.694 5.745 2.117 1.447 2.473 3.193 1.522 5.161-.807 1.24-.799 2.446.036 3.62a16.678 16.678 0 012.485 4.933l.053.18z" fill="#2F2E41"/><path d="M248.993 165.732h-3.933l-2.336-32.475 9.974-.285-3.705 32.76z" fill="#A0616A"/><path d="M249.278 176.272c-1.048.478-1.927-3.398-2.811-2.529-2.475 2.431-8.411 1.886-8.411 1.886a1.551 1.551 0 01-.919-.799 1.548 1.548 0 01.363-1.827c.187-.167.411-.286.655-.346l2.631-.658 4.132-7.264 4.218-.285a10.074 10.074 0 011.864 8.594c-.383 1.562-.974 2.887-1.722 3.228z" fill="#2F2E41"/><path d="M275.181 165.732h-3.933l-2.336-32.475 10.258-1.994-3.989 34.469z" fill="#A0616A"/><path d="M275.466 176.272c-1.049.479-1.927-3.398-2.812-2.529-2.474 2.431-8.41 1.886-8.41 1.886a1.551 1.551 0 01-1.072-1.401 1.553 1.553 0 011.17-1.571l2.632-.658 4.132-7.264 4.503-.57.113.186a11.609 11.609 0 011.245 9.491c-.375 1.2-.885 2.149-1.501 2.43zM284 134.724c-6.357 2.812-10.164-.231-16.635.689-1.847.262-4.024-26.899-5.88-26.786-2.364.145-4.41 27.518-6.788 27.424a78.611 78.611 0 01-17.672-2.794c6.162-23.891 13.438-45.494 13.393-63.24l18.486-1.425 2.544 4.033c4.08 9.57 8.248 20.196 10.324 31.317L284 134.724z" fill="#2F2E41"/><path d="M259.537 33.269a8.548 8.548 0 008.549-8.546 8.548 8.548 0 00-8.549-8.546 8.548 8.548 0 00-8.549 8.546 8.548 8.548 0 008.549 8.546z" fill="#A0616A"/><path d="M268.94 39.82l-10.543.57-1.71-9.4 8.549-1.424 3.704 10.255z" fill="#A0616A"/><path d="M269.759 70.017l-13.509.325-5.832.814c-2.862-9.453-5.272-18.884.57-26.778l6.839-6.836 10.259-.285.135.077a8.256 8.256 0 013.785 9.608c-2.545 8.27-2.223 16.08-2.247 23.075z" fill="#0A6EAA"/><path d="M269.241 24.68a10.387 10.387 0 00-2.628-6.921v-3.036h-9.27a5.384 5.384 0 00-5.383 5.381h6.179c-1.666 3.066-2.384 6.281-.78 9.378.968 1.869 1.011 5.58-.315 7.363.697.04 1.396.04 2.093 0 2.864 0 10.674.372 12.559-1.495 1.91-1.89-2.455-7.772-2.455-10.67z" fill="#2F2E41"/><path d="M254.867 95.775h-54.761a1.309 1.309 0 00-1.305 1.304v57.462a1.308 1.308 0 001.305 1.305h54.761a1.312 1.312 0 001.305-1.305V97.079a1.31 1.31 0 00-1.305-1.304z" fill="#E6E6E6"/><path d="M253.562 97.406h-52.151a.983.983 0 00-.979.978v54.852a.98.98 0 00.979.979h52.151a.98.98 0 00.979-.979V98.384a.98.98 0 00-.979-.978z" fill="#fff"/><path d="M250.133 96.509l-.716 9.789a2.186 2.186 0 01-2.921 1.89 2.17 2.17 0 01-1.271-1.217 2.194 2.194 0 01-.164-.884l.228-9.578 7.124-27.063.285-16.522 7.979-.285-.57 19.086-9.974 24.784z" fill="#A0616A"/><path d="M261.531 54.064c-3.382-1.375-6.542-.914-9.403 1.994l.392-13.95a3.634 3.634 0 017.226-.318l1.785 12.274z" fill="#0A6EAA"/><path d="M249.692 111.281a.562.562 0 01.562.562v1.124a.558.558 0 01-.165.397.558.558 0 01-.397.165h-44.411a.565.565 0 01-.562-.562v-1.124a.562.562 0 01.562-.562h44.411zm0 5.338a.563.563 0 01.562.562v1.124a.562.562 0 01-.562.562h-44.411a.564.564 0 01-.398-.164.551.551 0 01-.121-.183.547.547 0 01-.043-.215v-1.124a.554.554 0 01.164-.397.575.575 0 01.398-.165h44.411" fill="#E6E6E6"/><path d="M249.692 121.958a.563.563 0 01.562.562v1.124a.562.562 0 01-.562.562h-44.411a.566.566 0 01-.398-.164.566.566 0 01-.164-.398v-1.124a.562.562 0 01.562-.562h44.411z" fill="#00AAC8"/><path d="M249.692 127.414c.149 0 .292.059.397.165a.558.558 0 01.165.397v1.124a.562.562 0 01-.562.562h-44.411a.572.572 0 01-.398-.164.572.572 0 01-.164-.398v-1.124a.557.557 0 01.562-.562h44.411m0 5.339c.149 0 .292.059.397.165a.558.558 0 01.165.397v1.124a.562.562 0 01-.562.562h-44.411a.572.572 0 01-.398-.164.572.572 0 01-.164-.398v-1.124a.557.557 0 01.562-.562h44.411zm0 5.339a.562.562 0 01.562.562v1.124a.563.563 0 01-.562.562h-44.411a.562.562 0 01-.562-.562v-1.124c0-.149.059-.292.164-.398a.566.566 0 01.398-.164h44.411z" fill="#E6E6E6"/><path d="M53.7 164.206l-4.361.242-9.933-66.842-9.327 66.721-4.724-1.09c-2.623-28.761-6.039-58.49-3.634-71.444h33.19c4.928 12.877 1.638 43.109-1.212 72.413z" fill="#2F2E41"/><path d="M26.57 176.308a3.903 3.903 0 01-3.591-4.83l1.984-8.059c1.659-2.061 3.143-1.97 4.476 0l1.363-.584.973 7.005-1.342 3.92a3.901 3.901 0 01-3.864 2.548zm26.4 0a3.903 3.903 0 003.591-4.83l-1.985-8.059c-1.659-2.061-3.143-1.97-4.476 0l-1.363-.584-.973 7.005 1.342 3.92a3.9 3.9 0 003.863 2.548z" fill="#2F2E41"/><path d="M40.375 23.498c5.352 0 9.69-4.337 9.69-9.687s-4.338-9.688-9.69-9.688c-5.352 0-9.69 4.338-9.69 9.688 0 5.35 4.338 9.687 9.69 9.687z" fill="#FFB8B8"/><path d="M46.19 31.732H33.833l.727-12.836h11.628v12.836z" fill="#FFB8B8"/><path d="M59.32 93.448H20.074c5.722-19.289 4.716-39.951.485-61.273l10.66-3.39 2.906-2.422c3.648 4.442 7.682 4.405 12.113-.242l3.634 2.664 10.66 3.632c-5.623 20.543-6.537 40.905-1.212 61.03z" fill="#003269"/><path d="M30.026 11.307a8.764 8.764 0 01.594-7.123c1.184-2.1 3.465-4.067 7.849-4.178 9.565-.242 13.71 6.968 13.171 9.082-.539 2.114-2.467 7.144-2.467 7.144s1.196-4.843-1.195-5.328c-2.392-.484-11.658-2.422-14.348-.242a5.466 5.466 0 00-2.093 5.086l-1.511-4.44z" fill="#F9FACE"/><path d="M69.197 96.1H14.436a1.315 1.315 0 00-1.305 1.306v57.461a1.31 1.31 0 001.305 1.305h54.761a1.311 1.311 0 001.305-1.305V97.406a1.308 1.308 0 00-1.305-1.305z" fill="#E6E6E6"/><path d="M67.892 97.732H15.74a.982.982 0 00-.979.978v54.852a.979.979 0 00.979.979h52.15a.98.98 0 00.98-.979V98.71a.982.982 0 00-.98-.978z" fill="#fff"/><path d="M58 100.785a3.97 3.97 0 01-2.213-5.251l3.242-7.616-.485-24.218-1.695-8.234 8.721-3.39 1.696 11.382-3.15 26.155-.726 7.84a3.967 3.967 0 01-5.39 3.332zm-35.735 0a3.972 3.972 0 002.53-3.705c0-.531-.108-1.057-.317-1.546l-3.241-7.616.484-24.218 1.696-8.234-8.721-3.39L13 63.457l3.15 26.155.726 7.84a3.967 3.967 0 005.39 3.332z" fill="#FFB8B8"/><path d="M66.297 52.802a30.926 30.926 0 00-9.69 4.359l-2.181-6.539 5.572-18.648a7.959 7.959 0 015.426 7.046 75.839 75.839 0 00.873 13.782zm-52.328-.001a30.93 30.93 0 019.69 4.36l2.18-6.54-4.845-18.89c-3.075 1.025-5.948 4.054-6.152 7.288a75.848 75.848 0 01-.873 13.782z" fill="#003269"/><path d="M64.022 111.304a.563.563 0 01.562.562v1.124a.56.56 0 01-.562.562H19.611a.567.567 0 01-.52-.347.569.569 0 01-.042-.215v-1.124a.561.561 0 01.562-.562h44.411zm0 5.339a.563.563 0 01.562.562v1.124a.56.56 0 01-.562.562H19.611a.567.567 0 01-.52-.347.569.569 0 01-.042-.215v-1.124a.57.57 0 01.165-.398.566.566 0 01.398-.164h44.41z" fill="#E6E6E6"/><path d="M64.022 121.982a.563.563 0 01.562.562v1.124a.56.56 0 01-.562.562H19.611a.564.564 0 01-.562-.562v-1.124a.565.565 0 01.562-.562h44.411" fill="#00AAC8"/><path d="M64.022 127.437a.56.56 0 01.562.562v1.124a.56.56 0 01-.562.562H19.611a.567.567 0 01-.52-.347.561.561 0 01-.042-.215v-1.124a.561.561 0 01.562-.562h44.411zm0 5.339a.56.56 0 01.562.562v1.124a.56.56 0 01-.562.562H19.611a.567.567 0 01-.52-.347.561.561 0 01-.042-.215v-1.124a.561.561 0 01.562-.562h44.411zm0 5.339a.56.56 0 01.562.562v1.124a.56.56 0 01-.562.562H19.611a.56.56 0 01-.562-.562v-1.124a.56.56 0 01.562-.562h44.411zm110.827-80.703h-54.761a1.305 1.305 0 00-1.305 1.305v95.83a1.312 1.312 0 001.305 1.305h54.761a1.31 1.31 0 001.306-1.305v-95.83a1.307 1.307 0 00-1.306-1.305z" fill="#E6E6E6"/><path d="M174.5 59.813a1.042 1.042 0 00-.137-.33.987.987 0 00-.819-.44h-52.151a.982.982 0 00-.978.979v93.22a.981.981 0 00.978.979h52.151a.986.986 0 00.692-.287.986.986 0 00.287-.692v-93.22a.864.864 0 00-.023-.209z" fill="#fff"/><path d="M169.674 109.673a.562.562 0 01.563.562v1.124a.563.563 0 01-.563.562h-44.411a.569.569 0 01-.397-.165.56.56 0 01-.165-.397v-1.124a.565.565 0 01.562-.562h44.411zm0 5.339a.566.566 0 01.563.562v1.124a.563.563 0 01-.563.562h-44.411a.569.569 0 01-.397-.165.56.56 0 01-.165-.397v-1.124a.565.565 0 01.562-.562h44.411z" fill="#E6E6E6"/><path d="M169.674 120.351a.566.566 0 01.563.562v1.124a.563.563 0 01-.563.562h-44.411a.563.563 0 01-.562-.562v-1.124a.562.562 0 01.562-.562h44.411z" fill="#00AAC8"/><path d="M169.674 125.806a.567.567 0 01.563.562v1.124a.566.566 0 01-.563.562h-44.411a.568.568 0 01-.397-.164.554.554 0 01-.165-.398v-1.124a.573.573 0 01.165-.397.56.56 0 01.397-.165h44.411zm0 5.339a.567.567 0 01.563.562v1.124a.566.566 0 01-.563.562h-44.411a.568.568 0 01-.397-.164.554.554 0 01-.165-.398v-1.124a.569.569 0 01.165-.397.56.56 0 01.397-.165h44.411zm0 5.339a.567.567 0 01.563.562v1.124a.566.566 0 01-.563.562h-44.411a.562.562 0 01-.562-.562v-1.124a.563.563 0 01.562-.562h44.411z" fill="#E6E6E6"/><path d="M125.585 67.999a.656.656 0 00-.653.652v30.31a.653.653 0 00.653.652h43.768a.652.652 0 00.653-.652V68.65a.655.655 0 00-.653-.652h-43.768z" fill="#00AAC8"/><path d="M193.557 44.46a47.826 47.826 0 013.514 1.665l.304-.578a48.601 48.601 0 00-3.562-1.688l-.256.6zm13.514 7.809l-.436.486c.963.86 1.901 1.772 2.788 2.708l.474-.448a48.17 48.17 0 00-2.826-2.746zm-6.633-4.199a47.618 47.618 0 013.195 2.216l.394-.52a48.358 48.358 0 00-3.24-2.246l-.349.55zm-14.253-6.057a48.33 48.33 0 013.736 1.074l.206-.62a48.936 48.936 0 00-3.787-1.088l-.155.634zm35.809 37.339l-.644.103a45.23 45.23 0 01.449 3.858l.651-.048a45.694 45.694 0 00-.456-3.913zm-2.536-7.422c.422 1.218.796 2.47 1.11 3.721l.633-.159a45.462 45.462 0 00-1.126-3.776l-.617.213zm-3.16-7.088c.625 1.13 1.208 2.3 1.734 3.476l.595-.266a46.108 46.108 0 00-1.758-3.525l-.571.315zm-4.322-6.448a46.08 46.08 0 012.298 3.133l.542-.363a46.764 46.764 0 00-2.33-3.178l-.51.408zm-31.657-20.937c-1.481 1.176-3.832 2.243-5.714 2.845 1.82.77 4.063 2.047 5.431 3.354l-.876-2.816c1.077.1 2.155.234 3.215.404l.103-.644a49.532 49.532 0 00-3.291-.413l1.132-2.73zM76.415 68.052l.596.266a45.538 45.538 0 011.733-3.476l-.571-.315a46.146 46.146 0 00-1.758 3.525zm-2.573 7.44l.632.159a44.51 44.51 0 011.11-3.722l-.617-.213a45.524 45.524 0 00-1.125 3.776zm-1.25 7.773l.65.048c.095-1.289.246-2.587.45-3.858l-.644-.103a45.862 45.862 0 00-.456 3.913zm7.634-22.101l.542.363a46.371 46.371 0 012.298-3.133l-.51-.408a46.921 46.921 0 00-2.33 3.178zm17.441-15.617l.303.578c1.144-.6 2.327-1.16 3.515-1.665l-.256-.6a48.697 48.697 0 00-3.562 1.688zm7.249-3.08l.205.62a48.02 48.02 0 013.736-1.074l-.155-.634c-1.273.31-2.547.677-3.786 1.088zM85.145 55.015l.474.448a47.098 47.098 0 012.788-2.708l-.435-.486a47.698 47.698 0 00-2.827 2.746zm5.87-5.25l.394.52a47.604 47.604 0 013.195-2.214l-.35-.551a48.227 48.227 0 00-3.239 2.245zm29.422-9.463c-1.882-.602-4.233-1.67-5.714-2.846l1.132 2.732a49.532 49.532 0 00-3.291.412l.103.644c1.06-.17 2.138-.304 3.215-.404l-.876 2.815c1.368-1.306 3.611-2.583 5.431-3.353z" fill="#CCC"/><path d="M147.469 50.414a10.116 10.116 0 01-9.921-12.085 10.106 10.106 0 017.947-7.945 10.12 10.12 0 0110.385 4.3 10.114 10.114 0 011.704 5.618 10.127 10.127 0 01-10.115 10.112zm0-19.572a9.463 9.463 0 00-9.281 11.305 9.46 9.46 0 0012.902 6.894 9.464 9.464 0 005.842-8.74 9.47 9.47 0 00-9.463-9.46z" fill="#00AAC8"/><path d="M148.448 35.41h-1.958v9.785h1.958V35.41z" fill="#00AAC8"/><path d="M152.364 41.28v-1.957h-9.79v1.957h9.79z" fill="#00AAC8"/></svg>