<svg width="140" height="56" fill="none" xmlns="http://www.w3.org/2000/svg"><g clip-path="url(#clip0)"><path d="M83.726 39.366L72.47 16.911h6.313l6.314 13.03 6.04-13.03H98L86.47 39.366h-2.744zm19.49-22.455h5.49v22.455h-5.49V16.911zm28.549 17.742h-9.334l-2.196 4.713h-5.764L126 16.911h2.471l11.804 22.455h-6.04l-2.47-4.712zm-7.137-4.435h4.941l-2.471-4.99-2.47 4.99z" fill="#1A0B3D"/><path d="M27.726 0C43.098 0 55.45 12.475 55.45 28S43.098 56 27.726 56V0z" fill="#340099"/><path d="M27.726 28L8.236 47.96c-10.981-11.089-10.981-28.831 0-39.643L27.725 28z" fill="#00CBFF"/></g><defs><clipPath id="clip0"><path fill="#fff" d="M0 0h140v56H0z"/></clipPath></defs></svg>