<svg width="44" height="44" viewBox="0 0 44 44" fill="none" xmlns="http://www.w3.org/2000/svg">
<path d="M22.001 44C34.1512 44 44.001 34.1503 44.001 22C44.001 9.84974 34.1512 0 22.001 0C9.85071 0 0.000976562 9.84974 0.000976562 22C0.000976562 34.1503 9.85071 44 22.001 44Z" fill="#25D366"/>
<path fill-rule="evenodd" clip-rule="evenodd" d="M22.7207 34.2398H22.7261C29.9388 34.2368 35.805 28.3692 35.8079 21.158C35.8093 17.6626 34.4498 14.3759 31.98 11.9033C29.5101 9.43053 26.2255 8.06816 22.726 8.06665C15.5154 8.06665 9.64682 13.9349 9.64395 21.1477C9.64297 23.4533 10.2454 25.7038 11.3902 27.6878L9.53427 34.4666L16.4692 32.6475C18.3799 33.6897 20.5312 34.239 22.7207 34.2398ZM28.869 23.9745C29.097 24.0847 29.2509 24.1591 29.3166 24.2688C29.3983 24.4051 29.3983 25.0596 29.1261 25.8233C28.8536 26.5868 27.5477 27.2836 26.9197 27.3774C26.3565 27.4616 25.6439 27.4968 24.8609 27.2479C24.3861 27.0973 23.7773 26.8962 22.9974 26.5594C19.9331 25.2362 17.8622 22.2662 17.4708 21.7048C17.4434 21.6655 17.4242 21.638 17.4135 21.6237L17.4109 21.6202C17.2379 21.3894 16.0788 19.8429 16.0788 18.2424C16.0788 16.7367 16.8184 15.9475 17.1589 15.5842C17.1822 15.5594 17.2036 15.5365 17.2228 15.5155C17.5225 15.1882 17.8766 15.1064 18.0945 15.1064C18.3124 15.1064 18.5305 15.1084 18.721 15.118C18.7445 15.1192 18.7689 15.119 18.7942 15.1189C18.9847 15.1178 19.2222 15.1164 19.4564 15.6791C19.5466 15.8957 19.6784 16.2167 19.8175 16.5554C20.0988 17.2401 20.4096 17.9967 20.4642 18.1062C20.546 18.2698 20.6004 18.4606 20.4915 18.6789C20.4751 18.7116 20.46 18.7425 20.4455 18.772C20.3637 18.939 20.3035 19.0619 20.1646 19.2241C20.11 19.2879 20.0536 19.3566 19.9971 19.4254C19.8847 19.5623 19.7722 19.6992 19.6743 19.7968C19.5107 19.9598 19.3403 20.1366 19.531 20.4639C19.7217 20.7911 20.3777 21.8615 21.3494 22.7283C22.394 23.66 23.3018 24.0538 23.762 24.2534C23.8519 24.2923 23.9247 24.3239 23.9781 24.3506C24.3048 24.5143 24.4955 24.4869 24.6862 24.2688C24.8769 24.0507 25.5033 23.3143 25.7212 22.9872C25.939 22.66 26.157 22.7145 26.4566 22.8236C26.7563 22.9327 28.3633 23.7234 28.6902 23.887C28.754 23.919 28.8137 23.9478 28.869 23.9745Z" fill="#FDFDFD"/>
</svg>
